<?xml version="1.0" encoding="utf-8"?>
<!-- Generator: Adobe Illustrator 23.0.3, SVG Export Plug-In . SVG Version: 6.00 Build 0)  -->
<svg version="1.1" id="圖層_1" xmlns="http://www.w3.org/2000/svg" xmlns:xlink="http://www.w3.org/1999/xlink" x="0px" y="0px"
	 viewBox="0 0 117 172" style="enable-background:new 0 0 117 172;" xml:space="preserve">
<style type="text/css">
	.st0{fill:#002D35;}
</style>
<g>
	<g>
		<path class="st0" d="M80.8,33.4c0.1,0.7,0.2,1.5,0.4,2.4c0.8,4.2,2.4,10.6,5.9,17.1l5,9.3c-8.3,16.1-7.7,36.5,1.9,59.5
			c-5.4,2.2-9.1,3.8-13.5,6.6c-9.9,6.4-17.3,18.7-19.6,32.5l-4.9,0c-2.3-13.8-9.7-26.1-19.7-32.5c-4.4-2.8-8.1-4.4-13.6-6.6
			c0.2-0.5,0.4-1,0.6-1.6c2.4-6.4,6.4-17.1,7.7-28.4c1.4-12.1-0.6-22.2-5.9-30l4.7-8.7c3.5-6.4,5.1-12.8,5.9-17.1
			c0.2-0.9,0.3-1.7,0.4-2.4c2.9,5.7,7.9,11,11.8,14.6c2,1.8,4.1,3.6,6.1,5.1c3,2.3,3.6,2.4,4.4,2.4c0.8,0,1.4-0.1,4.4-2.4
			c1.9-1.5,4.1-3.3,6.1-5.1C72.8,44.4,77.8,39.1,80.8,33.4 M85,8.6L82,21l-3,9.9c-4.9,11-19.8,21.9-20.5,21.9
			c-0.7,0-15.6-10.9-20.5-21.9L35,21L32,8.6l-2.6,0.7l-5.1,47.4l-3.8,3.3c17.6,20,2.2,53.2-1.1,63.1c6.7,2.8,10.8,4.3,15.5,7.4
			c10.7,6.8,17.2,20.3,18.8,32.9l9.4,0c1.6-12.7,8.1-26.1,18.8-32.9c4.8-3,8.8-4.6,15.5-7.4c-4.7-10.7-15.9-39.4-1.1-63.1
			c-2.5-2-2.5-2-3.8-3.3L87.6,9.3L85,8.6L85,8.6z M89.4,51.6c-3.1-5.7-4.8-11.6-5.7-16.3c-0.9-4.6-0.9-5.6,0.1-10l1.9-8.1L89.4,51.6
			L89.4,51.6z M27.6,51.6l3.6-34.5l1.9,8.1c1,4.4,1,5.4,0.1,10C32.4,39.9,30.7,45.9,27.6,51.6L27.6,51.6z"/>
	</g>
	<g>
		<rect x="56.5" y="67.6" class="st0" width="7.4" height="7.4"/>
		<g>
			<circle class="st0" cx="71.3" cy="71.2" r="3.7"/>
		</g>
		<polygon class="st0" points="43.6,74.9 48.6,67.6 53.6,74.9 		"/>
	</g>
</g>
</svg>
