<?xml version="1.0" encoding="utf-8"?>
<!-- Generator: Adobe Illustrator 23.0.3, SVG Export Plug-In . SVG Version: 6.00 Build 0)  -->
<svg version="1.1" id="圖層_1" xmlns="http://www.w3.org/2000/svg" xmlns:xlink="http://www.w3.org/1999/xlink" x="0px" y="0px"
	 viewBox="0 0 180 172" style="enable-background:new 0 0 180 172;" xml:space="preserve">
<style type="text/css">
	.st0{fill:none;stroke:#002D35;stroke-width:2.6528;stroke-miterlimit:10;}
	.st1{fill:#002D35;}
</style>
<g>
	<g id="_x33_MOCvg.tif">
		<path class="st0" d="M152.5,76.1c-7-22.5-27.4-39.7-50.2-44.7c-27.1-5.9-57.4,6.2-72.5,29.7c-10.4,16.3-15,43.3-1.8,59.4
			c1.7,2.1,2.6,4.4,2.6,7.1c0,4.4,0.2,8.8,0.4,13.2c0.1,1.5,0.4,2,1.9,2c2.1,0.1,4.3,0.1,6.3-0.3c16.2-2.5,30.6,2.7,46.6,2.9
			c17,0.2,33.3-6.9,50.6-3.8c2.1,0.4,4.3,0.3,6.4,0.2c1.5-0.1,1.8-0.6,1.8-2.1c0.1-4.4,0.1-8.9,0.2-13.3c0-2.3,0.9-4.3,2.2-6.2
			c1.5-2.1,2.9-4.2,4.1-6.5c2.1-4,3-8.3,3.5-12.7C155.7,92.6,155,84.2,152.5,76.1z"/>
	</g>
	<path class="st0" d="M74.8,41.3c0,0,41.7-8.2,60.2,24.2"/>
	<path class="st0" d="M137.6,70.8c0,0,4,8.2,4.7,17.4"/>
	<g>
		<rect x="68.3" y="110" class="st1" width="15.5" height="15.5"/>
		<g>
			<circle class="st1" cx="99.4" cy="117.7" r="7.7"/>
		</g>
		<polygon class="st1" points="41.2,125.5 51.6,110 62.1,125.5 		"/>
	</g>
</g>
</svg>
