<?xml version="1.0" encoding="utf-8"?>
<!-- Generator: Adobe Illustrator 23.0.3, SVG Export Plug-In . SVG Version: 6.00 Build 0)  -->
<svg version="1.1" id="圖層_1" xmlns="http://www.w3.org/2000/svg" xmlns:xlink="http://www.w3.org/1999/xlink" x="0px" y="0px"
	 viewBox="0 0 429.4 212" style="enable-background:new 0 0 429.4 212;" xml:space="preserve">
<style type="text/css">
	.st0{fill:#3C3736;}
</style>
<g>
	<path class="st0" d="M172.1,78.3l1.6-1.2l-0.4-2.2c0,0-6.5-5.6-7.1-12.6c-0.5-7,0.2-13.6,0.2-13.6l6.7-12.8
		c0,0,10.6-14.4,23.7-16.5c0,0-16.7-4.1-27.6,4.1c-10.9,8.2-8.9,21.6-4.7,22.9l-0.4,6.4l-6.4-7.3c0,0,0-11.1-11.1-16.5
		s-19-3.2-19-3.2s32.5,19.5,34.1,29.1l0.7,3.7l-4-1.2c0,0-8.8-9.7-17.6-5.5c-8.8,4.2-14.6,5.6-22.4,19l20.4-5.7l15.6-4.5l6.5,0.3
		l2.3,3.4C163.5,64.3,164.2,73.3,172.1,78.3z M181.2,20.8c-1.1,3.3-0.7,4.6-0.7,4.6l-2.9,2.3C177.7,23.2,181.2,20.8,181.2,20.8z
		 M173.7,22.6c-1.2,5.7,1.4,6.8,1.4,6.8l-3.1,3.1C169.9,26.3,173.7,22.6,173.7,22.6z M167.3,28.6c0.4,5.1,1.9,7.1,1.9,7.1l-2.6,4
		C165.4,34.7,167.3,28.6,167.3,28.6z M139.3,31.3c0.4-1.5-2.3-4.2-2.4-4.3c5.1,1.9,5.1,6.1,5.1,6.1L139.3,31.3z M146.2,35.9
		c0.5-1.8-1.9-5.6-1.9-5.6c4.7,1.8,5.4,7.8,5.4,7.8L146.2,35.9z M155.6,43.2l-3.6-2.4c1.1-1-0.1-5.3-0.1-5.3
		C155.7,38.7,155.6,43.2,155.6,43.2z M133.2,64.9c-1-2.7-6.4-3.3-6.4-3.3c8-1.7,11.8,1.5,11.8,1.5L133.2,64.9z M142.7,61.4
		c-2.6-3.5-7.2-3.9-7.2-3.9c8.7-1.7,11.9,2.3,11.9,2.3L142.7,61.4z M150.9,58.7c-0.7-1.6-4.4-3.4-4.4-3.4c6.4-0.4,9.8,2.8,9.8,2.8
		C153.4,57.9,150.9,58.7,150.9,58.7z"/>
	<path class="st0" d="M85.5,54.6c0,0-7.1,6-8.7,16.6c0,0-4.9-17.4-8.9-23.5c-4-6.1-10.9-12.5-27.5-12.8c2.7,10.8,5.1,21.7,9,32.1
		c0.2,0.5,0.4,1,0.7,1.5c0.8,1.3,4.2,3.9,5.9,4.2l15.6,2.4c-7.7,2.7-14.9,5.4-18.7,13.3c-0.2,0.5-0.5,1-0.5,1.5c0,0.5,0,1,0.1,1.4
		c1.4,8.4,3,16.8,4.4,25.2c-0.2-1.1,13.5-10.4,15.1-11.8c4.2-3.7,9.7-8.7,11.1-14.4c0.5-2.1,0.6-5.9,0.1-8.1
		c-1.4-2.5-2.7-4.9-4.1-7.4c0.9,0.9,2.2,1.3,3.4,1.6c2.3,0.6,4.5,1.2,6.8,1.7c0.8,0.2,1.6,0.4,2.4,0.3c3.7-0.3,11.1-3.9,13.7-6.4
		c3.6-3.4,4.4-8.9,6.8-13.3c2-3.6,4.4-9.4,4.6-14.2C116.7,44.7,99.3,44.4,85.5,54.6z M59.4,44c-0.2-0.5,6.3,6.7,4.4,14.1
		c-0.9-1.2-1.9-2.4-2.9-3.7l0,0C61.8,49.8,60.4,46.2,59.4,44z M51.9,38.2c-0.2-0.4,6.5,5.6,4.2,10.7c-0.7-0.8-1.5-1.6-2.3-2.4
		C54,44.9,53.6,42.4,51.9,38.2z M46.3,45.2c0,0,4.3,3.5,6.4,2.8c0.7,0.8,1.4,1.7,2.2,2.6C51.6,53.4,46.9,47.4,46.3,45.2z M60.1,57.1
		c0,0,0-0.1,0-0.1c0.9,1.1,1.9,2.3,2.7,3.4c-4,7.2-14-5.9-14-5.9S57.8,63,60.1,57.1z M53.5,66.8c0,0,10.7,3.2,13.5,0.1
		c0.2-0.2,0.3-0.4,0.5-0.7c0.9,1.1,1.6,2.2,2.3,3.1C66.5,72.6,58.2,70,53.5,66.8z M58.4,103.2c0,0,1.7-5.5,7.2-7.5
		c-0.7,1.6-1.4,3.2-1.9,4.6C62.8,100.4,61,101,58.4,103.2z M68.1,105.1c0,0-1.5-3-3.1-4.4c0.7-1.3,1.5-2.8,2.2-4.3
		C68.2,97.4,70,99.3,68.1,105.1z M67.4,90.9c-5.9-1.2-8.2,3.5-8.3,3.6c0-0.1,0.6-6.1,8.5-7.8c0.9-0.2,1.7-0.2,2.3-0.2
		c-0.7,1.4-1.4,2.9-2.1,4.4C67.7,91,67.5,91,67.4,90.9z M72.3,99.5c0-0.1,0.7-5.4-2.8-7.7c0.7-1.5,1.4-3,2.1-4.5
		C75.3,89.9,72.4,99.3,72.3,99.5z M63.4,82.3c0,0,5.4-4.9,10.2-2.9c-0.5,0.9-1,2-1.6,3.2C69.9,81.7,67.1,81.4,63.4,82.3z M77.5,93.5
		c0,0,0.2-6.8-4.2-10.1c0.5-1.2,0.9-2.4,1.3-3.5C76.5,81.3,81.1,85.3,77.5,93.5z M70.8,67.3c0,0.1-0.1,0.3-0.1,0.4
		c-0.7-1.1-1.6-2.3-2.5-3.6c0.8-4.4-0.6-11.1-0.7-11.3C67.5,53.1,72.3,61.2,70.8,67.3z M85,70c-3-4.2,0.6-10.5,0.6-10.5
		c-0.1,3.9,0.8,6.5,2.2,8.2C86.8,68.6,85.8,69.4,85,70z M85.8,70.9c1-0.6,2-1.2,3.1-2c4.1,3.6,10.7,1.9,10.7,1.9
		C92.4,76.1,87.5,72.6,85.8,70.9z M92.3,66.5c1.3-1,2.6-2,3.9-3c3,2.9,8,1.1,8.1,1.1C104.2,64.6,95.7,69.5,92.3,66.5z M100.2,60.2
		c1.3-1.1,2.6-2.2,3.7-3.1c1.7,1.2,5,2.1,5,2.1C103.7,62.3,101.5,60.9,100.2,60.2z M104.9,50.1c-1.6,3-1.8,4.8-1.6,5.8
		c-1.3,0.8-2.6,1.8-4.1,2.9C99.9,53,104.9,50.1,104.9,50.1z M96.7,52.6c-0.1,0.1-4.2,3.4-1.7,8.9c0.1,0.1,0.1,0.3,0.2,0.4
		c-1.3,1-2.6,2-3.8,3c-0.2-0.6-0.4-1.4-0.4-2.3C90.9,54.6,96.5,52.7,96.7,52.6z"/>
	<path class="st0" d="M170.7,194.1c4.8-0.5,9.2-2,13.5-4c1.2-0.5,6-3.1,9.3-3.9l13.4,17.1l5.3-0.7c-2.1-1.2-8.3-8.7-16.1-18.9
		c0.2-0.1,1-0.4,2-0.9c6.4-3,24.9-14,16.3-36.9c-10.2-27.3,2.8-27.7,3.1-27.7c-10.3-1.4-17.7,4.3-17.7,4.3
		c-23.7,16.5-18.4,37.2-11.6,49.9l0,0c0.9,1.6,1.8,3.2,2.6,4.5c-7.9-10.5-16.8-22.5-24.4-33c5.3-2.3,22.2-11.4,17.1-34.1
		c-6.1-26.8,0.4-32.9,0.4-32.9c-31.9,16.7-25.3,49-21.1,62c-2.9-4-5.6-7.7-7.8-10.8c-1.5-4-5.4-8.1-6.9-21.7
		C146.3,91.1,135,80,133.9,79c2.4,2.4,1.9,11.1,1.7,14.2c-0.4,5.1-1.6,10.3-0.2,15.3c1.4,5.2,4.6,10,8.4,13.7c2.4,2.3,5.1,4.4,8.1,6
		c0,0,0.1,0.1,0.3,0.1l4.9,6.5l1.3,2.1l0,0c-29.1-26.2-52.4-11.8-52.4-11.8c8.1-2.2,20.2,4.9,20.2,4.9c13.3,12.2,30,8.9,33,8.1l0,0
		l10.9,17.8c-0.5-0.6-20.8-25.6-54.8,3.9c1.6-1.4,5.7-1.5,7.7-1.5c7.1,0.1,10.7,7.7,17.9,7.6c6.3-0.1,12.1-2.8,17.8-5.2l11.4-4.8
		l0,0l14.2,18.2c-10.8-7.3-28.9-13.1-55.9-2.5c2.6-1,8.4,1.3,10.7,2.3c5.7,2.7,7.1,8.4,10.7,13.1
		C154.7,193.7,162.8,194.9,170.7,194.1z M197.3,172.3c-0.1-3.2,0.1-6.6,0.5-9.9c3.4-3.3,8.9-7.5,12.8-6
		C210.6,156.4,199.1,162.9,197.3,172.3z M210.7,145.2c0,0-7.3,4.6-11.7,9.3l1.5-6.8l0,0C202.9,146.2,206.3,145,210.7,145.2z
		 M208,134.3c0,0,0.4,3.6-6.4,9c0.5-1.7,0.9-3.4,1.4-4.9C205.2,137.7,207.7,136.3,208,134.3z M202.3,125.5c0,0-3.7,6.3-2.8,13.5
		c-0.8,2-1.5,4.1-2.1,6.2C195.9,142.8,192.1,134.2,202.3,125.5z M190.9,138c0,0,1.5,13.7,4.7,14.2c0,0,0.1-0.2,0.3-0.4
		c-0.5,2.6-0.9,5.1-1.1,7.5C193,157.6,189.4,152.3,190.9,138z M186,153.4c0,0,4.2,8.5,8.3,12l0,0c-0.2,3.2-0.3,6-0.3,8
		C190.6,170.3,185.9,164,186,153.4z M168.1,135.1c0.1-2.4,0.4-5,0.7-7.6l0,0c1.7-2.5,4.7-5.6,9.5-6.8
		C178.2,120.7,170.6,129,168.1,135.1z M173.6,98.6c1.4-0.7,3.3-1.3,5.5-1.1c0,0-3.6,1.8-6.2,5C173.1,101.1,173.3,99.8,173.6,98.6z
		 M180.3,107.1c0,0-6.8,6.3-10.7,13.8c0.4-2.5,0.8-5.1,1.2-7.5C171.9,111.9,174.5,109.3,180.3,107.1z M170,90.5l1,7.8
		c-0.7,1.9-1.2,4-1.8,6.1C168.1,100.8,166.7,94.3,170,90.5z M164.1,102.9c0,0,1.5,5.2,3.6,8.9l0,0c-0.4,2.4-0.8,4.7-1.1,7
		C164.6,115.6,162.3,110.2,164.1,102.9z M162.1,119.9c0,0,1.1,5.8,3.5,9.9c-0.2,2.8-0.3,5.3-0.4,7.3
		C162.9,134.3,160,128.6,162.1,119.9z M138.7,103.3c1.6-10.5-0.4-14.2-0.7-14.7l2.4,3.4c0,0,3.1,5.4,1.7,13.6
		c-1.3,8.1,3.4,12.1,3.5,12.2C145.6,117.8,137,114.5,138.7,103.3z M134.4,132.3c-5.5-2.7-9.2-7.4-12.3-7.2
		c-3.2,0.2,1.8-2.6,12.9,3.1c11.1,5.8,14.4,5.6,14.4,5.6S140,134.9,134.4,132.3z M150.1,152.9c-1.5-0.2-3.1-0.4-4.7-0.5
		c0.9-2.2-4.2-4.9-4.3-5C147.5,148.3,149.5,151.1,150.1,152.9z M129.8,154.1L129.8,154.1c1.8-0.1,4.8-0.1,8.3-0.1l0,0
		c0.2,0.3,0.3,0.5,0.3,0.5l-12.2,2.5C126.9,155.3,128.4,154.5,129.8,154.1z M135.4,161.6c1.9-4.8,5-6.8,7-7.6c2.6,0.1,5.3,0.2,8,0.4
		c0,0.1,0,0.1,0,0.1C139.8,156.3,135.4,161.6,135.4,161.6z M160.7,157.1c-10.3,2.4-15.4,7.4-15.5,7.6c2.4-5.4,7.6-8,9.3-8.8
		C156.8,156.1,158.9,156.5,160.7,157.1C160.7,157,160.7,157.1,160.7,157.1z M157.1,154.5c1.1-2.9-3.1-7.4-3.2-7.5
		c6.6,3.7,8.1,6.7,8.4,8.4C160.9,155.2,159.1,154.9,157.1,154.5z M165.2,190.4c3.1-4.7,8.1-7.1,11.7-8.3c2.4,0.8,4.4,1.6,6.1,2.2
		C175.2,185.6,165.2,190.4,165.2,190.4z M188.1,181.9c-2.2-0.9-4.6-1.8-7.2-2.6c-1.4-4.1-5-7.1-5-7.1
		C181.7,173,186,178.6,188.1,181.9z M173.5,177.1c-2.8-0.7-7.5-2.3-7-2.4c0,0-2-4.7-4.9-7.1C161.8,167.6,170.7,169.3,173.5,177.1z
		 M161.7,176.8c2.1,0.7,4.2,1.4,6.3,2.1c-4.1,0.9-9.3,2.9-12.4,6.7C155.7,185.7,156.6,180.3,161.7,176.8z M159.4,173.9
		c-1.7-0.3-3.4-0.6-4.9-0.9c-0.5-1.1-2-3.9-5.7-5.7C148.7,167.3,157.3,168.5,159.4,173.9z M148.3,179.7c0-0.4,0.3-4.2,3.6-6
		c1.5,0.5,3.1,1,4.8,1.5C153.8,176,148.5,177.6,148.3,179.7z"/>
	<path class="st0" d="M214.9,46c-0.4,0.1-0.8,0.3-1.2,0.5c-5.7,3.2-5.9,12.9-1.2,17c4.8,4.2,12.4,4.5,18.4,4.6
		c5.6,0,11.8-1.6,17.7-4.1c1.5,2.9,8.4,16.4,14.4,33.7c-1.9-0.1-5.4-0.4-7.8-1.1c0.1-1.7-0.1-3.4-0.7-5.1
		c-4-9.5-21.3-14.8-30.8-11.2c-4.6,1.7-8.7,6.4-9.9,11.3c-0.5,2.1-0.6,4.2,0.1,6.2c1.3,4,5.2,6.9,9,8.8c8.3,4,21.1,6.5,28.1-0.8
		c1.8-1.9,3.2-4.3,3.9-6.9c1.8,0.8,5.2,2.1,9.5,3c1.8,5.4,3.4,11.2,4.8,17l-5.9,2.4c-1.6-3.8-6.6-6.6-11.1-6.4
		c-5.1,0.2-12.8,1.3-15.8,5.8c-3.7,5.6-0.2,12.6,6,14.3c4.4,1.2,8.7-0.5,12.8-1.9c2.5-0.9,4.9-2.1,6.6-4.1c0.7-0.9,1.2-1.7,1.6-2.6
		c0.3-0.8,0.5-1.7,0.5-2.5c0,0,0-0.1,0-0.1c0,0,0-0.1,0-0.1l5.8-2.8c1.9,8.6,3,17.4,2.8,25.7l3.7-2.2c0,0-1-24.1-11.5-52.8
		c1.4-0.8,3.5-2.3,4.9-4l0,0c0.8,0.7,1.8,1.3,2.8,1.7c9.6,3.5,22.6-4.4,26.5-13.1c3.3-7.3,3.4-17.5-4-22.4c-6.1-4-14-0.5-19.3,3.2
		c-5.1,3.6-10.4,8.6-11.3,15.1c-0.6,4,0.5,9.4,3.1,13.1c0.1,0.1,0.1,0.2,0.2,0.3c-1,1.3-2.3,2.7-3.9,3.6c-3.1-8.3-7.1-16.8-12-25.3
		l-2.2-0.2c0.1,0,0.2-0.1,0.2-0.1c1-0.5,1.9-0.9,2.9-1.4c7.4-3.9,13.9-9.3,17.6-14.6c7.2-10.4,1.6-16.3,1.6-16.3
		c-4.4-5.5-8.9-2.7-9.2-2.6c2.7-2,2.5-6.9,2.5-6.9s0.6-6.2-9-9s-11.8,6.6-11.8,6.6s-5.1-16-16.3-9.7c-11.1,6.2-4.2,17.7-4.2,17.7
		s-13.8-5.9-17.4,4.2C203.1,41.5,214.9,46,214.9,46z M239.8,83.6c6.1,3.2,6.8,8.5,6.8,8.5C239.4,88.2,239.8,83.6,239.8,83.6z
		 M233.6,89.2c-5-2.1-6.4-6.8-6.4-6.9C235.1,86.8,233.6,89.2,233.6,89.2z M224.5,101.3c0,0,3.5-6.1,10.4-4.9
		C234.9,96.5,230.6,101.3,224.5,101.3z M234.6,106.5c0,0,2.9-8.5,11.3-7.3C245.9,99.2,240.5,106.3,234.6,106.5z M220.1,92.6
		c0,0,16.6-5.4,31.4,3.2C251.5,95.8,231.1,92.1,220.1,92.6z M255.5,120.3c0,0-2.6-0.5-3.6-3.9C251.9,116.4,255,116.3,255.5,120.3z
		 M250.2,120.2c0,0-2.6,0.2-5.5-1.2C244.7,119.1,247.9,116.7,250.2,120.2z M241.2,131.4c1-4.2,5.2-5.1,5.2-5.1
		C244.4,130.5,241.2,131.4,241.2,131.4z M247.2,132.9c2.8-5.9,9.5-8.3,9.5-8.3C253.1,130.4,247.2,132.9,247.2,132.9z M240.1,124.5
		c9.9-5.6,19.9-0.7,20-0.7C253.4,122.7,240.1,124.5,240.1,124.5z M277.1,79.2c0,0,6.7-3.3,13.2-0.2C290.3,79,284.5,81.7,277.1,79.2z
		 M295.6,69.7c0,0-4.9,3.6-10.7,1.3C284.9,71,290.8,68.1,295.6,69.7z M279.4,57c0,0,2.6,4.5-0.9,9.1C278.4,66.1,276.4,63.2,279.4,57
		z M272.7,61.6c3.5,5.2-1.6,13.5-1.6,13.5C267.6,69,272.7,61.6,272.7,61.6z M293.1,57.9c-0.1,0.2-16.9,22.1-23.7,25
		C269.4,82.8,283.1,61.1,293.1,57.9z M214.4,58.9c-0.9-0.4,4-4.3,10.9-0.6C225.3,58.2,223.8,62.9,214.4,58.9z M242.7,46.9
		c8.2,2.1,5.9,10.7,5.9,10.7C240.6,53.9,242.7,46.9,242.7,46.9z M267.8,39.5c0,0-1.5,5.4-8.8,2.2C259,41.7,261,37,267.8,39.5z
		 M256.8,15.8c0.8,8.4-5.9,9.5-5.9,9.5C248.7,18.2,256.8,15.8,256.8,15.8z M231.9,13.3c6.6,5.9,1.9,10.3,1.9,10.3
		C228.3,20.1,231.9,13.3,231.9,13.3z M230.8,40.7c-3.6-3.1-2.7-11,2.9-13.3s8.6,4.4,8.6,4.4c3.4-7.7,10.4-2.5,10.4-2.5
		c6.3,9.5,1.4,14.7,1.4,14.7s0.6-8.3-4.9-9.4c-5.4-1-4.9,6-4.9,6.2c-1.4-2.2-2.9-5.7-8-4.5c-5,1.2-1.1,9.6-1,9.8
		c-1.6-2.4-9-2.5-9.2,3c-0.1,5.5,8,9,8,9s-12.2-1.1-12.1-11C222.2,37.2,230.8,40.7,230.8,40.7z M222.1,34.9
		c-6.8,4.3-10.2-2.4-10.2-2.4C217.6,28.8,222.1,34.9,222.1,34.9z"/>
	<path class="st0" d="M282.1,121.2l6.2-0.2l0,0c0.5,1,1.3,2,2.3,2.9c2.4,2.2,5.5,3.4,8.6,4.2c5.2,1.3,10.7,2.7,15.9,0.7
		c7.3-2.8,10.6-11.8,5.4-18.2c-4.2-5.1-13.8-5.5-20-5.1c-6.6,0.5-13.6,6.3-13.1,12.4l0,0l-5.1,1.2L282.1,121.2z M296.1,118.2
		c0,0,8.6,2.1,12.7,8.9C308.8,127.1,301.3,124.7,296.1,118.2z M308.8,118.9c0,0,5.3,0.6,7,5.6C315.9,124.5,311.8,123.8,308.8,118.9z
		 M310,109.9c-3.3,2-6.6,2.1-6.6,2.1C305.9,107.4,310,109.9,310,109.9z M301,107.6c-0.9,4.3-3.9,5.2-3.9,5.2
		C297.2,107.8,301,107.6,301,107.6z M316.4,115.8c0,0-16.5-0.3-24.4,1.8C292.1,117.5,303.5,110.3,316.4,115.8z"/>
	<path class="st0" d="M358,150.2c0.7,8.2,24.1,7.9,39.4-6.8c0,0-15.4,0.3-18.8-0.4c-3.2-0.7-17.1-3.5-20.1,4.5l0,0
		c-1.7-0.4-5.3-0.9-9.6,1.1c0.5-0.6,0.9-1.1,1.3-1.6c1.7-2.1,3.9-6,6.3-10.6c2.3-1.5,6.1-3.6,9.8-4.1c1.5,12.6,41.9-7.7,42.2-7.8
		c-0.3-0.1-36.6-13.8-41.8,4.2l0,0c-2.1,0.6-5.3,1.9-8.4,4.2c3.6-6.8,7.2-14.3,9.4-19c2-1.8,5.7-4.7,8.9-5.5c0.5,1.3,1.9,4,8.5,2.8
		c7.1-1.3,12.9-9.2,26.9-2.1c0,0-11.4-16.9-26.5-11.8c-11.1,3.8-11,7.2-9.9,9.3l0,0c-1.5,0.4-3.7,1.1-5.7,2.5l5.3-18.8
		c2.4-2.5,6.6-6.2,9.4-6.2l0,0c4.8,9.3,21.5-9.5,21.5-9.5s5-4.2,9.7-4c-0.9-0.1-35.1-3.6-32,11c0,0.1,0.1,0.3,0.1,0.4l0,0
		c-1.8,0.7-5,2.2-7.6,4.6l0.7-2.6c0,0,1.9-8.9,3.4-15.8l7.2-6.3c2.3,0.4,20.9,2.7,33.5-21.2c0,0-8.6,5.8-14,5.7
		c-5.2-0.1-24.3,1.3-20.4,13.5l0,0l-5.5,4.8l0,0c0.5-2.6,0.9-4.4,0.9-4.6c0-0.4,0.9-4.5,1.8-8.5l0,0c1.6-2.8,5-7.5,11.4-10.5
		c9.6-4.6,14.1-18.1,13-26.9c0,0-5.1,13.6-18,18.6c-1.6,0.6-2.9,1.3-4.1,2.1l0,0c0-1.1-0.1-2.2-0.3-3.3c-1.2-5.4-2.4-13.5-0.1-18.2
		c3.6-7.5-12.5,11.4-4.9,30.9l0,0c-0.2,3,0.5,6,1.3,8.2c-1.1,2.8-2.8,7.2-4.5,12.1c-0.6-1.5-1.5-3.8-2-5.3l0,0
		c12.4-8-16.1-30.1-18.2-36.9c1,3.6,2,7.3,2.8,10.9c1.6,6.5,0.9,12.3,4.2,18.3c1.4,2.5,5.5,9.9,9.4,8.6c0.7,2,2,5.5,2.6,7.9
		c-1.8,6-3.4,12.3-3.7,17.2c0,0.6-0.1,1.3-0.2,2c-0.8-1.5-1.9-3.3-3.2-4.7l0,0c1.1-1.5,1.1-4.6-3.6-12.9
		C358,55.7,344.1,47.9,339,45.9c0,0,12.6,13,14.9,24.4c2.3,11.5,11.2,15.3,12.9,13.9c0.2-0.2,0.5-0.3,0.9-0.5c1.3,1.4,3,3.6,4.1,7.2
		c-1.5,5.7-4.6,13.5-8.2,21.5c-0.5-1.3-1.7-3.8-4.1-6.3l0,0c6.4-0.9-9.2-24-10.8-30.4c0,0-2.7,26.6,8.7,30.1c0.4,0.1,0.7,0.2,1,0.3
		c1.2,2.6,3.2,7.2,3.6,10c-2.7,5.9-5.7,11.7-8.6,17c-0.4-1.8-1.2-4.5-2.8-7.5l0,0c5.1-4.4-1.7-24.6-1.7-24.6s-4-12.7-12.8-21.6
		c1.6,4.5,3,9.1,4.3,13.7c0.8,3,1.9,6.2,2.2,9.3c0.5,5.2-1,9.9,0.1,15.2c0.6,2.7,2.3,9.6,6.2,8.9c0.6,2.4,1.7,7.6,1.9,11.5
		c-3.5,6.1-6.7,10.9-8.9,12.9c-1.1,1-2.3,2.2-3.6,3.4l-1-8.6l0,0c7.8-3-1.9-32.2-1.6-33.1c0.3-0.8-9.7-24.2-9.7-24.2
		s3.3,26.1,2.3,34.4c-0.9,7.8-0.4,23,7.1,23.2l0,0l1.2,10.1c-8.4,8.4-19.3,19.7-19.4,20.4c-0.2,0.9-2.2,2.3-2.2,2.3l4.1,0.7
		c0,0,8.6-8.3,16.9-16.8c2.7-0.2,6.4-0.3,9.5,0.8c-4.2,11.9,41,11.6,41.3,11.6c-0.2-0.2-26.8-28.5-39.4-14.7l0,0
		c-2.1-0.4-5.5-0.7-9.3,0c2.1-2.2,4.2-4.3,6-6.3C347.5,152.1,353.7,149.1,358,150.2z M376.7,147.5c7.1,1.6,11.1-0.8,11.3-0.9
		c-0.2,0.1-6.2,4.8-14.1,3.1c-7.7-1.7-10.2-0.9-10.4-0.8C365.1,148.2,369.4,145.9,376.7,147.5z M396.3,126.1c0,0-17.4-0.8-25.2,3.6
		C370.6,129.9,379.5,120.5,396.3,126.1z M403.2,102.8c-16.9-2.4-24,3.7-24,3.7C385.4,96.8,402.9,102.8,403.2,102.8z M404.1,72.6
		c-6.6,2.2-17.4,10.4-17.4,10.4C389.5,74,403.9,72.6,404.1,72.6z M412.5,47.3c-15.4,4-23.2,13.1-23.2,13.1
		C395,47.5,412.2,47.3,412.5,47.3z M385.9,39c2.8-3.8,7.1-4.6,10.8-7.3c1.9-1.4,3.6-3.1,5.2-4.8c-0.7,3.1-2.7,6.3-5.4,8.2
		c-3.9,2.6-8.6,2.9-11,7.5c-0.6,1.2-2.9,5.5-2.3,6.9l0,0C381.7,45.9,383.8,41.8,385.9,39z M363.8,35.9c0,0,13,14.8,11.2,21.9
		C375.1,57.8,368.5,42.9,363.8,35.9z M350.9,57c0,0,12.6,8.3,15.6,22.7C366.4,79.5,358.6,65.3,350.9,57z M351.1,86.5
		c4.9,7.7,6.4,17.8,6.4,17.8C353.6,100.2,351.1,86.7,351.1,86.5z M344,95.7c0.1,0.2,8.5,15.7,4.6,26.7
		C348.5,122.4,348.3,107.8,344,95.7z M330.3,107.9c0,0,7.9,16.2,6,34.1C336.3,142,332.8,120.3,330.3,107.9z M374.9,171
		c0,0-15.3-8.5-24.2-7.9C350.2,163.1,362.3,158.5,374.9,171z"/>
	<path class="st0" d="M100.9,171.3c0.9-4.7-5.4-3.2-5.4-3.2s3.7-6.6,0.1-6.9s-3.7,5.2-3.7,5.2s-0.8-7.9-3.5-3.8
		c-2.5,3.7,1.3,6.4,2,6.9c-3.9-1.3-7.9-2.6-12-4c-0.3-1.2-2.3-2.1-2.3-2.1s5.1,1.8,6.3-0.6c1.2-2.3-4.4-3-4.8-3.1
		c0.5,0.1,7.2,0.9,5.6-2.5c-1.4-2.8-6.1-1.2-7.9-0.4c1.5-0.8,4.8-2.8,2.1-5.4c-3.4-3.4-6.4,5.3-6.4,5.3s-4.1-4.9-6.9-1.2
		c-2.8,3.5,3.5,4.9,3.8,5c-0.2,0-2.5-0.5-4.2,0.1c-1.8-0.6-3.7-1.3-5.5-1.9c-0.6-1.4-1.4-2.5-1.4-2.5c4.1,1.1,4.2-2.7,2.9-5.1
		c-1.3-2.5-4,0.7-4,0.7s3-4.4,1-6.3c-1.9-1.8-4,3.5-4.2,3.9c0.2-0.4,2.7-6.8-1-6c-3,0.6-2.7,5.6-2.4,7.5c-0.3-1.7-1.5-5.3-4.7-3.4
		c-4.2,2.4,3.5,7.5,3.5,7.5s-0.1,0-0.2,0.1c-2.8-1-5.4-1.9-7.9-2.8c0.1-0.1,0.1-0.2,0.2-0.3c1.3-2.5-3.9-3.4-3.9-3.4
		s4.1,0.6,4.6-1.2s-2-3.1-5.8-1.7c0,0,2.7-2.2,1-3.8c-1.7-1.5-3.5-0.8-4.2,1.9c0,0,1-6.4-1.9-5.8s-0.5,6.4-0.5,6.4s-1.9-3.7-4.3-1.9
		s2,4.5,4.2,5.2c0,0-0.3,0.3-0.6,0.8c-2.2-0.8-4-1.4-5.5-2c0.5-0.4,0.9-0.9,1-1.8c0.4-3.4-4.2-1.8-4.5-1.7c0.3-0.1,4.1-1.6,2.8-3.9
		c-1.3-2.4-4.9,2.3-4.9,2.3s3.5-4.7,0.7-4.9c-2.8-0.2-3.4,4.8-3.4,4.8c-1.7-2.7-3.8-0.7-4.3,1.3s2.6,1.7,2.6,1.7s-4,0.9-3.9,2.9
		c0.1,2,4.4,0.1,4.4,0.1s-5.1,2.3-2.6,3.9c2,1.2,4.4-1.7,5.3-2.9c-0.7,1.1-2,3.7,0.8,4.4c2.6,0.6,2.5-2.8,2.3-4.7l7.3,2.8
		c0.2,1.6,1.7,3.6,1.9,3.9c-0.3-0.4-3.7-4.6-6-3.2c-2.2,1.3,3.2,3.9,4.6,4.6c-1-0.5-4.6-1.8-5,1.1c-0.5,3.4,6.2,1.8,6.2,1.8
		s-5.4,2.1-2.9,4.6s4.3-2.5,4.3-2.5c1.2,4.5,2.3,3.1,3.3,2.6c1-0.5-1-4.3-1-4.3s3.6,2.8,4.9,1.2s-4.1-3.2-4.1-3.2s5.7,0.5,6.1-1.3
		l5.3,2.6c0,0.1,0,0.2-0.1,0.2c-0.5-0.7-1.3-1.1-2.4-0.8c-2.8,0.9,0.5,4.9,2.4,6.3c0,0-3.4,1.9-2.9,4.9s4.6-2.4,4.6-2.4
		s-1.7,4.8,0.7,6.9c2.1,1.9,2.1-3.4,1.4-5.2c0.8,1.3,3.3,4.9,4.9,3.3c2-1.9-2.7-4.5-2.7-4.5s3.7,1.9,4.8,0.3c0.7-1.1,0-2.4-1.8-3
		c0.3-0.3,0.4-0.8,0.6-1.3l1.8,0.9l7.9,2.3c0.2,1.6,0.6,3.1,0.6,3.1s-6.1-1.6-6.3,3c-0.2,4.5,5.7,2,6,1.8c-0.3,0.1-5.2,2.4-3.4,5.3
		c1.9,3,6.2-3.5,6.2-3.5s-4.2,6.5-0.5,6.5s4-6.5,4-6.5c2.4,3.4,5,0.6,5.5-2.1c0.6-2.7-3.5-2-3.5-2s2.5-0.7,3.9-2l9.9,2.8
		c0.4,0.4,0.8,0.6,1.2,0.7c-0.6,1.2-0.9,2.1-0.9,2.1s-4.1-4.9-6.9-1.2c-2.8,3.5,3.5,4.9,3.8,5c-0.3-0.1-5.7-1.1-5.8,2.4
		c-0.2,3.6,7,0.8,7,0.8s-7.1,2.8-4.2,5s7.1-3,7.1-3c0,4.2,3.7,3.4,5.7,1.5c2-1.9-1.7-3.7-1.7-3.7s5.1,1.8,6.3-0.6
		c1.2-2.3-4.4-3-4.8-3.1c0.5,0.1,6.9,0.8,5.7-2.3l19.2,5.5l3.9-3.2c-2.2,0.1-11.2-2.6-23.1-6.4C99.8,172.4,100.7,172.2,100.9,171.3z
		 M36.4,154.8c0,0,0.1-0.1,0.3-0.2l0.1,0C36.6,154.7,36.4,154.8,36.4,154.8z M50.5,164.1C50.5,164.1,50.5,164.2,50.5,164.1
		C50.4,164.2,50.4,164.2,50.5,164.1C50.4,164.2,50.4,164.2,50.5,164.1z"/>
</g>
</svg>
