<?xml version="1.0" encoding="utf-8"?>
<!-- Generator: Adobe Illustrator 23.0.3, SVG Export Plug-In . SVG Version: 6.00 Build 0)  -->
<svg version="1.1" id="圖層_1" xmlns="http://www.w3.org/2000/svg" xmlns:xlink="http://www.w3.org/1999/xlink" x="0px" y="0px"
	 viewBox="0 0 300 200" style="enable-background:new 0 0 300 200;" xml:space="preserve">
<style type="text/css">
	.st0{fill:#979798;}
</style>
<g>
	<g>
		<g>
			<path class="st0" d="M56.31,133.87l-2.49-2.45c5.61-5.71,13.9-13.19,24.45-19.99C54.36,96.17,34.6,71,19.32,36.29l-0.67-1.52
				l1.49-0.74c0.61-0.3,61.34-29.48,142.39,11.21c58.82,29.53,87.79,23.47,115.46,4.13l2,2.86c-28.73,20.08-58.67,26.43-119.03-3.87
				C88.64,12.05,33.01,32.35,23.22,36.48c15.19,33.91,34.75,58.33,58.34,72.9c26.87-16.21,66.92-26.91,113.89,3.39l2.51,1.62
				l-2.64,1.39c-0.45,0.24-45.69,23.68-94.01,6.86c-6.85-2.38-13.42-5.43-19.72-9.16C70.62,120.33,62.03,128.05,56.31,133.87z
				 M85.01,111.42c5.59,3.17,11.39,5.81,17.41,7.91c40.08,13.97,78.04-0.65,88.47-5.31C147.59,87.41,110.51,96.62,85.01,111.42z"/>
		</g>
		<g>
			<circle class="st0" cx="63.55" cy="46.35" r="4.95"/>
		</g>
		<g>
			<circle class="st0" cx="166.74" cy="110.83" r="4.45"/>
		</g>
	</g>
	<g>
		<polygon class="st0" points="152.32,195.16 162.67,195.16 162.67,192.33 155.41,192.33 155.41,179.35 162.47,179.35 
			162.47,176.51 155.41,176.51 155.41,164.83 162.67,164.83 162.67,161.99 152.32,161.99 		"/>
		<path class="st0" d="M173.32,161.99l-6.57,33.17h3.28l1.24-6.81h7.01l1.24,6.81h3.28l-6.61-33.17H173.32z M171.78,185.67
			c1.14-6.47,2.44-12.93,2.88-19.5c0.15,2.64,0.45,5.22,0.94,7.81l2.19,11.69H171.78z"/>
		<polygon class="st0" points="187.77,195.16 190.85,195.16 190.85,179.35 197.91,179.35 197.91,176.51 190.85,176.51 
			190.85,164.83 198.31,164.83 198.31,161.99 187.77,161.99 		"/>
		<path class="st0" d="M210.33,161.54c-7.66,0-8.16,11.59-8.16,17.06c0,5.52,0.45,17.01,8.21,17.01c7.91,0,8.11-11.59,8.11-17.16
			S218.14,161.54,210.33,161.54z M215.06,184.92c-0.25,2.83-0.94,7.71-4.68,7.71c-5.12,0-5.07-10.59-5.07-14.08
			c0-3.53-0.1-14.03,5.07-14.03c4.92,0,4.97,9.45,4.97,12.83C215.36,179.9,215.31,182.43,215.06,184.92z"/>
		<path class="st0" d="M229.54,161.54c-7.66,0-8.16,11.59-8.16,17.06c0,5.52,0.45,17.01,8.21,17.01c7.91,0,8.11-11.59,8.11-17.16
			S237.35,161.54,229.54,161.54z M234.27,184.92c-0.25,2.83-0.94,7.71-4.68,7.71c-5.12,0-5.07-10.59-5.07-14.08
			c0-3.53-0.1-14.03,5.07-14.03c4.92,0,4.97,9.45,4.97,12.83C234.57,179.9,234.52,182.43,234.27,184.92z"/>
		<path class="st0" d="M255.22,170.64c-0.95-6.07-3.13-8.65-9.5-8.65h-3.88v33.17h4.08c2.74,0,5.17-0.45,7.01-2.64
			c2.69-3.23,2.74-9.4,2.74-13.43C255.67,176.27,255.62,173.43,255.22,170.64z M246.37,192.33h-1.44v-27.5h1.29
			c4.87,0,5.67,3.78,6.02,7.76c0.25,2.98,0.25,5.82,0.25,8.6C252.49,185.67,252.34,192.33,246.37,192.33z"/>
		<path class="st0" d="M51.58,171.61c-0.64,2.11-0.96,3.5-1.17,4.56c-0.42-1.86-0.96-3.72-1.25-4.61l-2.98-9.17h-3.67l6.23,18.11
			v13.83h3.4v-13.83l5.84-18.1h-3.67L51.58,171.61z"/>
		<polygon class="st0" points="61.47,194.32 71.76,194.32 71.76,191.15 64.87,191.15 64.87,179.32 71.57,179.32 71.57,176.16 
			64.87,176.16 64.87,165.55 71.76,165.55 71.76,162.39 61.47,162.39 		"/>
		<path class="st0" d="M87.59,183.85c0,0.45,0.01,0.91,0.03,1.36c-0.13-0.43-0.27-0.87-0.42-1.3l-7.18-21.53h-2.96v31.94h3.03
			v-20.47c0-0.78-0.02-1.56-0.06-2.35c0.18,0.62,0.38,1.26,0.59,1.9l7.03,20.91h2.96v-31.94h-3.03V183.85z"/>
		<path class="st0" d="M103.16,162.67l0.05-0.28h-5.07l0.37,0.4c1.43,1.58-0.67,6.44-0.69,6.49l-0.19,0.43l0.46-0.1
			C101.96,168.79,103.11,162.92,103.16,162.67z"/>
		<path class="st0" d="M111.16,163.66c-1.72,1.27-2.63,3.36-2.72,6.21v14.29c0,0.04-0.05,4.05-2.53,6
			c-1.47,1.15-4.16,1.43-7.02,0.73l-0.58-0.14v3.07l0.36,0.09c1.28,0.31,2.5,0.47,3.62,0.47c2.18,0,4.05-0.6,5.56-1.78
			c3.7-2.91,3.71-8.21,3.71-8.43v-14.24c0.06-1.82,0.55-3.09,1.45-3.76c1.48-1.1,4.32-0.53,4.32-0.52l0.6,0.19v-3.08l-0.35-0.1
			C117.43,162.6,113.84,161.67,111.16,163.66z"/>
		<path class="st0" d="M147.27,162.64c-0.15-0.04-3.74-0.97-6.42,1.02c-1.72,1.27-2.63,3.36-2.72,6.21v14.29
			c0,0.04-0.05,4.05-2.53,6c-1.47,1.15-4.16,1.43-7.02,0.73l-0.58-0.14v3.07l0.36,0.09c1.28,0.31,2.5,0.47,3.62,0.47
			c2.18,0,4.05-0.6,5.56-1.78c3.71-2.92,3.71-8.21,3.71-8.43v-14.24c0.06-1.82,0.55-3.09,1.45-3.76c1.48-1.1,4.32-0.53,4.32-0.52
			l0.6,0.19v-3.08L147.27,162.64L147.27,162.64z"/>
	</g>
</g>
</svg>
