<?xml version="1.0" encoding="utf-8"?>
<!-- Generator: Adobe Illustrator 23.0.3, SVG Export Plug-In . SVG Version: 6.00 Build 0)  -->
<svg version="1.1" id="圖層_1" xmlns="http://www.w3.org/2000/svg" xmlns:xlink="http://www.w3.org/1999/xlink" x="0px" y="0px"
	 viewBox="0 0 400 400" style="enable-background:new 0 0 400 400;" xml:space="preserve">
<style type="text/css">
	.st0{fill:#8DD5F2;}
	.st1{fill:#037CC9;}
</style>
<g>
	<g>
		<path class="st0" d="M243.87,253.39c0.6-6,0.72-12.12,0.72-18.24c0-8.16-0.12-30.96-12-30.96c-12.48,0-12.24,25.32-12.24,33.84
			c0,2.28-0.01,5.83,0.23,9.78c1.87,0.72,3.74,1.43,5.64,2.21c5.71,2.34,11.55,4.08,17.45,5.32
			C243.75,254.67,243.81,254,243.87,253.39z"/>
		<path class="st1" d="M284.66,271.99c6.02,0,8.76-5.27,10.09-10.8c-6.6,1.19-13.07,1.99-19.37,2.35
			C277.18,268.43,280.05,271.99,284.66,271.99z"/>
		<path class="st1" d="M221.24,254.63c1.24,8.83,4.21,17.36,11.35,17.36c5.98,0,8.72-5.19,10.07-10.68
			c-6.5-1.34-12.77-3.18-18.75-5.64C223,255.3,222.13,254.98,221.24,254.63z"/>
		<path class="st1" d="M326.41,271.27h3.48c13.95,0,14.72-15.08,14.76-25.84c-6.16,2.71-12.24,5.13-18.24,7.24V271.27z"/>
		<path class="st0" d="M295.94,253.39c0.6-6,0.72-12.12,0.72-18.24c0-8.16-0.12-30.96-12-30.96c-12.48,0-12.24,25.32-12.24,33.84
			c0,4.09-0.02,12.23,1.37,19.52c7.36-0.37,14.73-1.33,22.02-2.77C295.85,254.3,295.9,253.84,295.94,253.39z"/>
		<path class="st0" d="M134.97,317.03c-20.63-13.13-41.4-34.79-58.68-69.9l-1.38-2.8l2.83-1.32c0.79-0.37,7.21-3.28,18.3-6.01
			v-38.92h24.96v6.84h-17.52v28.2v2.24c9.41-1.85,21.18-3.31,34.92-3.36l6.71-33.92h6.96l6.96,34.89c6.16,0.6,12.61,1.5,19.32,2.77
			v-37.66h25.44v6.84h-18v28.2v4.15c8.66,1.93,17.71,4.48,27.13,7.75c-0.11-2.52-0.13-4.85-0.13-6.86c0-13.2,1.2-41.16,19.68-41.16
			c18.84,0,19.68,27.36,19.68,40.8c0,5-0.07,12.01-1.13,18.84c5.07,0.7,10.18,1.06,15.31,1.1c-1.3-7.05-1.47-14.4-1.47-19.57
			c0-13.2,1.2-41.16,19.68-41.16c18.84,0,19.68,27.36,19.68,40.8c0,4.14-0.05,9.65-0.67,15.29c5.2-1.26,10.35-2.75,15.42-4.41v-50.6
			h9.36c15.36,0,20.64,6.24,22.92,20.88c0.76,5.3,0.99,10.68,1.05,16.07c8.06-3.93,15.64-8.06,22.6-12.14
			c0.97-7.5,1.53-15.12,1.53-22.89c0-97.44-78.99-176.42-176.42-176.42c-97.44,0-176.42,78.99-176.42,176.42
			c0,26.58,5.92,51.77,16.44,74.38c5.09,0.25,9.57-0.76,12.4-2.98c6.76-5.3,6.88-16.1,6.88-16.2v-37.44
			c0.22-7.26,2.53-12.56,6.87-15.78c6.91-5.13,16.19-2.6,16.28-2.57l0.44,0.12v6.76l-0.77-0.24c-0.38-0.08-7.87-1.52-11.89,1.47
			c-2.54,1.9-3.91,5.38-4.06,10.35v37.32c0,0.57,0.01,14.12-9.48,21.6c-3.61,2.84-8.08,4.35-13.25,4.51
			c13.15,25.27,32.22,46.94,55.39,63.19C107.24,336.38,119.63,325.86,134.97,317.03z M272.3,141.74v-36.35
			c0.21-7.05,2.46-12.2,6.67-15.32c6.7-4.97,15.72-2.53,15.81-2.5l0.43,0.12v6.56l-0.74-0.23c-0.36-0.08-7.65-1.48-11.54,1.43
			c-2.47,1.85-3.8,5.23-3.95,10.05v36.24c0,0.55,0.01,13.71-9.21,20.97c-3.72,2.93-8.35,4.41-13.76,4.41c-2.81,0-5.86-0.4-9.07-1.19
			l-0.45-0.11v-6.56l0.73,0.18c7.47,1.83,14.51,1.07,18.4-1.96C272.19,152.32,272.3,141.84,272.3,141.74z M246.86,86.94h10.79
			c0,0-2.86,15.15-12.44,17.18C245.2,104.11,250.82,91.29,246.86,86.94z M192.5,86.94h6.48l18.12,54.36
			c1.08,3.12,1.92,6.36,2.88,9.48c-0.48-3.24-0.72-6.6-0.72-9.84v-54h6.48v80.04h-6.48l-17.76-52.8c-1.2-3.72-2.28-7.44-3.24-11.28
			c0.48,4.2,0.72,8.4,0.72,12.6v51.48h-6.48V86.94z M152.78,86.94h24.96v6.84h-17.52v28.2h17.04v6.84h-17.04v31.32h17.52v6.84
			h-24.96V86.94z M112.83,86.94l7.44,22.92c0.96,2.88,2.76,9.36,3.84,14.76c0.48-3.12,1.2-7.08,3.48-14.64l6.84-23.04h8.04
			l-14.64,45.36v34.68h-7.44V132.3l-15.6-45.36H112.83z"/>
		<path class="st0" d="M329.53,204.91h-3.12v41.18c6.25-2.28,12.34-4.8,18.22-7.47c-0.03-4.87-0.15-9.84-0.58-15
			C343.21,214.03,341.29,204.91,329.53,204.91z"/>
		<path class="st0" d="M145.45,232.09c2.03,0.06,4.1,0.16,6.2,0.29l-1.01-5.39c-1.2-6.24-1.92-12.48-2.28-18.84
			C147.81,216.18,146.73,224.15,145.45,232.09z"/>
		<path class="st1" d="M103.98,347.97c25.88,16.83,56.43,27.05,89.3,28.28c-2.88-7.42-4.48-15.47-4.48-23.89
			c0-5.81,0.76-11.45,2.17-16.82c-0.35-0.02-0.69-0.04-1.04-0.07c-14.5-1.15-31.54-5.12-48.94-14.85
			C125.34,329.14,112.63,339.73,103.98,347.97z"/>
		<path class="st1" d="M147.34,317.36c13.26,6.78,27.63,10.79,43.07,12.02c0.82,0.07,1.63,0.1,2.44,0.15
			c3.17-8.61,8.1-16.37,14.33-22.87C185.13,303.68,164.7,309.01,147.34,317.36z"/>
		<path class="st1" d="M355.93,240.2c-1.21,0.6-2.4,1.12-3.61,1.7c-0.06,9.62-0.65,22.7-6.59,29.85
			c-4.44,5.28-10.32,6.36-16.92,6.36h-9.84v-22.92c-5.56,1.75-11.04,3.21-16.43,4.43c-2.13,10.38-6.95,19.57-17.88,19.57
			c-9.32,0-14.26-6.87-16.88-15.4c-6.18,0.02-12.16-0.42-17.99-1.24c-2.42,9.12-7.3,16.65-17.2,16.65
			c-13.53,0-17.84-14.47-19.2-27.53c-9.6-3.44-18.84-6.11-27.6-8.09v34.54h-7.44v-36.1c-6.3-1.2-12.3-2.05-18.04-2.65l7.73,38.75
			h-7.89l-1.84-9.93l-1.19-6.51h-0.02l-1.2-6.48h0.02l-3.09-16.49c-2.9-0.2-5.71-0.33-8.43-0.4c-0.15,0.84-0.28,1.68-0.43,2.53
			l-6.77,37.28h-7.92l7.89-39.86c-6.12,0.06-11.72,0.39-16.66,0.88c-6.36,0.64-12.04,1.55-17.02,2.57v29.57h17.52v6.84H102.2
			c11.48,15.25,24.39,27.16,38.68,35.68c20.32-10.56,45.08-17.51,72-12.45c11.44-9.45,26.1-15.13,42.06-15.13
			c29.15,0,53.95,18.97,62.73,45.2c28.8-25.81,49.04-60.94,56.02-100.66C368.1,233.95,362.15,237.14,355.93,240.2z M118.27,260.33
			c-2.91,0-5.27-2.36-5.27-5.27c0-2.9,2.36-5.25,5.27-5.25c2.9,0,5.26,2.35,5.26,5.25C123.53,257.97,121.18,260.33,118.27,260.33z"
			/>
		<path class="st1" d="M199.32,329.76c21.58,0.14,39.27-5.31,47.64-8.45c-11.03-6.79-21.88-11.05-32.41-13.34
			C207.97,313.96,202.74,321.4,199.32,329.76z M222.98,313.55c2.9,0,5.26,2.35,5.26,5.26c0,2.91-2.36,5.27-5.26,5.27
			c-2.91,0-5.27-2.36-5.27-5.27C217.71,315.9,220.07,313.55,222.98,313.55z"/>
		<path class="st1" d="M96.05,243.39c-5.84,1.49-10.19,2.98-12.81,3.97c4.02,7.91,8.3,15.25,12.81,22.04V243.39z"/>
		<path class="st1" d="M254.94,292.31c-12.75,0-24.57,4.01-34.31,10.81c11.25,3.06,22.82,8.27,34.57,16.27l4.37,2.97l-4.76,2.3
			c-1.08,0.52-25.18,11.94-57.6,11.18c-1.51,5.25-2.33,10.79-2.33,16.52c0,8.55,1.81,16.69,5.05,24.06c0.02,0,0.04,0,0.06,0
			c42.83,0,82.08-15.27,112.64-40.65C305.42,310.71,282.3,292.31,254.94,292.31z"/>
	</g>
	<g>
		<path class="st1" d="M200,389.85C95.32,389.85,10.15,304.69,10.15,200C10.15,95.31,95.32,10.15,200,10.15S389.85,95.31,389.85,200
			C389.85,304.69,304.69,389.85,200,389.85z M200,16.25C98.68,16.25,16.25,98.68,16.25,200S98.68,383.75,200,383.75
			c101.32,0,183.75-82.43,183.75-183.75S301.32,16.25,200,16.25z"/>
	</g>
</g>
</svg>
