<?xml version="1.0" encoding="utf-8"?>
<!-- Generator: Adobe Illustrator 23.0.3, SVG Export Plug-In . SVG Version: 6.00 Build 0)  -->
<svg version="1.1" id="圖層_1" xmlns="http://www.w3.org/2000/svg" xmlns:xlink="http://www.w3.org/1999/xlink" x="0px" y="0px"
	 viewBox="0 0 60 60" style="enable-background:new 0 0 60 60;" xml:space="preserve">
<style type="text/css">
	.st0{fill:#281304;}
	.st1{fill:#F96C00;}
</style>
<g>
	<g>
		<path class="st0" d="M11.98,57.88c-5.44,0-9.86-4.42-9.86-9.86V11.98c0-5.44,4.42-9.86,9.86-9.86h36.04
			c5.44,0,9.86,4.42,9.86,9.86v36.04c0,5.44-4.42,9.86-9.86,9.86H11.98z"/>
		<path class="st1" d="M48.02,4.24c4.27,0,7.74,3.47,7.74,7.74v36.04c0,4.27-3.47,7.74-7.74,7.74H11.98c-4.27,0-7.74-3.47-7.74-7.74
			V11.98c0-4.27,3.47-7.74,7.74-7.74H48.02 M48.02,0H11.98C5.36,0,0,5.36,0,11.98v36.04C0,54.64,5.36,60,11.98,60h36.04
			C54.64,60,60,54.64,60,48.02V11.98C60,5.36,54.64,0,48.02,0L48.02,0z"/>
	</g>
	<g>
		<path class="st1" d="M20.76,35.65l-1.84,5.44h-5l7.99-23.53h6.39l8.34,23.53h-5.35l-1.93-5.44H20.76z M28.26,31.48
			c-1.67-4.97-2.74-8.14-3.3-10.25h-0.03c-0.58,2.32-1.76,6.01-3.09,10.25H28.26z"/>
		<path class="st1" d="M39.37,16.17h4.89v4.36h-4.89V16.17z M39.37,23.41h4.89v17.67h-4.89V23.41z"/>
	</g>
</g>
</svg>
