<?xml version="1.0" encoding="utf-8"?>
<!-- Generator: Adobe Illustrator 23.0.3, SVG Export Plug-In . SVG Version: 6.00 Build 0)  -->
<svg version="1.1" id="圖層_1" xmlns="http://www.w3.org/2000/svg" xmlns:xlink="http://www.w3.org/1999/xlink" x="0px" y="0px"
	 viewBox="0 0 2410 1334" style="enable-background:new 0 0 2410 1334;" xml:space="preserve">
<style type="text/css">
	.st0{fill:#F1F0E9;}
</style>
<path class="st0" d="M224.29,313.82c-6.96-9.19-17.18-13.58-27.66-17.38c-2.06-0.75-4.15-1.47-6.66-2.35
	c3.16-2.42,6.24-4.26,8.64-6.77c3.84-4.03,7.09-8.61,10.81-12.74c3.63-4,5.62-8.54,5.98-13.9c0.72-10.87-4.9-19-13.86-22.4
	c-6.78-2.59-13.89-4.49-21.34-3.7c-5.32,0.55-10.76,0.4-15.58,3.52c-1.52,0.98-3.6,1.12-6.06,1.83c0.89-2.34,1.37-4.15,2.22-5.77
	c3.53-6.77,5.51-13.98,4.04-21.49c-0.93-4.72-2.99-9.32-5.11-13.69c-3.35-6.89-8.68-11.93-15.98-14.66
	c-4.56-1.7-8.94-2.17-13.87-0.39c-10.51,3.79-19.13,9.41-23.68,20.09c-1.14,2.69-2.49,5.27-3.95,8.32c-1.59-3.06-2.94-5.62-4.26-8.2
	c-3.63-7.02-6.58-14.26-12.07-20.38c-6.59-7.34-14.4-9.19-23.34-7.97c-6.13,0.83-10.87,4.2-15.13,9.04
	c-6.99,7.95-12.24,22.73-10.7,33.37c0.12,0.83-0.24,1.74-0.3,2.12c-4.78-2.37-9.37-4.92-14.19-6.95c-8.33-3.53-17.04-4.8-25.97-2.74
	c-2.2,0.51-4.49,1.45-6.29,2.78c-5.93,4.38-9.3,10.63-11.57,17.44c-2.09,6.27-0.96,12.6,0.62,18.86c2.27,9.04,6.33,17.06,12.9,23
	c-4.4,0.43-9.14,0.91-13.87,1.34c-8.25,0.76-14.98,4.86-21.07,10c-4,3.36-5.93,8.2-7.31,13.24c-1.43,5.22-0.69,10.37,1.15,15.12
	c3.17,8.14,10.09,12.79,17.65,16.38c5.73,2.71,11.69,5,17.82,7.59c-1.58,1.22-3.21,2.2-4.47,3.52c-4.32,4.53-9.07,8.81-12.59,13.91
	c-3.27,4.72-6.01,10.01-7.01,15.94c-1.02,6.12-0.18,11.66,3.74,16.72c2.82,3.66,6.63,5.88,10.37,8.27
	c5.87,3.74,12.47,5.15,19.12,3.71c7.12-1.54,13.98-4.26,21.14-6.53c-0.03,0.24-0.06,0.96-0.24,1.65c-0.54,2.02-1.45,4-1.66,6.05
	c-0.43,4.26-0.6,8.57-0.69,12.88c-0.12,5.36-0.4,10.76,1.61,15.92c2.69,6.88,7.07,12.45,13.82,15.4c3.31,1.44,7.34,1.32,11.06,1.65
	c4.87,0.43,9.1-1.62,13.32-3.75c8.2-4.11,15.2-9.61,20.6-17.03c1.26-1.73,2.31-3.63,3.36-5.27c0.89,2.12,1.7,4.14,2.58,6.13
	c2.12,4.87,3.77,10.05,6.53,14.54c3.59,5.81,9.29,8.96,15.71,11.74c7.95,3.45,15.01,2.71,22.21-0.62
	c10.92-5.05,15.02-15.19,17.42-25.88c1.16-5.18,0.24-10.83,0.26-16.24c-0.21-0.07,0.15-0.01,0.44,0.17c0.4,0.25,0.82,0.53,1.12,0.89
	c4.58,5.48,10.76,8.49,17.36,10.36c6.04,1.7,12.31,2.77,18.62,0.86c2.89-0.87,6.11-1.05,8.69-2.45c4.56-2.46,7.16-6.73,9.23-11.52
	c5.4-12.42,3.52-23.99-3.45-35.07c-2.56-4.07-5.51-7.89-8.14-11.62c6.84,0.33,13.6,0.14,20.46-2.58c7.95-3.13,13.54-7.89,17.4-15.52
	c3.12-6.13,5.19-12.27,3.84-19.04C227.43,320.13,226.31,316.49,224.29,313.82z M195.01,257.3c-7.77,7.68-16.39,13.06-27.27,13.51
	C173.33,259.7,183.1,256.59,195.01,257.3z M161.89,285.45c-2.44,4.98-4.74,9.68-7.19,14.72c5.65,2.28,11.46,4.64,17.17,6.94
	c-6.38,1.26-12.64,2.51-19.2,3.81c-1.3-6.99-5.33-11.44-10.98-15.33C148.57,292.12,155.09,288.87,161.89,285.45z M125.35,219.52
	c0.3-2.56,2.66-5.05,4.51-7.21c2.78-3.25,5.95-6.19,8.94-9.26c0.28,0.17,0.55,0.32,0.84,0.48c-0.73,4.24-1.32,8.5-2.26,12.7
	c-0.64,2.89-1.27,5.97-2.8,8.42c-1.74,2.82-4.46,5.04-6.77,7.52c-0.48,0.51-1.01,0.98-1.95,1.88
	C125.63,228.93,124.81,224.14,125.35,219.52z M136.13,247.4c0.19,0.1,0.37,0.19,0.57,0.29c-1.47,6.73-2.92,13.44-4.5,20.73
	c6.06-0.75,12.32-1.51,18.91-2.33c-7.35,5.72-14.21,11.05-20.81,16.18c-0.15-6.52-3.88-12-8.75-17.87
	C126.16,259.02,131.14,253.2,136.13,247.4z M131.43,306.56c6.09,0.65,9.22,6.71,9.01,11.7c-0.35,8.39-3.97,13.8-12.27,15.67
	C133.54,325.13,130.75,315.66,131.43,306.56z M94.45,304.17c0.62-7.67,4.31-12.95,11.02-16.27
	C108.85,295.54,102.65,301.08,94.45,304.17z M94.69,348.15c-4.94-4.51-6.58-9.93-4.33-16.34C95.7,332.85,96.69,339.82,94.69,348.15z
	 M111.3,315.55c-3.36,0.01-6.73-1.43-10.76-2.4c4.83-5.51,12-6.35,19.59-3.03C118.09,313.47,114.91,315.53,111.3,315.55z
	 M115.5,334.74c-8.68,0.97-14.76-2.46-18.14-9.9C106.61,321.38,110.83,328.23,115.5,334.74z M117.02,278.12
	c0.66,2.1,0.9,4.35,1.5,7.32c-9.8-5.9-18.93-11.38-29.79-13.04c6.89-4.03,13.61-5.01,21.04-1.44
	C113.27,272.64,115.88,274.51,117.02,278.12z M88.51,236.5c0.28-0.06,0.55-0.1,0.83-0.15c1.87,5.25,3.72,10.48,5.86,16.49
	c1.09-0.62,2.55-1.07,3.42-2.04c2.77-3.1,5.26-6.44,7.96-9.61c0.9-1.05,2.12-1.83,3.27-2.8c-0.72,6.85-1.38,13.26-2.1,20.12
	c-7.09-1.14-13.94-0.8-21.06,2.99C87.31,252.84,87.92,244.67,88.51,236.5z M83.43,282.71c4.07,6.22,5.7,12.7,2.02,19.7
	C80.4,296.37,79.36,286.21,83.43,282.71z M81.58,328.71c0.22,0.12,0.29,0.72,0.24,1.07c-1.02,5.87-3.95,10.37-9.48,12.92
	c-1.48-7.27,1.02-11.89,7.78-14.23C80.54,328.31,81.16,328.48,81.58,328.71z M57.46,322.03c6.33-2.98,12.06-9.3,19.37-2.4
	C71.07,324.28,67,326.73,57.46,322.03z M77.08,308.87c-3.48,1.22-12.52-1.43-14.91-4.57c-1.37-1.79-2.2-3.97-3.45-6.29
	c4.67-1.15,8.4,0.54,12.21,1.68c3.86,1.15,5.28,4.54,6.89,7.68C77.98,307.68,77.46,308.73,77.08,308.87z M49.65,301.7
	c-3-7.1-4.58-13.4,1.38-19.44c5.44-5.5,11.46-7.01,19.08-3.88C61.56,284.57,54.52,292,49.65,301.7z M62.8,198.17
	c2.37,3.49,4.11,6.35,6.15,9.01c2.38,3.09,3.48,6.47,2.84,10.27c-0.71,4.21-1.63,8.38-2.44,12.46
	C60.54,220.64,60.53,209.87,62.8,198.17z M48.54,256.11c3.57,1.12,6.06,5.04,10.33,4.33c-0.8-7.88-1.58-15.41-2.35-22.96
	c0.26-0.03,0.53-0.07,0.78-0.1c5.95,9.83,11.91,19.67,17.82,29.46c-3.92-0.08-8.15-0.32-12.38-0.22c-3.38,0.08-6.76,0.58-10.13,0.83
	c-0.6,0.04-1.45-0.03-1.79-0.4c-3.24-3.78-6.4-7.63-9.58-11.45c-1.19-1.44-2.38-2.88-3.35-4.76
	C41.42,252.65,44.8,254.95,48.54,256.11z M35,280.24c0.44,0.26,0.37,2.2-0.07,3.03c-3.14,5.88-3.16,11.92-1.15,18.87
	c-8.74-2.26-17.28-4.47-25.7-6.65c7.68-2.01,15.42-4.02,23.19-6.05c-5.34-6.6-10.25-12.68-15.15-18.75
	c0.28-0.24,0.54-0.47,0.82-0.71C23,273.37,29.06,276.71,35,280.24z M20.26,254.56c-8.61-0.53-18.72-9.61-20.66-18.61
	C10.99,237.1,16.06,245.45,20.26,254.56z M-16.97,307.35c-4.87-0.87-9.29-4.32-13.91-6.63c11.21-5.44,20.46-1.18,29.49,5.32
	C-6.6,306.57-12.02,308.24-16.97,307.35z M-18.46,373.02c3.5-3.97,6.6-8.45,10.62-11.81c4.33-3.63,10.15-3.38,15.66-4
	C6.47,364.07-6.69,372.23-18.46,373.02z M11.09,341.4c-0.07-0.17-0.14-0.32-0.21-0.48c3.02-2.51,6.12-4.92,9-7.56
	c1.56-1.45,2.74-3.32,4.1-5c-1.8-0.78-3.54-1.81-5.43-2.28c-6.16-1.55-12.36-2.91-18.55-4.33c0-0.32,0-0.62,0-0.94
	c10.44-0.62,20.88-1.25,31.11-1.86c-1.18,3.3-2.58,6.15-3.14,9.15c-0.37,1.97,0.6,4.15,0.68,6.24c0.03,0.89-0.51,2.42-1.12,2.6
	C22.08,338.54,16.59,339.94,11.09,341.4z M41.38,420.64c-1.38-5.18,1.41-19.67,8.75-22.26C51.64,407.49,51.1,415.9,41.38,420.64z
	 M38.41,382.61c-0.22-0.1-0.46-0.18-0.68-0.28c0.37-1.63,0.78-3.25,1.11-4.9c0.72-3.56,1.43-7.13,2.12-10.7
	c0.06-0.28-0.07-0.58-0.03-0.86c0.19-1.32,0.42-2.62,0.62-3.93c-1.9,0.3-3.86,0.36-5.65,0.96c-4.26,1.41-8.46,3.07-13.14,4.82
	c4.18-4.56,7.73-8.49,11.35-12.34c0.82-0.87,1.86-1.56,2.89-2.16c0.44-0.25,1.5-0.25,1.7,0.04c4.26,5.98,10.59,5.93,16.93,5.93
	c0.07,0,0.14,0.1,0.54,0.39C50.24,367.26,44.32,374.94,38.41,382.61z M44.55,340.88c-2.01-3.59-2.66-7.34-2.64-11.19
	c0.01-2.64,1.14-5.27,1.76-7.92c0.35,0.1,0.69,0.19,1.02,0.3c0.18,5.1,7.74,17.22,16.93,24.6
	C55.89,349.77,47.78,346.63,44.55,340.88z M88.29,381.84c-0.62,5.27-1.48,10.54-2.2,15.51c-1.18-3.59-2.52-7.3-3.59-11.08
	c-0.43-1.51-0.12-3.23-0.47-4.76c-0.29-1.3-1.04-3.54-1.56-3.53c-1.56,0.01-3.3,0.66-4.64,1.55c-3.12,2.06-6.04,4.42-9.08,6.6
	c-0.35,0.25-0.91,0.21-1.59,0.35c2.44-6.48,4.75-12.68,6.96-18.59c4.18,2.38,8.04,4.85,12.14,6.84
	C88.69,376.87,88.9,376.67,88.29,381.84z M83.64,360.5c8.76-0.5,17.4,0.1,25.64-3.86C106.07,367.12,94.99,371.18,83.64,360.5z
	 M111.26,432.5c-3.59-3.75-6.81-7.6-8.15-12.82c-1.36-5.29,0.82-10.08,1.63-15.38C111.87,412.02,114.83,425.1,111.26,432.5z
	 M121.46,372.84c-1.22-0.5-2.89-0.01-4.31,0.28c-0.19,0.04-0.14,1.62-0.07,2.48c0.5,6.26,1.02,12.53,0.98,19.13
	c-4.33-6.2-8.67-12.41-13.08-18.75c8.89-1.94,12.59-9.15,16.6-15.48c4.07,5.87,8.27,11.93,12.77,18.4
	C129.72,376.69,125.67,374.57,121.46,372.84z M149.49,348.33c0.12,0.32,0.35,0.61,0.39,0.93c0.46,3.66,0.89,7.31,1.38,11.53
	c-6.92-5.1-13.62-10.02-20.31-14.95c0.14-0.26,0.29-0.53,0.43-0.79c5.65-0.61,10.72-2.45,14.54-6.91c0.12-0.14,0.28-0.28,0.37-0.43
	c3-4.65,2.98-4.6,8.09-2.23c4.18,1.94,8.4,3.75,12.63,5.59c0.78,0.33,1.62,0.47,2.44,0.69c-0.19,0.35-0.4,0.71-0.6,1.05
	c-5.69,0.55-11.39,1.07-17.08,1.69c-1.14,0.12-2.22,0.69-3.32,1.05C148.79,346.49,149.14,347.42,149.49,348.33z M154.41,377.96
	c5.57,0.21,10.59,2.28,14.94,4.97c6.92,4.28,9.57,11.64,11.48,19.66C166.29,397.26,155.49,387.26,154.41,377.96z M176.57,323.56
	c12-3.38,22.94-1.44,32.63,7.38C197.27,332.84,185.91,332.94,176.57,323.56z"/>
<path class="st0" d="M2182.32,957.86c8.42-3.9,11.59-11.73,13.44-19.96c0.9-4,0.18-8.35,0.21-12.53c-0.17-0.06,0.11-0.01,0.35,0.12
	c0.3,0.19,0.64,0.4,0.86,0.68c3.53,4.22,8.31,6.55,13.39,7.99c4.65,1.32,9.5,2.13,14.37,0.66c2.23-0.68,4.71-0.82,6.7-1.9
	c3.52-1.9,5.52-5.19,7.13-8.89c4.17-9.58,2.71-18.51-2.66-27.05c-1.98-3.14-4.25-6.09-6.29-8.96c5.28,0.26,10.49,0.1,15.78-1.98
	c6.13-2.42,10.45-6.09,13.43-11.98c2.4-4.74,4-9.46,2.96-14.68c-0.53-2.6-1.38-5.4-2.95-7.46c-5.37-7.09-13.26-10.48-21.35-13.4
	c-1.59-0.58-3.2-1.14-5.14-1.81c2.44-1.87,4.82-3.28,6.67-5.22c2.96-3.1,5.47-6.65,8.35-9.83c2.8-3.09,4.33-6.59,4.61-10.73
	c0.55-8.39-3.78-14.65-10.69-17.28c-5.23-1.99-10.72-3.46-16.46-2.85c-4.1,0.43-8.31,0.3-12.02,2.71c-1.18,0.76-2.78,0.86-4.68,1.41
	c0.68-1.8,1.05-3.2,1.7-4.46c2.71-5.23,4.25-10.79,3.11-16.59c-0.72-3.64-2.31-7.19-3.95-10.56c-2.59-5.33-6.7-9.21-12.32-11.31
	c-3.52-1.32-6.91-1.68-10.7-0.3c-8.1,2.94-14.76,7.25-18.26,15.49c-0.89,2.06-1.92,4.07-3.05,6.42c-1.22-2.35-2.26-4.33-3.28-6.33
	c-2.8-5.41-5.07-10.99-9.3-15.73c-5.08-5.66-11.1-7.09-18.01-6.15c-4.73,0.65-8.39,3.24-11.67,6.98
	c-5.39,6.13-9.44,17.54-8.25,25.75c0.1,0.65-0.18,1.34-0.24,1.63c-3.68-1.83-7.23-3.79-10.95-5.36c-6.42-2.71-13.14-3.7-20.03-2.12
	c-1.7,0.39-3.46,1.12-4.86,2.15c-4.57,3.38-7.19,8.21-8.93,13.46c-1.61,4.85-0.73,9.72,0.48,14.55c1.76,6.98,4.87,13.17,9.95,17.75
	c-3.39,0.33-7.05,0.71-10.7,1.04c-6.35,0.58-11.56,3.75-16.25,7.71c-3.09,2.6-4.58,6.33-5.64,10.22c-1.09,4.03-0.54,8,0.89,11.66
	c2.45,6.29,7.79,9.87,13.62,12.64c4.43,2.1,9.01,3.85,13.75,5.86c-1.22,0.94-2.48,1.69-3.45,2.71c-3.34,3.5-6.99,6.8-9.72,10.73
	c-2.52,3.64-4.64,7.73-5.4,12.29c-0.79,4.72-0.14,9,2.89,12.9c2.17,2.81,5.11,4.54,8,6.38c4.53,2.88,9.62,3.97,14.74,2.87
	c5.5-1.18,10.79-3.3,16.31-5.04c-0.03,0.18-0.04,0.75-0.18,1.27c-0.42,1.56-1.12,3.09-1.29,4.67c-0.33,3.3-0.46,6.62-0.54,9.93
	c-0.1,4.14-0.32,8.29,1.25,12.28c2.06,5.32,5.46,9.61,10.66,11.88c2.55,1.11,5.66,1.01,8.54,1.27c3.77,0.33,7.02-1.26,10.27-2.89
	c6.33-3.17,11.73-7.41,15.89-13.14c0.97-1.34,1.79-2.8,2.6-4.07c0.68,1.63,1.32,3.18,1.98,4.74c1.63,3.77,2.91,7.75,5.04,11.21
	c2.77,4.49,7.16,6.91,12.13,9.07C2171.31,961,2176.77,960.43,2182.32,957.86z M2171.84,943.5c-2.76-2.89-5.26-5.86-6.29-9.89
	c-1.05-4.08,0.62-7.78,1.26-11.87C2172.31,927.69,2174.59,937.78,2171.84,943.5z M2179.72,897.47c-0.94-0.39-2.23-0.01-3.32,0.21
	c-0.15,0.03-0.11,1.25-0.06,1.91c0.39,4.83,0.79,9.66,0.76,14.76c-3.34-4.79-6.69-9.57-10.09-14.45c6.85-1.5,9.71-7.06,12.81-11.93
	c3.14,4.53,6.38,9.21,9.84,14.19C2186.09,900.43,2182.96,898.81,2179.72,897.47z M2158.88,844.5c0.48-5.93,3.32-9.98,8.5-12.56
	C2169.98,837.84,2165.19,842.11,2158.88,844.5z M2159.05,878.42c-3.81-3.48-5.08-7.66-3.35-12.6
	C2159.84,866.62,2160.61,871.99,2159.05,878.42z M2161.12,860.44c7.13-2.67,10.4,2.62,13.98,7.63
	C2168.41,868.82,2163.73,866.18,2161.12,860.44z M2187.4,846.34c4.71,0.5,7.12,5.18,6.95,9.03c-0.26,6.48-3.06,10.66-9.46,12.09
	C2189.04,860.65,2186.88,853.36,2187.4,846.34z M2201.33,878.57c0.1,0.25,0.28,0.47,0.3,0.72c0.35,2.82,0.68,5.65,1.07,8.9
	c-5.34-3.93-10.51-7.73-15.67-11.53c0.11-0.21,0.22-0.4,0.33-0.61c4.36-0.47,8.27-1.88,11.21-5.33c0.1-0.11,0.21-0.21,0.29-0.33
	c2.31-3.59,2.3-3.54,6.24-1.72c3.23,1.5,6.48,2.89,9.75,4.31c0.6,0.26,1.25,0.36,1.88,0.54c-0.15,0.26-0.3,0.54-0.46,0.8
	c-4.39,0.43-8.79,0.82-13.18,1.3c-0.87,0.1-1.72,0.53-2.56,0.82C2200.8,877.14,2201.07,877.86,2201.33,878.57z M2205.14,901.43
	c4.29,0.17,8.17,1.77,11.52,3.84c5.34,3.3,7.38,8.99,8.86,15.17C2214.3,916.31,2205.97,908.6,2205.14,901.43z M2247.41,865.15
	c-9.22,1.47-17.97,1.54-25.18-5.69C2231.48,856.84,2239.93,858.34,2247.41,865.15z M2236.46,808.33
	c-5.99,5.93-12.65,10.08-21.04,10.43C2219.72,810.19,2227.26,807.78,2236.46,808.33z M2210.91,830.05
	c-1.88,3.85-3.66,7.46-5.55,11.35c4.36,1.76,8.85,3.57,13.24,5.36c-4.93,0.98-9.76,1.94-14.81,2.94c-1.01-5.39-4.11-8.82-8.47-11.82
	C2200.62,835.2,2205.65,832.69,2210.91,830.05z M2182.72,779.19c0.24-1.98,2.05-3.9,3.49-5.57c2.15-2.51,4.58-4.78,6.91-7.14
	c0.22,0.12,0.43,0.25,0.65,0.37c-0.57,3.27-1.02,6.56-1.74,9.8c-0.5,2.23-0.98,4.61-2.16,6.49c-1.34,2.17-3.45,3.89-5.22,5.8
	c-0.37,0.4-0.78,0.75-1.51,1.45C2182.93,786.44,2182.29,782.76,2182.72,779.19z M2191.03,800.69c0.14,0.07,0.29,0.15,0.43,0.22
	c-1.12,5.19-2.26,10.37-3.48,15.99c4.68-0.57,9.51-1.16,14.59-1.79c-5.66,4.4-10.97,8.53-16.06,12.49
	c-0.11-5.03-2.99-9.26-6.74-13.79C2183.33,809.66,2187.18,805.17,2191.03,800.69z M2171.87,853.27c-2.59,0.01-5.19-1.11-8.29-1.84
	c3.72-4.25,9.26-4.9,15.12-2.34C2177.1,851.67,2174.66,853.26,2171.87,853.27z M2176.28,824.39c0.51,1.62,0.71,3.35,1.15,5.65
	c-7.56-4.56-14.61-8.78-22.98-10.07c5.32-3.12,10.49-3.86,16.23-1.11C2173.39,820.17,2175.41,821.61,2176.28,824.39z M2154.28,792.3
	c0.21-0.04,0.43-0.08,0.64-0.12c1.44,4.04,2.88,8.09,4.51,12.72c0.84-0.48,1.97-0.82,2.63-1.56c2.13-2.4,4.06-4.97,6.15-7.41
	c0.69-0.82,1.63-1.41,2.52-2.16c-0.55,5.29-1.07,10.23-1.62,15.52c-5.47-0.87-10.76-0.61-16.24,2.31
	C2153.37,804.88,2153.83,798.58,2154.28,792.3z M2150.37,827.94c3.14,4.8,4.39,9.8,1.56,15.19
	C2148.04,838.47,2147.22,830.64,2150.37,827.94z M2148.94,863.42c0.17,0.1,0.24,0.55,0.18,0.82c-0.79,4.53-3.05,8-7.31,9.97
	c-1.14-5.61,0.79-9.17,6.01-10.98C2148.14,863.12,2148.62,863.24,2148.94,863.42z M2130.33,858.26c4.89-2.3,9.3-7.17,14.94-1.84
	C2140.84,860,2137.7,861.9,2130.33,858.26z M2145.46,848.12c-2.67,0.94-9.65-1.11-11.51-3.52c-1.05-1.37-1.7-3.06-2.66-4.86
	c3.6-0.89,6.48,0.42,9.41,1.29c2.98,0.89,4.07,3.5,5.32,5.93C2146.16,847.19,2145.77,848.01,2145.46,848.12z M2124.31,842.6
	c-2.31-5.48-3.53-10.34,1.07-14.99c4.2-4.24,8.85-5.4,14.72-2.99C2133.49,829.38,2128.06,835.09,2124.31,842.6z M2134.46,762.71
	c1.83,2.69,3.17,4.9,4.75,6.95c1.84,2.38,2.69,4.98,2.19,7.92c-0.54,3.25-1.26,6.47-1.88,9.61
	C2132.71,780.05,2132.7,771.74,2134.46,762.71z M2123.45,807.42c2.76,0.86,4.68,3.88,7.97,3.34c-0.62-6.08-1.22-11.89-1.81-17.71
	c0.19-0.03,0.4-0.06,0.6-0.08c4.6,7.59,9.18,15.17,13.75,22.73c-3.02-0.07-6.29-0.25-9.55-0.17c-2.6,0.06-5.21,0.44-7.82,0.64
	c-0.46,0.03-1.12-0.01-1.37-0.3c-2.51-2.91-4.94-5.88-7.39-8.83c-0.93-1.11-1.84-2.22-2.59-3.67
	C2117.97,804.75,2120.57,806.52,2123.45,807.42z M2113.01,826.04c0.35,0.21,0.29,1.7-0.06,2.34c-2.42,4.54-2.44,9.19-0.89,14.57
	c-6.74-1.74-13.32-3.45-19.83-5.12c5.93-1.55,11.91-3.1,17.89-4.67c-4.11-5.1-7.91-9.79-11.69-14.47c0.21-0.18,0.42-0.36,0.62-0.54
	C2103.75,820.74,2108.43,823.31,2113.01,826.04z M2101.63,806.21c-6.65-0.4-14.44-7.41-15.94-14.36
	C2094.49,792.76,2098.39,799.19,2101.63,806.21z M2072.92,846.95c-3.77-0.66-7.17-3.34-10.73-5.12c8.65-4.2,15.78-0.91,22.75,4.1
	C2080.91,846.35,2076.74,847.64,2072.92,846.95z M2071.77,897.61c2.7-3.07,5.1-6.51,8.2-9.11c3.34-2.8,7.84-2.6,12.09-3.09
	C2091,890.71,2080.85,897,2071.77,897.61z M2094.57,873.21c-0.06-0.12-0.11-0.25-0.17-0.37c2.33-1.94,4.72-3.79,6.95-5.83
	c1.2-1.12,2.12-2.56,3.16-3.86c-1.4-0.6-2.74-1.4-4.2-1.76c-4.75-1.2-9.54-2.24-14.32-3.35c0-0.25,0-0.48,0-0.73
	c8.06-0.48,16.1-0.96,23.99-1.44c-0.91,2.55-1.98,4.75-2.42,7.06c-0.29,1.52,0.47,3.2,0.53,4.82c0.03,0.69-0.4,1.87-0.86,2.01
	C2103.04,871.01,2098.79,872.09,2094.57,873.21z M2117.94,934.35c-1.07-4,1.09-15.17,6.74-17.18
	C2125.85,924.2,2125.43,930.68,2117.94,934.35z M2115.64,905.01c-0.18-0.07-0.35-0.14-0.53-0.21c0.29-1.26,0.6-2.51,0.86-3.78
	c0.55-2.76,1.09-5.5,1.63-8.25c0.04-0.21-0.06-0.44-0.03-0.66c0.15-1.01,0.32-2.02,0.48-3.03c-1.45,0.24-2.98,0.28-4.36,0.73
	c-3.3,1.09-6.52,2.38-10.13,3.71c3.23-3.52,5.95-6.55,8.75-9.51c0.62-0.66,1.43-1.2,2.23-1.66c0.35-0.19,1.15-0.19,1.32,0.03
	c3.3,4.61,8.18,4.58,13.06,4.57c0.06,0,0.11,0.07,0.42,0.3C2124.77,893.17,2120.2,899.09,2115.64,905.01z M2120.38,872.82
	c-1.55-2.77-2.05-5.66-2.05-8.63c0-2.04,0.87-4.07,1.36-6.11c0.26,0.08,0.53,0.15,0.79,0.24c0.14,3.93,5.98,13.28,13.06,18.98
	C2129.13,879.68,2122.87,877.25,2120.38,872.82z M2154.12,904.42c-0.48,4.07-1.15,8.13-1.69,11.96c-0.91-2.77-1.94-5.62-2.77-8.54
	c-0.33-1.16-0.1-2.48-0.36-3.68c-0.22-1-0.8-2.73-1.22-2.73c-1.2,0.01-2.53,0.51-3.57,1.2c-2.41,1.59-4.67,3.41-7.01,5.1
	c-0.26,0.19-0.71,0.15-1.23,0.26c1.87-5,3.67-9.79,5.37-14.34c3.23,1.84,6.2,3.74,9.36,5.27
	C2154.44,900.58,2154.59,900.43,2154.12,904.42z M2150.53,887.95c6.76-0.39,13.43,0.07,19.78-2.98
	C2167.84,893.05,2159.3,896.19,2150.53,887.95z"/>
<path class="st0" d="M0.32,1293.33c8.42-3.9,11.59-11.73,13.44-19.96c0.9-4,0.18-8.35,0.21-12.53c-0.17-0.06,0.11-0.01,0.35,0.12
	c0.3,0.19,0.64,0.4,0.86,0.68c3.53,4.22,8.31,6.55,13.39,7.99c4.65,1.32,9.5,2.13,14.37,0.66c2.23-0.68,4.71-0.82,6.7-1.9
	c3.52-1.9,5.52-5.19,7.13-8.89c4.17-9.58,2.71-18.51-2.66-27.05c-1.98-3.14-4.25-6.09-6.29-8.96c5.27,0.26,10.49,0.1,15.78-1.98
	c6.13-2.42,10.45-6.09,13.43-11.98c2.4-4.74,4-9.46,2.96-14.68c-0.53-2.6-1.38-5.4-2.95-7.46c-5.37-7.09-13.26-10.48-21.35-13.4
	c-1.59-0.58-3.2-1.14-5.14-1.81c2.44-1.87,4.82-3.28,6.67-5.22c2.96-3.1,5.47-6.65,8.35-9.83c2.8-3.09,4.33-6.59,4.61-10.73
	c0.55-8.39-3.78-14.65-10.69-17.28c-5.23-1.99-10.72-3.46-16.46-2.85c-4.1,0.43-8.31,0.3-12.02,2.71c-1.18,0.76-2.78,0.86-4.68,1.41
	c0.68-1.8,1.05-3.2,1.7-4.46c2.71-5.23,4.25-10.79,3.12-16.59c-0.72-3.64-2.31-7.19-3.95-10.56c-2.59-5.33-6.7-9.21-12.32-11.31
	c-3.52-1.32-6.91-1.68-10.7-0.3c-8.1,2.94-14.76,7.25-18.26,15.49c-0.89,2.06-1.92,4.07-3.05,6.42c-1.22-2.35-2.26-4.33-3.28-6.33
	c-2.8-5.41-5.07-10.99-9.3-15.73c-5.08-5.66-11.1-7.09-18.01-6.15c-4.74,0.65-8.39,3.24-11.67,6.98
	c-5.39,6.13-9.44,17.54-8.25,25.75c0.1,0.65-0.18,1.34-0.24,1.63c-3.68-1.83-7.23-3.79-10.95-5.36c-6.42-2.71-13.14-3.7-20.03-2.12
	c-1.7,0.39-3.46,1.12-4.86,2.15c-4.57,3.38-7.19,8.21-8.93,13.46c-1.61,4.85-0.73,9.72,0.48,14.55c1.76,6.98,4.87,13.17,9.95,17.75
	c-3.39,0.33-7.05,0.71-10.7,1.04c-6.35,0.58-11.56,3.75-16.25,7.71c-3.09,2.6-4.58,6.33-5.63,10.22c-1.09,4.03-0.54,8,0.89,11.66
	c2.45,6.29,7.79,9.87,13.62,12.64c4.43,2.1,9.01,3.85,13.75,5.86c-1.22,0.94-2.48,1.69-3.45,2.71c-3.34,3.5-6.99,6.8-9.72,10.73
	c-2.52,3.64-4.64,7.73-5.4,12.29c-0.79,4.72-0.14,9,2.89,12.9c2.17,2.81,5.11,4.54,8,6.38c4.53,2.88,9.62,3.97,14.75,2.87
	c5.5-1.18,10.79-3.3,16.31-5.04c-0.03,0.18-0.04,0.75-0.18,1.27c-0.42,1.56-1.12,3.09-1.29,4.67c-0.33,3.3-0.46,6.62-0.54,9.93
	c-0.1,4.14-0.32,8.29,1.25,12.28c2.06,5.32,5.45,9.61,10.66,11.88c2.55,1.11,5.66,1.01,8.54,1.27c3.77,0.33,7.02-1.26,10.27-2.89
	c6.33-3.17,11.73-7.41,15.89-13.14c0.97-1.34,1.79-2.8,2.6-4.07c0.68,1.63,1.32,3.18,1.98,4.74c1.63,3.77,2.91,7.75,5.04,11.21
	c2.77,4.49,7.16,6.91,12.13,9.07C-10.69,1296.48-5.23,1295.91,0.32,1293.33z M-10.16,1278.98c-2.76-2.89-5.26-5.86-6.29-9.89
	c-1.05-4.08,0.62-7.78,1.26-11.87C-9.69,1263.17-7.4,1273.26-10.16,1278.98z M-2.28,1232.94c-0.94-0.39-2.23-0.01-3.32,0.21
	c-0.15,0.03-0.11,1.25-0.06,1.91c0.39,4.83,0.79,9.66,0.76,14.76c-3.34-4.79-6.69-9.57-10.09-14.45c6.85-1.5,9.71-7.06,12.81-11.93
	c3.14,4.53,6.38,9.21,9.84,14.19C4.09,1235.9,0.96,1234.29-2.28,1232.94z M-23.12,1179.97c0.48-5.93,3.32-9.98,8.5-12.56
	C-12.02,1173.31-16.81,1177.59-23.12,1179.97z M-22.95,1213.89c-3.81-3.48-5.08-7.66-3.35-12.6
	C-22.16,1202.1-21.39,1207.47-22.95,1213.89z M-20.88,1195.92c7.13-2.67,10.4,2.62,13.98,7.63
	C-13.59,1204.3-18.27,1201.65-20.88,1195.92z M5.4,1181.81c4.71,0.5,7.12,5.18,6.95,9.03c-0.26,6.48-3.06,10.66-9.46,12.09
	C7.04,1196.13,4.88,1188.83,5.4,1181.81z M19.33,1214.04c0.1,0.25,0.28,0.47,0.3,0.72c0.35,2.82,0.68,5.65,1.07,8.9
	c-5.34-3.93-10.51-7.73-15.67-11.53c0.11-0.21,0.22-0.4,0.33-0.61c4.36-0.47,8.27-1.88,11.21-5.33c0.1-0.11,0.21-0.21,0.29-0.33
	c2.31-3.59,2.3-3.54,6.24-1.72c3.23,1.5,6.48,2.89,9.75,4.31c0.6,0.26,1.25,0.36,1.88,0.54c-0.15,0.26-0.3,0.54-0.46,0.8
	c-4.39,0.43-8.79,0.82-13.18,1.3c-0.87,0.1-1.72,0.53-2.56,0.82C18.8,1212.62,19.07,1213.34,19.33,1214.04z M23.14,1236.9
	c4.29,0.17,8.17,1.77,11.52,3.84c5.34,3.3,7.38,8.99,8.86,15.17C32.3,1251.79,23.97,1244.07,23.14,1236.9z M65.41,1200.63
	c-9.22,1.47-17.97,1.54-25.18-5.69C49.48,1192.32,57.93,1193.82,65.41,1200.63z M54.46,1143.81c-5.99,5.93-12.65,10.08-21.04,10.43
	C37.72,1145.66,45.26,1143.25,54.46,1143.81z M28.91,1165.53c-1.88,3.85-3.66,7.46-5.55,11.35c4.36,1.76,8.85,3.57,13.24,5.36
	c-4.93,0.98-9.76,1.94-14.81,2.94c-1.01-5.39-4.11-8.82-8.47-11.82C18.62,1170.68,23.65,1168.16,28.91,1165.53z M0.72,1114.66
	c0.24-1.98,2.05-3.9,3.49-5.57c2.15-2.51,4.58-4.78,6.91-7.14c0.22,0.12,0.43,0.25,0.65,0.37c-0.57,3.27-1.02,6.56-1.74,9.8
	c-0.5,2.23-0.98,4.61-2.16,6.49c-1.34,2.17-3.45,3.89-5.22,5.8c-0.37,0.4-0.78,0.75-1.51,1.45
	C0.93,1121.92,0.29,1118.24,0.72,1114.66z M9.03,1136.16c0.14,0.07,0.29,0.15,0.43,0.22c-1.12,5.19-2.26,10.37-3.48,15.99
	c4.68-0.57,9.51-1.16,14.59-1.79c-5.66,4.4-10.97,8.53-16.06,12.49c-0.11-5.03-2.99-9.26-6.74-13.79
	C1.33,1145.14,5.18,1140.65,9.03,1136.16z M-10.13,1188.75c-2.59,0.01-5.19-1.11-8.29-1.84c3.72-4.25,9.26-4.9,15.12-2.34
	C-4.9,1187.14-7.34,1188.73-10.13,1188.75z M-5.72,1159.87c0.51,1.62,0.71,3.35,1.15,5.65c-7.56-4.56-14.61-8.78-22.98-10.07
	c5.32-3.12,10.49-3.86,16.23-1.11C-8.61,1155.64-6.59,1157.08-5.72,1159.87z M-27.72,1127.77c0.21-0.04,0.43-0.08,0.64-0.12
	c1.44,4.04,2.88,8.09,4.51,12.72c0.84-0.48,1.97-0.82,2.63-1.56c2.13-2.4,4.06-4.97,6.15-7.41c0.69-0.82,1.63-1.41,2.52-2.16
	c-0.55,5.29-1.07,10.23-1.62,15.52c-5.47-0.87-10.76-0.61-16.24,2.31C-28.63,1140.36-28.17,1134.06-27.72,1127.77z M-31.63,1163.41
	c3.14,4.8,4.39,9.8,1.56,15.19C-33.96,1173.95-34.78,1166.11-31.63,1163.41z M-33.06,1198.9c0.17,0.1,0.24,0.55,0.18,0.82
	c-0.79,4.53-3.05,8-7.31,9.97c-1.14-5.61,0.79-9.17,6.01-10.98C-33.86,1198.59-33.38,1198.72-33.06,1198.9z M-51.67,1193.73
	c4.89-2.3,9.3-7.17,14.94-1.84C-41.16,1195.48-44.3,1197.37-51.67,1193.73z M-36.54,1183.6c-2.67,0.94-9.65-1.11-11.51-3.52
	c-1.05-1.37-1.7-3.06-2.66-4.86c3.6-0.89,6.48,0.42,9.41,1.29c2.98,0.89,4.07,3.5,5.32,5.93
	C-35.84,1182.67-36.23,1183.49-36.54,1183.6z M-57.69,1178.07c-2.31-5.48-3.53-10.34,1.07-14.99c4.2-4.24,8.85-5.4,14.72-2.99
	C-48.51,1164.85-53.94,1170.57-57.69,1178.07z M-47.54,1098.19c1.83,2.69,3.17,4.9,4.75,6.95c1.84,2.38,2.69,4.98,2.19,7.92
	c-0.54,3.25-1.26,6.47-1.88,9.61C-49.29,1115.52-49.3,1107.21-47.54,1098.19z M-58.55,1142.89c2.76,0.86,4.68,3.88,7.97,3.34
	c-0.62-6.08-1.22-11.89-1.81-17.71c0.19-0.03,0.4-0.06,0.6-0.08c4.6,7.59,9.18,15.17,13.75,22.73c-3.02-0.07-6.29-0.25-9.55-0.17
	c-2.6,0.06-5.21,0.44-7.82,0.64c-0.46,0.03-1.12-0.01-1.37-0.3c-2.51-2.91-4.94-5.88-7.39-8.83c-0.93-1.11-1.84-2.22-2.59-3.67
	C-64.03,1140.22-61.43,1141.99-58.55,1142.89z M-68.99,1161.52c0.35,0.21,0.29,1.7-0.06,2.34c-2.42,4.54-2.44,9.19-0.89,14.57
	c-6.74-1.74-13.32-3.45-19.83-5.12c5.93-1.55,11.91-3.1,17.89-4.67c-4.11-5.1-7.91-9.79-11.69-14.47c0.21-0.18,0.42-0.36,0.62-0.54
	C-78.25,1156.21-73.57,1158.79-68.99,1161.52z M-80.37,1141.69c-6.65-0.4-14.44-7.41-15.94-14.36
	C-87.51,1128.23-83.61,1134.67-80.37,1141.69z M-109.08,1182.42c-3.77-0.66-7.17-3.34-10.73-5.12c8.65-4.2,15.78-0.91,22.75,4.1
	C-101.1,1181.83-105.26,1183.11-109.08,1182.42z M-110.23,1233.08c2.7-3.07,5.1-6.51,8.2-9.11c3.34-2.8,7.84-2.6,12.09-3.09
	C-91,1226.19-101.15,1232.47-110.23,1233.08z M-87.43,1208.69c-0.06-0.12-0.11-0.25-0.17-0.37c2.33-1.94,4.72-3.79,6.95-5.83
	c1.2-1.12,2.12-2.56,3.16-3.86c-1.4-0.6-2.74-1.4-4.2-1.76c-4.75-1.2-9.54-2.24-14.32-3.35c0-0.25,0-0.48,0-0.73
	c8.06-0.48,16.1-0.96,23.99-1.44c-0.91,2.55-1.98,4.75-2.42,7.06c-0.29,1.52,0.47,3.2,0.53,4.82c0.03,0.69-0.4,1.87-0.86,2.01
	C-78.96,1206.48-83.21,1207.56-87.43,1208.69z M-64.06,1269.83c-1.07-4,1.09-15.17,6.74-17.18
	C-56.15,1259.68-56.57,1266.16-64.06,1269.83z M-66.36,1240.49c-0.18-0.07-0.35-0.14-0.53-0.21c0.29-1.26,0.6-2.51,0.86-3.78
	c0.55-2.76,1.09-5.5,1.63-8.25c0.04-0.21-0.06-0.44-0.03-0.66c0.15-1.01,0.32-2.02,0.48-3.03c-1.45,0.24-2.98,0.28-4.36,0.73
	c-3.3,1.09-6.52,2.38-10.13,3.71c3.23-3.52,5.95-6.55,8.75-9.51c0.62-0.66,1.43-1.2,2.23-1.66c0.35-0.19,1.15-0.19,1.32,0.03
	c3.3,4.61,8.18,4.58,13.06,4.57c0.06,0,0.11,0.07,0.42,0.3C-57.23,1228.65-61.8,1234.56-66.36,1240.49z M-61.62,1208.3
	c-1.55-2.77-2.05-5.66-2.05-8.63c0-2.04,0.87-4.07,1.36-6.11c0.26,0.08,0.53,0.15,0.79,0.24c0.14,3.93,5.98,13.28,13.06,18.98
	C-52.87,1215.15-59.13,1212.73-61.62,1208.3z M-27.88,1239.89c-0.48,4.07-1.15,8.13-1.69,11.96c-0.91-2.77-1.94-5.62-2.77-8.54
	c-0.33-1.16-0.1-2.48-0.36-3.68c-0.22-1-0.8-2.73-1.22-2.73c-1.2,0.01-2.53,0.51-3.57,1.2c-2.41,1.59-4.67,3.41-7.01,5.09
	c-0.26,0.19-0.71,0.15-1.23,0.26c1.87-5,3.67-9.79,5.37-14.34c3.23,1.84,6.2,3.74,9.36,5.27
	C-27.56,1236.06-27.41,1235.9-27.88,1239.89z M-31.47,1223.43c6.76-0.39,13.43,0.07,19.78-2.98
	C-14.16,1228.53-22.7,1231.67-31.47,1223.43z"/>
<path class="st0" d="M2481.32,1294.33c8.42-3.9,11.59-11.73,13.44-19.96c0.9-4,0.18-8.35,0.21-12.53c-0.17-0.06,0.11-0.01,0.35,0.12
	c0.3,0.19,0.64,0.4,0.86,0.68c3.53,4.22,8.31,6.55,13.39,7.99c4.65,1.32,9.5,2.13,14.37,0.66c2.23-0.68,4.71-0.82,6.7-1.9
	c3.52-1.9,5.52-5.19,7.13-8.89c4.17-9.58,2.71-18.51-2.66-27.05c-1.98-3.14-4.25-6.09-6.29-8.96c5.28,0.26,10.49,0.1,15.78-1.98
	c6.13-2.42,10.45-6.09,13.43-11.98c2.4-4.74,4-9.46,2.96-14.68c-0.53-2.6-1.38-5.4-2.95-7.46c-5.37-7.09-13.26-10.48-21.35-13.4
	c-1.59-0.58-3.2-1.14-5.14-1.81c2.44-1.87,4.82-3.28,6.67-5.22c2.96-3.1,5.47-6.65,8.35-9.83c2.8-3.09,4.33-6.59,4.61-10.73
	c0.55-8.39-3.78-14.65-10.69-17.28c-5.23-1.99-10.72-3.46-16.46-2.85c-4.1,0.43-8.31,0.3-12.02,2.71c-1.18,0.76-2.78,0.86-4.68,1.41
	c0.68-1.8,1.05-3.2,1.7-4.46c2.71-5.23,4.25-10.79,3.11-16.59c-0.72-3.64-2.31-7.19-3.95-10.56c-2.59-5.33-6.7-9.21-12.32-11.31
	c-3.52-1.32-6.91-1.68-10.7-0.3c-8.1,2.94-14.76,7.25-18.26,15.49c-0.89,2.06-1.92,4.07-3.05,6.42c-1.22-2.35-2.26-4.33-3.28-6.33
	c-2.8-5.41-5.07-10.99-9.3-15.73c-5.08-5.66-11.1-7.09-18.01-6.15c-4.73,0.65-8.39,3.24-11.67,6.98
	c-5.39,6.13-9.44,17.54-8.25,25.75c0.1,0.65-0.18,1.34-0.24,1.63c-3.68-1.83-7.23-3.79-10.95-5.36c-6.42-2.71-13.14-3.7-20.03-2.12
	c-1.7,0.39-3.46,1.12-4.86,2.15c-4.57,3.38-7.19,8.21-8.93,13.46c-1.61,4.85-0.73,9.72,0.48,14.55c1.76,6.98,4.87,13.17,9.95,17.75
	c-3.39,0.33-7.05,0.71-10.7,1.04c-6.35,0.58-11.56,3.75-16.25,7.71c-3.09,2.6-4.58,6.33-5.64,10.22c-1.09,4.03-0.54,8,0.89,11.66
	c2.45,6.29,7.79,9.87,13.62,12.64c4.43,2.1,9.01,3.85,13.75,5.86c-1.22,0.94-2.48,1.69-3.45,2.71c-3.34,3.5-6.99,6.8-9.72,10.73
	c-2.52,3.64-4.64,7.73-5.4,12.29c-0.79,4.72-0.14,9,2.89,12.9c2.17,2.81,5.11,4.54,8,6.38c4.53,2.88,9.62,3.97,14.74,2.87
	c5.5-1.18,10.79-3.3,16.31-5.04c-0.03,0.18-0.04,0.75-0.18,1.27c-0.42,1.56-1.12,3.09-1.29,4.67c-0.33,3.3-0.46,6.62-0.54,9.93
	c-0.1,4.14-0.32,8.29,1.25,12.28c2.06,5.32,5.46,9.61,10.66,11.88c2.55,1.11,5.66,1.01,8.54,1.27c3.77,0.33,7.02-1.26,10.27-2.89
	c6.33-3.17,11.73-7.41,15.89-13.14c0.97-1.34,1.79-2.8,2.6-4.07c0.68,1.63,1.32,3.18,1.98,4.74c1.63,3.77,2.91,7.75,5.04,11.21
	c2.77,4.49,7.16,6.91,12.13,9.07C2470.31,1297.48,2475.77,1296.91,2481.32,1294.33z M2470.84,1279.98
	c-2.76-2.89-5.26-5.86-6.29-9.89c-1.05-4.08,0.62-7.78,1.26-11.87C2471.31,1264.17,2473.59,1274.26,2470.84,1279.98z
	 M2478.72,1233.94c-0.94-0.39-2.23-0.01-3.32,0.21c-0.15,0.03-0.11,1.25-0.06,1.91c0.39,4.83,0.79,9.66,0.76,14.76
	c-3.34-4.79-6.69-9.57-10.09-14.45c6.85-1.5,9.71-7.06,12.81-11.93c3.14,4.53,6.38,9.21,9.84,14.19
	C2485.09,1236.9,2481.96,1235.29,2478.72,1233.94z M2457.88,1180.97c0.48-5.93,3.32-9.98,8.5-12.56
	C2468.98,1174.31,2464.19,1178.59,2457.88,1180.97z M2458.05,1214.89c-3.81-3.48-5.08-7.66-3.35-12.6
	C2458.84,1203.1,2459.61,1208.47,2458.05,1214.89z M2460.12,1196.92c7.13-2.67,10.4,2.62,13.98,7.63
	C2467.41,1205.3,2462.73,1202.65,2460.12,1196.92z M2486.4,1182.81c4.71,0.5,7.12,5.18,6.95,9.03c-0.26,6.48-3.06,10.66-9.46,12.09
	C2488.04,1197.13,2485.88,1189.83,2486.4,1182.81z M2500.33,1215.04c0.1,0.25,0.28,0.47,0.3,0.72c0.35,2.82,0.68,5.65,1.07,8.9
	c-5.34-3.93-10.51-7.73-15.67-11.53c0.11-0.21,0.22-0.4,0.33-0.61c4.36-0.47,8.27-1.88,11.21-5.33c0.1-0.11,0.21-0.21,0.29-0.33
	c2.31-3.59,2.3-3.54,6.24-1.72c3.23,1.5,6.48,2.89,9.75,4.31c0.6,0.26,1.25,0.36,1.88,0.54c-0.15,0.26-0.3,0.54-0.46,0.8
	c-4.39,0.43-8.79,0.82-13.18,1.3c-0.87,0.1-1.72,0.53-2.56,0.82C2499.8,1213.62,2500.07,1214.34,2500.33,1215.04z M2504.14,1237.9
	c4.29,0.17,8.17,1.77,11.52,3.84c5.34,3.3,7.38,8.99,8.86,15.17C2513.3,1252.79,2504.97,1245.07,2504.14,1237.9z M2546.41,1201.63
	c-9.22,1.47-17.97,1.54-25.18-5.69C2530.48,1193.32,2538.93,1194.82,2546.41,1201.63z M2535.46,1144.81
	c-5.99,5.93-12.65,10.08-21.04,10.43C2518.72,1146.66,2526.26,1144.25,2535.46,1144.81z M2509.91,1166.53
	c-1.88,3.85-3.66,7.46-5.55,11.35c4.36,1.76,8.85,3.57,13.24,5.36c-4.93,0.98-9.76,1.94-14.81,2.94c-1.01-5.39-4.11-8.82-8.47-11.82
	C2499.62,1171.68,2504.65,1169.16,2509.91,1166.53z M2481.72,1115.66c0.24-1.98,2.05-3.9,3.49-5.57c2.15-2.51,4.58-4.78,6.91-7.14
	c0.22,0.12,0.43,0.25,0.65,0.37c-0.57,3.27-1.02,6.56-1.74,9.8c-0.5,2.23-0.98,4.61-2.16,6.49c-1.34,2.17-3.45,3.89-5.22,5.8
	c-0.37,0.4-0.78,0.75-1.51,1.45C2481.93,1122.92,2481.29,1119.24,2481.72,1115.66z M2490.03,1137.16c0.14,0.07,0.29,0.15,0.43,0.22
	c-1.12,5.19-2.26,10.37-3.48,15.99c4.68-0.57,9.51-1.16,14.59-1.79c-5.66,4.4-10.97,8.53-16.06,12.49
	c-0.11-5.03-2.99-9.26-6.74-13.79C2482.33,1146.14,2486.18,1141.65,2490.03,1137.16z M2470.87,1189.75
	c-2.59,0.01-5.19-1.11-8.29-1.84c3.72-4.25,9.26-4.9,15.12-2.34C2476.1,1188.14,2473.66,1189.73,2470.87,1189.75z M2475.28,1160.87
	c0.51,1.62,0.71,3.35,1.15,5.65c-7.56-4.56-14.61-8.78-22.98-10.07c5.32-3.12,10.49-3.86,16.23-1.11
	C2472.39,1156.64,2474.41,1158.08,2475.28,1160.87z M2453.28,1128.77c0.21-0.04,0.43-0.08,0.64-0.12c1.44,4.04,2.88,8.09,4.51,12.72
	c0.84-0.48,1.97-0.82,2.63-1.56c2.13-2.4,4.06-4.97,6.15-7.41c0.69-0.82,1.63-1.41,2.52-2.16c-0.55,5.29-1.07,10.23-1.62,15.52
	c-5.47-0.87-10.76-0.61-16.24,2.31C2452.37,1141.36,2452.83,1135.06,2453.28,1128.77z M2449.37,1164.41
	c3.14,4.8,4.39,9.8,1.56,15.19C2447.04,1174.95,2446.22,1167.11,2449.37,1164.41z M2447.94,1199.9c0.17,0.1,0.24,0.55,0.18,0.82
	c-0.79,4.53-3.05,8-7.31,9.97c-1.14-5.61,0.79-9.17,6.01-10.98C2447.14,1199.59,2447.62,1199.72,2447.94,1199.9z M2429.33,1194.73
	c4.89-2.3,9.3-7.17,14.94-1.84C2439.84,1196.48,2436.7,1198.37,2429.33,1194.73z M2444.46,1184.6c-2.67,0.94-9.65-1.11-11.51-3.52
	c-1.05-1.37-1.7-3.06-2.66-4.86c3.6-0.89,6.48,0.42,9.41,1.29c2.98,0.89,4.07,3.5,5.32,5.93
	C2445.16,1183.67,2444.77,1184.49,2444.46,1184.6z M2423.31,1179.07c-2.31-5.48-3.53-10.34,1.07-14.99c4.2-4.24,8.85-5.4,14.72-2.99
	C2432.49,1165.85,2427.06,1171.57,2423.31,1179.07z M2433.46,1099.19c1.83,2.69,3.17,4.9,4.75,6.95c1.84,2.38,2.69,4.98,2.19,7.92
	c-0.54,3.25-1.26,6.47-1.88,9.61C2431.71,1116.52,2431.7,1108.21,2433.46,1099.19z M2422.45,1143.89c2.76,0.86,4.68,3.88,7.97,3.34
	c-0.62-6.08-1.22-11.89-1.81-17.71c0.19-0.03,0.4-0.06,0.6-0.08c4.6,7.59,9.18,15.17,13.75,22.73c-3.02-0.07-6.29-0.25-9.55-0.17
	c-2.6,0.06-5.21,0.44-7.82,0.64c-0.46,0.03-1.12-0.01-1.37-0.3c-2.51-2.91-4.94-5.88-7.39-8.83c-0.93-1.11-1.84-2.22-2.59-3.67
	C2416.97,1141.22,2419.57,1142.99,2422.45,1143.89z M2412.01,1162.52c0.35,0.21,0.29,1.7-0.06,2.34c-2.42,4.54-2.44,9.19-0.89,14.57
	c-6.74-1.74-13.32-3.45-19.83-5.12c5.93-1.55,11.91-3.1,17.89-4.67c-4.11-5.1-7.91-9.79-11.69-14.47c0.21-0.18,0.42-0.36,0.62-0.54
	C2402.75,1157.21,2407.43,1159.79,2412.01,1162.52z M2400.63,1142.69c-6.65-0.4-14.44-7.41-15.94-14.36
	C2393.49,1129.23,2397.39,1135.67,2400.63,1142.69z M2371.92,1183.42c-3.77-0.66-7.17-3.34-10.73-5.12
	c8.65-4.2,15.78-0.91,22.75,4.1C2379.91,1182.83,2375.74,1184.11,2371.92,1183.42z M2370.77,1234.08c2.7-3.07,5.1-6.51,8.2-9.11
	c3.34-2.8,7.84-2.6,12.09-3.09C2390,1227.19,2379.85,1233.47,2370.77,1234.08z M2393.57,1209.69c-0.06-0.12-0.11-0.25-0.17-0.37
	c2.33-1.94,4.72-3.79,6.95-5.83c1.2-1.12,2.12-2.56,3.16-3.86c-1.4-0.6-2.74-1.4-4.2-1.76c-4.75-1.2-9.54-2.24-14.32-3.35
	c0-0.25,0-0.48,0-0.73c8.06-0.48,16.1-0.96,23.99-1.44c-0.91,2.55-1.98,4.75-2.42,7.06c-0.29,1.52,0.47,3.2,0.53,4.82
	c0.03,0.69-0.4,1.87-0.86,2.01C2402.04,1207.48,2397.79,1208.56,2393.57,1209.69z M2416.94,1270.83c-1.07-4,1.09-15.17,6.74-17.18
	C2424.85,1260.68,2424.43,1267.16,2416.94,1270.83z M2414.64,1241.49c-0.18-0.07-0.35-0.14-0.53-0.21c0.29-1.26,0.6-2.51,0.86-3.78
	c0.55-2.76,1.09-5.5,1.63-8.25c0.04-0.21-0.06-0.44-0.03-0.66c0.15-1.01,0.32-2.02,0.48-3.03c-1.45,0.24-2.98,0.28-4.36,0.73
	c-3.3,1.09-6.52,2.38-10.13,3.71c3.23-3.52,5.95-6.55,8.75-9.51c0.62-0.66,1.43-1.2,2.23-1.66c0.35-0.19,1.15-0.19,1.32,0.03
	c3.3,4.61,8.18,4.58,13.06,4.57c0.06,0,0.11,0.07,0.42,0.3C2423.77,1229.65,2419.2,1235.56,2414.64,1241.49z M2419.38,1209.3
	c-1.55-2.77-2.05-5.66-2.05-8.63c0-2.04,0.87-4.07,1.36-6.11c0.26,0.08,0.53,0.15,0.79,0.24c0.14,3.93,5.98,13.28,13.06,18.98
	C2428.13,1216.15,2421.87,1213.73,2419.38,1209.3z M2453.12,1240.89c-0.48,4.07-1.15,8.13-1.69,11.96
	c-0.91-2.77-1.94-5.62-2.77-8.54c-0.33-1.16-0.1-2.48-0.36-3.68c-0.22-1-0.8-2.73-1.22-2.73c-1.2,0.01-2.53,0.51-3.57,1.2
	c-2.41,1.59-4.67,3.41-7.01,5.09c-0.26,0.19-0.71,0.15-1.23,0.26c1.87-5,3.67-9.79,5.37-14.34c3.23,1.84,6.2,3.74,9.36,5.27
	C2453.44,1237.06,2453.59,1236.9,2453.12,1240.89z M2449.53,1224.43c6.76-0.39,13.43,0.07,19.78-2.98
	C2466.84,1229.53,2458.3,1232.67,2449.53,1224.43z"/>
<path class="st0" d="M130.33,484.77c-16.84,4.65-28.21,17.16-29.4,34.2c-0.42,5.99-0.07,12.83,2.46,18.07
	c8.38,17.31,21.78,29.78,40.11,36.38c2.82,0.91,5.57,2.14,8.45,2.64c10.31,1.83,20.6,3.96,31.02,4.93
	c12.07,1.12,24.25,1.31,36.39,1.58c4.5,0.1,5.11-1.41,3.04-5.44c-0.26-0.5-0.54-1.02-0.7-1.56c-4.44-15-9.99-29.53-17.24-43.44
	c-5.68-10.92-10.59-22.19-18.84-31.65c-5.29-6.08-11.92-9.94-19-12.83c-4.75-1.94-10.31-1.82-15.43-2.99
	C144.35,483.09,137.17,482.89,130.33,484.77z M132.92,527.25c0.49-0.25,0.97-0.5,1.44-0.75c4.87,7.61,9.72,15.24,14.59,22.85
	C140.28,547.16,132.06,536.56,132.92,527.25z M170.51,564.07c-0.33,0.21-0.67,0.42-0.99,0.63c-4.98-3.91-9.45-8.14-9.87-14.93
	c0.39-0.25,0.79-0.5,1.17-0.75C164.06,554.04,167.28,559.05,170.51,564.07z M188.59,556.39c-18.96-10.67-36.68-22.27-51.62-38.06
	C145.2,517.75,185.61,547.15,188.59,556.39z M190.43,534.94c-0.23,0.49-0.46,0.97-0.68,1.45c-6.89-2.76-13.78-5.51-21.27-8.51
	C177.4,526.98,185.15,527.49,190.43,534.94z M171.41,518.72c-7.95,3.41-21.76,0.62-29.03-7.73
	C151.77,505.98,165.69,509.56,171.41,518.72z"/>
<path class="st0" d="M302.12,100.59c-1.52-0.47-3.09-0.79-4.62-1.2c-4.89-1.27-9.75-2.59-14.65-3.84
	c-7.75-1.98-15.56-2.27-23.41-0.6c-0.72,0.15-1.48,0.14-1.79,0.17c0.64-4.5,1.38-8.82,1.83-13.18c0.37-3.63,0.78-7.32,0.51-10.94
	c-0.33-4.47-1.25-8.9-2.05-13.32c-1.94-10.67-6.35-20.26-12.93-28.85c-1.18-1.54-2.27-3.13-3.3-4.78c-0.68-1.09-1.37-1.25-2.59-0.82
	c-4,1.4-7.41,3.79-10.79,6.26c-4.74,3.45-9.62,6.71-14.05,10.49c-4.17,3.56-7.96,7.6-11.71,11.63c-2.58,2.77-5.14,5.68-7.09,8.89
	c-2.85,4.72-5.15,9.79-7.7,14.73c-0.55-0.61-1.41-1.62-2.33-2.58c-5.48-5.79-11.7-10.43-19.47-12.82c-3.07-0.96-5.94-2.58-8.96-3.75
	c-2.33-0.9-4.76-1.54-7.12-2.38c-0.84-0.3-1.56-1.09-2.4-1.23c-0.73-0.11-1.98,0.12-2.3,0.64c-0.83,1.36-1.54,2.89-1.8,4.44
	c-0.8,4.5-1.63,9.01-1.94,13.55c-0.33,4.93-0.28,9.91,0,14.86c0.25,4.42,0.96,8.76,2.13,13.1c1.44,5.26,3.75,10.02,6.33,14.76
	c1.73,3.18,2.98,6.63,4.58,9.89c1.87,3.78,4.29,7.17,7.63,9.83c5.87,4.67,11.63,9.48,17.64,13.94c5.32,3.93,10.98,7.28,17.49,9.08
	c2.69,0.75,5.1,2.64,7.78,3.14c6.63,1.2,13.14,3.25,20.06,2.56c4.43-0.44,8.99,0.24,13.39-0.33c4.92-0.64,9.97-1.48,14.51-3.36
	c4.94-2.05,9.65-4.97,13.9-8.24c5.04-3.89,9.73-8.33,14.11-12.96c3.18-3.36,5.83-7.31,8.33-11.23c3.42-5.36,6.48-10.94,9.72-16.42
	c1.36-2.3,2.77-4.56,4.1-6.87C303.86,101.7,303.21,100.92,302.12,100.59z M180.12,124.33c-4-3.52-8.54-6.62-11.88-10.69
	c-3.28-4-5.81-8.81-7.85-13.61c-3.2-7.55-3.86-12.77-2.85-15.05c6.16,13.98,13.32,27.25,23.43,38.77
	C180.7,123.95,180.41,124.14,180.12,124.33z M245.99,75.61c-1.44,9.01-5.73,15.73-13.9,19.58C232.24,92.71,239.66,82.2,245.99,75.61
	z M194.88,90.47c1.18,8.85,2.4,18.03,3.59,26.98C188.24,106.45,190.71,98.76,194.88,90.47z M208.28,63.86
	c-0.46,3.99-0.87,7.88-1.38,11.75c-0.5,3.92-1.09,7.84-1.7,12.13C200.1,76.47,202.62,67.29,208.28,63.86z M221.69,94.55
	c-0.75,2.76-1.63,5.47-2.45,8.21c-1.59,5.4-3.09,10.84-4.76,16.21c-1.34,4.32-2.74,8.63-4.39,12.83c-0.83,2.13-2.3,4-3.48,5.99
	c-0.24-0.1-0.46-0.19-0.69-0.29c0.57-4.62,0.79-9.32,1.79-13.83c1.43-6.45,3.23-12.85,5.26-19.15c2.53-7.86,5.45-15.6,8.24-23.37
	c1.61-4.47,3.27-8.92,4.93-13.36c0.94-2.53,1.97-5.03,2.94-7.55c0.14,0.03,0.26,0.06,0.4,0.07c0.03,0.43,0.15,0.89,0.07,1.3
	c-1.15,5.41-2.22,10.85-3.52,16.24C224.71,83.46,223.19,89,221.69,94.55z M227.61,125.14c-1.5,0.53-3.06,0.84-4.6,1.26
	c-0.04-0.14-0.08-0.28-0.11-0.43c6.94-7.23,13.86-14.47,20.8-21.7c0.17,0.06,0.33,0.11,0.48,0.15c-1.26,2.89-2.35,5.87-3.84,8.65
	c-0.78,1.47-2.33,2.52-3.31,3.9C234.53,120.47,231.8,123.64,227.61,125.14z M260.81,135.35c-2.06,1.8-4.42,3.46-6.94,4.5
	c-6.35,2.63-12.24,2.55-19.74,0.97c0.15-0.17,0.28-0.4,0.43-0.43c3.2-0.68,6.56-0.91,9.58-2.08c5.19-1.99,10.2-4.51,15.23-6.91
	c3.28-1.56,6.48-3.32,9.72-5c0.08,0.15,0.18,0.29,0.26,0.44C266.52,129.69,263.84,132.71,260.81,135.35z"/>
<path class="st0" d="M271.95,836.49c-10.09-13.32-24.89-19.68-40.08-25.17c-2.99-1.08-6.02-2.13-9.65-3.41
	c4.57-3.51,9.05-6.18,12.52-9.81c5.56-5.84,10.27-12.48,15.67-18.45c5.26-5.8,8.14-12.38,8.67-20.14
	c1.04-15.75-7.1-27.52-20.08-32.46c-9.83-3.75-20.12-6.5-30.91-5.36c-7.7,0.8-15.59,0.58-22.57,5.09c-2.21,1.42-5.22,1.62-8.79,2.65
	c1.28-3.39,1.99-6.02,3.21-8.36c5.11-9.81,7.98-20.26,5.86-31.13c-1.34-6.84-4.33-13.5-7.4-19.84
	c-4.85-9.99-12.58-17.29-23.15-21.24c-6.6-2.47-12.96-3.15-20.1-0.56c-15.22,5.5-27.72,13.64-34.3,29.11
	c-1.64,3.89-3.61,7.64-5.72,12.06c-2.31-4.43-4.25-8.14-6.16-11.87c-5.26-10.17-9.53-20.66-17.49-29.53
	c-9.55-10.63-20.86-13.32-33.82-11.55c-8.89,1.2-15.75,6.08-21.92,13.1C5.61,661.11-1.99,682.54,0.24,697.94
	c0.18,1.2-0.34,2.53-0.44,3.07c-6.92-3.43-13.58-7.12-20.56-10.07c-12.08-5.11-24.69-6.96-37.63-3.97c-3.19,0.74-6.5,2.11-9.11,4.03
	c-8.59,6.34-13.48,15.41-16.77,25.27c-3.03,9.09-1.38,18.25,0.9,27.32c3.29,13.1,9.17,24.71,18.69,33.32
	c-6.38,0.62-13.24,1.32-20.1,1.95c-11.96,1.1-21.7,7.04-30.53,14.48c-5.8,4.87-8.59,11.87-10.59,19.18c-2.07,7.56-1,15.02,1.66,21.9
	c4.59,11.79,14.62,18.53,25.58,23.73c8.3,3.93,16.93,7.24,25.82,10.99c-2.29,1.77-4.65,3.19-6.48,5.09
	c-6.26,6.56-13.14,12.76-18.23,20.16c-4.73,6.84-8.71,14.5-10.15,23.09c-1.48,8.87-0.26,16.89,5.42,24.23
	c4.09,5.3,9.61,8.53,15.02,11.98c8.5,5.42,18.07,7.46,27.7,5.38c10.31-2.23,20.26-6.18,30.63-9.47c-0.04,0.34-0.08,1.38-0.34,2.39
	c-0.78,2.93-2.11,5.8-2.41,8.77c-0.62,6.18-0.86,12.42-1,18.65c-0.18,7.76-0.58,15.59,2.33,23.07c3.89,9.97,10.25,18.03,20.02,22.31
	c4.79,2.09,10.63,1.91,16.03,2.39c7.06,0.62,13.18-2.35,19.3-5.44c11.87-5.96,22.02-13.92,29.85-24.67
	c1.83-2.51,3.35-5.26,4.87-7.64c1.28,3.07,2.47,6,3.73,8.89c3.07,7.06,5.46,14.56,9.47,21.06c5.2,8.42,13.46,12.98,22.77,17.01
	c11.51,4.99,21.74,3.93,32.17-0.9c15.83-7.32,21.76-22,25.23-37.49c1.69-7.5,0.34-15.69,0.38-23.53c-0.3-0.1,0.22-0.02,0.64,0.24
	c0.58,0.36,1.18,0.76,1.62,1.28c6.64,7.94,15.59,12.3,25.15,15c8.75,2.47,17.83,4.01,26.98,1.24c4.19-1.26,8.85-1.52,12.6-3.55
	c6.6-3.57,10.37-9.75,13.38-16.69c7.82-17.99,5.09-34.76-4.99-50.81c-3.71-5.9-7.98-11.43-11.79-16.83
	c9.91,0.48,19.7,0.2,29.65-3.73c11.51-4.53,19.62-11.43,25.21-22.49c4.51-8.89,7.52-17.77,5.56-27.58
	C276.51,845.64,274.88,840.36,271.95,836.49z M229.53,754.61c-11.25,11.13-23.75,18.92-39.52,19.58
	C198.12,758.08,212.28,753.59,229.53,754.61z M181.55,795.39c-3.53,7.22-6.86,14.02-10.41,21.32c8.18,3.31,16.61,6.72,24.87,10.05
	c-9.25,1.83-18.31,3.63-27.82,5.52c-1.89-10.13-7.72-16.57-15.91-22.21C162.25,805.08,171.7,800.34,181.55,795.39z M128.61,699.89
	c0.44-3.71,3.85-7.32,6.54-10.45c4.03-4.71,8.63-8.97,12.96-13.42c0.4,0.24,0.8,0.46,1.22,0.7c-1.06,6.14-1.91,12.32-3.27,18.39
	c-0.92,4.19-1.85,8.65-4.05,12.2c-2.53,4.09-6.46,7.3-9.81,10.89c-0.7,0.74-1.46,1.42-2.83,2.73
	C129.01,713.51,127.83,706.57,128.61,699.89z M144.22,740.27c0.28,0.14,0.54,0.28,0.82,0.42c-2.13,9.75-4.23,19.48-6.52,30.03
	c8.79-1.08,17.85-2.19,27.4-3.37c-10.65,8.28-20.58,16.01-30.15,23.45c-0.22-9.45-5.62-17.39-12.68-25.9
	C129.78,757.12,137,748.69,144.22,740.27z M137.42,825.98c8.83,0.94,13.36,9.73,13.06,16.95c-0.5,12.16-5.76,20-17.77,22.71
	C140.47,852.88,136.44,839.18,137.42,825.98z M83.84,822.53c0.9-11.11,6.24-18.76,15.97-23.57
	C104.7,810.03,95.72,818.03,83.84,822.53z M84.18,886.23c-7.16-6.54-9.53-14.38-6.28-23.67C85.65,864.07,87.09,874.16,84.18,886.23z
	 M108.25,839c-4.87,0.02-9.75-2.07-15.59-3.47c7-7.98,17.39-9.21,28.38-4.39C118.08,835.99,113.49,838.98,108.25,839z M114.33,866.8
	c-12.58,1.4-21.38-3.57-26.28-14.34C101.45,847.46,107.57,857.37,114.33,866.8z M116.54,784.78c0.96,3.05,1.3,6.3,2.17,10.61
	c-14.2-8.55-27.42-16.49-43.17-18.9c9.99-5.84,19.72-7.26,30.49-2.09C111.1,776.83,114.89,779.54,116.54,784.78z M75.24,724.48
	c0.4-0.08,0.8-0.16,1.2-0.22c2.71,7.6,5.4,15.18,8.48,23.89c1.58-0.9,3.69-1.54,4.95-2.95c4.01-4.49,7.62-9.33,11.53-13.92
	c1.3-1.52,3.07-2.65,4.73-4.05c-1.04,9.93-2.01,19.22-3.05,29.15c-10.27-1.64-20.2-1.16-30.51,4.33
	C73.51,748.15,74.37,736.31,75.24,724.48z M67.87,791.42c5.9,9.01,8.26,18.39,2.93,28.54C63.5,811.21,61.98,796.49,67.87,791.42z
	 M65.19,858.07c0.32,0.18,0.42,1.04,0.34,1.54c-1.48,8.5-5.72,15.02-13.74,18.71c-2.15-10.53,1.48-17.23,11.27-20.62
	C63.68,857.49,64.59,857.73,65.19,858.07z M30.24,848.38c9.17-4.31,17.47-13.48,28.06-3.47C49.96,851.65,44.06,855.2,30.24,848.38z
	 M58.67,829.33c-5.03,1.77-18.13-2.07-21.6-6.62c-1.99-2.59-3.19-5.76-4.99-9.11c6.76-1.66,12.18,0.78,17.69,2.43
	c5.6,1.66,7.64,6.58,9.99,11.13C59.97,827.6,59.23,829.13,58.67,829.33z M18.93,818.96c-4.35-10.29-6.64-19.42,2.01-28.16
	c7.88-7.96,16.61-10.15,27.64-5.62C36.18,794.12,25.99,804.88,18.93,818.96z M37.99,668.94c3.43,5.05,5.96,9.21,8.91,13.06
	c3.45,4.47,5.03,9.37,4.11,14.88c-1.02,6.1-2.37,12.14-3.53,18.05C34.72,701.49,34.7,685.89,37.99,668.94z M17.33,752.88
	c5.18,1.62,8.79,7.3,14.96,6.28c-1.16-11.41-2.29-22.33-3.41-33.26c0.38-0.04,0.76-0.1,1.12-0.14c8.63,14.24,17.25,28.5,25.82,42.69
	c-5.68-0.12-11.81-0.46-17.93-0.32c-4.89,0.12-9.79,0.84-14.68,1.2c-0.86,0.06-2.11-0.04-2.59-0.58
	c-4.69-5.48-9.27-11.05-13.88-16.59c-1.73-2.09-3.45-4.17-4.85-6.9C7.02,747.87,11.91,751.2,17.33,752.88z M-2.29,787.85
	c0.64,0.38,0.54,3.19-0.1,4.39c-4.55,8.53-4.57,17.27-1.66,27.34c-12.66-3.27-25.03-6.48-37.23-9.63
	c11.13-2.91,22.35-5.82,33.6-8.77c-7.74-9.57-14.84-18.37-21.94-27.16c0.4-0.34,0.78-0.68,1.18-1.02
	C-19.68,777.92-10.9,782.73-2.29,787.85z M-23.65,750.64c-12.48-0.76-27.12-13.92-29.93-26.96
	C-37.07,725.34-29.73,737.44-23.65,750.64z M-77.59,827.14c-7.06-1.26-13.46-6.26-20.16-9.61c16.25-7.88,29.65-1.71,42.73,7.7
	C-62.57,826-70.41,828.4-77.59,827.14z M-79.74,922.26c5.07-5.76,9.57-12.24,15.39-17.11c6.28-5.26,14.7-4.89,22.69-5.8
	C-43.63,909.32-62.69,921.14-79.74,922.26z M-36.93,876.45c-0.1-0.24-0.2-0.46-0.3-0.7c4.37-3.63,8.87-7.12,13.04-10.95
	c2.27-2.11,3.97-4.81,5.94-7.24c-2.61-1.12-5.14-2.63-7.86-3.31c-8.93-2.25-17.91-4.21-26.88-6.28c0-0.46,0-0.9,0-1.36
	c15.12-0.9,30.25-1.81,45.07-2.69c-1.71,4.77-3.73,8.91-4.55,13.26c-0.54,2.85,0.86,6.02,0.98,9.05c0.04,1.28-0.74,3.51-1.62,3.77
	C-21.01,872.33-28.97,874.34-36.93,876.45z M6.96,991.26c-2.01-7.5,2.05-28.5,12.68-32.25C21.82,972.21,21.04,984.38,6.96,991.26z
	 M2.64,936.16c-0.32-0.14-0.66-0.26-0.98-0.4c0.54-2.37,1.12-4.71,1.6-7.1c1.04-5.16,2.07-10.33,3.07-15.51
	c0.08-0.4-0.1-0.84-0.04-1.24c0.28-1.91,0.6-3.79,0.9-5.7c-2.75,0.44-5.6,0.52-8.18,1.38c-6.18,2.05-12.26,4.45-19.04,6.98
	c6.06-6.6,11.19-12.3,16.45-17.87c1.18-1.26,2.69-2.27,4.19-3.13c0.64-0.36,2.17-0.36,2.47,0.06c6.18,8.67,15.35,8.59,24.53,8.59
	c0.1,0,0.2,0.14,0.78,0.56C19.79,913.94,11.21,925.05,2.64,936.16z M11.55,875.7c-2.91-5.2-3.85-10.63-3.83-16.19
	c0.02-3.83,1.64-7.64,2.55-11.47c0.5,0.14,1,0.28,1.48,0.44c0.26,7.38,11.21,24.95,24.53,35.64
	C27.98,888.58,16.22,884.03,11.55,875.7z M74.92,935.04c-0.9,7.64-2.15,15.26-3.19,22.47c-1.71-5.2-3.65-10.57-5.2-16.05
	c-0.62-2.19-0.18-4.67-0.68-6.9c-0.42-1.89-1.5-5.14-2.27-5.11c-2.27,0.02-4.77,0.96-6.72,2.25c-4.51,2.99-8.75,6.4-13.16,9.57
	c-0.5,0.36-1.32,0.3-2.31,0.5c3.53-9.39,6.88-18.37,10.09-26.94c6.06,3.45,11.65,7.02,17.59,9.91
	C75.5,927.84,75.8,927.58,74.92,935.04z M68.18,904.15c12.7-0.72,25.21,0.14,37.15-5.6C100.67,913.72,84.62,919.61,68.18,904.15z
	 M108.19,1008.45c-5.2-5.44-9.87-11.01-11.81-18.57c-1.97-7.66,1.18-14.6,2.37-22.29C109.08,978.77,113.37,997.72,108.19,1008.45z
	 M122.98,922c-1.77-0.72-4.19-0.02-6.24,0.4c-0.28,0.06-0.2,2.35-0.1,3.59c0.72,9.07,1.48,18.15,1.42,27.72
	c-6.28-8.99-12.56-17.97-18.96-27.16c12.88-2.81,18.23-13.26,24.05-22.43c5.9,8.5,11.98,17.29,18.49,26.66
	C134.93,927.58,129.07,924.53,122.98,922z M163.58,886.52c0.18,0.46,0.5,0.88,0.56,1.34c0.66,5.3,1.28,10.59,2.01,16.71
	c-10.03-7.38-19.74-14.52-29.43-21.66c0.2-0.38,0.42-0.76,0.62-1.14c8.18-0.88,15.53-3.55,21.06-10.01c0.18-0.2,0.4-0.4,0.54-0.62
	c4.35-6.74,4.31-6.66,11.71-3.23c6.06,2.81,12.18,5.44,18.29,8.1c1.12,0.48,2.35,0.68,3.53,1c-0.28,0.5-0.58,1.02-0.86,1.52
	c-8.24,0.8-16.51,1.54-24.75,2.45c-1.64,0.18-3.21,1-4.81,1.52C162.57,883.85,163.07,885.17,163.58,886.52z M170.72,929.42
	c8.06,0.3,15.35,3.31,21.64,7.2c10.03,6.2,13.86,16.87,16.63,28.48C187.93,957.38,172.28,942.9,170.72,929.42z M202.81,850.61
	c17.39-4.89,33.24-2.09,47.28,10.69C232.8,864.07,216.35,864.19,202.81,850.61z"/>
<path class="st0" d="M2539.28,651.15c-6.96-9.19-17.18-13.58-27.66-17.38c-2.06-0.75-4.15-1.47-6.66-2.35
	c3.16-2.42,6.24-4.26,8.64-6.77c3.84-4.03,7.09-8.61,10.81-12.74c3.63-4,5.62-8.54,5.98-13.9c0.72-10.87-4.9-19-13.86-22.4
	c-6.78-2.59-13.89-4.49-21.34-3.7c-5.32,0.55-10.76,0.4-15.58,3.52c-1.52,0.98-3.6,1.12-6.06,1.83c0.89-2.34,1.37-4.15,2.22-5.77
	c3.53-6.77,5.51-13.98,4.04-21.49c-0.93-4.72-2.99-9.32-5.11-13.69c-3.35-6.89-8.68-11.93-15.98-14.66
	c-4.55-1.7-8.94-2.17-13.87-0.39c-10.51,3.79-19.13,9.41-23.68,20.09c-1.14,2.69-2.49,5.27-3.95,8.32c-1.59-3.06-2.94-5.62-4.25-8.2
	c-3.63-7.02-6.58-14.26-12.07-20.38c-6.59-7.34-14.4-9.19-23.34-7.97c-6.13,0.83-10.87,4.2-15.13,9.04
	c-6.99,7.95-12.24,22.73-10.7,33.37c0.12,0.83-0.24,1.74-0.3,2.12c-4.78-2.37-9.37-4.92-14.19-6.95c-8.33-3.53-17.04-4.8-25.97-2.74
	c-2.2,0.51-4.49,1.45-6.29,2.78c-5.93,4.38-9.3,10.63-11.57,17.44c-2.09,6.27-0.96,12.6,0.62,18.86c2.27,9.04,6.33,17.06,12.9,23
	c-4.4,0.43-9.14,0.91-13.87,1.34c-8.25,0.76-14.98,4.86-21.07,10c-4,3.36-5.93,8.2-7.31,13.24c-1.43,5.22-0.69,10.37,1.15,15.12
	c3.17,8.14,10.09,12.79,17.65,16.38c5.73,2.71,11.69,5,17.82,7.59c-1.58,1.22-3.21,2.2-4.47,3.52c-4.32,4.53-9.07,8.81-12.59,13.91
	c-3.27,4.72-6.01,10.01-7.01,15.94c-1.02,6.12-0.18,11.66,3.74,16.72c2.82,3.66,6.63,5.88,10.37,8.27
	c5.87,3.74,12.47,5.15,19.12,3.71c7.12-1.54,13.98-4.26,21.14-6.53c-0.03,0.24-0.06,0.96-0.24,1.65c-0.54,2.02-1.45,4-1.66,6.05
	c-0.43,4.26-0.6,8.57-0.69,12.88c-0.12,5.36-0.4,10.76,1.61,15.92c2.69,6.88,7.07,12.45,13.82,15.4c3.31,1.44,7.34,1.32,11.06,1.65
	c4.87,0.43,9.1-1.62,13.32-3.75c8.2-4.11,15.2-9.61,20.6-17.03c1.26-1.73,2.31-3.63,3.36-5.28c0.89,2.12,1.7,4.14,2.58,6.13
	c2.12,4.87,3.77,10.05,6.53,14.54c3.59,5.82,9.29,8.96,15.71,11.74c7.95,3.45,15.01,2.71,22.21-0.62
	c10.92-5.05,15.02-15.19,17.42-25.88c1.16-5.18,0.24-10.83,0.26-16.24c-0.21-0.07,0.15-0.01,0.44,0.17c0.4,0.25,0.82,0.53,1.12,0.89
	c4.58,5.48,10.76,8.49,17.36,10.36c6.04,1.7,12.31,2.77,18.62,0.86c2.89-0.87,6.11-1.05,8.69-2.45c4.56-2.46,7.16-6.73,9.23-11.52
	c5.4-12.42,3.52-23.99-3.45-35.07c-2.56-4.07-5.51-7.89-8.14-11.62c6.84,0.33,13.6,0.14,20.46-2.58c7.95-3.13,13.54-7.89,17.4-15.52
	c3.12-6.13,5.19-12.27,3.84-19.04C2542.42,657.46,2541.31,653.82,2539.28,651.15z M2510.01,594.65
	c-7.77,7.68-16.39,13.06-27.27,13.51C2488.31,597.03,2498.09,593.93,2510.01,594.65z M2476.89,622.78
	c-2.44,4.98-4.73,9.68-7.19,14.72c5.65,2.28,11.46,4.64,17.17,6.94c-6.38,1.26-12.64,2.51-19.2,3.81
	c-1.3-6.99-5.33-11.44-10.98-15.33C2463.56,629.47,2470.08,626.2,2476.89,622.78z M2440.35,556.86c0.3-2.56,2.66-5.05,4.51-7.21
	c2.78-3.25,5.95-6.19,8.94-9.26c0.28,0.17,0.55,0.32,0.84,0.48c-0.73,4.24-1.32,8.5-2.26,12.7c-0.64,2.89-1.27,5.97-2.8,8.42
	c-1.74,2.82-4.46,5.04-6.77,7.52c-0.48,0.51-1.01,0.98-1.95,1.88C2440.62,566.26,2439.8,561.47,2440.35,556.86z M2451.13,584.73
	c0.19,0.1,0.37,0.19,0.57,0.29c-1.47,6.73-2.92,13.44-4.5,20.73c6.06-0.75,12.32-1.51,18.91-2.33
	c-7.35,5.72-14.21,11.05-20.81,16.18c-0.15-6.52-3.88-12-8.75-17.87C2441.16,596.36,2446.14,590.55,2451.13,584.73z M2446.42,643.89
	c6.09,0.65,9.22,6.71,9.01,11.7c-0.35,8.39-3.97,13.8-12.27,15.67C2448.54,662.46,2445.75,653,2446.42,643.89z M2409.45,641.51
	c0.62-7.67,4.31-12.95,11.02-16.27C2423.85,632.89,2417.63,638.41,2409.45,641.51z M2409.67,685.48c-4.94-4.51-6.58-9.93-4.33-16.34
	C2410.68,670.19,2411.69,677.15,2409.67,685.48z M2426.29,652.89c-3.36,0.01-6.73-1.43-10.76-2.4c4.83-5.51,12-6.35,19.59-3.03
	C2433.07,650.8,2429.9,652.86,2426.29,652.89z M2430.48,672.07c-8.68,0.97-14.76-2.46-18.14-9.9
	C2421.59,658.72,2425.83,665.56,2430.48,672.07z M2432.02,615.46c0.66,2.1,0.9,4.35,1.5,7.32c-9.8-5.9-18.93-11.38-29.79-13.04
	c6.89-4.03,13.61-5.01,21.04-1.44C2428.25,609.99,2430.88,611.84,2432.02,615.46z M2403.5,573.85c0.28-0.06,0.55-0.11,0.83-0.15
	c1.87,5.25,3.72,10.48,5.86,16.49c1.09-0.62,2.55-1.07,3.42-2.04c2.77-3.1,5.26-6.44,7.96-9.61c0.9-1.05,2.12-1.83,3.27-2.8
	c-0.72,6.85-1.38,13.26-2.1,20.12c-7.09-1.14-13.94-0.8-21.06,2.99C2402.31,590.17,2402.9,582.01,2403.5,573.85z M2398.42,620.04
	c4.07,6.22,5.7,12.7,2.02,19.7C2395.4,633.7,2394.35,623.54,2398.42,620.04z M2396.56,666.05c0.22,0.12,0.29,0.72,0.24,1.07
	c-1.02,5.87-3.95,10.37-9.48,12.92c-1.48-7.27,1.02-11.89,7.78-14.23C2395.52,665.64,2396.15,665.81,2396.56,666.05z
	 M2372.46,659.36c6.33-2.98,12.06-9.3,19.37-2.4C2386.07,661.62,2381.98,664.07,2372.46,659.36z M2392.06,646.21
	c-3.48,1.22-12.52-1.43-14.91-4.57c-1.37-1.79-2.2-3.97-3.45-6.29c4.67-1.15,8.4,0.54,12.21,1.68c3.86,1.15,5.27,4.54,6.89,7.68
	C2392.96,645.01,2392.46,646.07,2392.06,646.21z M2364.65,639.05c-3-7.1-4.58-13.4,1.38-19.44c5.44-5.5,11.46-7.01,19.08-3.88
	C2376.54,621.91,2369.51,629.33,2364.65,639.05z M2377.8,535.5c2.37,3.49,4.11,6.35,6.15,9.01c2.38,3.09,3.48,6.47,2.84,10.27
	c-0.71,4.21-1.63,8.38-2.44,12.46C2375.55,557.97,2375.52,547.2,2377.8,535.5z M2363.53,593.44c3.57,1.12,6.06,5.04,10.33,4.33
	c-0.8-7.88-1.58-15.41-2.35-22.96c0.26-0.03,0.53-0.07,0.78-0.1c5.95,9.83,11.91,19.67,17.82,29.46c-3.92-0.08-8.15-0.32-12.38-0.22
	c-3.38,0.08-6.76,0.58-10.13,0.83c-0.6,0.04-1.45-0.03-1.79-0.4c-3.24-3.78-6.4-7.63-9.58-11.45c-1.19-1.44-2.38-2.88-3.35-4.76
	C2356.41,589.98,2359.8,592.28,2363.53,593.44z M2350,617.57c0.44,0.26,0.37,2.2-0.07,3.03c-3.14,5.88-3.16,11.92-1.15,18.87
	c-8.74-2.26-17.28-4.47-25.7-6.65c7.68-2.01,15.42-4.02,23.19-6.05c-5.34-6.6-10.25-12.68-15.15-18.75
	c0.28-0.24,0.54-0.47,0.82-0.71C2337.98,610.72,2344.05,614.04,2350,617.57z M2335.26,591.89c-8.61-0.53-18.72-9.61-20.66-18.61
	C2325.98,574.43,2331.05,582.78,2335.26,591.89z M2298.03,644.7c-4.87-0.87-9.29-4.32-13.91-6.63c11.21-5.44,20.46-1.18,29.49,5.32
	C2308.38,643.92,2302.97,645.58,2298.03,644.7z M2296.53,710.35c3.5-3.97,6.6-8.45,10.62-11.81c4.33-3.63,10.15-3.38,15.66-4
	C2321.45,701.42,2308.3,709.57,2296.53,710.35z M2326.09,678.73c-0.07-0.17-0.14-0.32-0.21-0.48c3.02-2.51,6.12-4.92,9-7.56
	c1.56-1.45,2.74-3.32,4.1-5c-1.8-0.78-3.54-1.81-5.43-2.28c-6.16-1.55-12.36-2.91-18.55-4.33c0-0.32,0-0.62,0-0.94
	c10.44-0.62,20.88-1.25,31.11-1.86c-1.18,3.3-2.58,6.15-3.14,9.15c-0.37,1.97,0.61,4.15,0.68,6.24c0.03,0.89-0.51,2.42-1.12,2.6
	C2337.08,675.89,2331.57,677.27,2326.09,678.73z M2356.38,757.98c-1.38-5.18,1.41-19.67,8.75-22.26
	C2366.63,744.82,2366.09,753.23,2356.38,757.98z M2353.39,719.94c-0.22-0.1-0.46-0.18-0.68-0.28c0.37-1.63,0.78-3.25,1.11-4.9
	c0.72-3.56,1.43-7.13,2.12-10.7c0.06-0.28-0.07-0.58-0.03-0.86c0.19-1.32,0.42-2.62,0.62-3.93c-1.9,0.3-3.86,0.36-5.65,0.96
	c-4.26,1.41-8.46,3.07-13.14,4.82c4.18-4.56,7.73-8.49,11.35-12.34c0.82-0.87,1.86-1.56,2.89-2.16c0.44-0.25,1.5-0.25,1.7,0.04
	c4.26,5.98,10.59,5.93,16.93,5.93c0.07,0,0.14,0.1,0.54,0.39C2365.23,704.6,2359.32,712.27,2353.39,719.94z M2359.55,678.22
	c-2.01-3.59-2.66-7.34-2.64-11.17c0.01-2.64,1.14-5.28,1.76-7.92c0.35,0.1,0.69,0.19,1.02,0.3c0.18,5.1,7.74,17.22,16.93,24.6
	C2370.88,687.1,2362.77,683.96,2359.55,678.22z M2403.29,719.17c-0.62,5.27-1.48,10.54-2.2,15.51c-1.18-3.59-2.52-7.3-3.59-11.08
	c-0.43-1.51-0.12-3.23-0.47-4.76c-0.29-1.3-1.04-3.54-1.56-3.53c-1.56,0.01-3.3,0.66-4.64,1.55c-3.11,2.06-6.04,4.42-9.08,6.6
	c-0.35,0.25-0.91,0.21-1.59,0.35c2.44-6.48,4.75-12.68,6.96-18.59c4.18,2.38,8.04,4.85,12.14,6.84
	C2403.68,714.2,2403.89,714.02,2403.29,719.17z M2398.64,697.85c8.76-0.5,17.4,0.1,25.64-3.86
	C2421.05,704.45,2409.99,708.52,2398.64,697.85z M2426.26,769.84c-3.59-3.75-6.81-7.6-8.15-12.82c-1.36-5.29,0.82-10.08,1.63-15.38
	C2426.86,749.35,2429.83,762.44,2426.26,769.84z M2436.46,710.17c-1.22-0.5-2.89-0.01-4.31,0.28c-0.19,0.04-0.14,1.62-0.07,2.48
	c0.5,6.26,1.02,12.53,0.98,19.13c-4.33-6.2-8.67-12.41-13.08-18.75c8.89-1.94,12.59-9.15,16.6-15.48
	c4.07,5.87,8.27,11.93,12.77,18.4C2444.72,714.02,2440.66,711.91,2436.46,710.17z M2464.47,685.68c0.12,0.32,0.35,0.61,0.39,0.93
	c0.46,3.66,0.89,7.31,1.38,11.53c-6.92-5.1-13.62-10.02-20.31-14.95c0.14-0.26,0.29-0.53,0.43-0.79c5.65-0.61,10.72-2.45,14.54-6.91
	c0.12-0.14,0.28-0.28,0.37-0.43c3-4.65,2.98-4.6,8.09-2.23c4.18,1.94,8.4,3.75,12.63,5.59c0.78,0.33,1.62,0.47,2.44,0.69
	c-0.19,0.35-0.4,0.71-0.6,1.05c-5.69,0.55-11.39,1.07-17.08,1.69c-1.14,0.12-2.22,0.69-3.32,1.05
	C2463.79,683.84,2464.13,684.75,2464.47,685.68z M2469.4,715.31c5.57,0.21,10.59,2.28,14.94,4.97c6.92,4.28,9.57,11.64,11.48,19.66
	C2481.29,734.59,2470.48,724.6,2469.4,715.31z M2491.57,660.9c12-3.38,22.94-1.44,32.63,7.38
	C2512.25,670.19,2500.9,670.28,2491.57,660.9z"/>
<path class="st0" d="M2478.45,293.73c-0.9-4.47-2.37-9.3-5.07-12.86c-9.24-12.21-22.82-18.02-36.72-23.07
	c-2.75-0.99-5.51-1.95-8.85-3.12c4.19-3.23,8.3-5.66,11.48-8.99c5.1-5.34,9.41-11.43,14.36-16.91c4.8-5.31,7.47-11.33,7.94-18.45
	c0.95-14.43-6.51-25.22-18.39-29.73c-9.02-3.44-18.44-5.96-28.32-4.92c-7.05,0.74-14.28,0.53-20.67,4.67
	c-2.03,1.31-4.77,1.49-8.06,2.43c1.17-3.11,1.82-5.51,2.94-7.67c4.68-9,7.32-18.56,5.37-28.53c-1.23-6.27-3.98-12.36-6.78-18.17
	c-4.46-9.17-11.54-15.86-21.21-19.47c-6.05-2.27-11.88-2.88-18.42-0.53c-13.95,5.04-25.4,12.5-31.43,26.66
	c-1.52,3.56-3.32,6.99-5.24,11.04c-2.12-4.05-3.89-7.47-5.66-10.88c-4.82-9.32-8.73-18.93-16.02-27.06
	c-8.75-9.75-19.11-12.21-30.98-10.59c-8.13,1.11-14.43,5.57-20.09,12c-9.27,10.55-16.25,30.18-14.21,44.3
	c0.17,1.11-0.31,2.31-0.41,2.81c-6.35-3.14-12.45-6.53-18.84-9.23c-11.07-4.68-22.62-6.38-34.47-3.65
	c-2.93,0.68-5.96,1.94-8.36,3.71c-7.88,5.81-12.36,14.12-15.36,23.15c-2.78,8.33-1.26,16.74,0.83,25.04
	c3.02,12,8.4,22.65,17.13,30.53c-5.85,0.57-12.14,1.2-18.42,1.79c-10.95,1.01-19.89,6.45-27.98,13.26
	c-5.31,4.47-7.88,10.88-9.71,17.57c-1.89,6.93-0.92,13.77,1.53,20.07c4.22,10.8,13.41,16.98,23.45,21.74
	c7.61,3.62,15.51,6.63,23.66,10.07c-2.1,1.62-4.26,2.91-5.94,4.68c-5.73,6.02-12.03,11.69-16.71,18.47
	c-4.34,6.27-7.97,13.29-9.3,21.15c-1.37,8.13-0.23,15.48,4.97,22.2c3.75,4.85,8.79,7.82,13.76,10.98c7.8,4.97,16.58,6.83,25.38,4.94
	c9.45-2.04,18.56-5.67,28.07-8.69c-0.05,0.32-0.08,1.28-0.32,2.19c-0.72,2.69-1.94,5.31-2.21,8.04c-0.57,5.67-0.8,11.39-0.93,17.09
	c-0.17,7.13-0.54,14.28,2.13,21.14c3.56,9.14,9.39,16.53,18.35,20.43c4.38,1.92,9.74,1.74,14.69,2.19
	c6.47,0.59,12.08-2.16,17.69-4.98c10.88-5.46,20.18-12.75,27.36-22.61c1.68-2.31,3.08-4.82,4.47-7.01c1.17,2.81,2.27,5.49,3.41,8.15
	c2.82,6.48,5,13.35,8.67,19.31c4.77,7.73,12.33,11.9,20.87,15.6c10.55,4.58,19.92,3.6,29.48-0.83
	c14.49-6.71,19.94-20.18,23.13-34.35c1.55-6.87,0.31-14.37,0.34-21.56c-0.28-0.09,0.2-0.02,0.58,0.23c0.54,0.33,1.1,0.69,1.49,1.17
	c6.08,7.28,14.28,11.28,23.04,13.76c8.01,2.27,16.34,3.68,24.72,1.14c3.84-1.16,8.12-1.4,11.54-3.26c6.05-3.27,9.5-8.94,12.26-15.29
	c7.16-16.49,4.68-31.85-4.59-46.55c-3.41-5.4-7.32-10.47-10.8-15.42c9.09,0.45,18.05,0.18,27.15-3.42
	c10.55-4.16,17.97-10.49,23.12-20.61C2477.49,310.84,2480.25,302.7,2478.45,293.73z M2434.52,205.85
	c-10.32,10.2-21.77,17.33-36.21,17.94C2405.72,209.03,2418.7,204.91,2434.52,205.85z M2390.55,243.22
	c-3.24,6.62-6.29,12.84-9.54,19.53c7.5,3.03,15.21,6.15,22.79,9.21c-8.48,1.68-16.79,3.33-25.5,5.06
	c-1.73-9.27-7.08-15.18-14.57-20.36C2372.85,252.09,2381.51,247.75,2390.55,243.22z M2342.04,155.7c0.41-3.41,3.54-6.71,6-9.59
	c3.71-4.32,7.89-8.22,11.88-12.3c0.38,0.21,0.74,0.44,1.11,0.65c-0.98,5.63-1.76,11.3-2.99,16.86c-0.85,3.83-1.7,7.92-3.71,11.18
	c-2.33,3.75-5.93,6.69-8.99,9.98c-0.63,0.68-1.35,1.29-2.6,2.49C2342.4,168.18,2341.32,161.84,2342.04,155.7z M2356.35,192.7
	c0.26,0.14,0.5,0.26,0.75,0.39c-1.94,8.93-3.89,17.85-5.99,27.51c8.06-0.99,16.37-2.01,25.11-3.08
	c-9.75,7.59-18.87,14.67-27.63,21.48c-0.2-8.66-5.15-15.95-11.61-23.72C2343.1,208.13,2349.72,200.42,2356.35,192.7z
	 M2350.11,271.25c8.1,0.87,12.24,8.91,11.97,15.54c-0.47,11.15-5.28,18.33-16.28,20.81C2352.9,295.89,2349.21,283.34,2350.11,271.25
	z M2301.02,268.08c0.84-10.19,5.72-17.19,14.64-21.6C2320.13,256.63,2311.88,263.97,2301.02,268.08z M2301.32,326.47
	c-6.56-5.99-8.73-13.19-5.76-21.69C2302.66,306.14,2303.99,315.4,2301.32,326.47z M2323.38,283.19c-4.47,0.02-8.94-1.91-14.27-3.18
	c6.42-7.32,15.95-8.43,26.01-4.02C2332.38,280.43,2328.18,283.16,2323.38,283.19z M2328.94,308.64
	c-11.54,1.29-19.59-3.27-24.08-13.14C2317.15,290.93,2322.76,300,2328.94,308.64z M2330.98,233.49c0.89,2.81,1.2,5.78,2,9.72
	c-13.02-7.83-25.13-15.11-39.56-17.33c9.15-5.36,18.08-6.65,27.93-1.91C2325.99,226.22,2329.47,228.69,2330.98,233.49z
	 M2293.12,178.25c0.36-0.08,0.74-0.14,1.09-0.21c2.48,6.96,4.95,13.92,7.77,21.9c1.46-0.83,3.39-1.41,4.53-2.7
	c3.68-4.13,6.98-8.55,10.58-12.75c1.2-1.4,2.82-2.43,4.34-3.72c-0.96,9.11-1.85,17.61-2.79,26.7c-9.42-1.52-18.51-1.07-27.95,3.98
	C2291.54,199.93,2292.32,189.08,2293.12,178.25z M2286.37,239.58c5.42,8.25,7.56,16.86,2.69,26.15
	C2282.36,257.73,2280.96,244.23,2286.37,239.58z M2283.92,300.65c0.29,0.17,0.39,0.95,0.32,1.41c-1.35,7.8-5.24,13.76-12.59,17.15
	c-1.97-9.66,1.37-15.78,10.34-18.9C2282.54,300.12,2283.36,300.35,2283.92,300.65z M2251.91,291.77c8.4-3.96,16.01-12.35,25.71-3.18
	C2269.97,294.77,2264.55,298.04,2251.91,291.77z M2277.93,274.32c-4.61,1.62-16.61-1.89-19.8-6.06c-1.82-2.37-2.93-5.28-4.58-8.36
	c6.2-1.53,11.16,0.71,16.22,2.22c5.13,1.53,6.99,6.03,9.15,10.2C2279.13,272.73,2278.46,274.13,2277.93,274.32z M2241.52,264.81
	c-3.99-9.44-6.09-17.79,1.85-25.8c7.22-7.31,15.23-9.3,25.32-5.15C2257.34,242.05,2247.99,251.91,2241.52,264.81z M2259,127.35
	c3.14,4.64,5.46,8.45,8.16,11.96c3.17,4.1,4.62,8.58,3.78,13.64c-0.93,5.6-2.16,11.13-3.23,16.55
	C2256,157.17,2255.97,142.87,2259,127.35z M2240.05,204.26c4.74,1.49,8.04,6.68,13.71,5.75c-1.06-10.46-2.1-20.46-3.12-30.47
	c0.34-0.04,0.69-0.09,1.04-0.14c7.91,13.05,15.8,26.12,23.66,39.11c-5.21-0.11-10.82-0.42-16.43-0.29
	c-4.49,0.11-8.97,0.77-13.46,1.1c-0.8,0.06-1.94-0.03-2.36-0.53c-4.31-5.01-8.51-10.13-12.72-15.21c-1.59-1.91-3.17-3.83-4.46-6.32
	C2230.62,199.67,2235.1,202.72,2240.05,204.26z M2222.08,236.31c0.59,0.35,0.5,2.93-0.1,4.04c-4.17,7.82-4.19,15.81-1.53,25.05
	c-11.6-3-22.94-5.93-34.11-8.82c10.2-2.66,20.48-5.34,30.78-8.03c-7.08-8.78-13.59-16.83-20.1-24.89c0.36-0.32,0.72-0.63,1.08-0.95
	C2206.14,227.2,2214.19,231.61,2222.08,236.31z M2202.51,202.21c-11.43-0.69-24.84-12.75-27.42-24.71
	C2190.2,179.03,2196.92,190.12,2202.51,202.21z M2153.09,272.31c-6.48-1.16-12.35-5.73-18.47-8.81c14.9-7.23,27.17-1.56,39.14,7.05
	C2166.85,271.28,2159.66,273.48,2153.09,272.31z M2151.11,359.47c4.65-5.28,8.76-11.21,14.1-15.68c5.75-4.82,13.47-4.49,20.79-5.31
	C2184.2,347.6,2166.74,358.44,2151.11,359.47z M2190.35,317.5c-0.09-0.21-0.19-0.44-0.28-0.65c4.01-3.33,8.13-6.51,11.94-10.04
	c2.09-1.92,3.65-4.41,5.45-6.65c-2.4-1.04-4.71-2.4-7.22-3.03c-8.18-2.07-16.41-3.86-24.63-5.76c0-0.42,0-0.84,0-1.26
	c13.86-0.83,27.71-1.65,41.3-2.46c-1.56,4.38-3.42,8.16-4.17,12.15c-0.5,2.61,0.79,5.51,0.9,8.3c0.05,1.19-0.69,3.23-1.49,3.47
	C2204.94,313.72,2197.63,315.56,2190.35,317.5z M2230.56,422.7c-1.83-6.87,1.89-26.12,11.61-29.55
	C2244.18,405.24,2243.46,416.39,2230.56,422.7z M2226.6,372.21c-0.3-0.12-0.6-0.24-0.9-0.36c0.5-2.16,1.02-4.32,1.47-6.5
	c0.96-4.73,1.89-9.47,2.81-14.21c0.08-0.36-0.1-0.77-0.04-1.14c0.26-1.74,0.54-3.48,0.83-5.22c-2.51,0.41-5.13,0.48-7.5,1.28
	c-5.67,1.88-11.22,4.08-17.45,6.39c5.55-6.05,10.26-11.27,15.06-16.38c1.08-1.16,2.46-2.09,3.84-2.87c0.59-0.33,1.98-0.33,2.25,0.06
	c5.67,7.94,14.07,7.88,22.47,7.86c0.09,0,0.18,0.12,0.72,0.51C2242.3,351.84,2234.46,362.02,2226.6,372.21z M2234.77,316.81
	c-2.67-4.76-3.54-9.75-3.51-14.84c0.01-3.51,1.5-7.01,2.34-10.52c0.45,0.14,0.92,0.27,1.37,0.39c0.24,6.77,10.29,22.86,22.47,32.66
	C2249.81,328.61,2239.05,324.44,2234.77,316.81z M2292.83,371.19c-0.83,7.01-1.97,13.98-2.91,20.58c-1.58-4.77-3.35-9.68-4.77-14.7
	c-0.57-2.01-0.17-4.28-0.63-6.33c-0.38-1.73-1.38-4.7-2.09-4.7c-2.07,0.02-4.37,0.89-6.15,2.07c-4.14,2.73-8.03,5.87-12.05,8.78
	c-0.47,0.33-1.22,0.27-2.12,0.45c3.23-8.61,6.32-16.83,9.26-24.68c5.55,3.17,10.68,6.44,16.11,9.08
	C2293.37,364.59,2293.64,364.33,2292.83,371.19z M2286.67,342.86c11.63-0.66,23.1,0.12,34.04-5.13
	C2316.43,351.64,2301.73,357.04,2286.67,342.86z M2323.33,438.44c-4.76-4.98-9.05-10.08-10.82-17.01
	c-1.8-7.02,1.08-13.38,2.18-20.43C2324.14,411.26,2328.07,428.61,2323.33,438.44z M2336.88,359.25c-1.6-0.66-3.84-0.03-5.7,0.38
	c-0.26,0.06-0.2,2.15-0.1,3.29c0.66,8.31,1.37,16.62,1.31,25.4c-5.75-8.24-11.49-16.47-17.37-24.87
	c11.79-2.58,16.7-12.15,22.04-20.55c5.4,7.79,10.98,15.84,16.94,24.42C2347.83,364.35,2342.46,361.54,2336.88,359.25z
	 M2374.08,326.71c0.16,0.42,0.47,0.81,0.52,1.25c0.6,4.85,1.17,9.71,1.85,15.32c-9.2-6.77-18.08-13.31-26.96-19.85
	c0.2-0.35,0.38-0.71,0.57-1.05c7.5-0.81,14.22-3.26,19.31-9.17c0.17-0.2,0.36-0.36,0.49-0.57c3.99-6.17,3.96-6.11,10.74-2.97
	c5.55,2.57,11.16,5,16.77,7.43c1.02,0.44,2.16,0.62,3.24,0.93c-0.27,0.47-0.53,0.93-0.8,1.4c-7.56,0.74-15.14,1.41-22.68,2.25
	c-1.5,0.17-2.94,0.92-4.41,1.4C2373.15,324.26,2373.62,325.49,2374.08,326.71z M2380.61,366.04c7.38,0.27,14.07,3.05,19.82,6.6
	c9.2,5.67,12.71,15.45,15.24,26.1C2396.39,391.67,2382.05,378.39,2380.61,366.04z M2410.03,293.82c15.93-4.49,30.47-1.92,43.33,9.8
	C2437.49,306.14,2422.43,306.27,2410.03,293.82z"/>
<path class="st0" d="M257.16,1168.08c2.41-4.31,5.93-8.01,8.21-12.37c2.56-4.87,5.01-10,6.18-15.31c1.29-5.79,1.63-11.93,1.37-17.87
	c-0.32-7.05-1.37-14.14-2.79-21.07c-1.04-5.03-2.92-9.94-4.89-14.72c-2.68-6.52-5.81-12.85-8.73-19.28
	c-1.23-2.7-2.37-5.42-3.63-8.09c-0.63-1.33-1.74-1.23-2.73-0.45c-1.39,1.08-2.68,2.3-4.04,3.44c-4.27,3.62-8.57,7.21-12.81,10.85
	c-6.72,5.79-11.97,12.68-15.44,20.89c-0.32,0.76-0.82,1.43-0.98,1.72c-3.67-3.45-7.13-6.87-10.81-10.06
	c-3.06-2.65-6.15-5.37-9.61-7.43c-4.27-2.55-8.88-4.54-13.41-6.62c-10.93-5.03-22.43-7.12-34.45-6.62c-2.14,0.09-4.3,0.07-6.44-0.05
	c-1.43-0.08-2,0.44-2.39,1.82c-1.27,4.53-1.27,9.15-1.18,13.78c0.11,6.48-0.02,13.01,0.59,19.45c0.58,6.05,1.83,12.07,3.11,18.03
	c0.88,4.11,1.88,8.28,3.56,12.09c2.47,5.6,5.61,10.91,8.49,16.38c-0.9,0.11-2.37,0.26-3.83,0.48c-8.75,1.3-16.92,3.99-24.04,9.51
	c-2.82,2.18-6.12,3.75-9.1,5.74c-2.31,1.54-4.44,3.34-6.7,4.95c-0.81,0.57-1.98,0.72-2.64,1.4c-0.58,0.6-1.15,1.88-0.88,2.49
	c0.71,1.62,1.65,3.23,2.89,4.47c3.57,3.58,7.14,7.22,11.08,10.4c4.28,3.44,8.83,6.56,13.49,9.46c4.16,2.58,8.57,4.72,13.25,6.4
	c5.7,2.05,11.49,2.97,17.43,3.65c3.99,0.46,7.92,1.52,11.9,2.13c4.62,0.71,9.25,0.67,13.79-0.67c7.97-2.35,16.02-4.53,23.9-7.14
	c6.96-2.32,13.61-5.35,19.38-10.09c2.39-1.97,5.65-2.93,7.82-5.07C247.38,1179.43,253.39,1174.82,257.16,1168.08z M200.66,1119.11
	c-2.15-1.73-6.97-15.15-8.93-25.1C198.99,1101.06,202.35,1109.24,200.66,1119.11z M157.03,1120.78c3.32,2.96,6.6,5.81,9.81,8.74
	c3.24,2.96,6.43,5.98,9.93,9.26C163.29,1136.24,156.55,1128.11,157.03,1120.78z M194.04,1184.85c-5.74,1.4-11.44,3.55-17.27,3.98
	c-5.72,0.43-11.71-0.33-17.36-1.54c-8.9-1.91-14.05-4.62-15.48-7c16.62,3.31,33.23,5.26,50.13,3.4
	C194.05,1184.09,194.05,1184.47,194.04,1184.85z M172.67,1149.89c8.78,4.56,17.89,9.29,26.8,13.92
	C182.96,1166.08,177.55,1158.96,172.67,1149.89z M222.47,1169.8c-3.83-3.46-7.96-6.64-11.42-10.43
	c-4.95-5.42-9.62-11.11-14.05-16.96c-5.53-7.3-10.69-14.88-15.98-22.37c-3.04-4.3-6.02-8.65-9-12.98c-1.7-2.47-3.32-4.98-4.98-7.47
	c0.11-0.1,0.22-0.22,0.33-0.32c0.41,0.25,0.91,0.42,1.22,0.76c4.2,4.49,8.44,8.93,12.51,13.53c4.22,4.78,8.29,9.69,12.38,14.58
	c2.02,2.43,3.92,4.97,5.9,7.45c3.9,4.88,7.88,9.7,11.71,14.65c3.07,3.97,6.1,7.97,8.86,12.16c1.4,2.12,2.18,4.63,3.24,6.97
	C222.93,1169.51,222.69,1169.65,222.47,1169.8z M225,1142.23c-0.47,1.69-1.18,3.32-1.79,4.98c-0.15-0.06-0.31-0.11-0.46-0.16
	c-2.16-10.9-4.31-21.8-6.47-32.69c0.15-0.11,0.31-0.23,0.46-0.34c1.83,2.98,3.83,5.88,5.43,8.99c0.84,1.65,0.81,3.71,1.43,5.49
	C225.17,1132.97,226.32,1137.48,225,1142.23z M243.41,1146.28c-0.06-0.25-0.19-0.5-0.13-0.66c1.42-3.33,3.34-6.55,4.21-10.02
	c1.49-6,2.4-12.14,3.42-18.24c0.67-3.98,1.1-8.01,1.65-12.01c0.19,0.01,0.38,0.02,0.57,0.03c0.8,4.39,1.82,8.76,2.3,13.18
	c0.32,3.01,0.32,6.22-0.33,9.16C253.43,1135.17,249.61,1140.46,243.41,1146.28z"/>
<path class="st0" d="M2195.54,526.32c-3.01-3.92-5.02-8.61-8.12-12.43c-3.46-4.27-7.21-8.55-11.63-11.72
	c-4.81-3.47-10.32-6.2-15.88-8.31c-6.61-2.49-13.53-4.33-20.46-5.75c-5.03-1.03-10.29-1.24-15.46-1.31
	c-7.05-0.11-14.11,0.27-21.16,0.41c-2.96,0.07-5.91,0.04-8.86,0.14c-1.47,0.05-1.82,1.11-1.5,2.33c0.45,1.7,1.05,3.37,1.56,5.07
	c1.64,5.35,3.25,10.72,4.92,16.05c2.67,8.46,6.93,16,13.1,22.43c0.57,0.59,0.99,1.32,1.19,1.58c-4.62,2.02-9.13,3.84-13.5,5.96
	c-3.64,1.77-7.36,3.54-10.62,5.9c-4.02,2.91-7.68,6.37-11.38,9.71c-8.93,8.06-15.4,17.8-19.68,29.04c-0.76,2-1.63,3.98-2.58,5.9
	c-0.64,1.29-0.38,2.01,0.73,2.91c3.66,2.96,7.9,4.78,12.19,6.52c6,2.45,11.95,5.16,18.11,7.13c5.79,1.85,11.81,3.08,17.79,4.26
	c4.12,0.82,8.35,1.54,12.52,1.5c6.12-0.06,12.24-0.85,18.4-1.33c-0.25,0.87-0.69,2.28-1.07,3.71c-2.26,8.55-3.01,17.12-0.75,25.84
	c0.89,3.45,1.03,7.11,1.69,10.63c0.5,2.73,1.32,5.4,1.9,8.11c0.2,0.97-0.12,2.1,0.24,2.98c0.32,0.77,1.27,1.8,1.94,1.79
	c1.76-0.01,3.62-0.24,5.25-0.89c4.7-1.87,9.46-3.71,13.93-6.08c4.84-2.57,9.51-5.52,14.02-8.66c4.02-2.81,7.72-6.01,11.11-9.65
	c4.13-4.43,7.26-9.39,10.23-14.57c1.99-3.49,4.52-6.67,6.65-10.09c2.47-3.97,4.27-8.23,4.82-12.93c0.98-8.26,2.16-16.5,2.87-24.78
	c0.61-7.31,0.46-14.61-1.62-21.79c-0.87-2.97-0.47-6.35-1.58-9.18C2202.1,539.79,2200.24,532.45,2195.54,526.32z M2128.24,558.92
	c-2.44,1.29-16.68,0.43-26.58-1.7C2110.99,553.33,2119.84,553.46,2128.24,558.92z M2112.56,599.66c4.03-1.89,7.94-3.77,11.9-5.56
	c4-1.81,8.03-3.54,12.43-5.47C2129.24,600.01,2119.11,602.99,2112.56,599.66z M2186.04,590.94c-0.98,5.83-1.25,11.92-3.16,17.44
	c-1.86,5.43-4.92,10.63-8.26,15.35c-5.27,7.42-9.79,11.09-12.54,11.47c9.6-13.97,17.94-28.46,22.91-44.72
	C2185.34,590.63,2185.69,590.78,2186.04,590.94z M2145.49,596.78c7.66-6.27,15.6-12.78,23.37-19.13
	C2164.42,593.72,2155.74,595.87,2145.49,596.78z M2183.43,558.88c-4.69,2.16-9.25,4.7-14.09,6.38c-6.93,2.41-14.01,4.46-21.13,6.22
	c-8.89,2.2-17.89,3.95-26.86,5.86c-5.15,1.09-10.32,2.12-15.48,3.15c-2.94,0.58-5.89,1.09-8.83,1.63c-0.05-0.14-0.11-0.28-0.16-0.43
	c0.39-0.28,0.75-0.67,1.18-0.82c5.79-2.08,11.54-4.23,17.37-6.16c6.06-1.99,12.18-3.8,18.28-5.62c3.04-0.9,6.12-1.64,9.18-2.48
	c6.02-1.66,12.03-3.41,18.08-4.97c4.86-1.26,9.73-2.46,14.67-3.34c2.5-0.45,5.12-0.18,7.69-0.23
	C2183.34,558.33,2183.38,558.61,2183.43,558.88z M2159.09,545.67c1.37,1.1,2.59,2.4,3.87,3.61c-0.11,0.11-0.23,0.24-0.33,0.36
	c-10.87-2.31-21.73-4.64-32.6-6.95c-0.05-0.18-0.09-0.37-0.13-0.55c3.46-0.51,6.92-1.2,10.4-1.44c1.85-0.12,3.73,0.72,5.61,0.85
	C2150.65,541.86,2155.25,542.58,2159.09,545.67z M2170.07,530.35c-0.25-0.05-0.54-0.02-0.66-0.15c-2.5-2.62-4.7-5.66-7.55-7.82
	c-4.92-3.74-10.21-7-15.4-10.34c-3.39-2.19-6.92-4.17-10.39-6.26c0.09-0.17,0.17-0.34,0.26-0.51c4.35,1,8.77,1.78,13.02,3.09
	c2.9,0.9,5.84,2.16,8.28,3.92C2163.83,516.76,2167.18,522.36,2170.07,530.35z"/>
<path class="st0" d="M453.35,892.79c-3.89-2.72-8-5.17-12.19-7.4c-3.74-2-7.66-3.59-11.81-4.77c-5.04-1.44-10.1-1.9-15.26-2.16
	c-3.48-0.17-6.93-0.86-10.41-1.16c-4.03-0.35-8.02-0.04-11.87,1.37c-6.75,2.48-13.58,4.82-20.23,7.53
	c-5.87,2.39-11.44,5.4-16.16,9.82c-1.95,1.83-4.71,2.86-6.46,4.84c-4.29,4.83-9.21,9.16-12.09,15.2c-1.83,3.86-4.66,7.26-6.39,11.15
	c-1.93,4.34-3.74,8.93-4.46,13.58c-0.78,5.07-0.73,10.39-0.16,15.51c0.69,6.08,2,12.14,3.61,18.04c1.18,4.29,3.09,8.42,5.07,12.43
	c2.69,5.47,5.75,10.77,8.64,16.15c1.22,2.25,2.36,4.54,3.6,6.78c0.61,1.11,1.57,0.96,2.38,0.23c1.15-1.02,2.18-2.14,3.28-3.2
	c3.48-3.37,6.99-6.72,10.43-10.11c5.48-5.39,9.6-11.64,12.14-18.91c0.23-0.67,0.62-1.29,0.75-1.54c3.38,2.77,6.56,5.53,9.9,8.06
	c2.79,2.11,5.63,4.29,8.73,5.87c3.83,1.96,7.93,3.42,11.96,4.96c9.73,3.72,19.79,4.88,30.13,3.75c1.85-0.19,3.71-0.31,5.56-0.32
	c1.24-0.01,1.71-0.5,1.96-1.71c0.85-3.98,0.57-7.98,0.24-11.96c-0.48-5.6-0.72-11.24-1.62-16.77c-0.84-5.19-2.28-10.32-3.71-15.4
	c-1-3.5-2.09-7.04-3.77-10.24c-2.45-4.7-5.46-9.1-8.26-13.66c0.78-0.15,2.04-0.36,3.28-0.63c7.49-1.62,14.38-4.41,20.21-9.59
	c2.32-2.06,5.07-3.6,7.53-5.49c1.9-1.46,3.64-3.14,5.5-4.65c0.67-0.55,1.67-0.73,2.2-1.37c0.46-0.56,0.88-1.69,0.61-2.2
	c-0.71-1.35-1.62-2.69-2.75-3.7C460.22,898.23,456.94,895.28,453.35,892.79z M350.16,934.68c-1.04,2.97-2.52,5.84-3.06,8.89
	c-0.94,5.26-1.38,10.62-1.91,15.95c-0.35,3.48-0.5,6.98-0.74,10.46c-0.17,0-0.33,0-0.49,0c-0.94-3.75-2.08-7.46-2.74-11.26
	c-0.46-2.59-0.63-5.35-0.24-7.93c1-6.53,4-11.31,9.03-16.69C350.07,934.32,350.21,934.53,350.16,934.68z M374.89,960.46
	c-1.75-2.47-3.65-4.86-5.2-7.46c-0.82-1.37-0.91-3.16-1.55-4.67c-1.62-3.79-2.87-7.61-1.99-11.79c0.31-1.49,0.83-2.94,1.26-4.41
	c0.13,0.04,0.27,0.07,0.4,0.12c2.49,9.28,4.97,18.58,7.46,27.87C375.13,960.24,375.02,960.35,374.89,960.46z M388.49,955.13
	c1.96,1.37,6.9,12.68,9.15,21.17C390.97,970.62,387.58,963.75,388.49,955.13z M418.38,970.36c-0.36-0.19-0.81-0.32-1.1-0.58
	c-3.87-3.64-7.81-7.22-11.58-10.97c-3.92-3.89-7.72-7.9-11.52-11.89c-1.89-1.98-3.68-4.08-5.53-6.09
	c-3.65-3.99-7.36-7.93-10.95-11.98c-2.88-3.24-5.72-6.55-8.35-9.99c-1.32-1.74-2.14-3.88-3.2-5.84c0.2-0.14,0.39-0.29,0.57-0.43
	c3.5,2.77,7.26,5.28,10.47,8.36c4.58,4.38,8.95,9.05,13.1,13.85c5.2,6,10.1,12.24,15.08,18.4c2.88,3.54,5.7,7.12,8.51,10.7
	c1.6,2.04,3.15,4.11,4.73,6.18C418.56,970.16,418.47,970.27,418.38,970.36z M386.95,916.45c14.13-2.9,19.21,2.94,23.94,10.49
	C403.04,923.51,394.91,919.94,386.95,916.45z M426.07,951.19c-3.04-2.37-6.03-4.64-8.97-6.99c-2.97-2.37-5.89-4.79-9.11-7.42
	C419.78,938.19,426.07,944.83,426.07,951.19z M390.49,898.96c-0.02-0.33-0.03-0.66-0.05-1c4.88-1.54,9.67-3.72,14.68-4.44
	c4.93-0.69,10.13-0.38,15.09,0.34c7.79,1.13,12.39,3.18,13.77,5.15C419.42,897.13,404.97,896.39,390.49,898.96z"/>
<path class="st0" d="M2442.35,939.79c-3.89-2.72-8-5.17-12.19-7.4c-3.74-2-7.66-3.59-11.81-4.77c-5.04-1.44-10.1-1.9-15.26-2.16
	c-3.48-0.17-6.93-0.86-10.41-1.16c-4.03-0.35-8.02-0.04-11.87,1.37c-6.75,2.48-13.58,4.82-20.23,7.53
	c-5.87,2.39-11.44,5.4-16.16,9.82c-1.95,1.83-4.71,2.86-6.46,4.84c-4.29,4.83-9.21,9.16-12.09,15.2c-1.83,3.86-4.66,7.26-6.39,11.15
	c-1.93,4.34-3.74,8.93-4.46,13.58c-0.78,5.07-0.73,10.39-0.16,15.51c0.69,6.08,2,12.14,3.61,18.04c1.18,4.29,3.09,8.42,5.07,12.43
	c2.69,5.47,5.75,10.77,8.64,16.15c1.22,2.25,2.36,4.54,3.6,6.78c0.61,1.11,1.57,0.96,2.38,0.23c1.15-1.02,2.18-2.14,3.28-3.2
	c3.48-3.37,6.99-6.72,10.43-10.11c5.48-5.39,9.6-11.64,12.14-18.91c0.23-0.67,0.62-1.29,0.75-1.54c3.38,2.77,6.56,5.53,9.9,8.06
	c2.79,2.11,5.63,4.29,8.73,5.87c3.83,1.96,7.93,3.42,11.96,4.96c9.73,3.72,19.79,4.88,30.13,3.75c1.85-0.19,3.71-0.31,5.56-0.32
	c1.24-0.01,1.71-0.5,1.96-1.71c0.85-3.98,0.57-7.98,0.24-11.96c-0.48-5.6-0.72-11.24-1.62-16.77c-0.84-5.19-2.28-10.32-3.71-15.4
	c-1-3.5-2.09-7.04-3.77-10.24c-2.45-4.7-5.46-9.1-8.26-13.66c0.78-0.15,2.04-0.36,3.28-0.63c7.49-1.62,14.38-4.41,20.21-9.59
	c2.32-2.06,5.07-3.6,7.53-5.49c1.9-1.46,3.64-3.14,5.5-4.65c0.67-0.55,1.67-0.73,2.2-1.37c0.46-0.56,0.88-1.69,0.61-2.2
	c-0.71-1.35-1.62-2.69-2.75-3.7C2449.22,945.23,2445.94,942.28,2442.35,939.79z M2339.16,981.68c-1.04,2.97-2.52,5.84-3.06,8.89
	c-0.94,5.26-1.38,10.62-1.91,15.95c-0.35,3.48-0.5,6.98-0.74,10.46c-0.17,0-0.33,0-0.49,0c-0.94-3.75-2.08-7.46-2.74-11.26
	c-0.46-2.59-0.63-5.35-0.24-7.93c1-6.53,4-11.31,9.03-16.69C2339.07,981.32,2339.21,981.53,2339.16,981.68z M2363.89,1007.46
	c-1.75-2.47-3.65-4.86-5.2-7.46c-0.82-1.37-0.91-3.16-1.55-4.67c-1.62-3.79-2.87-7.61-1.99-11.79c0.31-1.49,0.83-2.94,1.26-4.41
	c0.13,0.04,0.27,0.07,0.4,0.12c2.49,9.28,4.97,18.58,7.46,27.87C2364.13,1007.24,2364.01,1007.35,2363.89,1007.46z M2377.49,1002.13
	c1.96,1.37,6.9,12.68,9.15,21.17C2379.97,1017.62,2376.58,1010.75,2377.49,1002.13z M2407.38,1017.36
	c-0.36-0.19-0.81-0.32-1.09-0.58c-3.87-3.64-7.81-7.22-11.58-10.97c-3.92-3.89-7.72-7.9-11.52-11.89c-1.89-1.98-3.68-4.08-5.53-6.09
	c-3.65-3.99-7.36-7.93-10.95-11.98c-2.88-3.24-5.72-6.55-8.35-9.99c-1.32-1.74-2.14-3.88-3.2-5.84c0.2-0.14,0.39-0.29,0.57-0.43
	c3.5,2.77,7.26,5.28,10.47,8.36c4.58,4.38,8.95,9.05,13.1,13.85c5.2,6,10.1,12.24,15.08,18.4c2.88,3.54,5.7,7.12,8.51,10.7
	c1.6,2.04,3.15,4.11,4.73,6.18C2407.56,1017.16,2407.47,1017.27,2407.38,1017.36z M2375.95,963.45c14.13-2.9,19.21,2.94,23.94,10.49
	C2392.04,970.51,2383.91,966.94,2375.95,963.45z M2415.07,998.19c-3.04-2.37-6.03-4.64-8.97-6.99c-2.97-2.37-5.89-4.79-9.11-7.42
	C2408.78,985.19,2415.07,991.83,2415.07,998.19z M2379.49,945.96c-0.02-0.33-0.03-0.66-0.05-1c4.88-1.54,9.67-3.72,14.68-4.44
	c4.93-0.69,10.13-0.38,15.09,0.34c7.79,1.13,12.39,3.18,13.77,5.15C2408.42,944.13,2393.97,943.39,2379.49,945.96z"/>
</svg>
