<?xml version="1.0" encoding="utf-8"?>
<!-- Generator: Adobe Illustrator 23.0.3, SVG Export Plug-In . SVG Version: 6.00 Build 0)  -->
<svg version="1.1" id="圖層_1" xmlns="http://www.w3.org/2000/svg" xmlns:xlink="http://www.w3.org/1999/xlink" x="0px" y="0px"
	 viewBox="0 0 60 70" style="enable-background:new 0 0 60 70;" xml:space="preserve">
<style type="text/css">
	.st0{fill:#006AAD;}
	.st1{fill:#009BCF;}
	.st2{fill:#C9CACA;}
	.st3{fill:#FFFFFF;}
</style>
<g>
	<g id="_x23_0170baff_1_">
		<path class="st0" d="M0,0.98c20,0,40,0,60,0c-1.1,12.44-2.18,24.88-3.33,37.31c-0.68,7.95-1.38,15.9-2.12,23.84
			c-4.27,1.13-8.49,2.42-12.76,3.56c-3.92,1.15-7.87,2.19-11.79,3.33h-0.12c-3.73-1.11-7.5-2.09-11.23-3.2
			c-4.4-1.19-8.77-2.51-13.17-3.69c-0.57-5.95-1.09-11.91-1.6-17.87C2.91,33.26,1.86,22.26,0.94,11.25C0.61,7.94,0.38,4.62,0,1.31
			V0.98 M30.09,5.89c-0.04,2.39,0.03,4.78-0.04,7.17c-6.86-0.02-13.72-0.01-20.59,0c0.12,2.32,0.43,4.62,0.75,6.92
			c6.38,0.24,12.78-0.01,19.16,0.18c-5.58,2.51-11.24,4.86-16.85,7.32c-0.48,0.21-1,0.38-1.43,0.69c0.05,2.55,0.46,5.08,0.64,7.62
			c3.4-0.01,6.8-0.07,10.21-0.07c2.73-0.01,5.45,0.04,8.18-0.02c-0.13,4.19,0.04,8.38-0.09,12.57c-1.83-0.27-3.65-0.68-5.47-1.01
			c-1.44-0.31-2.92-0.48-4.34-0.89c-0.2-2.01-0.34-4.03-0.52-6.04c-0.41-0.13-0.85-0.11-1.27-0.12c-2.06,0.01-4.12-0.01-6.19,0.02
			c0.2,3.87,0.55,7.73,1.14,11.56c2.03,0.53,4.07,1.05,6.1,1.6c3.11,0.85,6.26,1.55,9.37,2.38c0.37,0.08,0.74,0.22,1.13,0.18
			c0.21,2.54,0.05,5.1,0.09,7.65c0.72-0.12,1.42-0.29,2.12-0.51c5.9-1.6,11.78-3.23,17.68-4.85c0.29-2.32,0.43-4.65,0.66-6.97
			c0.61-7.06,1.23-14.12,1.87-21.18c0.75-8.08,1.4-16.16,2.16-24.24C46.41,5.88,38.25,5.86,30.09,5.89z"/>
	</g>
	<g id="_x23_29a9dfff_1_">
		<path class="st1" d="M30.09,5.89c8.16-0.03,16.31,0,24.47-0.01c-0.76,8.08-1.41,16.16-2.16,24.24
			c-0.64,7.06-1.26,14.12-1.87,21.18c-0.23,2.32-0.37,4.66-0.66,6.97c-5.89,1.62-11.78,3.25-17.68,4.85
			c-0.69,0.21-1.4,0.39-2.12,0.51c-0.04-2.55,0.12-5.11-0.09-7.65c0.05-0.01,0.16-0.03,0.21-0.04c5.48-1.38,10.93-2.89,16.4-4.32
			c0.69-7.76,1.46-15.52,1.95-23.29c-4.65,0.02-9.31,0.01-13.96,0.03c-0.68,0-1.36,0-2.03-0.05c2.5-1.29,5.14-2.31,7.71-3.46
			c2.47-1.12,4.96-2.17,7.44-3.26c0.48-0.22,0.99-0.4,1.41-0.73c0.17-0.61,0.16-1.24,0.22-1.86c0.14-1.97,0.4-3.92,0.49-5.89
			c-6.59-0.05-13.18-0.01-19.77-0.04C30.13,10.67,30.05,8.28,30.09,5.89z"/>
		<path class="st1" d="M30.13,35.7c3.18-0.05,6.36,0.03,9.55,0.01c-0.18,3.25-0.45,6.5-0.62,9.75c-1.95,0.64-3.93,1.18-5.9,1.77
			c-1.05,0.32-2.12,0.57-3.12,1.04C30.17,44.08,30,39.89,30.13,35.7z"/>
	</g>
	<g id="_x23_cfcfcfff_1_">
		<path class="st2" d="M9.47,13.06c6.86-0.01,13.72-0.03,20.59,0c0.09,7.55-0.02,15.1,0.08,22.64c-2.73,0.06-5.45,0.01-8.18,0.02
			c-3.4,0.01-6.8,0.06-10.21,0.07c-0.18-2.54-0.59-5.08-0.64-7.62c0.43-0.31,0.94-0.47,1.43-0.69c5.61-2.45,11.26-4.81,16.85-7.32
			c-6.38-0.19-12.78,0.05-19.16-0.18C9.89,17.68,9.58,15.38,9.47,13.06z"/>
		<path class="st2" d="M12.25,40.24c2.06-0.03,4.13-0.01,6.19-0.02c0.42,0.01,0.86-0.01,1.27,0.12c0.18,2.01,0.32,4.03,0.52,6.04
			c1.42,0.41,2.9,0.58,4.34,0.89c1.83,0.32,3.64,0.73,5.47,1.01c0.18,2.55-0.13,5.12,0.16,7.66c-0.05,0.01-0.16,0.03-0.21,0.04
			c-0.38,0.03-0.76-0.11-1.13-0.18c-3.11-0.83-6.26-1.54-9.37-2.38c-2.03-0.55-4.07-1.07-6.1-1.6
			C12.8,47.97,12.45,44.11,12.25,40.24z"/>
	</g>
	<g id="_x23_ffffffff_1_">
		<path class="st3" d="M30.05,13.06c6.59,0.04,13.18-0.01,19.77,0.04c-0.09,1.97-0.35,3.92-0.49,5.89
			c-0.06,0.62-0.06,1.25-0.22,1.86c-0.42,0.33-0.93,0.51-1.41,0.73c-2.48,1.1-4.97,2.15-7.44,3.26c-2.57,1.15-5.2,2.17-7.71,3.46
			c0.67,0.05,1.35,0.05,2.03,0.05c4.65-0.02,9.31-0.01,13.96-0.03c-0.49,7.78-1.25,15.53-1.95,23.29
			c-5.47,1.43-10.92,2.94-16.4,4.32c-0.29-2.54,0.01-5.11-0.16-7.66c1-0.47,2.07-0.72,3.12-1.04c1.97-0.59,3.95-1.13,5.9-1.77
			c0.17-3.25,0.44-6.5,0.62-9.75c-3.18,0.02-6.37-0.06-9.55-0.01C30.03,28.16,30.14,20.61,30.05,13.06z"/>
	</g>
</g>
</svg>
