<?xml version="1.0" encoding="utf-8"?>
<!-- Generator: Adobe Illustrator 23.0.3, SVG Export Plug-In . SVG Version: 6.00 Build 0)  -->
<svg version="1.1" id="圖層_1" xmlns="http://www.w3.org/2000/svg" xmlns:xlink="http://www.w3.org/1999/xlink" x="0px" y="0px"
	 viewBox="0 0 400 616" style="enable-background:new 0 0 400 616;" xml:space="preserve">
<style type="text/css">
	.st0{fill:#F2B33D;}
	.st1{fill:#040000;}
</style>
<circle class="st0" cx="200.46" cy="346.95" r="200"/>
<g>
	<g>
		<path class="st1" d="M236.62,292.71c4.26,5.63,9.77,8.65,16.41,9.05c-0.18-0.5-0.36-1.01-0.54-1.5c-0.13-0.35-0.26-0.69-0.39-1.03
			c-0.07-0.18-0.14-0.36-0.2-0.54c-0.17-0.43-0.34-0.86-0.51-1.28c-0.01-0.02-0.01-0.03-0.02-0.04c-0.19-0.47-0.38-0.93-0.57-1.39
			c-0.03-0.09-0.07-0.19-0.11-0.28c-0.15-0.36-0.3-0.72-0.45-1.07c-0.08-0.19-0.16-0.39-0.24-0.57c-0.23-0.54-0.47-1.07-0.7-1.6
			c-0.64-1.42-1.28-2.78-1.91-4.07c-0.18-0.37-0.36-0.74-0.55-1.1c-0.01-0.01-0.01-0.02-0.02-0.04c-0.35-0.68-0.69-1.33-1.02-1.98
			c-0.23-0.42-0.45-0.83-0.67-1.24c-0.12-0.22-0.24-0.44-0.36-0.66c-0.23-0.41-0.45-0.81-0.68-1.2c-0.08-0.14-0.15-0.26-0.23-0.39
			c0.05,0.09,0.11,0.18,0.16,0.28l-12.41,0.82C232.23,284.89,233.75,288.91,236.62,292.71z"/>
		<path class="st1" d="M235.64,269.96l-13.11,0.9l1.86,10.22l18.32-1.21c-0.75-1.23-1.48-2.37-2.17-3.4c-0.2-0.3-0.4-0.6-0.6-0.87
			c-1.07-1.55-2.04-2.86-2.9-3.94c-0.09-0.11-0.17-0.22-0.25-0.32c-0.17-0.2-0.33-0.4-0.49-0.6c-0.11-0.14-0.23-0.28-0.34-0.41
			c-0.08-0.1-0.15-0.19-0.23-0.27"/>
		<path class="st1" d="M243.22,580.97l-1.09-6.39c-1.16,0.61-2.33,1.33-3.48,2.19C240.18,578.44,241.7,579.84,243.22,580.97z"/>
		<path class="st1" d="M259.92,581.65c-1.03-3.03-2.78-6.59-4.96-10.39c-0.62,0.02-1.34,0.07-2.14,0.15c0,0,0,0,0,0l4.93,11.74
			C258.78,582.6,259.52,582.01,259.92,581.65z"/>
		<path class="st1" d="M263.57,365.81c-0.01-0.78-0.02-1.55-0.04-2.32c-0.01-0.7-0.03-1.39-0.05-2.07c-0.05-1.7-0.11-3.37-0.19-5.02
			c-0.03-0.7-0.07-1.4-0.11-2.08c-0.05-0.9-0.11-1.8-0.17-2.69c-0.05-0.69-0.1-1.37-0.15-2.05c-0.13-1.64-0.27-3.24-0.43-4.83
			c-0.07-0.72-0.15-1.43-0.22-2.12c-0.02-0.15-0.03-0.3-0.05-0.45c-0.07-0.61-0.14-1.22-0.22-1.83c-0.09-0.72-0.18-1.44-0.27-2.15
			c-0.07-0.56-0.15-1.12-0.22-1.67c-0.22-1.54-0.45-3.06-0.69-4.55c-0.11-0.68-0.22-1.34-0.34-2c-0.12-0.69-0.24-1.37-0.37-2.05
			c-0.23-1.27-0.48-2.52-0.73-3.75c-0.24-1.2-0.5-2.38-0.77-3.53c-0.17-0.74-0.34-1.48-0.52-2.21c-0.26-1.07-0.52-2.11-0.78-3.14
			c-0.01-0.03-0.02-0.06-0.02-0.09c-0.15-0.57-0.3-1.14-0.45-1.69c-0.15-0.56-0.31-1.11-0.47-1.66c-0.15-0.55-0.31-1.08-0.47-1.62
			c-0.11-0.38-0.23-0.76-0.34-1.13c-0.24-0.78-0.48-1.56-0.73-2.33c-0.13-0.41-0.26-0.81-0.4-1.21c-0.17-0.51-0.34-1-0.51-1.49
			c-17.3-0.45-23.32-16.89-24.57-21.03l-30,1.98l2.46,33.2c0.56,7.52-3.34,14.75-9.94,18.42c-0.17,0.1-0.36,0.14-0.55,0.14
			c-0.19,0-0.37-0.05-0.54-0.14c-0.34-0.19-0.57-0.53-0.6-0.92l-3.61-50.42l-22.53-1.45c0.04,0.14,0.06,0.28,0.05,0.43
			c-0.02,0.27-0.65,6.56-4.96,12.92c-2.82,4.17-7.67,8.91-15.75,11.31c0.12-0.38,0.23-0.74,0.34-1.09
			c-0.12,0.38-0.24,0.76-0.37,1.16c-0.1,0.31-0.19,0.63-0.3,0.96c-0.06,0.22-0.13,0.43-0.2,0.65c-0.09,0.28-0.17,0.57-0.26,0.86
			c-0.16,0.54-0.32,1.1-0.49,1.67c-0.14,0.51-0.29,1.03-0.44,1.56c-0.37,1.33-0.76,2.75-1.14,4.24c-0.07,0.27-0.14,0.54-0.21,0.82
			c-1.18,4.66-2.39,10.03-3.5,16.08c-0.1,0.55-0.2,1.11-0.3,1.67c-0.03,0.16-0.06,0.32-0.09,0.48c-0.36,2.02-0.7,4.12-1.03,6.28
			c-0.03,0.19-0.06,0.39-0.09,0.58c-0.16,1.11-0.32,2.23-0.48,3.37c-0.02,0.14-0.03,0.28-0.06,0.43c-0.18,1.3-0.35,2.63-0.51,3.98
			c-0.09,0.67-0.16,1.35-0.24,2.04c-0.16,1.37-0.3,2.75-0.44,4.17c-0.04,0.44-0.09,0.88-0.12,1.33c-0.08,0.89-0.16,1.78-0.24,2.69
			c-0.11,1.36-0.22,2.73-0.31,4.12c-0.06,0.93-0.12,1.87-0.18,2.81c-0.1,1.7-0.18,3.42-0.26,5.17c-0.02,0.58-0.05,1.17-0.06,1.75
			c-0.02,0.78-0.05,1.57-0.07,2.37c-0.02,0.79-0.03,1.59-0.05,2.39c-0.07,4.14-0.05,8.39,0.07,12.77c0.04,1.37,0.09,2.75,0.15,4.15
			c0,0.09,0.01,0.17,0.01,0.26c0.07,1.68,0.16,3.38,0.26,5.09c0.05,0.86,0.11,1.71,0.17,2.58c0.06,0.85,0.12,1.7,0.19,2.55
			c0.06,0.72,0.11,1.45,0.18,2.18c0.06,0.69,0.12,1.38,0.19,2.07c0.09,1.02,0.19,2.04,0.3,3.07c0.08,0.77,0.16,1.54,0.26,2.31
			c0.08,0.72,0.16,1.45,0.25,2.17c0.03,0.27,0.07,0.55,0.1,0.83c0.09,0.67,0.17,1.34,0.26,2.02c0.02,0.12,0.03,0.24,0.05,0.37
			c0.09,0.66,0.18,1.33,0.27,1.99c0.04,0.32,0.09,0.65,0.14,0.98c0.08,0.58,0.16,1.17,0.26,1.75c0.03,0.25,0.07,0.51,0.11,0.77
			c0.1,0.68,0.2,1.36,0.32,2.05c0.03,0.24,0.07,0.48,0.11,0.73c0.09,0.57,0.18,1.14,0.28,1.71c0.14,0.87,0.3,1.75,0.45,2.63
			c0.14,0.8,0.28,1.6,0.43,2.4c0.14,0.78,0.29,1.57,0.45,2.36c0.3,1.57,0.62,3.15,0.96,4.75c0.15,0.68,0.3,1.37,0.44,2.06
			c0.23,1.02,0.45,2.05,0.7,3.08c0.19,0.85,0.39,1.69,0.6,2.54c1.22,5.07,2.6,10.22,4.15,15.43c0.09,0.32,0.19,0.65,0.29,0.97
			c0.07,0.26,0.15,0.52,0.23,0.78c0.02,0.06,0.04,0.13,0.06,0.19c0.31,1,0.62,2.01,0.94,3.02c0.77,2.42,1.58,4.85,2.42,7.3
			c0.56,1.63,1.14,3.27,1.74,4.91c0.3,0.82,0.61,1.64,0.91,2.46c0.93,2.46,1.9,4.95,2.9,7.44c1.01,2.49,2.06,4.99,3.16,7.51
			c1.46,3.34,3,6.71,4.62,10.1c0.09,0.19,0.18,0.38,0.28,0.57l25.64-5.95c-0.1-4.17-0.2-8.41-0.19-12.74
			c0.05-19.89,0.09-39.78,0.14-59.67c0.06-25.15-0.8-50.48,0.18-75.6c0.01-0.02,0.63-16.04,0.63-16.04l14.56-6.22
			c2.85,56.5,5.7,113,8.55,169.49l27.05,6.28c5.59-19.55,12.62-46.93,17.63-76.15c5.57-27.09,7.64-50.42,7.49-70.34
			C263.58,366.58,263.58,366.19,263.57,365.81z"/>
		<path class="st1" d="M252.48,586.78c-0.18,0-0.35-0.01-0.53-0.01c-5.18-0.2-10.41-3.28-15.6-9.17c-0.09-0.06-0.18-0.14-0.26-0.23
			c-0.06-0.07-0.11-0.15-0.15-0.24l-0.01-0.01c-0.62-0.72-1.24-1.49-1.86-2.29c-8.86-11.49-15.32-22.53-19.18-29.8
			c0.97,3.75,2.28,7.42,4.04,10.96c6.55,13.16,20.39,34.27,36.63,35.22c4.9,0.29,6.12-2.58,5.05-7.2
			C259.09,585.18,256.29,586.78,252.48,586.78z"/>
		<path class="st1" d="M197.99,282.83l18.83-1.24l-2.33-10.16l-26.57,1.84l4.33,60.41c4.87-3.44,7.67-9.26,7.22-15.29l-2.54-34.33
			c-0.02-0.3,0.07-0.6,0.27-0.83C197.4,282.99,197.69,282.85,197.99,282.83z M193.52,283.96c-2.23,0-3.98-2.24-3.98-5.11
			s1.75-5.11,3.98-5.11c2.23,0,3.98,2.24,3.98,5.11S195.74,283.96,193.52,283.96z"/>
		<polygon class="st1" points="222.1,281.24 220.24,271.03 216.78,271.27 219.12,281.44 		"/>
		<ellipse class="st1" cx="193.52" cy="278.85" rx="1.7" ry="2.84"/>
		<path class="st1" d="M251.84,584.49c0.05,0.01,0.1,0.01,0.15,0.01c1.37,0.06,2.6-0.14,3.67-0.47l-5.16-12.29c0,0,0,0,0,0
			c-0.81,0.15-1.67,0.33-2.56,0.58L251.84,584.49L251.84,584.49z"/>
		<path class="st1" d="M166.43,577.13L166.43,577.13c-0.04,0.09-0.09,0.17-0.15,0.24c-0.07,0.09-0.16,0.16-0.26,0.23
			c-5.18,5.89-10.42,8.97-15.6,9.17c-0.18,0.01-0.36,0.01-0.53,0.01c-2.77,0-5-0.84-6.6-1.75c-1.12,5.23,0.12,8.43,5.31,7.8
			c13.7-1.66,23.2-17.29,29.38-28.08c3.32-5.79,5.54-11.53,7.02-17.3c-3.67,7.64-9.19,17.63-16.71,27.38
			C167.67,575.64,167.05,576.41,166.43,577.13z"/>
		<path class="st1" d="M147.73,584.3c0.81,0.16,1.69,0.24,2.64,0.2c0.44-0.02,0.88-0.06,1.32-0.13l3.77-11.75
			c-0.88-0.27-1.74-0.49-2.55-0.67L147.73,584.3z"/>
		<path class="st1" d="M126.78,225.28c-1.78-13.78-8.4-26.81-12.57-33.9l-6.66,2.42c4.3,7.57,10.18,19.86,12.17,33.21"/>
		<path class="st1" d="M139.93,222.03c-1.72-14.51-8.9-28.26-13.08-35.24l-6.64,2.42c4.39,7.6,10.72,20.52,12.69,34.56"/>
		<path class="st1" d="M113.62,228.52c-1.82-13.09-7.93-25.42-12.05-32.55l-6.66,2.42c4.18,7.51,9.65,19.18,11.64,31.87"/>
		<path class="st1" d="M100.46,231.77c-1.85-12.41-7.48-24.09-11.52-31.2l-3.23,1.18l-27.4-65.11c0,0,12.83-47.04-3.66-15.88
			c0,0-4.38-19.34-11.45-26.43l0.7,2.82c0.48,2.05,0.98,4.09,1.43,6.14c0.93,4.1,1.79,8.22,2.49,12.37
			c-1.38-3.98-2.61-8.01-3.77-12.04c-0.6-2.02-1.14-4.04-1.7-6.06l-1.3-4.92c-1.29-0.75-2.65-1.05-4.08-0.74
			c0.04,0.15,0.08,0.3,0.12,0.44l1.32,4.96l1.23,4.97c0.39,1.67,0.8,3.33,1.14,5.01c0.73,3.34,1.41,6.7,1.93,10.1
			c-1.2-3.22-2.23-6.49-3.2-9.77c-0.51-1.64-0.95-3.29-1.42-4.93l-1.33-4.96l-1.23-4.98c-0.02-0.1-0.05-0.2-0.07-0.31
			c-1.19,0.58-2.2,1.52-3.03,2.73c0.19,0.85,0.37,1.7,0.56,2.55l0.9,4.46l0.81,4.48c0.24,1.5,0.51,2.99,0.71,4.5
			c0.45,3,0.83,6.02,1.06,9.07c-0.91-2.91-1.67-5.86-2.36-8.82c-0.36-1.48-0.66-2.96-0.99-4.45l-0.9-4.46l-0.81-4.47
			c-0.04-0.25-0.08-0.5-0.12-0.75c-4.45,10.18-0.53,31.74,11.15,42.45l23.74,100.54L100.46,231.77z"/>
		<path class="st1" d="M244.26,573.57l1.54,9.08c1.18,0.65,2.35,1.13,3.52,1.43L245.77,573
			C245.27,573.17,244.77,573.36,244.26,573.57z"/>
		<path class="st1" d="M159.33,574.13c-0.58-0.28-1.15-0.53-1.72-0.75l-3.31,10.31c1.18-0.44,2.37-1.04,3.57-1.82L159.33,574.13z"/>
		<path class="st1" d="M143.88,582.74c0.47,0.3,1.03,0.61,1.67,0.88l5.07-12.08c-0.68-0.1-1.32-0.16-1.89-0.21
			C146.61,575.5,144.89,579.42,143.88,582.74z"/>
		<path class="st1" d="M237.15,575.06c5.95-4.5,12.41-5.74,16.51-6.02c-1.37-2.3-2.88-4.67-4.46-7.04l-11.53,4.68
			c-0.14,0.06-0.28,0.09-0.43,0.09c-0.45,0-0.87-0.27-1.05-0.71c-0.24-0.58,0.04-1.24,0.62-1.48l11.1-4.51
			c-1.09-1.6-2.2-3.2-3.32-4.78l-10.4,3.46c-0.12,0.04-0.24,0.06-0.36,0.06c-0.48,0-0.92-0.3-1.08-0.78
			c-0.2-0.6,0.12-1.24,0.72-1.44l9.73-3.24c-1.21-1.68-2.42-3.32-3.6-4.9l-9.42,2.92c-0.11,0.03-0.22,0.05-0.34,0.05
			c-0.48,0-0.93-0.31-1.08-0.8c-0.19-0.6,0.15-1.23,0.75-1.42l8.64-2.68c-1.17-1.56-2.31-3.04-3.38-4.42l-8.14,1.36
			c-0.06,0.01-0.12,0.02-0.19,0.02c-0.55,0-1.03-0.39-1.12-0.95c-0.1-0.62,0.31-1.2,0.93-1.31l6.93-1.15
			c-0.72-0.92-1.4-1.78-2.03-2.58c0.26-0.8,0.55-1.69,0.85-2.65l-7.15,0.68c-0.04,0.01-0.07,0.01-0.11,0.01
			c-0.58,0-1.07-0.44-1.13-1.03c-0.06-0.62,0.4-1.18,1.02-1.24l8.11-0.77c0.37-1.18,0.77-2.45,1.19-3.82l-10.01-2.26
			c-0.61-0.14-0.99-0.74-0.86-1.36c0.14-0.61,0.75-0.99,1.36-0.86l10.18,2.3c0.39-1.26,0.78-2.58,1.2-3.96v-0.01l-13.02-2.94
			c-0.61-0.14-0.99-0.74-0.86-1.36c0.14-0.61,0.74-0.99,1.36-0.86l13.16,2.97c0.44-1.51,0.9-3.08,1.38-4.71l-26.31-6.11
			c0.4,9,0.42,18.23,1.72,27.19c2.03,4.34,9.76,20.05,22.62,36.73C236.3,574.01,236.73,574.55,237.15,575.06z"/>
		<path class="st1" d="M161.43,575.26L161.43,575.26l-0.87,4.58c1.04-0.89,2.1-1.91,3.15-3.06
			C162.96,576.21,162.2,575.7,161.43,575.26z"/>
		<path class="st1" d="M162.93,516.01L162.93,516.01c0.39,0.81,0.79,1.61,1.2,2.42c0.26,0.52,0.52,1.04,0.8,1.57
			c0.09,0.18,0.17,0.35,0.26,0.52h0.01l13.88-3.13c0.61-0.14,1.22,0.24,1.36,0.86c0.14,0.61-0.24,1.22-0.86,1.36l-13.31,3
			c0.15,0.31,0.32,0.62,0.48,0.94c0.49,0.95,0.99,1.9,1.5,2.85h0.01l9.68-2.19c0.61-0.14,1.22,0.24,1.36,0.86
			c0.14,0.61-0.24,1.22-0.86,1.36l-9.06,2.04c0.77,1.41,1.55,2.82,2.35,4.23l6,0.57c0.62,0.06,1.08,0.61,1.02,1.24
			c-0.06,0.58-0.55,1.03-1.13,1.03c-0.03,0-0.07,0-0.11-0.01l-5.96-0.57c-0.95,1.35-2.13,3.02-3.45,4.93l8.01,1.33
			c0.62,0.1,1.03,0.69,0.93,1.31c-0.09,0.56-0.57,0.95-1.12,0.95c-0.06,0-0.12-0.01-0.19-0.02l-9.05-1.51
			c-0.94,1.39-1.94,2.87-2.97,4.42l9.14,2.83c0.6,0.19,0.94,0.82,0.75,1.42c-0.15,0.49-0.6,0.8-1.08,0.8
			c-0.11,0-0.23-0.02-0.34-0.05l-9.77-3.03c-1.06,1.61-2.15,3.29-3.24,5.01l9.73,3.24c0.6,0.2,0.92,0.84,0.72,1.44
			c-0.16,0.48-0.6,0.78-1.08,0.78c-0.12,0-0.24-0.02-0.36-0.06l-10.26-3.42c-1.02,1.62-2.02,3.27-3.01,4.92l10.64,4.32
			c0.58,0.23,0.86,0.9,0.62,1.48c-0.18,0.44-0.6,0.71-1.05,0.71c-0.14,0-0.29-0.03-0.43-0.09l-10.95-4.45
			c-1.36,2.32-2.67,4.65-3.87,6.91c4.09,0.43,9.93,1.82,15.34,5.92c0.43-0.51,0.86-1.04,1.28-1.6
			c10.91-14.15,17.53-28.77,20.37-35.8c-0.01-0.01,0-0.01,0-0.01c1.14-8.91,0.98-17.96,0.74-27.36L162.93,516.01z"/>
		<path class="st1" d="M155.4,273.31c0.02,0.07,0.03,0.14,0.04,0.2c0.03,0.15,0.04,0.23,0.04,0.23c0,0.01-0.01,0.01-0.01,0.03
			l-2.47,7.1l11.87,0.68l2.41-8.68l-12-0.19"/>
		<path class="st1" d="M235.15,246.59c0.07-0.9,0.14-1.79,0.21-2.69l-87.98-3.52l0.16,0.6c0.65,2.1,1.27,4.24,1.86,6.39l85.6,1.26
			C235.06,247.95,235.11,247.27,235.15,246.59z"/>
		<polygon class="st1" points="173.12,272.96 169.62,272.9 167.16,281.78 171.21,282.04 		"/>
		<polygon class="st1" points="236.37,231.12 143.86,227.43 145.66,234.07 235.93,237.68 		"/>
		<polygon class="st1" points="140.32,214.45 142.14,221.1 236.79,224.89 237.23,218.32 		"/>
		<path class="st1" d="M289.34,231.17c-10.74,7.94-18.75,19.24-22.93,25.92l1.74,1.61l9.25,63.78c0,0-21.07,56.75,1.67,19.44
			c0,0-0.91,30.59,6.8,33.54l-0.25-4.59l-0.22-5.87c-0.05-1.96-0.12-3.92-0.13-5.88c-0.06-3.92-0.05-7.84,0.12-11.77
			c0.53,3.9,0.9,7.8,1.2,11.7c0.17,1.95,0.27,3.91,0.41,5.87l0.32,5.87l0.18,4.88c0.29-0.03,0.59-0.09,0.9-0.19
			c1.06-0.34,2.03-0.77,2.91-1.31l-0.09-1.89l-0.17-5.55c-0.02-1.85-0.08-3.7-0.07-5.55c-0.02-3.71,0.02-7.42,0.23-11.13
			c0.5,3.69,0.83,7.38,1.1,11.08c0.15,1.85,0.23,3.7,0.35,5.54l0.26,5.55l0.02,0.73c1.16-1.06,2.13-2.4,2.91-4.11l-0.03-0.27
			c-0.16-1.8-0.35-3.59-0.48-5.39c-0.29-3.6-0.52-7.21-0.58-10.84c0.76,3.54,1.36,7.11,1.9,10.68c0.13,0.8,0.24,1.6,0.36,2.4
			c2.13-8.39,1.48-23.04-1.65-48.7l1.31-78.5l-0.03-0.03l0.05-0.03 M279.45,221.68c-10.9,8.22-18.93,19.79-22.9,26.28l5.19,4.81
			c4.45-7.01,12.36-17.84,23.03-25.97 M269.57,212.19c-11.06,8.48-19.11,20.38-22.89,26.62l5.18,4.8
			c4.32-6.89,12.24-17.95,23.03-26.32 M259.68,202.7c-11.27,8.8-19.34,21.04-22.87,26.99l5.17,4.79
			c4.15-6.73,12.09-18.05,23.03-26.66 M255.02,198.18l18.15-2.12c3.38-9.95,4.74-22.15,4.87-34.81c0.36-18.58-2.16-38.18-4.68-53.55
			c-3.64-22.22-7.8-46.37-21.24-65.06c-7.35-10.23-16.93-16.56-27.58-19.82c-13.69-4.21-29.16-3.32-43.95,0.95
			c-4.85,1.4-10.93,5.45-15.84,5.94c-2.4,0.24-4.68,0.7-6.84,1.35l0.02,0.03c-18.14,5.51-27.86,24.58-31.76,42.52
			c-0.94,4.33-1.71,8.71-2.35,13.11c-0.27,1.92-0.52,3.87-0.74,5.85c-0.1-0.01-0.2-0.01-0.3-0.01l-0.56,0.01h-0.28
			c-0.1,0-0.15,0.01-0.35,0.02c-0.67,0.05-1.32,0.16-1.93,0.34c-1.22,0.36-2.27,0.97-3.12,1.71c-1.73,1.48-2.75,3.37-3.4,5.34
			c-0.64,1.98-0.87,4.09-0.74,6.28c0.07,1.09,0.23,2.2,0.48,3.31c0.27,1.12,0.64,2.24,1.14,3.34c0.51,1.1,1.15,2.17,1.91,3.12
			c0.62,0.7,1.23,1.35,1.9,1.98c0.64,0.64,1.33,1.23,2.04,1.78c0.53,0.43,1.1,0.82,1.68,1.17c-0.09,20.4,1.71,41.48,4.36,59.65
			c0,0,9.92,0.89,11.6,1.04c-0.61,0.34-1.23,0.67-1.86,1.02c-0.37,0.2-0.76,0.42-1.15,0.64l86.73,3.46l-1.29,6.2l-86.41-3.45
			l1.54,5.65l83.72,3.34l-0.83,4l20.51-2.4l4.3-0.5c-1.64,1.67-3.17,3.37-4.61,5.07l-0.06,0.85l-101.31-4.04l1.81,6.64l99.05,3.95
			l-0.37,5.44c4.36-6.05,10.39-13.24,17.84-19.19 M174.67,38.04c1.64-1.27,3.36-2.44,5.17-3.46c3.61-2.06,7.54-3.62,11.6-4.62
			c2.03-0.51,4.11-0.83,6.18-1.05c2.08-0.21,4.18-0.23,6.26-0.14c4.16,0.25,8.28,1.08,12.1,2.62c-4.1-0.38-8.12-0.58-12.11-0.39
			c-1.99,0.13-3.97,0.28-5.93,0.58c-0.49,0.06-0.98,0.16-1.47,0.23c-0.49,0.08-0.98,0.16-1.46,0.27l-1.46,0.29l-1.45,0.35
			c-3.84,0.95-7.62,2.23-11.27,3.85c-1.82,0.81-3.65,1.66-5.41,2.63c-1.79,0.94-3.53,1.98-5.26,3.09
			C171.49,40.7,173.06,39.34,174.67,38.04z M180.33,43.3c3.8-1.84,7.87-3.23,12.07-3.97c1.05-0.2,2.11-0.32,3.17-0.45
			c1.07-0.07,2.13-0.18,3.2-0.18c2.14-0.03,4.29,0.09,6.39,0.45c4.22,0.66,8.29,2.21,11.8,4.48c-2.03-0.55-3.99-1.17-6.02-1.5
			l-0.74-0.16l-0.76-0.11l-1.5-0.22c-1.02-0.09-2.01-0.23-3.02-0.27c-1.01-0.08-2.02-0.07-3.02-0.1c-1.01,0.04-2.01,0.02-3.02,0.11
			c-2,0.12-4,0.37-5.99,0.73c-3.97,0.69-7.87,1.82-11.7,3.22c-3.83,1.4-7.59,3.07-11.31,4.98C172.93,47.43,176.54,45.17,180.33,43.3
			z M173.1,122.49c0.19,0.86,0.71,1.89,1.4,2.99c0.69,1.12,1.54,2.29,2.33,3.77c-1.68-0.06-3.19-0.6-4.57-1.52
			c-0.68-0.48-1.32-1.04-1.87-1.77c-0.55-0.72-1-1.58-1.23-2.56c-0.22-0.98-0.2-2.04,0.07-3c0.27-0.96,0.77-1.79,1.37-2.45
			c1.22-1.3,2.75-2.08,4.43-2.16c-0.76,1.47-1.39,2.72-1.76,3.86C172.91,120.78,172.91,121.64,173.1,122.49z M217.33,90.98
			l-5.85,0.26c-1.89,0.12-3.73,0.22-5.6,0.46c-1.87,0.27-3.71,0.66-5.98,1.3c0.8-2.06,2.62-3.71,4.69-4.8
			c2.1-1.05,4.42-1.56,6.7-1.68c2.28-0.14,4.52,0.19,6.63,0.78c2.1,0.64,4.12,1.53,5.8,3.04C221.42,90.72,219.35,90.86,217.33,90.98
			z M202.64,102.88c2.11-1.94,4.39-3.05,6.8-3.55c0.5-0.1,1-0.17,1.51-0.22c-0.13,0.16-0.26,0.31-0.38,0.47
			c-1.65,2.15-2.73,4.37-3.36,6.64c-0.63,2.28-0.75,4.61-0.35,7.01c0.35,1.77,0.94,3.57,2.15,5.45c-1.04-0.12-2.11-0.35-3.21-0.73
			c-1.35-0.46-2.75-1.14-4.21-2.07c-0.73-0.47-1.47-1.03-2.23-1.66c-0.76-0.64-1.54-1.35-2.37-2.29c0.37-1.19,0.8-2.16,1.24-3.04
			c0.44-0.89,0.9-1.69,1.38-2.42C200.57,105.02,201.58,103.84,202.64,102.88z M200.51,161.94l-0.6,6.23l-24.92-0.99l0.1-6.25
			L200.51,161.94z M197.7,139.4c-0.68,1.02-1.51,1.86-2.35,2.74c-0.9,0.76-1.87,1.48-2.89,2.11c-0.63,0.35-1.29,0.67-1.96,0.96
			c-1.56,0.68-3.23,1.19-5,1.31c-2,0.19-4.09,0-6.03-0.65c-0.47-0.16-0.94-0.35-1.39-0.56c-2.27-1.08-4.3-2.84-5.16-5.18
			c2.27,0.86,4.3,1.29,6.29,1.53c1.97,0.23,3.88,0.19,5.83,0.01c1.95-0.13,3.92-0.62,6.01-0.98c1.03-0.24,2.08-0.49,3.2-0.68
			C195.34,139.76,196.45,139.49,197.7,139.4z M167.1,113.47c-0.81,0.58-1.59,1.07-2.35,1.49c-1.15,0.63-2.25,1.11-3.32,1.47
			c0.31-0.25,0.62-0.5,0.9-0.76c1.09-0.98,2-1.98,2.8-2.99c1.37-1.79,2.35-3.63,2.99-5.5c0.16,0.34,0.32,0.68,0.47,1.05
			c0.37,0.91,0.74,1.91,1.03,3.13C168.73,112.24,167.91,112.89,167.1,113.47z M168.45,91.89c-2.22-0.8-4.03-1.32-5.87-1.72
			c-1.85-0.37-3.67-0.6-5.55-0.86l-5.82-0.67c-2.01-0.26-4.07-0.55-6.33-1.08c1.78-1.39,3.87-2.14,6.01-2.63
			c2.15-0.45,4.4-0.61,6.67-0.31c2.26,0.28,4.54,0.95,6.56,2.15C166.1,88,167.79,89.78,168.45,91.89z M150.05,43
			c0.54-0.44,1.14-0.83,1.79-1.12c1.31-0.56,2.75-0.78,4.14-0.73c1.4,0.05,2.76,0.36,4.04,0.83c1.27,0.49,2.49,1.12,3.52,2.02
			c-1.33-0.26-2.6-0.52-3.87-0.73c-1.27-0.21-2.52-0.37-3.75-0.41c-1.23-0.05-2.45,0.03-3.65,0.3c-1.2,0.27-2.35,0.76-3.53,1.45
			C149.07,44,149.53,43.47,150.05,43z M148.85,54.86c1.37-1.06,2.86-1.96,4.45-2.65c1.58-0.69,3.23-1.22,4.91-1.56
			c1.68-0.35,3.39-0.55,5.11-0.42l-4.75,1.69c-1.55,0.58-3.08,1.19-4.58,1.85c-1.5,0.65-2.95,1.4-4.39,2.19
			c-1.44,0.8-2.78,1.74-4.2,2.71C146.3,57.23,147.48,55.92,148.85,54.86z M134.53,92.38c0.23-4.05,1.05-8.08,2.36-11.97
			c1.33-3.87,3.13-7.64,5.58-11.01c2.41-3.38,5.46-6.36,8.98-8.59c1.75-1.11,3.64-2.02,5.59-2.69c0.98-0.32,1.97-0.61,2.99-0.8
			c1.01-0.19,2.03-0.32,3.05-0.3c-0.98,0.28-1.91,0.65-2.82,1.04c-0.91,0.4-1.81,0.82-2.66,1.31c-1.73,0.93-3.34,2.05-4.87,3.25
			c-3.04,2.41-5.7,5.26-7.95,8.43c-2.28,3.14-4.15,6.59-5.81,10.17C137.29,84.83,135.92,88.57,134.53,92.38z M142.25,106.38
			c-0.38-0.91-0.74-1.9-1.03-3.11c0.89-0.87,1.71-1.53,2.52-2.1c0.8-0.58,1.58-1.07,2.35-1.49c1.51-0.83,2.96-1.41,4.34-1.77
			c2.62-0.69,5.03-0.66,7.29-0.09c-1.61,2.12-2.67,4.31-3.29,6.55c-0.63,2.28-0.75,4.61-0.35,7.01c0.38,1.91,1.03,3.85,2.45,5.89
			c-1.31,0-2.57-0.19-3.78-0.54c-2.36-0.69-4.56-1.96-6.52-4.05c-0.98-1.03-1.9-2.29-2.75-3.79
			C143.04,108.13,142.64,107.29,142.25,106.38z M222.39,181.22l-78.17-3.12c5.04-2.58,9.09-4.42,12.8-5.74h0.01l65.43,2.61h0.01
			c0.39,0.12,0.77,0.26,1.15,0.38L222.39,181.22z M224.64,108.9c-0.44,0.89-0.9,1.69-1.37,2.41c-0.95,1.44-1.96,2.62-3.02,3.59
			c-1.88,1.72-3.89,2.79-6,3.38c0.3-0.24,0.59-0.49,0.87-0.73c1.09-0.98,2-1.98,2.8-2.99c1.65-2.15,2.74-4.38,3.34-6.66
			c0.49-1.83,0.67-3.71,0.51-5.62c0.58,0.4,1.17,0.83,1.77,1.32c0.76,0.64,1.53,1.34,2.36,2.28
			C225.52,107.06,225.09,108.01,224.64,108.9z M243.38,117.6c-1.84,13.07-5.43,25.75-9.98,38c2.97-12.73,5.68-25.49,6.91-38.36
			c0.57-6.43,0.85-12.88,0.42-19.26c-0.27-3.17-0.55-6.35-1.17-9.46c-0.61-3.11-1.42-6.16-2.52-9.1
			c-2.14-5.88-5.51-11.29-10.12-15.44c-2.28-2.1-4.84-3.89-7.59-5.37c-0.68-0.38-1.4-0.69-2.1-1.04c-0.72-0.32-1.44-0.63-2.16-0.93
			c-1.47-0.58-2.95-1.12-4.47-1.54c-3.04-0.9-6.18-1.49-9.35-1.89c-3.17-0.41-6.39-0.58-9.62-0.57c-3.23-0.03-6.47,0.16-9.7,0.47
			c-1.61,0.15-3.23,0.35-4.84,0.59c-1.61,0.23-3.22,0.51-4.82,0.83c3.09-1.08,6.28-1.87,9.5-2.52c1.61-0.33,3.24-0.58,4.87-0.81
			c1.63-0.22,3.27-0.4,4.92-0.53c6.58-0.47,13.31-0.19,19.85,1.42c6.54,1.52,12.86,4.58,18.05,9.07
			c5.19,4.52,8.96,10.52,11.32,16.86c1.16,3.19,2,6.47,2.61,9.77l0.41,2.48c0.11,0.83,0.2,1.66,0.3,2.49l0.14,1.25l0.09,1.24
			c0.06,0.83,0.12,1.67,0.16,2.5C244.69,104.43,244.32,111.07,243.38,117.6z"/>
		<path class="st1" d="M144.14,305.88c0,0.01,0,0.01-0.01,0.02C144.14,305.89,144.14,305.89,144.14,305.88
			C144.14,305.88,144.14,305.88,144.14,305.88z"/>
		<path class="st1" d="M146.7,298.98l-0.07,0.01c0,0-0.02,0.05-0.06,0.16c-0.01,0.02-0.02,0.04-0.03,0.07
			c-0.02,0.03-0.03,0.07-0.05,0.11c-0.02,0.03-0.03,0.07-0.05,0.11c-0.07,0.18-0.16,0.43-0.28,0.72c-0.02,0.06-0.05,0.11-0.07,0.17
			c-0.03,0.08-0.06,0.16-0.09,0.24c-0.05,0.12-0.1,0.26-0.15,0.4c-0.14,0.39-0.3,0.82-0.48,1.32c-0.03,0.1-0.07,0.2-0.11,0.31
			c-0.22,0.62-0.46,1.31-0.72,2.08c-0.05,0.13-0.09,0.26-0.13,0.39c-0.09,0.26-0.18,0.54-0.27,0.82c5.47-1.91,9.84-5.24,13.03-9.96
			c3.99-5.88,4.58-11.8,4.58-11.86c0.01-0.12,0.05-0.24,0.1-0.35l-9.63-0.62"/>
		<path class="st1" d="M233.6,267.76c-0.02-0.02-0.02-0.02-0.02-0.02c0.01-0.07,0.02-0.15,0.02-0.22c0.05-0.41,0.09-0.83,0.12-1.25
			l-79.86-0.5c0.05,0.24,0.1,0.48,0.15,0.7c0.13,0.62,0.26,1.22,0.37,1.78c0.16,0.8,0.31,1.52,0.44,2.16l31.89,0.51
			c0.18,0.01,0.35,0.05,0.51,0.13l46.44-3.21C233.63,267.79,233.61,267.77,233.6,267.76z"/>
		<polygon class="st1" points="173.5,282.19 186.34,283.01 185.63,273.16 175.44,273 		"/>
		<path class="st1" d="M234.27,259.79c0.05-0.76,0.11-1.51,0.15-2.27c0.06-0.89,0.12-1.77,0.18-2.65l-83.55-1.23
			c0.27,1.08,0.53,2.14,0.78,3.18c0.11,0.45,0.22,0.9,0.32,1.35c0.07,0.3,0.14,0.6,0.22,0.9c0.03,0.14,0.06,0.28,0.09,0.41
			l81.79,0.51C234.26,259.94,234.27,259.87,234.27,259.79z"/>
	</g>
</g>
</svg>
