<?xml version="1.0" encoding="utf-8"?>
<!-- Generator: Adobe Illustrator 23.0.3, SVG Export Plug-In . SVG Version: 6.00 Build 0)  -->
<svg version="1.1" id="圖層_1" xmlns="http://www.w3.org/2000/svg" xmlns:xlink="http://www.w3.org/1999/xlink" x="0px" y="0px"
	 viewBox="0 0 60 60" style="enable-background:new 0 0 60 60;" xml:space="preserve">
<style type="text/css">
	.st0{fill:#343535;}
	.st1{fill:#00B276;}
	.st2{fill:#7C5AA5;}
	.st3{fill:#F13E00;}
	.st4{fill:#F76559;}
	.st5{fill:#00ACE5;}
</style>
<g>
	<path class="st0" d="M49.09,60H10.91C4.91,60,0,55.09,0,49.09V10.91C0,4.91,4.91,0,10.91,0h38.18C55.09,0,60,4.91,60,10.91v38.18
		C60,55.09,55.09,60,49.09,60z"/>
	<g>
		<path id="path0_fill_2_" class="st1" d="M23.73,48.8c3.46,0,6.27-2.81,6.27-6.27v-6.27h-6.27c-3.46,0-6.27,2.81-6.27,6.27
			C17.47,45.99,20.27,48.8,23.73,48.8z"/>
		<path id="path1_fill_4_" class="st2" d="M17.47,30c0-3.46,2.81-6.27,6.27-6.27H30v12.53h-6.27C20.27,36.27,17.47,33.46,17.47,30z"
			/>
		<path id="path1_fill_1_" class="st3" d="M17.47,17.47c0-3.46,2.81-6.27,6.27-6.27H30v12.53h-6.27
			C20.27,23.73,17.47,20.93,17.47,17.47z"/>
		<path id="path2_fill_2_" class="st4" d="M30,11.2h6.27c3.46,0,6.27,2.81,6.27,6.27s-2.81,6.27-6.27,6.27H30V11.2z"/>
		<path id="path3_fill_2_" class="st5" d="M42.53,30c0,3.46-2.81,6.27-6.27,6.27S30,33.46,30,30c0-3.46,2.81-6.27,6.27-6.27
			S42.53,26.54,42.53,30z"/>
	</g>
</g>
</svg>
