<?xml version="1.0" encoding="utf-8"?>
<!-- Generator: Adobe Illustrator 23.0.3, SVG Export Plug-In . SVG Version: 6.00 Build 0)  -->
<svg version="1.1" id="圖層_1" xmlns="http://www.w3.org/2000/svg" xmlns:xlink="http://www.w3.org/1999/xlink" x="0px" y="0px"
	 viewBox="0 0 40 40" style="enable-background:new 0 0 40 40;" xml:space="preserve">
<style type="text/css">
	.st0{fill:#FFFFFF;}
</style>
<g>
	<path class="st0" d="M20,12.7c-4,0-7.3,3.3-7.3,7.3s3.3,7.3,7.3,7.3s7.3-3.3,7.3-7.3S24,12.7,20,12.7z M20,25.4
		c-3,0-5.4-2.4-5.4-5.4s2.4-5.4,5.4-5.4s5.4,2.4,5.4,5.4S23,25.4,20,25.4z"/>
	<path class="st0" d="M25.8,8.8H14.2c-3,0-5.4,2.4-5.4,5.4v11.6c0,3,2.4,5.4,5.4,5.4h11.6c3,0,5.4-2.4,5.4-5.4V14.2
		C31.2,11.2,28.8,8.8,25.8,8.8z M25.8,29.5H14.2c-2,0-3.7-1.7-3.7-3.7V14.2c0-2,1.7-3.7,3.7-3.7h11.6c2,0,3.7,1.7,3.7,3.7v11.6
		C29.5,27.8,27.8,29.5,25.8,29.5z"/>
	<circle class="st0" cx="27" cy="13.1" r="1.3"/>
</g>
</svg>
