<?xml version="1.0" encoding="utf-8"?>
<!-- Generator: Adobe Illustrator 23.0.3, SVG Export Plug-In . SVG Version: 6.00 Build 0)  -->
<svg version="1.1" id="圖層_1" xmlns="http://www.w3.org/2000/svg" xmlns:xlink="http://www.w3.org/1999/xlink" x="0px" y="0px"
	 viewBox="0 0 40 40" style="enable-background:new 0 0 40 40;" xml:space="preserve">
<style type="text/css">
	.st0{fill-rule:evenodd;clip-rule:evenodd;fill:#FFFFFF;}
</style>
<g>
	<g>
		<path class="st0" d="M27.1,20c0-3.9-3.2-7.1-7.1-7.1c-3.9,0-7.1,3.2-7.1,7.1c0,3.9,3.2,7.1,7.1,7.1C23.9,27.1,27.1,23.9,27.1,20
			L27.1,20z M27,11.9c-0.6,0-1.1,0.5-1.1,1.1c0,0.6,0.5,1.1,1.1,1.1c0.6,0,1.1-0.5,1.1-1.1C28.1,12.5,27.6,11.9,27,11.9L27,11.9z
			 M14.2,10.3h11.6c2.1,0,3.9,1.8,3.9,3.9v11.6c0,2.1-1.8,3.9-3.9,3.9H14.2c-2.1,0-3.9-1.8-3.9-3.9V14.2
			C10.3,12.1,12.1,10.3,14.2,10.3L14.2,10.3z M25.8,9H14.2C11.3,9,9,11.3,9,14.2v11.6c0,2.9,2.3,5.2,5.2,5.2h11.6
			c2.9,0,5.2-2.3,5.2-5.2V14.2C31,11.3,28.7,9,25.8,9L25.8,9z M14.4,20c0-3.1,2.5-5.6,5.6-5.6s5.6,2.5,5.6,5.6
			c0,3.1-2.5,5.6-5.6,5.6S14.4,23.1,14.4,20L14.4,20z"/>
	</g>
</g>
</svg>
