<?xml version="1.0" encoding="utf-8"?>
<!-- Generator: Adobe Illustrator 23.0.3, SVG Export Plug-In . SVG Version: 6.00 Build 0)  -->
<svg version="1.1" id="圖層_1" xmlns="http://www.w3.org/2000/svg" xmlns:xlink="http://www.w3.org/1999/xlink" x="0px" y="0px"
	 viewBox="0 0 40 40" style="enable-background:new 0 0 40 40;" xml:space="preserve">
<style type="text/css">
	.st0{fill:#FFFFFF;}
</style>
<g>
	<g>
		<path class="st0" d="M20,12.7c-4,0-7.3,3.3-7.3,7.3s3.3,7.3,7.3,7.3s7.3-3.3,7.3-7.3S24,12.7,20,12.7z M20,25.4
			c-3,0-5.4-2.4-5.4-5.4s2.4-5.4,5.4-5.4s5.4,2.4,5.4,5.4S23,25.4,20,25.4z"/>
		<path class="st0" d="M20,27.4c-4.1,0-7.4-3.3-7.4-7.4c0-4.1,3.3-7.4,7.4-7.4c4.1,0,7.4,3.3,7.4,7.4C27.4,24.1,24.1,27.4,20,27.4z
			 M20,12.8c-4,0-7.2,3.2-7.2,7.2c0,4,3.2,7.2,7.2,7.2c4,0,7.2-3.2,7.2-7.2C27.2,16,24,12.8,20,12.8z M20,25.5c-3,0-5.5-2.5-5.5-5.5
			s2.5-5.5,5.5-5.5s5.5,2.5,5.5,5.5S23,25.5,20,25.5z M20,14.7c-2.9,0-5.3,2.4-5.3,5.3s2.4,5.3,5.3,5.3s5.3-2.4,5.3-5.3
			S22.9,14.7,20,14.7z"/>
	</g>
	<g>
		<path class="st0" d="M25.8,8.8H14.2c-3,0-5.4,2.4-5.4,5.4v11.6c0,3,2.4,5.4,5.4,5.4h11.6c3,0,5.4-2.4,5.4-5.4V14.2
			C31.2,11.2,28.8,8.8,25.8,8.8z M25.8,29.5H14.2c-2,0-3.7-1.7-3.7-3.7V14.2c0-2,1.7-3.7,3.7-3.7h11.6c2,0,3.7,1.7,3.7,3.7v11.6
			C29.5,27.8,27.8,29.5,25.8,29.5z"/>
		<path class="st0" d="M25.8,31.3H14.2c-3,0-5.5-2.5-5.5-5.5V14.2c0-3,2.5-5.5,5.5-5.5h11.6c3,0,5.5,2.5,5.5,5.5v11.6
			C31.3,28.8,28.8,31.3,25.8,31.3z M14.2,8.9c-2.9,0-5.3,2.4-5.3,5.3v11.6c0,2.9,2.4,5.3,5.3,5.3h11.6c2.9,0,5.3-2.4,5.3-5.3V14.2
			c0-2.9-2.4-5.3-5.3-5.3H14.2z M25.8,29.6H14.2c-2.1,0-3.8-1.7-3.8-3.8V14.2c0-2.1,1.7-3.8,3.8-3.8h11.6c2.1,0,3.8,1.7,3.8,3.8
			v11.6C29.6,27.9,27.9,29.6,25.8,29.6z M14.2,10.6c-2,0-3.6,1.6-3.6,3.6v11.6c0,2,1.6,3.6,3.6,3.6h11.6c2,0,3.6-1.6,3.6-3.6V14.2
			c0-2-1.6-3.6-3.6-3.6H14.2z"/>
	</g>
	<g>
		<circle class="st0" cx="27" cy="13.1" r="1.3"/>
		<path class="st0" d="M27,14.5c-0.8,0-1.4-0.6-1.4-1.4s0.6-1.4,1.4-1.4s1.4,0.6,1.4,1.4S27.8,14.5,27,14.5z M27,11.8
			c-0.7,0-1.2,0.6-1.2,1.2s0.6,1.2,1.2,1.2s1.2-0.6,1.2-1.2S27.6,11.8,27,11.8z"/>
	</g>
</g>
</svg>
