<?xml version="1.0" encoding="utf-8"?>
<!-- Generator: Adobe Illustrator 23.0.3, SVG Export Plug-In . SVG Version: 6.00 Build 0)  -->
<svg version="1.1" id="圖層_1" xmlns="http://www.w3.org/2000/svg" xmlns:xlink="http://www.w3.org/1999/xlink" x="0px" y="0px"
	 viewBox="0 0 200 200" style="enable-background:new 0 0 200 200;" xml:space="preserve">
<style type="text/css">
	.st0{fill:#F8B93D;}
</style>
<text transform="matrix(1 0 0 1 -76.7778 388)" style="font-family:'AdobeMingStd-Light-B5pc-H'; font-size:12px;">滾滾長江東逝水</text>
<g>
	<circle class="st0" cx="100" cy="100" r="100"/>
	<g>
		<path d="M48.3,67.3l-0.2,0.1C48.2,67.4,48.3,67.3,48.3,67.3z"/>
		<path d="M62.1,51.7C62.1,51.8,62.1,51.8,62.1,51.7C62.1,51.8,62.1,51.8,62.1,51.7z"/>
		<path d="M45.4,77.3C45.4,77.3,45.4,77.3,45.4,77.3c0,0-0.1,0-0.1,0L45.4,77.3z"/>
		<path d="M41.2,65c-0.3,1.5-0.6,2.7-0.7,3.8c-0.1,1.1,0,2.4,1,4.1c0.7,1.8,2.2,3.4,3.9,4.5c0.6,0,1.2,0.3,1.8,0.6
			c0.6,0.3,1.2,0.6,1.8,0.4c0.1,0.2,0.2,0.4,0.3,0.6c0.4-0.1,0.9-0.2,1.2,0.1l0,0.1c0.6-0.3,1.1,0,1.4-0.2l0,0.1
			c0.2,0,0.4,0,0.6-0.1l-0.1,0.2c0.9-0.4,1.7-0.5,2.5-0.5l-0.2-0.6c0.8,0.2,1.3-0.1,1.8-0.4c0.4-0.3,0.8-0.6,1.6-0.5l0,0.1
			c0.5-1.1,1.1-1.2,1.9-1.4c0.7-0.2,1.5-0.5,1.6-1.6c0,0.3,0.3,0.1,0.4,0.3c0.5-0.7,0.9-1.4,0-2.1c0.3-0.4,0.5-0.1,0.9,0.1
			c-0.4-0.3-0.3-0.8-0.1-1.1l0,0.3c0.2-0.3,0.3-0.7,0.5-1l-0.9-0.3c0.5-0.3,1.1,0.5,1.2-0.1L63,69.9c0.5-0.6,1.8-0.4,2.7-0.9
			c1.8-2.9,0.9-6.6,3-9l0.6,0c0.8,0.2-1-1.1-0.2-1l-0.3-0.4c0.2-0.1,0.4-0.2,0.5,0c0.1-0.3,0-0.3-0.2-0.6l0.6-0.2
			c0.3-0.6,0.3-1.2,0.2-1.8c-0.1-0.2-0.1-0.8-0.1-1.2c0-0.5,0.1-0.9,0.2-1.4c0.7-1.2,0.8-3.2,0.1-4.5c-0.3-0.7-0.9-1.3-1.5-1.8
			c-0.6-0.4-1.3-0.7-1.9-0.8c-0.5,0-0.9-0.1-1.3-0.2c-0.4-0.1-0.8-0.2-1.2-0.4c-0.8-0.3-1.6-0.6-2.6-0.8c-0.9-0.2-2-0.3-3-0.1
			c-0.5,0.1-1,0.3-1.5,0.5c-0.1,0.1-0.2,0.1-0.3,0.2c-0.1,0.1-0.2,0.1-0.3,0.2c-0.2,0.1-0.3,0.3-0.4,0.5c-0.1-0.1-0.3,0.3-0.2,0.4
			c-0.8,0.4-1.7,0.9-2.4,1.6c0,0-0.7,0.5-1.4,1.5c-0.7,1-1.3,2.3-1.3,3.5c0,1.2,0.5,2,1.5,2c0.5,0,1.1-0.1,1.9-0.3
			c0.8-0.2,1.7-0.4,2.8-0.4l0.1,0.1c0.8-0.3,1.1-0.4,0.8-1.5c0.8,0.8,0.6-0.3,0.9-0.1l0,0.1c-0.1-1,1.2,0.2,1-0.6
			c0,0.1,0.1,0.4,0.1,0.4c0.1-0.2,0.3-0.5,0.4,0.2c0.1-0.1,0.3-0.1,0.5-0.2c0.2-0.1,0.4-0.3,0.8-0.8L61.5,52
			c0.5-0.7,0.3-0.1,0.7-0.4c0,0.1-0.1,0.1-0.1,0.2c0.3-0.3,0.5-0.3,0.7-0.2c0.1,0.1,0.2,0.2,0.4,0.2l-0.4,0.4
			c0.1,0.1,0.2,0.2,0.3,0.3c0-0.1,0-0.1,0-0.2c0.6-0.4,0.5-0.2,0.3,0.1c-0.2,0.3-0.5,0.6-0.1,0.5c-0.1,0.2,0.6,0,1.2,0
			c0.6,0,1.1,0.2,0.8,0.5c0.6,0.1-0.9,0-0.5,0.2c-0.7,0.1-0.4-0.1-0.9,0.1c0.3,0.3-0.7,0.5-0.3,0.7l-0.5,0c0.2,0.1,0.3,0.2,0.3,0.3
			c0,0.1-0.1,0.3-0.2,0.4c-0.2,0.3-0.4,0.5-0.1,0.8c0.3,0.8-1.5,0.2-0.7,1.1L61.5,57c-0.2,0.3,0.8,0.4,0.4,0.7
			c-0.4-0.1-0.4,0.3-0.8,0c-0.8,0.6,0.5,1.8-0.9,2.4c0.7,0.5,0.1,0.8,0.6,1.1c-0.3-0.1-0.4,0.9-0.9,0.2c0-0.1,0-0.1,0.1-0.1
			l-0.4-0.2c-1.1,0.2,0.1,1.1-0.2,1.6c0.2-0.1,0.3-0.3,0.5-0.1l-0.3,0.5l-0.3-0.3l-0.5,0.6l0.5,0.1c-0.4,0.3-1.2,0-0.7,0.7
			c0.3,0.3,0.8,0,0.8,0.4c-0.5,0.3-1.3,0.7-1.7,1.1c0.5,0.2,0.4,0.4,0.5,0.6l-0.4-0.2c0.3,0.9-1.1-0.4-0.9,0.4l-0.3-0.2l0.8,0.7
			c0.5,1-1-0.4-0.2,0.9c0.1-0.2,0.9,0.6,0.6,0.7l-0.3-0.4c0,0.2,0.1,0.4,0,0.4c-0.1-0.2-0.5-0.5-0.6-0.3l-0.4-0.5
			c0.1,0.3,0.3,0.6,0.4,0.9c-0.6-0.1-0.5,0.7-1,0.3c0,0-0.2,0-0.3,0.2c-0.1,0.1-0.2,0.3,0,0.6c-0.2-0.4-0.5-0.4-0.8-0.9
			c0.2,0.5,0.1,1.1-0.3,0.6l0-0.1c-0.4-0.1-0.5,0.1-0.6,0.4c-0.1,0.2-0.3,0.5-0.6,0.2c0.1,0.6-0.2,0.3,0,1c-0.2,0.4-0.6,0.1-0.7-0.1
			c-0.2-0.2-0.3-0.2-0.5,0.9c-0.3,0.1-0.2-0.6-0.3-0.7l0.1-0.1c-0.4,0.1-0.5,0-0.8-0.1c-0.2,0.1-0.8,1-0.9,0.6
			c0.3-0.3,0.2-0.3,0.1-0.4c0.1,0,0.2-0.1,0.3-0.4c-0.1,0.1-0.2,0.1-0.2,0.2c0,0,0,0,0.1-0.1c-0.2,0-0.3,0.1-0.3,0.2
			c0,0-0.1,0.1-0.2,0.2c0.2-0.5-0.5-0.4,0.1-0.9c-0.5-0.3-1.4-0.4-1.9-1c0.3-0.2,0.7-0.2,0.9-0.1c-0.1-0.1-0.2-0.2-0.3-0.4
			c0.5-0.2,0.4,0.1,0.5,0.2c0.3-0.4,0-0.5-0.2-0.7c-0.3-0.2-0.6-0.5-0.2-0.8L48,67.4l0.1,0c-0.2,0-0.5-0.1-0.6-0.2
			c0.5-0.1,1.1-0.1,1-0.4c0.4-0.2-0.2-0.7-0.4-1.1c-0.1,0.2-0.4,0.1-0.5,0c0-0.2,0.5-0.2,0.3-0.4l0.6,0.1c-0.6,0-0.6-0.5-0.8-0.7
			c0.5,0,0.3,0.3,0.7,0.4c0.1-0.7,0-0.3,0.1-1.1c-0.4-0.5-0.6-0.1-1.1-0.4c0-0.4-0.4-0.9,0.1-1.2l-0.6,0c-0.2-0.8,0-1.3,0.7-1.5
			c-1.2-3.4-2.4-4.3-3.5-4.3c-1.1,0-1.9,1-1.9,1c-1,0.9-1.3,1.9-1.3,3C41,61.9,41.1,63.2,41.2,65z"/>
	</g>
	<g>
		<path d="M137.6,66.5l-0.2,0.1C137.5,66.6,137.6,66.6,137.6,66.5z"/>
		<path d="M149.8,59.8C149.8,59.9,149.8,59.9,149.8,59.8C149.8,59.9,149.8,59.9,149.8,59.8z"/>
		<path d="M130.7,74.2L130.7,74.2C130.7,74.2,130.7,74.2,130.7,74.2L130.7,74.2z"/>
		<path d="M130.8,63.3c-0.4,1.4-0.8,2.2-1.2,3.1c-0.3,0.9-0.5,1.9-0.1,3.4c0.1,1.5,0.6,3,1.1,4.3c1,0.4,0.6,1.7,1.6,2.3
			c-0.1,0.2-0.2,0.3-0.3,0.5c0.4,0.2,0.7,0.5,0.7,1l-0.1,0.1c0.6,0.3,0.8,0.9,1.1,1l-0.1,0.1c0.2,0.2,0.3,0.3,0.5,0.5l-0.2,0.1
			c1,0.5,1.8,1,2.5,1.6l0.2-0.5c0.7,0.7,1.3,0.8,1.9,0.8c0.6,0,1.2,0,2,0.4l0,0.1c0.6-0.4,1-0.5,1.4-0.5c0.4,0,0.8,0.1,1.1,0.1
			c0.7,0.1,1.6,0.2,2.1-0.8c-0.1,0.2,0.2,0.2,0.2,0.4c0.7-0.4,1.4-0.9,0.9-1.9c0.5-0.2,0.6,0.1,0.8,0.5c-0.2-0.4,0.1-0.8,0.4-1.1
			l0,0.3l0.8-0.8l-0.7-0.6c0.6-0.1,0.8,0.9,1.1,0.3l-0.5-0.6c0.7-0.3,1.8,0.2,2.9,0.1c1.4-1.1,2.2-2.8,2.9-4.4
			c0.7-1.6,1.2-3.1,2.3-4.3l0.6,0.1c0.8,0.2-0.9-1.2-0.1-1.1l-0.3-0.5c0.2-0.1,0.4-0.2,0.5,0c0.1-0.3,0-0.4-0.2-0.7l0.6-0.2
			c0.3-0.6,0.3-1.3,0.2-1.9c-0.1-0.7-0.2-1.3-0.1-2c0.3-0.5,0.4-1.3,0.5-2.1c0-0.8-0.2-1.7-0.5-2.5c-0.4-0.8-0.9-1.5-1.5-1.9
			c-0.6-0.5-1.3-0.8-1.9-1c-0.9-0.2-1.7-0.4-2.5-0.8c-0.5-0.2-0.6-0.4-0.9-0.6c-0.2-0.2-0.5-0.4-0.7-0.6c-0.9-0.9-1.8-1.7-3.2-1.4
			c0-0.1-0.3,0.1-0.4,0.1c-0.7-0.3-1.6-0.6-2.8-0.7c0,0-0.3,0-0.7,0c-0.2,0-0.5,0-0.9,0.1c-0.4,0.1-0.7,0.1-1.2,0.3
			c-1.9,0.7-3.3,2.4-3.5,4.4c-0.1,1,0.3,1.9,0.7,2.3c0.2,0.2,0.5,0.3,0.7,0.3c0.2,0,0.4-0.1,0.6-0.2c0.4-0.3,0.8-0.8,1.5-1.1
			c0.3-0.1,0.7-0.1,1.1,0c0.2,0.1,0.4,0.1,0.6,0.2c0.1,0.1,0.2,0.1,0.3,0.2l0.1,0.1c0,0,0,0,0,0l0,0c0,0-0.1-0.1-0.1-0.2
			c0-0.1-0.1-0.1-0.1-0.2l0,0l0,0l0,0l0,0c0.1,0.5-0.3-1.1,0.3,1.1l0,0l0,0l0,0l0,0l0,0.1c0,0,0-0.3,0.2-0.7c0,0.6,0,0.6,0.2,0.6
			c0.1,0,0.3-0.2,0.4,0l0,0.1c0.7-0.7,0.8,1,1.7,0.5c-0.1,0.1-0.2,0.4-0.3,0.3c0.5,0,1.2,0,1,0.6c0.6,0.1,1.2,0.4,1.8,0.5
			c0.3,0.1,0.6,0.1,0.9,0.1c0.2,0,0.2-0.1,0.3-0.1c0.1-0.1,0.2-0.2,0.2-0.3l-0.1,0.2c0.5-0.6,0.3,0,0.6-0.3c0,0.1-0.1,0.1-0.1,0.2
			c0.3-0.3,0.5-0.2,0.6-0.1c0.1,0.1,0.2,0.3,0.4,0.2l-0.4,0.3c0.1,0.1,0.2,0.2,0.3,0.3c0-0.1,0-0.1,0-0.2c0.6-0.4,0.5-0.1,0.3,0.1
			c-0.2,0.3-0.5,0.5,0,0.5c-0.1,0.2,0.6,0.1,1.2,0.2c0.6,0.1,1.1,0.3,0.8,0.6c0.6,0.2-0.9-0.2-0.5,0.2c-0.6,0-0.4-0.1-0.9,0
			c0.3,0.2-0.7,0.5-0.3,0.9l-0.5,0c0.8,0.7-0.8,1,0,1.5c0.3,0.7-1.5,0.1-0.7,0.9l-0.7,0.1c-0.2,0.2,0.8,0.4,0.3,0.6
			c-0.4-0.1-0.4,0.2-0.8,0c-0.4,0.2-0.3,0.6-0.3,0.9c0.1,0.4,0,0.8-0.7,0.9c0.7,0.5,0,0.7,0.5,1.1c-0.3-0.1-0.5,0.7-0.9-0.1
			c0-0.1,0-0.1,0.1,0l-0.4-0.3c-1-0.1,0,1-0.4,1.3c0.2,0,0.3-0.2,0.5,0.1l-0.3,0.3l-0.3-0.3c-0.2,0.1-0.4,0.2-0.6,0.3l0.5,0.3
			c-0.4,0.1-1.1-0.4-0.8,0.3c0.2,0.4,0.7,0.2,0.6,0.6c-0.6,0.1-1.3,0.1-1.8,0.3c0.4,0.4,0.3,0.5,0.3,0.7l-0.3-0.4
			c0,0.9-0.8-0.7-0.9,0l-0.2-0.3l0.5,0.9c0.1,1.1-0.8-0.7-0.5,0.7c0.1-0.2,0.7,0.9,0.3,0.8l-0.2-0.4c-0.1,0.2,0,0.4-0.1,0.3
			c-0.1-0.3-0.3-0.6-0.4-0.5l-0.2-0.6c0,0.3,0.1,0.6,0.1,0.9c-0.4-0.4-0.6,0.4-0.9-0.2c0,0-0.5-0.2-0.5,0.6c0-0.5-0.3-0.6-0.3-1.1
			c0,0.3-0.1,0.5-0.1,0.6c0,0.1-0.1,0.1-0.1-0.2l0-0.1c-0.1-0.3-0.1-0.1-0.2,0.1c-0.1,0.2-0.3,0.3-0.2-0.1c-0.3,0.5-0.2,0.2-0.6,0.8
			c-0.4,0.2-0.3-0.2-0.2-0.4c0.1-0.2,0-0.2-0.9,0.4c-0.2-0.1,0.3-0.5,0.4-0.6l0.1,0c-0.1-0.1-0.3-0.3-0.4-0.4
			c-0.1-0.1-0.1-0.3-0.2-0.5c-0.3-0.1-1.3,0.2-1.2-0.4c0.4,0,0.3-0.1,0.3-0.3c0.1,0.1,0.2,0.1,0.5-0.2c-0.1,0-0.2,0-0.3,0
			c0,0,0.1,0,0.1,0c-0.2-0.2-0.3-0.1-0.4,0c-0.1,0-0.1,0-0.2,0.1c0.4-0.4-0.2-0.8,0.5-1c-0.3-0.8-1.1-1.3-1.5-2
			c0.4-0.1,0.7,0.1,0.9,0.2c-0.1-0.2-0.1-0.3-0.2-0.5c0.5,0,0.3,0.3,0.4,0.4c0.4-0.3,0.2-0.6,0-0.9c-0.2-0.3-0.4-0.7,0-1l-0.4-0.2
			l0.1,0c-0.2,0-0.5-0.2-0.6-0.3c0.5-0.1,1.1,0.1,1.1-0.2c0.5-0.2-0.1-0.8-0.3-1.2c-0.1,0.2-0.4,0.1-0.5,0c0-0.2,0.5-0.2,0.3-0.4
			l0.6,0.1c-0.6-0.1-0.5-0.6-0.8-0.7c0.5,0,0.3,0.4,0.7,0.5c0.1-0.7,0.1-0.3,0.2-1c-0.3-0.5-0.6-0.1-1.1-0.5c0-0.4-0.3-0.9,0.2-1.1
			l-0.6-0.1c-0.1-0.8,0.1-1.2,0.8-1.3c-0.4-1.7-0.7-2.9-1.1-3.7c-0.4-0.8-0.9-1.1-1.5-1.3c-0.5-0.1-1.1,0.1-1.5,0.3
			c-0.4,0.2-0.7,0.5-0.7,0.5c-1.3,0.9-1.7,2-1.8,3.2C130.9,60.5,130.9,61.7,130.8,63.3z"/>
	</g>
	<g>
		<path d="M62.8,116.4l0.1,0.4C62.9,116.7,62.9,116.6,62.8,116.4z"/>
		<path d="M137.4,118.2C137.4,118.2,137.4,118.1,137.4,118.2C137.4,118.2,137.4,118.2,137.4,118.2z"/>
		<path d="M67.6,131.7L67.6,131.7c-0.1,0-0.1,0-0.1,0L67.6,131.7z"/>
		<path d="M54.5,117.9c3,3.9,3.1,5.6,7.1,9c1.7,1.8,3.9,3.4,5.9,4.8c1.4,0.1,2.6,2,4.2,2.2l0.2,0.7c0.5,0.1,1.1,0.3,1.4,0.7
			l-0.1,0.1c0.8,0.1,1.4,0.7,1.8,0.7l-0.1,0.1c0.3,0.1,0.5,0.3,0.8,0.4l-0.2,0.1c0.6,0.1,1.2,0.4,1.8,0.6c0.6,0.3,1.1,0.6,1.6,0.9
			l0.2-0.6c1.9,1.7,3.2,0.9,5,2.4l-0.1,0.1c1.6-0.3,2.5,0.4,3.5,0.9c1,0.6,2.1,1.1,3.6,0.8c-0.4,0.1,0.1,0.3,0,0.5
			c1.4,0.1,2.8,0.3,3-0.9c0.9,0.1,0.7,0.5,0.8,0.9c0.1-0.5,0.9-0.6,1.7-0.6l-0.4,0.2c0.7,0,1.4,0,2.2,0l-0.4-1
			c1.1,0.3,0.2,1.2,1.3,0.9l0-0.8c0.8,0.1,1.4,0.4,2,0.8c0.6,0.3,1.3,0.8,2.1,1c3.3-0.1,6.6-1.4,9.5-2.7c2.9-1.3,5.6-2.8,8.5-3.4
			l0.5,0.4c0.5,0.7,0.8-1.9,1.4-1.3l0.4-0.7c0.2,0,0.7,0,0.5,0.3c0.6-0.3,0.5-0.4,0.8-0.8l0.8,0.1c2.3-0.8,3.5-2.8,5.8-4
			c3.2-0.7,7.3-4.9,9.4-7.5c0.7-1,1.6-1.8,2.6-2.5c1-0.7,2.1-1.4,3.2-2c2.2-1.3,4.4-2.8,5.4-5c0.2,0,0.3-0.5,0.2-0.6
			c1-1,2-2.1,3-3.1c0,0,0.2-0.2,0.6-0.7c0.3-0.4,0.8-1,1.3-1.7c0.5-0.7,1.1-1.5,1.6-2.3c0.5-0.8,1-1.6,1.3-2.4
			c0.6-1.5,0.8-2.8-0.2-3.1c-0.5-0.2-1.2-0.1-2.3,0.2c-0.5,0.2-1.2,0.4-1.9,0.7c-0.7,0.3-1.6,0.7-2.5,1.2l-0.1-0.2
			c-1.7,1.5-2.7,2.5-3,4.2c-1-0.6-1.3,1.3-1.9,1.4l0-0.1c-0.3,1.6-2.4,1.5-2.8,3c0-0.1-0.2-0.3,0-0.6c-0.6,0.8-1.3,1.9-1.8,1.5
			c-1.5,1.7-4,3.6-4.4,5.3l0-0.2c-0.2,1.1-0.8,0.8-1.2,1.7c-0.1,0-0.2,0-0.2-0.1c-0.2,1.1-2,1.7-2.4,2.4l-0.3-0.3l-1.4,1.2l0.6-0.3
			c0.5,1.1-1.5,0.2-2.1,1.6c-1.1,0.6-0.6,3.5-2,3.8c-0.2,0.8-0.1-1.1-0.6-0.2c-0.4-0.5,0.1-0.6-0.3-0.9c-0.6,0.7-1.6,0.3-2.3,1.2
			l-0.3-0.4c-0.7,1.5-2.6,0.9-3,2.1c-1.1,1.1-1.6-0.8-2.4,0.8l-0.8-0.3c-0.6,0.2,0,0.9-0.8,1c-0.2-0.4-1,0.1-0.8-0.4
			c-1.7,0.2-2.5,2.3-4.9,2.2c-0.1,0.9-1.3,0.9-1.3,1.6c-0.2-0.3-2,0.7-1.2-0.5c0.1-0.1,0.2-0.1,0.3,0l0-0.5c-1.4-0.5-1.8,1.2-3,1.4
			c0.4,0.1,0.8-0.1,0.6,0.3c-0.3,0.1-0.7,0.2-1,0.2l0.1-0.5c-0.5,0.1-1,0.1-1.6,0.2l0.3,0.4c-0.8-0.1-1.2-0.9-1.9,0
			c-0.3,0.5,0.8,0.6,0.1,0.8c-0.5-0.1-1.2-0.2-1.9-0.3c-0.7-0.1-1.4-0.2-2-0.3c0.1,0.6-0.2,0.6-0.6,0.7l-0.1-0.5
			c-1.4,0.7-0.5-1.1-1.8-0.6l0.1-0.3l-0.4,1c-1.3,0.9-0.6-1.1-2,0.2c0.6,0,0.2,1.1-0.5,0.8l0.2-0.5c-0.4,0.1-0.5,0.2-0.8,0.1
			c0.3-0.2,0.2-0.7-0.3-0.7l0.4-0.5c-0.4,0.2-0.8,0.5-1.2,0.7c-0.7-0.7-2.1-0.3-2.2-1c0,0-0.4-0.2-0.9-0.3c-0.5-0.1-1-0.2-1.3,0.1
			c0.5-0.3-0.4-0.8,0-1.2c-0.6,0.4-2,0.3-2.3-0.4l0.1,0c-0.8-0.6-1.7-0.7-2.5-0.9c-0.8-0.2-1.6-0.3-2.3-1.1c-0.2,0.6-0.9-0.2-1,0.6
			c-2-0.2-2.2-3-4-1.4c-0.8-0.4-0.6-1-0.9-1.3l0.2,0c-1.4-0.7-1.8-1-2.8-1.8c-0.6-0.2-1.3,0.6-2-0.3c0.5-0.1,0.1-0.3-0.2-0.6
			c0.2,0.1,0.4,0,0.2-0.5c-0.1,0.1-0.3,0-0.4,0c0,0,0-0.1,0.1-0.1c-0.6-0.3-0.6-0.1-0.4,0.1c-0.1,0-0.1,0.1-0.1,0.3
			c-0.2-0.9-1.6-1.2-1.1-1.9c-1.7-1.2-3.2-1.7-4.7-2.7c0.1-0.4,0.6-0.3,1.1-0.1l-1-0.8c0.4-0.4,0.7,0.3,1.1,0.5
			c-0.4-1.6-2.7-1.5-3.3-3.3l-0.6,0l0-0.1c-0.2,0.2-0.7,0.1-0.9-0.1c0.2-0.5,0.8-0.7,0.2-1.3c-0.1-0.8-1.4-1.3-2.2-1.8
			c0.3,0.4,0,0.5-0.3,0.4c-0.3-0.3-0.1-0.8-0.5-0.9l0.5-0.4c-0.3,0.5-1.2-0.4-1.5-0.4c0.2-0.5,0.7,0.3,1.1,0.1
			c-1.1-1.3-0.6-0.6-1.7-1.9c-1-0.4-0.4,0.5-1.1,0.5c-0.6-0.6-1.5-0.9-1.8-1.9l-0.2,0.6c-1.3-0.9-1.8-1.7-2-2.9
			c-5.3-3.2-6.9-2.7-7.2-1.5c-0.3,1.3,0.8,3.3,0.8,3.3C47.9,113,50.6,114,54.5,117.9z"/>
	</g>
	<g>
		<path d="M92.9,80.3l-0.1-0.2C92.8,80.2,92.8,80.3,92.9,80.3z"/>
		<path d="M87.9,94C87.9,94,87.9,94,87.9,94C87.9,94,87.9,94,87.9,94z"/>
		<path d="M87,73.7L87,73.7C87,73.7,87,73.7,87,73.7L87,73.7z"/>
		<path d="M93.5,73c-1.7-0.1-2.3-1.1-4-0.3c-0.9,0.1-1.7,0.6-2.4,1c-0.1,0.9-1,0.4-1.2,1.2l-0.4-0.4c-0.1,0.3-0.1,0.5-0.4,0.3l0-0.1
			c-0.1,0.4-0.4,0.4-0.4,0.6l-0.1-0.1l-0.2,0.2l0-0.2c-0.2,0.5-0.5,0.8-1,0.8l0.3,0.5c-1-0.1-0.6,1-1.6,0.8l-0.1-0.1
			c0,0.9-0.4,0.9-0.9,1c-0.5,0-1.1,0.3-1,1.2c0-0.2-0.3-0.1-0.4-0.2c-0.3,0.6-0.6,1.2,0.4,1.8c-0.2,0.3-0.5,0.1-0.9-0.1
			c0.2,0.1,0.3,0.2,0.3,0.4c0.1,0.2,0.1,0.4,0,0.6l-0.1-0.2c-0.1,0.3-0.1,0.6-0.2,0.9l0.9,0.2c-0.4,0.3-1.1-0.3-1,0.2l0.7,0.2
			c-0.3,0.5-1.5,0.6-2.2,1.2c-0.3,1.4,0.2,2.6,0.7,3.6c0.5,1,0.9,1.8,0.5,2.9l-0.5,0.3c-0.8,0.3,1.4,0.1,0.6,0.4l0.4,0.1
			c-0.1,0.1-0.2,0.3-0.5,0.3c0,0.2,0.2,0.2,0.5,0.2L79,92.5c-0.1,0.9,1.1,1.1,1.3,1.9c-0.5,1.4,1.4,2.6,2.4,3.1c1,0.2,1,1.1,1.2,2.1
			c0.2,0.9,0.4,1.9,1.5,1.9c0,0.1,0.2,0,0.3-0.1c0.3,0.3,0.7,0.7,1,1c0,0,0.3,0.3,0.8,0.6c0.5,0.3,1.2,0.5,1.8,0.5
			c0.7-0.1,1.3-0.4,1.7-1.3c0.4-0.9,0.7-2.3,0.9-4.3l0.1-0.1c-0.2-0.7-0.4-1-1.3-0.5c0.7-0.9-0.3-0.4-0.1-0.8l0.1-0.1
			c-0.9,0.4,0-1-0.8-0.7c0.1-0.1,0.3-0.3,0.4-0.2c-0.3-0.1-0.7-0.1-0.2-0.6c-0.5-0.3-0.8-1.1-1.8-0.7l0.2-0.1
			c-0.7,0.3-0.2-0.2-0.7-0.1c0.1-0.1,0.1-0.1,0.1-0.1c-0.7,0.2-0.5-0.5-0.8-0.5l0.4-0.3c-0.1-0.1-0.2-0.2-0.3-0.3l0,0.2
			c-1.1,0.6,0.5-0.7-0.4-0.6c0-0.3-2.5,0.7-2.2,0.1c-0.6,0.1,0.9-0.3,0.4-0.3c0.6-0.3,0.4-0.1,0.8-0.4c-0.4-0.1,0.4-0.6-0.1-0.7
			l0.4-0.2c-1,0,0.3-0.9-0.6-0.8c-0.5-0.2,1.3-0.8,0.2-0.8l0.6-0.4c0-0.2-0.8,0.2-0.6-0.1c0.4-0.1,0.3-0.3,0.7-0.4
			c0.5-0.6-1.2-0.5-0.2-1.3c-0.8,0.1-0.4-0.3-1-0.2c0.3-0.1,0-0.5,0.8-0.4c0.1,0,0.1,0-0.1,0.1l0.5-0.1c0.9-0.4-0.6-0.3-0.5-0.6
			c-0.2,0.1-0.1,0.2-0.4,0.2l0-0.2l0.4,0c0.1-0.1,0.1-0.2,0.2-0.3l-0.5,0.1c0.3-0.2,1.1-0.2,0.4-0.3c-0.4-0.1-0.7,0.1-0.8,0
			c0.3-0.2,0.9-0.3,1-0.3c-0.6-0.1-0.5-0.1-0.6-0.2l0.5,0.1c-0.6-0.3,1.1,0.3,0.5,0.1l0.3,0.1c-0.3-0.1-0.7-0.2-1-0.4
			c-0.9-0.5,1,0.4-0.2-0.3c0.1,0.1-0.7-0.3-0.8-0.4c0,0,0,0,0,0l0.4,0.3c-0.1-0.1-0.2-0.2-0.1-0.2c0.2,0.2,0.6,0.4,0.5,0.3l0.5,0.3
			c-0.2-0.2-0.5-0.4-0.7-0.6c0.5,0.3,0-0.2,0.6,0.2c0,0,0.3,0.2-0.1-0.5c0.3,0.4,0.5,0.4,0.8,0.9c-0.3-0.4-0.3-0.9,0.1-0.5l0,0.1
			c0.6,0.2,0.2-1.1,0.9-0.7c-0.3-0.5,0-0.3-0.4-0.9c0.1-0.9,1.4,1,0.6-1.2c0.1-0.2,0.5,0.4,0.6,0.4l0,0.1c0.3-0.3,0.4-0.4,0.7-0.5
			c0.1-0.3-0.3-1.3,0.1-1.1c0.1,0.4,0.1,0.3,0.2,0.3c0,0.1,0,0.2,0.2,0.5c0-0.1,0-0.2,0-0.3c0,0,0,0.1,0,0.1c0.1-0.2,0-0.3,0-0.3
			c0-0.1,0-0.1-0.1-0.2c0.3,0.5,0.5-0.2,0.7,0.5c0.4-0.3,0.6-1.1,1-1.5c0.1,0.4,0.1,0.7,0,0.9l0.3-0.2c0.1,0.5-0.1,0.3-0.2,0.5
			c0.5,0.8,0.6-1,1.1-0.3l0-0.4l0,0.1c0-0.2,0-0.5,0.1-0.6c0.1,0.5,0.1,1.1,0.3,1c0.2,0.4,0.4-0.3,0.7-0.5c-0.1-0.1-0.1-0.3-0.1-0.5
			c0.1,0,0.2,0.4,0.3,0.2l0,0.6c-0.1-0.6,0.3-0.7,0.3-0.9c0.1,0.5-0.2,0.4-0.2,0.8c0.4-0.1,0.2,0,0.6-0.1c0.2-0.5,0-0.6,0.1-1.1
			c0.2-0.1,0.4-0.6,0.7-0.2l-0.1-0.6c0.4-0.4,0.7-0.3,0.9,0.3c0.9-1.1,1.5-1.9,1.9-2.7c0.4-0.7,0.5-1.4,0.4-1.9
			c-0.1-1-0.9-1.6-0.9-1.6c-0.8-0.7-1.4-0.7-2.1-0.4C95.1,72.2,94.4,72.7,93.5,73z"/>
	</g>
</g>
</svg>
