<?xml version="1.0" encoding="utf-8"?>
<!-- Generator: Adobe Illustrator 23.0.3, SVG Export Plug-In . SVG Version: 6.00 Build 0)  -->
<svg version="1.1" id="圖層_1" xmlns="http://www.w3.org/2000/svg" xmlns:xlink="http://www.w3.org/1999/xlink" x="0px" y="0px"
	 viewBox="0 0 200 200" style="enable-background:new 0 0 200 200;" xml:space="preserve">
<style type="text/css">
	.st0{fill:#F2B33D;}
	.st1{fill:#040000;}
</style>
<g>
	<circle class="st0" cx="106.5" cy="101" r="92.5"/>
</g>
<g>
	<path class="st1" d="M67.1,163c-1.2-9.2-5.6-17.8-8.4-22.6l-4.4,1.6c2.9,5,6.8,13.2,8.1,22.1L67.1,163z"/>
	<path class="st1" d="M75.8,160.8c-1.1-9.7-5.9-18.8-8.7-23.5l-4.4,1.6c2.9,5.1,7.1,13.7,8.4,23L75.8,160.8z"/>
	<path class="st1" d="M58.3,165.2c-1.2-8.7-5.3-16.9-8-21.7l-4.4,1.6c2.8,5,6.4,12.8,7.7,21.2L58.3,165.2z"/>
	<path class="st1" d="M49.5,167.3c-1.2-8.3-5-16-7.7-20.8l-2.2,0.8L21.5,104c0,0,8.5-31.3-2.4-10.6c0,0-2.9-12.9-7.6-17.6l0.5,1.9
		c0.3,1.4,0.7,2.7,0.9,4.1c0.6,2.7,1.2,5.5,1.7,8.2c-0.9-2.7-1.7-5.3-2.5-8c-0.4-1.3-0.8-2.7-1.1-4L10,74.7
		c-0.9-0.5-1.8-0.7-2.7-0.5c0,0.1,0.1,0.2,0.1,0.3l0.9,3.3L9,81.1c0.3,1.1,0.5,2.2,0.8,3.3c0.5,2.2,0.9,4.5,1.3,6.7
		C10.3,89,9.6,86.8,9,84.7c-0.3-1.1-0.6-2.2-0.9-3.3l-0.9-3.3l-0.8-3.3c0-0.1,0-0.1,0-0.2c-0.8,0.4-1.5,1-2,1.8
		c0.1,0.6,0.2,1.1,0.4,1.7l0.6,3l0.5,3c0.2,1,0.3,2,0.5,3c0.3,2,0.6,4,0.7,6c-0.6-1.9-1.1-3.9-1.6-5.9c-0.2-1-0.4-2-0.7-3l-0.6-3
		l-0.5-3c0-0.2-0.1-0.3-0.1-0.5c-3,6.8-0.4,21.1,7.4,28.3L26.7,173L49.5,167.3z"/>
	<path class="st1" d="M139.2,177.2c0-0.6,0.1-1.2,0.1-1.8l-58.6-2.3l0.1,0.4c0.4,1.4,0.8,2.8,1.2,4.3l57,0.8
		C139.1,178.1,139.2,177.7,139.2,177.2z"/>
	<polygon class="st1" points="140,166.9 78.4,164.4 79.6,168.9 139.7,171.3 	"/>
	<polygon class="st1" points="76.1,155.8 77.3,160.2 140.3,162.7 140.6,158.4 	"/>
	<path class="st1" d="M168.7,160.6c-7.3,5.5-12.6,13.2-15.2,17.5l1.7,1.5l5.4-3.6c0,0,0,0,0.1,0c3-3.9,6.9-8.4,11.6-12L168.7,160.6z
		 M164.7,84.7c-2.4-14.8-5.2-30.9-14.1-43.3c-4.9-6.8-11.3-11-18.4-13.2c-9.1-2.8-19.4-2.2-29.3,0.6c-3.2,0.9-7.3,3.6-10.5,4
		c-1.6,0.2-3.1,0.5-4.6,0.9l0,0C75.7,37.4,69.2,50.1,66.7,62c-0.6,2.9-1.1,5.8-1.6,8.7c-0.2,1.3-0.4,2.6-0.5,3.9c-0.1,0-0.1,0-0.2,0
		l-0.4,0h-0.2c-0.1,0-0.1,0-0.2,0c-0.4,0-0.9,0.1-1.3,0.2c-0.8,0.2-1.5,0.7-2.1,1.1c-1.1,1-1.8,2.2-2.3,3.5
		c-0.4,1.3-0.6,2.7-0.5,4.2c0,0.7,0.2,1.5,0.3,2.2c0.2,0.7,0.4,1.5,0.8,2.2c0.3,0.7,0.8,1.4,1.3,2.1c0.4,0.5,0.8,0.9,1.3,1.3
		c0.4,0.4,0.9,0.8,1.4,1.2c0.4,0.3,0.7,0.5,1.1,0.8c-0.1,13.6,1.1,27.6,2.9,39.7c0,0,6.6,0.6,7.7,0.7c-0.4,0.2-0.8,0.4-1.2,0.7
		c-0.2,0.1-0.5,0.3-0.8,0.4l57.7,2.3l-0.9,4.1l-57.5-2.3l1,3.8l55.7,2.2l-0.5,2.7l13.6-1.6l2.9-0.3c-1.1,1.1-2.1,2.2-3.1,3.4l0,0.6
		l-67.5-2.7l1.2,4.4l66,2.6l-0.2,3.6c2.9-4,6.9-8.8,11.9-12.8l-0.1-0.1l12.1-1.4c2.2-6.6,3.1-14.8,3.2-23.2
		C168,108,166.3,95,164.7,84.7z M98.9,38.4c1.1-0.8,2.2-1.6,3.5-2.3c2.4-1.4,5-2.4,7.7-3.1c1.4-0.3,2.7-0.6,4.1-0.7
		c1.4-0.1,2.8-0.2,4.2-0.1c2.8,0.2,5.5,0.7,8.1,1.8c-2.7-0.3-5.4-0.4-8.1-0.3c-1.3,0.1-2.6,0.2-4,0.4c-0.3,0-0.7,0.1-1,0.1
		c-0.3,0.1-0.7,0.1-1,0.2l-1,0.2l-1,0.2c-2.6,0.6-5.1,1.5-7.5,2.6c-1.2,0.5-2.4,1.1-3.6,1.8c-1.2,0.6-2.4,1.3-3.5,2.1
		C96.8,40.1,97.9,39.2,98.9,38.4z M102.7,41.9c2.5-1.2,5.2-2.2,8-2.6c0.7-0.1,1.4-0.2,2.1-0.3c0.7,0,1.4-0.1,2.1-0.1
		c1.4,0,2.9,0.1,4.3,0.3c2.8,0.4,5.5,1.5,7.8,3c-1.3-0.4-2.6-0.8-4-1l-0.5-0.1l-0.5-0.1l-1-0.1c-0.7-0.1-1.3-0.2-2-0.2
		c-0.7,0-1.3,0-2-0.1c-0.7,0-1.3,0-2,0.1c-1.3,0.1-2.7,0.2-4,0.5c-2.7,0.5-5.2,1.2-7.8,2.1c-2.6,0.9-5.1,2-7.5,3.3
		C97.8,44.6,100.2,43.1,102.7,41.9z M97.9,94.6c0.1,0.6,0.5,1.2,0.9,2c0.5,0.7,1,1.5,1.5,2.5c-1.1,0-2.1-0.4-3-1
		c-0.5-0.3-0.9-0.7-1.2-1.2c-0.4-0.5-0.7-1.1-0.8-1.7c-0.2-0.7-0.1-1.4,0-2c0.2-0.6,0.5-1.2,0.9-1.6c0.8-0.9,1.8-1.4,3-1.4
		c-0.5,1-0.9,1.8-1.2,2.6C97.8,93.4,97.8,94,97.9,94.6z M117.6,81.5c1.4-1.3,2.9-2,4.5-2.4c0.3-0.1,0.7-0.1,1-0.1
		c-0.1,0.1-0.2,0.2-0.2,0.3c-1.1,1.4-1.8,2.9-2.2,4.4c-0.4,1.5-0.5,3.1-0.2,4.7c0.2,1.2,0.6,2.4,1.4,3.6c-0.7-0.1-1.4-0.2-2.1-0.5
		c-0.9-0.3-1.8-0.8-2.8-1.4c-0.5-0.3-1-0.7-1.5-1.1c-0.5-0.4-1-0.9-1.6-1.5c0.2-0.8,0.5-1.4,0.8-2c0.3-0.6,0.6-1.1,0.9-1.6
		C116.2,83,116.9,82.2,117.6,81.5z M115.7,74.9c0.5-1.4,1.8-2.5,3.1-3.2c1.4-0.7,2.9-1,4.5-1.1c1.5-0.1,3,0.1,4.4,0.5
		c1.4,0.4,2.8,1,3.9,2c-1.5,0.2-2.9,0.3-4.2,0.4l-3.9,0.2c-1.3,0.1-2.5,0.2-3.7,0.3C118.5,74.3,117.2,74.5,115.7,74.9z M116.1,120.8
		l-0.4,4.2l-16.6-0.7l0.1-4.2L116.1,120.8z M114.3,105.8c-0.5,0.7-1,1.2-1.6,1.8c-0.6,0.5-1.2,1-1.9,1.4c-0.4,0.2-0.9,0.5-1.3,0.6
		c-1,0.5-2.1,0.8-3.3,0.9c-1.3,0.1-2.7,0-4-0.4c-0.3-0.1-0.6-0.2-0.9-0.4c-1.5-0.7-2.9-1.9-3.4-3.5c1.5,0.6,2.9,0.9,4.2,1
		c1.3,0.2,2.6,0.1,3.9,0c1.3-0.1,2.6-0.4,4-0.7c0.7-0.2,1.4-0.3,2.1-0.5C112.7,106.1,113.4,105.9,114.3,105.8z M95.6,87.2
		c-0.6,0.6-1.1,1-1.7,1.4c-0.5,0.4-1.1,0.7-1.6,1c-0.8,0.4-1.5,0.7-2.2,1c0.2-0.2,0.4-0.3,0.6-0.5c0.7-0.6,1.3-1.3,1.9-2
		c0.9-1.2,1.6-2.4,2-3.7c0.1,0.2,0.2,0.4,0.3,0.7C95.2,85.7,95.4,86.3,95.6,87.2z M94.8,74.2c-1.5-0.5-2.7-0.9-3.9-1.1
		c-1.2-0.2-2.5-0.4-3.7-0.6L83.3,72c-1.3-0.2-2.7-0.4-4.2-0.7c1.2-0.9,2.6-1.4,4-1.8c1.4-0.3,2.9-0.4,4.4-0.2c1.5,0.2,3,0.6,4.4,1.4
		C93.2,71.6,94.4,72.8,94.8,74.2z M82.5,41.7c0.4-0.3,0.8-0.6,1.2-0.8c0.9-0.4,1.8-0.5,2.8-0.5c0.9,0,1.8,0.2,2.7,0.6
		c0.8,0.3,1.7,0.7,2.3,1.3c-0.9-0.2-1.7-0.4-2.6-0.5c-0.9-0.1-1.7-0.2-2.5-0.3c-0.8,0-1.6,0-2.4,0.2c-0.8,0.2-1.6,0.5-2.4,1
		C81.9,42.3,82.2,42,82.5,41.7z M81.8,49.6c0.9-0.7,1.9-1.3,3-1.8c1.1-0.5,2.1-0.8,3.3-1c1.1-0.2,2.3-0.4,3.4-0.3l-3.2,1.1
		c-1,0.4-2,0.8-3,1.2c-1,0.4-2,0.9-2.9,1.5c-1,0.5-1.8,1.2-2.8,1.8C80,51.1,80.8,50.3,81.8,49.6z M72.2,74.5c0.2-2.7,0.7-5.4,1.6-8
		c0.9-2.6,2.1-5.1,3.7-7.3c1.6-2.2,3.6-4.2,6-5.7c1.2-0.7,2.4-1.3,3.7-1.8c0.7-0.2,1.3-0.4,2-0.5c0.7-0.1,1.3-0.2,2-0.2
		c-0.6,0.2-1.3,0.4-1.9,0.7c-0.6,0.3-1.2,0.5-1.8,0.9c-1.2,0.6-2.2,1.4-3.2,2.2c-2,1.6-3.8,3.5-5.3,5.6c-1.5,2.1-2.8,4.4-3.9,6.8
		C74.1,69.5,73.2,72,72.2,74.5z M77.4,83.8c-0.2-0.6-0.5-1.3-0.7-2.1c0.6-0.6,1.2-1,1.7-1.4c0.5-0.4,1.1-0.7,1.6-1
		c1-0.6,2-0.9,2.9-1.2c1.8-0.5,3.4-0.4,4.9-0.1c-1.1,1.4-1.8,2.9-2.2,4.4C85,84,85,85.6,85.2,87.2c0.3,1.3,0.7,2.6,1.6,3.9
		c-0.9,0-1.7-0.1-2.5-0.3c-1.6-0.5-3-1.3-4.3-2.7c-0.7-0.7-1.3-1.5-1.8-2.5C77.9,85,77.6,84.5,77.4,83.8z M130.7,133.7l-52-2.1
		c3.4-1.7,6-2.9,8.5-3.8l43.6,1.7h0c0.2,0.1,0.5,0.2,0.8,0.2L130.7,133.7z M132.2,85.5c-0.3,0.6-0.6,1.1-0.9,1.6
		c-0.6,1-1.3,1.8-2,2.4c-1.2,1.2-2.6,1.9-4,2.2c0.2-0.2,0.4-0.3,0.6-0.5c0.7-0.6,1.3-1.3,1.9-2c1.1-1.4,1.8-2.9,2.2-4.4
		c0.3-1.2,0.4-2.5,0.3-3.8c0.4,0.3,0.8,0.5,1.2,0.9c0.5,0.4,1,0.9,1.6,1.5C132.8,84.3,132.5,84.9,132.2,85.5z M144.7,91.3
		c-1.2,8.7-3.6,17.1-6.6,25.3c2-8.5,3.8-17,4.6-25.5c0.4-4.3,0.6-8.6,0.3-12.8c-0.2-2.1-0.4-4.2-0.8-6.3c-0.4-2.1-1-4.1-1.7-6
		c-1.4-3.9-3.7-7.5-6.7-10.3c-1.5-1.4-3.2-2.6-5.1-3.6c-0.5-0.2-0.9-0.5-1.4-0.7c-0.5-0.2-1-0.4-1.4-0.6c-1-0.4-2-0.7-3-1
		c-2-0.6-4.1-1-6.2-1.3c-2.1-0.3-4.3-0.4-6.4-0.4c-2.1,0-4.3,0.1-6.4,0.3c-1.1,0.1-2.2,0.2-3.2,0.4c-1.1,0.2-2.1,0.3-3.2,0.5
		c2.1-0.7,4.2-1.2,6.3-1.7c1.1-0.2,2.2-0.4,3.2-0.5c1.1-0.1,2.2-0.3,3.3-0.4c4.4-0.3,8.9-0.1,13.2,1c4.3,1,8.6,3,12,6
		c3.5,3,6,7,7.5,11.2c0.8,2.1,1.3,4.3,1.7,6.5l0.3,1.7c0.1,0.5,0.1,1.1,0.2,1.7l0.1,0.8l0.1,0.8c0,0.6,0.1,1.1,0.1,1.7
		C145.6,82.6,145.3,87,144.7,91.3z M155.5,148c-7.5,5.9-12.9,14-15.2,18l3.5,3.2c2.8-4.5,8-12,15.3-17.8L155.5,148z M162.1,154.3
		c-7.4,5.7-12.7,13.6-15.2,17.7l3.5,3.2c2.9-4.6,8.1-12,15.3-17.5L162.1,154.3z"/>
	<path class="st1" d="M130.7,190.2c-4,1.1-8.1,1.9-12.4,2.5c0,0,0,0,0,0l-10.5,0.7l-0.5,0c0,0,0,0-0.1,0c-0.1,0-0.2,0-0.3-0.1
		l-5.8-0.1c-5.4-0.3-10.7-1.1-15.8-2.3c0-0.2-0.1-0.4-0.1-0.6c0-0.2-0.1-0.3-0.1-0.5L130.7,190.2z"/>
	<path class="st1" d="M138.6,186c0-0.5,0.1-1,0.1-1.5c0-0.6,0.1-1.2,0.1-1.8l-55.6-0.8c0.2,0.7,0.4,1.4,0.5,2.1
		c0.1,0.3,0.1,0.6,0.2,0.9c0,0.2,0.1,0.4,0.1,0.6c0,0.1,0,0.2,0.1,0.3l54.5,0.3C138.6,186.1,138.6,186,138.6,186z"/>
</g>
</svg>
