<?xml version="1.0" encoding="utf-8"?>
<!-- Generator: Adobe Illustrator 23.0.3, SVG Export Plug-In . SVG Version: 6.00 Build 0)  -->
<svg version="1.1" id="圖層_1" xmlns="http://www.w3.org/2000/svg" xmlns:xlink="http://www.w3.org/1999/xlink" x="0px" y="0px"
	 viewBox="0 0 200 223" style="enable-background:new 0 0 200 223;" xml:space="preserve">
<style type="text/css">
	.st0{fill:#F2B33D;}
	.st1{fill:#040000;}
</style>
<g>
	<path class="st0" d="M192.42,100.18c0,42.97-29.3,79.09-69,89.48c-3.77,1-7.64,1.75-11.59,2.26c-0.53,0.07-1.07,0.13-1.6,0.18
		c-0.17,0.03-0.35,0.05-0.52,0.06c-3.22,0.35-6.48,0.52-9.79,0.52c-3.61,0-7.17-0.21-10.67-0.62c-0.03,0.01-0.06,0-0.09-0.01
		c-0.52-0.05-1.04-0.11-1.56-0.19c-3.88-0.51-7.68-1.27-11.39-2.25c-39.6-10.47-68.79-46.54-68.79-89.43
		c0-40.38,25.86-74.69,61.92-87.32h0.01c2.42-0.86,4.88-1.61,7.39-2.26h0.01c2.07-0.53,4.18-1,6.3-1.39h0.02
		c5.46-1,11.09-1.53,16.85-1.53c3.13,0,6.24,0.16,9.29,0.47h0.02c2.4,0.23,4.77,0.57,7.11,0.99h0.03c2.79,0.5,5.54,1.13,8.23,1.88
		h0.01c7.94,2.18,15.44,5.41,22.37,9.52c5.48,3.24,10.6,7.03,15.28,11.31C180.79,48.76,192.42,73.11,192.42,100.18z"/>
</g>
<g>
	<g>
		<path class="st1" d="M123.41,23.7c2.81,3.71,6.44,5.7,10.82,5.96c-0.12-0.33-0.24-0.67-0.36-0.99c-0.09-0.23-0.17-0.45-0.26-0.68
			c-0.05-0.12-0.09-0.24-0.13-0.36c-0.11-0.28-0.22-0.57-0.34-0.84c-0.01-0.01-0.01-0.02-0.01-0.03c-0.13-0.31-0.25-0.61-0.38-0.92
			c-0.02-0.06-0.05-0.13-0.07-0.18c-0.1-0.24-0.2-0.47-0.3-0.71c-0.05-0.13-0.11-0.26-0.16-0.38c-0.15-0.36-0.31-0.71-0.46-1.05
			c-0.42-0.94-0.84-1.83-1.26-2.68c-0.12-0.24-0.24-0.49-0.36-0.73c-0.01-0.01-0.01-0.01-0.01-0.03c-0.23-0.45-0.45-0.88-0.67-1.31
			c-0.15-0.28-0.3-0.55-0.44-0.82c-0.08-0.15-0.16-0.29-0.24-0.44c-0.15-0.27-0.3-0.53-0.45-0.79c-0.05-0.09-0.1-0.17-0.15-0.26
			c0.03,0.06,0.07,0.12,0.11,0.18l-8.18,0.54C120.51,18.54,121.52,21.19,123.41,23.7z"/>
		<path class="st1" d="M127.42,15.23l-12.07,0.8l-1.23-6.74l2.22-0.15h0.03c2.79,0.5,5.54,1.13,8.23,1.88h0.01
			c0.31,0.43,0.64,0.9,0.99,1.4c0.13,0.18,0.26,0.37,0.39,0.57C126.45,13.67,126.93,14.42,127.42,15.23z"/>
		<path class="st1" d="M127.76,213.69l-0.72-4.21c-0.76,0.4-1.54,0.88-2.29,1.44C125.75,212.02,126.76,212.95,127.76,213.69z"/>
		<path class="st1" d="M138.77,214.14c-0.68-2-1.83-4.34-3.27-6.85c-0.41,0.01-0.88,0.05-1.41,0.1l0,0l3.25,7.74
			C138.01,214.77,138.5,214.38,138.77,214.14z"/>
		<path class="st1" d="M141.17,71.88c-0.01-0.51-0.01-1.02-0.03-1.53c-0.01-0.46-0.02-0.92-0.03-1.36
			c-0.03-1.12-0.07-2.22-0.13-3.31c-0.02-0.46-0.05-0.92-0.07-1.37c-0.03-0.59-0.07-1.19-0.11-1.77c-0.03-0.45-0.07-0.9-0.1-1.35
			c-0.09-1.08-0.18-2.14-0.28-3.18c-0.05-0.47-0.1-0.94-0.15-1.4c-0.01-0.1-0.02-0.2-0.03-0.3c-0.05-0.4-0.09-0.8-0.15-1.21
			c-0.06-0.47-0.12-0.95-0.18-1.42c-0.05-0.37-0.1-0.74-0.15-1.1c-0.15-1.02-0.3-2.02-0.45-3c-0.07-0.45-0.15-0.88-0.22-1.32
			c-0.08-0.45-0.16-0.9-0.24-1.35c-0.15-0.84-0.32-1.66-0.48-2.47c-0.16-0.79-0.33-1.57-0.51-2.33c-0.11-0.49-0.22-0.98-0.34-1.46
			c-0.17-0.71-0.34-1.39-0.51-2.07c-0.01-0.02-0.01-0.04-0.01-0.06c-0.1-0.38-0.2-0.75-0.3-1.11c-0.1-0.37-0.2-0.73-0.31-1.09
			c-0.1-0.36-0.2-0.71-0.31-1.07c-0.07-0.25-0.15-0.5-0.22-0.74c-0.16-0.51-0.32-1.03-0.48-1.54c-0.09-0.27-0.17-0.53-0.26-0.8
			c-0.11-0.34-0.22-0.66-0.34-0.98c-11.4-0.3-15.37-11.13-16.19-13.86L98.8,18.63l1.62,21.88c0.37,4.96-2.2,9.72-6.55,12.14
			c-0.11,0.07-0.24,0.09-0.36,0.09c-0.13,0-0.24-0.03-0.36-0.09c-0.22-0.13-0.38-0.35-0.4-0.61l-2.38-33.23l-14.85-0.96
			c0.03,0.09,0.04,0.18,0.03,0.28c-0.01,0.18-0.43,4.32-3.27,8.52c-1.86,2.75-5.06,5.87-10.38,7.45c0.08-0.25,0.15-0.49,0.22-0.72
			c-0.08,0.25-0.16,0.5-0.24,0.76c-0.07,0.2-0.13,0.42-0.2,0.63c-0.04,0.15-0.09,0.28-0.13,0.43c-0.06,0.18-0.11,0.38-0.17,0.57
			c-0.11,0.36-0.21,0.73-0.32,1.1c-0.09,0.34-0.19,0.68-0.29,1.03c-0.24,0.88-0.5,1.81-0.75,2.79c-0.05,0.18-0.09,0.36-0.14,0.54
			c-0.78,3.07-1.58,6.61-2.31,10.6c-0.07,0.36-0.13,0.73-0.2,1.1c-0.02,0.11-0.04,0.21-0.06,0.32c-0.24,1.33-0.46,2.72-0.68,4.14
			c-0.02,0.13-0.04,0.26-0.06,0.38c-0.11,0.73-0.21,1.47-0.32,2.22c-0.01,0.09-0.02,0.18-0.04,0.28c-0.12,0.86-0.23,1.73-0.34,2.62
			c-0.06,0.44-0.11,0.89-0.16,1.34c-0.11,0.9-0.2,1.81-0.29,2.75c-0.03,0.29-0.06,0.58-0.08,0.88c-0.05,0.59-0.11,1.17-0.16,1.77
			c-0.07,0.9-0.15,1.8-0.2,2.72c-0.04,0.61-0.08,1.23-0.12,1.85c-0.07,1.12-0.12,2.25-0.17,3.41c-0.01,0.38-0.03,0.77-0.04,1.15
			c-0.01,0.51-0.03,1.03-0.05,1.56c-0.01,0.52-0.02,1.05-0.03,1.58c-0.05,2.73-0.03,5.53,0.05,8.42c0.03,0.9,0.06,1.81,0.1,2.74
			c0,0.06,0.01,0.11,0.01,0.17c0.05,1.11,0.11,2.23,0.17,3.35c0.03,0.57,0.07,1.13,0.11,1.7c0.04,0.56,0.08,1.12,0.13,1.68
			c0.04,0.47,0.07,0.96,0.12,1.44c0.04,0.45,0.08,0.91,0.13,1.36c0.06,0.67,0.13,1.34,0.2,2.02c0.05,0.51,0.11,1.02,0.17,1.52
			c0.05,0.47,0.11,0.96,0.16,1.43c0.02,0.18,0.05,0.36,0.07,0.55c0.06,0.44,0.11,0.88,0.17,1.33c0.01,0.08,0.02,0.16,0.03,0.24
			c0.06,0.44,0.12,0.88,0.18,1.31c0.03,0.21,0.06,0.43,0.09,0.65c0.05,0.38,0.11,0.77,0.17,1.15c0.02,0.16,0.05,0.34,0.07,0.51
			c0.07,0.45,0.13,0.9,0.21,1.35c0.02,0.16,0.05,0.32,0.07,0.48c0.06,0.38,0.12,0.75,0.18,1.13c0.09,0.57,0.2,1.15,0.3,1.73
			c0.09,0.53,0.18,1.05,0.28,1.58c0.09,0.51,0.19,1.03,0.3,1.56c0.2,1.03,0.41,2.08,0.63,3.13c0.1,0.45,0.2,0.9,0.29,1.36
			c0.15,0.67,0.3,1.35,0.46,2.03c0.13,0.56,0.26,1.11,0.4,1.67c0.8,3.34,1.71,6.74,2.74,10.17c0.06,0.21,0.13,0.43,0.19,0.64
			c0.05,0.17,0.1,0.34,0.15,0.51c0.01,0.04,0.03,0.09,0.04,0.13c0.2,0.66,0.41,1.32,0.62,1.99c0.51,1.6,1.04,3.2,1.6,4.81
			c0.37,1.07,0.75,2.16,1.15,3.24c0.2,0.54,0.4,1.08,0.6,1.62c0.61,1.62,1.25,3.26,1.91,4.9c0.67,1.64,1.36,3.29,2.08,4.95
			c0.96,2.2,1.98,4.42,3.05,6.66c0.06,0.13,0.12,0.25,0.18,0.38l16.9-3.92c-0.07-2.75-0.13-5.54-0.13-8.4
			c0.03-13.11,0.06-26.22,0.09-39.33c0.04-16.58-0.53-33.27,0.12-49.83c0.01-0.01,0.42-10.57,0.42-10.57l9.6-4.1
			c1.88,37.24,3.76,74.48,5.64,111.71l17.83,4.14c3.68-12.89,8.32-30.93,11.62-50.19c3.67-17.86,5.04-33.23,4.94-46.36
			C141.18,72.38,141.18,72.13,141.17,71.88z"/>
		<path class="st1" d="M133.86,217.52c-0.12,0-0.23-0.01-0.35-0.01c-3.41-0.13-6.86-2.16-10.28-6.04c-0.06-0.04-0.12-0.09-0.17-0.15
			c-0.04-0.05-0.07-0.1-0.1-0.16l-0.01-0.01c-0.41-0.47-0.82-0.98-1.23-1.51c-5.84-7.57-10.1-14.85-12.64-19.64
			c0.64,2.47,1.5,4.89,2.66,7.22c4.32,8.67,13.44,22.59,24.14,23.21c3.23,0.19,4.03-1.7,3.33-4.75
			C138.22,216.47,136.37,217.52,133.86,217.52z"/>
		<path class="st1" d="M97.25,17.99c-0.01-0.19,0.04-0.39,0.18-0.54c0.13-0.16,0.32-0.25,0.52-0.27l12.41-0.81l-1.54-6.7
			l-17.51,1.21l2.85,39.82c3.21-2.27,5.06-6.1,4.76-10.08L97.25,17.99z M95,17.93c-1.47,0-2.62-1.48-2.62-3.37s1.15-3.37,2.62-3.37
			s2.62,1.48,2.62,3.37S96.46,17.93,95,17.93z"/>
		<polygon class="st1" points="113.84,16.14 112.61,9.41 110.33,9.56 111.87,16.27 		"/>
		<ellipse class="st1" cx="95" cy="14.56" rx="1.12" ry="1.87"/>
		<path class="st1" d="M133.44,216.01c0.03,0.01,0.07,0.01,0.1,0.01c0.9,0.04,1.71-0.09,2.42-0.31l-3.4-8.1l0,0
			c-0.53,0.1-1.1,0.22-1.69,0.38L133.44,216.01L133.44,216.01z"/>
		<path class="st1" d="M77.15,211.16L77.15,211.16c-0.03,0.06-0.06,0.11-0.1,0.16c-0.05,0.06-0.11,0.11-0.17,0.15
			c-3.41,3.88-6.87,5.91-10.28,6.04c-0.12,0.01-0.24,0.01-0.35,0.01c-1.83,0-3.3-0.55-4.35-1.15c-0.74,3.45,0.08,5.56,3.5,5.14
			c9.03-1.09,15.29-11.4,19.36-18.51c2.19-3.82,3.65-7.6,4.63-11.4c-2.42,5.04-6.06,11.62-11.01,18.05
			C77.96,210.18,77.55,210.69,77.15,211.16z"/>
		<path class="st1" d="M64.82,215.89c0.53,0.11,1.11,0.16,1.74,0.13c0.29-0.01,0.58-0.04,0.87-0.09l2.48-7.74
			c-0.58-0.18-1.15-0.32-1.68-0.44L64.82,215.89z"/>
		<path class="st1" d="M128.44,208.81l1.02,5.98c0.78,0.43,1.55,0.74,2.32,0.94l-2.34-7.3
			C129.11,208.55,128.78,208.68,128.44,208.81z"/>
		<path class="st1" d="M72.47,209.18c-0.38-0.18-0.76-0.35-1.13-0.49l-2.18,6.8c0.78-0.29,1.56-0.69,2.35-1.2L72.47,209.18z"/>
		<path class="st1" d="M62.28,214.86c0.31,0.2,0.68,0.4,1.1,0.58l3.34-7.96c-0.45-0.07-0.87-0.11-1.25-0.14
			C64.08,210.09,62.95,212.67,62.28,214.86z"/>
		<path class="st1" d="M123.76,209.8c3.92-2.97,8.18-3.78,10.88-3.97c-0.9-1.52-1.9-3.08-2.94-4.64l-7.6,3.08
			c-0.09,0.04-0.18,0.06-0.28,0.06c-0.3,0-0.57-0.18-0.69-0.47c-0.16-0.38,0.03-0.82,0.41-0.98l7.32-2.97
			c-0.72-1.05-1.45-2.11-2.19-3.15l-6.85,2.28c-0.08,0.03-0.16,0.04-0.24,0.04c-0.32,0-0.61-0.2-0.71-0.51
			c-0.13-0.4,0.08-0.82,0.47-0.95l6.41-2.14c-0.8-1.11-1.6-2.19-2.37-3.23l-6.21,1.92c-0.07,0.02-0.15,0.03-0.22,0.03
			c-0.32,0-0.61-0.2-0.71-0.53c-0.13-0.4,0.1-0.81,0.49-0.94l5.69-1.77c-0.77-1.03-1.52-2-2.23-2.91l-5.37,0.9
			c-0.04,0.01-0.08,0.01-0.13,0.01c-0.36,0-0.68-0.26-0.74-0.63c-0.07-0.41,0.2-0.79,0.61-0.86l4.57-0.76
			c-0.47-0.61-0.92-1.17-1.34-1.7c0.17-0.53,0.36-1.11,0.56-1.75l-4.71,0.45c-0.03,0.01-0.05,0.01-0.07,0.01
			c-0.38,0-0.71-0.29-0.74-0.68c-0.04-0.41,0.26-0.78,0.67-0.82l5.35-0.51c0.24-0.78,0.51-1.61,0.78-2.52l-6.6-1.49
			c-0.4-0.09-0.65-0.49-0.57-0.9c0.09-0.4,0.49-0.65,0.9-0.57l6.71,1.52c0.26-0.83,0.51-1.7,0.79-2.61v-0.01l-8.58-1.94
			c-0.4-0.09-0.65-0.49-0.57-0.9c0.09-0.4,0.49-0.65,0.9-0.57l8.67,1.96c0.29-1,0.59-2.03,0.91-3.1l-17.34-4.03
			c0.26,5.93,0.28,12.02,1.13,17.92c1.34,2.86,6.43,13.22,14.91,24.21C123.2,209.1,123.48,209.46,123.76,209.8z"/>
		<path class="st1" d="M73.85,209.93L73.85,209.93l-0.57,3.02c0.69-0.59,1.38-1.26,2.08-2.02
			C74.86,210.55,74.36,210.22,73.85,209.93z"/>
		<path class="st1" d="M74.84,170.88L74.84,170.88c0.26,0.53,0.52,1.06,0.79,1.6c0.17,0.34,0.34,0.69,0.53,1.03
			c0.06,0.12,0.11,0.23,0.17,0.34h0.01l9.15-2.06c0.4-0.09,0.8,0.16,0.9,0.57c0.09,0.4-0.16,0.8-0.57,0.9l-8.77,1.98
			c0.1,0.2,0.21,0.41,0.32,0.62c0.32,0.63,0.65,1.25,0.99,1.88h0.01l6.38-1.44c0.4-0.09,0.8,0.16,0.9,0.57
			c0.09,0.4-0.16,0.8-0.57,0.9l-5.97,1.34c0.51,0.93,1.02,1.86,1.55,2.79l3.95,0.38c0.41,0.04,0.71,0.4,0.67,0.82
			c-0.04,0.38-0.36,0.68-0.74,0.68c-0.02,0-0.05,0-0.07-0.01l-3.93-0.38c-0.63,0.89-1.4,1.99-2.27,3.25l5.28,0.88
			c0.41,0.07,0.68,0.45,0.61,0.86c-0.06,0.37-0.38,0.63-0.74,0.63c-0.04,0-0.08-0.01-0.13-0.01l-5.96-1
			c-0.62,0.92-1.28,1.89-1.96,2.91l6.02,1.87c0.4,0.13,0.62,0.54,0.49,0.94c-0.1,0.32-0.4,0.53-0.71,0.53
			c-0.07,0-0.15-0.01-0.22-0.03l-6.44-2c-0.7,1.06-1.42,2.17-2.14,3.3l6.41,2.14c0.4,0.13,0.61,0.55,0.47,0.95
			c-0.11,0.32-0.4,0.51-0.71,0.51c-0.08,0-0.16-0.01-0.24-0.04l-6.76-2.25c-0.67,1.07-1.33,2.16-1.98,3.24l7.01,2.85
			c0.38,0.15,0.57,0.59,0.41,0.98c-0.12,0.29-0.4,0.47-0.69,0.47c-0.09,0-0.19-0.02-0.28-0.06l-7.22-2.93
			c-0.9,1.53-1.76,3.06-2.55,4.55c2.7,0.28,6.54,1.2,10.11,3.9c0.28-0.34,0.57-0.69,0.84-1.05c7.19-9.33,11.55-18.96,13.43-23.6
			c-0.01-0.01,0-0.01,0-0.01c0.75-5.87,0.65-11.84,0.49-18.03L74.84,170.88z"/>
		<path class="st1" d="M77.71,10.62l-1.59,5.72l-7.83-0.45l1.05-3.03h0.01c2.42-0.86,4.88-1.61,7.39-2.26h0.01L77.71,10.62z"/>
		<polygon class="st1" points="81.55,10.68 79.25,10.64 77.63,16.49 80.3,16.66 		"/>
		<path class="st1" d="M162.13,39.52l0.13-7.67c-4.68-4.28-9.8-8.07-15.28-11.31l3.31,22.78c0,0-13.89,37.4,1.1,12.81
			c0,0-0.6,20.16,4.48,22.11l-0.17-3.03l-0.14-3.87c-0.03-1.29-0.08-2.58-0.09-3.87c-0.04-2.59-0.03-5.17,0.08-7.76
			c0.35,2.57,0.6,5.14,0.79,7.71c0.12,1.29,0.18,2.58,0.27,3.87l0.22,3.87l0.11,3.22c0.2-0.02,0.39-0.06,0.6-0.13
			c0.7-0.22,1.34-0.51,1.92-0.86l-0.06-1.25l-0.12-3.66c-0.01-1.22-0.05-2.44-0.04-3.65c-0.02-2.45,0.01-4.9,0.15-7.34
			c0.33,2.43,0.55,4.86,0.72,7.3c0.1,1.22,0.16,2.44,0.24,3.65l0.17,3.66l0.01,0.48c0.76-0.7,1.4-1.58,1.92-2.71l-0.02-0.17
			c-0.11-1.19-0.23-2.37-0.32-3.56c-0.19-2.37-0.34-4.75-0.38-7.14c0.5,2.33,0.9,4.68,1.25,7.04c0.09,0.53,0.16,1.05,0.24,1.58
			C164.62,66.09,164.19,56.43,162.13,39.52z"/>
		<path class="st1" d="M62.45,32.38c0,0.01,0,0.01-0.01,0.01C62.45,32.38,62.45,32.38,62.45,32.38L62.45,32.38z"/>
		<path class="st1" d="M64.14,27.83l-0.05,0.01c0,0-0.01,0.03-0.04,0.11c-0.01,0.01-0.01,0.03-0.02,0.05
			c-0.01,0.02-0.02,0.05-0.03,0.07c-0.01,0.02-0.02,0.05-0.03,0.07c-0.05,0.12-0.11,0.28-0.18,0.47c-0.01,0.04-0.03,0.07-0.05,0.11
			c-0.02,0.05-0.04,0.11-0.06,0.16c-0.03,0.08-0.07,0.17-0.1,0.26c-0.09,0.26-0.2,0.54-0.32,0.87c-0.02,0.07-0.05,0.13-0.07,0.2
			c-0.15,0.41-0.3,0.86-0.47,1.37c-0.03,0.09-0.06,0.17-0.09,0.26c-0.06,0.17-0.12,0.36-0.18,0.54c3.61-1.26,6.49-3.45,8.59-6.56
			c2.63-3.88,3.02-7.78,3.02-7.82c0.01-0.08,0.03-0.16,0.07-0.23l-6.35-0.41L64.14,27.83z"/>
		<path class="st1" d="M109.21,8.15L90.85,9.42c-0.11-0.05-0.22-0.08-0.34-0.09l-7.44-0.12c5.46-1,11.09-1.53,16.85-1.53
			C103.05,7.68,106.16,7.84,109.21,8.15z"/>
		<polygon class="st1" points="81.81,16.76 90.27,17.3 89.8,10.81 83.08,10.7 		"/>
	</g>
</g>
</svg>
