<?xml version="1.0" encoding="utf-8"?>
<!-- Generator: Adobe Illustrator 23.0.3, SVG Export Plug-In . SVG Version: 6.00 Build 0)  -->
<svg version="1.1" id="圖層_1" xmlns="http://www.w3.org/2000/svg" xmlns:xlink="http://www.w3.org/1999/xlink" x="0px" y="0px"
	 viewBox="0 0 40 40" style="enable-background:new 0 0 40 40;" xml:space="preserve">
<style type="text/css">
	.st0{fill:#FFFFFF;}
</style>
<g>
	<path class="st0" d="M26.6,27.6c0,0,0-5,0-6.8c0-0.6-0.1-1.1-0.2-1.5c-0.3-1-0.9-1.6-1.7-1.8c-0.3-0.1-0.5-0.1-0.8-0.1
		c-0.7,0-1.4,0.3-1.9,0.8c-0.6,0.6-0.8,1.3-0.8,2c0,0.6,0,1.2,0,1.7c0,0.3,0,0.7,0,1l0,4.6h-3.7V15h3.7v2.5l0.8-1
		c0,0,0.1-0.1,0.1-0.1c0.8-1.1,1.9-1.7,3.3-1.7c0.1,0,0.1,0,0.2,0c1,0,1.8,0.2,2.5,0.6c0.9,0.5,1.5,1.3,1.9,2.5
		c0.2,0.7,0.4,1.5,0.4,2.4c0,1.9,0,3.8,0,5.7l0,1.8H26.6z"/>
	<rect x="10.5" y="15" class="st0" width="3.7" height="12.7"/>
	<path class="st0" d="M12.4,12.4c-0.8,0-1.3-0.3-1.7-0.8c-0.4-0.5-0.5-1.2-0.3-1.9c0.2-0.6,0.8-1.1,1.5-1.2c0.2,0,0.4-0.1,0.6-0.1
		c0.4,0,0.8,0.1,1.1,0.3c0.7,0.4,1.1,1.1,1,2c-0.1,0.8-0.6,1.4-1.4,1.6c-0.2,0-0.3,0.1-0.5,0.1C12.5,12.4,12.4,12.4,12.4,12.4z"/>
</g>
</svg>
