<?xml version="1.0" encoding="utf-8"?>
<!-- Generator: Adobe Illustrator 23.0.3, SVG Export Plug-In . SVG Version: 6.00 Build 0)  -->
<svg version="1.1" id="圖層_1" xmlns="http://www.w3.org/2000/svg" xmlns:xlink="http://www.w3.org/1999/xlink" x="0px" y="0px"
	 viewBox="0 0 1793.95 754.83" style="enable-background:new 0 0 1793.95 754.83;" xml:space="preserve">
<style type="text/css">
	.st0{fill:#FFFFFF;}
	.st1{fill:#FFE540;}
</style>
<g>
	<g>
		<g>
			<path d="M791.69,373.22c-1.21-1.1-3.64-3.29-3.64-3.29l-0.61-0.09l-2.3-0.34l-1.17-0.17l-1.16-0.17l-0.58-0.09l-3.46,0.17
				l-4.5,2.54c0,0-0.07,0.2-0.19,0.52c-0.05,0.14-0.11,0.3-0.17,0.48c-0.45,1.3-1.16,3.49-1.12,4.28c0.06,1.15,2.65,6.81,2.65,6.81
				s4.24,3.84,6,4.33c0.49,0.14,1.03,0.22,1.54,0.28c1.33,0.15,2.53,0.09,2.53,0.09s2.82-0.74,3.37-1.35
				c0.55-0.61,1.1-1.21,2.19-2.42c0.67-0.74,1.13-1.68,1.51-2.44c0.07-0.14,0.14-0.27,0.21-0.4c0.16-0.3,0.31-0.56,0.46-0.72
				c0.55-0.61,0.38-4.07,0.38-4.07S792.91,374.32,791.69,373.22z"/>
			<path d="M841.19,437.67l-2.07-3.68c0,0-2.47-2.24-2.97-2.69s-2.43-1.3-2.43-1.3l-3.82-0.76c0,0-4.26-0.26-4.71,0.23
				c-0.28,0.31-1.29,1.03-2,1.52c-0.42,0.29-0.74,0.5-0.74,0.5s-2.24,2.47-2.69,2.97c-0.29,0.32-0.57,1.05-0.83,1.92
				c-0.14,0.46-0.28,0.95-0.42,1.45c-0.4,1.44,1.27,6.55,1.27,6.55l3.51,4.08l2.97,2.69l3.86,1.7l3.25-0.84l1.39-0.36l3.66-2.99
				l1.86-2.21l0.1-0.12l1.51-3.43L841.19,437.67z"/>
		</g>
		<path class="st0" d="M866.32,467.01l-37.07,33.12l5.36,37.52l-59.97-9.22l26.93-16.45l27.01-16.49l2.48-1.51l34.19-30.46l4.8-4.28
			l40.79-36.34l-53.51-10.1l-26.34-35.09l-9.68-47.69l-0.6-2.97l-5.37-26.44l-23.62,34.52l-49.15-91.03l-26.18-9.46l-94.43,124.37
			l58.68,7.37l-7.68,0.25l-56.34-0.58l-12.23-0.13l-6.18,1.3l-44.86,9.4l-1.78,0.37l-14.41,3.02l-31.99,18.98l-32.33,15.02
			l68.82-44.84l5.67-11.39c-2.93-13.34-6.44-29.48-9.12-42.08c-5.56-26.13-17.6-46.51-8.54-55.79s53.31-42.03,53.31-42.03
			l48.85-32.57l-18.49-0.28l22.45-33.84l2.4-25.68l-10.8-54.28l-39.65,49.64c0,0-126.1,37.23-130.41,41.65s-67.54,47.98-69.87,71.59
			s7.73,97.29,10.45,105.11c1.49,4.29,28.49,38.91,52.61,69.36L327.8,350.51L205.98,505.54l-50.35,2.74l-5.03,4.89l19.52-0.14
			l-26.14,6.56l-4,3.89l-2.14,1.89l31.18-3.44l-42.17,13.1l-3.63,3.2l2.73,3.82l41.11-4.53l-36.28,11.27l3.9,5.46l30.72-3.39
			l-25.65,7.97l11.71,9.78l109.22-25.09l80.64-93.34l65.45,50.28l23.12,64.39l-91.9,13.9l-140.8-15.34L158,584.19l-48.26,40.8
			l0.89,3.26l25.27-11.24l-23.4,18.08l1.28,4.69l24.67-14.18l-22.77,19.69l8.2,6.29l19.02-10.93l-15.64,13.53l5.16,3.96l10.36-7.32
			l-8.64,8.64l3.63,2.78l70.72-39.79l272.73,38.24l0.2,0.36l88.71-12.06l90.44-50.86l1.18-0.72l32.46-19.82l53.54-32.7l4.19-2.04
			l-44.97,36.4l181.49,23.66l11.66-25.28L866.32,467.01z M529.02,326.87l1.38,14.37l-5.69-12.54l-1.92-15.18L529.02,326.87z
			 M610.14,158.69l-2.15,7.74l-12.41,15.81l5.22-15.16L610.14,158.69z M588.75,153.64l12.46-7.87l-6.23,8.93l-9.17,5.88
			L588.75,153.64z M554.78,210.35l-9.17,5.88l2.94-6.94l12.46-7.87L554.78,210.35z M546.36,194.17l8.32-8.01l-4.31,8.85l-6.66,6.4
			L546.36,194.17z M449.2,269.42l-2.55-15.09l6.78,13.09l1.97,14.3L449.2,269.42z M461.65,216.16l-9.3,11.96l4.82-14.26l13.82-12.75
			L461.65,216.16z M475.03,489.55l14.76-3.4l17.59-2.15L490,491.17L475.03,489.55z M471.19,434.57l6.34-0.55l1.15-0.1l-1.28,0.71
			l-4.28,2.36l-10.2,5.64l-13.81,0.64l14.02-7.99L471.19,434.57z M510.23,510.45l15.55-1.36l-15.76,8.7l-13.81,0.64L510.23,510.45z
			 M512.62,463.35l-16.02-0.67l7.59-2.28l11.66-3.5l7.99,0.83l-10.42,5.23L512.62,463.35z M563.48,429.72l8.35-1.58l-7.84,3.85
			l-9.04,4.44l-15.04-0.64l14.51-4.36L563.48,429.72z M532.84,422.64l-13.66,1.77l12.94-6.39l14.64-1.74L532.84,422.64z
			 M553.76,514.13l13.4-7.06l16.45-6.58l-14.97,11.38L553.76,514.13z M555.43,548.96l-14.21,6.45l-7.73,0.02l10.53-4.72
			L555.43,548.96z M591.92,430.39l11.87-3.57l12.77-0.6l-14.84,4.46L591.92,430.39z M608.66,448.55l11.41-1.75l-14.21,6.45
			l-7.73,0.02L608.66,448.55z M598.95,403.84l12.54-7.14l14.51-2.59l-13.52,7.17L598.95,403.84z M791.94,367.53
			c0.65,0.59,3.88,3.51,3.88,3.51l2.71,4.8l0.92,6.85l-1.97,4.49l-2.56,3.04l-1.95,1.59l-0.37,4.78l-2.82-2.38l-5.7,1.48l-5.05-2.22
			l-3.88-3.51l-4.59-5.33c0,0-2.18-6.68-1.66-8.56c0.21-0.75,0.42-1.49,0.63-2.16c0.32-1.02,0.65-1.86,1.01-2.25
			c0.35-0.39,1.53-1.69,2.42-2.68l-1.08-4.38l4.65,1.43c0.49-0.37,0.91-0.7,1.09-0.9c0.59-0.65,6.16-0.31,6.16-0.31l4.99,0.99
			c0,0,0.67,0.3,1.41,0.66C790.88,366.84,791.63,367.24,791.94,367.53z M755.41,477.55l10.81-2.63c-0.85,0.43-13.76,9.04-13.76,9.04
			l-11.91,3.89L755.41,477.55z M729.75,468.32l10.45-2.71c-0.82,0.43-13.36,9.14-13.36,9.14l-11.53,3.98L729.75,468.32z
			 M708.27,447.42l-5.69-0.85l7.07-5.82L725,440.7L708.27,447.42z M704.66,509.19l-11.12,10.06l-7.47-0.25l7.66-4.04L704.66,509.19z
			 M702.25,483.23l-10.79,12.68l-18.02,4.26l14.77-7.78L702.25,483.23z M686.04,478.22l-15.85,2.41l17.78-9.37l8-0.73L686.04,478.22
			z M798.47,435.63l-12.51-8.46l-4.98,3.8l-3.82,11.17l3.79,16.94l-6.07-14.19l0.73-11.46l-6.34-3.85l-10-9.67l9.89,7.48l7.96,3.22
			l3.89-3.38l3.31-1.29l2.35-13.66l16.28-6.37l-12.19,10.36L798.47,435.63z M877.1,432.73l-10.93-1.99l6.59-2.69l17.78,0.13
			L877.1,432.73z M867.39,418.28l13.81,3.4l-11.35,0.31l-10.89-2.68L867.39,418.28z M843.33,433.5l2.31,5.04l-0.57,9.3l-4.05,4.47
			l0.54,7.45l-5.23-4.95l-2.7,1.32l-5.68-0.23l-5.38-1.6h-0.01c-2.05-1.65-3.7-3.14-3.7-3.14s-4.39-9.58-4.49-11.54
			c-0.06-1.23,0.94-4.44,1.69-6.67l-3.25-3.92l5.2,1l6.49-3.65l5.87-0.29l4.94,0.74l0.76,0.11L843.33,433.5z M827.96,406.38
			l10.05-1.24l-11.85,6.24l-13.23,2.91L827.96,406.38z M817.25,405.98l-8.91,2.65l9.36-6.56l8.64-2.46L817.25,405.98z M819.9,387.93
			l-6.25,9.18l-7.39,5.64l6.43-9.45L819.9,387.93z M817.02,349.27l-1.43,9.48l-2.68-12.39l0.68-12.17l0.04-0.64l0.12,0.55
			L817.02,349.27z M806.59,322.82l-0.21,9.92l-0.12,5.43l-0.1,4.74l-3.25,7.35l-1.45-9.49l-0.45-2.92l1.3-3.49L806.59,322.82z
			 M727.49,299.38l12.88-8.26l-9.38,11.37l-12.38,7.42L727.49,299.38z M715.03,303.11l-9.38,11.36l-12.38,7.42l8.88-10.53
			L715.03,303.11z M667.76,327.57l-9.93,11.44l5.58-13.98l14.49-11.98L667.76,327.57z M689.07,290.21l10.24-7.27l-3.02,7.45
			l-14.14,14.28L689.07,290.21z M677.01,355.73l7.05-11.89l15.08-9.83l-8.5,13.09L677.01,355.73z M724.96,318.78L752,354.36
			l36.47-14.5l-4.28,6.25l-29.02,12.42l-16.16,6.91l-4.23,1.81l-44.57-0.46L724.96,318.78z M562.24,492.92l-16.02-0.67l19.24-5.78
			l7.99,0.83L562.24,492.92z M569.33,392.79l11.41-1.75l-14.21,6.45l-7.73,0.02L569.33,392.79z M497.81,352.82l-8.47-12.45
			l-1.83-18.71l6.37,16.54L497.81,352.82z M501.63,318.25l4.52,10.62l1.54,11.44l-4.05-6.58L501.63,318.25z M496.52,381.75
			l-4.72-14.76l6.73,10.87l3.77,11.81L496.52,381.75z M530.31,189.41l8.18-13.29l-3.17,11.1l-6,9.86L530.31,189.41z M514.79,247.67
			l7.95-8.38l-3.9,9.04l-6.36,6.7L514.79,247.67z M500.11,280.55l-4.72-14.76l6.73,10.87l3.77,11.81L500.11,280.55z M498.98,240.06
			l11.26-7.72l-6.48,8.91l-8.55,6.94L498.98,240.06z M481.35,388.89l-4.74-6.11l-3.66-15.17l5.64,10.07L481.35,388.89z
			 M480.11,227.9l12.09-8.43l-5.81,9.21l-8.89,6.29L480.11,227.9z M479.2,271.05l2.76,11.21l-4.74-6.11l-3.66-15.17L479.2,271.05z
			 M465.3,396.64l6.1,13.08l-9.55-9.92l-6.88-13.67L465.3,396.64z M360.9,377.74l12.54,9.29l-17.57-3.93l-10.77-8.67L360.9,377.74z
			 M343.13,407.94L333,396.8l13.31,7.24l14.59,10.05L343.13,407.94z M379.35,431.56l-11.55-11.12l18.24,8.42l5.44,5.92
			L379.35,431.56z M384.19,407.16l-12.01-6.75l14.2,2.61l12.77,7.36L384.19,407.16z M414.32,405.37l12.77,7.36l-14.96-3.22
			l-12.01-6.75L414.32,405.37z M355.25,622.38l-15.6-6.86l16.57-0.11l19.29,2.48L355.25,622.38z M421,627.7l-16.02-0.67l19.24-5.78
			l7.99,0.83L421,627.7z M464.69,649.1l-14.97-1.63l14.76-3.4l7.06-0.86l6.93-0.85l3.59-0.44l-3.42,1.41l-5.73,2.36L464.69,649.1z
			 M487.31,621.27l-12.76-0.54l-3.26-0.14l3.07-0.92l16.17-4.86l7.99,0.83L487.31,621.27z M493.87,582.33l12.94-6.39l14.64-1.74
			l-13.92,6.36L493.87,582.33z M514.6,593.71l14.51-4.36l17.41-3.29l-16.87,8.3L514.6,593.71z M552.09,612l7.99,0.83l-11.22,5.63
			l-16.02-0.67L552.09,612z M555.27,637.4l-14.89,2.26l13.4-7.06l16.45-6.58L555.27,637.4z M576.39,582.74l-13.04,4.43l11.43-8.82
			l14.01-4.59L576.39,582.74z M588.73,538.58l-13.19,4.16l11.51-11.31l14.68-5.29L588.73,538.58z M611.21,478.6l-13.04,4.43
			l11.43-8.82l14.01-4.59L611.21,478.6z M653.65,406.52l17.48-2.87l-17.07,7.88l-15.02-1.01L653.65,406.52z M653.78,439.98
			l13.77-2.32l-15.82,6.69l-11.09,0.34L653.78,439.98z M644.89,508.79l11.13-3.42l-11.97,9.11l-11.27,3.15L644.89,508.79z
			 M635.06,544.59l11.51-11.31l14.68-5.29l-13.01,12.44L635.06,544.59z M769.49,566.76l-11.98-3.26l14.19-2.95l13.66,3.13
			L769.49,566.76z M803.45,556.21l15.62,3.02l-16.83,1.33l-12.34-5.52L803.45,556.21z M804.62,582.16l-12.34-5.52l13.55,1.17
			l15.62,3.02L804.62,582.16z"/>
	</g>
	<g>
		<path d="M1708.93,715.02l-46.89-42.36l-38.48-22.06l-141.22,10.7l-98.8-1.47l3.79-6.34l43.14-75.96l59.92-60.51l78.3,104.45
			l100.41,35.83l12.02-9.39l-25.37-8.81l30.59,4.39l4.08-5.33l-35.89-12.46l40.93,5.88l2.86-3.72l-3.52-3.31l-41.7-14.47l31.05,4.46
			l-2.08-1.96l-3.87-4.02l-25.91-7.42l19.5,0.78l-4.87-5.06l-50.24-4.39l-116.64-158.92l-147.85,115.89l-0.82-0.19l9.62-8.72
			l10.26-36.71c0.09-12.34,3.44-29.13,0.33-40.97c-2.79-10.62-13.47-22.11-20.53-30.05c-5.19-5.85-26.63-19.73-27.84-25.36
			c-0.03-0.14-9.03-41.91-9.03-41.91l4.39-33.41l10.42-26.39l25.56-15.88l25.65-4.63l27.63,18.95l-7.76,28.47l-26.35,13.95
			l-16.61,9.06l13.72,16.96l43.55-18.28l14.9-48.55l-20.33-28.71l-28.84-15.29l-19.57-1.47l-44.62,20.07l-20.46,22.83l-11.19,36.64
			l-1.08,39.28l18.21,44.48c14.48,12.86,28.35,25.48,41.75,39.5c2.37,2.48,4.77,5.01,6.3,8.07c2.11,4.22,2.38,9.09,2.62,13.81
			c1.19,23.84-10.26,42.01-25.17,58.57l-25.34-5.91l-26.59-7.63l-63.2-18.13l-39.63-11.37l37.28,3.78l-55.65-179.2l-27.84-0.04
			l-88.77,88.29l46.99,16.21l39.03-36.99l29.67,102.41l-31.87-9.14l-21.57-39.87l-0.57-1.05l-20.44-9.9l-19.36-9.38l-10.22-4.41
			l-13.12-6.42l-66.71-28.02l27.26,57.38l-27.48,34.21l-53.81,8.34l27.12,25.81l8.25,7.86l34.48,32.82l7.54,7.17l24.79,16.28
			l43.85,28.8l-100.3,11.65l22.14-58.66l-33.58-35.39l-49.74,122.73l10.82,25.65l205.43-19.89l-45.94-39.76l4.12,2.18l55.24,36.28
			l28.99,19.04l1.16,0.76l88.72,53.81l88.27,14.97l0.21-0.36l273.84-29.24l69.38,42.1l3.71-2.66l-8.35-8.92l10.11,7.66l5.28-3.79
			l-15.19-14.04l18.65,11.55l8.41-6.02l-22.11-20.43l24.19,14.97l1.43-4.63l-22.79-18.84l24.89,12.07L1708.93,715.02z
			 M1169.91,409.93l0.13,13.52l-4.59-12.8l-3.77-15.46L1169.91,409.93z M1170.58,448.29l2.03,12.25l-8.61-11.66l-2.86-13.72
			L1170.58,448.29z M1143.04,406.37l8.24,14.74l0.13,13.52l-4.59-12.8L1143.04,406.37z M994.77,653.48l-16.78-1.89l15.71-2.51
			l13.58-0.72L994.77,653.48z M997.86,631.98l-16.78-1.89l15.71-2.51l13.58-0.72L997.86,631.98z M1030.39,639.25l-15.76-3.61
			l13.76-2.68l14.08,3.42L1030.39,639.25z M1312.43,587.39l13.75,8.44l-13.78-1.1l-15.47-9.22L1312.43,587.39z M1334.83,624.62
			l14.5,8.27l-17.87-4.85l-10.37-13.03L1334.83,624.62z M1477.05,465.38l14.56-6.95l-8.41,10.97l-16.15,7.97L1477.05,465.38z
			 M1458.97,524.25l11.22-10.18l-7.21,13.22l-15.81,10.17L1458.97,524.25z M1419.8,532.73l13.18-5.89l-10.07,9.39l-13.77,6.67
			L1419.8,532.73z M1441.96,545.26l-8.59,13.54l-11.03,6l3.89-7.03L1441.96,545.26z M1393.21,541.62l13.18-5.89l-10.07,9.39
			l-13.77,6.67L1393.21,541.62z M1275.82,550.15l-17.14-7.74l17.51,2.72l14.64,3.88L1275.82,550.15z M1216.05,525.74l-11.3-5.58
			l10.16,1.9l1.19,0.22l10.37,5.06l-7.72-0.28L1216.05,525.74z M1214.31,547.9l11.13,9.19l-12.89-4.86l-12.09-9.38L1214.31,547.9z
			 M1220.95,575.83l11.13,11.68l-13.04-4.59l-12.59-12.87L1220.95,575.83z M1258.02,561.6l19.04,6.41l-16.03,0.15l-11.03-6
			L1258.02,561.6z M1255.65,582.13l13.16,7.5l-14.8-2.74l-14.58-11.87L1255.65,582.13z M1277.34,626.52l10.37,5.06l-7.72-0.28
			l-13.99-6.91L1277.34,626.52z M1168.28,586.68l11,6.04l-8.02,0.53l-19.02-6.49L1168.28,586.68z M1077.02,563.53l10.36,3.06
			l14.08,10.87l-11.39-4.36C1090.06,573.1,1077.82,563.99,1077.02,563.53z M1104.07,604.42l13.78,1.15l15.43,9.28l-15.49-1.93
			L1104.07,604.42z M1110.74,579.87l15.02-1.08l17.11,7.81l-17.5-2.79L1110.74,579.87z M1141.6,604.28l13.35,3.4l13.05,7.99
			l-14.32-3.48L1141.6,604.28z M1137.78,549.39l-9.67-8l7.98,0.99l17.46,9.95L1137.78,549.39z M1129.64,511.8l7.52,4.29l-7.48,0.01
			l-10.79-10.42L1129.64,511.8z M1108.36,539.7l6.87,6.05l-5.71,0.66l-16.5-7.27L1108.36,539.7z M1049.89,458.27l0.37-0.76
			c0.5,0.72,0.96,1.26,1.25,1.41c0.88,0.48,5.21,2.78,7.17,3.59l-8.38,6.53L1049.89,458.27z M1067.09,448.49
			c-0.88-0.89-1.91-1.93-2.14-2.12c-0.23-0.18-2.09-0.86-3.87-1.43l3-0.8l4.62-1.23l-0.5,1.74L1067.09,448.49z M1006.07,411.34
			l5.26,11.4l-6.76-4.34l-11.43-16.52L1006.07,411.34z M993.19,414.72l7.65,10.29l4.6,11.81l-6.42-7.12L993.19,414.72z
			 M956.56,485.84l8.38,1.3l-10.97,2.32l-11.33-0.68L956.56,485.84z M933.11,494.97l17.78,0.46l6.49,2.9l-10.99,1.63L933.11,494.97z
			 M1028.99,530.15l-13-17.55l-0.54,0.54l-17.75,14.61l2.56-12.22l8.48-13.33l-10.12-18.97l13.09,17.68l20.26-4.4l-13.71,13.81
			L1028.99,530.15z M1041.01,448.62l3.29,18.87l16.58,11.6l1.58,11.38l3.06,2.14l3.47,4.88l9.87-1.46l7.86-1.39l-8.58,3.83
			l-8.22,2.61l-2.31,13.14l-5.57,9.38l3.76-13.1l-1.26-13.66l-4.27-5.25l-12.98,1.9l8.1-11.58l-14.21-9.94L1041.01,448.62z
			 M1050.71,571.98l10.71,2.98l14.52,10.78l-11.78-4.28C1064.16,581.47,1051.54,572.44,1050.71,571.98z M1175.53,629.75l-12.08-7.9
			l13.35,3.4l13.05,7.99L1175.53,629.75z M1173.19,516.67l-15.59-7.21l13.69,2.77l12.63,5.01l0.35,0.14l-0.17-0.01L1173.19,516.67z
			 M1214.84,667.35l-11.67-9.5l11.01,3.78l11.82,9.23L1214.84,667.35z M1234.96,605.83l11.13,11.68l-13.04-4.59l-12.59-12.87
			L1234.96,605.83z M1231.85,648.08l13.85,5.05l11.13,9.19l-12.89-4.86L1231.85,648.08z M1263.24,712.79l-14.58-11.87l16.23,7.11
			l13.16,7.5L1263.24,712.79z M1270.27,694.06l-11.03-6l8.02-0.56l19.04,6.41L1270.27,694.06z M1290.27,670.61l-16.59-8.85
			l17.29,3.87l14.36,4.83L1290.27,670.61z M1299.12,650.74l14.57,2.22l12.72,6.82l-13.59-2.22L1299.12,650.74z M1320.67,692.91
			l8.02-0.56l19.04,6.41l-16.03,0.15L1320.67,692.91z M1353.39,727.46l-8.12-3.67l-4.39-1.98l-4.63-2.09l5.02,0.78l5.46,0.85
			l7.03,1.09l14.64,3.88L1353.39,727.46z M1397.75,707.51l-11.03-6l8.02-0.56l19.04,6.41L1397.75,707.51z M1463.65,704.36
			l-20.1-5.16l19.36-1.84l16.56,0.66L1463.65,704.36z"/>
	</g>
</g>
<path class="st1" d="M324.5,264.18c-5.03-6.64-12.41-9.81-19.98-12.55c-1.49-0.54-3-1.06-4.81-1.7c2.28-1.75,4.51-3.08,6.24-4.89
	c2.77-2.91,5.12-6.22,7.81-9.2c2.62-2.89,4.06-6.17,4.32-10.04c0.52-7.85-3.54-13.72-10.01-16.18c-4.9-1.87-10.03-3.24-15.41-2.67
	c-3.84,0.4-7.77,0.29-11.25,2.54c-1.1,0.71-2.6,0.81-4.38,1.32c0.64-1.69,0.99-3,1.6-4.17c2.55-4.89,3.98-10.1,2.92-15.52
	c-0.67-3.41-2.16-6.73-3.69-9.89c-2.42-4.98-6.27-8.62-11.54-10.59c-3.29-1.23-6.46-1.57-10.02-0.28
	c-7.59,2.74-13.82,6.8-17.1,14.51c-0.82,1.94-1.8,3.81-2.85,6.01c-1.15-2.21-2.12-4.06-3.08-5.92c-2.62-5.07-4.75-10.3-8.72-14.72
	c-4.76-5.3-10.4-6.64-16.86-5.76c-4.43,0.6-7.85,3.03-10.93,6.53c-5.05,5.74-8.84,16.42-7.73,24.1c0.09,0.6-0.17,1.26-0.22,1.53
	c-3.45-1.71-6.77-3.55-10.25-5.02c-6.02-2.55-12.31-3.47-18.76-1.98c-1.59,0.37-3.24,1.05-4.54,2.01c-4.28,3.16-6.72,7.68-8.36,12.6
	c-1.51,4.53-0.69,9.1,0.45,13.62c1.64,6.53,4.57,12.32,9.32,16.61c-3.18,0.31-6.6,0.66-10.02,0.97c-5.96,0.55-10.82,3.51-15.22,7.22
	c-2.89,2.43-4.28,5.92-5.28,9.56c-1.03,3.77-0.5,7.49,0.83,10.92c2.29,5.88,7.29,9.24,12.75,11.83c4.14,1.96,8.44,3.61,12.87,5.48
	c-1.14,0.88-2.32,1.59-3.23,2.54c-3.12,3.27-6.55,6.36-9.09,10.05c-2.36,3.41-4.34,7.23-5.06,11.51c-0.74,4.42-0.13,8.42,2.7,12.08
	c2.04,2.64,4.79,4.25,7.49,5.97c4.24,2.7,9.01,3.72,13.81,2.68c5.14-1.11,10.1-3.08,15.27-4.72c-0.02,0.17-0.04,0.69-0.17,1.19
	c-0.39,1.46-1.05,2.89-1.2,4.37c-0.31,3.08-0.43,6.19-0.5,9.3c-0.09,3.87-0.29,7.77,1.16,11.5c1.94,4.97,5.11,8.99,9.98,11.12
	c2.39,1.04,5.3,0.95,7.99,1.19c3.52,0.31,6.57-1.17,9.62-2.71c5.92-2.97,10.98-6.94,14.88-12.3c0.91-1.25,1.67-2.62,2.43-3.81
	c0.64,1.53,1.23,2.99,1.86,4.43c1.53,3.52,2.72,7.26,4.72,10.5c2.59,4.2,6.71,6.47,11.35,8.48c5.74,2.49,10.84,1.96,16.04-0.45
	c7.89-3.65,10.85-10.97,12.58-18.69c0.84-3.74,0.17-7.82,0.19-11.73c-0.15-0.05,0.11-0.01,0.32,0.12c0.29,0.18,0.59,0.38,0.81,0.64
	c3.31,3.96,7.77,6.13,12.54,7.48c4.36,1.23,8.89,2,13.45,0.62c2.09-0.63,4.41-0.76,6.28-1.77c3.29-1.78,5.17-4.86,6.67-8.32
	c3.9-8.97,2.54-17.33-2.49-25.33c-1.85-2.94-3.98-5.7-5.88-8.39c4.94,0.24,9.82,0.1,14.78-1.86c5.74-2.26,9.78-5.7,12.57-11.21
	c2.25-4.43,3.75-8.86,2.77-13.75C326.77,268.74,325.96,266.11,324.5,264.18z M303.35,223.36c-5.61,5.55-11.84,9.43-19.7,9.76
	C287.69,225.09,294.75,222.85,303.35,223.36z M279.43,243.69c-1.76,3.6-3.42,6.99-5.19,10.63c4.08,1.65,8.28,3.35,12.4,5.01
	c-4.61,0.91-9.13,1.81-13.87,2.75c-0.94-5.05-3.85-8.26-7.93-11.07C269.81,248.51,274.52,246.16,279.43,243.69z M253.04,196.07
	c0.22-1.85,1.92-3.65,3.26-5.21c2.01-2.35,4.3-4.47,6.46-6.69c0.2,0.12,0.4,0.23,0.61,0.35c-0.53,3.06-0.95,6.14-1.63,9.17
	c-0.46,2.09-0.92,4.31-2.02,6.08c-1.26,2.04-3.22,3.64-4.89,5.43c-0.35,0.37-0.73,0.71-1.41,1.36
	C253.24,202.87,252.65,199.41,253.04,196.07z M260.82,216.21c0.14,0.07,0.27,0.14,0.41,0.21c-1.06,4.86-2.11,9.71-3.25,14.97
	c4.38-0.54,8.9-1.09,13.66-1.68c-5.31,4.13-10.26,7.98-15.03,11.69c-0.11-4.71-2.8-8.67-6.32-12.91
	C253.62,224.6,257.22,220.4,260.82,216.21z M257.43,258.94c4.4,0.47,6.66,4.85,6.51,8.45c-0.25,6.06-2.87,9.97-8.86,11.32
	C258.95,272.35,256.94,265.51,257.43,258.94z M230.72,257.21c0.45-5.54,3.11-9.35,7.96-11.75
	C241.12,250.98,236.64,254.98,230.72,257.21z M230.89,288.98c-3.57-3.26-4.75-7.17-3.13-11.8
	C231.62,277.93,232.34,282.96,230.89,288.98z M242.89,265.43c-2.43,0.01-4.86-1.03-7.77-1.73c3.49-3.98,8.67-4.59,14.15-2.19
	C247.79,263.93,245.5,265.42,242.89,265.43z M245.92,279.29c-6.27,0.7-10.66-1.78-13.1-7.15
	C239.5,269.64,242.55,274.59,245.92,279.29z M247.02,238.4c0.48,1.52,0.65,3.14,1.08,5.29c-7.08-4.26-13.67-8.22-21.52-9.42
	c4.98-2.91,9.83-3.62,15.2-1.04C244.31,234.44,246.2,235.79,247.02,238.4z M226.43,208.34c0.2-0.04,0.4-0.07,0.6-0.11
	c1.35,3.79,2.69,7.57,4.23,11.91c0.79-0.45,1.84-0.77,2.47-1.47c2-2.24,3.8-4.65,5.75-6.94c0.65-0.76,1.53-1.32,2.36-2.02
	c-0.52,4.95-1,9.58-1.52,14.53c-5.12-0.82-10.07-0.58-15.21,2.16C225.56,220.14,226,214.24,226.43,208.34z M222.76,241.71
	c2.94,4.49,4.12,9.17,1.46,14.23C220.57,251.58,219.82,244.24,222.76,241.71z M221.42,274.94c0.16,0.09,0.21,0.52,0.17,0.77
	c-0.74,4.24-2.85,7.49-6.85,9.33c-1.07-5.25,0.74-8.59,5.62-10.28C220.67,274.65,221.12,274.77,221.42,274.94z M204,270.11
	c4.57-2.15,8.71-6.72,13.99-1.73C213.83,271.74,210.89,273.51,204,270.11z M218.17,260.61c-2.51,0.88-9.04-1.03-10.77-3.3
	c-0.99-1.29-1.59-2.87-2.49-4.54c3.37-0.83,6.07,0.39,8.82,1.21c2.79,0.83,3.81,3.28,4.98,5.55
	C218.82,259.75,218.45,260.51,218.17,260.61z M198.36,255.43c-2.17-5.13-3.31-9.68,1-14.04c3.93-3.97,8.28-5.06,13.78-2.8
	C206.96,243.06,201.88,248.42,198.36,255.43z M207.86,180.65c1.71,2.52,2.97,4.59,4.44,6.51c1.72,2.23,2.51,4.67,2.05,7.42
	c-0.51,3.04-1.18,6.05-1.76,9C206.23,196.88,206.22,189.1,207.86,180.65z M197.56,222.5c2.58,0.81,4.38,3.64,7.46,3.13
	c-0.58-5.69-1.14-11.13-1.7-16.58c0.19-0.02,0.38-0.05,0.56-0.07c4.3,7.1,8.6,14.21,12.87,21.28c-2.83-0.06-5.89-0.23-8.94-0.16
	c-2.44,0.06-4.88,0.42-7.32,0.6c-0.43,0.03-1.05-0.02-1.29-0.29c-2.34-2.73-4.62-5.51-6.92-8.27c-0.86-1.04-1.72-2.08-2.42-3.44
	C192.42,220,194.86,221.66,197.56,222.5z M187.78,239.93c0.32,0.19,0.27,1.59-0.05,2.19c-2.27,4.25-2.28,8.61-0.83,13.63
	c-6.31-1.63-12.48-3.23-18.56-4.8c5.55-1.45,11.14-2.9,16.75-4.37c-3.86-4.77-7.4-9.16-10.94-13.54c0.2-0.17,0.39-0.34,0.59-0.51
	C179.11,234.97,183.49,237.38,187.78,239.93z M177.13,221.38c-6.22-0.38-13.52-6.94-14.92-13.44
	C170.44,208.77,174.1,214.8,177.13,221.38z M150.24,259.51c-3.52-0.63-6.71-3.12-10.05-4.79c8.1-3.93,14.78-0.85,21.3,3.84
	C157.73,258.95,153.82,260.15,150.24,259.51z M149.17,306.94c2.53-2.87,4.77-6.1,7.67-8.53c3.13-2.62,7.33-2.44,11.31-2.89
	C167.17,300.48,157.67,306.37,149.17,306.94z M170.51,284.1c-0.05-0.12-0.1-0.23-0.15-0.35c2.18-1.81,4.42-3.55,6.5-5.46
	c1.13-1.05,1.98-2.4,2.96-3.61c-1.3-0.56-2.56-1.31-3.92-1.65c-4.45-1.12-8.93-2.1-13.4-3.13c0-0.23,0-0.45,0-0.68
	c7.54-0.45,15.08-0.9,22.47-1.34c-0.85,2.38-1.86,4.44-2.27,6.61c-0.27,1.42,0.43,3,0.49,4.51c0.02,0.64-0.37,1.75-0.81,1.88
	C178.45,282.04,174.48,283.05,170.51,284.1z M192.39,341.34c-1-3.74,1.02-14.21,6.32-16.08
	C199.8,331.84,199.41,337.91,192.39,341.34z M190.24,313.87c-0.16-0.07-0.33-0.13-0.49-0.2c0.27-1.18,0.56-2.35,0.8-3.54
	c0.52-2.57,1.03-5.15,1.53-7.73c0.04-0.2-0.05-0.42-0.02-0.62c0.14-0.95,0.3-1.89,0.45-2.84c-1.37,0.22-2.79,0.26-4.08,0.69
	c-3.08,1.02-6.11,2.22-9.49,3.48c3.02-3.29,5.58-6.13,8.2-8.91c0.59-0.63,1.34-1.13,2.09-1.56c0.32-0.18,1.08-0.18,1.23,0.03
	c3.08,4.32,7.65,4.28,12.23,4.28c0.05,0,0.1,0.07,0.39,0.28C198.79,302.78,194.51,308.33,190.24,313.87z M194.68,283.73
	c-1.45-2.59-1.92-5.3-1.91-8.08c0.01-1.91,0.82-3.81,1.27-5.72c0.25,0.07,0.5,0.14,0.74,0.22c0.13,3.68,5.59,12.44,12.23,17.77
	C202.87,290.15,197.01,287.88,194.68,283.73z M226.27,313.31c-0.45,3.81-1.07,7.61-1.59,11.2c-0.85-2.59-1.82-5.27-2.59-8
	c-0.31-1.09-0.09-2.33-0.34-3.44c-0.21-0.94-0.75-2.56-1.13-2.55c-1.13,0.01-2.38,0.48-3.35,1.12c-2.25,1.49-4.36,3.19-6.56,4.77
	c-0.25,0.18-0.66,0.15-1.15,0.25c1.76-4.68,3.43-9.16,5.03-13.43c3.02,1.72,5.81,3.5,8.77,4.94
	C226.56,309.72,226.71,309.58,226.27,313.31z M222.91,297.9c6.33-0.36,12.57,0.07,18.52-2.79
	C239.11,302.68,231.11,305.61,222.91,297.9z M242.86,349.9c-2.59-2.71-4.92-5.49-5.89-9.26c-0.98-3.82,0.59-7.28,1.18-11.11
	C243.3,335.11,245.44,344.56,242.86,349.9z M250.23,306.81c-0.88-0.36-2.09-0.01-3.11,0.2c-0.14,0.03-0.1,1.17-0.05,1.79
	c0.36,4.52,0.74,9.05,0.71,13.82c-3.13-4.48-6.26-8.96-9.45-13.54c6.42-1.4,9.09-6.61,11.99-11.18c2.94,4.24,5.97,8.62,9.22,13.29
	C256.19,309.59,253.27,308.06,250.23,306.81z M270.47,289.11c0.09,0.23,0.25,0.44,0.28,0.67c0.33,2.64,0.64,5.28,1,8.33
	c-5-3.68-9.84-7.24-14.67-10.8c0.1-0.19,0.21-0.38,0.31-0.57c4.08-0.44,7.74-1.77,10.5-4.99c0.09-0.1,0.2-0.2,0.27-0.31
	c2.17-3.36,2.15-3.32,5.84-1.61c3.02,1.4,6.07,2.71,9.12,4.04c0.56,0.24,1.17,0.34,1.76,0.5c-0.14,0.25-0.29,0.51-0.43,0.76
	c-4.11,0.4-8.23,0.77-12.34,1.22c-0.82,0.09-1.6,0.5-2.4,0.76C269.97,287.78,270.22,288.45,270.47,289.11z M274.03,310.51
	c4.02,0.15,7.65,1.65,10.79,3.59c5,3.09,6.91,8.41,8.29,14.2C282.61,324.45,274.81,317.23,274.03,310.51z M290.03,271.22
	c8.67-2.44,16.57-1.04,23.57,5.33C304.98,277.92,296.78,277.99,290.03,271.22z"/>
<path class="st1" d="M139.24,171.76c6.08-2.82,8.37-8.47,9.71-14.42c0.65-2.89,0.13-6.03,0.15-9.05c-0.12-0.04,0.08-0.01,0.25,0.09
	c0.22,0.14,0.46,0.29,0.62,0.49c2.55,3.05,6,4.73,9.67,5.77c3.36,0.95,6.86,1.54,10.38,0.48c1.61-0.49,3.4-0.59,4.84-1.37
	c2.54-1.37,3.99-3.75,5.15-6.42c3.01-6.92,1.96-13.37-1.92-19.54c-1.43-2.27-3.07-4.4-4.54-6.47c3.81,0.19,7.58,0.07,11.4-1.43
	c4.43-1.75,7.55-4.4,9.7-8.65c1.73-3.42,2.89-6.83,2.14-10.6c-0.38-1.88-1-3.9-2.13-5.39c-3.88-5.12-9.58-7.57-15.42-9.68
	c-1.15-0.42-2.31-0.82-3.71-1.31c1.76-1.35,3.48-2.37,4.82-3.77c2.14-2.24,3.95-4.8,6.03-7.1c2.02-2.23,3.13-4.76,3.33-7.75
	c0.4-6.06-2.73-10.58-7.72-12.48c-3.78-1.44-7.74-2.5-11.89-2.06c-2.96,0.31-6,0.22-8.68,1.96c-0.85,0.55-2.01,0.62-3.38,1.02
	c0.49-1.3,0.76-2.31,1.23-3.22c1.96-3.78,3.07-7.79,2.25-11.98c-0.52-2.63-1.67-5.19-2.85-7.63c-1.87-3.85-4.84-6.65-8.9-8.17
	c-2.54-0.95-4.99-1.21-7.73-0.22c-5.85,2.12-10.66,5.24-13.19,11.19c-0.64,1.49-1.39,2.94-2.2,4.64c-0.88-1.7-1.63-3.13-2.37-4.57
	c-2.02-3.91-3.66-7.94-6.72-11.36c-3.67-4.09-8.02-5.12-13.01-4.44c-3.42,0.47-6.06,2.34-8.43,5.04c-3.89,4.43-6.82,12.67-5.96,18.6
	c0.07,0.47-0.13,0.97-0.17,1.18c-2.66-1.32-5.22-2.74-7.91-3.87c-4.64-1.96-9.49-2.67-14.47-1.53c-1.23,0.28-2.5,0.81-3.51,1.55
	c-3.3,2.44-5.19,5.93-6.45,9.72c-1.16,3.5-0.53,7.02,0.35,10.51c1.27,5.04,3.52,9.51,7.19,12.82c-2.45,0.24-5.09,0.51-7.73,0.75
	c-4.59,0.42-8.35,2.71-11.74,5.57c-2.23,1.88-3.31,4.57-4.07,7.38c-0.79,2.91-0.39,5.78,0.64,8.42c1.77,4.54,5.63,7.13,9.84,9.13
	c3.2,1.52,6.51,2.78,9.93,4.23c-0.88,0.68-1.79,1.22-2.49,1.96c-2.41,2.53-5.05,4.91-7.02,7.75c-1.82,2.63-3.35,5.58-3.9,8.88
	c-0.57,3.41-0.1,6.5,2.09,9.32c1.57,2.03,3.69,3.28,5.78,4.61c3.27,2.08,6.95,2.87,10.65,2.07c3.97-0.85,7.79-2.38,11.78-3.64
	c-0.02,0.13-0.03,0.54-0.13,0.92c-0.3,1.13-0.81,2.23-0.93,3.37c-0.24,2.38-0.33,4.78-0.39,7.17c-0.07,2.99-0.23,5.99,0.9,8.87
	c1.49,3.84,3.94,6.94,7.7,8.58c1.84,0.8,4.09,0.73,6.17,0.92c2.72,0.24,5.07-0.91,7.42-2.09c4.57-2.29,8.47-5.35,11.48-9.49
	c0.7-0.97,1.29-2.02,1.88-2.94c0.49,1.18,0.95,2.3,1.43,3.42c1.18,2.72,2.1,5.6,3.64,8.1c2,3.24,5.17,4.99,8.76,6.55
	C131.29,174.03,135.23,173.62,139.24,171.76z M131.67,161.39c-1.99-2.09-3.8-4.23-4.54-7.14c-0.76-2.95,0.45-5.62,0.91-8.57
	C132.01,149.97,133.66,157.26,131.67,161.39z M137.36,128.14c-0.68-0.28-1.61-0.01-2.4,0.15c-0.11,0.02-0.08,0.9-0.04,1.38
	c0.28,3.49,0.57,6.98,0.55,10.66c-2.41-3.46-4.83-6.91-7.29-10.44c4.95-1.08,7.01-5.1,9.25-8.62c2.27,3.27,4.61,6.65,7.11,10.25
	C141.96,130.28,139.7,129.11,137.36,128.14z M122.31,89.88c0.35-4.28,2.4-7.21,6.14-9.07C130.33,85.07,126.87,88.16,122.31,89.88z
	 M122.43,114.38c-2.75-2.51-3.67-5.53-2.42-9.1C123,105.86,123.56,109.74,122.43,114.38z M123.93,101.4
	c5.15-1.93,7.51,1.89,10.1,5.51C129.19,107.45,125.81,105.54,123.93,101.4z M142.91,91.21c3.4,0.36,5.14,3.74,5.02,6.52
	c-0.19,4.68-2.21,7.7-6.83,8.73C144.09,101.55,142.53,96.28,142.91,91.21z M152.97,114.49c0.07,0.18,0.2,0.34,0.22,0.52
	c0.25,2.04,0.49,4.08,0.77,6.43c-3.86-2.84-7.59-5.58-11.32-8.33c0.08-0.15,0.16-0.29,0.24-0.44c3.15-0.34,5.97-1.36,8.1-3.85
	c0.07-0.08,0.15-0.15,0.21-0.24c1.67-2.59,1.66-2.56,4.51-1.24c2.33,1.08,4.68,2.09,7.04,3.11c0.43,0.19,0.9,0.26,1.36,0.39
	c-0.11,0.19-0.22,0.39-0.33,0.58c-3.17,0.31-6.35,0.59-9.52,0.94c-0.63,0.07-1.24,0.38-1.85,0.59
	C152.59,113.46,152.78,113.98,152.97,114.49z M155.72,131c3.1,0.12,5.9,1.28,8.32,2.77c3.86,2.38,5.33,6.49,6.4,10.96
	C162.34,141.75,156.32,136.18,155.72,131z M186.25,104.8c-6.66,1.06-12.98,1.11-18.19-4.11C174.75,98.8,180.85,99.88,186.25,104.8z
	 M178.34,63.76c-4.33,4.28-9.14,7.28-15.2,7.53C166.25,65.1,171.7,63.36,178.34,63.76z M159.89,79.45c-1.36,2.78-2.64,5.39-4.01,8.2
	c3.15,1.27,6.39,2.58,9.56,3.87c-3.56,0.71-7.05,1.4-10.7,2.12c-0.73-3.89-2.97-6.37-6.12-8.54
	C152.46,83.17,156.09,81.35,159.89,79.45z M139.53,42.71c0.17-1.43,1.48-2.82,2.52-4.02c1.55-1.81,3.31-3.45,4.99-5.16
	c0.16,0.09,0.31,0.18,0.47,0.27c-0.41,2.36-0.74,4.74-1.26,7.08c-0.36,1.61-0.71,3.33-1.56,4.69c-0.97,1.57-2.49,2.81-3.77,4.19
	c-0.27,0.29-0.56,0.54-1.09,1.05C139.68,47.95,139.22,45.29,139.53,42.71z M145.53,58.24c0.1,0.05,0.21,0.11,0.31,0.16
	c-0.81,3.75-1.63,7.49-2.51,11.55c3.38-0.41,6.87-0.84,10.54-1.29c-4.09,3.18-7.92,6.16-11.6,9.02c-0.08-3.63-2.16-6.69-4.87-9.96
	C139.97,64.72,142.75,61.48,145.53,58.24z M131.69,96.22c-1.87,0.01-3.75-0.8-5.99-1.33c2.69-3.07,6.69-3.54,10.92-1.69
	C135.47,95.06,133.71,96.21,131.69,96.22z M134.88,75.36c0.37,1.17,0.51,2.42,0.83,4.08c-5.46-3.29-10.55-6.34-16.6-7.27
	c3.84-2.25,7.58-2.79,11.72-0.8C132.79,72.31,134.25,73.35,134.88,75.36z M118.99,52.18c0.15-0.03,0.31-0.06,0.46-0.09
	c1.04,2.92,2.08,5.84,3.26,9.19c0.61-0.35,1.42-0.59,1.9-1.13c1.54-1.73,2.93-3.59,4.44-5.35c0.5-0.59,1.18-1.02,1.82-1.56
	c-0.4,3.82-0.77,7.39-1.17,11.21c-3.95-0.63-7.77-0.44-11.73,1.67C118.33,61.27,118.66,56.72,118.99,52.18z M116.16,77.92
	c2.27,3.47,3.17,7.08,1.13,10.97C114.48,85.53,113.89,79.87,116.16,77.92z M115.13,103.55c0.12,0.07,0.17,0.4,0.13,0.59
	c-0.57,3.27-2.2,5.78-5.28,7.2c-0.82-4.05,0.57-6.62,4.34-7.93C114.55,103.33,114.9,103.42,115.13,103.55z M101.69,99.82
	c3.53-1.66,6.72-5.18,10.79-1.33C109.28,101.08,107.01,102.45,101.69,99.82z M112.62,92.5c-1.93,0.68-6.97-0.8-8.31-2.54
	c-0.76-0.99-1.23-2.21-1.92-3.51c2.6-0.64,4.68,0.3,6.8,0.93c2.15,0.64,2.94,2.53,3.84,4.28C113.12,91.83,112.84,92.42,112.62,92.5z
	 M97.34,88.51c-1.67-3.96-2.55-7.47,0.77-10.83c3.03-3.06,6.39-3.9,10.63-2.16C103.97,78.96,100.05,83.09,97.34,88.51z
	 M104.67,30.81c1.32,1.94,2.29,3.54,3.43,5.02c1.33,1.72,1.94,3.6,1.58,5.72c-0.39,2.35-0.91,4.67-1.36,6.94
	C103.41,43.33,103.4,37.33,104.67,30.81z M96.72,63.1c1.99,0.62,3.38,2.8,5.76,2.41c-0.45-4.39-0.88-8.59-1.31-12.79
	c0.14-0.02,0.29-0.04,0.43-0.06c3.32,5.48,6.63,10.96,9.93,16.42c-2.18-0.05-4.54-0.18-6.9-0.12c-1.88,0.04-3.76,0.32-5.65,0.46
	c-0.33,0.02-0.81-0.01-0.99-0.22c-1.81-2.1-3.57-4.25-5.34-6.38c-0.67-0.8-1.33-1.6-1.87-2.65C92.76,61.17,94.64,62.45,96.72,63.1z
	 M89.18,76.55c0.25,0.15,0.21,1.23-0.04,1.69c-1.75,3.28-1.76,6.64-0.64,10.52c-4.87-1.26-9.62-2.49-14.32-3.7
	c4.28-1.12,8.6-2.24,12.92-3.37c-2.97-3.68-5.71-7.07-8.44-10.45c0.15-0.13,0.3-0.26,0.45-0.39C82.49,72.72,85.87,74.58,89.18,76.55
	z M80.96,62.23c-4.8-0.29-10.43-5.35-11.51-10.37C75.8,52.51,78.62,57.16,80.96,62.23z M60.22,91.65c-2.72-0.48-5.18-2.41-7.75-3.7
	c6.25-3.03,11.4-0.66,16.43,2.96C65.99,91.22,62.98,92.15,60.22,91.65z M59.39,128.24c1.95-2.22,3.68-4.7,5.92-6.58
	c2.41-2.02,5.66-1.88,8.73-2.23C73.28,123.26,65.95,127.8,59.39,128.24z M75.86,110.62c-0.04-0.09-0.08-0.18-0.12-0.27
	c1.68-1.4,3.41-2.74,5.02-4.21c0.87-0.81,1.53-1.85,2.28-2.79c-1.01-0.43-1.98-1.01-3.03-1.27c-3.43-0.87-6.89-1.62-10.34-2.42
	c0-0.18,0-0.35,0-0.53c5.82-0.35,11.63-0.69,17.33-1.04c-0.66,1.84-1.43,3.43-1.75,5.1c-0.21,1.1,0.34,2.31,0.38,3.48
	c0.02,0.5-0.29,1.35-0.62,1.45C81.98,109.03,78.91,109.81,75.86,110.62z M92.74,154.78c-0.77-2.89,0.79-10.96,4.87-12.41
	C98.45,147.45,98.15,152.13,92.74,154.78z M91.08,133.59c-0.13-0.05-0.25-0.1-0.38-0.15c0.21-0.91,0.43-1.81,0.62-2.73
	c0.4-1.99,0.79-3.97,1.18-5.96c0.03-0.15-0.04-0.32-0.02-0.48c0.11-0.73,0.23-1.46,0.35-2.19c-1.05,0.17-2.15,0.2-3.15,0.53
	c-2.38,0.79-4.71,1.72-7.32,2.68c2.33-2.54,4.3-4.73,6.32-6.87c0.45-0.48,1.03-0.87,1.61-1.2c0.25-0.14,0.83-0.14,0.95,0.02
	c2.38,3.33,5.91,3.31,9.43,3.3c0.04,0,0.08,0.05,0.3,0.22C97.67,125.04,94.37,129.31,91.08,133.59z M94.5,110.34
	c-1.12-2-1.48-4.09-1.48-6.23c0-1.47,0.63-2.94,0.98-4.41c0.19,0.06,0.38,0.11,0.57,0.17c0.1,2.84,4.32,9.59,9.43,13.71
	C100.82,115.29,96.3,113.54,94.5,110.34z M118.87,133.16c-0.35,2.94-0.83,5.87-1.22,8.64c-0.66-2-1.4-4.06-2-6.17
	c-0.24-0.84-0.07-1.79-0.26-2.66c-0.16-0.72-0.58-1.97-0.88-1.97c-0.87,0.01-1.83,0.37-2.58,0.87c-1.74,1.15-3.37,2.46-5.06,3.68
	c-0.19,0.14-0.51,0.11-0.89,0.19c1.35-3.61,2.65-7.07,3.88-10.36c2.33,1.33,4.48,2.7,6.76,3.81
	C119.1,130.39,119.21,130.28,118.87,133.16z M116.28,121.27c4.88-0.28,9.7,0.05,14.29-2.15
	C128.78,124.95,122.61,127.22,116.28,121.27z"/>
<path class="st1" d="M841.75,133.83c-3.88-5.12-9.58-7.56-15.42-9.68c-1.15-0.42-2.31-0.82-3.71-1.31c1.76-1.35,3.48-2.37,4.82-3.77
	c2.14-2.24,3.95-4.8,6.03-7.1c2.02-2.23,3.13-4.76,3.33-7.75c0.4-6.06-2.73-10.58-7.72-12.48c-3.78-1.44-7.74-2.5-11.89-2.06
	c-2.96,0.31-6,0.22-8.68,1.96c-0.85,0.55-2.01,0.62-3.38,1.02c0.49-1.3,0.76-2.31,1.23-3.22c1.96-3.78,3.07-7.79,2.25-11.98
	c-0.52-2.63-1.67-5.19-2.85-7.63c-1.87-3.85-4.84-6.65-8.9-8.17c-2.54-0.95-4.99-1.21-7.73-0.22c-5.85,2.12-10.66,5.24-13.19,11.19
	c-0.64,1.49-1.39,2.94-2.2,4.64c-0.88-1.7-1.63-3.13-2.37-4.57c-2.02-3.91-3.66-7.94-6.72-11.36c-3.67-4.09-8.02-5.12-13.01-4.44
	c-3.42,0.47-6.06,2.34-8.43,5.04c-3.89,4.43-6.82,12.67-5.96,18.6c0.07,0.47-0.13,0.97-0.17,1.18c-2.66-1.32-5.22-2.74-7.91-3.87
	c-4.64-1.96-9.49-2.67-14.47-1.53c-1.23,0.28-2.5,0.81-3.51,1.55c-3.3,2.44-5.19,5.93-6.45,9.72c-1.16,3.5-0.53,7.02,0.35,10.51
	c1.27,5.04,3.52,9.51,7.19,12.82c-2.45,0.24-5.09,0.51-7.73,0.75c-4.59,0.42-8.35,2.71-11.74,5.57c-2.23,1.88-3.31,4.57-4.07,7.38
	c-0.79,2.91-0.39,5.78,0.64,8.42c1.77,4.54,5.63,7.13,9.84,9.13c3.2,1.52,6.51,2.78,9.93,4.23c-0.88,0.68-1.79,1.22-2.49,1.96
	c-2.41,2.53-5.05,4.91-7.02,7.75c-1.82,2.63-3.35,5.58-3.9,8.88c-0.57,3.41-0.1,6.5,2.09,9.32c1.57,2.03,3.69,3.28,5.78,4.61
	c3.27,2.08,6.95,2.87,10.65,2.07c3.97-0.85,7.79-2.38,11.78-3.64c-0.02,0.13-0.03,0.54-0.13,0.92c-0.3,1.13-0.81,2.23-0.93,3.37
	c-0.24,2.38-0.33,4.78-0.39,7.17c-0.07,2.99-0.23,5.99,0.9,8.87c1.49,3.84,3.94,6.94,7.7,8.58c1.84,0.8,4.09,0.73,6.17,0.92
	c2.72,0.24,5.07-0.91,7.42-2.09c4.57-2.29,8.47-5.35,11.48-9.49c0.7-0.97,1.29-2.02,1.88-2.94c0.49,1.18,0.95,2.3,1.43,3.42
	c1.18,2.72,2.1,5.6,3.64,8.1c2,3.24,5.17,4.99,8.76,6.55c4.42,1.92,8.36,1.51,12.37-0.35c6.08-2.82,8.37-8.47,9.71-14.42
	c0.65-2.89,0.13-6.03,0.15-9.05c-0.12-0.04,0.08-0.01,0.25,0.09c0.22,0.14,0.46,0.29,0.62,0.49c2.55,3.05,6,4.73,9.67,5.77
	c3.36,0.95,6.86,1.54,10.38,0.48c1.61-0.49,3.4-0.59,4.84-1.37c2.54-1.37,3.99-3.75,5.14-6.42c3.01-6.92,1.96-13.37-1.92-19.54
	c-1.43-2.27-3.07-4.4-4.54-6.47c3.81,0.19,7.58,0.07,11.4-1.43c4.43-1.75,7.55-4.4,9.7-8.65c1.73-3.42,2.89-6.83,2.14-10.6
	C843.5,137.35,842.88,135.32,841.75,133.83z M825.44,102.34c-4.33,4.28-9.14,7.28-15.2,7.53
	C813.35,103.67,818.8,101.94,825.44,102.34z M806.99,118.02c-1.36,2.78-2.64,5.39-4.01,8.2c3.15,1.27,6.39,2.58,9.56,3.87
	c-3.56,0.71-7.05,1.4-10.7,2.12c-0.73-3.89-2.97-6.37-6.12-8.54C799.56,121.74,803.19,119.92,806.99,118.02z M786.63,81.29
	c0.17-1.43,1.48-2.82,2.52-4.02c1.55-1.81,3.31-3.45,4.99-5.16c0.16,0.09,0.31,0.18,0.47,0.27c-0.41,2.36-0.74,4.74-1.26,7.08
	c-0.36,1.61-0.71,3.33-1.56,4.69c-0.97,1.57-2.49,2.81-3.77,4.19c-0.27,0.29-0.56,0.54-1.09,1.05
	C786.78,86.53,786.32,83.86,786.63,81.29z M792.63,96.82c0.1,0.05,0.21,0.11,0.31,0.16c-0.81,3.75-1.63,7.49-2.51,11.55
	c3.38-0.41,6.87-0.84,10.54-1.29c-4.09,3.18-7.92,6.16-11.6,9.02c-0.08-3.63-2.16-6.69-4.87-9.96
	C787.08,103.3,789.85,100.06,792.63,96.82z M790.01,129.79c3.4,0.36,5.14,3.74,5.02,6.52c-0.19,4.68-2.21,7.7-6.83,8.73
	C791.19,140.13,789.64,134.86,790.01,129.79z M769.41,128.46c0.35-4.28,2.4-7.21,6.14-9.07
	C777.43,123.65,773.97,126.73,769.41,128.46z M769.53,152.96c-2.75-2.51-3.67-5.53-2.42-9.1
	C770.1,144.43,770.66,148.32,769.53,152.96z M778.79,134.8c-1.87,0.01-3.75-0.8-5.99-1.33c2.69-3.07,6.69-3.54,10.92-1.69
	C782.57,133.64,780.81,134.79,778.79,134.8z M781.13,145.48c-4.84,0.54-8.22-1.37-10.1-5.51
	C776.18,138.05,778.54,141.86,781.13,145.48z M781.98,113.94c0.37,1.17,0.51,2.42,0.83,4.08c-5.46-3.29-10.55-6.34-16.6-7.27
	c3.84-2.25,7.58-2.79,11.72-0.8C779.89,110.89,781.35,111.92,781.98,113.94z M766.09,90.75c0.15-0.03,0.31-0.06,0.46-0.09
	c1.04,2.92,2.08,5.84,3.26,9.19c0.61-0.35,1.42-0.59,1.9-1.13c1.54-1.73,2.93-3.59,4.44-5.35c0.5-0.59,1.18-1.02,1.82-1.56
	c-0.4,3.82-0.77,7.39-1.17,11.21c-3.95-0.63-7.77-0.44-11.73,1.67C765.43,99.85,765.76,95.3,766.09,90.75z M763.26,116.5
	c2.27,3.47,3.17,7.08,1.13,10.97C761.58,124.11,760.99,118.44,763.26,116.5z M762.23,142.13c0.12,0.07,0.17,0.4,0.13,0.59
	c-0.57,3.27-2.2,5.78-5.28,7.2c-0.82-4.05,0.57-6.62,4.34-7.93C761.65,141.9,762,142,762.23,142.13z M748.79,138.4
	c3.53-1.66,6.72-5.18,10.79-1.33C756.38,139.66,754.11,141.03,748.79,138.4z M759.72,131.07c-1.93,0.68-6.97-0.8-8.31-2.54
	c-0.76-0.99-1.23-2.21-1.92-3.51c2.6-0.64,4.68,0.3,6.8,0.93c2.15,0.64,2.94,2.53,3.84,4.28C760.23,130.41,759.94,131,759.72,131.07
	z M744.44,127.08c-1.67-3.96-2.55-7.47,0.77-10.83c3.03-3.06,6.39-3.9,10.63-2.16C751.07,117.53,747.15,121.67,744.44,127.08z
	 M751.77,69.39c1.32,1.94,2.29,3.54,3.43,5.02c1.33,1.72,1.94,3.6,1.58,5.72c-0.39,2.35-0.91,4.67-1.36,6.94
	C750.51,81.91,750.5,75.91,751.77,69.39z M743.82,101.67c1.99,0.62,3.38,2.8,5.76,2.41c-0.45-4.39-0.88-8.59-1.31-12.79
	c0.14-0.02,0.29-0.04,0.43-0.06c3.32,5.48,6.63,10.96,9.93,16.42c-2.18-0.05-4.54-0.18-6.9-0.12c-1.88,0.04-3.76,0.32-5.65,0.46
	c-0.33,0.02-0.81-0.01-0.99-0.22c-1.81-2.1-3.57-4.25-5.34-6.38c-0.67-0.8-1.33-1.6-1.87-2.65
	C739.86,99.75,741.74,101.02,743.82,101.67z M736.28,115.12c0.25,0.15,0.21,1.23-0.04,1.69c-1.75,3.28-1.76,6.64-0.64,10.52
	c-4.87-1.26-9.62-2.49-14.32-3.7c4.28-1.12,8.6-2.24,12.92-3.37c-2.97-3.68-5.71-7.07-8.44-10.45c0.15-0.13,0.3-0.26,0.45-0.39
	C729.59,111.3,732.97,113.15,736.28,115.12z M728.07,100.81c-4.8-0.29-10.43-5.35-11.51-10.37
	C722.9,91.08,725.72,95.74,728.07,100.81z M707.32,130.23c-2.72-0.48-5.18-2.41-7.75-3.7c6.25-3.03,11.4-0.66,16.43,2.96
	C713.09,129.8,710.08,130.72,707.32,130.23z M706.49,166.81c1.95-2.22,3.68-4.7,5.92-6.58c2.41-2.02,5.66-1.88,8.73-2.23
	C720.38,161.84,713.05,166.38,706.49,166.81z M722.96,149.2c-0.04-0.09-0.08-0.18-0.12-0.27c1.68-1.4,3.41-2.74,5.02-4.21
	c0.87-0.81,1.53-1.85,2.28-2.79c-1.01-0.43-1.98-1.01-3.03-1.27c-3.43-0.87-6.89-1.62-10.34-2.42c0-0.18,0-0.35,0-0.53
	c5.82-0.35,11.63-0.69,17.33-1.04c-0.66,1.84-1.43,3.42-1.75,5.1c-0.21,1.1,0.34,2.31,0.38,3.48c0.02,0.5-0.29,1.35-0.62,1.45
	C729.08,147.61,726.02,148.38,722.96,149.2z M739.84,193.35c-0.77-2.89,0.79-10.96,4.87-12.41
	C745.55,186.03,745.25,190.71,739.84,193.35z M738.18,172.16c-0.13-0.05-0.25-0.1-0.38-0.15c0.21-0.91,0.43-1.81,0.62-2.73
	c0.4-1.99,0.79-3.97,1.18-5.96c0.03-0.15-0.04-0.32-0.02-0.48c0.11-0.73,0.23-1.46,0.35-2.19c-1.05,0.17-2.15,0.2-3.15,0.53
	c-2.38,0.79-4.71,1.72-7.32,2.68c2.33-2.54,4.3-4.73,6.32-6.87c0.45-0.48,1.03-0.87,1.61-1.2c0.25-0.14,0.83-0.14,0.95,0.02
	c2.38,3.33,5.91,3.31,9.43,3.3c0.04,0,0.08,0.05,0.3,0.22C744.77,163.61,741.47,167.89,738.18,172.16z M741.61,148.91
	c-1.12-2-1.48-4.09-1.48-6.23c0-1.47,0.63-2.94,0.98-4.41c0.19,0.06,0.38,0.11,0.57,0.17c0.1,2.84,4.32,9.59,9.43,13.71
	C747.92,153.86,743.4,152.11,741.61,148.91z M765.97,171.73c-0.35,2.94-0.83,5.87-1.22,8.64c-0.66-2-1.4-4.06-2-6.17
	c-0.24-0.84-0.07-1.79-0.26-2.66c-0.16-0.72-0.58-1.97-0.88-1.97c-0.87,0.01-1.83,0.37-2.58,0.87c-1.74,1.15-3.37,2.46-5.06,3.68
	c-0.19,0.14-0.51,0.11-0.89,0.19c1.35-3.61,2.65-7.07,3.88-10.36c2.33,1.33,4.48,2.7,6.76,3.81
	C766.2,168.96,766.31,168.86,765.97,171.73z M763.38,159.85c4.88-0.28,9.7,0.05,14.29-2.15
	C775.88,163.53,769.71,165.8,763.38,159.85z M778.77,199.96c-1.99-2.09-3.8-4.23-4.54-7.14c-0.76-2.95,0.45-5.62,0.91-8.57
	C779.11,188.55,780.76,195.84,778.77,199.96z M784.46,166.72c-0.68-0.28-1.61-0.01-2.4,0.15c-0.11,0.02-0.08,0.9-0.04,1.38
	c0.28,3.49,0.57,6.98,0.55,10.66c-2.41-3.46-4.83-6.91-7.29-10.44c4.95-1.08,7.01-5.1,9.25-8.62c2.27,3.27,4.61,6.65,7.11,10.25
	C789.06,168.86,786.8,167.69,784.46,166.72z M800.07,153.07c0.07,0.18,0.2,0.34,0.22,0.52c0.25,2.04,0.49,4.08,0.77,6.43
	c-3.86-2.84-7.59-5.58-11.32-8.33c0.08-0.15,0.16-0.29,0.24-0.44c3.15-0.34,5.97-1.36,8.1-3.85c0.07-0.08,0.15-0.15,0.21-0.24
	c1.67-2.59,1.66-2.56,4.51-1.24c2.33,1.08,4.68,2.09,7.04,3.11c0.43,0.19,0.9,0.26,1.36,0.39c-0.11,0.19-0.22,0.39-0.33,0.58
	c-3.17,0.31-6.35,0.59-9.52,0.94c-0.63,0.07-1.24,0.38-1.85,0.59C799.69,152.04,799.88,152.55,800.07,153.07z M802.82,169.57
	c3.1,0.12,5.9,1.28,8.32,2.77c3.86,2.38,5.33,6.49,6.4,10.96C809.44,180.33,803.42,174.76,802.82,169.57z M815.17,139.26
	c6.69-1.89,12.79-0.81,18.19,4.11C826.69,144.43,820.37,144.49,815.17,139.26z"/>
<path class="st1" d="M214.45,390.37c-6.07-11.06-16.76-16.97-28.93-14.97c-4.28,0.7-9.03,2.09-12.29,4.74
	c-10.77,8.77-17.3,20.27-18.89,34.25c-0.17,2.13-0.58,4.27-0.45,6.38c0.43,7.55,0.65,15.14,1.7,22.62
	c1.22,8.67,3.12,17.26,4.95,25.84c0.68,3.18,1.84,3.36,4.33,1.23c0.31-0.27,0.63-0.55,0.98-0.75c9.8-5.62,19.09-11.94,27.66-19.35
	c6.73-5.81,13.83-11.14,19.11-18.51c3.39-4.73,5-10.03,5.85-15.49c0.57-3.66-0.44-7.55-0.47-11.34
	C217.97,399.94,216.91,394.86,214.45,390.37z M185.03,399.26c0.26,0.3,0.51,0.6,0.77,0.89c-4.54,4.69-9.09,9.37-13.63,14.06
	C172.26,407.75,178.34,400.21,185.03,399.26z M165.41,431.81c-0.2-0.2-0.41-0.4-0.61-0.59c1.92-4.15,4.15-8,8.85-9.42
	c0.24,0.23,0.48,0.47,0.72,0.7C171.39,425.61,168.4,428.71,165.41,431.81z M173.82,443.24c4.34-15.1,9.54-29.49,18.15-42.62
	C193.75,406.31,179.82,439.61,173.82,443.24z M189.2,440.96c-0.38-0.08-0.76-0.16-1.13-0.24c0.79-5.3,1.58-10.6,2.44-16.37
	C192.63,430.48,193.56,436.01,189.2,440.96z M197.43,424.89c-3.72-5.02-4.06-15.19,0.6-21.69
	C203.12,408.97,202.92,419.35,197.43,424.89z"/>
<path class="st1" d="M401.66,154.23c-1.1-0.34-2.23-0.57-3.34-0.87c-3.53-0.92-7.04-1.87-10.58-2.77
	c-5.6-1.43-11.24-1.64-16.91-0.43c-0.52,0.11-1.07,0.1-1.29,0.12c0.46-3.25,1-6.37,1.32-9.52c0.27-2.62,0.56-5.29,0.37-7.9
	c-0.24-3.23-0.9-6.43-1.48-9.62c-1.4-7.71-4.59-14.63-9.34-20.84c-0.85-1.11-1.64-2.26-2.38-3.45c-0.49-0.79-0.99-0.9-1.87-0.59
	c-2.89,1.01-5.35,2.74-7.79,4.52c-3.42,2.49-6.95,4.85-10.15,7.58c-3.01,2.57-5.75,5.49-8.46,8.4c-1.86,2-3.71,4.1-5.12,6.42
	c-2.06,3.41-3.72,7.07-5.56,10.64c-0.4-0.44-1.02-1.17-1.68-1.86c-3.96-4.18-8.45-7.53-14.06-9.26c-2.22-0.69-4.29-1.86-6.47-2.71
	c-1.68-0.65-3.44-1.11-5.14-1.72c-0.61-0.22-1.13-0.79-1.73-0.89c-0.53-0.08-1.43,0.09-1.66,0.46c-0.6,0.98-1.11,2.09-1.3,3.21
	c-0.58,3.25-1.18,6.51-1.4,9.79c-0.24,3.56-0.2,7.16,0,10.73c0.18,3.19,0.69,6.33,1.54,9.46c1.04,3.8,2.71,7.24,4.57,10.66
	c1.25,2.3,2.15,4.79,3.31,7.14c1.35,2.73,3.1,5.18,5.51,7.1c4.24,3.37,8.4,6.85,12.74,10.07c3.84,2.84,7.93,5.26,12.63,6.56
	c1.94,0.54,3.68,1.91,5.62,2.27c4.79,0.87,9.49,2.35,14.49,1.85c3.2-0.32,6.49,0.17,9.67-0.24c3.55-0.46,7.2-1.07,10.48-2.43
	c3.57-1.48,6.97-3.59,10.04-5.95c3.64-2.81,7.03-6.02,10.19-9.36c2.3-2.43,4.21-5.28,6.02-8.11c2.47-3.87,4.68-7.9,7.02-11.86
	c0.98-1.66,2-3.29,2.96-4.96C402.92,155.03,402.45,154.47,401.66,154.23z M313.54,171.38c-2.89-2.54-6.17-4.78-8.58-7.72
	c-2.37-2.89-4.2-6.36-5.67-9.83c-2.31-5.45-2.79-9.22-2.06-10.87c4.45,10.1,9.62,19.68,16.92,28
	C313.96,171.1,313.75,171.24,313.54,171.38z M361.12,136.19c-1.04,6.51-4.14,11.36-10.04,14.14
	C351.19,148.54,356.55,140.95,361.12,136.19z M324.2,146.92c0.85,6.39,1.73,13.02,2.59,19.49
	C319.41,158.46,321.19,152.91,324.2,146.92z M333.88,127.7c-0.33,2.88-0.63,5.69-1,8.49c-0.36,2.83-0.79,5.66-1.23,8.76
	C327.97,136.81,329.79,130.18,333.88,127.7z M343.57,149.87c-0.54,1.99-1.18,3.95-1.77,5.93c-1.15,3.9-2.23,7.83-3.44,11.71
	c-0.97,3.12-1.98,6.23-3.17,9.27c-0.6,1.54-1.66,2.89-2.51,4.33c-0.17-0.07-0.33-0.14-0.5-0.21c0.41-3.34,0.57-6.73,1.29-9.99
	c1.03-4.66,2.33-9.28,3.8-13.83c1.83-5.68,3.94-11.27,5.95-16.88c1.16-3.23,2.36-6.44,3.56-9.65c0.68-1.83,1.42-3.63,2.12-5.45
	c0.1,0.02,0.19,0.04,0.29,0.05c0.02,0.31,0.11,0.64,0.05,0.94c-0.83,3.91-1.6,7.84-2.54,11.73
	C345.75,141.86,344.65,145.86,343.57,149.87z M347.84,171.96c-1.08,0.38-2.21,0.61-3.32,0.91c-0.03-0.1-0.06-0.2-0.08-0.31
	c5.01-5.22,10.01-10.45,15.02-15.67c0.12,0.04,0.24,0.08,0.35,0.11c-0.91,2.09-1.7,4.24-2.77,6.25c-0.56,1.06-1.68,1.82-2.39,2.82
	C352.84,168.59,350.87,170.88,347.84,171.96z M371.82,179.34c-1.49,1.3-3.19,2.5-5.01,3.25c-4.59,1.9-8.84,1.84-14.26,0.7
	c0.11-0.12,0.2-0.29,0.31-0.31c2.31-0.49,4.74-0.66,6.92-1.5c3.75-1.44,7.37-3.26,11-4.99c2.37-1.13,4.68-2.4,7.02-3.61
	c0.06,0.11,0.13,0.21,0.19,0.32C375.95,175.25,374.01,177.43,371.82,179.34z"/>
<path class="st1" d="M941.77,61.04c-2.88-1.05-5.88-1.27-8.89-1.44c-4.22-0.24-8.45-0.65-12.66-0.57c-3.96,0.08-7.93,0.6-11.86,1.14
	c-2.71,0.37-5.47,0.82-8.03,1.72c-3.76,1.33-7.36,3.11-11.05,4.71c-0.03-0.59-0.05-1.55-0.12-2.51c-0.41-5.75-1.76-11.18-5.01-16.07
	c-1.28-1.94-2.14-4.16-3.29-6.19c-0.89-1.57-1.95-3.04-2.88-4.59c-0.33-0.55-0.37-1.32-0.78-1.78c-0.36-0.4-1.16-0.83-1.57-0.69
	c-1.08,0.38-2.18,0.92-3.04,1.66c-2.5,2.15-5.04,4.28-7.29,6.68c-2.44,2.61-4.7,5.41-6.8,8.3c-1.88,2.58-3.48,5.33-4.8,8.3
	c-1.6,3.6-2.49,7.32-3.22,11.14c-0.49,2.57-1.38,5.07-1.96,7.62c-0.68,2.97-0.89,5.97-0.24,8.98c1.14,5.29,2.16,10.62,3.47,15.87
	c1.16,4.63,2.8,9.1,5.61,13.08c1.16,1.64,1.63,3.81,2.91,5.32c3.15,3.7,5.85,7.83,10.04,10.62c2.68,1.78,4.91,4.24,7.63,5.94
	c3.03,1.9,6.25,3.74,9.64,4.76c3.69,1.12,7.67,1.64,11.54,1.76c4.6,0.14,9.25-0.2,13.82-0.78c3.32-0.42,6.6-1.41,9.8-2.46
	c4.36-1.42,8.63-3.14,12.94-4.73c1.81-0.66,3.63-1.27,5.43-1.96c0.89-0.34,0.88-1.07,0.43-1.75c-0.64-0.96-1.36-1.86-2.04-2.79
	c-2.14-2.95-4.26-5.91-6.42-8.85c-3.43-4.65-7.65-8.39-12.81-11.05c-0.48-0.25-0.89-0.6-1.07-0.72c2.41-2.22,4.81-4.3,7.06-6.53
	c1.87-1.86,3.79-3.74,5.29-5.88c1.86-2.65,3.38-5.54,4.95-8.38c3.8-6.85,5.72-14.22,5.98-22.04c0.05-1.4,0.16-2.79,0.35-4.18
	C942.96,61.76,942.64,61.36,941.77,61.04z M863.25,90.58c-0.25-0.02-0.49-0.05-0.74-0.07c-0.63-3.8-1.74-7.6-1.74-11.41
	c0-3.74,0.78-7.58,1.85-11.2c1.67-5.68,3.68-8.9,5.3-9.71C864.95,68.83,862.87,79.52,863.25,90.58z M905.92,69.61
	c-2.08,2.01-4.1,4-6.15,5.94c-2.08,1.96-4.2,3.88-6.5,6C895.57,72.92,901.18,68.94,905.92,69.61z M886.25,78.34
	c-3.39,5.48-6.91,11.17-10.35,16.72C875.23,84.23,880.12,81.07,886.25,78.34z M875.83,108.42c-1.44,0.81-3.12,1.19-4.68,1.76
	c-0.08-0.16-0.17-0.32-0.25-0.48c2.43-2.32,4.7-4.84,7.33-6.91c3.76-2.95,7.69-5.7,11.7-8.29c5.01-3.23,10.18-6.22,15.3-9.29
	c2.94-1.76,5.91-3.49,8.87-5.21c1.69-0.98,3.4-1.91,5.1-2.87c0.06,0.08,0.13,0.15,0.19,0.23c-0.18,0.25-0.32,0.57-0.55,0.76
	c-3.12,2.5-6.21,5.05-9.39,7.46c-3.31,2.51-6.7,4.91-10.08,7.32c-1.68,1.2-3.42,2.3-5.12,3.47c-3.36,2.29-6.69,4.64-10.08,6.88
	C881.43,105.05,878.67,106.82,875.83,108.42z M907.2,108.4c0.07,0.1,0.13,0.21,0.2,0.31c-2.03,1.04-4.01,2.2-6.1,3.08
	c-1.11,0.47-2.45,0.34-3.64,0.66c-2.99,0.8-5.97,1.33-8.99,0.24c-1.08-0.39-2.1-0.93-3.15-1.4c0.04-0.1,0.09-0.19,0.13-0.29
	C892.84,110.13,900.02,109.27,907.2,108.4z M911.22,132.76c-2.89,0.3-5.78,0.75-8.68,0.84c-1.97,0.06-4.05-0.09-5.93-0.66
	c-4.75-1.44-8-4.18-11.47-8.49c0.17-0.02,0.34-0.1,0.44-0.05c2.1,1.09,4.09,2.49,6.3,3.22c3.82,1.26,7.76,2.15,11.67,3.11
	c2.55,0.63,5.15,1.11,7.72,1.66C911.26,132.52,911.24,132.64,911.22,132.76z M904.87,98.02c1.23-1.31,10.18-3.79,16.73-4.58
	C916.67,97.81,911.2,99.6,904.87,98.02z"/>
<path class="st1" d="M1097.49,253.37c-5.03-6.64-12.41-9.81-19.98-12.55c-1.49-0.54-3-1.06-4.81-1.7c2.28-1.75,4.51-3.08,6.24-4.89
	c2.77-2.91,5.12-6.22,7.81-9.2c2.62-2.89,4.06-6.17,4.32-10.04c0.52-7.85-3.54-13.72-10.01-16.18c-4.9-1.87-10.03-3.24-15.41-2.67
	c-3.84,0.4-7.77,0.29-11.25,2.54c-1.1,0.71-2.6,0.81-4.38,1.32c0.64-1.69,0.99-3,1.6-4.17c2.55-4.89,3.98-10.1,2.92-15.52
	c-0.67-3.41-2.16-6.73-3.69-9.89c-2.42-4.98-6.27-8.62-11.54-10.59c-3.29-1.23-6.46-1.57-10.02-0.28
	c-7.59,2.74-13.82,6.8-17.1,14.51c-0.82,1.94-1.8,3.81-2.85,6.01c-1.15-2.21-2.12-4.06-3.07-5.92c-2.62-5.07-4.75-10.3-8.72-14.72
	c-4.76-5.3-10.4-6.64-16.86-5.76c-4.43,0.6-7.85,3.03-10.93,6.53c-5.05,5.74-8.84,16.42-7.73,24.1c0.09,0.6-0.17,1.26-0.22,1.53
	c-3.45-1.71-6.77-3.55-10.25-5.02c-6.02-2.55-12.31-3.47-18.76-1.98c-1.59,0.37-3.24,1.05-4.54,2.01c-4.28,3.16-6.72,7.68-8.36,12.6
	c-1.51,4.53-0.69,9.1,0.45,13.62c1.64,6.53,4.57,12.32,9.32,16.61c-3.18,0.31-6.6,0.66-10.02,0.97c-5.96,0.55-10.82,3.51-15.22,7.22
	c-2.89,2.43-4.28,5.92-5.28,9.56c-1.03,3.77-0.5,7.49,0.83,10.92c2.29,5.88,7.29,9.24,12.75,11.83c4.14,1.96,8.44,3.61,12.87,5.48
	c-1.14,0.88-2.32,1.59-3.23,2.54c-3.12,3.27-6.55,6.36-9.09,10.05c-2.36,3.41-4.34,7.23-5.06,11.51c-0.74,4.42-0.13,8.42,2.7,12.08
	c2.04,2.64,4.79,4.25,7.49,5.97c4.24,2.7,9.01,3.72,13.81,2.68c5.14-1.11,10.1-3.08,15.27-4.72c-0.02,0.17-0.04,0.69-0.17,1.19
	c-0.39,1.46-1.05,2.89-1.2,4.37c-0.31,3.08-0.43,6.19-0.5,9.3c-0.09,3.87-0.29,7.77,1.16,11.5c1.94,4.97,5.11,8.99,9.98,11.12
	c2.39,1.04,5.3,0.95,7.99,1.19c3.52,0.31,6.57-1.17,9.62-2.71c5.92-2.97,10.98-6.94,14.88-12.3c0.91-1.25,1.67-2.62,2.43-3.81
	c0.64,1.53,1.23,2.99,1.86,4.43c1.53,3.52,2.72,7.26,4.72,10.5c2.59,4.2,6.71,6.47,11.35,8.48c5.74,2.49,10.84,1.96,16.04-0.45
	c7.89-3.65,10.85-10.97,12.58-18.69c0.84-3.74,0.17-7.82,0.19-11.73c-0.15-0.05,0.11-0.01,0.32,0.12c0.29,0.18,0.59,0.38,0.81,0.64
	c3.31,3.96,7.77,6.13,12.54,7.48c4.36,1.23,8.89,2,13.45,0.62c2.09-0.63,4.41-0.76,6.28-1.77c3.29-1.78,5.17-4.86,6.67-8.32
	c3.9-8.97,2.54-17.33-2.49-25.33c-1.85-2.94-3.98-5.7-5.88-8.39c4.94,0.24,9.82,0.1,14.78-1.86c5.74-2.26,9.78-5.7,12.57-11.21
	c2.25-4.43,3.75-8.86,2.77-13.75C1099.76,257.93,1098.95,255.31,1097.49,253.37z M1076.34,212.56c-5.61,5.55-11.84,9.43-19.7,9.76
	C1060.67,214.29,1067.73,212.04,1076.34,212.56z M1052.42,232.89c-1.76,3.6-3.42,6.99-5.19,10.63c4.08,1.65,8.28,3.35,12.4,5.01
	c-4.61,0.91-9.13,1.81-13.87,2.75c-0.94-5.05-3.85-8.26-7.93-11.07C1042.8,237.71,1047.5,235.35,1052.42,232.89z M1026.03,185.27
	c0.22-1.85,1.92-3.65,3.26-5.21c2.01-2.35,4.3-4.47,6.46-6.69c0.2,0.12,0.4,0.23,0.61,0.35c-0.53,3.06-0.95,6.14-1.63,9.17
	c-0.46,2.09-0.92,4.31-2.02,6.08c-1.26,2.04-3.22,3.64-4.89,5.43c-0.35,0.37-0.73,0.71-1.41,1.36
	C1026.23,192.06,1025.63,188.61,1026.03,185.27z M1033.81,205.4c0.14,0.07,0.27,0.14,0.41,0.21c-1.06,4.86-2.11,9.71-3.25,14.97
	c4.38-0.54,8.9-1.09,13.66-1.68c-5.31,4.13-10.26,7.98-15.03,11.69c-0.11-4.71-2.8-8.67-6.32-12.91
	C1026.61,213.8,1030.21,209.6,1033.81,205.4z M1030.42,248.13c4.4,0.47,6.66,4.85,6.51,8.45c-0.25,6.06-2.87,9.97-8.86,11.32
	C1031.94,261.54,1029.93,254.71,1030.42,248.13z M1003.71,246.41c0.45-5.54,3.11-9.35,7.96-11.75
	C1014.11,240.18,1009.63,244.18,1003.71,246.41z M1003.88,278.17c-3.57-3.26-4.75-7.17-3.13-11.8
	C1004.61,267.12,1005.33,272.15,1003.88,278.17z M1015.88,254.63c-2.43,0.01-4.86-1.03-7.77-1.73c3.49-3.98,8.67-4.59,14.15-2.19
	C1020.78,253.13,1018.49,254.62,1015.88,254.63z M1018.91,268.48c-6.27,0.7-10.66-1.78-13.1-7.15
	C1012.49,258.84,1015.54,263.78,1018.91,268.48z M1020.01,227.59c0.48,1.52,0.65,3.14,1.08,5.29c-7.08-4.26-13.67-8.22-21.52-9.42
	c4.98-2.91,9.83-3.62,15.2-1.04C1017.3,223.64,1019.19,224.98,1020.01,227.59z M999.42,197.54c0.2-0.04,0.4-0.08,0.6-0.11
	c1.35,3.79,2.69,7.57,4.23,11.91c0.79-0.45,1.84-0.77,2.47-1.47c2-2.24,3.8-4.65,5.75-6.94c0.65-0.76,1.53-1.32,2.36-2.02
	c-0.52,4.95-1,9.58-1.52,14.53c-5.12-0.82-10.07-0.58-15.21,2.16C998.55,209.33,998.98,203.44,999.42,197.54z M995.74,230.91
	c2.94,4.49,4.12,9.17,1.46,14.23C993.56,240.78,992.81,233.43,995.74,230.91z M994.41,264.13c0.16,0.09,0.21,0.52,0.17,0.77
	c-0.74,4.24-2.85,7.49-6.85,9.33c-1.07-5.25,0.74-8.59,5.62-10.28C993.66,263.84,994.11,263.97,994.41,264.13z M976.99,259.3
	c4.57-2.15,8.71-6.72,13.99-1.73C986.82,260.93,983.88,262.71,976.99,259.3z M991.15,249.81c-2.51,0.88-9.04-1.03-10.77-3.3
	c-0.99-1.29-1.59-2.87-2.49-4.54c3.37-0.83,6.07,0.39,8.82,1.21c2.79,0.83,3.81,3.28,4.98,5.55
	C991.81,248.94,991.44,249.7,991.15,249.81z M971.35,244.63c-2.17-5.13-3.31-9.68,1-14.04c3.93-3.97,8.28-5.06,13.78-2.8
	C979.95,232.25,974.87,237.61,971.35,244.63z M980.85,169.85c1.71,2.52,2.97,4.59,4.44,6.51c1.72,2.23,2.51,4.67,2.05,7.42
	c-0.51,3.04-1.18,6.05-1.76,9C979.22,186.07,979.21,178.3,980.85,169.85z M970.55,211.7c2.58,0.81,4.38,3.64,7.46,3.13
	c-0.58-5.69-1.14-11.13-1.7-16.58c0.19-0.02,0.38-0.05,0.56-0.07c4.3,7.1,8.6,14.21,12.87,21.28c-2.83-0.06-5.89-0.23-8.94-0.16
	c-2.44,0.06-4.88,0.42-7.32,0.6c-0.43,0.03-1.05-0.02-1.29-0.29c-2.34-2.73-4.62-5.51-6.92-8.27c-0.86-1.04-1.72-2.08-2.42-3.44
	C965.41,209.2,967.85,210.85,970.55,211.7z M960.77,229.13c0.32,0.19,0.27,1.59-0.05,2.19c-2.27,4.25-2.28,8.61-0.83,13.63
	c-6.31-1.63-12.48-3.23-18.56-4.8c5.55-1.45,11.14-2.9,16.75-4.37c-3.86-4.77-7.4-9.16-10.94-13.54c0.2-0.17,0.39-0.34,0.59-0.51
	C952.1,224.17,956.48,226.57,960.77,229.13z M950.12,210.57c-6.22-0.38-13.52-6.94-14.92-13.44
	C943.43,197.97,947.09,204,950.12,210.57z M923.23,248.71c-3.52-0.63-6.71-3.12-10.05-4.79c8.1-3.93,14.78-0.85,21.3,3.84
	C930.72,248.15,926.81,249.35,923.23,248.71z M922.16,296.13c2.53-2.87,4.77-6.1,7.67-8.53c3.13-2.62,7.33-2.44,11.31-2.89
	C940.16,289.68,930.66,295.57,922.16,296.13z M943.5,273.3c-0.05-0.12-0.1-0.23-0.15-0.35c2.18-1.81,4.42-3.55,6.5-5.46
	c1.13-1.05,1.98-2.4,2.96-3.61c-1.3-0.56-2.56-1.31-3.92-1.65c-4.45-1.12-8.93-2.1-13.4-3.13c0-0.23,0-0.45,0-0.68
	c7.54-0.45,15.08-0.9,22.47-1.34c-0.85,2.38-1.86,4.44-2.27,6.61c-0.27,1.42,0.43,3,0.49,4.51c0.02,0.64-0.37,1.75-0.81,1.88
	C951.44,271.24,947.47,272.24,943.5,273.3z M965.38,330.53c-1-3.74,1.02-14.21,6.32-16.08C972.79,321.03,972.4,327.1,965.38,330.53z
	 M963.23,303.06c-0.16-0.07-0.33-0.13-0.49-0.2c0.27-1.18,0.56-2.35,0.8-3.54c0.52-2.57,1.03-5.15,1.53-7.73
	c0.04-0.2-0.05-0.42-0.02-0.62c0.14-0.95,0.3-1.89,0.45-2.84c-1.37,0.22-2.79,0.26-4.08,0.69c-3.08,1.02-6.11,2.22-9.49,3.48
	c3.02-3.29,5.58-6.13,8.2-8.91c0.59-0.63,1.34-1.13,2.09-1.56c0.32-0.18,1.08-0.18,1.23,0.03c3.08,4.32,7.65,4.28,12.23,4.28
	c0.05,0,0.1,0.07,0.39,0.28C971.77,291.98,967.5,297.52,963.23,303.06z M967.67,272.93c-1.45-2.59-1.92-5.3-1.91-8.07
	c0.01-1.91,0.82-3.81,1.27-5.72c0.25,0.07,0.5,0.14,0.74,0.22c0.13,3.68,5.59,12.44,12.23,17.77
	C975.86,279.34,970,277.08,967.67,272.93z M999.26,302.51c-0.45,3.81-1.07,7.61-1.59,11.2c-0.85-2.59-1.82-5.27-2.59-8
	c-0.31-1.09-0.09-2.33-0.34-3.44c-0.21-0.94-0.75-2.56-1.13-2.55c-1.13,0.01-2.38,0.48-3.35,1.12c-2.25,1.49-4.36,3.19-6.56,4.77
	c-0.25,0.18-0.66,0.15-1.15,0.25c1.76-4.68,3.43-9.16,5.03-13.43c3.02,1.72,5.81,3.5,8.77,4.94
	C999.55,298.91,999.7,298.78,999.26,302.51z M995.9,287.1c6.33-0.36,12.57,0.07,18.52-2.79C1012.1,291.87,1004.1,294.81,995.9,287.1
	z M1015.85,339.1c-2.59-2.71-4.92-5.49-5.89-9.26c-0.98-3.82,0.59-7.28,1.18-11.11C1016.29,324.3,1018.43,333.75,1015.85,339.1z
	 M1023.22,296.01c-0.88-0.36-2.09-0.01-3.11,0.2c-0.14,0.03-0.1,1.17-0.05,1.79c0.36,4.52,0.74,9.05,0.71,13.82
	c-3.13-4.48-6.26-8.96-9.45-13.54c6.42-1.4,9.09-6.61,11.99-11.18c2.94,4.24,5.97,8.62,9.22,13.29
	C1029.18,298.78,1026.26,297.26,1023.22,296.01z M1043.46,278.31c0.09,0.23,0.25,0.44,0.28,0.67c0.33,2.64,0.64,5.28,1,8.33
	c-5-3.68-9.84-7.24-14.67-10.8c0.1-0.19,0.21-0.38,0.31-0.57c4.08-0.44,7.74-1.77,10.5-4.99c0.09-0.1,0.2-0.2,0.27-0.31
	c2.17-3.36,2.15-3.32,5.84-1.61c3.02,1.4,6.07,2.71,9.12,4.04c0.56,0.24,1.17,0.34,1.76,0.5c-0.14,0.25-0.29,0.51-0.43,0.76
	c-4.11,0.4-8.23,0.77-12.34,1.22c-0.82,0.09-1.6,0.5-2.4,0.76C1042.96,276.98,1043.21,277.65,1043.46,278.31z M1047.02,299.71
	c4.02,0.15,7.65,1.65,10.79,3.59c5,3.09,6.91,8.41,8.29,14.2C1055.6,313.65,1047.8,306.43,1047.02,299.71z M1063.02,260.42
	c8.67-2.44,16.57-1.04,23.57,5.33C1077.97,267.12,1069.77,267.19,1063.02,260.42z"/>
<path class="st1" d="M1271.97,21.44c-5.03-6.64-12.41-9.81-19.98-12.55c-1.49-0.54-3-1.06-4.81-1.7c2.28-1.75,4.51-3.08,6.24-4.89
	c2.77-2.91,5.12-6.22,7.81-9.2c2.62-2.89,4.06-6.17,4.32-10.04c0.52-7.85-3.54-13.72-10.01-16.18c-4.9-1.87-10.03-3.24-15.41-2.67
	c-3.84,0.4-7.77,0.29-11.25,2.54c-1.1,0.71-2.6,0.81-4.38,1.32c0.64-1.69,0.99-3,1.6-4.17c2.55-4.89,3.98-10.1,2.92-15.52
	c-0.67-3.41-2.16-6.73-3.69-9.89c-2.42-4.98-6.27-8.62-11.54-10.59c-3.29-1.23-6.46-1.57-10.02-0.28
	c-7.59,2.74-13.82,6.8-17.1,14.51c-0.82,1.94-1.8,3.81-2.85,6.01c-1.15-2.21-2.12-4.06-3.07-5.92c-2.62-5.07-4.75-10.3-8.72-14.72
	c-4.76-5.3-10.4-6.64-16.86-5.76c-4.43,0.6-7.85,3.03-10.93,6.53c-5.05,5.74-8.84,16.42-7.73,24.1c0.09,0.6-0.17,1.26-0.22,1.53
	c-3.45-1.71-6.77-3.55-10.25-5.02c-6.02-2.55-12.31-3.47-18.76-1.98c-1.59,0.37-3.24,1.05-4.54,2.01c-4.28,3.16-6.72,7.68-8.36,12.6
	c-1.51,4.53-0.69,9.1,0.45,13.62c1.64,6.53,4.57,12.32,9.32,16.61c-3.18,0.31-6.6,0.66-10.02,0.97c-5.96,0.55-10.82,3.51-15.22,7.22
	c-2.89,2.43-4.28,5.92-5.28,9.56c-1.03,3.77-0.5,7.49,0.83,10.92c2.29,5.88,7.29,9.24,12.75,11.83c4.14,1.96,8.44,3.61,12.87,5.48
	c-1.14,0.88-2.32,1.59-3.23,2.54c-3.12,3.27-6.55,6.36-9.09,10.05c-2.36,3.41-4.34,7.23-5.06,11.51c-0.74,4.42-0.13,8.42,2.7,12.08
	c2.04,2.64,4.79,4.25,7.49,5.97c4.24,2.7,9.02,3.72,13.81,2.68c5.14-1.11,10.1-3.08,15.27-4.72c-0.02,0.17-0.04,0.69-0.17,1.19
	c-0.39,1.46-1.05,2.89-1.2,4.37c-0.31,3.08-0.43,6.19-0.5,9.3c-0.09,3.87-0.29,7.77,1.16,11.5c1.94,4.97,5.11,8.99,9.98,11.12
	c2.39,1.04,5.3,0.95,7.99,1.19c3.52,0.31,6.57-1.17,9.62-2.71c5.92-2.97,10.98-6.94,14.88-12.3c0.91-1.25,1.67-2.62,2.43-3.81
	c0.64,1.53,1.23,2.99,1.86,4.43c1.53,3.52,2.72,7.26,4.72,10.5c2.59,4.2,6.71,6.47,11.35,8.48c5.74,2.49,10.84,1.96,16.04-0.45
	c7.89-3.65,10.85-10.97,12.58-18.69c0.84-3.74,0.17-7.82,0.19-11.73c-0.15-0.05,0.11-0.01,0.32,0.12c0.29,0.18,0.59,0.38,0.81,0.64
	c3.31,3.96,7.77,6.13,12.54,7.48c4.36,1.23,8.89,2,13.45,0.62c2.09-0.63,4.41-0.76,6.28-1.77c3.29-1.78,5.17-4.86,6.67-8.32
	c3.9-8.97,2.54-17.33-2.49-25.33c-1.85-2.94-3.98-5.7-5.88-8.39c4.94,0.24,9.82,0.1,14.78-1.86c5.74-2.26,9.78-5.7,12.57-11.21
	c2.25-4.43,3.75-8.86,2.77-13.75C1274.24,26,1273.43,23.37,1271.97,21.44z M1250.83-19.38c-5.61,5.55-11.84,9.43-19.7,9.76
	C1235.16-17.65,1242.22-19.9,1250.83-19.38z M1226.91,0.95c-1.76,3.6-3.42,6.99-5.19,10.63c4.08,1.65,8.28,3.35,12.4,5.01
	c-4.61,0.91-9.13,1.81-13.87,2.75c-0.94-5.05-3.85-8.26-7.93-11.07C1217.28,5.77,1221.99,3.41,1226.91,0.95z M1200.52-46.67
	c0.22-1.85,1.92-3.65,3.26-5.21c2.01-2.35,4.3-4.47,6.46-6.69c0.2,0.12,0.4,0.23,0.61,0.35c-0.53,3.06-0.95,6.14-1.63,9.17
	c-0.46,2.09-0.92,4.31-2.02,6.08c-1.26,2.04-3.22,3.64-4.89,5.43c-0.35,0.37-0.73,0.71-1.41,1.36
	C1200.71-39.87,1200.12-43.33,1200.52-46.67z M1208.3-26.53c0.14,0.07,0.27,0.14,0.41,0.21c-1.06,4.86-2.11,9.71-3.25,14.97
	c4.38-0.54,8.9-1.09,13.66-1.68c-5.31,4.13-10.26,7.98-15.03,11.69c-0.11-4.71-2.8-8.67-6.32-12.91
	C1201.1-18.14,1204.7-22.34,1208.3-26.53z M1204.9,16.2c4.4,0.47,6.66,4.85,6.51,8.45c-0.25,6.06-2.87,9.97-8.86,11.32
	C1206.42,29.6,1204.41,22.77,1204.9,16.2z M1178.2,14.47c0.45-5.54,3.11-9.35,7.96-11.75C1188.59,8.24,1184.11,12.24,1178.2,14.47z
	 M1178.36,46.24c-3.57-3.26-4.75-7.17-3.13-11.8C1179.09,35.19,1179.82,40.22,1178.36,46.24z M1190.36,22.69
	c-2.43,0.01-4.86-1.03-7.77-1.73c3.49-3.98,8.67-4.59,14.15-2.19C1195.26,21.19,1192.97,22.68,1190.36,22.69z M1193.39,36.55
	c-6.27,0.7-10.66-1.78-13.1-7.15C1186.97,26.9,1190.03,31.85,1193.39,36.55z M1194.49-4.34c0.48,1.52,0.65,3.14,1.08,5.29
	c-7.08-4.26-13.67-8.22-21.52-9.42c4.98-2.91,9.83-3.62,15.2-1.04C1191.78-8.3,1193.67-6.96,1194.49-4.34z M1173.9-34.4
	c0.2-0.04,0.4-0.08,0.6-0.11c1.35,3.79,2.69,7.57,4.23,11.91c0.79-0.45,1.84-0.77,2.47-1.47c2-2.24,3.8-4.65,5.75-6.94
	c0.65-0.76,1.53-1.32,2.36-2.02c-0.52,4.95-1,9.58-1.52,14.53c-5.12-0.82-10.07-0.58-15.21,2.16
	C1173.04-22.61,1173.47-28.5,1173.9-34.4z M1170.23-1.03c2.94,4.49,4.12,9.17,1.46,14.23C1168.05,8.84,1167.29,1.49,1170.23-1.03z
	 M1168.89,32.2c0.16,0.09,0.21,0.52,0.17,0.77c-0.74,4.24-2.85,7.49-6.85,9.33c-1.07-5.25,0.74-8.59,5.62-10.28
	C1168.14,31.91,1168.59,32.03,1168.89,32.2z M1151.48,27.36c4.57-2.15,8.71-6.72,13.99-1.73C1161.31,29,1158.36,30.77,1151.48,27.36
	z M1165.64,17.87c-2.51,0.88-9.04-1.03-10.77-3.3c-0.99-1.29-1.59-2.87-2.49-4.54c3.37-0.83,6.07,0.39,8.82,1.21
	c2.79,0.83,3.81,3.28,4.98,5.55C1166.29,17.01,1165.92,17.77,1165.64,17.87z M1145.83,12.69c-2.17-5.13-3.31-9.68,1-14.04
	c3.93-3.97,8.28-5.06,13.78-2.8C1154.43,0.31,1149.35,5.68,1145.83,12.69z M1155.34-62.09c1.71,2.52,2.97,4.59,4.44,6.51
	c1.72,2.23,2.51,4.67,2.05,7.42c-0.51,3.04-1.18,6.05-1.76,9C1153.7-45.86,1153.69-53.64,1155.34-62.09z M1145.03-20.24
	c2.58,0.81,4.38,3.64,7.46,3.13c-0.58-5.69-1.14-11.13-1.7-16.58c0.19-0.02,0.38-0.05,0.56-0.07c4.3,7.1,8.59,14.21,12.87,21.28
	c-2.83-0.06-5.89-0.23-8.94-0.16c-2.44,0.06-4.88,0.42-7.32,0.6c-0.43,0.03-1.05-0.02-1.29-0.29c-2.34-2.73-4.62-5.51-6.92-8.27
	c-0.86-1.04-1.72-2.08-2.42-3.44C1139.89-22.74,1142.33-21.08,1145.03-20.24z M1135.26-2.81c0.32,0.19,0.27,1.59-0.05,2.19
	c-2.27,4.25-2.28,8.61-0.83,13.63c-6.31-1.63-12.48-3.23-18.56-4.8c5.55-1.45,11.14-2.9,16.75-4.37c-3.86-4.77-7.4-9.16-10.94-13.54
	c0.2-0.17,0.39-0.34,0.59-0.51C1126.58-7.77,1130.96-5.36,1135.26-2.81z M1124.6-21.36c-6.22-0.38-13.52-6.94-14.92-13.44
	C1117.91-33.97,1121.57-27.94,1124.6-21.36z M1097.71,16.77c-3.52-0.63-6.71-3.12-10.05-4.79c8.1-3.93,14.78-0.85,21.3,3.84
	C1105.2,16.21,1101.29,17.41,1097.71,16.77z M1096.64,64.19c2.53-2.87,4.77-6.1,7.67-8.53c3.13-2.62,7.33-2.44,11.31-2.89
	C1114.64,57.74,1105.14,63.63,1096.64,64.19z M1117.99,41.36c-0.05-0.12-0.1-0.23-0.15-0.35c2.18-1.81,4.42-3.55,6.5-5.46
	c1.13-1.05,1.98-2.4,2.96-3.61c-1.3-0.56-2.56-1.31-3.92-1.65c-4.45-1.12-8.93-2.1-13.4-3.13c0-0.23,0-0.45,0-0.68
	c7.54-0.45,15.08-0.9,22.47-1.34c-0.85,2.38-1.86,4.44-2.27,6.61c-0.27,1.42,0.43,3,0.49,4.51c0.02,0.64-0.37,1.75-0.81,1.88
	C1125.93,39.3,1121.95,40.31,1117.99,41.36z M1139.86,98.6c-1-3.74,1.02-14.21,6.32-16.08C1147.27,89.1,1146.88,95.16,1139.86,98.6z
	 M1137.71,71.13c-0.16-0.07-0.33-0.13-0.49-0.2c0.27-1.18,0.56-2.35,0.8-3.54c0.52-2.57,1.03-5.15,1.53-7.73
	c0.04-0.2-0.05-0.42-0.02-0.62c0.14-0.95,0.3-1.89,0.45-2.84c-1.37,0.22-2.79,0.26-4.08,0.69c-3.08,1.02-6.11,2.22-9.49,3.48
	c3.02-3.29,5.58-6.13,8.2-8.91c0.59-0.63,1.34-1.13,2.09-1.56c0.32-0.18,1.08-0.18,1.23,0.03c3.08,4.32,7.65,4.28,12.23,4.28
	c0.05,0,0.1,0.07,0.39,0.28C1146.26,60.04,1141.99,65.59,1137.71,71.13z M1142.16,40.99c-1.45-2.59-1.92-5.3-1.91-8.07
	c0.01-1.91,0.82-3.81,1.27-5.72c0.25,0.07,0.5,0.14,0.74,0.22c0.13,3.68,5.59,12.44,12.23,17.77
	C1150.34,47.41,1144.48,45.14,1142.16,40.99z M1173.74,70.57c-0.45,3.81-1.07,7.61-1.59,11.2c-0.85-2.59-1.82-5.27-2.59-8
	c-0.31-1.09-0.09-2.33-0.34-3.44c-0.21-0.94-0.75-2.56-1.13-2.55c-1.13,0.01-2.38,0.48-3.35,1.12c-2.25,1.49-4.36,3.19-6.56,4.77
	c-0.25,0.18-0.66,0.15-1.15,0.25c1.76-4.68,3.43-9.16,5.03-13.43c3.02,1.72,5.81,3.5,8.77,4.94
	C1174.03,66.98,1174.18,66.84,1173.74,70.57z M1170.39,55.16c6.33-0.36,12.57,0.07,18.52-2.79
	C1186.58,59.94,1178.59,62.87,1170.39,55.16z M1190.34,107.16c-2.59-2.71-4.92-5.49-5.89-9.26c-0.98-3.82,0.59-7.28,1.18-11.11
	C1190.77,92.37,1192.91,101.82,1190.34,107.16z M1197.71,64.07c-0.88-0.36-2.09-0.01-3.11,0.2c-0.14,0.03-0.1,1.17-0.05,1.79
	c0.36,4.52,0.74,9.05,0.71,13.82c-3.13-4.48-6.26-8.96-9.45-13.54c6.42-1.4,9.08-6.61,11.99-11.18c2.94,4.24,5.97,8.62,9.22,13.29
	C1203.66,66.85,1200.74,65.32,1197.71,64.07z M1217.94,46.37c0.09,0.23,0.25,0.44,0.28,0.67c0.33,2.64,0.64,5.28,1,8.33
	c-5-3.68-9.84-7.24-14.67-10.8c0.1-0.19,0.21-0.38,0.31-0.57c4.08-0.44,7.74-1.77,10.5-4.99c0.09-0.1,0.2-0.2,0.27-0.31
	c2.17-3.36,2.15-3.32,5.84-1.61c3.02,1.4,6.07,2.71,9.12,4.04c0.56,0.24,1.17,0.34,1.76,0.5c-0.14,0.25-0.29,0.51-0.43,0.76
	c-4.11,0.4-8.23,0.77-12.34,1.22c-0.82,0.09-1.6,0.5-2.4,0.76C1217.44,45.04,1217.69,45.71,1217.94,46.37z M1221.5,67.77
	c4.02,0.15,7.65,1.65,10.79,3.59c5,3.09,6.91,8.41,8.29,14.2C1230.08,81.71,1222.28,74.49,1221.5,67.77z M1237.51,28.48
	c8.67-2.44,16.57-1.04,23.57,5.33C1252.45,35.18,1244.25,35.25,1237.51,28.48z"/>
<path class="st1" d="M579.26,6.39c-5.03-6.64-12.41-9.81-19.98-12.55c-1.49-0.54-3-1.06-4.81-1.7c2.28-1.75,4.51-3.08,6.24-4.89
	c2.77-2.91,5.12-6.22,7.81-9.2c2.62-2.89,4.06-6.17,4.32-10.04c0.52-7.85-3.54-13.72-10.01-16.18c-4.9-1.87-10.03-3.24-15.41-2.67
	c-3.84,0.4-7.77,0.29-11.25,2.54c-1.1,0.71-2.6,0.81-4.38,1.32c0.64-1.69,0.99-3,1.6-4.17c2.55-4.89,3.98-10.1,2.92-15.52
	c-0.67-3.41-2.16-6.73-3.69-9.89c-2.42-4.98-6.27-8.62-11.54-10.59c-3.29-1.23-6.46-1.57-10.02-0.28
	c-7.59,2.74-13.82,6.8-17.1,14.51c-0.82,1.94-1.8,3.81-2.85,6.01c-1.15-2.21-2.12-4.06-3.07-5.92c-2.62-5.07-4.75-10.3-8.72-14.72
	c-4.76-5.3-10.4-6.64-16.86-5.76c-4.43,0.6-7.85,3.03-10.93,6.53c-5.05,5.74-8.84,16.42-7.73,24.1c0.09,0.6-0.17,1.26-0.22,1.53
	c-3.45-1.71-6.77-3.55-10.25-5.02c-6.02-2.55-12.31-3.47-18.76-1.98c-1.59,0.37-3.24,1.05-4.54,2.01c-4.28,3.16-6.72,7.68-8.36,12.6
	c-1.51,4.53-0.69,9.1,0.45,13.62c1.64,6.53,4.57,12.32,9.32,16.61c-3.18,0.31-6.6,0.66-10.02,0.97c-5.96,0.55-10.82,3.51-15.22,7.22
	c-2.89,2.43-4.28,5.92-5.28,9.56c-1.03,3.77-0.5,7.49,0.83,10.92c2.29,5.88,7.29,9.24,12.75,11.83c4.14,1.96,8.44,3.61,12.87,5.48
	c-1.14,0.88-2.32,1.59-3.23,2.54c-3.12,3.27-6.55,6.36-9.09,10.05c-2.36,3.41-4.34,7.23-5.06,11.51c-0.74,4.42-0.13,8.42,2.7,12.08
	c2.04,2.64,4.79,4.25,7.49,5.97c4.24,2.7,9.01,3.72,13.81,2.68c5.14-1.11,10.1-3.08,15.27-4.72c-0.02,0.17-0.04,0.69-0.17,1.19
	c-0.39,1.46-1.05,2.89-1.2,4.37c-0.31,3.08-0.43,6.19-0.5,9.3c-0.09,3.87-0.29,7.77,1.16,11.5c1.94,4.97,5.11,8.99,9.98,11.12
	c2.39,1.04,5.3,0.95,7.99,1.19c3.52,0.31,6.57-1.17,9.62-2.71c5.92-2.97,10.98-6.94,14.88-12.3c0.91-1.25,1.67-2.62,2.43-3.81
	c0.64,1.53,1.23,2.99,1.86,4.43c1.53,3.52,2.72,7.26,4.72,10.5c2.59,4.2,6.71,6.47,11.35,8.48c5.74,2.49,10.84,1.96,16.04-0.45
	c7.89-3.65,10.85-10.97,12.58-18.69c0.84-3.74,0.17-7.82,0.19-11.73c-0.15-0.05,0.11-0.01,0.32,0.12c0.29,0.18,0.59,0.38,0.81,0.64
	c3.31,3.96,7.77,6.13,12.54,7.48c4.36,1.23,8.89,2,13.45,0.62c2.09-0.63,4.41-0.76,6.28-1.77c3.29-1.78,5.17-4.86,6.67-8.32
	c3.9-8.97,2.54-17.33-2.49-25.33c-1.85-2.94-3.98-5.7-5.88-8.39c4.94,0.24,9.82,0.1,14.78-1.86c5.74-2.26,9.78-5.7,12.57-11.21
	c2.25-4.43,3.75-8.86,2.77-13.75C581.53,10.95,580.72,8.32,579.26,6.39z M558.11-34.43c-5.61,5.55-11.84,9.43-19.7,9.76
	C542.45-32.7,549.51-34.94,558.11-34.43z M534.19-14.1c-1.76,3.6-3.42,6.99-5.19,10.63c4.08,1.65,8.28,3.35,12.4,5.01
	c-4.61,0.91-9.13,1.81-13.87,2.75c-0.94-5.05-3.85-8.26-7.93-11.07C524.57-9.27,529.28-11.63,534.19-14.1z M507.8-61.71
	c0.22-1.85,1.92-3.65,3.26-5.21c2.01-2.35,4.3-4.47,6.46-6.69c0.2,0.12,0.4,0.23,0.61,0.35c-0.53,3.06-0.95,6.14-1.63,9.17
	c-0.46,2.09-0.92,4.31-2.02,6.08c-1.26,2.04-3.22,3.64-4.89,5.43c-0.35,0.37-0.73,0.71-1.41,1.36
	C508-54.92,507.41-58.38,507.8-61.71z M515.58-41.58c0.14,0.07,0.27,0.14,0.41,0.21c-1.06,4.86-2.11,9.71-3.25,14.97
	c4.38-0.54,8.9-1.09,13.66-1.68c-5.31,4.13-10.26,7.98-15.03,11.69c-0.11-4.71-2.8-8.67-6.32-12.91
	C508.38-33.18,511.98-37.38,515.58-41.58z M512.19,1.15c4.4,0.47,6.66,4.85,6.51,8.45c-0.25,6.06-2.87,9.97-8.86,11.32
	C513.71,14.56,511.7,7.73,512.19,1.15z M485.48-0.57c0.45-5.54,3.11-9.35,7.96-11.75C495.88-6.8,491.4-2.81,485.48-0.57z
	 M485.65,31.19c-3.57-3.26-4.75-7.17-3.13-11.8C486.38,20.14,487.1,25.17,485.65,31.19z M497.65,7.64
	c-2.43,0.01-4.86-1.03-7.77-1.73c3.49-3.98,8.67-4.59,14.15-2.19C502.55,6.14,500.26,7.63,497.65,7.64z M500.68,21.5
	c-6.27,0.7-10.66-1.78-13.1-7.15C494.26,11.86,497.31,16.8,500.68,21.5z M501.78-19.39c0.48,1.52,0.65,3.14,1.08,5.29
	c-7.08-4.26-13.67-8.22-21.52-9.42c4.98-2.91,9.83-3.62,15.2-1.04C499.07-23.35,500.96-22,501.78-19.39z M481.19-49.45
	c0.2-0.04,0.4-0.08,0.6-0.11c1.35,3.79,2.69,7.57,4.23,11.91c0.79-0.45,1.84-0.77,2.47-1.47c2-2.24,3.8-4.65,5.75-6.94
	c0.65-0.76,1.53-1.32,2.36-2.02c-0.52,4.95-1,9.58-1.52,14.53c-5.12-0.82-10.07-0.58-15.21,2.16
	C480.33-37.65,480.76-43.55,481.19-49.45z M477.52-16.08c2.94,4.49,4.12,9.17,1.46,14.23C475.34-6.21,474.58-13.55,477.52-16.08z
	 M476.18,17.15c0.16,0.09,0.21,0.52,0.17,0.77c-0.74,4.24-2.85,7.49-6.85,9.33c-1.07-5.25,0.74-8.59,5.62-10.28
	C475.43,16.86,475.88,16.98,476.18,17.15z M458.76,12.32c4.57-2.15,8.71-6.72,13.99-1.73C468.59,13.95,465.65,15.72,458.76,12.32z
	 M472.93,2.82c-2.51,0.88-9.04-1.03-10.77-3.3c-0.99-1.29-1.59-2.87-2.49-4.54c3.37-0.83,6.07,0.39,8.82,1.21
	c2.79,0.83,3.81,3.28,4.98,5.55C473.58,1.96,473.21,2.72,472.93,2.82z M453.12-2.35c-2.17-5.13-3.31-9.68,1-14.04
	c3.93-3.97,8.28-5.06,13.78-2.8C461.72-14.73,456.64-9.37,453.12-2.35z M462.62-77.14c1.71,2.52,2.97,4.59,4.44,6.51
	c1.72,2.23,2.51,4.67,2.05,7.42c-0.51,3.04-1.18,6.05-1.76,9C460.99-60.91,460.98-68.69,462.62-77.14z M452.32-35.29
	c2.58,0.81,4.38,3.64,7.46,3.13c-0.58-5.69-1.14-11.13-1.7-16.58c0.19-0.02,0.38-0.05,0.56-0.07c4.3,7.1,8.6,14.21,12.87,21.28
	c-2.83-0.06-5.89-0.23-8.94-0.16c-2.44,0.06-4.88,0.42-7.32,0.6c-0.43,0.03-1.05-0.02-1.29-0.29c-2.34-2.73-4.62-5.51-6.92-8.27
	c-0.86-1.04-1.72-2.08-2.42-3.44C447.18-37.79,449.62-36.13,452.32-35.29z M442.54-17.86c0.32,0.19,0.27,1.59-0.05,2.19
	c-2.27,4.25-2.28,8.61-0.83,13.63c-6.31-1.63-12.48-3.23-18.56-4.8c5.55-1.45,11.14-2.9,16.75-4.37c-3.86-4.77-7.4-9.16-10.94-13.54
	c0.2-0.17,0.39-0.34,0.59-0.51C433.87-22.81,438.25-20.41,442.54-17.86z M431.89-36.41c-6.22-0.38-13.52-6.94-14.92-13.44
	C425.2-49.02,428.86-42.99,431.89-36.41z M405,1.73c-3.52-0.63-6.71-3.12-10.05-4.79c8.1-3.93,14.78-0.85,21.3,3.84
	C412.49,1.16,408.58,2.36,405,1.73z M403.93,49.15c2.53-2.87,4.77-6.1,7.67-8.53c3.13-2.62,7.33-2.44,11.31-2.89
	C421.93,42.7,412.43,48.59,403.93,49.15z M425.27,26.31c-0.05-0.12-0.1-0.23-0.15-0.35c2.18-1.81,4.42-3.55,6.5-5.46
	c1.13-1.05,1.98-2.4,2.96-3.61c-1.3-0.56-2.56-1.31-3.92-1.65c-4.45-1.12-8.93-2.1-13.4-3.13c0-0.23,0-0.45,0-0.68
	c7.54-0.45,15.08-0.9,22.47-1.34c-0.85,2.38-1.86,4.44-2.27,6.61c-0.27,1.42,0.43,3,0.49,4.51c0.02,0.64-0.37,1.75-0.81,1.88
	C433.21,24.26,429.24,25.26,425.27,26.31z M447.15,83.55c-1-3.74,1.02-14.21,6.32-16.08C454.56,74.05,454.17,80.12,447.15,83.55z
	 M445,56.08c-0.16-0.07-0.33-0.13-0.49-0.2c0.27-1.18,0.56-2.35,0.8-3.54c0.52-2.57,1.03-5.15,1.53-7.73
	c0.04-0.2-0.05-0.42-0.02-0.62c0.14-0.95,0.3-1.89,0.45-2.84c-1.37,0.22-2.79,0.26-4.08,0.69c-3.08,1.02-6.11,2.22-9.49,3.48
	c3.02-3.29,5.58-6.13,8.2-8.91c0.59-0.63,1.34-1.13,2.09-1.56c0.32-0.18,1.08-0.18,1.23,0.03c3.08,4.32,7.65,4.28,12.23,4.28
	c0.05,0,0.1,0.07,0.39,0.28C453.55,45,449.27,50.54,445,56.08z M449.44,25.94c-1.45-2.59-1.92-5.3-1.91-8.07
	c0.01-1.91,0.82-3.81,1.27-5.72c0.25,0.07,0.5,0.14,0.74,0.22c0.13,3.68,5.59,12.44,12.23,17.77
	C457.63,32.36,451.77,30.09,449.44,25.94z M481.03,55.52c-0.45,3.81-1.07,7.61-1.59,11.2c-0.85-2.59-1.82-5.27-2.59-8
	c-0.31-1.09-0.09-2.33-0.34-3.44c-0.21-0.94-0.75-2.56-1.13-2.55c-1.13,0.01-2.38,0.48-3.35,1.12c-2.25,1.49-4.36,3.19-6.56,4.77
	c-0.25,0.18-0.66,0.15-1.15,0.25c1.76-4.68,3.43-9.16,5.03-13.43c3.02,1.72,5.81,3.5,8.77,4.94
	C481.32,51.93,481.47,51.8,481.03,55.52z M477.67,40.12c6.33-0.36,12.57,0.07,18.52-2.79C493.87,44.89,485.87,47.83,477.67,40.12z
	 M497.62,92.12c-2.59-2.71-4.92-5.49-5.89-9.26c-0.98-3.82,0.59-7.28,1.18-11.11C498.06,77.32,500.2,86.77,497.62,92.12z
	 M504.99,49.02c-0.88-0.36-2.09-0.01-3.11,0.2c-0.14,0.03-0.1,1.17-0.05,1.79c0.36,4.52,0.74,9.05,0.71,13.82
	c-3.13-4.48-6.26-8.96-9.45-13.54c6.42-1.4,9.09-6.61,11.99-11.18c2.94,4.24,5.97,8.62,9.22,13.29
	C510.95,51.8,508.03,50.28,504.99,49.02z M525.23,31.33c0.09,0.23,0.25,0.44,0.28,0.67c0.33,2.64,0.64,5.28,1,8.33
	c-5-3.68-9.84-7.24-14.67-10.8c0.1-0.19,0.21-0.38,0.31-0.57c4.08-0.44,7.74-1.77,10.5-4.99c0.09-0.1,0.2-0.2,0.27-0.31
	c2.17-3.36,2.15-3.32,5.84-1.61c3.02,1.4,6.07,2.71,9.12,4.04c0.56,0.24,1.17,0.34,1.76,0.5c-0.14,0.25-0.29,0.51-0.43,0.76
	c-4.11,0.4-8.23,0.77-12.34,1.22c-0.82,0.09-1.6,0.5-2.4,0.76C524.73,30,524.98,30.66,525.23,31.33z M528.79,52.72
	c4.02,0.15,7.65,1.65,10.79,3.59c5,3.09,6.91,8.41,8.29,14.2C537.37,66.66,529.57,59.44,528.79,52.72z M544.79,13.43
	c8.67-2.44,16.57-1.04,23.57,5.33C559.74,20.14,551.54,20.2,544.79,13.43z"/>
<path class="st1" d="M1786.06-0.73c-5.03-6.64-12.41-9.81-19.98-12.55c-1.49-0.54-3-1.06-4.81-1.7c2.28-1.75,4.51-3.08,6.24-4.89
	c2.77-2.91,5.12-6.22,7.81-9.2c2.62-2.89,4.06-6.17,4.32-10.04c0.52-7.85-3.54-13.72-10.01-16.18c-4.9-1.87-10.03-3.24-15.41-2.67
	c-3.84,0.4-7.77,0.29-11.25,2.54c-1.1,0.71-2.6,0.81-4.38,1.32c0.64-1.69,0.99-3,1.6-4.17c2.55-4.89,3.98-10.1,2.92-15.52
	c-0.67-3.41-2.16-6.73-3.69-9.89c-2.42-4.98-6.27-8.62-11.54-10.59c-3.29-1.23-6.46-1.57-10.02-0.28
	c-7.59,2.74-13.82,6.8-17.1,14.51c-0.82,1.94-1.8,3.81-2.85,6.01c-1.15-2.21-2.12-4.06-3.07-5.92c-2.62-5.07-4.75-10.3-8.72-14.72
	c-4.76-5.3-10.4-6.64-16.86-5.76c-4.43,0.6-7.85,3.03-10.93,6.53c-5.05,5.74-8.84,16.42-7.73,24.1c0.09,0.6-0.17,1.26-0.22,1.53
	c-3.45-1.71-6.77-3.55-10.25-5.02c-6.02-2.55-12.31-3.47-18.76-1.98c-1.59,0.37-3.24,1.05-4.54,2.01c-4.28,3.16-6.72,7.68-8.36,12.6
	c-1.51,4.53-0.69,9.1,0.45,13.62c1.64,6.53,4.57,12.32,9.32,16.61c-3.18,0.31-6.6,0.66-10.02,0.97c-5.96,0.55-10.82,3.51-15.22,7.22
	c-2.89,2.43-4.28,5.92-5.28,9.56c-1.03,3.77-0.5,7.49,0.83,10.92c2.29,5.88,7.29,9.24,12.75,11.83c4.14,1.96,8.44,3.61,12.87,5.48
	c-1.14,0.88-2.32,1.59-3.23,2.54c-3.12,3.27-6.55,6.36-9.09,10.05c-2.36,3.41-4.34,7.23-5.06,11.51c-0.74,4.42-0.13,8.42,2.7,12.08
	c2.04,2.64,4.79,4.25,7.49,5.97c4.24,2.7,9.01,3.72,13.81,2.68c5.14-1.11,10.1-3.08,15.27-4.72c-0.02,0.17-0.04,0.69-0.17,1.19
	c-0.39,1.46-1.05,2.89-1.2,4.37c-0.31,3.08-0.43,6.19-0.5,9.3c-0.09,3.87-0.29,7.77,1.16,11.5c1.94,4.97,5.11,8.99,9.98,11.12
	c2.39,1.04,5.3,0.95,7.99,1.19c3.52,0.31,6.57-1.17,9.62-2.71c5.92-2.97,10.98-6.94,14.88-12.3c0.91-1.25,1.67-2.62,2.43-3.81
	c0.64,1.53,1.23,2.99,1.86,4.43c1.53,3.52,2.72,7.26,4.72,10.5c2.59,4.2,6.71,6.47,11.35,8.48c5.74,2.49,10.84,1.96,16.04-0.45
	c7.89-3.65,10.85-10.97,12.58-18.69c0.84-3.74,0.17-7.82,0.19-11.73c-0.15-0.05,0.11-0.01,0.32,0.12c0.29,0.18,0.59,0.38,0.81,0.64
	c3.31,3.96,7.77,6.13,12.54,7.48c4.36,1.23,8.89,2,13.45,0.62c2.09-0.63,4.41-0.76,6.28-1.77c3.29-1.78,5.17-4.86,6.67-8.32
	c3.9-8.97,2.54-17.33-2.49-25.33c-1.85-2.94-3.98-5.7-5.88-8.39c4.94,0.24,9.82,0.1,14.78-1.86c5.74-2.26,9.78-5.7,12.57-11.21
	c2.25-4.43,3.75-8.86,2.77-13.75C1788.33,3.83,1787.53,1.2,1786.06-0.73z M1764.92-41.54c-5.61,5.55-11.84,9.43-19.7,9.76
	C1749.25-39.82,1756.31-42.06,1764.92-41.54z M1741-21.22c-1.76,3.6-3.42,6.99-5.19,10.63c4.08,1.65,8.28,3.35,12.4,5.01
	c-4.61,0.91-9.13,1.81-13.87,2.75c-0.94-5.05-3.85-8.26-7.93-11.07C1731.37-16.39,1736.08-18.75,1741-21.22z M1714.61-68.83
	c0.22-1.85,1.92-3.65,3.26-5.21c2.01-2.35,4.3-4.47,6.46-6.69c0.2,0.12,0.4,0.23,0.61,0.35c-0.53,3.06-0.95,6.14-1.63,9.17
	c-0.46,2.09-0.92,4.31-2.02,6.08c-1.26,2.04-3.22,3.64-4.89,5.43c-0.35,0.37-0.73,0.71-1.41,1.36
	C1714.8-62.04,1714.21-65.5,1714.61-68.83z M1722.39-48.7c0.14,0.07,0.27,0.14,0.41,0.21c-1.06,4.86-2.11,9.71-3.25,14.97
	c4.38-0.54,8.9-1.09,13.66-1.68c-5.31,4.13-10.26,7.98-15.03,11.69c-0.11-4.71-2.8-8.67-6.32-12.91
	C1715.19-40.3,1718.79-44.5,1722.39-48.7z M1718.99-5.97c4.4,0.47,6.66,4.85,6.51,8.45c-0.25,6.06-2.87,9.97-8.86,11.32
	C1720.52,7.44,1718.51,0.61,1718.99-5.97z M1692.29-7.69c0.45-5.54,3.11-9.35,7.96-11.75C1702.69-13.92,1698.2-9.93,1692.29-7.69z
	 M1692.45,24.07c-3.57-3.26-4.75-7.17-3.13-11.8C1693.18,13.02,1693.91,18.05,1692.45,24.07z M1704.45,0.53
	c-2.43,0.01-4.86-1.03-7.77-1.73c3.49-3.98,8.67-4.59,14.15-2.19C1709.35-0.98,1707.06,0.51,1704.45,0.53z M1707.48,14.38
	c-6.27,0.7-10.66-1.78-13.1-7.15C1701.06,4.74,1704.12,9.68,1707.48,14.38z M1708.59-26.51c0.48,1.52,0.65,3.14,1.08,5.29
	c-7.08-4.26-13.67-8.22-21.52-9.42c4.98-2.91,9.83-3.62,15.2-1.04C1705.87-30.46,1707.77-29.12,1708.59-26.51z M1687.99-56.56
	c0.2-0.04,0.4-0.08,0.6-0.11c1.35,3.79,2.69,7.57,4.23,11.91c0.79-0.45,1.84-0.77,2.47-1.47c2-2.24,3.8-4.65,5.75-6.94
	c0.65-0.76,1.53-1.32,2.36-2.02c-0.52,4.95-1,9.58-1.52,14.53c-5.12-0.82-10.07-0.58-15.21,2.16
	C1687.13-44.77,1687.56-50.67,1687.99-56.56z M1684.32-23.2c2.94,4.49,4.12,9.17,1.46,14.23
	C1682.14-13.33,1681.38-20.67,1684.32-23.2z M1682.98,10.03c0.16,0.09,0.21,0.52,0.17,0.77c-0.74,4.24-2.85,7.49-6.85,9.33
	c-1.07-5.25,0.74-8.59,5.62-10.28C1682.23,9.74,1682.68,9.86,1682.98,10.03z M1665.57,5.2c4.57-2.15,8.71-6.72,13.99-1.73
	C1675.4,6.83,1672.45,8.6,1665.57,5.2z M1679.73-4.3c-2.51,0.88-9.04-1.03-10.77-3.3c-0.99-1.29-1.59-2.87-2.49-4.54
	c3.37-0.83,6.07,0.39,8.82,1.21c2.79,0.83,3.81,3.28,4.98,5.55C1680.38-5.16,1680.02-4.4,1679.73-4.3z M1659.93-9.47
	c-2.17-5.13-3.31-9.68,1-14.04c3.93-3.97,8.28-5.06,13.78-2.8C1668.52-21.85,1663.44-16.49,1659.93-9.47z M1669.43-84.26
	c1.71,2.52,2.97,4.59,4.44,6.51c1.72,2.23,2.51,4.67,2.05,7.42c-0.51,3.04-1.18,6.05-1.76,9
	C1667.8-68.03,1667.78-75.81,1669.43-84.26z M1659.12-42.41c2.58,0.81,4.38,3.64,7.46,3.13c-0.58-5.69-1.14-11.13-1.7-16.58
	c0.19-0.02,0.38-0.05,0.56-0.07c4.3,7.1,8.6,14.21,12.87,21.28c-2.83-0.06-5.89-0.23-8.94-0.16c-2.44,0.06-4.88,0.42-7.32,0.6
	c-0.43,0.03-1.05-0.02-1.29-0.29c-2.34-2.73-4.62-5.51-6.92-8.27c-0.86-1.04-1.72-2.08-2.42-3.44
	C1653.98-44.91,1656.43-43.25,1659.12-42.41z M1649.35-24.98c0.32,0.19,0.27,1.59-0.05,2.19c-2.27,4.25-2.28,8.61-0.83,13.63
	c-6.31-1.63-12.48-3.23-18.56-4.8c5.55-1.45,11.14-2.9,16.75-4.37c-3.86-4.77-7.4-9.16-10.94-13.54c0.2-0.17,0.39-0.34,0.59-0.51
	C1640.67-29.93,1645.05-27.53,1649.35-24.98z M1638.7-43.53c-6.22-0.38-13.52-6.94-14.92-13.44
	C1632-56.14,1635.66-50.11,1638.7-43.53z M1611.81-5.39c-3.52-0.63-6.71-3.12-10.05-4.79c8.1-3.93,14.78-0.85,21.3,3.84
	C1619.29-5.95,1615.38-4.75,1611.81-5.39z M1610.73,42.03c2.53-2.87,4.77-6.1,7.67-8.53c3.13-2.62,7.33-2.44,11.31-2.89
	C1628.73,35.58,1619.23,41.47,1610.73,42.03z M1632.08,19.19c-0.05-0.12-0.1-0.23-0.15-0.35c2.18-1.81,4.42-3.55,6.5-5.46
	c1.13-1.05,1.98-2.4,2.96-3.61c-1.3-0.56-2.56-1.31-3.92-1.65c-4.45-1.12-8.93-2.1-13.4-3.13c0-0.23,0-0.45,0-0.68
	c7.54-0.45,15.08-0.9,22.47-1.34c-0.85,2.38-1.86,4.44-2.27,6.61c-0.27,1.42,0.44,3,0.49,4.51c0.02,0.64-0.37,1.75-0.81,1.88
	C1640.02,17.14,1636.04,18.14,1632.08,19.19z M1653.96,76.43c-1-3.74,1.02-14.21,6.32-16.08C1661.36,66.93,1660.97,73,1653.96,76.43
	z M1651.8,48.96c-0.16-0.07-0.33-0.13-0.49-0.2c0.27-1.18,0.56-2.35,0.8-3.54c0.52-2.57,1.03-5.15,1.53-7.73
	c0.04-0.2-0.05-0.42-0.02-0.62c0.14-0.95,0.3-1.89,0.45-2.84c-1.37,0.22-2.79,0.26-4.08,0.69c-3.08,1.02-6.11,2.22-9.49,3.48
	c3.02-3.29,5.58-6.13,8.2-8.91c0.59-0.63,1.34-1.13,2.09-1.56c0.32-0.18,1.08-0.18,1.23,0.03c3.08,4.32,7.65,4.28,12.23,4.28
	c0.05,0,0.1,0.07,0.39,0.28C1660.35,37.88,1656.08,43.42,1651.8,48.96z M1656.25,18.82c-1.45-2.59-1.92-5.3-1.91-8.07
	c0.01-1.91,0.82-3.81,1.27-5.72c0.25,0.07,0.5,0.14,0.74,0.22c0.13,3.68,5.59,12.44,12.23,17.77
	C1664.43,25.24,1658.57,22.97,1656.25,18.82z M1687.84,48.4c-0.45,3.81-1.07,7.61-1.59,11.2c-0.85-2.59-1.82-5.27-2.59-8
	c-0.31-1.09-0.09-2.33-0.34-3.44c-0.21-0.94-0.75-2.56-1.13-2.55c-1.13,0.01-2.38,0.48-3.35,1.12c-2.25,1.49-4.36,3.19-6.56,4.77
	c-0.25,0.18-0.66,0.15-1.15,0.25c1.76-4.68,3.43-9.16,5.03-13.43c3.02,1.72,5.81,3.5,8.77,4.94
	C1688.12,44.81,1688.27,44.68,1687.84,48.4z M1684.48,33c6.33-0.36,12.57,0.07,18.52-2.79C1700.67,37.77,1692.68,40.71,1684.48,33z
	 M1704.43,85c-2.59-2.71-4.92-5.49-5.89-9.26c-0.98-3.82,0.59-7.28,1.18-11.11C1704.86,70.2,1707.01,79.65,1704.43,85z M1711.8,41.9
	c-0.88-0.36-2.09-0.01-3.11,0.2c-0.14,0.03-0.1,1.17-0.05,1.79c0.36,4.52,0.74,9.05,0.71,13.82c-3.13-4.48-6.26-8.96-9.45-13.54
	c6.42-1.4,9.09-6.61,11.99-11.18c2.94,4.24,5.97,8.62,9.22,13.29C1717.76,44.68,1714.83,43.16,1711.8,41.9z M1732.03,24.21
	c0.09,0.23,0.25,0.44,0.28,0.67c0.33,2.64,0.64,5.28,1,8.33c-5-3.68-9.84-7.24-14.67-10.8c0.1-0.19,0.21-0.38,0.31-0.57
	c4.08-0.44,7.74-1.77,10.5-4.99c0.09-0.1,0.2-0.2,0.27-0.31c2.17-3.36,2.15-3.32,5.84-1.61c3.02,1.4,6.07,2.71,9.12,4.04
	c0.56,0.24,1.17,0.34,1.76,0.5c-0.14,0.25-0.29,0.51-0.43,0.76c-4.11,0.4-8.23,0.77-12.34,1.22c-0.82,0.09-1.6,0.5-2.4,0.76
	C1731.54,22.88,1731.78,23.54,1732.03,24.21z M1735.59,45.61c4.02,0.15,7.65,1.65,10.79,3.59c5,3.09,6.91,8.41,8.29,14.2
	C1744.18,59.54,1736.37,52.32,1735.59,45.61z M1751.6,6.31c8.67-2.44,16.57-1.04,23.57,5.33
	C1766.54,13.02,1758.34,13.09,1751.6,6.31z"/>
<path class="st1" d="M1752.12,276c-0.6-2.98-1.58-6.2-3.38-8.57c-6.16-8.14-15.21-12.01-24.48-15.38c-1.83-0.66-3.67-1.3-5.9-2.08
	c2.79-2.15,5.53-3.77,7.65-5.99c3.4-3.56,6.27-7.62,9.57-11.27c3.2-3.54,4.98-7.55,5.29-12.3c0.63-9.62-4.34-16.81-12.26-19.82
	c-6.01-2.29-12.29-3.97-18.88-3.28c-4.7,0.49-9.52,0.35-13.78,3.11c-1.35,0.87-3.18,0.99-5.37,1.62c0.78-2.07,1.21-3.67,1.96-5.11
	c3.12-6,4.88-12.37,3.58-19.02c-0.82-4.18-2.65-8.24-4.52-12.11c-2.97-6.11-7.69-10.57-14.14-12.98c-4.03-1.51-7.92-1.92-12.28-0.35
	c-9.3,3.36-16.93,8.33-20.95,17.77c-1.01,2.37-2.21,4.66-3.49,7.36c-1.41-2.7-2.59-4.98-3.77-7.25
	c-3.21-6.21-5.82-12.62-10.68-18.04c-5.83-6.5-12.74-8.14-20.65-7.06c-5.42,0.74-9.62,3.71-13.39,8
	c-6.18,7.03-10.83,20.12-9.47,29.53c0.11,0.74-0.21,1.54-0.27,1.87c-4.23-2.09-8.3-4.35-12.56-6.15
	c-7.38-3.12-15.08-4.25-22.98-2.43c-1.95,0.45-3.97,1.29-5.57,2.47c-5.25,3.87-8.24,9.41-10.24,15.43
	c-1.85,5.55-0.84,11.16,0.55,16.69c2.01,8,5.6,15.1,11.42,20.35c-3.9,0.38-8.09,0.8-12.28,1.19c-7.3,0.67-13.26,4.3-18.65,8.84
	c-3.54,2.98-5.25,7.25-6.47,11.71c-1.26,4.62-0.61,9.18,1.02,13.38c2.81,7.2,8.94,11.32,15.63,14.49
	c5.07,2.41,10.34,4.42,15.77,6.71c-1.4,1.08-2.84,1.94-3.96,3.12c-3.82,4.01-8.02,7.79-11.14,12.31c-2.89,4.18-5.31,8.86-6.2,14.1
	c-0.91,5.42-0.15,10.32,3.31,14.8c2.5,3.23,5.86,5.21,9.17,7.32c5.2,3.31,11.05,4.55,16.92,3.29c6.3-1.36,12.37-3.78,18.71-5.79
	c-0.03,0.21-0.05,0.85-0.21,1.46c-0.48,1.79-1.29,3.54-1.47,5.36c-0.38,3.78-0.53,7.59-0.62,11.39c-0.11,4.75-0.36,9.52,1.42,14.09
	c2.37,6.09,6.26,11.02,12.23,13.62c2.92,1.28,6.49,1.16,9.79,1.46c4.31,0.39,8.05-1.44,11.79-3.32c7.25-3.64,13.45-8.5,18.24-15.07
	c1.12-1.54,2.05-3.21,2.98-4.67c0.78,1.87,1.51,3.66,2.27,5.43c1.88,4.32,3.33,8.9,5.78,12.87c3.18,5.15,8.22,7.93,13.91,10.4
	c7.03,3.05,13.28,2.4,19.65-0.55c9.66-4.47,13.29-13.45,15.42-22.9c1.03-4.58,0.21-9.58,0.23-14.37c-0.19-0.06,0.13-0.01,0.39,0.15
	c0.36,0.22,0.73,0.46,0.99,0.78c4.05,4.85,9.52,7.52,15.36,9.17c5.34,1.51,10.89,2.45,16.48,0.76c2.56-0.77,5.41-0.93,7.69-2.17
	c4.03-2.18,6.33-5.96,8.17-10.19c4.77-10.99,3.12-21.23-3.06-31.03c-2.27-3.6-4.88-6.98-7.2-10.28c6.06,0.3,12.03,0.12,18.1-2.28
	c7.03-2.77,11.98-6.99,15.41-13.74C1751.48,287.4,1753.32,281.98,1752.12,276z M1722.84,217.42c-6.88,6.8-14.51,11.55-24.14,11.96
	C1703.64,219.54,1712.29,216.79,1722.84,217.42z M1693.53,242.33c-2.16,4.41-4.19,8.56-6.36,13.02c5,2.02,10.14,4.1,15.19,6.14
	c-5.65,1.12-11.19,2.22-17,3.37c-1.15-6.18-4.72-10.12-9.71-13.57C1681.73,248.24,1687.5,245.35,1693.53,242.33z M1661.19,183.99
	c0.27-2.27,2.36-4.47,4-6.39c2.47-2.88,5.26-5.48,7.92-8.2c0.25,0.14,0.49,0.29,0.74,0.43c-0.65,3.75-1.17,7.53-1.99,11.24
	c-0.57,2.55-1.13,5.28-2.47,7.45c-1.55,2.5-3.95,4.46-5.99,6.65c-0.42,0.45-0.9,0.86-1.73,1.66
	C1661.43,192.31,1660.71,188.08,1661.19,183.99z M1670.73,208.65c0.17,0.09,0.33,0.17,0.5,0.26c-1.29,5.95-2.59,11.9-3.99,18.34
	c5.37-0.66,10.91-1.34,16.74-2.05c-6.5,5.06-12.58,9.78-18.42,14.32c-0.13-5.77-3.43-10.63-7.74-15.81
	C1661.9,218.94,1666.31,213.8,1670.73,208.65z M1666.57,261.01c5.4,0.58,8.16,5.94,7.98,10.36c-0.31,7.43-3.52,12.22-10.85,13.87
	C1668.43,277.44,1665.97,269.07,1666.57,261.01z M1633.85,258.9c0.56-6.79,3.81-11.46,9.76-14.4
	C1646.59,251.27,1641.09,256.16,1633.85,258.9z M1634.05,297.82c-4.37-3.99-5.82-8.79-3.84-14.46
	C1634.94,284.27,1635.83,290.44,1634.05,297.82z M1648.75,268.97c-2.98,0.01-5.96-1.27-9.51-2.12c4.28-4.88,10.63-5.62,17.34-2.68
	C1654.75,267.13,1651.95,268.95,1648.75,268.97z M1652.46,285.94c-7.69,0.86-13.06-2.18-16.05-8.76
	C1644.6,274.13,1648.34,280.18,1652.46,285.94z M1653.82,235.84c0.59,1.87,0.8,3.85,1.33,6.48c-8.68-5.22-16.75-10.07-26.37-11.55
	c6.1-3.57,12.05-4.43,18.62-1.27C1650.49,231,1652.81,232.64,1653.82,235.84z M1628.58,199.02c0.24-0.05,0.49-0.09,0.73-0.14
	c1.65,4.64,3.3,9.28,5.18,14.6c0.97-0.55,2.26-0.94,3.02-1.8c2.45-2.75,4.65-5.7,7.05-8.5c0.8-0.93,1.88-1.62,2.89-2.48
	c-0.64,6.07-1.23,11.74-1.86,17.8c-6.28-1.01-12.34-0.71-18.63,2.65C1627.53,213.47,1628.05,206.24,1628.58,199.02z M1624.08,239.9
	c3.61,5.5,5.04,11.24,1.79,17.43C1621.41,252,1620.48,243,1624.08,239.9z M1622.45,280.61c0.19,0.11,0.26,0.63,0.21,0.94
	c-0.9,5.2-3.49,9.17-8.39,11.43c-1.31-6.44,0.91-10.52,6.89-12.6C1621.53,280.26,1622.08,280.41,1622.45,280.61z M1601.11,274.69
	c5.6-2.64,10.67-8.23,17.14-2.12C1613.15,276.69,1609.54,278.87,1601.11,274.69z M1618.46,263.06c-3.07,1.08-11.07-1.26-13.2-4.04
	c-1.21-1.58-1.95-3.52-3.05-5.57c4.13-1.02,7.44,0.47,10.81,1.48c3.42,1.02,4.66,4.02,6.1,6.8
	C1619.26,262,1618.81,262.93,1618.46,263.06z M1594.19,256.72c-2.66-6.29-4.06-11.86,1.23-17.2c4.81-4.87,10.15-6.2,16.88-3.43
	C1604.73,241.55,1598.5,248.12,1594.19,256.72z M1605.84,165.09c2.09,3.09,3.64,5.63,5.44,7.97c2.11,2.73,3.08,5.72,2.52,9.09
	c-0.62,3.73-1.44,7.42-2.15,11.03C1603.84,184.97,1603.82,175.44,1605.84,165.09z M1593.21,216.36c3.16,0.99,5.36,4.45,9.14,3.83
	c-0.71-6.97-1.4-13.64-2.08-20.31c0.23-0.03,0.46-0.06,0.69-0.09c5.27,8.7,10.53,17.41,15.77,26.07c-3.47-0.07-7.21-0.28-10.95-0.19
	c-2.99,0.07-5.98,0.51-8.97,0.73c-0.53,0.04-1.29-0.02-1.57-0.35c-2.87-3.34-5.67-6.75-8.48-10.14c-1.06-1.27-2.11-2.55-2.97-4.21
	C1586.92,213.3,1589.91,215.33,1593.21,216.36z M1581.23,237.72c0.39,0.23,0.33,1.95-0.07,2.69c-2.78,5.21-2.79,10.54-1.02,16.7
	c-7.73-2-15.29-3.95-22.74-5.88c6.8-1.77,13.65-3.56,20.52-5.35c-4.72-5.85-9.06-11.22-13.4-16.59c0.24-0.21,0.48-0.42,0.72-0.63
	C1570.6,231.65,1575.97,234.59,1581.23,237.72z M1568.18,214.99c-7.62-0.46-16.56-8.5-18.28-16.47
	C1559.98,199.54,1564.46,206.93,1568.18,214.99z M1535.24,261.72c-4.32-0.77-8.23-3.82-12.31-5.87c9.93-4.82,18.11-1.04,26.09,4.7
	C1544.41,261.03,1539.62,262.5,1535.24,261.72z M1533.92,319.82c3.1-3.52,5.84-7.47,9.4-10.45c3.83-3.21,8.98-2.99,13.86-3.54
	C1555.98,311.91,1544.34,319.13,1533.92,319.82z M1560.08,291.84c-0.06-0.14-0.13-0.29-0.19-0.43c2.67-2.22,5.42-4.34,7.96-6.69
	c1.39-1.28,2.43-2.94,3.63-4.43c-1.6-0.69-3.14-1.6-4.81-2.02c-5.45-1.38-10.94-2.57-16.42-3.84c0-0.28,0-0.56,0-0.84
	c9.24-0.55,18.47-1.1,27.53-1.64c-1.04,2.92-2.28,5.44-2.78,8.1c-0.33,1.74,0.53,3.67,0.6,5.53c0.03,0.79-0.46,2.15-0.99,2.31
	C1569.8,289.32,1564.93,290.55,1560.08,291.84z M1586.88,361.97c-1.22-4.58,1.26-17.41,7.74-19.7
	C1595.96,350.33,1595.48,357.76,1586.88,361.97z M1584.24,328.31c-0.2-0.08-0.4-0.16-0.6-0.24c0.33-1.44,0.68-2.88,0.98-4.33
	c0.64-3.15,1.26-6.31,1.87-9.47c0.05-0.24-0.07-0.51-0.03-0.76c0.17-1.16,0.36-2.32,0.55-3.48c-1.67,0.27-3.42,0.32-5,0.85
	c-3.78,1.25-7.48,2.72-11.63,4.26c3.7-4.03,6.84-7.51,10.04-10.92c0.72-0.77,1.64-1.39,2.56-1.91c0.39-0.22,1.32-0.22,1.5,0.04
	c3.78,5.29,9.38,5.25,14.98,5.24c0.06,0,0.12,0.08,0.48,0.34C1594.71,314.73,1589.48,321.52,1584.24,328.31z M1589.69,291.38
	c-1.78-3.17-2.36-6.5-2.34-9.89c0.01-2.34,1-4.67,1.56-7.01c0.3,0.09,0.61,0.18,0.91,0.26c0.16,4.51,6.86,15.24,14.98,21.77
	C1599.71,299.25,1592.54,296.47,1589.69,291.38z M1628.39,327.63c-0.55,4.67-1.31,9.32-1.94,13.72c-1.05-3.18-2.23-6.45-3.18-9.8
	c-0.38-1.34-0.11-2.85-0.42-4.22c-0.25-1.15-0.92-3.13-1.39-3.13c-1.38,0.01-2.91,0.59-4.1,1.38c-2.76,1.82-5.35,3.91-8.03,5.85
	c-0.31,0.22-0.81,0.18-1.41,0.3c2.15-5.74,4.21-11.22,6.17-16.45c3.7,2.11,7.12,4.29,10.74,6.05
	C1628.75,323.23,1628.93,323.06,1628.39,327.63z M1624.28,308.75c7.75-0.44,15.4,0.08,22.69-3.42
	C1644.12,314.6,1634.32,318.2,1624.28,308.75z M1648.72,372.46c-3.17-3.32-6.03-6.72-7.21-11.34c-1.2-4.68,0.72-8.92,1.45-13.62
	C1649.26,354.34,1651.88,365.91,1648.72,372.46z M1657.75,319.67c-1.07-0.44-2.56-0.02-3.8,0.25c-0.17,0.04-0.13,1.43-0.07,2.19
	c0.44,5.54,0.91,11.08,0.87,16.93c-3.83-5.49-7.66-10.98-11.58-16.58c7.86-1.72,11.13-8.1,14.69-13.7
	c3.6,5.19,7.32,10.56,11.29,16.28C1665.05,323.07,1661.47,321.2,1657.75,319.67z M1682.55,297.98c0.11,0.28,0.31,0.54,0.35,0.83
	c0.4,3.23,0.78,6.47,1.23,10.21c-6.13-4.51-12.05-8.87-17.97-13.23c0.13-0.23,0.25-0.47,0.38-0.7c5-0.54,9.48-2.17,12.87-6.11
	c0.11-0.13,0.24-0.24,0.33-0.38c2.66-4.11,2.64-4.07,7.16-1.98c3.7,1.71,7.44,3.33,11.18,4.95c0.68,0.29,1.44,0.41,2.16,0.62
	c-0.18,0.31-0.35,0.62-0.53,0.93c-5.04,0.49-10.09,0.94-15.12,1.5c-1,0.11-1.96,0.61-2.94,0.93
	C1681.93,296.35,1682.24,297.17,1682.55,297.98z M1686.9,324.2c4.92,0.18,9.38,2.03,13.21,4.4c6.13,3.78,8.47,10.3,10.16,17.4
	C1697.42,341.28,1687.86,332.43,1686.9,324.2z M1706.51,276.06c10.62-2.99,20.31-1.28,28.88,6.53
	C1724.82,284.27,1714.78,284.36,1706.51,276.06z"/>
<path class="st1" d="M1202.14,157.94c-0.48,0.13-0.95,0.28-1.44,0.31c-13.36,1.11-26.52,3.22-39.46,6.85
	c-10.16,2.85-20.46,5-29.85,10.26c-6.03,3.37-10.42,8.25-14.09,13.68c-2.46,3.65-3.33,8.34-5.21,12.42
	c-5.33,11.56-4.79,27.51,3.35,37.83c7.01,8.9,20.99,14.26,32.21,11.45c15.99-4,28.8-13.06,37.55-27.27c1.25-2.2,2.77-4.3,3.7-6.62
	c3.34-8.33,6.93-16.59,9.57-25.15c3.06-9.93,5.34-20.11,7.69-30.25C1207.05,157.68,1205.89,156.9,1202.14,157.94z M1161.14,177.37
	c0.36,0.28,0.73,0.55,1.09,0.83c-3.52,5.29-7.04,10.59-10.86,16.35C1152.16,186.91,1153.95,180.49,1161.14,177.37z M1132.62,213.48
	c-2.56-8.76,2.89-19.81,11.58-23C1145.66,197.75,1140.9,208.85,1132.62,213.48z M1137.85,219.31c0.95-7.01,32.69-35.76,40.96-36.64
	C1166.53,196.71,1153.7,209.55,1137.85,219.31z M1144.6,224.26c-0.13-0.44-0.25-0.89-0.38-1.34c7.24-2.75,14.49-5.49,21.73-8.24
	C1162.6,221.58,1152.27,226.62,1144.6,224.26z M1168.19,205.78c-0.14-0.37-0.29-0.75-0.43-1.12c4.78-1.83,9.55-3.66,14.32-5.48
	c0.12,0.32,0.24,0.63,0.36,0.94C1178.29,203.62,1173.95,206.63,1168.19,205.78z"/>
<path class="st1" d="M1501.92,186.57c2.12-3.79,5.21-7.04,7.22-10.87c2.25-4.28,4.4-8.79,5.43-13.46c1.13-5.09,1.43-10.49,1.2-15.71
	c-0.28-6.2-1.2-12.43-2.45-18.52c-0.91-4.42-2.57-8.74-4.3-12.94c-2.36-5.73-5.11-11.3-7.67-16.95c-1.08-2.37-2.08-4.76-3.19-7.11
	c-0.55-1.17-1.53-1.08-2.4-0.4c-1.22,0.95-2.36,2.02-3.55,3.02c-3.75,3.18-7.53,6.34-11.26,9.54c-5.91,5.09-10.52,11.15-13.57,18.36
	c-0.28,0.67-0.72,1.26-0.86,1.51c-3.23-3.03-6.27-6.04-9.5-8.84c-2.69-2.33-5.41-4.72-8.45-6.53c-3.75-2.24-7.81-3.99-11.79-5.82
	c-9.61-4.42-19.72-6.26-30.28-5.82c-1.88,0.08-3.78,0.06-5.66-0.04c-1.26-0.07-1.76,0.39-2.1,1.6c-1.12,3.98-1.12,8.04-1.04,12.11
	c0.1,5.7-0.02,11.44,0.52,17.1c0.51,5.32,1.61,10.61,2.73,15.85c0.77,3.61,1.65,7.28,3.13,10.63c2.17,4.92,4.93,9.59,7.46,14.4
	c-0.79,0.1-2.08,0.23-3.37,0.42c-7.69,1.14-14.87,3.51-21.13,8.36c-2.48,1.92-5.38,3.3-8,5.05c-2.03,1.35-3.9,2.94-5.89,4.35
	c-0.71,0.5-1.74,0.63-2.32,1.23c-0.51,0.53-1.01,1.65-0.77,2.19c0.62,1.42,1.45,2.84,2.54,3.93c3.14,3.15,6.28,6.35,9.74,9.14
	c3.76,3.02,7.76,5.77,11.86,8.32c3.66,2.27,7.53,4.15,11.65,5.63c5.01,1.8,10.1,2.61,15.32,3.21c3.51,0.4,6.96,1.34,10.46,1.87
	c4.06,0.62,8.13,0.59,12.12-0.59c7.01-2.07,14.08-3.98,21.01-6.28c6.12-2.04,11.96-4.7,17.04-8.87c2.1-1.73,4.97-2.58,6.87-4.46
	C1493.32,196.54,1498.6,192.49,1501.92,186.57z M1452.25,143.52c-1.89-1.52-6.13-13.32-7.85-22.06
	C1450.78,127.65,1453.74,134.84,1452.25,143.52z M1413.9,144.99c2.92,2.6,5.8,5.11,8.62,7.68c2.85,2.6,5.65,5.26,8.73,8.14
	C1419.4,158.58,1413.48,151.43,1413.9,144.99z M1446.43,201.31c-5.05,1.23-10.06,3.12-15.18,3.5c-5.03,0.38-10.29-0.29-15.26-1.35
	c-7.82-1.68-12.35-4.06-13.61-6.15c14.61,2.91,29.21,4.62,44.07,2.99C1446.44,200.64,1446.44,200.97,1446.43,201.31z
	 M1427.65,170.58c7.72,4.01,15.73,8.17,23.56,12.24C1436.69,184.81,1431.94,178.55,1427.65,170.58z M1471.42,188.08
	c-3.37-3.04-7-5.84-10.04-9.17c-4.35-4.76-8.46-9.77-12.35-14.91c-4.86-6.42-9.4-13.08-14.05-19.66c-2.67-3.78-5.29-7.6-7.91-11.41
	c-1.49-2.17-2.92-4.38-4.38-6.57c0.1-0.09,0.19-0.19,0.29-0.28c0.36,0.22,0.8,0.37,1.07,0.67c3.69,3.95,7.42,7.85,11,11.89
	c3.71,4.2,7.29,8.52,10.88,12.82c1.78,2.14,3.45,4.37,5.19,6.55c3.43,4.29,6.93,8.53,10.29,12.88c2.7,3.49,5.36,7.01,7.79,10.69
	c1.23,1.86,1.92,4.07,2.85,6.13C1471.83,187.82,1471.62,187.95,1471.42,188.08z M1473.65,163.84c-0.41,1.49-1.04,2.92-1.57,4.38
	c-0.13-0.05-0.27-0.1-0.4-0.14c-1.9-9.58-3.79-19.16-5.69-28.74c0.13-0.1,0.27-0.2,0.4-0.3c1.61,2.62,3.37,5.17,4.77,7.9
	c0.74,1.45,0.71,3.26,1.26,4.83C1473.8,155.7,1474.81,159.67,1473.65,163.84z M1489.83,167.4c-0.05-0.22-0.17-0.44-0.11-0.58
	c1.25-2.93,2.94-5.76,3.7-8.81c1.31-5.27,2.11-10.67,3.01-16.03c0.59-3.5,0.97-7.04,1.45-10.56c0.17,0.01,0.33,0.02,0.5,0.03
	c0.7,3.86,1.6,7.7,2.02,11.59c0.28,2.65,0.28,5.47-0.29,8.05C1498.64,157.64,1495.28,162.29,1489.83,167.4z"/>
<path class="st1" d="M1737.64,421.3c-2.42-2.43-5.04-4.68-7.74-6.8c-2.41-1.89-5-3.51-7.8-4.88c-3.4-1.66-6.94-2.62-10.58-3.45
	c-2.45-0.56-4.82-1.48-7.25-2.13c-2.82-0.75-5.7-1.04-8.61-0.52c-5.12,0.92-10.26,1.72-15.34,2.82c-4.48,0.97-8.82,2.39-12.73,4.96
	c-1.62,1.06-3.71,1.44-5.2,2.62c-3.66,2.9-7.71,5.36-10.51,9.29c-1.79,2.51-4.23,4.58-5.95,7.13c-1.92,2.85-3.79,5.88-4.88,9.1
	c-1.19,3.51-1.82,7.3-2.06,11.01c-0.28,4.41-0.11,8.88,0.3,13.28c0.3,3.2,1.14,6.38,2.04,9.48c1.22,4.23,2.74,8.38,4.11,12.57
	c0.58,1.76,1.1,3.53,1.71,5.27c0.3,0.87,1,0.88,1.67,0.47c0.94-0.58,1.82-1.24,2.74-1.86c2.9-1.96,5.81-3.9,8.7-5.88
	c4.57-3.14,8.3-7.07,11.02-11.93c0.25-0.45,0.61-0.84,0.73-1c2.05,2.39,3.97,4.75,6.03,6.98c1.72,1.86,3.46,3.75,5.47,5.27
	c2.48,1.87,5.21,3.42,7.88,5.03c6.45,3.87,13.46,5.95,20.96,6.46c1.34,0.09,2.68,0.25,4,0.47c0.88,0.15,1.28-0.14,1.61-0.97
	c1.1-2.73,1.41-5.6,1.67-8.48c0.37-4.04,0.9-8.08,0.96-12.13c0.05-3.8-0.32-7.62-0.7-11.42c-0.27-2.61-0.6-5.27-1.39-7.76
	c-1.16-3.65-2.74-7.16-4.16-10.75c0.57-0.01,1.49,0,2.41-0.03c5.53-0.21,10.78-1.33,15.59-4.28c1.9-1.17,4.06-1.92,6.05-2.95
	c1.54-0.8,2.98-1.78,4.5-2.62c0.54-0.3,1.28-0.31,1.74-0.69c0.4-0.33,0.84-1.09,0.71-1.49c-0.33-1.05-0.81-2.12-1.49-2.97
	C1741.84,426.04,1739.87,423.54,1737.64,421.3z M1658.97,438.11c-1.11,1.98-2.53,3.84-3.3,5.94c-1.33,3.62-2.32,7.38-3.36,11.1
	c-0.69,2.43-1.23,4.9-1.84,7.35c-0.12-0.02-0.23-0.04-0.35-0.06c-0.19-2.78-0.54-5.57-0.53-8.35c0-1.9,0.22-3.89,0.83-5.67
	c1.53-4.51,4.27-7.54,8.52-10.73C1658.95,437.85,1659.02,438.02,1658.97,438.11z M1673.31,459.56c-0.94-1.98-1.98-3.92-2.76-5.96
	c-0.41-1.08-0.25-2.36-0.52-3.51c-0.67-2.89-1.08-5.78,0.06-8.64c0.41-1.02,0.96-1.98,1.45-2.97c0.09,0.04,0.18,0.09,0.27,0.13
	c0.6,6.92,1.2,13.84,1.8,20.76C1673.51,459.44,1673.41,459.5,1673.31,459.56z M1683.65,457.48c1.22,1.22,3.3,9.89,3.85,16.2
	C1683.46,468.81,1681.93,463.5,1683.65,457.48z M1703,472.08c-0.24-0.18-0.53-0.32-0.71-0.56c-2.3-3.07-4.64-6.12-6.86-9.26
	c-2.3-3.25-4.5-6.59-6.7-9.91c-1.09-1.65-2.1-3.36-3.16-5.03c-2.09-3.3-4.24-6.57-6.28-9.9c-1.64-2.67-3.25-5.37-4.68-8.16
	c-0.73-1.41-1.04-3.03-1.54-4.55c0.15-0.08,0.31-0.15,0.46-0.23c2.15,2.41,4.49,4.67,6.39,7.26c2.71,3.7,5.22,7.56,7.57,11.5
	c2.94,4.92,5.64,9.97,8.42,14.99c1.6,2.88,3.15,5.78,4.71,8.68c0.88,1.65,1.73,3.32,2.59,4.98
	C1703.15,471.96,1703.08,472.02,1703,472.08z M1687.43,429.78c10.42-0.29,13.29,4.51,15.71,10.48
	C1697.99,436.82,1692.65,433.26,1687.43,429.78z M1710.88,459.41c-1.86-2.06-3.7-4.06-5.5-6.1c-1.81-2.06-3.58-4.16-5.54-6.43
	C1708.04,449.38,1711.67,454.89,1710.88,459.41z M1692.14,417.79c0.03-0.24,0.06-0.47,0.09-0.71c3.67-0.48,7.35-1.43,11-1.3
	c3.59,0.12,7.25,1,10.68,2.14c5.4,1.79,8.42,3.82,9.15,5.4C1712.96,420.13,1702.77,417.78,1692.14,417.79z"/>
<path class="st1" d="M95.88,371.35c2.21-2.62,4.24-5.42,6.11-8.29c1.68-2.56,3.08-5.28,4.2-8.19c1.36-3.53,2.02-7.14,2.54-10.84
	c0.35-2.49,1.07-4.93,1.51-7.41c0.51-2.88,0.55-5.77-0.22-8.63c-1.35-5.02-2.59-10.08-4.11-15.04c-1.34-4.38-3.14-8.58-6.02-12.26
	c-1.19-1.52-1.75-3.57-3.06-4.96c-3.2-3.4-5.99-7.22-10.15-9.68c-2.66-1.57-4.92-3.82-7.61-5.32c-3-1.67-6.18-3.27-9.48-4.09
	c-3.6-0.89-7.43-1.2-11.15-1.12c-4.42,0.1-8.86,0.65-13.21,1.43c-3.16,0.57-6.26,1.68-9.27,2.84c-4.11,1.58-8.12,3.44-12.18,5.17
	c-1.7,0.73-3.42,1.4-5.11,2.15c-0.84,0.37-0.79,1.07-0.32,1.7c0.66,0.89,1.4,1.71,2.09,2.57c2.2,2.72,4.38,5.46,6.6,8.16
	c3.52,4.29,7.75,7.66,12.82,9.96c0.47,0.21,0.89,0.53,1.06,0.64c-2.21,2.25-4.4,4.36-6.44,6.6c-1.7,1.87-3.45,3.77-4.79,5.9
	c-1.66,2.63-2.97,5.48-4.34,8.28c-3.31,6.76-4.79,13.92-4.65,21.43c0.02,1.34-0.02,2.69-0.13,4.02c-0.07,0.89,0.25,1.26,1.1,1.52
	c2.81,0.87,5.7,0.93,8.59,0.95c4.06,0.02,8.13,0.21,12.17-0.08c3.79-0.27,7.57-0.97,11.32-1.67c2.58-0.49,5.2-1.05,7.61-2.05
	c3.54-1.46,6.9-3.34,10.36-5.06c0.06,0.57,0.13,1.49,0.24,2.4c0.68,5.49,2.24,10.63,5.59,15.16c1.33,1.8,2.26,3.88,3.46,5.77
	c0.93,1.46,2.02,2.82,2.99,4.26c0.35,0.52,0.42,1.25,0.84,1.67c0.37,0.37,1.16,0.74,1.54,0.58c1.02-0.42,2.04-0.99,2.84-1.74
	C91.52,375.94,93.85,373.77,95.88,371.35z M72.43,294.4c-2.07-0.94-4.04-2.19-6.2-2.78c-3.72-1.02-7.55-1.68-11.35-2.41
	c-2.48-0.48-4.99-0.81-7.48-1.21c0.01-0.12,0.02-0.24,0.03-0.35c2.76-0.43,5.5-1.01,8.28-1.24c1.89-0.16,3.89-0.11,5.72,0.34
	c4.63,1.14,7.88,3.61,11.42,7.58C72.69,294.36,72.53,294.45,72.43,294.4z M52.28,310.52c1.89-1.1,3.73-2.31,5.7-3.26
	c1.04-0.5,2.33-0.45,3.46-0.81c2.83-0.92,5.66-1.57,8.61-0.67c1.05,0.32,2.06,0.79,3.09,1.19c-0.04,0.09-0.07,0.19-0.11,0.28
	c-6.84,1.19-13.69,2.37-20.53,3.56C52.42,310.71,52.35,310.62,52.28,310.52z M55.23,320.65c-1.11,1.32-9.57,4.14-15.82,5.21
	C43.93,321.43,49.09,319.44,55.23,320.65z M42.34,341.17c0.16-0.25,0.28-0.56,0.49-0.75c2.87-2.55,5.7-5.15,8.64-7.62
	c3.05-2.57,6.18-5.04,9.3-7.52c1.55-1.23,3.17-2.38,4.74-3.58c3.11-2.37,6.18-4.78,9.33-7.1c2.52-1.86,5.08-3.69,7.73-5.36
	c1.34-0.84,2.93-1.29,4.41-1.92c0.09,0.15,0.18,0.3,0.27,0.44c-2.22,2.34-4.27,4.88-6.69,6.99c-3.45,3.01-7.09,5.85-10.81,8.53
	c-4.65,3.35-9.46,6.47-14.21,9.66c-2.73,1.84-5.49,3.64-8.25,5.43c-1.57,1.02-3.16,2-4.75,3C42.47,341.31,42.4,341.24,42.34,341.17z
	 M83.16,322.05c1.17,10.35-3.36,13.63-9.1,16.54C77.04,333.17,80.13,327.55,83.16,322.05z M55.63,347.94c1.9-2.03,3.73-4.04,5.61-6
	c1.9-1.98,3.83-3.93,5.93-6.07C65.39,344.26,60.21,348.35,55.63,347.94z M95.51,325.73c0.24,0.01,0.48,0.02,0.72,0.03
	c0.79,3.61,2.05,7.2,2.24,10.85c0.18,3.59-0.38,7.31-1.22,10.83c-1.32,5.53-3.09,8.71-4.6,9.57
	C94.95,346.66,96.42,336.31,95.51,325.73z"/>
<path class="st1" d="M1413.96-34.68c-2.42-2.43-5.04-4.68-7.74-6.8c-2.41-1.89-5-3.51-7.8-4.88c-3.4-1.66-6.94-2.62-10.58-3.45
	c-2.45-0.56-4.82-1.48-7.25-2.13c-2.82-0.75-5.7-1.04-8.61-0.52c-5.12,0.92-10.26,1.72-15.34,2.82c-4.48,0.97-8.82,2.39-12.73,4.96
	c-1.62,1.06-3.71,1.44-5.2,2.62c-3.66,2.9-7.71,5.36-10.51,9.29c-1.79,2.51-4.23,4.58-5.95,7.13c-1.92,2.85-3.79,5.88-4.88,9.1
	c-1.19,3.51-1.82,7.3-2.06,11.01c-0.28,4.41-0.11,8.88,0.3,13.28c0.3,3.2,1.14,6.38,2.04,9.48c1.22,4.23,2.74,8.38,4.11,12.57
	c0.58,1.76,1.1,3.53,1.71,5.27c0.3,0.87,1,0.88,1.67,0.47c0.94-0.58,1.82-1.24,2.74-1.86c2.9-1.96,5.81-3.9,8.7-5.88
	c4.57-3.14,8.3-7.07,11.02-11.93c0.25-0.45,0.61-0.84,0.73-1c2.05,2.39,3.97,4.75,6.03,6.98c1.72,1.86,3.46,3.75,5.47,5.27
	c2.48,1.87,5.21,3.42,7.88,5.03c6.45,3.87,13.46,5.95,20.96,6.46c1.34,0.09,2.68,0.25,4,0.47c0.88,0.15,1.28-0.14,1.61-0.97
	c1.1-2.73,1.41-5.6,1.67-8.48c0.37-4.04,0.9-8.08,0.96-12.13c0.05-3.8-0.32-7.62-0.7-11.42c-0.27-2.61-0.6-5.27-1.39-7.76
	c-1.16-3.65-2.74-7.16-4.16-10.75c0.57-0.01,1.49,0,2.41-0.03c5.53-0.21,10.78-1.33,15.59-4.28c1.9-1.17,4.06-1.92,6.05-2.95
	c1.54-0.8,2.98-1.78,4.5-2.62c0.54-0.3,1.28-0.31,1.74-0.69c0.4-0.33,0.84-1.09,0.71-1.49c-0.33-1.05-0.81-2.12-1.49-2.97
	C1418.16-29.94,1416.19-32.44,1413.96-34.68z M1335.29-17.87c-1.11,1.98-2.53,3.84-3.3,5.94c-1.33,3.62-2.32,7.38-3.36,11.1
	c-0.69,2.43-1.23,4.9-1.84,7.35c-0.12-0.02-0.23-0.04-0.35-0.06c-0.19-2.78-0.54-5.57-0.53-8.35c0-1.9,0.22-3.89,0.83-5.67
	c1.53-4.51,4.27-7.54,8.52-10.73C1335.27-18.13,1335.34-17.96,1335.29-17.87z M1349.63,3.58c-0.94-1.98-1.98-3.92-2.76-5.96
	c-0.41-1.08-0.25-2.36-0.52-3.51c-0.67-2.89-1.08-5.78,0.06-8.64c0.41-1.02,0.96-1.98,1.45-2.97c0.09,0.04,0.18,0.09,0.27,0.13
	c0.6,6.92,1.2,13.84,1.8,20.76C1349.84,3.46,1349.73,3.52,1349.63,3.58z M1359.97,1.5c1.22,1.22,3.3,9.89,3.85,16.2
	C1359.79,12.83,1358.25,7.52,1359.97,1.5z M1379.32,16.1c-0.24-0.18-0.53-0.32-0.71-0.56c-2.3-3.07-4.64-6.12-6.86-9.26
	c-2.3-3.25-4.5-6.59-6.7-9.91c-1.09-1.65-2.1-3.36-3.16-5.03c-2.09-3.3-4.24-6.57-6.28-9.9c-1.64-2.67-3.25-5.37-4.68-8.16
	c-0.73-1.41-1.04-3.03-1.54-4.55c0.15-0.08,0.31-0.15,0.46-0.23c2.15,2.41,4.49,4.67,6.39,7.26c2.71,3.7,5.22,7.56,7.57,11.5
	c2.94,4.92,5.64,9.97,8.42,14.99c1.6,2.88,3.15,5.78,4.71,8.68c0.88,1.65,1.73,3.32,2.59,4.98
	C1379.47,15.98,1379.4,16.04,1379.32,16.1z M1363.75-26.2c10.42-0.29,13.29,4.51,15.71,10.48
	C1374.31-19.16,1368.97-22.72,1363.75-26.2z M1387.2,3.43c-1.86-2.06-3.7-4.06-5.5-6.1c-1.81-2.06-3.58-4.16-5.54-6.43
	C1384.36-6.6,1388-1.09,1387.2,3.43z M1368.46-38.19c0.03-0.24,0.06-0.47,0.09-0.71c3.67-0.48,7.35-1.43,11-1.3
	c3.59,0.12,7.25,1,10.68,2.14c5.4,1.79,8.42,3.82,9.15,5.4C1389.28-35.85,1379.09-38.2,1368.46-38.19z"/>
</svg>
