<?xml version="1.0" encoding="utf-8"?>
<!-- Generator: Adobe Illustrator 23.0.3, SVG Export Plug-In . SVG Version: 6.00 Build 0)  -->
<svg version="1.1" id="圖層_1" xmlns="http://www.w3.org/2000/svg" xmlns:xlink="http://www.w3.org/1999/xlink" x="0px" y="0px"
	 viewBox="0 0 40 40" style="enable-background:new 0 0 40 40;" xml:space="preserve">
<style type="text/css">
	.st0{fill:#FFFFFF;}
</style>
<path class="st0" d="M30.2,11.4h-21c-1.1,0-2,0.9-2,1.9V26c0,1.1,0.9,2,2,2h21c1,0,1.8-0.9,2-2V13.3C32.2,12.2,31.3,11.4,30.2,11.4z
	 M30.2,15L21,21.6c-0.8,0.5-1.7,0.5-2.4,0l-9.4-6.4v-1.9c0,0,0,0,0.1,0h21c0,0,0,0,0,0V15z M13.3,20.1l-4.2,4.5v-7.4L13.3,20.1z
	 M14.8,21.1l2.8,1.9c0.6,0.5,1.4,0.7,2.2,0.7c0.6,0,1.6-0.1,2.3-0.7l2.6-1.8l4.4,4.9H10.3L14.8,21.1z M26.2,20.1l4.1-2.9v7.4
	L26.2,20.1z"/>
</svg>
