<?xml version="1.0" encoding="utf-8"?>
<!-- Generator: Adobe Illustrator 23.0.3, SVG Export Plug-In . SVG Version: 6.00 Build 0)  -->
<svg version="1.1" id="圖層_1" xmlns="http://www.w3.org/2000/svg" xmlns:xlink="http://www.w3.org/1999/xlink" x="0px" y="0px"
	 viewBox="0 0 40 40" style="enable-background:new 0 0 40 40;" xml:space="preserve">
<style type="text/css">
	.st0{fill:#FFFFFF;}
</style>
<path class="st0" d="M30.5,12.1h-21c-0.8,0-1.5,0.7-1.5,1.5v12.7c0,0.8,0.7,1.5,1.5,1.5h21c0.8,0,1.5-0.7,1.5-1.5V13.6
	C32,12.8,31.3,12.1,30.5,12.1z M9,26.1v-9.3l5.3,3.6L9,26.1z M15.1,21l3.1,2.1c0.6,0.4,1.3,0.6,2,0.6c0.7,0,1.4-0.2,2-0.6l2.9-2.1
	l5.3,5.9H9.6L15.1,21z M25.9,20.4l5.1-3.6V26L25.9,20.4z M9.5,13.1h21c0.3,0,0.5,0.2,0.5,0.5v1.9l-9.4,6.7c-0.9,0.6-2,0.6-2.9,0
	L9,15.6v-1.9C9,13.4,9.2,13.1,9.5,13.1z"/>
</svg>
