<?xml version="1.0" encoding="utf-8"?>
<!-- Generator: Adobe Illustrator 23.0.3, SVG Export Plug-In . SVG Version: 6.00 Build 0)  -->
<svg version="1.1" id="圖層_1" xmlns="http://www.w3.org/2000/svg" xmlns:xlink="http://www.w3.org/1999/xlink" x="0px" y="0px"
	 viewBox="0 0 40 40" style="enable-background:new 0 0 40 40;" xml:space="preserve">
<style type="text/css">
	.st0{fill:#FFFFFF;}
</style>
<g>
	<g>
		<path class="st0" d="M30.2,27.8h-21c-1,0-1.8-0.8-1.8-1.8V13.3c0-1,0.8-1.8,1.8-1.8h21c1,0,1.8,0.8,1.8,1.8V26
			C31.9,27,31.1,27.8,30.2,27.8z M9.2,13.1c-0.1,0-0.2,0.1-0.2,0.2V26c0,0.1,0.1,0.2,0.2,0.2h21c0.1,0,0.2-0.1,0.2-0.2V13.3
			c0-0.1-0.1-0.2-0.2-0.2H9.2z"/>
	</g>
	<g>
		<path class="st0" d="M19.8,23.6c-0.7,0-1.5-0.2-2.1-0.7l-10-6.8l0.8-1.2l10,6.8c0.8,0.5,1.8,0.5,2.6,0l9.6-6.8l0.9,1.2L22,22.9
			C21.4,23.4,20.6,23.6,19.8,23.6z"/>
	</g>
	<g>
		<rect x="7" y="22.6" transform="matrix(0.6786 -0.7346 0.7346 0.6786 -13.4311 16.001)" class="st0" width="9.2" height="1.5"/>
	</g>
	<g>
		
			<rect x="27.1" y="18.8" transform="matrix(0.7447 -0.6674 0.6674 0.7447 -8.4583 24.5692)" class="st0" width="1.5" height="9.1"/>
	</g>
</g>
</svg>
