<?xml version="1.0" encoding="utf-8"?>
<!-- Generator: Adobe Illustrator 23.0.3, SVG Export Plug-In . SVG Version: 6.00 Build 0)  -->
<svg version="1.1" id="圖層_1" xmlns="http://www.w3.org/2000/svg" xmlns:xlink="http://www.w3.org/1999/xlink" x="0px" y="0px"
	 viewBox="0 0 60 60" style="enable-background:new 0 0 60 60;" xml:space="preserve">
<style type="text/css">
	.st0{fill:#002541;}
	.st1{fill:#00B6EB;}
</style>
<g>
	<g>
		<path class="st0" d="M12.03,58.19c-5.44,0-9.86-4.42-9.86-9.86V12.29c0-5.44,4.42-9.86,9.86-9.86h36.04
			c5.44,0,9.86,4.42,9.86,9.86v36.04c0,5.44-4.42,9.86-9.86,9.86H12.03z"/>
		<path class="st1" d="M48.08,4.55c4.27,0,7.74,3.47,7.74,7.74v36.04c0,4.27-3.47,7.74-7.74,7.74H12.03c-4.27,0-7.74-3.47-7.74-7.74
			V12.29c0-4.27,3.47-7.74,7.74-7.74H48.08 M48.08,0.31H12.03c-6.62,0-11.98,5.36-11.98,11.98v36.04c0,6.62,5.36,11.98,11.98,11.98
			h36.04c6.62,0,11.98-5.36,11.98-11.98V12.29C60.06,5.68,54.69,0.31,48.08,0.31L48.08,0.31z"/>
	</g>
	<g>
		<path class="st1" d="M13.16,17.86h9.74c5,0,8.39,2.81,8.39,7.29c0,5.11-3.87,7.46-8.51,7.46h-4.52v8.79h-5.09V17.86z M18.26,28.56
			h3.88c2.35,0,4.02-0.91,4.02-3.31c0-2.43-1.76-3.33-3.91-3.33h-3.99V28.56z"/>
		<path class="st1" d="M37.94,36.08c0.37,1.41,1.52,2.2,3.34,2.2c1.81,0,2.46-0.65,2.46-1.72c0-1.13-0.76-1.58-3.29-2.2
			c-5.76-1.42-6.7-3.2-6.7-5.69c0-2.6,1.84-5.35,7.16-5.35c5.36,0,7.17,2.93,7.33,5.32H43.6c-0.16-0.65-0.59-1.89-2.89-1.89
			c-1.62,0-2.14,0.72-2.14,1.51c0,0.88,0.55,1.3,3.42,1.97c5.89,1.37,6.73,3.39,6.73,5.98c0,2.93-2.23,5.59-7.61,5.59
			c-5.36,0-7.58-2.59-7.97-5.72H37.94z"/>
	</g>
</g>
</svg>
