<?xml version="1.0" encoding="utf-8"?>
<!-- Generator: Adobe Illustrator 23.0.3, SVG Export Plug-In . SVG Version: 6.00 Build 0)  -->
<svg version="1.1" id="圖層_1" xmlns="http://www.w3.org/2000/svg" xmlns:xlink="http://www.w3.org/1999/xlink" x="0px" y="0px"
	 viewBox="0 0 60 60" style="enable-background:new 0 0 60 60;" xml:space="preserve">
<style type="text/css">
	.st0{fill:#F6E5AA;}
	.st1{fill:#FFA000;}
	.st2{fill:#F4C600;}
	.st3{fill:#EA6D01;}
	.st4{fill:#F79B01;}
</style>
<g>
	<polygon class="st0" points="30,3.18 30,22.27 11.91,22.27 11.91,22.17 17.54,16.27 	"/>
	<polygon class="st1" points="30,22.27 30,56.82 14.68,27.71 12.78,24.09 11.9,22.43 11.9,22.43 11.91,22.27 	"/>
	<polygon class="st2" points="30,3.18 17.54,16.27 11.91,22.17 12.73,5.91 	"/>
	<polygon class="st3" points="30,56.82 0,22.27 11.82,22.27 11.9,22.43 11.9,22.43 12.78,24.09 14.68,27.71 	"/>
	<polygon class="st4" points="12.73,5.91 11.91,22.17 11.91,22.27 11.9,22.43 11.82,22.27 0,22.27 	"/>
	<polygon class="st0" points="30,3.18 30,22.27 48.09,22.27 48.09,22.17 42.46,16.27 	"/>
	<polygon class="st1" points="30,22.27 30,56.82 45.32,27.71 47.22,24.09 48.1,22.43 48.1,22.43 48.09,22.27 	"/>
	<polygon class="st2" points="30,3.18 42.46,16.27 48.09,22.17 47.27,5.91 	"/>
	<polygon class="st3" points="30,56.82 60,22.27 48.18,22.27 48.1,22.43 48.1,22.43 47.22,24.09 45.32,27.71 	"/>
	<polygon class="st4" points="47.27,5.91 48.09,22.17 48.09,22.27 48.1,22.43 48.18,22.27 60,22.27 	"/>
</g>
</svg>
