<?xml version="1.0" encoding="utf-8"?>
<!-- Generator: Adobe Illustrator 23.0.3, SVG Export Plug-In . SVG Version: 6.00 Build 0)  -->
<svg version="1.1" id="圖層_1" xmlns="http://www.w3.org/2000/svg" xmlns:xlink="http://www.w3.org/1999/xlink" x="0px" y="0px"
	 viewBox="0 0 1200 500" style="enable-background:new 0 0 1200 500;" xml:space="preserve">
<style type="text/css">
	.st0{fill:#FFFFFF;}
</style>
<g>
	<path d="M-210.4,544.17l25.15-15.16l-22.28,22.12l1.96,4.76l24.13-18.17l-21.41,23.73l9.47,5.56l18.61-14.02l-14.71,16.31
		l5.95,3.49l9.96-9.07l-7.97,10.24l4.18,2.45l69.29-51.21l292.36,4.5l0.26,0.36l91.89-24.35l63.42-46.85l-19.02-146.74l3.21,10.92
		l30.03,150.77l195.12,67.44l30.85,5.54l0.97-5.49l-23.68-9.27l38.03,5.55l2.77-5.5l-35.84-10.59l38.31-1.31l-1.77-4.91l-39.48-7.32
		l36.01,0.13l-7.39-5.11l-36.55-6.57l22.85-2.71l1.87-4.67l-47.76-10.11L418.2,442l-4.72-27.71l186.06,1.11l15.23-28.16
		l-51.71-115.62l42.7-48.77l-57.7-3.62L515.7,185.7l23.29-63.3l-91.48,49.76l-40.22,24.22l-19.47,45.41l-185.94,72.19l-27.7,9.18
		c-6.86-20.55-9.57-41.31,0.26-62.55c2.1-4.55,10.31-17.24,14.06-20.56c2.72-2.41,6.1-3.95,9.41-5.45
		c18.76-8.49,37.43-15.4,56.79-22.32l35.59-36.57l14.53-41.11l3.53-40.53l-11.08-30.6L261.3,26.01l-19.85-6.32l-34.47,3.61
		l-31.42,20.2l-4.6,53.72l35.62,35.29l20.24-11.26l-12.76-15.52l-20.41-24.2l3.66-31.11l34.73-7.69l23.42,14.74l18.86,25.79
		l-0.22,30.13l-8.94,34.64c0,0-25.45,39.56-25.53,39.69c-3.43,5.06-30.05,10.22-37.48,13.92c-10.11,5.02-25.18,12.09-32.15,21.44
		c-7.77,10.43-17.13,36.29-21.94,48.48l-4.47,40.22l9,18.55l-3.1,1.03L-18.04,223.08L-126.05,402.4l-52.69,9.49l-4.66,5.82
		l20.55-2.71l-26.68,10.34l-3.71,4.63l-2.01,2.27l32.4-7.71l-42.69,19.32l-3.4,3.84l3.38,3.66l42.71-10.17l-36.75,16.63l4.83,5.24
		l31.92-7.6l-25.98,11.76l13.62,8.77l102.71-47.57L0.21,310.42l69.2,58.2l52.94,76.16l4.62,6.34L22.65,462.19l-150.36,2.31
		l-38.56,27.03l-45.49,49.31L-210.4,544.17z M54.14,335.6l17.84,11.69l4.79,7.06l-12.24-5.27L54.14,335.6z M34.13,315.02
		l13.76,12.83l-17.7-9.23l-8.9-13.28L34.13,315.02z M65.29,301.39l-17.84-6.87l-9.95-10.79l16.07,5.94L65.29,301.39z M88.63,329.93
		l-15.21-5.72l-11.56-8.96l14.5,4.96L88.63,329.93z M117.61,336.77l-15.21-5.72l-11.56-8.96l14.5,4.96L117.61,336.77z
		 M561.99,239.23l6.59-3.7l18.75-2.2l-13.56,6.56L561.99,239.23z M552.91,228.13l8.74-2.19l15,1.77l-11.91,1.81L552.91,228.13z
		 M357.71,346.38l-0.74,18.8l-4.56-19.44l4.25-15.41L357.71,346.38z M460.92,217.23l-12.17-7.82c2.56-1.33,8.14-4.99,9.28-5.75
		c0.37-0.25,0.93-1.04,1.52-2.07l0.6,0.98L460.92,217.23z M435,186.35l10.58,1.81c-2.34,1-4.78,2.14-5.06,2.42
		c-0.29,0.28-1.56,1.81-2.64,3.13L435,186.35z M470.85,219.45l-14.07,11.88l9.68,11.46l-13.91-0.76l-4,5.96l-0.01,14.57l5.24,13.49
		l-6.8-9.38l-3.71-13.67l-8.94-1.97l-9.44-3.22l8.44,0.71l10.57,0.59l3.2-5.5l3.03-2.56l0.57-12.19l16.41-13.86l1.66-20.27
		L470.85,219.45z M431.13,323.94l10.66-4.23c-0.81,0.56-12.87,11.38-12.87,11.38l-11.63,5.71L431.13,323.94z M514.88,140.69
		l-10.5,18.57l-6.73,5.24l4.46-12.56L514.88,140.69z M511.35,170.68l-6.1,8.15l3.72-12.93l7.1-11.62L511.35,170.68z M522.19,274.22
		l-20.18-13.73l-0.62-0.52l-12.05,19.81l9.43-22.01l-15.83-13.28l21.85,2.7l12.14-19.95l-8.87,21.03l10.26,13.28L522.19,274.22z
		 M547.3,362.82l-82.15-2.2l64.67-51.46L547.3,362.82z M501.02,400.38l14.43-0.55l16.85,1.13l-17.56,3.61L501.02,400.38z
		 M495.68,377.94l14.43-0.55l16.85,1.13l-17.56,3.61L495.68,377.94z M462.66,391.1l14.56-4.97l14.8,1.51l-16.32,5.34L462.66,391.1z
		 M457.11,337.44l-12.04,5.66l14.31-12.8l11.04-4.18C469.58,326.67,457.11,337.44,457.11,337.44z M410.74,398.26l43.34-28.24
		l-40.91,42.49L410.74,398.26z M399.66,304.59l6.68-7.06l16.16-2.07l-16.74,9.27L399.66,304.59z M389.37,393.96l5.71,14.22
		l0.64,15.64l-5.59-15.25L389.37,393.96z M388.38,361.09l-6.44-18l1.68-14.58l5.98,16.05L388.38,361.09z M375.64,367.55l5.71,14.22
		l0.64,15.64l-5.59-15.25L375.64,367.55z M373.61,275.34l7.54-5.26l10.77-7.51l-10.4,12.06L373.61,275.34z M351.75,391.65
		l3.43-16.67l2.79,21.15l-2.23,8.24L351.75,391.65z M323.92,281.26l13.23-6.69l14.2-4.25l-15.79,9.13L323.92,281.26z M188.69,340.16
		L171.32,350l-15.98,0.25l15.11-5.52L188.69,340.16z M175.07,409.17l13.6-11.49l-9.71,14.77l-18.43,6.85L175.07,409.17z
		 M211.37,364.18l-15.46,11.24l-14.47,2.49l13.73-10.26L211.37,364.18z M258.74,334.95l-11.08,7.4l-16.97,1.39l19.52-8.62
		L258.74,334.95z M236.05,405.63l11.79-3.34l-14.13,8.66l-8.14,1.04L236.05,405.63z M271.17,347.52l-14.28,13.96l-15.39,4.33
		l13.19-9.2L271.17,347.52z M302.53,286.17l-14.13,8.66l-8.14,1.04l10.48-6.35L302.53,286.17z M290.78,346.6l14.77-7.5l-12.07,14.82
		l-13.35,6.11L290.78,346.6z M309.26,309.76l-11.88,11.08l-13.16,6.38l10.88-10.79L309.26,309.76z M294.61,447.58l11.61-10.9
		l11.28-5.06l-11.42,11.17L294.61,447.58z M293.63,372.17l-12.07,14.82l-13.35,6.11l10.64-13.43L293.63,372.17z M274.35,435.13
		l-13.16,6.38l10.88-10.79l14.15-6.67L274.35,435.13z M243.88,499.82l13.19-9.2l16.47-9.09l-14.28,13.96L243.88,499.82z
		 M233.07,477.76l19.52-8.62l8.53-0.18l-11.08,7.4L233.07,477.76z M210.69,454.8l14.71-6.5l17.91-5.76l-16.69,10.96L210.69,454.8z
		 M201.52,441.87l-14.16,3.66l12.8-8.43l15.19-3.75L201.52,441.87z M168.58,488.81l19.52-8.62l8.53-0.18l-11.08,7.4L168.58,488.81z
		 M149.39,519.95l15.11-5.52l18.25-4.57l-17.37,9.84L149.39,519.95z M99.57,504.28l19.52-8.62l8.53-0.18l-11.08,7.4L99.57,504.28z
		 M29.22,500.74l17.44-2.29l20.65,0.08l-20.75,7.39L29.22,500.74z"/>
</g>
<g>
	<path class="st0" d="M630.42,414.49l176.85-1.02l-1.49,19.52l-79.69,46.03l-44.64,9.45l1.75,4.36l21.36,2.53l-34.17,6.14
		l-6.91,4.78l33.66-0.12l-36.91,6.84l-1.65,4.59l35.81,1.23l-33.51,9.9l2.59,5.14l35.55-5.19l-22.13,8.67l0.9,5.13l28.84-5.18
		l159.08-74.56l27.43-132.38l3.65-12.4l-17.78,137.17l59.28,43.79l85.89,22.76l0.24-0.33l273.29-4.21l64.77,47.87l3.91-2.29
		l-7.45-9.57l9.31,8.48l5.56-3.26l-13.75-15.24l17.39,13.1l8.85-5.19l-20.01-22.18l22.56,16.99l1.83-4.46l-20.83-20.68l23.51,14.17
		l1.27-3.11l-42.53-46.1l-36.05-25.27l-140.55-2.16l-88.8-24.96l30.67-60.58l70.63-41.5L1256,433.01l104.49,38.11l12.73-8.19
		l-24.28-10.99l29.84,7.1l4.52-4.9l-34.35-15.55l39.93,9.51l3.16-3.42l-3.18-3.59l-39.91-18.06l30.28,7.21l-1.88-2.12l-3.47-4.32
		l-24.94-9.67l19.21,2.53l-4.36-5.44l-49.26-8.87l-100.96-167.62l-127.99,42.14c27.49-27.03,58.34-57.82,60.33-61.86
		c3.63-7.38,22.58-78.7,23.18-102.24s-56.33-74.2-60.04-79.08c-3.71-4.88-123.33-57.02-123.33-57.02L952.75-77.1l-17.3,52.13
		l-0.78,25.58l17.96,36.08l-18.25-2.01l44.11,38.07c0,0,39.56,37.68,47.34,47.93c7.78,10.25-6.57,28.84-15.25,53.9
		c-4.19,12.09-9.63,27.55-14.15,40.32l4.19,11.91l62.28,52.61l-74.71-46.7l-48.95-16.8l-128.58-14.66l-46.07-26.88l-25.09-48.64
		l-24.87,74.01L684.4,231.1l-53.94,3.39l39.92,45.59l-48.34,108.08L630.42,414.49z M1026.06,174.35l-3.75,14.71l-7.14,11.66
		l3.12-13.98L1026.06,174.35z M967.18,20.56l3.28,15.57l-10.28-17.09l-1.17-7.89L967.18,20.56z M982.74,16l-8.31-6.91l-5.04-9.56
		L980.7,8.8L982.74,16z M1002.17,59.26l11.31,9.28l2.04,7.2l-8.31-6.91L1002.17,59.26z M1019.19,61.38l-5.77-7.12l-3.16-9.24
		l7.21,8.9L1019.19,61.38z M1096.32,151.3l3.7-13.84l8.28-12.06l-4.36,14.55L1096.32,151.3z M1090.85,70l12.05,14.25l3,14.64
		l-7.69-12.92L1090.85,70z M1193.58,256.13l-11.67,7.22l-17.79,1.71l13.49-7.61L1193.58,256.13z M1173.16,293.25l15.6-8.11
		l13.99-5.5l-11.34,9.73L1173.16,293.25z M1140.5,309.88l6.08-5.16l19-6.06l-12.74,9.54L1140.5,309.88z M1135.95,284.91l13.48-5.68
		l14.3-0.83l-12.65,5.17L1135.95,284.91z M1108.14,283.8l13.48-5.68l14.3-0.83l-12.65,5.17L1108.14,283.8z M703.61,247.62l0.76-0.02
		l4.95-0.12l5.74,1.01l5.94,4.39l5.24-0.34l-3.69,3.46c0.47,2.28,1.06,5.57,0.85,6.77c-0.34,1.92-5.84,10.81-5.84,10.81
		s-1.81,1.27-4.03,2.64l-0.01,0l-5.5,0.92l-5.62-0.47l-2.5-1.63l-5.76,4.24l1.45-7.28l-3.44-4.9l0.58-9.23l2.89-4.68l5.31-3.73
		c0.29-0.5,0.48-0.84,0.48-0.84l0.74-0.02L703.61,247.62z M727.94,238.03l-12.68-4.49l-10.9-7.6l9.75,2.45L727.94,238.03z
		 M716.53,221.92l8.21,3.49l8.42,7.61l-8.45-3.7L716.53,221.92z M730.76,217.37l5.18,10.1l-6.59-6.46l-5.03-9.81L730.76,217.37z
		 M737.16,158.43l-0.87,12.7L732.13,183l-0.25-9.51L737.16,158.43z M749.05,164.2l-3.39,11.99l-2.3-7.64l2.04-19.84L749.05,164.2z
		 M773.3,214.01l-5.17,4.69l-4.25,2.98l-5.24,1.57l-5.44-2.15l-3.07,2l0.22-4.75l-1.72-1.81l-2.15-3.31l-1.39-4.66l1.75-6.63
		l3.26-4.4c0,0,0.77-0.54,1.65-1.16c0.19-0.34,0.31-0.55,0.31-0.55l0.49-0.01c0.78-0.55,1.51-1.06,1.79-1.26
		c0.71-0.5,3.33-1.28,3.33-1.28l5.03-0.36c0,0,5.53,0.35,6.03,1.06c0.16,0.22,0.53,0.6,0.97,1.02l4.76-0.84l-1.6,4.18
		c0.76,1.09,1.76,2.51,2.06,2.93c0.5,0.71,0.78,2.62,1.07,4.54C776.27,207.69,773.3,214.01,773.3,214.01z M780.1,250.14l-11.03,8.3
		l-6.72,3.01l-0.68,11.37l-7.72,13.23l5.81-16.22l-2.39-11.47l-4.44-4.35l-13.36,6.8l9.97-18.13l-10.73-11.7l15.26,8.27L754.7,253
		l3.1,1.68l3.42,3.81l8.23-2.19L780.1,250.14z M832.66,283.35l-5.71,0.14l-15.65-8.67l15.11,1.93L832.66,283.35z M867.29,349.36
		l-4.26,18.17l-0.69-17.57l0.98-15L867.29,349.36z M939.97,253.97l-13.01-4.19l-12.44-8.72l13.97,4.33L939.97,253.97z
		 M924.93,296.81l9.8,5.94l-7.61-0.97l-13.21-8.09L924.93,296.81z M943.64,280.98l-9.69-0.91l-14.07-6.21l12.5,2.16L943.64,280.98z
		 M956.57,364.08l-13.34-13.05l15.4,8.49l12.33,8.6L956.57,364.08z M976.06,405.36l9.8,5.94l-7.61-0.97l-13.21-8.09L976.06,405.36z
		 M954.84,339.29l7.98,0.17l18.24,8.06l-15.86-1.3L954.84,339.29z M980.29,252.65l-7.61-0.97l-13.21-8.09l11.02,3.12L980.29,252.65z
		 M994.2,292.68l-14.89-1.21l-15.6-10.24l16.74,5.38L994.2,292.68z M1016.01,284.01l-13.23-3.42l-12.93-7.97l14.2,3.5
		L1016.01,284.01z M1014.27,369.85l12.83,9.59l-13.52-2.33l-14.45-10.51L1014.27,369.85z M1033.56,324.47l-15.86-1.3l-10.36-6.92
		l7.98,0.17L1033.56,324.47z M1051.5,353.58l-14.94-0.23l-16.24-9.2l17.06,4.27L1051.5,353.58z M1051.51,202.2l8.3-15.5l-4.1,18.21
		l-9.87,11.22L1051.51,202.2z M1042.44,196.61l-4.8,5.99l2.92-11.08l5.75-9.91L1042.44,196.61z M1036.9,251.86l5.16-11.17l7.96-9.88
		l-6.46,13.96L1036.9,251.86z M1033.91,58.86l-4.7-10.44l-1.76-11.32l6.43,14.09L1033.91,58.86z M1043.38,118.01l-5.44-7.38
		l-2.73-9.38l6.8,9.23L1043.38,118.01z M1045.77,151.75l5.16-11.17l7.96-9.88l-6.46,13.96L1045.77,151.75z M1061.23,113.39
		l-7.57-7.89l-5.29-9.57l10.14,8.99L1061.23,113.39z M1061.71,242.97l6.79-9.23l-5.47,14.49l-5.41,5.43L1061.71,242.97z
		 M1080.3,102.55l-7.98-7.29l-4.59-9.78l10.87,9.79L1080.3,102.55z M1080.99,128.64l-5.47,14.49l-5.41,5.43l4.09-10.7
		L1080.99,128.64z M1083.95,254.19l-8.45,12.62l-10.62,8.6l7.61-12.14L1083.95,254.19z M1133.78,492.19l19.3-0.07l16.3,2.14
		l-16.21,4.84L1133.78,492.19z M1077.41,489.35l7.98,0.17l18.24,8.06l-15.86-1.3L1077.41,489.35z M1069.19,308.85l-14.45-10.51
		l15.15,3.25l12.83,9.59L1069.19,308.85z M1025.88,502.79l17.06,4.27l14.12,5.16l-14.94-0.23L1025.88,502.79z M1012.9,474.89
		l7.98,0.17l18.24,8.06l-15.86-1.3L1012.9,474.89z M1008.33,439.23l-12.93-7.97l14.2,3.5l11.96,7.88L1008.33,439.23z M984.86,450.11
		l-15.6-10.24l16.74,5.38l13.75,6.07L984.86,450.11z M978.84,472.78l-15.86-1.3l-10.36-6.92l7.98,0.17L978.84,472.78z M941,476.31
		l15.4,8.49l12.33,8.6l-14.38-4.05L941,476.31z M929.15,422.57l13.23,6.24l10.17,10.09l-12.3-5.96L929.15,422.57z M922.22,374.07
		l13.81,7.01l9.95,12.55l-12.48-5.71L922.22,374.07z M907.62,315.74l13.23,6.24l10.17,10.09l-12.3-5.96L907.62,315.74z
		 M884.75,254.79l-15.85-9.86l16.87,4.97l13.9,5.73L884.75,254.79z M868.26,278.86l13.28,3.98l12.37,6.26l-10.88-1.7L868.26,278.86z
		 M862.09,396.47l2.6-19.77l3.21,15.59l-3.73,11.89L862.09,396.47z M839.64,397.66l0.6-14.62l5.33-13.29l-0.71,13.65L839.64,397.66z
		 M833.66,363.71l-1.14-15.45l5.59-15.01l1.57,13.63L833.66,363.71z M826.8,422.35l0.6-14.62l5.33-13.29l-0.7,13.65L826.8,422.35z
		 M816.18,313.45l-10.87-5.34c0,0-11.28-10.11-12.03-10.64l9.96,3.95L816.18,313.45z M772.25,372.07l36.37,23.7l-0.99,13.05
		L772.25,372.07z M766.51,303.46l10.32,3.91l13.38,11.97l-11.26-5.29C778.95,314.05,767.29,303.99,766.51,303.46z M736.78,388.52
		l13.84-1.41l13.61,4.65l-12.2,1.74L736.78,388.52z M699.12,400.99l15.76-1.06l13.49,0.51l-12.83,3.93L699.12,400.99z
		 M720.53,383.39l-16.41-3.38l15.76-1.06l13.49,0.51L720.53,383.39z M691.46,356.86l11.1-40.79l49.09,39.06L691.46,356.86z
		 M681.98,237.31l-11.06,1.3l-11.14-1.69l14.02-1.65L681.98,237.31z M673.49,247.69l-11.01,0.62l-12.68-6.13l17.53,2.06
		L673.49,247.69z"/>
	<path d="M763.73,197.24l3.39,0.59l4.12,3.05c0,0,1,4.25,0.8,5.38c-0.2,1.13-3.45,6.39-3.45,6.39s-4.65,3.26-6.44,3.53
		c-1.79,0.27-4.05-0.13-4.05-0.13s-2.68-1.07-3.15-1.74c-0.47-0.66-0.93-1.33-1.86-2.66c-0.93-1.33-1.24-3.11-1.71-3.77
		s0.13-4.05,0.13-4.05s1.06-2.73,2.39-3.66c1.33-0.93,3.98-2.8,3.98-2.8l2.92-0.07L763.73,197.24z"/>
	<path d="M709.39,250.67c0,0,4.23,0.27,4.61,0.81c0.38,0.54,2.44,2.33,2.44,2.33s1.9,2.71,2.28,3.25c0.38,0.54,0.6,2.01,0.82,3.47
		s-2.05,6.29-2.05,6.29l-3.96,3.58l-3.25,2.28l-4.01,1.2l-4.42-1.75l-3.23-3.39l-1.64-2.53l-1.07-3.57l1.34-5.07l2.49-3.37
		c0,0,2.71-1.9,3.25-2.28c0.54-0.38,2.55-0.98,2.55-0.98L709.39,250.67z"/>
</g>
</svg>
