<?xml version="1.0" encoding="utf-8"?>
<!-- Generator: Adobe Illustrator 23.0.3, SVG Export Plug-In . SVG Version: 6.00 Build 0)  -->
<svg version="1.1" id="圖層_1" xmlns="http://www.w3.org/2000/svg" xmlns:xlink="http://www.w3.org/1999/xlink" x="0px" y="0px"
	 viewBox="0 0 1628 685" style="enable-background:new 0 0 1628 685;" xml:space="preserve">
<style type="text/css">
	.st0{fill:#FFFFFF;}
</style>
<g>
	<path d="M1617.25,624.46l-42.85-46.45l-36.32-25.46l-141.61-2.18l-98.25-10.44l4.35-5.97l49.86-71.73l65.17-54.81l68.49,111.13
		l96.74,44.8l12.83-8.26l-24.47-11.07l30.06,7.16l4.55-4.93l-34.61-15.67l40.23,9.58l3.18-3.45l-3.2-3.62l-40.21-18.2l30.51,7.26
		l-1.89-2.14l-3.49-4.36l-25.13-9.74l19.35,2.55l-4.39-5.48l-49.63-8.94l-101.72-168.89l-157.77,101.98l-0.8-0.26l10.38-7.81
		l13.55-35.63c1.21-12.29,6.07-28.7,4.05-40.78c-1.81-10.83-11.4-23.24-17.71-31.79c-4.64-6.3-24.72-22.07-25.42-27.78
		c-0.02-0.14-5.18-42.56-5.18-42.56l7.4-32.87l12.77-25.34l26.9-13.49l25.96-2.28l25.79,21.38l-10.32,27.64l-27.51,11.5l-17.37,7.51
		l12.12,18.14l45.03-14.25l19.25-46.99l-17.64-30.43l-27.33-17.85l-19.35-3.24l-46.26,15.93l-22.45,20.87l-14.47,35.47l-4.65,39.02
		l14.09,45.95c13.25,14.12,25.92,27.95,37.98,43.12c2.13,2.68,4.3,5.42,5.54,8.61c1.72,4.4,1.55,9.27,1.35,13.99
		c-0.98,23.85-14.04,40.91-30.39,56.04l-24.7-8.19l-25.78-10.01l-61.29-23.79l-38.44-14.92l36.78,7.15l-39.14-183.51l-27.72-2.57
		l-96.42,79.86l45.33,20.41l42.23-33.29l20.24,104.68l-30.91-12l-17.86-41.67l-0.47-1.1l-19.45-11.72l-18.42-11.1l-9.78-5.32
		l-12.49-7.59l-63.89-33.96l21.93,59.62l-30.47,31.57l-54.35,3.41l24.66,28.17l7.51,8.57l31.36,35.81l6.85,7.83l23.21,18.47
		l41.05,32.67l-100.94,2.49l27.38-56.41l-30.23-38.3l-60.69,117.7l8.44,26.52l206.39-1.14l-42.14-43.77l3.91,2.55l51.71,41.15
		l27.14,21.59l1.09,0.86l83.46,61.65l86.54,22.93l0.24-0.34l275.36-4.24l65.26,48.23l3.94-2.31l-7.51-9.64l9.38,8.54l5.61-3.29
		l-13.85-15.36l17.53,13.2l8.92-5.23l-20.16-22.35l22.73,17.11l1.85-4.49l-20.99-20.84l23.69,14.28L1617.25,624.46z M1108.18,271.66
		l-1.1,13.48l-3.41-13.17l-2.35-15.73L1108.18,271.66z M1105.36,309.92l0.91,12.38l-7.51-12.39l-1.6-13.92L1105.36,309.92z
		 M1081.75,265.67l6.86,15.43l-1.1,13.48l-3.41-13.17L1081.75,265.67z M911.63,498.29l-16.54-3.4l15.87-1.07l13.59,0.51
		L911.63,498.29z M916.66,477.16l-16.54-3.4l15.87-1.07l13.59,0.51L916.66,477.16z M948.4,487.35l-15.37-5.02l13.94-1.42l13.71,4.68
		L948.4,487.35z M1233.98,461.33l12.93,9.66l-13.62-2.34l-14.56-10.59L1233.98,461.33z M1252.91,500.44l13.69,9.55l-17.36-6.45
		l-9.14-13.91L1252.91,500.44z M1409.01,354.79l15.13-5.6l-9.37,10.16l-16.8,6.47L1409.01,354.79z M1385.66,411.76l12.1-9.12
		l-8.38,12.51l-16.67,8.69L1385.66,411.76z M1345.88,416.65l13.66-4.67l-10.88,8.44l-14.32,5.39L1345.88,416.65z M1366.81,431.15
		l-9.79,12.7l-11.53,4.97l4.51-6.65L1366.81,431.15z M1318.58,423.09l13.66-4.67l-10.88,8.44l-14.32,5.39L1318.58,423.09z
		 M1200.91,420.91l-16.36-9.27l17.19,4.3l14.23,5.2L1200.91,420.91z M1143.61,391.18l-10.75-6.58l9.94,2.82l1.16,0.33l9.87,5.98
		l-7.67-0.98L1143.61,391.18z M1139.86,413.09l10.25,10.16l-12.39-6.01l-11.19-10.44L1139.86,413.09z M1143.93,441.51l10.03,12.65
		l-12.57-5.75l-11.37-13.96L1143.93,441.51z M1182.15,430.71l18.38,8.12l-15.98-1.31l-10.44-6.97L1182.15,430.71z M1177.92,450.93
		l12.42,8.67l-14.49-4.08l-13.45-13.15L1177.92,450.93z M1195.48,497.11l9.87,5.98l-7.67-0.98l-13.31-8.15L1195.48,497.11z
		 M1090.49,447.53l10.41,7.01l-8.03-0.2l-18.35-8.19L1090.49,447.53z M1001.71,416.18l10.04,3.98l13.04,12.11l-10.95-5.38
		C1013.84,426.89,1002.47,416.71,1001.71,416.18z M1024.94,459.36l13.62,2.4l14.52,10.64l-15.25-3.33L1024.94,459.36z
		 M1033.82,435.51l15.05,0.29l16.33,9.33l-17.17-4.37L1033.82,435.51z M1062.33,462.63l12.98,4.6l12.27,9.14l-13.95-4.77
		L1062.33,462.63z M1063.51,407.62l-8.9-8.85l7.85,1.71l16.48,11.49L1063.51,407.62z M1058.82,369.44l7.1,4.95l-7.45-0.67
		l-9.79-11.35L1058.82,369.44z M1035.1,395.29l6.29,6.65l-5.75,0.14l-15.77-8.74L1035.1,395.29z M984.26,308.89l0.44-0.72
		c0.43,0.76,0.84,1.34,1.12,1.52c0.84,0.56,4.94,3.24,6.82,4.22l-8.94,5.74L984.26,308.89z M1002.28,300.71
		c-0.79-0.97-1.72-2.09-1.94-2.3c-0.21-0.2-2-1.05-3.72-1.78l3.06-0.52l4.72-0.81l-0.66,1.69L1002.28,300.71z M944.89,258.18
		l4.2,11.83l-6.34-4.94l-9.89-17.49L944.89,258.18z M931.75,260.37l6.69,10.94l3.5,12.18l-5.75-7.67L931.75,260.37z M888.81,327.87
		l8.23,2.06l-11.14,1.31l-11.22-1.71L888.81,327.87z M864.63,334.83l17.66,2.07l6.2,3.48l-11.09,0.63L864.63,334.83z M956.92,378.57
		l-11.35-18.66l-0.59,0.49l-19,12.93l3.66-11.94l9.66-12.51l-8.36-19.81l11.43,18.79l20.58-2.55l-14.91,12.51L956.92,378.57z
		 M976.29,298.48l1.56,19.1l15.46,13.06l0.54,11.48l2.85,2.41l3.01,5.18l9.96-0.55l7.95-0.67l-8.89,3.04l-8.42,1.85l-3.49,12.87
		l-6.4,8.83l4.93-12.71l-0.01-13.72l-3.77-5.62l-13.1,0.72l9.12-10.8l-13.25-11.19L976.29,298.48z M974.74,422.21l10.4,3.94
		l13.48,12.06l-11.34-5.33C987.28,432.88,975.53,422.74,974.74,422.21z M1093.8,491.08l-11.31-8.97l12.98,4.6l12.27,9.14
		L1093.8,491.08z M1101.75,378.25l-14.88-8.6l13.38,4.01l12.12,6.13l0.34,0.17l-0.16-0.03L1101.75,378.25z M1129.53,532.1
		l-10.76-10.52l10.62,4.77l10.93,10.26L1129.53,532.1z M1155.16,472.65l10.02,12.65l-12.57-5.75l-11.37-13.96L1155.16,472.65z
		 M1148.22,514.45l13.33,6.28l10.25,10.16l-12.39-6.01L1148.22,514.45z M1173.61,581.74l-13.44-13.15l15.51,8.56l12.42,8.67
		L1173.61,581.74z M1182.31,563.73l-10.44-6.97l8.04,0.17l18.38,8.12L1182.31,563.73z M1204.36,542.2l-15.72-10.32l16.87,5.42
		l13.86,6.12L1204.36,542.2z M1214.98,523.21l14.31,3.53l12.05,7.94l-13.34-3.44L1214.98,523.21z M1232.61,567.16l8.04,0.17
		l18.38,8.12l-15.98-1.31L1232.61,567.16z M1262.05,604.54l-7.75-4.39l-4.19-2.37l-4.42-2.5l4.93,1.23l5.36,1.34l6.9,1.73l14.23,5.2
		L1262.05,604.54z M1308.04,588.71l-10.44-6.97l8.04,0.17l18.38,8.12L1308.04,588.71z M1373.95,591.56l-19.55-6.96l19.45-0.08
		l16.43,2.16L1373.95,591.56z"/>
</g>
<g>
	<g>
		<path d="M664.36,292.37c-1.34-0.94-4.02-2.82-4.02-2.82l-0.62-0.01l-2.33-0.06l-1.18-0.03l-1.18-0.03l-0.59-0.01l-3.42,0.6
			l-4.16,3.08c0,0-0.05,0.21-0.12,0.54c-0.03,0.15-0.07,0.31-0.11,0.5c-0.28,1.34-0.72,3.61-0.58,4.39c0.2,1.14,3.47,6.43,3.47,6.43
			s4.68,3.29,6.49,3.56c0.51,0.08,1.05,0.1,1.57,0.09c1.34-0.02,2.52-0.22,2.52-0.22s2.7-1.08,3.17-1.75
			c0.47-0.67,0.94-1.34,1.88-2.68c0.58-0.82,0.92-1.81,1.2-2.61c0.05-0.15,0.1-0.29,0.15-0.42c0.12-0.32,0.24-0.59,0.37-0.77
			c0.47-0.67-0.13-4.09-0.13-4.09S665.7,293.31,664.36,292.37z"/>
		<path d="M721.44,350.21l-2.51-3.39c0,0-2.73-1.92-3.28-2.3c-0.55-0.38-2.57-0.99-2.57-0.99l-3.88-0.28c0,0-4.26,0.27-4.65,0.81
			c-0.24,0.34-1.15,1.18-1.79,1.76c-0.38,0.34-0.67,0.59-0.67,0.59s-1.92,2.73-2.3,3.28c-0.25,0.36-0.43,1.12-0.59,2.01
			c-0.08,0.47-0.16,0.98-0.24,1.49c-0.22,1.48,2.07,6.34,2.07,6.34l3.98,3.61l3.28,2.3l4.04,1.21l3.12-1.24l1.33-0.53l3.26-3.42
			l1.57-2.42l0.08-0.13l1.07-3.59L721.44,350.21z"/>
	</g>
	<path class="st0" d="M750,376.23l-32.69,37.44l9.96,36.57l-60.65-1.74l24.69-19.65l24.76-19.71l2.27-1.81l30.16-34.45l4.23-4.84
		l35.98-41.1l-54.35-3.41l-30.47-31.57l-15.5-46.12l-0.97-2.88l-8.59-25.57l-19.18,37.17l-60.02-84.26l-27.15-6.16l-78.34,135.09
		l59.14,0.06l-7.59,1.19l-55.98,6.38l-12.15,1.39l-5.97,2.05l-43.35,14.88l-1.72,0.59l-13.92,4.78l-29.4,22.79L353,372.24l62.76-53
		l4.22-12c-4.55-12.88-10.04-28.45-14.25-40.63c-8.74-25.25-23.21-43.98-15.37-54.31c7.84-10.33,47.7-48.29,47.7-48.29l44.45-38.36
		l-18.39,2.02l18.1-36.36l-0.79-25.78L464,13l-33.21,54.16c0,0-120.53,52.53-124.27,57.45c-3.73,4.92-61.09,55.96-60.49,79.68
		c0.6,23.72,19.69,95.58,23.35,103.02c2.01,4.07,33.08,35.09,60.78,62.33l-128.96-42.46L99.48,496.06L49.85,505l-4.39,5.48
		l19.35-2.55l-25.13,9.74l-3.49,4.36l-1.89,2.14l30.51-7.26l-40.21,18.2l-3.2,3.62l3.18,3.45l40.23-9.58L30.2,548.25l4.55,4.93
		l30.06-7.16L40.35,557.1l12.83,8.26l105.28-38.39l68.49-102.59l71.17,41.81l30.9,61.04l-89.48,25.15l-141.61,2.18L61.6,580.01
		l-42.85,46.45l1.28,3.13l23.69-14.28l-20.99,20.84l1.85,4.5l22.73-17.12l-20.16,22.35l8.92,5.23l17.53-13.2l-13.85,15.36l5.61,3.29
		l9.38-8.54l-7.51,9.64l3.94,2.31l65.26-48.23l275.36,4.24l0.24,0.34l86.54-22.93l83.46-61.65l1.09-0.86l29.76-23.68l49.09-39.06
		l3.91-2.55l-40.12,41.68l183.02,1.05l8.44-26.52L750,376.23z M397.97,278.84l3.14,14.09l-7.19-11.75l-3.78-14.83L397.97,278.84z
		 M457.69,101.92l-1.18,7.95l-10.36,17.22l3.31-15.69L457.69,101.92z M435.84,99.55l11.39-9.35l-5.08,9.63l-8.37,6.96L435.84,99.55z
		 M409.13,160.02l-8.37,6.96l2.06-7.25l11.39-9.35L409.13,160.02z M398.78,145.01l7.27-8.97l-3.18,9.31l-5.82,7.18L398.78,145.01z
		 M311.67,231.69l-4.39-14.66l8.34,12.15l3.72,13.94L311.67,231.69z M317.43,177.3l-7.75,13.02l3.02-14.75l12.14-14.36L317.43,177.3
		z M364.5,446.94l14.23-5.2l17.19-4.3l-16.36,9.27L364.5,446.94z M353.89,392.86l6.22-1.33l1.12-0.24l-1.18,0.86l-3.95,2.87
		l-9.43,6.85l-13.62,2.34l12.93-9.66L353.89,392.86z M402.01,463.33l15.26-3.27l-14.56,10.59l-13.62,2.34L402.01,463.33z
		 M398.56,416.3l-15.98,1.31l7.25-3.2l11.13-4.92l8.04-0.17l-9.69,6.48L398.56,416.3z M444.87,376.64l8.09-2.6l-7.3,4.79l-8.42,5.53
		l-15.01,1.22l13.86-6.12L444.87,376.64z M413.6,373.4l-13.33,3.44l12.05-7.94l14.31-3.53L413.6,373.4z M445.66,461.6l12.42-8.67
		l15.51-8.56l-13.45,13.15L445.66,461.6z M451.62,495.96l-13.31,8.15l-7.67,0.98l9.87-5.98L451.62,495.96z M473.18,373.79
		l11.34-5.01l12.59-2.17l-14.18,6.26L473.18,373.79z M492.03,389.74l11.1-3.15l-13.31,8.15l-7.67,0.98L492.03,389.74z
		 M476.88,346.58l11.56-8.64l14.08-4.37l-12.53,8.78L476.88,346.58z M663.9,286.69c0.71,0.5,4.28,3.01,4.28,3.01l3.28,4.43
		l1.76,6.68l-1.4,4.7l-2.16,3.34l-1.74,1.82l0.23,4.79l-3.09-2.01l-5.48,2.17l-5.28-1.58l-4.28-3.01l-5.21-4.72
		c0,0-2.99-6.36-2.7-8.29c0.11-0.77,0.23-1.53,0.36-2.22c0.19-1.05,0.42-1.92,0.72-2.35c0.3-0.43,1.31-1.86,2.07-2.96l-1.62-4.21
		l4.79,0.85c0.44-0.42,0.82-0.81,0.97-1.03c0.5-0.71,6.07-1.06,6.07-1.06l5.07,0.36c0,0,0.7,0.21,1.48,0.48
		C662.76,286.14,663.56,286.45,663.9,286.69z M641.25,400.38l10.4-3.94c-0.79,0.53-12.54,10.67-12.54,10.67l-11.34,5.33
		L641.25,400.38z M614.64,394.39l10.04-3.98c-0.76,0.53-12.12,10.72-12.12,10.72l-10.95,5.38L614.64,394.39z M590.75,376.31
		l-5.75-0.14l6.29-6.65l15.22-1.95L590.75,376.31z M594.8,438.06L585,449.41l-7.45,0.67l7.1-4.95L594.8,438.06z M589.2,412.59
		l-9.14,13.91l-17.36,6.45l13.69-9.55L589.2,412.59z M572.49,409.62l-15.43,4.35l16.48-11.49l7.85-1.71L572.49,409.62z
		 M678.8,353.47l-13.46-6.85l-4.48,4.38l-2.41,11.56l5.86,16.35l-7.78-13.33l-0.69-11.46l-6.77-3.04l-11.12-8.36l10.73,6.2l8.3,2.21
		l3.44-3.84l3.12-1.69l0.64-13.85l15.37-8.33l-10.81,11.79L678.8,353.47z M756.46,340.87l-11.09-0.63l6.2-3.48l17.66-2.07
		L756.46,340.87z M745.05,327.73l14.13,1.67l-11.22,1.71l-11.14-1.31L745.05,327.73z M723.05,345.8l2.92,4.71l0.58,9.3l-3.47,4.94
		l1.46,7.33l-5.8-4.27l-2.52,1.64l-5.66,0.47l-5.54-0.93l-0.01,0c-2.24-1.38-4.06-2.66-4.06-2.66s-5.54-8.96-5.88-10.89
		c-0.21-1.21,0.38-4.53,0.86-6.82l-3.71-3.49l5.28,0.35l5.99-4.43l5.79-1.01l4.99,0.12l0.77,0.02L723.05,345.8z M704.45,320.8
		l9.82-2.47l-10.98,7.66l-12.77,4.53L704.45,320.8z M693.77,321.73l-8.51,3.73l8.48-7.66l8.27-3.51L693.77,321.73z M694.16,303.48
		l-5.07,9.88l-6.64,6.51l5.22-10.17L694.16,303.48z M686.53,265.48l-0.25,9.58l-4.19-11.96l-0.83-12.16l-0.04-0.64l0.19,0.53
		L686.53,265.48z M672.92,240.52l1.02,9.87l0.56,5.4l0.49,4.72l-2.32,7.7l-2.61-9.24l-0.8-2.84l0.86-3.63L672.92,240.52z
		 M591.53,227.03l11.76-9.79l-7.91,12.44l-11.37,8.89L591.53,227.03z M579.62,232.28l-7.91,12.44l-11.37,8.89l7.51-11.54
		L579.62,232.28z M535.73,262.38l-8.44,12.58l3.81-14.56l12.9-13.68L535.73,262.38z M552.26,222.68l9.26-8.47l-2.08,7.76
		l-12.26,15.92L552.26,222.68z M548.39,289.18l5.52-12.67l13.75-11.62l-6.81,14.04L548.39,289.18z M591.41,246.6l31.23,31.97
		l34.4-18.9l-3.47,6.74l-27.27,15.91l-15.18,8.86l-3.97,2.32l-44.29,5.05L591.41,246.6z M451.45,439.51l-15.98,1.31l18.38-8.12
		l8.04-0.17L451.45,439.51z M446.12,339.27l11.1-3.15l-13.31,8.15l-7.67,0.98L446.12,339.27z M370.2,308.44l-9.94-11.31l-4.13-18.35
		l8.36,15.62L370.2,308.44z M369.73,273.67l5.8,9.98l2.94,11.16l-4.83-6.03L369.73,273.67z M372.5,337.31l-6.5-14.07l8.02,9.95
		l5.2,11.25L372.5,337.31z M382.27,142.26l6.48-14.2l-1.78,11.4l-4.74,10.52L382.27,142.26z M374.07,202l6.85-9.3l-2.75,9.45
		l-5.48,7.44L374.07,202z M363.56,236.44l-6.5-14.07l8.02,9.95l5.2,11.25L363.56,236.44z M357.44,196.4l10.22-9.06l-5.33,9.64
		l-7.63,7.95L357.44,196.4z M358.34,346.27l-5.45-5.47l-5.51-14.6l6.84,9.3L358.34,346.27z M337.21,186.67l10.95-9.86l-4.63,9.86
		l-8.04,7.34L337.21,186.67z M341.63,229.6l4.13,10.78l-5.45-5.47l-5.51-14.6L341.63,229.6z M343.36,355.95l7.67,12.23l-10.7-8.67
		l-8.52-12.71L343.36,355.95z M237.43,350.09l13.6,7.66l-17.92-1.72l-11.76-7.27L237.43,350.09z M223.52,382.25l-11.43-9.8
		l14.1,5.54l15.72,8.17L223.52,382.25z M262.39,401.21l-12.84-9.61l19.14,6.1l6.13,5.2L262.39,401.21z M264.17,376.41l-12.75-5.21
		l14.41,0.84l13.58,5.72L264.17,376.41z M293.85,370.91l13.58,5.72l-15.24-1.35l-12.75-5.21L293.85,370.91z M262.05,593.56
		l-16.33-4.88l16.43-2.16l19.45,0.08L262.05,593.56z M327.96,590.71l-15.98,1.31l18.38-8.12l8.04-0.17L327.96,590.71z
		 M373.95,606.54l-15.05,0.23l14.23-5.2l6.9-1.73l6.77-1.7l3.51-0.88l-3.22,1.82l-5.39,3.05L373.95,606.54z M392.96,576.14
		l-12.72,1.04l-3.26,0.27l2.93-1.3l15.45-6.82l8.04-0.17L392.96,576.14z M394.66,536.68l12.05-7.94l14.31-3.53L408,533.24
		L394.66,536.68z M416.64,545.41l13.86-6.12l16.87-5.42l-15.72,10.32L416.64,545.41z M456.1,558.93l8.04-0.17l-10.44,6.97
		l-15.98,1.31L456.1,558.93z M462.39,583.74l-14.49,4.08l12.42-8.67l15.51-8.56L462.39,583.74z M476.59,526.89l-12.39,6.01
		l10.25-10.16l13.33-6.28L476.59,526.89z M483.39,481.55l-12.57,5.75l10.03-12.65l13.92-7.07L483.39,481.55z M498.29,419.25
		l-12.39,6.01l10.25-10.16l13.33-6.28L498.29,419.25z M531.49,342.48l17-5.01l-15.97,9.93l-15.03,0.85L531.49,342.48z
		 M535.75,375.66l13.38-4.01l-14.88,8.6l-10.97,1.71L535.75,375.66z M535.44,445.05l10.62-4.77l-10.76,10.52l-10.8,4.51
		L535.44,445.05z M530.1,481.78l10.03-12.65l13.92-7.07l-11.37,13.96L530.1,481.78z M666.24,487.17l-12.29-1.76l13.71-4.68
		l13.94,1.42L666.24,487.17z M698.64,472.51l15.87,1.07l-16.54,3.4l-12.93-3.96L698.64,472.51z M703.01,498.11l-12.93-3.96
		l13.59-0.51l15.87,1.07L703.01,498.11z"/>
</g>
</svg>
