<?xml version="1.0" encoding="utf-8"?>
<!-- Generator: Adobe Illustrator 23.0.3, SVG Export Plug-In . SVG Version: 6.00 Build 0)  -->
<svg version="1.1" id="圖層_1" xmlns="http://www.w3.org/2000/svg" xmlns:xlink="http://www.w3.org/1999/xlink" x="0px" y="0px"
	 viewBox="0 0 1628 685" style="enable-background:new 0 0 1628 685;" xml:space="preserve">
<style type="text/css">
	.st0{fill:#FFFFFF;}
</style>
<g>
	<g>
		<g>
			<path d="M696.35,303.39c-1.21-1.1-3.64-3.29-3.64-3.29l-0.61-0.09l-2.3-0.34l-1.17-0.17l-1.16-0.17l-0.58-0.09l-3.46,0.17
				l-4.5,2.54c0,0-0.07,0.2-0.19,0.52c-0.05,0.14-0.11,0.3-0.17,0.48c-0.45,1.3-1.16,3.49-1.12,4.28c0.06,1.15,2.65,6.81,2.65,6.81
				s4.24,3.84,6,4.33c0.49,0.14,1.03,0.22,1.54,0.28c1.33,0.15,2.53,0.09,2.53,0.09s2.82-0.74,3.37-1.35
				c0.55-0.61,1.1-1.21,2.19-2.42c0.67-0.74,1.13-1.68,1.51-2.44c0.07-0.14,0.14-0.27,0.21-0.4c0.16-0.3,0.31-0.56,0.46-0.72
				c0.55-0.61,0.38-4.07,0.38-4.07S697.57,304.49,696.35,303.39z"/>
			<path d="M745.85,367.84l-2.07-3.68c0,0-2.47-2.24-2.97-2.69s-2.43-1.3-2.43-1.3l-3.82-0.76c0,0-4.26-0.26-4.71,0.23
				c-0.28,0.31-1.29,1.03-2,1.52c-0.42,0.29-0.74,0.5-0.74,0.5s-2.24,2.47-2.69,2.97c-0.29,0.32-0.57,1.05-0.83,1.92
				c-0.14,0.46-0.28,0.95-0.42,1.45c-0.4,1.44,1.27,6.55,1.27,6.55l3.51,4.08l2.97,2.69l3.86,1.7l3.25-0.84l1.39-0.36l3.66-2.99
				l1.86-2.21l0.1-0.12l1.51-3.43L745.85,367.84z"/>
		</g>
		<path class="st0" d="M770.98,397.18l-37.07,33.12l5.36,37.52l-59.97-9.22l26.93-16.45l27.01-16.49l2.48-1.51l34.19-30.46l4.8-4.28
			l40.79-36.34l-53.51-10.1l-26.34-35.09l-9.68-47.69l-0.6-2.97l-5.37-26.44l-23.62,34.52l-49.15-91.03l-26.18-9.46l-94.43,124.37
			l58.68,7.37l-7.68,0.25l-56.34-0.58l-12.23-0.13l-6.18,1.3l-44.86,9.4l-1.78,0.37l-14.41,3.02l-31.99,18.98l-32.33,15.02
			l68.82-44.84l5.67-11.39c-2.93-13.34-6.44-29.48-9.12-42.08c-5.56-26.13-17.6-46.51-8.54-55.79c9.06-9.28,53.31-42.03,53.31-42.03
			l48.85-32.57L518,115.2l22.45-33.84l2.4-25.68L532.05,1.4L492.4,51.04c0,0-126.1,37.23-130.41,41.65
			c-4.31,4.42-67.54,47.98-69.87,71.59c-2.33,23.61,7.73,97.29,10.45,105.11c1.49,4.29,28.49,38.91,52.61,69.36l-122.72-58.07
			L110.64,435.71l-50.35,2.74l-5.03,4.89l19.52-0.14l-26.14,6.56l-4,3.89l-2.14,1.89l31.18-3.44L31.51,465.2l-3.63,3.2l2.73,3.82
			l41.11-4.53l-36.28,11.27l3.9,5.46l30.72-3.39l-25.65,7.97l11.71,9.78l109.22-25.09l80.64-93.34l65.45,50.28l23.12,64.39
			l-91.9,13.9l-140.8-15.34l-39.19,20.78l-48.26,40.8l0.89,3.26l25.27-11.24l-23.4,18.08l1.28,4.69l24.67-14.18l-22.77,19.69
			l8.2,6.29l19.02-10.93l-15.64,13.53l5.16,3.96l10.36-7.32l-8.64,8.64l3.63,2.78l70.72-39.79l272.73,38.24l0.2,0.36l88.71-12.06
			l90.44-50.86l1.18-0.72l32.46-19.82l53.54-32.7l4.19-2.04l-44.97,36.4l181.49,23.66l11.66-25.28L770.98,397.18z M433.68,257.04
			l1.38,14.37l-5.69-12.54l-1.92-15.18L433.68,257.04z M514.8,88.86l-2.15,7.74l-12.41,15.81l5.22-15.16L514.8,88.86z M493.41,83.81
			l12.46-7.87l-6.23,8.93l-9.17,5.88L493.41,83.81z M459.44,140.52l-9.17,5.88l2.94-6.94l12.46-7.87L459.44,140.52z M451.02,124.34
			l8.32-8.01l-4.31,8.85l-6.66,6.4L451.02,124.34z M353.86,199.59l-2.55-15.09l6.78,13.09l1.97,14.3L353.86,199.59z M366.31,146.33
			l-9.3,11.96l4.82-14.26l13.82-12.75L366.31,146.33z M379.69,419.72l14.76-3.4l17.59-2.15l-17.38,7.17L379.69,419.72z
			 M375.85,364.74l6.34-0.55l1.15-0.1l-1.28,0.71l-4.28,2.36l-10.2,5.64l-13.81,0.64l14.02-7.99L375.85,364.74z M414.89,440.62
			l15.55-1.36l-15.76,8.7l-13.81,0.64L414.89,440.62z M417.28,393.52l-16.02-0.67l7.59-2.28l11.66-3.5l7.99,0.83l-10.42,5.23
			L417.28,393.52z M468.14,359.89l8.35-1.58l-7.84,3.85l-9.04,4.44l-15.04-0.64l14.51-4.36L468.14,359.89z M437.5,352.81
			l-13.66,1.77l12.94-6.39l14.64-1.74L437.5,352.81z M458.42,444.3l13.4-7.06l16.45-6.58l-14.97,11.38L458.42,444.3z M460.09,479.13
			l-14.21,6.45l-7.73,0.02l10.53-4.72L460.09,479.13z M496.58,360.56l11.87-3.57l12.77-0.6l-14.84,4.46L496.58,360.56z
			 M513.32,378.72l11.41-1.75l-14.21,6.45l-7.73,0.02L513.32,378.72z M503.61,334.01l12.54-7.14l14.51-2.59l-13.52,7.17
			L503.61,334.01z M696.6,297.7c0.65,0.59,3.88,3.51,3.88,3.51l2.71,4.8l0.92,6.85l-1.97,4.49l-2.56,3.04l-1.95,1.59l-0.37,4.78
			l-2.82-2.38l-5.7,1.48l-5.05-2.22l-3.88-3.51l-4.59-5.33c0,0-2.18-6.68-1.66-8.56c0.21-0.75,0.42-1.49,0.63-2.16
			c0.32-1.02,0.65-1.86,1.01-2.25c0.35-0.39,1.53-1.69,2.42-2.68l-1.08-4.38l4.65,1.43c0.49-0.37,0.91-0.7,1.09-0.9
			c0.59-0.65,6.16-0.31,6.16-0.31l4.99,0.99c0,0,0.67,0.3,1.41,0.66C695.54,297.01,696.29,297.41,696.6,297.7z M660.07,407.72
			l10.81-2.63c-0.85,0.43-13.76,9.04-13.76,9.04l-11.91,3.89L660.07,407.72z M634.41,398.49l10.45-2.71
			c-0.82,0.43-13.36,9.14-13.36,9.14l-11.53,3.98L634.41,398.49z M612.93,377.59l-5.69-0.85l7.07-5.82l15.35-0.05L612.93,377.59z
			 M609.32,439.36l-11.12,10.06l-7.47-0.25l7.66-4.04L609.32,439.36z M606.91,413.4l-10.79,12.68l-18.02,4.26l14.77-7.78
			L606.91,413.4z M590.7,408.39l-15.85,2.41l17.78-9.37l8-0.73L590.7,408.39z M703.13,365.8l-12.51-8.46l-4.98,3.8l-3.82,11.17
			l3.79,16.94l-6.07-14.19l0.73-11.46l-6.34-3.85l-10-9.67l9.89,7.48l7.96,3.22l3.89-3.38l3.31-1.29l2.35-13.66l16.28-6.37
			l-12.19,10.36L703.13,365.8z M781.76,362.9l-10.93-1.99l6.59-2.69l17.78,0.13L781.76,362.9z M772.05,348.45l13.81,3.4l-11.35,0.31
			l-10.89-2.68L772.05,348.45z M747.99,363.67l2.31,5.04l-0.57,9.3l-4.05,4.47l0.54,7.45l-5.23-4.95l-2.7,1.32l-5.68-0.23l-5.38-1.6
			l-0.01,0c-2.05-1.65-3.7-3.14-3.7-3.14s-4.39-9.58-4.49-11.54c-0.06-1.23,0.94-4.44,1.69-6.67l-3.25-3.92l5.2,1l6.49-3.65
			l5.87-0.29l4.94,0.74l0.76,0.11L747.99,363.67z M732.62,336.55l10.05-1.24l-11.85,6.24l-13.23,2.91L732.62,336.55z M721.91,336.15
			L713,338.8l9.36-6.56l8.64-2.46L721.91,336.15z M724.56,318.1l-6.25,9.18l-7.39,5.64l6.43-9.45L724.56,318.1z M721.68,279.44
			l-1.43,9.48l-2.68-12.39l0.68-12.17l0.04-0.64l0.12,0.55L721.68,279.44z M711.25,252.99l-0.21,9.92l-0.12,5.43l-0.1,4.74
			l-3.25,7.35l-1.45-9.49l-0.45-2.92l1.3-3.49L711.25,252.99z M632.15,229.55l12.88-8.26l-9.38,11.37l-12.38,7.42L632.15,229.55z
			 M619.69,233.28l-9.38,11.36l-12.38,7.42l8.88-10.53L619.69,233.28z M572.42,257.74l-9.93,11.44l5.58-13.98l14.49-11.98
			L572.42,257.74z M593.73,220.38l10.24-7.27l-3.02,7.45l-14.14,14.28L593.73,220.38z M581.67,285.9l7.05-11.89l15.08-9.83
			l-8.5,13.09L581.67,285.9z M629.62,248.95l27.04,35.58l36.47-14.5l-4.28,6.25l-29.02,12.42l-16.16,6.91l-4.23,1.81l-44.57-0.46
			L629.62,248.95z M466.9,423.09l-16.02-0.67l19.24-5.78l7.99,0.83L466.9,423.09z M473.99,322.96l11.41-1.75l-14.21,6.45l-7.73,0.02
			L473.99,322.96z M402.47,282.99L394,270.54l-1.83-18.71l6.37,16.54L402.47,282.99z M406.29,248.42l4.52,10.62l1.54,11.44
			l-4.05-6.58L406.29,248.42z M401.18,311.92l-4.72-14.76l6.73,10.87l3.77,11.81L401.18,311.92z M434.97,119.58l8.18-13.29
			l-3.17,11.1l-6,9.86L434.97,119.58z M419.45,177.84l7.95-8.38l-3.9,9.04l-6.36,6.7L419.45,177.84z M404.77,210.72l-4.72-14.76
			l6.73,10.87l3.77,11.81L404.77,210.72z M403.64,170.23l11.26-7.72l-6.48,8.91l-8.55,6.94L403.64,170.23z M386.01,319.06
			l-4.74-6.11l-3.66-15.17l5.64,10.07L386.01,319.06z M384.77,158.07l12.09-8.43l-5.81,9.21l-8.89,6.29L384.77,158.07z
			 M383.86,201.22l2.76,11.21l-4.74-6.11l-3.66-15.17L383.86,201.22z M369.96,326.81l6.1,13.08l-9.55-9.92l-6.88-13.67
			L369.96,326.81z M265.56,307.91l12.54,9.29l-17.57-3.93l-10.77-8.67L265.56,307.91z M247.79,338.11l-10.13-11.14l13.31,7.24
			l14.59,10.05L247.79,338.11z M284.01,361.73l-11.55-11.12l18.24,8.42l5.44,5.92L284.01,361.73z M288.85,337.33l-12.01-6.75
			l14.2,2.61l12.77,7.36L288.85,337.33z M318.98,335.54l12.77,7.36l-14.96-3.22l-12.01-6.75L318.98,335.54z M259.91,552.55
			l-15.6-6.86l16.57-0.11l19.29,2.48L259.91,552.55z M325.66,557.87l-16.02-0.67l19.24-5.78l7.99,0.83L325.66,557.87z
			 M369.35,579.27l-14.97-1.63l14.76-3.4l7.06-0.86l6.93-0.85l3.59-0.44l-3.42,1.41l-5.73,2.36L369.35,579.27z M391.97,551.44
			l-12.76-0.54l-3.26-0.14l3.07-0.92l16.17-4.86l7.99,0.83L391.97,551.44z M398.53,512.5l12.94-6.39l14.64-1.74l-13.92,6.36
			L398.53,512.5z M419.26,523.88l14.51-4.36l17.41-3.29l-16.87,8.3L419.26,523.88z M456.75,542.17l7.99,0.83l-11.22,5.63
			l-16.02-0.67L456.75,542.17z M459.93,567.57l-14.89,2.26l13.4-7.06l16.45-6.58L459.93,567.57z M481.05,512.91l-13.04,4.43
			l11.43-8.82l14.01-4.59L481.05,512.91z M493.39,468.75l-13.19,4.16l11.51-11.31l14.68-5.29L493.39,468.75z M515.87,408.77
			l-13.04,4.43l11.43-8.82l14.01-4.59L515.87,408.77z M558.31,336.69l17.48-2.87l-17.07,7.88l-15.02-1.01L558.31,336.69z
			 M558.44,370.15l13.77-2.32l-15.82,6.69l-11.09,0.34L558.44,370.15z M549.55,438.96l11.13-3.42l-11.97,9.11l-11.27,3.15
			L549.55,438.96z M539.72,474.76l11.51-11.31l14.68-5.29L552.9,470.6L539.72,474.76z M674.15,496.93l-11.98-3.26l14.19-2.95
			l13.66,3.13L674.15,496.93z M708.11,486.38l15.62,3.02l-16.83,1.33l-12.34-5.52L708.11,486.38z M709.28,512.33l-12.34-5.52
			l13.55,1.17l15.62,3.02L709.28,512.33z"/>
	</g>
	<g>
		<path d="M1613.59,645.19l-46.89-42.36l-38.48-22.06l-141.22,10.7l-98.8-1.47l3.79-6.34l43.14-75.96l59.92-60.51l78.3,104.45
			l100.41,35.83l12.02-9.39l-25.37-8.81l30.59,4.39l4.08-5.33l-35.89-12.46l40.93,5.88l2.86-3.72l-3.52-3.31l-41.7-14.47l31.05,4.46
			l-2.08-1.96l-3.87-4.02l-25.91-7.42l19.5,0.78l-4.87-5.06l-50.24-4.39L1404.7,363.72l-147.85,115.89l-0.82-0.19l9.62-8.72
			l10.26-36.71c0.09-12.34,3.44-29.13,0.33-40.97c-2.79-10.62-13.47-22.11-20.53-30.05c-5.19-5.85-26.63-19.73-27.84-25.36
			c-0.03-0.14-9.03-41.91-9.03-41.91l4.39-33.41l10.42-26.39l25.56-15.88l25.65-4.63l27.63,18.95l-7.76,28.47l-26.35,13.95
			l-16.61,9.06l13.72,16.96l43.55-18.28l14.9-48.55l-20.33-28.71l-28.84-15.29l-19.57-1.47l-44.62,20.07l-20.46,22.83l-11.19,36.64
			l-1.08,39.28l18.21,44.48c14.48,12.86,28.35,25.48,41.75,39.5c2.37,2.48,4.77,5.01,6.3,8.07c2.11,4.22,2.38,9.09,2.62,13.81
			c1.19,23.84-10.26,42.01-25.17,58.57l-25.34-5.91l-26.59-7.63l-63.2-18.13l-39.63-11.37l37.28,3.78l-55.65-179.2l-27.84-0.04
			l-88.77,88.29l46.99,16.21l39.03-36.99l29.67,102.41l-31.87-9.14l-21.57-39.87l-0.57-1.05l-20.44-9.9l-19.36-9.38l-10.22-4.41
			l-13.12-6.42l-66.71-28.02l27.26,57.38l-27.48,34.21l-53.81,8.34l27.12,25.81l8.25,7.86l34.48,32.82l7.54,7.17l24.79,16.28
			l43.85,28.8l-100.3,11.65l22.14-58.66l-33.58-35.39l-49.74,122.73l10.82,25.65l205.43-19.89l-45.94-39.76l4.12,2.18l55.24,36.28
			l28.99,19.04l1.16,0.76l88.72,53.81l88.27,14.97l0.21-0.36l273.84-29.24l69.38,42.1l3.71-2.66l-8.35-8.92l10.11,7.66l5.28-3.79
			l-15.19-14.04l18.65,11.55l8.41-6.02l-22.11-20.43l24.19,14.97l1.43-4.63l-22.79-18.84l24.89,12.07L1613.59,645.19z
			 M1074.57,340.1l0.13,13.52l-4.59-12.8l-3.77-15.46L1074.57,340.1z M1075.24,378.46l2.03,12.25l-8.61-11.66l-2.86-13.72
			L1075.24,378.46z M1047.7,336.54l8.24,14.74l0.13,13.52l-4.59-12.8L1047.7,336.54z M899.43,583.65l-16.78-1.89l15.71-2.51
			l13.58-0.72L899.43,583.65z M902.52,562.15l-16.78-1.89l15.71-2.51l13.58-0.72L902.52,562.15z M935.05,569.42l-15.76-3.61
			l13.76-2.68l14.08,3.42L935.05,569.42z M1217.09,517.56l13.75,8.44l-13.78-1.1l-15.47-9.22L1217.09,517.56z M1239.49,554.79
			l14.5,8.27l-17.87-4.85l-10.37-13.03L1239.49,554.79z M1381.71,395.55l14.56-6.95l-8.41,10.97l-16.15,7.97L1381.71,395.55z
			 M1363.63,454.42l11.22-10.18l-7.21,13.22l-15.81,10.17L1363.63,454.42z M1324.46,462.9l13.18-5.89l-10.07,9.39l-13.77,6.67
			L1324.46,462.9z M1346.62,475.43l-8.59,13.54l-11.03,6l3.89-7.03L1346.62,475.43z M1297.87,471.79l13.18-5.89l-10.07,9.39
			l-13.77,6.67L1297.87,471.79z M1180.48,480.32l-17.14-7.74l17.51,2.72l14.64,3.88L1180.48,480.32z M1120.71,455.91l-11.3-5.58
			l10.16,1.9l1.19,0.22l10.37,5.06l-7.72-0.28L1120.71,455.91z M1118.97,478.07l11.13,9.19l-12.89-4.86l-12.09-9.38L1118.97,478.07z
			 M1125.61,506l11.13,11.68l-13.04-4.59l-12.59-12.87L1125.61,506z M1162.68,491.77l19.04,6.41l-16.03,0.15l-11.03-6
			L1162.68,491.77z M1160.31,512.3l13.16,7.5l-14.8-2.74l-14.58-11.87L1160.31,512.3z M1182,556.69l10.37,5.06l-7.72-0.28
			l-13.99-6.91L1182,556.69z M1072.94,516.85l11,6.04l-8.02,0.53l-19.02-6.49L1072.94,516.85z M981.68,493.7l10.36,3.06l14.08,10.87
			l-11.39-4.36C994.72,503.27,982.48,494.16,981.68,493.7z M1008.73,534.59l13.78,1.15l15.43,9.28l-15.49-1.93L1008.73,534.59z
			 M1015.4,510.04l15.02-1.08l17.11,7.81l-17.5-2.79L1015.4,510.04z M1046.26,534.45l13.35,3.4l13.05,7.99l-14.32-3.48
			L1046.26,534.45z M1042.44,479.56l-9.67-8l7.98,0.99l17.46,9.95L1042.44,479.56z M1034.3,441.97l7.52,4.29l-7.48,0.01
			l-10.79-10.42L1034.3,441.97z M1013.02,469.87l6.87,6.05l-5.71,0.66l-16.5-7.27L1013.02,469.87z M954.55,388.44l0.37-0.76
			c0.5,0.72,0.96,1.26,1.25,1.41c0.88,0.48,5.21,2.78,7.17,3.59l-8.38,6.53L954.55,388.44z M971.75,378.66
			c-0.88-0.89-1.91-1.93-2.14-2.12c-0.23-0.18-2.09-0.86-3.87-1.43l3-0.8l4.62-1.23l-0.5,1.74L971.75,378.66z M910.73,341.51
			l5.26,11.4l-6.76-4.34l-11.43-16.52L910.73,341.51z M897.85,344.89l7.65,10.29l4.6,11.81l-6.42-7.12L897.85,344.89z
			 M861.22,416.01l8.38,1.3l-10.97,2.32l-11.33-0.68L861.22,416.01z M837.77,425.14l17.78,0.46l6.49,2.9l-10.99,1.63L837.77,425.14z
			 M933.65,460.32l-13-17.55l-0.54,0.54l-17.75,14.61l2.56-12.22l8.48-13.33l-10.12-18.97l13.09,17.68l20.26-4.4l-13.71,13.81
			L933.65,460.32z M945.67,378.79l3.29,18.87l16.58,11.6l1.58,11.38l3.06,2.14l3.47,4.88l9.87-1.46l7.86-1.39l-8.58,3.83l-8.22,2.61
			l-2.31,13.14l-5.57,9.38l3.76-13.1l-1.26-13.66l-4.27-5.25l-12.98,1.9l8.1-11.58l-14.21-9.94L945.67,378.79z M955.37,502.15
			l10.71,2.98l14.52,10.78l-11.78-4.28C968.82,511.64,956.2,502.61,955.37,502.15z M1080.19,559.92l-12.08-7.9l13.35,3.4l13.05,7.99
			L1080.19,559.92z M1077.85,446.84l-15.59-7.21l13.69,2.77l12.63,5.01l0.35,0.14l-0.17-0.01L1077.85,446.84z M1119.5,597.52
			l-11.67-9.5l11.01,3.78l11.82,9.23L1119.5,597.52z M1139.62,536l11.13,11.68l-13.04-4.59l-12.59-12.87L1139.62,536z
			 M1136.51,578.25l13.85,5.05l11.13,9.19l-12.89-4.86L1136.51,578.25z M1167.9,642.96l-14.58-11.87l16.23,7.11l13.16,7.5
			L1167.9,642.96z M1174.93,624.23l-11.03-6l8.02-0.56l19.04,6.41L1174.93,624.23z M1194.93,600.78l-16.59-8.85l17.29,3.87
			l14.36,4.83L1194.93,600.78z M1203.78,580.91l14.57,2.22l12.72,6.82l-13.59-2.22L1203.78,580.91z M1225.33,623.08l8.02-0.56
			l19.04,6.41l-16.03,0.15L1225.33,623.08z M1258.05,657.63l-8.12-3.67l-4.39-1.98l-4.63-2.09l5.02,0.78l5.46,0.85l7.03,1.09
			l14.64,3.88L1258.05,657.63z M1302.41,637.68l-11.03-6l8.02-0.56l19.04,6.41L1302.41,637.68z M1368.31,634.53l-20.1-5.16
			l19.36-1.84l16.56,0.66L1368.31,634.53z"/>
	</g>
</g>
</svg>
