<?xml version="1.0" encoding="utf-8"?>
<!-- Generator: Adobe Illustrator 23.0.3, SVG Export Plug-In . SVG Version: 6.00 Build 0)  -->
<svg version="1.1" id="圖層_1" xmlns="http://www.w3.org/2000/svg" xmlns:xlink="http://www.w3.org/1999/xlink" x="0px" y="0px"
	 viewBox="0 0 1628 685" style="enable-background:new 0 0 1628 685;" xml:space="preserve">
<style type="text/css">
	.st0{fill:#FFFFFF;}
</style>
<g>
	<path d="M10.6,635.17l25.15-15.16l-22.28,22.12l1.96,4.76l24.13-18.17l-21.41,23.73l9.47,5.56L46.23,644l-14.71,16.31l5.95,3.49
		l9.96-9.07l-7.97,10.24l4.18,2.45l69.29-51.21l292.36,4.5l0.26,0.36l91.89-24.35l63.42-46.85l-19.02-146.74l3.21,10.92
		l30.03,150.77l195.12,67.44l30.85,5.54l0.97-5.49l-23.68-9.27l38.03,5.55l2.77-5.5l-35.84-10.59l38.31-1.31l-1.77-4.91l-39.48-7.32
		l36.01,0.13l-7.39-5.11l-36.55-6.57l22.85-2.71l1.87-4.67l-47.76-10.11L639.2,533l-4.72-27.71l186.06,1.11l15.23-28.16
		l-51.71-115.62l42.7-48.77l-57.7-3.62L736.7,276.7l23.29-63.3l-91.48,49.76l-40.22,24.22l-19.47,45.41l-185.94,72.19l-27.7,9.18
		c-6.86-20.55-9.57-41.31,0.26-62.55c2.1-4.55,10.31-17.24,14.06-20.56c2.72-2.41,6.1-3.95,9.41-5.45
		c18.76-8.49,37.43-15.4,56.79-22.32l35.59-36.57l14.53-41.11l3.53-40.53l-11.08-30.6l-35.97-37.48l-19.85-6.32l-34.47,3.61
		l-31.42,20.2l-4.6,53.72l35.62,35.29l20.24-11.26l-12.76-15.52l-20.41-24.2l3.66-31.11l34.73-7.69l23.42,14.74l18.86,25.79
		l-0.22,30.13l-8.94,34.64c0,0-25.45,39.56-25.53,39.69c-3.43,5.06-30.05,10.22-37.48,13.92c-10.11,5.02-25.18,12.09-32.15,21.44
		c-7.77,10.43-17.13,36.29-21.94,48.48l-4.47,40.22l9,18.55l-3.1,1.03L202.96,314.08L94.95,493.4l-52.69,9.49l-4.66,5.82L58.15,506
		l-26.68,10.34l-3.71,4.63l-2.01,2.27l32.4-7.71l-42.69,19.32l-3.4,3.84l3.38,3.66l42.71-10.17L21.4,548.81l4.83,5.24l31.92-7.6
		l-25.98,11.76l13.62,8.77l102.71-47.57l72.72-117.99l69.2,58.2l52.94,76.16l4.62,6.34l-104.32,11.08L93.3,555.5l-38.56,27.03
		L9.24,631.85L10.6,635.17z M275.14,426.6l17.84,11.69l4.79,7.06l-12.24-5.27L275.14,426.6z M255.13,406.02l13.76,12.83l-17.7-9.23
		l-8.9-13.28L255.13,406.02z M286.29,392.39l-17.84-6.87l-9.95-10.79l16.07,5.94L286.29,392.39z M309.63,420.93l-15.21-5.72
		l-11.56-8.96l14.5,4.96L309.63,420.93z M338.61,427.77l-15.21-5.72l-11.56-8.96l14.5,4.96L338.61,427.77z M782.99,330.23l6.59-3.7
		l18.75-2.2l-13.56,6.56L782.99,330.23z M773.91,319.13l8.74-2.19l15,1.77l-11.91,1.81L773.91,319.13z M578.71,437.38l-0.74,18.8
		l-4.56-19.44l4.25-15.41L578.71,437.38z M681.92,308.23l-12.17-7.82c2.56-1.33,8.14-4.99,9.28-5.75c0.37-0.25,0.93-1.04,1.52-2.07
		l0.6,0.98L681.92,308.23z M656,277.35l10.58,1.81c-2.34,1-4.78,2.14-5.06,2.42c-0.29,0.28-1.56,1.81-2.64,3.13L656,277.35z
		 M691.85,310.45l-14.07,11.88l9.68,11.46l-13.91-0.76l-4,5.96l-0.01,14.57l5.24,13.49l-6.8-9.38l-3.71-13.67l-8.94-1.97l-9.44-3.22
		l8.44,0.71l10.57,0.59l3.2-5.5l3.03-2.56l0.57-12.19l16.41-13.86l1.66-20.27L691.85,310.45z M652.13,414.94l10.66-4.23
		c-0.81,0.56-12.87,11.38-12.87,11.38l-11.63,5.71L652.13,414.94z M735.88,231.69l-10.5,18.57l-6.73,5.24l4.46-12.56L735.88,231.69z
		 M732.35,261.68l-6.1,8.15l3.72-12.93l7.1-11.62L732.35,261.68z M743.19,365.22l-20.18-13.73l-0.62-0.52l-12.05,19.81l9.43-22.01
		l-15.83-13.28l21.85,2.7l12.14-19.95l-8.87,21.03l10.26,13.28L743.19,365.22z M768.3,453.82l-82.15-2.2l64.67-51.46L768.3,453.82z
		 M722.02,491.38l14.43-0.55l16.85,1.13l-17.56,3.61L722.02,491.38z M716.68,468.94l14.43-0.55l16.85,1.13l-17.56,3.61
		L716.68,468.94z M683.66,482.1l14.56-4.97l14.8,1.51l-16.32,5.34L683.66,482.1z M678.11,428.44l-12.04,5.66l14.31-12.8l11.04-4.18
		C690.58,417.67,678.11,428.44,678.11,428.44z M631.74,489.26l43.34-28.24l-40.91,42.49L631.74,489.26z M620.66,395.59l6.68-7.06
		l16.16-2.07l-16.74,9.27L620.66,395.59z M610.37,484.96l5.71,14.22l0.64,15.64l-5.59-15.25L610.37,484.96z M609.38,452.09l-6.44-18
		l1.68-14.58l5.98,16.05L609.38,452.09z M596.64,458.55l5.71,14.22l0.64,15.64l-5.59-15.25L596.64,458.55z M594.61,366.34l7.54-5.26
		l10.77-7.51l-10.4,12.06L594.61,366.34z M572.75,482.65l3.43-16.67l2.79,21.15l-2.23,8.24L572.75,482.65z M544.92,372.26
		l13.23-6.69l14.2-4.25l-15.79,9.13L544.92,372.26z M409.69,431.16L392.32,441l-15.98,0.25l15.11-5.52L409.69,431.16z
		 M396.07,500.17l13.6-11.49l-9.71,14.77l-18.43,6.85L396.07,500.17z M432.37,455.18l-15.46,11.24l-14.47,2.49l13.73-10.26
		L432.37,455.18z M479.74,425.95l-11.08,7.4l-16.97,1.39l19.52-8.62L479.74,425.95z M457.05,496.63l11.79-3.34l-14.13,8.66
		l-8.14,1.04L457.05,496.63z M492.17,438.52l-14.28,13.96l-15.39,4.33l13.19-9.2L492.17,438.52z M523.53,377.17l-14.13,8.66
		l-8.14,1.04l10.48-6.35L523.53,377.17z M511.78,437.6l14.77-7.5l-12.07,14.82l-13.35,6.11L511.78,437.6z M530.26,400.76
		l-11.88,11.08l-13.16,6.38l10.88-10.79L530.26,400.76z M515.61,538.58l11.61-10.9l11.28-5.06l-11.42,11.17L515.61,538.58z
		 M514.63,463.17l-12.07,14.82l-13.35,6.11l10.64-13.43L514.63,463.17z M495.35,526.13l-13.16,6.38l10.88-10.79l14.15-6.67
		L495.35,526.13z M464.88,590.82l13.19-9.2l16.47-9.09l-14.28,13.96L464.88,590.82z M454.07,568.76l19.52-8.62l8.53-0.18l-11.08,7.4
		L454.07,568.76z M431.69,545.8l14.71-6.5l17.91-5.76l-16.69,10.96L431.69,545.8z M422.52,532.87l-14.16,3.66l12.8-8.43l15.19-3.75
		L422.52,532.87z M389.58,579.81l19.52-8.62l8.53-0.18l-11.08,7.4L389.58,579.81z M370.39,610.95l15.11-5.52l18.25-4.57l-17.37,9.84
		L370.39,610.95z M320.57,595.28l19.52-8.62l8.53-0.18l-11.08,7.4L320.57,595.28z M250.22,591.74l17.44-2.29l20.65,0.08l-20.75,7.39
		L250.22,591.74z"/>
</g>
<g>
	<path class="st0" d="M851.42,505.49l176.85-1.02l-1.49,19.52l-79.69,46.03l-44.64,9.45l1.75,4.36l21.36,2.53l-34.17,6.14
		l-6.91,4.78l33.66-0.12l-36.91,6.84l-1.65,4.59l35.81,1.23l-33.51,9.9l2.59,5.14l35.55-5.19l-22.13,8.67l0.9,5.13l28.84-5.18
		l159.08-74.56l27.43-132.38l3.65-12.4l-17.78,137.17l59.28,43.79l85.89,22.76l0.24-0.33l273.29-4.21l64.77,47.87l3.91-2.29
		l-7.45-9.57l9.31,8.48l5.56-3.26l-13.75-15.24l17.39,13.1l8.85-5.19l-20.01-22.18l22.56,16.99l1.83-4.46l-20.83-20.68l23.51,14.17
		l1.27-3.11l-42.53-46.1l-36.05-25.27l-140.55-2.16l-88.8-24.96l30.67-60.58l70.63-41.5L1477,524.01l104.49,38.11l12.73-8.19
		l-24.28-10.99l29.84,7.1l4.52-4.9l-34.35-15.55l39.93,9.51l3.16-3.42l-3.18-3.59l-39.91-18.06l30.28,7.21l-1.88-2.12l-3.47-4.32
		l-24.94-9.67l19.21,2.53l-4.36-5.44l-49.26-8.87l-100.96-167.62l-127.99,42.14c27.49-27.03,58.34-57.82,60.33-61.86
		c3.63-7.38,22.58-78.7,23.18-102.24s-56.33-74.2-60.04-79.08c-3.71-4.88-123.33-57.02-123.33-57.02l-32.96-53.75l-17.3,52.13
		l-0.78,25.58l17.96,36.08l-18.25-2.01l44.11,38.07c0,0,39.56,37.68,47.34,47.93c7.78,10.25-6.57,28.84-15.25,53.9
		c-4.19,12.09-9.63,27.55-14.15,40.32l4.19,11.91l62.28,52.61l-74.71-46.7l-48.95-16.8l-128.58-14.66l-46.07-26.88l-25.09-48.64
		l-24.87,74.01L905.4,322.1l-53.94,3.39l39.92,45.59l-48.34,108.08L851.42,505.49z M1247.06,265.35l-3.75,14.71l-7.14,11.66
		l3.12-13.98L1247.06,265.35z M1188.18,111.56l3.28,15.57l-10.28-17.09l-1.17-7.89L1188.18,111.56z M1203.74,107l-8.31-6.91
		l-5.04-9.56l11.31,9.28L1203.74,107z M1223.17,150.26l11.31,9.28l2.04,7.2l-8.31-6.91L1223.17,150.26z M1240.19,152.38l-5.77-7.12
		l-3.16-9.24l7.21,8.9L1240.19,152.38z M1317.32,242.3l3.7-13.84l8.28-12.06l-4.36,14.55L1317.32,242.3z M1311.85,161l12.05,14.25
		l3,14.64l-7.69-12.92L1311.85,161z M1414.58,347.13l-11.67,7.22l-17.79,1.71l13.49-7.61L1414.58,347.13z M1394.16,384.25l15.6-8.11
		l13.99-5.5l-11.34,9.73L1394.16,384.25z M1361.5,400.88l6.08-5.16l19-6.06l-12.74,9.54L1361.5,400.88z M1356.95,375.91l13.48-5.68
		l14.3-0.83l-12.65,5.17L1356.95,375.91z M1329.14,374.8l13.48-5.68l14.3-0.83l-12.65,5.17L1329.14,374.8z M924.61,338.62l0.76-0.02
		l4.95-0.12l5.74,1.01l5.94,4.39l5.24-0.34l-3.69,3.46c0.47,2.28,1.06,5.57,0.85,6.77c-0.34,1.92-5.84,10.81-5.84,10.81
		s-1.81,1.27-4.03,2.64l-0.01,0l-5.5,0.92l-5.62-0.47l-2.5-1.63l-5.76,4.24l1.45-7.28l-3.44-4.9l0.58-9.23l2.89-4.68l5.31-3.73
		c0.29-0.5,0.48-0.84,0.48-0.84l0.74-0.02L924.61,338.62z M948.94,329.03l-12.68-4.49l-10.9-7.6l9.75,2.45L948.94,329.03z
		 M937.53,312.92l8.21,3.49l8.42,7.61l-8.45-3.7L937.53,312.92z M951.76,308.37l5.18,10.1l-6.59-6.46l-5.03-9.81L951.76,308.37z
		 M958.16,249.43l-0.87,12.7L953.13,274l-0.25-9.51L958.16,249.43z M970.05,255.2l-3.39,11.99l-2.3-7.64l2.04-19.84L970.05,255.2z
		 M994.3,305.01l-5.17,4.69l-4.25,2.98l-5.24,1.57l-5.44-2.15l-3.07,2l0.22-4.75l-1.72-1.81l-2.15-3.31l-1.39-4.66l1.75-6.63
		l3.26-4.4c0,0,0.77-0.54,1.65-1.16c0.19-0.34,0.31-0.55,0.31-0.55l0.49-0.01c0.78-0.55,1.51-1.06,1.79-1.26
		c0.71-0.5,3.33-1.28,3.33-1.28l5.03-0.36c0,0,5.53,0.35,6.03,1.06c0.16,0.22,0.53,0.6,0.97,1.02l4.76-0.84l-1.6,4.18
		c0.76,1.09,1.76,2.51,2.06,2.93c0.5,0.71,0.78,2.62,1.07,4.54C997.27,298.69,994.3,305.01,994.3,305.01z M1001.1,341.14l-11.03,8.3
		l-6.72,3.01l-0.68,11.37l-7.72,13.23l5.81-16.22l-2.39-11.47l-4.44-4.35l-13.36,6.8l9.97-18.13l-10.73-11.7l15.26,8.27L975.7,344
		l3.1,1.68l3.42,3.81l8.23-2.19L1001.1,341.14z M1053.66,374.35l-5.71,0.14l-15.65-8.67l15.11,1.93L1053.66,374.35z M1088.29,440.36
		l-4.26,18.17l-0.69-17.57l0.98-15L1088.29,440.36z M1160.97,344.97l-13.01-4.19l-12.44-8.72l13.97,4.33L1160.97,344.97z
		 M1145.93,387.81l9.8,5.94l-7.61-0.97l-13.21-8.09L1145.93,387.81z M1164.64,371.98l-9.69-0.91l-14.07-6.21l12.5,2.16
		L1164.64,371.98z M1177.57,455.08l-13.34-13.05l15.4,8.49l12.33,8.6L1177.57,455.08z M1197.06,496.36l9.8,5.94l-7.61-0.97
		l-13.21-8.09L1197.06,496.36z M1175.84,430.29l7.98,0.17l18.24,8.06l-15.86-1.3L1175.84,430.29z M1201.29,343.65l-7.61-0.97
		l-13.21-8.09l11.02,3.12L1201.29,343.65z M1215.2,383.68l-14.89-1.21l-15.6-10.24l16.74,5.38L1215.2,383.68z M1237.01,375.01
		l-13.23-3.42l-12.93-7.97l14.2,3.5L1237.01,375.01z M1235.27,460.85l12.83,9.59l-13.52-2.33l-14.45-10.51L1235.27,460.85z
		 M1254.56,415.47l-15.86-1.3l-10.36-6.92l7.98,0.17L1254.56,415.47z M1272.5,444.58l-14.94-0.23l-16.24-9.2l17.06,4.27
		L1272.5,444.58z M1272.51,293.2l8.3-15.5l-4.1,18.21l-9.87,11.22L1272.51,293.2z M1263.44,287.61l-4.8,5.99l2.92-11.08l5.75-9.91
		L1263.44,287.61z M1257.9,342.86l5.16-11.17l7.96-9.88l-6.46,13.96L1257.9,342.86z M1254.91,149.86l-4.7-10.44l-1.76-11.32
		l6.43,14.09L1254.91,149.86z M1264.38,209.01l-5.44-7.38l-2.73-9.38l6.8,9.23L1264.38,209.01z M1266.77,242.75l5.16-11.17
		l7.96-9.88l-6.46,13.96L1266.77,242.75z M1282.23,204.39l-7.57-7.89l-5.29-9.57l10.14,8.99L1282.23,204.39z M1282.71,333.97
		l6.79-9.23l-5.47,14.49l-5.41,5.43L1282.71,333.97z M1301.3,193.55l-7.98-7.29l-4.59-9.78l10.87,9.79L1301.3,193.55z
		 M1301.99,219.64l-5.47,14.49l-5.41,5.43l4.09-10.7L1301.99,219.64z M1304.95,345.19l-8.45,12.62l-10.62,8.6l7.61-12.14
		L1304.95,345.19z M1354.78,583.19l19.3-0.07l16.3,2.14l-16.21,4.84L1354.78,583.19z M1298.41,580.35l7.98,0.17l18.24,8.06
		l-15.86-1.3L1298.41,580.35z M1290.19,399.85l-14.45-10.51l15.15,3.25l12.83,9.59L1290.19,399.85z M1246.88,593.79l17.06,4.27
		l14.12,5.16l-14.94-0.23L1246.88,593.79z M1233.9,565.89l7.98,0.17l18.24,8.06l-15.86-1.3L1233.9,565.89z M1229.33,530.23
		l-12.93-7.97l14.2,3.5l11.96,7.88L1229.33,530.23z M1205.86,541.11l-15.6-10.24l16.74,5.38l13.75,6.07L1205.86,541.11z
		 M1199.84,563.78l-15.86-1.3l-10.36-6.92l7.98,0.17L1199.84,563.78z M1162,567.31l15.4,8.49l12.33,8.6l-14.38-4.05L1162,567.31z
		 M1150.15,513.57l13.23,6.24l10.17,10.09l-12.3-5.96L1150.15,513.57z M1143.22,465.07l13.81,7.01l9.95,12.55l-12.48-5.71
		L1143.22,465.07z M1128.62,406.74l13.23,6.24l10.17,10.09l-12.3-5.96L1128.62,406.74z M1105.75,345.79l-15.85-9.86l16.87,4.97
		l13.9,5.73L1105.75,345.79z M1089.26,369.86l13.28,3.98l12.37,6.26l-10.88-1.7L1089.26,369.86z M1083.09,487.47l2.6-19.77
		l3.21,15.59l-3.73,11.89L1083.09,487.47z M1060.64,488.66l0.6-14.62l5.33-13.29l-0.71,13.65L1060.64,488.66z M1054.66,454.71
		l-1.14-15.45l5.59-15.01l1.57,13.63L1054.66,454.71z M1047.8,513.35l0.6-14.62l5.33-13.29l-0.71,13.65L1047.8,513.35z
		 M1037.18,404.45l-10.87-5.34c0,0-11.28-10.11-12.03-10.64l9.96,3.95L1037.18,404.45z M993.25,463.07l36.37,23.7l-0.99,13.05
		L993.25,463.07z M987.51,394.46l10.32,3.91l13.38,11.97l-11.26-5.29C999.95,405.05,988.29,394.99,987.51,394.46z M957.78,479.52
		l13.84-1.41l13.61,4.65l-12.2,1.74L957.78,479.52z M920.12,491.99l15.76-1.06l13.49,0.51l-12.83,3.93L920.12,491.99z
		 M941.53,474.39l-16.41-3.38l15.76-1.06l13.49,0.51L941.53,474.39z M912.46,447.86l11.1-40.79l49.09,39.06L912.46,447.86z
		 M902.98,328.31l-11.06,1.3l-11.14-1.69l14.02-1.65L902.98,328.31z M894.49,338.69l-11.01,0.62l-12.68-6.13l17.53,2.06
		L894.49,338.69z"/>
	<path d="M984.73,288.24l3.39,0.59l4.12,3.05c0,0,1,4.25,0.8,5.38c-0.2,1.13-3.45,6.39-3.45,6.39s-4.65,3.26-6.44,3.53
		c-1.79,0.27-4.05-0.13-4.05-0.13s-2.68-1.07-3.15-1.74c-0.47-0.66-0.93-1.33-1.86-2.66c-0.93-1.33-1.24-3.11-1.71-3.77
		c-0.47-0.66,0.13-4.05,0.13-4.05s1.06-2.73,2.39-3.66c1.33-0.93,3.98-2.8,3.98-2.8l2.92-0.07L984.73,288.24z"/>
	<path d="M930.39,341.67c0,0,4.23,0.27,4.61,0.81c0.38,0.54,2.44,2.33,2.44,2.33s1.9,2.71,2.28,3.25c0.38,0.54,0.6,2.01,0.82,3.47
		s-2.05,6.29-2.05,6.29l-3.96,3.58l-3.25,2.28l-4.01,1.2l-4.42-1.75l-3.23-3.39l-1.64-2.53l-1.07-3.57l1.34-5.07l2.49-3.37
		c0,0,2.71-1.9,3.25-2.28s2.55-0.98,2.55-0.98L930.39,341.67z"/>
</g>
</svg>
