<?xml version="1.0" encoding="utf-8"?>
<!-- Generator: Adobe Illustrator 23.0.3, SVG Export Plug-In . SVG Version: 6.00 Build 0)  -->
<svg version="1.1" id="圖層_1" xmlns="http://www.w3.org/2000/svg" xmlns:xlink="http://www.w3.org/1999/xlink" x="0px" y="0px"
	 viewBox="0 0 1793.95 754.83" style="enable-background:new 0 0 1793.95 754.83;" xml:space="preserve">
<style type="text/css">
	.st0{fill:#FFFFFF;}
</style>
<g>
	<g>
		<g>
			<path d="M791.69,373.22c-1.21-1.1-3.64-3.29-3.64-3.29l-0.61-0.09l-2.3-0.34l-1.17-0.17l-1.16-0.17l-0.58-0.09l-3.46,0.17
				l-4.5,2.54c0,0-0.07,0.2-0.19,0.52c-0.05,0.14-0.11,0.3-0.17,0.48c-0.45,1.3-1.16,3.49-1.12,4.28c0.06,1.15,2.65,6.81,2.65,6.81
				s4.24,3.84,6,4.33c0.49,0.14,1.03,0.22,1.54,0.28c1.33,0.15,2.53,0.09,2.53,0.09s2.82-0.74,3.37-1.35
				c0.55-0.61,1.1-1.21,2.19-2.42c0.67-0.74,1.13-1.68,1.51-2.44c0.07-0.14,0.14-0.27,0.21-0.4c0.16-0.3,0.31-0.56,0.46-0.72
				c0.55-0.61,0.38-4.07,0.38-4.07S792.91,374.32,791.69,373.22z"/>
			<path d="M841.19,437.67l-2.07-3.68c0,0-2.47-2.24-2.97-2.69s-2.43-1.3-2.43-1.3l-3.82-0.76c0,0-4.26-0.26-4.71,0.23
				c-0.28,0.31-1.29,1.03-2,1.52c-0.42,0.29-0.74,0.5-0.74,0.5s-2.24,2.47-2.69,2.97c-0.29,0.32-0.57,1.05-0.83,1.92
				c-0.14,0.46-0.28,0.95-0.42,1.45c-0.4,1.44,1.27,6.55,1.27,6.55l3.51,4.08l2.97,2.69l3.86,1.7l3.25-0.84l1.39-0.36l3.66-2.99
				l1.86-2.21l0.1-0.12l1.51-3.43L841.19,437.67z"/>
		</g>
		<path class="st0" d="M866.32,467.01l-37.07,33.12l5.36,37.52l-59.97-9.22l26.93-16.45l27.01-16.49l2.48-1.51l34.19-30.46l4.8-4.28
			l40.79-36.34l-53.51-10.1l-26.34-35.09l-9.68-47.69l-0.6-2.97l-5.37-26.44l-23.62,34.52l-49.15-91.03l-26.18-9.46l-94.43,124.37
			l58.68,7.37l-7.68,0.25l-56.34-0.58l-12.23-0.13l-6.18,1.3l-44.86,9.4l-1.78,0.37l-14.41,3.02l-31.99,18.98l-32.33,15.02
			l68.82-44.84l5.67-11.39c-2.93-13.34-6.44-29.48-9.12-42.08c-5.56-26.13-17.6-46.51-8.54-55.79c9.06-9.28,53.31-42.03,53.31-42.03
			l48.85-32.57l-18.49-0.28l22.45-33.84l2.4-25.68l-10.8-54.28l-39.65,49.64c0,0-126.1,37.23-130.41,41.65s-67.54,47.98-69.87,71.59
			s7.73,97.29,10.45,105.11c1.49,4.29,28.49,38.91,52.61,69.36L327.8,350.51L205.98,505.54l-50.35,2.74l-5.03,4.89l19.52-0.14
			l-26.14,6.56l-4,3.89l-2.14,1.89l31.18-3.44l-42.17,13.1l-3.63,3.2l2.73,3.82l41.11-4.53l-36.28,11.27l3.9,5.46l30.72-3.39
			l-25.65,7.97l11.71,9.78l109.22-25.09l80.64-93.34l65.45,50.28l23.12,64.39l-91.9,13.9l-140.8-15.34L158,584.19l-48.26,40.8
			l0.89,3.26l25.27-11.24l-23.4,18.08l1.28,4.69l24.67-14.18l-22.77,19.69l8.2,6.29l19.02-10.93l-15.64,13.53l5.16,3.96l10.36-7.32
			l-8.64,8.64l3.63,2.78l70.72-39.79l272.73,38.24l0.2,0.36l88.71-12.06l90.44-50.86l1.18-0.72l32.46-19.82l53.54-32.7l4.19-2.04
			l-44.97,36.4l181.49,23.66l11.66-25.28L866.32,467.01z M529.02,326.87l1.38,14.37l-5.69-12.54l-1.92-15.18L529.02,326.87z
			 M610.14,158.69l-2.15,7.74l-12.41,15.81l5.22-15.16L610.14,158.69z M588.75,153.64l12.46-7.87l-6.23,8.93l-9.17,5.88
			L588.75,153.64z M554.78,210.35l-9.17,5.88l2.94-6.94l12.46-7.87L554.78,210.35z M546.36,194.17l8.32-8.01l-4.31,8.85l-6.66,6.4
			L546.36,194.17z M449.2,269.42l-2.55-15.09l6.78,13.09l1.97,14.3L449.2,269.42z M461.65,216.16l-9.3,11.96l4.82-14.26l13.82-12.75
			L461.65,216.16z M475.03,489.55l14.76-3.4l17.59-2.15L490,491.17L475.03,489.55z M471.19,434.57l6.34-0.55l1.15-0.1l-1.28,0.71
			l-4.28,2.36l-10.2,5.64l-13.81,0.64l14.02-7.99L471.19,434.57z M510.23,510.45l15.55-1.36l-15.76,8.7l-13.81,0.64L510.23,510.45z
			 M512.62,463.35l-16.02-0.67l7.59-2.28l11.66-3.5l7.99,0.83l-10.42,5.23L512.62,463.35z M563.48,429.72l8.35-1.58l-7.84,3.85
			l-9.04,4.44l-15.04-0.64l14.51-4.36L563.48,429.72z M532.84,422.64l-13.66,1.77l12.94-6.39l14.64-1.74L532.84,422.64z
			 M553.76,514.13l13.4-7.06l16.45-6.58l-14.97,11.38L553.76,514.13z M555.43,548.96l-14.21,6.45l-7.73,0.02l10.53-4.72
			L555.43,548.96z M591.92,430.39l11.87-3.57l12.77-0.6l-14.84,4.46L591.92,430.39z M608.66,448.55l11.41-1.75l-14.21,6.45
			l-7.73,0.02L608.66,448.55z M598.95,403.84l12.54-7.14l14.51-2.59l-13.52,7.17L598.95,403.84z M791.94,367.53
			c0.65,0.59,3.88,3.51,3.88,3.51l2.71,4.8l0.92,6.85l-1.97,4.49l-2.56,3.04l-1.95,1.59l-0.37,4.78l-2.82-2.38l-5.7,1.48l-5.05-2.22
			l-3.88-3.51l-4.59-5.33c0,0-2.18-6.68-1.66-8.56c0.21-0.75,0.42-1.49,0.63-2.16c0.32-1.02,0.65-1.86,1.01-2.25
			c0.35-0.39,1.53-1.69,2.42-2.68l-1.08-4.38l4.65,1.43c0.49-0.37,0.91-0.7,1.09-0.9c0.59-0.65,6.16-0.31,6.16-0.31l4.99,0.99
			c0,0,0.67,0.3,1.41,0.66C790.88,366.84,791.63,367.24,791.94,367.53z M755.41,477.55l10.81-2.63c-0.85,0.43-13.76,9.04-13.76,9.04
			l-11.91,3.89L755.41,477.55z M729.75,468.32l10.45-2.71c-0.82,0.43-13.36,9.14-13.36,9.14l-11.53,3.98L729.75,468.32z
			 M708.27,447.42l-5.69-0.85l7.07-5.82L725,440.7L708.27,447.42z M704.66,509.19l-11.12,10.06l-7.47-0.25l7.66-4.04L704.66,509.19z
			 M702.25,483.23l-10.79,12.68l-18.02,4.26l14.77-7.78L702.25,483.23z M686.04,478.22l-15.85,2.41l17.78-9.37l8-0.73L686.04,478.22
			z M798.47,435.63l-12.51-8.46l-4.98,3.8l-3.82,11.17l3.79,16.94l-6.07-14.19l0.73-11.46l-6.34-3.85l-10-9.67l9.89,7.48l7.96,3.22
			l3.89-3.38l3.31-1.29l2.35-13.66l16.28-6.37l-12.19,10.36L798.47,435.63z M877.1,432.73l-10.93-1.99l6.59-2.69l17.78,0.13
			L877.1,432.73z M867.39,418.28l13.81,3.4l-11.35,0.31l-10.89-2.68L867.39,418.28z M843.33,433.5l2.31,5.04l-0.57,9.3l-4.05,4.47
			l0.54,7.45l-5.23-4.95l-2.7,1.32l-5.68-0.23l-5.38-1.6h-0.01c-2.05-1.65-3.7-3.14-3.7-3.14s-4.39-9.58-4.49-11.54
			c-0.06-1.23,0.94-4.44,1.69-6.67l-3.25-3.92l5.2,1l6.49-3.65l5.87-0.29l4.94,0.74l0.76,0.11L843.33,433.5z M827.96,406.38
			l10.05-1.24l-11.85,6.24l-13.23,2.91L827.96,406.38z M817.25,405.98l-8.91,2.65l9.36-6.56l8.64-2.46L817.25,405.98z M819.9,387.93
			l-6.25,9.18l-7.39,5.64l6.43-9.45L819.9,387.93z M817.02,349.27l-1.43,9.48l-2.68-12.39l0.68-12.17l0.04-0.64l0.12,0.55
			L817.02,349.27z M806.59,322.82l-0.21,9.92l-0.12,5.43l-0.1,4.74l-3.25,7.35l-1.45-9.49l-0.45-2.92l1.3-3.49L806.59,322.82z
			 M727.49,299.38l12.88-8.26l-9.38,11.37l-12.38,7.42L727.49,299.38z M715.03,303.11l-9.38,11.36l-12.38,7.42l8.88-10.53
			L715.03,303.11z M667.76,327.57l-9.93,11.44l5.58-13.98l14.49-11.98L667.76,327.57z M689.07,290.21l10.24-7.27l-3.02,7.45
			l-14.14,14.28L689.07,290.21z M677.01,355.73l7.05-11.89l15.08-9.83l-8.5,13.09L677.01,355.73z M724.96,318.78L752,354.36
			l36.47-14.5l-4.28,6.25l-29.02,12.42l-16.16,6.91l-4.23,1.81l-44.57-0.46L724.96,318.78z M562.24,492.92l-16.02-0.67l19.24-5.78
			l7.99,0.83L562.24,492.92z M569.33,392.79l11.41-1.75l-14.21,6.45l-7.73,0.02L569.33,392.79z M497.81,352.82l-8.47-12.45
			l-1.83-18.71l6.37,16.54L497.81,352.82z M501.63,318.25l4.52,10.62l1.54,11.44l-4.05-6.58L501.63,318.25z M496.52,381.75
			l-4.72-14.76l6.73,10.87l3.77,11.81L496.52,381.75z M530.31,189.41l8.18-13.29l-3.17,11.1l-6,9.86L530.31,189.41z M514.79,247.67
			l7.95-8.38l-3.9,9.04l-6.36,6.7L514.79,247.67z M500.11,280.55l-4.72-14.76l6.73,10.87l3.77,11.81L500.11,280.55z M498.98,240.06
			l11.26-7.72l-6.48,8.91l-8.55,6.94L498.98,240.06z M481.35,388.89l-4.74-6.11l-3.66-15.17l5.64,10.07L481.35,388.89z
			 M480.11,227.9l12.09-8.43l-5.81,9.21l-8.89,6.29L480.11,227.9z M479.2,271.05l2.76,11.21l-4.74-6.11l-3.66-15.17L479.2,271.05z
			 M465.3,396.64l6.1,13.08l-9.55-9.92l-6.88-13.67L465.3,396.64z M360.9,377.74l12.54,9.29l-17.57-3.93l-10.77-8.67L360.9,377.74z
			 M343.13,407.94L333,396.8l13.31,7.24l14.59,10.05L343.13,407.94z M379.35,431.56l-11.55-11.12l18.24,8.42l5.44,5.92
			L379.35,431.56z M384.19,407.16l-12.01-6.75l14.2,2.61l12.77,7.36L384.19,407.16z M414.32,405.37l12.77,7.36l-14.96-3.22
			l-12.01-6.75L414.32,405.37z M355.25,622.38l-15.6-6.86l16.57-0.11l19.29,2.48L355.25,622.38z M421,627.7l-16.02-0.67l19.24-5.78
			l7.99,0.83L421,627.7z M464.69,649.1l-14.97-1.63l14.76-3.4l7.06-0.86l6.93-0.85l3.59-0.44l-3.42,1.41l-5.73,2.36L464.69,649.1z
			 M487.31,621.27l-12.76-0.54l-3.26-0.14l3.07-0.92l16.17-4.86l7.99,0.83L487.31,621.27z M493.87,582.33l12.94-6.39l14.64-1.74
			l-13.92,6.36L493.87,582.33z M514.6,593.71l14.51-4.36l17.41-3.29l-16.87,8.3L514.6,593.71z M552.09,612l7.99,0.83l-11.22,5.63
			l-16.02-0.67L552.09,612z M555.27,637.4l-14.89,2.26l13.4-7.06l16.45-6.58L555.27,637.4z M576.39,582.74l-13.04,4.43l11.43-8.82
			l14.01-4.59L576.39,582.74z M588.73,538.58l-13.19,4.16l11.51-11.31l14.68-5.29L588.73,538.58z M611.21,478.6l-13.04,4.43
			l11.43-8.82l14.01-4.59L611.21,478.6z M653.65,406.52l17.48-2.87l-17.07,7.88l-15.02-1.01L653.65,406.52z M653.78,439.98
			l13.77-2.32l-15.82,6.69l-11.09,0.34L653.78,439.98z M644.89,508.79l11.13-3.42l-11.97,9.11l-11.27,3.15L644.89,508.79z
			 M635.06,544.59l11.51-11.31l14.68-5.29l-13.01,12.44L635.06,544.59z M769.49,566.76l-11.98-3.26l14.19-2.95l13.66,3.13
			L769.49,566.76z M803.45,556.21l15.62,3.02l-16.83,1.33l-12.34-5.52L803.45,556.21z M804.62,582.16l-12.34-5.52l13.55,1.17
			l15.62,3.02L804.62,582.16z"/>
	</g>
	<g>
		<path d="M1708.93,715.02l-46.89-42.36l-38.48-22.06l-141.22,10.7l-98.8-1.47l3.79-6.34l43.14-75.96l59.92-60.51l78.3,104.45
			l100.41,35.83l12.02-9.39l-25.37-8.81l30.59,4.39l4.08-5.33l-35.89-12.46l40.93,5.88l2.86-3.72l-3.52-3.31l-41.7-14.47l31.05,4.46
			l-2.08-1.96l-3.87-4.02l-25.91-7.42l19.5,0.78l-4.87-5.06l-50.24-4.39l-116.64-158.92l-147.85,115.89l-0.82-0.19l9.62-8.72
			l10.26-36.71c0.09-12.34,3.44-29.13,0.33-40.97c-2.79-10.62-13.47-22.11-20.53-30.05c-5.19-5.85-26.63-19.73-27.84-25.36
			c-0.03-0.14-9.03-41.91-9.03-41.91l4.39-33.41l10.42-26.39l25.56-15.88l25.65-4.63l27.63,18.95l-7.76,28.47l-26.35,13.95
			l-16.61,9.06l13.72,16.96l43.55-18.28l14.9-48.55l-20.33-28.71l-28.84-15.29l-19.57-1.47l-44.62,20.07l-20.46,22.83l-11.19,36.64
			l-1.08,39.28l18.21,44.48c14.48,12.86,28.35,25.48,41.75,39.5c2.37,2.48,4.77,5.01,6.3,8.07c2.11,4.22,2.38,9.09,2.62,13.81
			c1.19,23.84-10.26,42.01-25.17,58.57l-25.34-5.91l-26.59-7.63l-63.2-18.13l-39.63-11.37l37.28,3.78l-55.65-179.2l-27.84-0.04
			l-88.77,88.29l46.99,16.21l39.03-36.99l29.67,102.41l-31.87-9.14l-21.57-39.87l-0.57-1.05l-20.44-9.9l-19.36-9.38l-10.22-4.41
			l-13.12-6.42l-66.71-28.02l27.26,57.38l-27.48,34.21l-53.81,8.34l27.12,25.81l8.25,7.86l34.48,32.82l7.54,7.17l24.79,16.28
			l43.85,28.8l-100.3,11.65l22.14-58.66l-33.58-35.39l-49.74,122.73l10.82,25.65l205.43-19.89l-45.94-39.76l4.12,2.18l55.24,36.28
			l28.99,19.04l1.16,0.76l88.72,53.81l88.27,14.97l0.21-0.36l273.84-29.24l69.38,42.1l3.71-2.66l-8.35-8.92l10.11,7.66l5.28-3.79
			l-15.19-14.04l18.65,11.55l8.41-6.02l-22.11-20.43l24.19,14.97l1.43-4.63l-22.79-18.84l24.89,12.07L1708.93,715.02z
			 M1169.91,409.93l0.13,13.52l-4.59-12.8l-3.77-15.46L1169.91,409.93z M1170.58,448.29l2.03,12.25l-8.61-11.66l-2.86-13.72
			L1170.58,448.29z M1143.04,406.37l8.24,14.74l0.13,13.52l-4.59-12.8L1143.04,406.37z M994.77,653.48l-16.78-1.89l15.71-2.51
			l13.58-0.72L994.77,653.48z M997.86,631.98l-16.78-1.89l15.71-2.51l13.58-0.72L997.86,631.98z M1030.39,639.25l-15.76-3.61
			l13.76-2.68l14.08,3.42L1030.39,639.25z M1312.43,587.39l13.75,8.44l-13.78-1.1l-15.47-9.22L1312.43,587.39z M1334.83,624.62
			l14.5,8.27l-17.87-4.85l-10.37-13.03L1334.83,624.62z M1477.05,465.38l14.56-6.95l-8.41,10.97l-16.15,7.97L1477.05,465.38z
			 M1458.97,524.25l11.22-10.18l-7.21,13.22l-15.81,10.17L1458.97,524.25z M1419.8,532.73l13.18-5.89l-10.07,9.39l-13.77,6.67
			L1419.8,532.73z M1441.96,545.26l-8.59,13.54l-11.03,6l3.89-7.03L1441.96,545.26z M1393.21,541.62l13.18-5.89l-10.07,9.39
			l-13.77,6.67L1393.21,541.62z M1275.82,550.15l-17.14-7.74l17.51,2.72l14.64,3.88L1275.82,550.15z M1216.05,525.74l-11.3-5.58
			l10.16,1.9l1.19,0.22l10.37,5.06l-7.72-0.28L1216.05,525.74z M1214.31,547.9l11.13,9.19l-12.89-4.86l-12.09-9.38L1214.31,547.9z
			 M1220.95,575.83l11.13,11.68l-13.04-4.59l-12.59-12.87L1220.95,575.83z M1258.02,561.6l19.04,6.41l-16.03,0.15l-11.03-6
			L1258.02,561.6z M1255.65,582.13l13.16,7.5l-14.8-2.74l-14.58-11.87L1255.65,582.13z M1277.34,626.52l10.37,5.06l-7.72-0.28
			l-13.99-6.91L1277.34,626.52z M1168.28,586.68l11,6.04l-8.02,0.53l-19.02-6.49L1168.28,586.68z M1077.02,563.53l10.36,3.06
			l14.08,10.87l-11.39-4.36C1090.06,573.1,1077.82,563.99,1077.02,563.53z M1104.07,604.42l13.78,1.15l15.43,9.28l-15.49-1.93
			L1104.07,604.42z M1110.74,579.87l15.02-1.08l17.11,7.81l-17.5-2.79L1110.74,579.87z M1141.6,604.28l13.35,3.4l13.05,7.99
			l-14.32-3.48L1141.6,604.28z M1137.78,549.39l-9.67-8l7.98,0.99l17.46,9.95L1137.78,549.39z M1129.64,511.8l7.52,4.29l-7.48,0.01
			l-10.79-10.42L1129.64,511.8z M1108.36,539.7l6.87,6.05l-5.71,0.66l-16.5-7.27L1108.36,539.7z M1049.89,458.27l0.37-0.76
			c0.5,0.72,0.96,1.26,1.25,1.41c0.88,0.48,5.21,2.78,7.17,3.59l-8.38,6.53L1049.89,458.27z M1067.09,448.49
			c-0.88-0.89-1.91-1.93-2.14-2.12c-0.23-0.18-2.09-0.86-3.87-1.43l3-0.8l4.62-1.23l-0.5,1.74L1067.09,448.49z M1006.07,411.34
			l5.26,11.4l-6.76-4.34l-11.43-16.52L1006.07,411.34z M993.19,414.72l7.65,10.29l4.6,11.81l-6.42-7.12L993.19,414.72z
			 M956.56,485.84l8.38,1.3l-10.97,2.32l-11.33-0.68L956.56,485.84z M933.11,494.97l17.78,0.46l6.49,2.9l-10.99,1.63L933.11,494.97z
			 M1028.99,530.15l-13-17.55l-0.54,0.54l-17.75,14.61l2.56-12.22l8.48-13.33l-10.12-18.97l13.09,17.68l20.26-4.4l-13.71,13.81
			L1028.99,530.15z M1041.01,448.62l3.29,18.87l16.58,11.6l1.58,11.38l3.06,2.14l3.47,4.88l9.87-1.46l7.86-1.39l-8.58,3.83
			l-8.22,2.61l-2.31,13.14l-5.57,9.38l3.76-13.1l-1.26-13.66l-4.27-5.25l-12.98,1.9l8.1-11.58l-14.21-9.94L1041.01,448.62z
			 M1050.71,571.98l10.71,2.98l14.52,10.78l-11.78-4.28C1064.16,581.47,1051.54,572.44,1050.71,571.98z M1175.53,629.75l-12.08-7.9
			l13.35,3.4l13.05,7.99L1175.53,629.75z M1173.19,516.67l-15.59-7.21l13.69,2.77l12.63,5.01l0.35,0.14l-0.17-0.01L1173.19,516.67z
			 M1214.84,667.35l-11.67-9.5l11.01,3.78l11.82,9.23L1214.84,667.35z M1234.96,605.83l11.13,11.68l-13.04-4.59l-12.59-12.87
			L1234.96,605.83z M1231.85,648.08l13.85,5.05l11.13,9.19l-12.89-4.86L1231.85,648.08z M1263.24,712.79l-14.58-11.87l16.23,7.11
			l13.16,7.5L1263.24,712.79z M1270.27,694.06l-11.03-6l8.02-0.56l19.04,6.41L1270.27,694.06z M1290.27,670.61l-16.59-8.85
			l17.29,3.87l14.36,4.83L1290.27,670.61z M1299.12,650.74l14.57,2.22l12.72,6.82l-13.59-2.22L1299.12,650.74z M1320.67,692.91
			l8.02-0.56l19.04,6.41l-16.03,0.15L1320.67,692.91z M1353.39,727.46l-8.12-3.67l-4.39-1.98l-4.63-2.09l5.02,0.78l5.46,0.85
			l7.03,1.09l14.64,3.88L1353.39,727.46z M1397.75,707.51l-11.03-6l8.02-0.56l19.04,6.41L1397.75,707.51z M1463.65,704.36
			l-20.1-5.16l19.36-1.84l16.56,0.66L1463.65,704.36z"/>
	</g>
</g>
</svg>
