<?xml version="1.0" encoding="utf-8"?>
<!-- Generator: Adobe Illustrator 23.0.3, SVG Export Plug-In . SVG Version: 6.00 Build 0)  -->
<svg version="1.1" id="圖層_1" xmlns="http://www.w3.org/2000/svg" xmlns:xlink="http://www.w3.org/1999/xlink" x="0px" y="0px"
	 viewBox="0 0 1628 685" style="enable-background:new 0 0 1628 685;" xml:space="preserve">
<style type="text/css">
	.st0{fill:#FFFFFF;}
	.st1{fill:#FFE540;}
</style>
<g>
	<g>
		<g>
			<path d="M696.35,303.39c-1.21-1.1-3.64-3.29-3.64-3.29l-0.61-0.09l-2.3-0.34l-1.17-0.17l-1.16-0.17l-0.58-0.09l-3.46,0.17
				l-4.5,2.54c0,0-0.07,0.2-0.19,0.52c-0.05,0.14-0.11,0.3-0.17,0.48c-0.45,1.3-1.16,3.49-1.12,4.28c0.06,1.15,2.65,6.81,2.65,6.81
				s4.24,3.84,6,4.33c0.49,0.14,1.03,0.22,1.54,0.28c1.33,0.15,2.53,0.09,2.53,0.09s2.82-0.74,3.37-1.35
				c0.55-0.61,1.1-1.21,2.19-2.42c0.67-0.74,1.13-1.68,1.51-2.44c0.07-0.14,0.14-0.27,0.21-0.4c0.16-0.3,0.31-0.56,0.46-0.72
				c0.55-0.61,0.38-4.07,0.38-4.07S697.57,304.49,696.35,303.39z"/>
			<path d="M745.85,367.84l-2.07-3.68c0,0-2.47-2.24-2.97-2.69s-2.43-1.3-2.43-1.3l-3.82-0.76c0,0-4.26-0.26-4.71,0.23
				c-0.28,0.31-1.29,1.03-2,1.52c-0.42,0.29-0.74,0.5-0.74,0.5s-2.24,2.47-2.69,2.97c-0.29,0.32-0.57,1.05-0.83,1.92
				c-0.14,0.46-0.28,0.95-0.42,1.45c-0.4,1.44,1.27,6.55,1.27,6.55l3.51,4.08l2.97,2.69l3.86,1.7l3.25-0.84l1.39-0.36l3.66-2.99
				l1.86-2.21l0.1-0.12l1.51-3.43L745.85,367.84z"/>
		</g>
		<path class="st0" d="M770.98,397.18l-37.07,33.12l5.36,37.52l-59.97-9.22l26.93-16.45l27.01-16.49l2.48-1.51l34.19-30.46l4.8-4.28
			l40.79-36.34l-53.51-10.1l-26.34-35.09l-9.68-47.69l-0.6-2.97L720,230.78l-23.62,34.52l-49.15-91.03l-26.18-9.46l-94.43,124.37
			l58.68,7.37l-7.68,0.25l-56.34-0.58l-12.23-0.13l-6.18,1.3l-44.86,9.4l-1.78,0.37l-14.41,3.02l-31.99,18.98l-32.33,15.02
			l68.82-44.84l5.67-11.39c-2.93-13.34-6.44-29.48-9.12-42.08c-5.56-26.13-17.6-46.51-8.54-55.79s53.31-42.03,53.31-42.03
			l48.85-32.57L518,115.2l22.45-33.84l2.4-25.68L532.05,1.4L492.4,51.04c0,0-126.1,37.23-130.41,41.65s-67.54,47.98-69.87,71.59
			s7.73,97.29,10.45,105.11c1.49,4.29,28.49,38.91,52.61,69.36l-122.72-58.07L110.64,435.71l-50.35,2.74l-5.03,4.89l19.52-0.14
			l-26.14,6.56l-4,3.89l-2.14,1.89l31.18-3.44l-42.17,13.1l-3.63,3.2l2.73,3.82l41.11-4.53l-36.28,11.27l3.9,5.46l30.72-3.39
			L44.41,489l11.71,9.78l109.22-25.09l80.64-93.34l65.45,50.28l23.12,64.39l-91.9,13.9l-140.8-15.34l-39.19,20.78l-48.26,40.8
			l0.89,3.26l25.27-11.24l-23.4,18.08l1.28,4.69l24.67-14.18l-22.77,19.69l8.2,6.29l19.02-10.93l-15.64,13.53l5.16,3.96l10.36-7.32
			l-8.64,8.64l3.63,2.78l70.72-39.79l272.73,38.24l0.2,0.36l88.71-12.06l90.44-50.86l1.18-0.72l32.46-19.82l53.54-32.7l4.19-2.04
			l-44.97,36.4l181.49,23.66l11.66-25.28L770.98,397.18z M433.68,257.04l1.38,14.37l-5.69-12.54l-1.92-15.18L433.68,257.04z
			 M514.8,88.86l-2.15,7.74l-12.41,15.81l5.22-15.16L514.8,88.86z M493.41,83.81l12.46-7.87l-6.23,8.93l-9.17,5.88L493.41,83.81z
			 M459.44,140.52l-9.17,5.88l2.94-6.94l12.46-7.87L459.44,140.52z M451.02,124.34l8.32-8.01l-4.31,8.85l-6.66,6.4L451.02,124.34z
			 M353.86,199.59l-2.55-15.09l6.78,13.09l1.97,14.3L353.86,199.59z M366.31,146.33l-9.3,11.96l4.82-14.26l13.82-12.75
			L366.31,146.33z M379.69,419.72l14.76-3.4l17.59-2.15l-17.38,7.17L379.69,419.72z M375.85,364.74l6.34-0.55l1.15-0.1l-1.28,0.71
			l-4.28,2.36l-10.2,5.64l-13.81,0.64l14.02-7.99L375.85,364.74z M414.89,440.62l15.55-1.36l-15.76,8.7l-13.81,0.64L414.89,440.62z
			 M417.28,393.52l-16.02-0.67l7.59-2.28l11.66-3.5l7.99,0.83l-10.42,5.23L417.28,393.52z M468.14,359.89l8.35-1.58l-7.84,3.85
			l-9.04,4.44l-15.04-0.64l14.51-4.36L468.14,359.89z M437.5,352.81l-13.66,1.77l12.94-6.39l14.64-1.74L437.5,352.81z M458.42,444.3
			l13.4-7.06l16.45-6.58l-14.97,11.38L458.42,444.3z M460.09,479.13l-14.21,6.45l-7.73,0.02l10.53-4.72L460.09,479.13z
			 M496.58,360.56l11.87-3.57l12.77-0.6l-14.84,4.46L496.58,360.56z M513.32,378.72l11.41-1.75l-14.21,6.45l-7.73,0.02
			L513.32,378.72z M503.61,334.01l12.54-7.14l14.51-2.59l-13.52,7.17L503.61,334.01z M696.6,297.7c0.65,0.59,3.88,3.51,3.88,3.51
			l2.71,4.8l0.92,6.85l-1.97,4.49l-2.56,3.04l-1.95,1.59l-0.37,4.78l-2.82-2.38l-5.7,1.48l-5.05-2.22l-3.88-3.51l-4.59-5.33
			c0,0-2.18-6.68-1.66-8.56c0.21-0.75,0.42-1.49,0.63-2.16c0.32-1.02,0.65-1.86,1.01-2.25c0.35-0.39,1.53-1.69,2.42-2.68l-1.08-4.38
			l4.65,1.43c0.49-0.37,0.91-0.7,1.09-0.9c0.59-0.65,6.16-0.31,6.16-0.31l4.99,0.99c0,0,0.67,0.3,1.41,0.66
			C695.54,297.01,696.29,297.41,696.6,297.7z M660.07,407.72l10.81-2.63c-0.85,0.43-13.76,9.04-13.76,9.04l-11.91,3.89
			L660.07,407.72z M634.41,398.49l10.45-2.71c-0.82,0.43-13.36,9.14-13.36,9.14l-11.53,3.98L634.41,398.49z M612.93,377.59
			l-5.69-0.85l7.07-5.82l15.35-0.05L612.93,377.59z M609.32,439.36l-11.12,10.06l-7.47-0.25l7.66-4.04L609.32,439.36z M606.91,413.4
			l-10.79,12.68l-18.02,4.26l14.77-7.78L606.91,413.4z M590.7,408.39l-15.85,2.41l17.78-9.37l8-0.73L590.7,408.39z M703.13,365.8
			l-12.51-8.46l-4.98,3.8l-3.82,11.17l3.79,16.94l-6.07-14.19l0.73-11.46l-6.34-3.85l-10-9.67l9.89,7.48l7.96,3.22l3.89-3.38
			l3.31-1.29l2.35-13.66l16.28-6.37l-12.19,10.36L703.13,365.8z M781.76,362.9l-10.93-1.99l6.59-2.69l17.78,0.13L781.76,362.9z
			 M772.05,348.45l13.81,3.4l-11.35,0.31l-10.89-2.68L772.05,348.45z M747.99,363.67l2.31,5.04l-0.57,9.3l-4.05,4.47l0.54,7.45
			l-5.23-4.95l-2.7,1.32l-5.68-0.23l-5.38-1.6h-0.01c-2.05-1.65-3.7-3.14-3.7-3.14s-4.39-9.58-4.49-11.54
			c-0.06-1.23,0.94-4.44,1.69-6.67l-3.25-3.92l5.2,1l6.49-3.65l5.87-0.29l4.94,0.74l0.76,0.11L747.99,363.67z M732.62,336.55
			l10.05-1.24l-11.85,6.24l-13.23,2.91L732.62,336.55z M721.91,336.15L713,338.8l9.36-6.56l8.64-2.46L721.91,336.15z M724.56,318.1
			l-6.25,9.18l-7.39,5.64l6.43-9.45L724.56,318.1z M721.68,279.44l-1.43,9.48l-2.68-12.39l0.68-12.17l0.04-0.64l0.12,0.55
			L721.68,279.44z M711.25,252.99l-0.21,9.92l-0.12,5.43l-0.1,4.74l-3.25,7.35l-1.45-9.49l-0.45-2.92l1.3-3.49L711.25,252.99z
			 M632.15,229.55l12.88-8.26l-9.38,11.37l-12.38,7.42L632.15,229.55z M619.69,233.28l-9.38,11.36l-12.38,7.42l8.88-10.53
			L619.69,233.28z M572.42,257.74l-9.93,11.44l5.58-13.98l14.49-11.98L572.42,257.74z M593.73,220.38l10.24-7.27l-3.02,7.45
			l-14.14,14.28L593.73,220.38z M581.67,285.9l7.05-11.89l15.08-9.83l-8.5,13.09L581.67,285.9z M629.62,248.95l27.04,35.58
			l36.47-14.5l-4.28,6.25l-29.02,12.42l-16.16,6.91l-4.23,1.81l-44.57-0.46L629.62,248.95z M466.9,423.09l-16.02-0.67l19.24-5.78
			l7.99,0.83L466.9,423.09z M473.99,322.96l11.41-1.75l-14.21,6.45l-7.73,0.02L473.99,322.96z M402.47,282.99L394,270.54
			l-1.83-18.71l6.37,16.54L402.47,282.99z M406.29,248.42l4.52,10.62l1.54,11.44l-4.05-6.58L406.29,248.42z M401.18,311.92
			l-4.72-14.76l6.73,10.87l3.77,11.81L401.18,311.92z M434.97,119.58l8.18-13.29l-3.17,11.1l-6,9.86L434.97,119.58z M419.45,177.84
			l7.95-8.38l-3.9,9.04l-6.36,6.7L419.45,177.84z M404.77,210.72l-4.72-14.76l6.73,10.87l3.77,11.81L404.77,210.72z M403.64,170.23
			l11.26-7.72l-6.48,8.91l-8.55,6.94L403.64,170.23z M386.01,319.06l-4.74-6.11l-3.66-15.17l5.64,10.07L386.01,319.06z
			 M384.77,158.07l12.09-8.43l-5.81,9.21l-8.89,6.29L384.77,158.07z M383.86,201.22l2.76,11.21l-4.74-6.11l-3.66-15.17
			L383.86,201.22z M369.96,326.81l6.1,13.08l-9.55-9.92l-6.88-13.67L369.96,326.81z M265.56,307.91l12.54,9.29l-17.57-3.93
			l-10.77-8.67L265.56,307.91z M247.79,338.11l-10.13-11.14l13.31,7.24l14.59,10.05L247.79,338.11z M284.01,361.73l-11.55-11.12
			l18.24,8.42l5.44,5.92L284.01,361.73z M288.85,337.33l-12.01-6.75l14.2,2.61l12.77,7.36L288.85,337.33z M318.98,335.54l12.77,7.36
			l-14.96-3.22l-12.01-6.75L318.98,335.54z M259.91,552.55l-15.6-6.86l16.57-0.11l19.29,2.48L259.91,552.55z M325.66,557.87
			l-16.02-0.67l19.24-5.78l7.99,0.83L325.66,557.87z M369.35,579.27l-14.97-1.63l14.76-3.4l7.06-0.86l6.93-0.85l3.59-0.44
			l-3.42,1.41l-5.73,2.36L369.35,579.27z M391.97,551.44l-12.76-0.54l-3.26-0.14l3.07-0.92l16.17-4.86l7.99,0.83L391.97,551.44z
			 M398.53,512.5l12.94-6.39l14.64-1.74l-13.92,6.36L398.53,512.5z M419.26,523.88l14.51-4.36l17.41-3.29l-16.87,8.3L419.26,523.88z
			 M456.75,542.17l7.99,0.83l-11.22,5.63l-16.02-0.67L456.75,542.17z M459.93,567.57l-14.89,2.26l13.4-7.06l16.45-6.58
			L459.93,567.57z M481.05,512.91l-13.04,4.43l11.43-8.82l14.01-4.59L481.05,512.91z M493.39,468.75l-13.19,4.16l11.51-11.31
			l14.68-5.29L493.39,468.75z M515.87,408.77l-13.04,4.43l11.43-8.82l14.01-4.59L515.87,408.77z M558.31,336.69l17.48-2.87
			l-17.07,7.88l-15.02-1.01L558.31,336.69z M558.44,370.15l13.77-2.32l-15.82,6.69l-11.09,0.34L558.44,370.15z M549.55,438.96
			l11.13-3.42l-11.97,9.11l-11.27,3.15L549.55,438.96z M539.72,474.76l11.51-11.31l14.68-5.29L552.9,470.6L539.72,474.76z
			 M674.15,496.93l-11.98-3.26l14.19-2.95l13.66,3.13L674.15,496.93z M708.11,486.38l15.62,3.02l-16.83,1.33l-12.34-5.52
			L708.11,486.38z M709.28,512.33l-12.34-5.52l13.55,1.17l15.62,3.02L709.28,512.33z"/>
	</g>
	<g>
		<path d="M1613.59,645.19l-46.89-42.36l-38.48-22.06L1387,591.47l-98.8-1.47l3.79-6.34l43.14-75.96l59.92-60.51l78.3,104.45
			l100.41,35.83l12.02-9.39l-25.37-8.81l30.59,4.39l4.08-5.33l-35.89-12.46l40.93,5.88l2.86-3.72l-3.52-3.31l-41.7-14.47l31.05,4.46
			l-2.08-1.96l-3.87-4.02l-25.91-7.42l19.5,0.78l-4.87-5.06l-50.24-4.39L1404.7,363.72l-147.85,115.89l-0.82-0.19l9.62-8.72
			l10.26-36.71c0.09-12.34,3.44-29.13,0.33-40.97c-2.79-10.62-13.47-22.11-20.53-30.05c-5.19-5.85-26.63-19.73-27.84-25.36
			c-0.03-0.14-9.03-41.91-9.03-41.91l4.39-33.41l10.42-26.39l25.56-15.88l25.65-4.63l27.63,18.95l-7.76,28.47l-26.35,13.95
			l-16.61,9.06l13.72,16.96l43.55-18.28l14.9-48.55l-20.33-28.71l-28.84-15.29l-19.57-1.47l-44.62,20.07l-20.46,22.83l-11.19,36.64
			l-1.08,39.28l18.21,44.48c14.48,12.86,28.35,25.48,41.75,39.5c2.37,2.48,4.77,5.01,6.3,8.07c2.11,4.22,2.38,9.09,2.62,13.81
			c1.19,23.84-10.26,42.01-25.17,58.57l-25.34-5.91l-26.59-7.63l-63.2-18.13l-39.63-11.37l37.28,3.78l-55.65-179.2l-27.84-0.04
			l-88.77,88.29l46.99,16.21l39.03-36.99l29.67,102.41l-31.87-9.14l-21.57-39.87l-0.57-1.05l-20.44-9.9l-19.36-9.38l-10.22-4.41
			l-13.12-6.42l-66.71-28.02l27.26,57.38l-27.48,34.21l-53.81,8.34l27.12,25.81l8.25,7.86l34.48,32.82l7.54,7.17l24.79,16.28
			l43.85,28.8l-100.3,11.65l22.14-58.66l-33.58-35.39l-49.74,122.73l10.82,25.65l205.43-19.89l-45.94-39.76l4.12,2.18l55.24,36.28
			l28.99,19.04l1.16,0.76l88.72,53.81l88.27,14.97l0.21-0.36l273.84-29.24l69.38,42.1l3.71-2.66l-8.35-8.92l10.11,7.66l5.28-3.79
			l-15.19-14.04l18.65,11.55l8.41-6.02l-22.11-20.43l24.19,14.97l1.43-4.63l-22.79-18.84l24.89,12.07L1613.59,645.19z
			 M1074.57,340.1l0.13,13.52l-4.59-12.8l-3.77-15.46L1074.57,340.1z M1075.24,378.46l2.03,12.25l-8.61-11.66l-2.86-13.72
			L1075.24,378.46z M1047.7,336.54l8.24,14.74l0.13,13.52l-4.59-12.8L1047.7,336.54z M899.43,583.65l-16.78-1.89l15.71-2.51
			l13.58-0.72L899.43,583.65z M902.52,562.15l-16.78-1.89l15.71-2.51l13.58-0.72L902.52,562.15z M935.05,569.42l-15.76-3.61
			l13.76-2.68l14.08,3.42L935.05,569.42z M1217.09,517.56l13.75,8.44l-13.78-1.1l-15.47-9.22L1217.09,517.56z M1239.49,554.79
			l14.5,8.27l-17.87-4.85l-10.37-13.03L1239.49,554.79z M1381.71,395.55l14.56-6.95l-8.41,10.97l-16.15,7.97L1381.71,395.55z
			 M1363.63,454.42l11.22-10.18l-7.21,13.22l-15.81,10.17L1363.63,454.42z M1324.46,462.9l13.18-5.89l-10.07,9.39l-13.77,6.67
			L1324.46,462.9z M1346.62,475.43l-8.59,13.54l-11.03,6l3.89-7.03L1346.62,475.43z M1297.87,471.79l13.18-5.89l-10.07,9.39
			l-13.77,6.67L1297.87,471.79z M1180.48,480.32l-17.14-7.74l17.51,2.72l14.64,3.88L1180.48,480.32z M1120.71,455.91l-11.3-5.58
			l10.16,1.9l1.19,0.22l10.37,5.06l-7.72-0.28L1120.71,455.91z M1118.97,478.07l11.13,9.19l-12.89-4.86l-12.09-9.38L1118.97,478.07z
			 M1125.61,506l11.13,11.68l-13.04-4.59l-12.59-12.87L1125.61,506z M1162.68,491.77l19.04,6.41l-16.03,0.15l-11.03-6
			L1162.68,491.77z M1160.31,512.3l13.16,7.5l-14.8-2.74l-14.58-11.87L1160.31,512.3z M1182,556.69l10.37,5.06l-7.72-0.28
			l-13.99-6.91L1182,556.69z M1072.94,516.85l11,6.04l-8.02,0.53l-19.02-6.49L1072.94,516.85z M981.68,493.7l10.36,3.06l14.08,10.87
			l-11.39-4.36C994.72,503.27,982.48,494.16,981.68,493.7z M1008.73,534.59l13.78,1.15l15.43,9.28l-15.49-1.93L1008.73,534.59z
			 M1015.4,510.04l15.02-1.08l17.11,7.81l-17.5-2.79L1015.4,510.04z M1046.26,534.45l13.35,3.4l13.05,7.99l-14.32-3.48
			L1046.26,534.45z M1042.44,479.56l-9.67-8l7.98,0.99l17.46,9.95L1042.44,479.56z M1034.3,441.97l7.52,4.29l-7.48,0.01
			l-10.79-10.42L1034.3,441.97z M1013.02,469.87l6.87,6.05l-5.71,0.66l-16.5-7.27L1013.02,469.87z M954.55,388.44l0.37-0.76
			c0.5,0.72,0.96,1.26,1.25,1.41c0.88,0.48,5.21,2.78,7.17,3.59l-8.38,6.53L954.55,388.44z M971.75,378.66
			c-0.88-0.89-1.91-1.93-2.14-2.12c-0.23-0.18-2.09-0.86-3.87-1.43l3-0.8l4.62-1.23l-0.5,1.74L971.75,378.66z M910.73,341.51
			l5.26,11.4l-6.76-4.34l-11.43-16.52L910.73,341.51z M897.85,344.89l7.65,10.29l4.6,11.81l-6.42-7.12L897.85,344.89z
			 M861.22,416.01l8.38,1.3l-10.97,2.32l-11.33-0.68L861.22,416.01z M837.77,425.14l17.78,0.46l6.49,2.9l-10.99,1.63L837.77,425.14z
			 M933.65,460.32l-13-17.55l-0.54,0.54l-17.75,14.61l2.56-12.22l8.48-13.33l-10.12-18.97l13.09,17.68l20.26-4.4l-13.71,13.81
			L933.65,460.32z M945.67,378.79l3.29,18.87l16.58,11.6l1.58,11.38l3.06,2.14l3.47,4.88l9.87-1.46l7.86-1.39l-8.58,3.83l-8.22,2.61
			l-2.31,13.14l-5.57,9.38l3.76-13.1l-1.26-13.66l-4.27-5.25l-12.98,1.9l8.1-11.58l-14.21-9.94L945.67,378.79z M955.37,502.15
			l10.71,2.98l14.52,10.78l-11.78-4.28C968.82,511.64,956.2,502.61,955.37,502.15z M1080.19,559.92l-12.08-7.9l13.35,3.4l13.05,7.99
			L1080.19,559.92z M1077.85,446.84l-15.59-7.21l13.69,2.77l12.63,5.01l0.35,0.14l-0.17-0.01L1077.85,446.84z M1119.5,597.52
			l-11.67-9.5l11.01,3.78l11.82,9.23L1119.5,597.52z M1139.62,536l11.13,11.68l-13.04-4.59l-12.59-12.87L1139.62,536z
			 M1136.51,578.25l13.85,5.05l11.13,9.19l-12.89-4.86L1136.51,578.25z M1167.9,642.96l-14.58-11.87l16.23,7.11l13.16,7.5
			L1167.9,642.96z M1174.93,624.23l-11.03-6l8.02-0.56l19.04,6.41L1174.93,624.23z M1194.93,600.78l-16.59-8.85l17.29,3.87
			l14.36,4.83L1194.93,600.78z M1203.78,580.91l14.57,2.22l12.72,6.82l-13.59-2.22L1203.78,580.91z M1225.33,623.08l8.02-0.56
			l19.04,6.41l-16.03,0.15L1225.33,623.08z M1258.05,657.63l-8.12-3.67l-4.39-1.98l-4.63-2.09l5.02,0.78l5.46,0.85l7.03,1.09
			l14.64,3.88L1258.05,657.63z M1302.41,637.68l-11.03-6l8.02-0.56l19.04,6.41L1302.41,637.68z M1368.31,634.53l-20.1-5.16
			l19.36-1.84l16.56,0.66L1368.31,634.53z"/>
	</g>
</g>
<path class="st1" d="M229.16,194.35c-5.03-6.64-12.41-9.81-19.98-12.55c-1.49-0.54-3-1.06-4.81-1.7c2.28-1.75,4.51-3.08,6.24-4.89
	c2.77-2.91,5.12-6.22,7.81-9.2c2.62-2.89,4.06-6.17,4.32-10.04c0.52-7.85-3.54-13.72-10.01-16.18c-4.9-1.87-10.03-3.24-15.41-2.67
	c-3.84,0.4-7.77,0.29-11.25,2.54c-1.1,0.71-2.6,0.81-4.38,1.32c0.64-1.69,0.99-3,1.6-4.17c2.55-4.89,3.98-10.1,2.92-15.52
	c-0.67-3.41-2.16-6.73-3.69-9.89c-2.42-4.98-6.27-8.62-11.54-10.59c-3.29-1.23-6.46-1.57-10.02-0.28
	c-7.59,2.74-13.82,6.8-17.1,14.51c-0.82,1.94-1.8,3.81-2.85,6.01c-1.15-2.21-2.12-4.06-3.08-5.92c-2.62-5.07-4.75-10.3-8.72-14.72
	c-4.76-5.3-10.4-6.64-16.86-5.76c-4.43,0.6-7.85,3.03-10.93,6.53c-5.05,5.74-8.84,16.42-7.73,24.1c0.09,0.6-0.17,1.26-0.22,1.53
	c-3.45-1.71-6.77-3.55-10.25-5.02c-6.02-2.55-12.31-3.47-18.76-1.98c-1.59,0.37-3.24,1.05-4.54,2.01c-4.28,3.16-6.72,7.68-8.36,12.6
	c-1.51,4.53-0.69,9.1,0.45,13.62c1.64,6.53,4.57,12.32,9.32,16.61c-3.18,0.31-6.6,0.66-10.02,0.97c-5.96,0.55-10.82,3.51-15.22,7.22
	c-2.89,2.43-4.28,5.92-5.28,9.56c-1.03,3.77-0.5,7.49,0.83,10.92c2.29,5.88,7.29,9.24,12.75,11.83c4.14,1.96,8.44,3.61,12.87,5.48
	c-1.14,0.88-2.32,1.59-3.23,2.54c-3.12,3.27-6.55,6.36-9.09,10.05c-2.36,3.41-4.34,7.23-5.06,11.51c-0.74,4.42-0.13,8.42,2.7,12.08
	c2.04,2.64,4.79,4.25,7.49,5.97c4.24,2.7,9.01,3.72,13.81,2.68c5.14-1.11,10.1-3.08,15.27-4.72c-0.02,0.17-0.04,0.69-0.17,1.19
	c-0.39,1.46-1.05,2.89-1.2,4.37c-0.31,3.08-0.43,6.19-0.5,9.3c-0.09,3.87-0.29,7.77,1.16,11.5c1.94,4.97,5.11,8.99,9.98,11.12
	c2.39,1.04,5.3,0.95,7.99,1.19c3.52,0.31,6.57-1.17,9.62-2.71c5.92-2.97,10.98-6.94,14.88-12.3c0.91-1.25,1.67-2.62,2.43-3.81
	c0.64,1.53,1.23,2.99,1.86,4.43c1.53,3.52,2.72,7.26,4.72,10.5c2.59,4.2,6.71,6.47,11.35,8.48c5.74,2.49,10.84,1.96,16.04-0.45
	c7.89-3.65,10.85-10.97,12.58-18.69c0.84-3.74,0.17-7.82,0.19-11.73c-0.15-0.05,0.11-0.01,0.32,0.12c0.29,0.18,0.59,0.38,0.81,0.64
	c3.31,3.96,7.77,6.13,12.54,7.48c4.36,1.23,8.89,2,13.45,0.62c2.09-0.63,4.41-0.76,6.28-1.77c3.29-1.78,5.17-4.86,6.67-8.32
	c3.9-8.97,2.54-17.33-2.49-25.33c-1.85-2.94-3.98-5.7-5.88-8.39c4.94,0.24,9.82,0.1,14.78-1.86c5.74-2.26,9.78-5.7,12.57-11.21
	c2.25-4.43,3.75-8.86,2.77-13.75C231.43,198.91,230.62,196.28,229.16,194.35z M208.01,153.54c-5.61,5.55-11.84,9.43-19.7,9.76
	C192.34,155.26,199.41,153.02,208.01,153.54z M184.09,173.86c-1.76,3.6-3.42,6.99-5.19,10.63c4.08,1.65,8.28,3.35,12.4,5.01
	c-4.61,0.91-9.13,1.81-13.87,2.75c-0.94-5.05-3.85-8.26-7.93-11.07C174.47,178.69,179.17,176.33,184.09,173.86z M157.7,126.25
	c0.22-1.85,1.92-3.65,3.26-5.21c2.01-2.35,4.3-4.47,6.46-6.69c0.2,0.12,0.4,0.23,0.61,0.35c-0.53,3.06-0.95,6.14-1.63,9.17
	c-0.46,2.09-0.92,4.31-2.02,6.08c-1.26,2.04-3.22,3.64-4.89,5.43c-0.35,0.37-0.73,0.71-1.41,1.36
	C157.9,133.04,157.3,129.58,157.7,126.25z M165.48,146.38c0.14,0.07,0.27,0.14,0.41,0.21c-1.06,4.86-2.11,9.71-3.25,14.97
	c4.38-0.54,8.9-1.09,13.66-1.68c-5.31,4.13-10.26,7.98-15.03,11.69c-0.11-4.71-2.8-8.67-6.32-12.91
	C158.28,154.78,161.88,150.58,165.48,146.38z M162.09,189.11c4.4,0.47,6.66,4.85,6.51,8.45c-0.25,6.06-2.87,9.97-8.86,11.32
	C163.61,202.52,161.6,195.69,162.09,189.11z M135.38,187.39c0.45-5.54,3.11-9.35,7.96-11.75
	C145.78,181.16,141.3,185.15,135.38,187.39z M135.55,219.15c-3.57-3.26-4.75-7.17-3.13-11.8C136.28,208.1,137,213.13,135.55,219.15z
	 M147.55,195.61c-2.43,0.01-4.86-1.03-7.77-1.73c3.49-3.98,8.67-4.59,14.15-2.19C152.45,194.1,150.16,195.59,147.55,195.61z
	 M150.58,209.46c-6.27,0.7-10.66-1.78-13.1-7.15C144.16,199.82,147.21,204.76,150.58,209.46z M151.68,168.57
	c0.48,1.52,0.65,3.14,1.08,5.29c-7.08-4.26-13.67-8.22-21.52-9.42c4.98-2.91,9.83-3.62,15.2-1.04
	C148.97,164.62,150.86,165.96,151.68,168.57z M131.09,138.52c0.2-0.04,0.4-0.07,0.6-0.11c1.35,3.79,2.69,7.57,4.23,11.91
	c0.79-0.45,1.84-0.77,2.47-1.47c2-2.24,3.8-4.65,5.75-6.94c0.65-0.76,1.53-1.32,2.36-2.02c-0.52,4.95-1,9.58-1.52,14.53
	c-5.12-0.82-10.07-0.58-15.21,2.16C130.22,150.31,130.66,144.41,131.09,138.52z M127.42,171.88c2.94,4.49,4.12,9.17,1.46,14.23
	C125.23,181.75,124.48,174.41,127.42,171.88z M126.08,205.11c0.16,0.09,0.21,0.52,0.17,0.77c-0.74,4.24-2.85,7.49-6.85,9.33
	c-1.07-5.25,0.74-8.59,5.62-10.28C125.33,204.82,125.78,204.94,126.08,205.11z M108.66,200.28c4.57-2.15,8.71-6.72,13.99-1.73
	C118.49,201.91,115.55,203.68,108.66,200.28z M122.82,190.78c-2.51,0.88-9.04-1.03-10.77-3.3c-0.99-1.29-1.59-2.87-2.49-4.54
	c3.37-0.83,6.07,0.39,8.82,1.21c2.79,0.83,3.81,3.28,4.98,5.55C123.48,189.92,123.11,190.68,122.82,190.78z M103.02,185.61
	c-2.17-5.13-3.31-9.68,1-14.04c3.93-3.97,8.28-5.06,13.78-2.8C111.62,173.23,106.54,178.59,103.02,185.61z M112.52,110.82
	c1.71,2.52,2.97,4.59,4.44,6.51c1.72,2.23,2.51,4.67,2.05,7.42c-0.51,3.04-1.18,6.05-1.76,9
	C110.89,127.05,110.88,119.27,112.52,110.82z M102.22,152.67c2.58,0.81,4.38,3.64,7.46,3.13c-0.58-5.69-1.14-11.13-1.7-16.58
	c0.19-0.02,0.38-0.05,0.56-0.07c4.3,7.1,8.6,14.21,12.87,21.28c-2.83-0.06-5.89-0.23-8.94-0.16c-2.44,0.06-4.88,0.42-7.32,0.6
	c-0.43,0.03-1.05-0.02-1.29-0.29c-2.34-2.73-4.62-5.51-6.92-8.27c-0.86-1.04-1.72-2.08-2.42-3.44
	C97.08,150.17,99.52,151.83,102.22,152.67z M92.44,170.1c0.32,0.19,0.27,1.59-0.05,2.19c-2.27,4.25-2.28,8.61-0.83,13.63
	c-6.31-1.63-12.48-3.23-18.56-4.8c5.55-1.45,11.14-2.9,16.75-4.37c-3.86-4.77-7.4-9.16-10.94-13.54c0.2-0.17,0.39-0.34,0.59-0.51
	C83.77,165.15,88.15,167.55,92.44,170.1z M81.79,151.55c-6.22-0.38-13.52-6.94-14.92-13.44C75.1,138.94,78.76,144.97,81.79,151.55z
	 M54.9,189.69c-3.52-0.63-6.71-3.12-10.05-4.79c8.1-3.93,14.78-0.85,21.3,3.84C62.39,189.13,58.48,190.33,54.9,189.69z
	 M53.83,237.11c2.53-2.87,4.77-6.1,7.67-8.53c3.13-2.62,7.33-2.44,11.31-2.89C71.83,230.66,62.33,236.55,53.83,237.11z
	 M75.17,214.27c-0.05-0.12-0.1-0.23-0.15-0.35c2.18-1.81,4.42-3.55,6.5-5.46c1.13-1.05,1.98-2.4,2.96-3.61
	c-1.3-0.56-2.56-1.31-3.92-1.65c-4.45-1.12-8.93-2.1-13.4-3.13c0-0.23,0-0.45,0-0.68c7.54-0.45,15.08-0.9,22.47-1.34
	c-0.85,2.38-1.86,4.44-2.27,6.61c-0.27,1.42,0.43,3,0.49,4.51c0.02,0.64-0.37,1.75-0.81,1.88
	C83.11,212.22,79.14,213.22,75.17,214.27z M97.05,271.51c-1-3.74,1.02-14.21,6.32-16.08C104.46,262.01,104.07,268.08,97.05,271.51z
	 M94.9,244.04c-0.16-0.07-0.33-0.13-0.49-0.2c0.27-1.18,0.56-2.35,0.8-3.54c0.52-2.57,1.03-5.15,1.53-7.73
	c0.04-0.2-0.05-0.42-0.02-0.62c0.14-0.95,0.3-1.89,0.45-2.84c-1.37,0.22-2.79,0.26-4.08,0.69c-3.08,1.02-6.11,2.22-9.49,3.48
	c3.02-3.29,5.58-6.13,8.2-8.91c0.59-0.63,1.34-1.13,2.09-1.56c0.32-0.18,1.08-0.18,1.23,0.03c3.08,4.32,7.65,4.28,12.23,4.28
	c0.05,0,0.1,0.07,0.39,0.28C103.45,232.96,99.17,238.5,94.9,244.04z M99.34,213.9c-1.45-2.59-1.92-5.3-1.91-8.08
	c0.01-1.91,0.82-3.81,1.27-5.72c0.25,0.07,0.5,0.14,0.74,0.22c0.13,3.68,5.59,12.44,12.23,17.77
	C107.53,220.32,101.67,218.05,99.34,213.9z M130.93,243.48c-0.45,3.81-1.07,7.61-1.59,11.2c-0.85-2.59-1.82-5.27-2.59-8
	c-0.31-1.09-0.09-2.33-0.34-3.44c-0.21-0.94-0.75-2.56-1.13-2.55c-1.13,0.01-2.38,0.48-3.35,1.12c-2.25,1.49-4.36,3.19-6.56,4.77
	c-0.25,0.18-0.66,0.15-1.15,0.25c1.76-4.68,3.43-9.16,5.03-13.43c3.02,1.72,5.81,3.5,8.77,4.94
	C131.22,239.89,131.37,239.76,130.93,243.48z M127.57,228.08c6.33-0.36,12.57,0.07,18.52-2.79
	C143.77,232.85,135.77,235.79,127.57,228.08z M147.52,280.08c-2.59-2.71-4.92-5.49-5.89-9.26c-0.98-3.82,0.59-7.28,1.18-11.11
	C147.96,265.28,150.1,274.73,147.52,280.08z M154.89,236.98c-0.88-0.36-2.09-0.01-3.11,0.2c-0.14,0.03-0.1,1.17-0.05,1.79
	c0.36,4.52,0.74,9.05,0.71,13.82c-3.13-4.48-6.26-8.96-9.45-13.54c6.42-1.4,9.09-6.61,11.99-11.18c2.94,4.24,5.97,8.62,9.22,13.29
	C160.85,239.76,157.93,238.24,154.89,236.98z M175.13,219.29c0.09,0.23,0.25,0.44,0.28,0.67c0.33,2.64,0.64,5.28,1,8.33
	c-5-3.68-9.84-7.24-14.67-10.8c0.1-0.19,0.21-0.38,0.31-0.57c4.08-0.44,7.74-1.77,10.5-4.99c0.09-0.1,0.2-0.2,0.27-0.31
	c2.17-3.36,2.15-3.32,5.84-1.61c3.02,1.4,6.07,2.71,9.12,4.04c0.56,0.24,1.17,0.34,1.76,0.5c-0.14,0.25-0.29,0.51-0.43,0.76
	c-4.11,0.4-8.23,0.77-12.34,1.22c-0.82,0.09-1.6,0.5-2.4,0.76C174.63,217.96,174.88,218.62,175.13,219.29z M178.69,240.69
	c4.02,0.15,7.65,1.65,10.79,3.59c5,3.09,6.91,8.41,8.29,14.2C187.27,254.62,179.47,247.4,178.69,240.69z M194.69,201.39
	c8.67-2.44,16.57-1.04,23.57,5.33C209.64,208.1,201.44,208.17,194.69,201.39z"/>
<path class="st1" d="M43.9,101.94c6.08-2.82,8.37-8.47,9.71-14.42c0.65-2.89,0.13-6.03,0.15-9.05c-0.12-0.04,0.08-0.01,0.25,0.09
	c0.22,0.14,0.46,0.29,0.62,0.49c2.55,3.05,6,4.73,9.67,5.77c3.36,0.95,6.86,1.54,10.38,0.48c1.61-0.49,3.4-0.59,4.84-1.37
	c2.54-1.37,3.99-3.75,5.15-6.42c3.01-6.92,1.96-13.37-1.92-19.54c-1.43-2.27-3.07-4.4-4.54-6.47c3.81,0.19,7.58,0.07,11.4-1.43
	c4.43-1.75,7.55-4.4,9.7-8.65c1.73-3.42,2.89-6.83,2.14-10.6c-0.38-1.88-1-3.9-2.13-5.39c-3.88-5.12-9.58-7.57-15.42-9.68
	c-1.15-0.42-2.31-0.82-3.71-1.31c1.76-1.35,3.48-2.37,4.82-3.77c2.14-2.24,3.95-4.8,6.03-7.1c2.02-2.23,3.13-4.76,3.33-7.75
	c0.4-6.06-2.73-10.58-7.72-12.48c-3.78-1.44-7.74-2.5-11.89-2.06c-2.96,0.31-6,0.22-8.68,1.96c-0.85,0.55-2.01,0.62-3.38,1.02
	c0.49-1.3,0.76-2.31,1.23-3.22c1.96-3.78,3.07-7.79,2.25-11.98c-0.52-2.63-1.67-5.19-2.85-7.63c-1.87-3.85-4.84-6.65-8.9-8.17
	c-2.54-0.95-4.99-1.21-7.73-0.22c-5.85,2.12-10.66,5.24-13.19,11.19c-0.64,1.49-1.39,2.94-2.2,4.64c-0.88-1.7-1.63-3.13-2.37-4.57
	c-2.02-3.91-3.66-7.94-6.72-11.36c-3.67-4.09-8.02-5.12-13.01-4.44c-3.42,0.47-6.06,2.34-8.43,5.04c-3.89,4.43-6.82,12.67-5.96,18.6
	c0.07,0.47-0.13,0.97-0.17,1.18c-2.66-1.32-5.22-2.74-7.91-3.87c-4.64-1.96-9.49-2.67-14.47-1.53c-1.23,0.28-2.5,0.81-3.51,1.55
	c-3.3,2.44-5.19,5.93-6.45,9.72c-1.16,3.5-0.53,7.02,0.35,10.51c1.27,5.04,3.52,9.51,7.19,12.82c-2.45,0.24-5.09,0.51-7.73,0.75
	c-4.59,0.42-8.35,2.71-11.74,5.57c-2.23,1.88-3.31,4.57-4.07,7.38c-0.79,2.91-0.39,5.78,0.64,8.42c1.77,4.54,5.63,7.13,9.84,9.13
	c3.2,1.52,6.51,2.78,9.93,4.23c-0.88,0.68-1.79,1.22-2.49,1.96c-2.41,2.53-5.05,4.91-7.02,7.75c-1.82,2.63-3.35,5.58-3.9,8.88
	c-0.57,3.41-0.1,6.5,2.09,9.32c1.57,2.03,3.69,3.28,5.78,4.61c3.27,2.08,6.95,2.87,10.65,2.07c3.97-0.85,7.79-2.38,11.78-3.64
	c-0.02,0.13-0.03,0.54-0.13,0.92c-0.3,1.13-0.81,2.23-0.93,3.37c-0.24,2.38-0.33,4.78-0.39,7.17c-0.07,2.99-0.23,5.99,0.9,8.87
	c1.49,3.84,3.94,6.94,7.7,8.58c1.84,0.8,4.09,0.73,6.17,0.92c2.72,0.24,5.07-0.91,7.42-2.09c4.57-2.29,8.47-5.35,11.48-9.49
	c0.7-0.97,1.29-2.02,1.88-2.94c0.49,1.18,0.95,2.3,1.43,3.42c1.18,2.72,2.1,5.6,3.64,8.1c2,3.24,5.17,4.99,8.76,6.55
	C35.95,104.2,39.89,103.79,43.9,101.94z M36.33,91.56c-1.99-2.09-3.8-4.23-4.54-7.14c-0.76-2.95,0.45-5.62,0.91-8.57
	C36.67,80.15,38.32,87.44,36.33,91.56z M42.02,58.32c-0.68-0.28-1.61-0.01-2.4,0.15c-0.11,0.02-0.08,0.9-0.04,1.38
	c0.28,3.49,0.57,6.98,0.55,10.66c-2.41-3.46-4.83-6.91-7.29-10.44c4.95-1.08,7.01-5.1,9.25-8.62c2.27,3.27,4.61,6.65,7.11,10.25
	C46.62,60.46,44.36,59.28,42.02,58.32z M26.97,20.05c0.35-4.28,2.4-7.21,6.14-9.07C34.99,15.25,31.53,18.33,26.97,20.05z
	 M27.09,44.56c-2.75-2.51-3.67-5.53-2.42-9.1C27.66,36.03,28.22,39.91,27.09,44.56z M28.59,31.57c5.15-1.93,7.51,1.89,10.1,5.51
	C33.85,37.62,30.47,35.71,28.59,31.57z M47.57,21.38c3.4,0.36,5.14,3.74,5.02,6.52c-0.19,4.68-2.21,7.7-6.83,8.73
	C48.74,31.73,47.19,26.46,47.57,21.38z M57.63,44.66c0.07,0.18,0.2,0.34,0.22,0.52c0.25,2.04,0.49,4.08,0.77,6.43
	c-3.86-2.84-7.59-5.58-11.32-8.33c0.08-0.15,0.16-0.29,0.24-0.44c3.15-0.34,5.97-1.36,8.1-3.85c0.07-0.08,0.15-0.15,0.21-0.24
	c1.67-2.59,1.66-2.56,4.51-1.24c2.33,1.08,4.68,2.09,7.04,3.11c0.43,0.19,0.9,0.26,1.36,0.39c-0.11,0.19-0.22,0.39-0.33,0.58
	c-3.17,0.31-6.35,0.59-9.52,0.94c-0.63,0.07-1.24,0.38-1.85,0.59C57.25,43.64,57.44,44.15,57.63,44.66z M60.38,61.17
	c3.1,0.12,5.9,1.28,8.32,2.77c3.86,2.38,5.33,6.49,6.4,10.96C67,71.92,60.98,66.35,60.38,61.17z M90.91,34.97
	c-6.66,1.06-12.98,1.11-18.19-4.11C79.41,28.97,85.51,30.05,90.91,34.97z M83-6.06c-4.33,4.28-9.14,7.28-15.2,7.53
	C70.91-4.73,76.36-6.46,83-6.06z M64.55,9.62c-1.36,2.78-2.64,5.39-4.01,8.2c3.15,1.27,6.39,2.58,9.56,3.87
	c-3.56,0.71-7.05,1.4-10.7,2.12c-0.73-3.89-2.97-6.37-6.12-8.54C57.12,13.34,60.75,11.52,64.55,9.62z M44.19-27.12
	c0.17-1.43,1.48-2.82,2.52-4.02c1.55-1.81,3.31-3.45,4.99-5.16c0.16,0.09,0.31,0.18,0.47,0.27c-0.41,2.36-0.74,4.74-1.26,7.08
	c-0.36,1.61-0.71,3.33-1.56,4.69c-0.97,1.57-2.49,2.81-3.77,4.19c-0.27,0.29-0.56,0.54-1.09,1.05
	C44.34-21.88,43.88-24.54,44.19-27.12z M50.19-11.58c0.1,0.05,0.21,0.11,0.31,0.16c-0.81,3.75-1.63,7.49-2.51,11.55
	c3.38-0.41,6.87-0.84,10.54-1.29c-4.09,3.18-7.92,6.16-11.6,9.02c-0.08-3.63-2.16-6.69-4.87-9.96C44.63-5.11,47.41-8.34,50.19-11.58
	z M36.35,26.39c-1.87,0.01-3.75-0.8-5.99-1.33c2.69-3.07,6.69-3.54,10.92-1.69C40.13,25.23,38.37,26.38,36.35,26.39z M39.54,5.54
	c0.37,1.17,0.51,2.42,0.83,4.08c-5.46-3.29-10.55-6.34-16.6-7.27c3.84-2.25,7.58-2.79,11.72-0.8C37.45,2.48,38.91,3.52,39.54,5.54z
	 M23.65-17.65c0.15-0.03,0.31-0.06,0.46-0.09c1.04,2.92,2.08,5.84,3.26,9.19c0.61-0.35,1.42-0.59,1.9-1.13
	c1.54-1.73,2.93-3.59,4.44-5.35c0.5-0.59,1.18-1.02,1.82-1.56c-0.4,3.82-0.77,7.39-1.17,11.21c-3.95-0.63-7.77-0.44-11.73,1.67
	C22.99-8.55,23.32-13.1,23.65-17.65z M20.82,8.09c2.27,3.47,3.17,7.08,1.13,10.97C19.14,15.71,18.55,10.04,20.82,8.09z M19.79,33.73
	c0.12,0.07,0.17,0.4,0.13,0.59c-0.57,3.27-2.2,5.78-5.28,7.2c-0.82-4.05,0.57-6.62,4.34-7.93C19.21,33.5,19.56,33.6,19.79,33.73z
	 M6.35,30c3.53-1.66,6.72-5.18,10.79-1.33C13.94,31.26,11.67,32.63,6.35,30z M17.28,22.67c-1.93,0.68-6.97-0.8-8.31-2.54
	c-0.76-0.99-1.23-2.21-1.92-3.51c2.6-0.64,4.68,0.3,6.8,0.93c2.15,0.64,2.94,2.53,3.84,4.28C17.78,22.01,17.5,22.59,17.28,22.67z
	 M2,18.68c-1.67-3.96-2.55-7.47,0.77-10.83C5.8,4.78,9.16,3.94,13.4,5.69C8.63,9.13,4.71,13.27,2,18.68z M9.33-39.01
	c1.32,1.94,2.29,3.54,3.43,5.02c1.33,1.72,1.94,3.6,1.58,5.72c-0.39,2.35-0.91,4.67-1.36,6.94C8.07-26.49,8.06-32.49,9.33-39.01z
	 M1.38-6.73c1.99,0.62,3.38,2.8,5.76,2.41C6.69-8.7,6.26-12.91,5.83-17.11c0.14-0.02,0.29-0.04,0.43-0.06
	c3.32,5.48,6.63,10.96,9.93,16.42c-2.18-0.05-4.54-0.18-6.9-0.12C7.41-0.82,5.53-0.54,3.65-0.4C3.32-0.38,2.84-0.42,2.66-0.63
	c-1.81-2.1-3.57-4.25-5.34-6.38c-0.67-0.8-1.33-1.6-1.87-2.65C-2.58-8.66-0.7-7.38,1.38-6.73z M-6.16,6.72
	c0.25,0.15,0.21,1.23-0.04,1.69c-1.75,3.28-1.76,6.64-0.64,10.52c-4.87-1.26-9.62-2.49-14.32-3.7c4.28-1.12,8.6-2.24,12.92-3.37
	c-2.97-3.68-5.71-7.07-8.44-10.45c0.15-0.13,0.3-0.26,0.45-0.39C-12.85,2.9-9.47,4.75-6.16,6.72z M-14.38-7.6
	c-4.8-0.29-10.43-5.35-11.51-10.37C-19.54-17.32-16.72-12.67-14.38-7.6z M-35.12,21.83c-2.72-0.48-5.18-2.41-7.75-3.7
	c6.25-3.03,11.4-0.66,16.43,2.96C-29.35,21.39-32.36,22.32-35.12,21.83z M-35.95,58.41c1.95-2.22,3.68-4.7,5.92-6.58
	c2.41-2.02,5.66-1.88,8.73-2.23C-22.06,53.43-29.39,57.98-35.95,58.41z M-19.48,40.79c-0.04-0.09-0.08-0.18-0.12-0.27
	c1.68-1.4,3.41-2.74,5.02-4.21c0.87-0.81,1.53-1.85,2.28-2.79c-1.01-0.43-1.98-1.01-3.03-1.27c-3.43-0.87-6.89-1.62-10.34-2.42
	c0-0.18,0-0.35,0-0.53c5.82-0.35,11.63-0.69,17.33-1.04c-0.66,1.84-1.43,3.43-1.75,5.1c-0.21,1.1,0.34,2.31,0.38,3.48
	c0.02,0.5-0.29,1.35-0.62,1.45C-13.36,39.21-16.43,39.98-19.48,40.79z M-2.6,84.95c-0.77-2.89,0.79-10.96,4.87-12.41
	C3.11,77.62,2.81,82.3-2.6,84.95z M-4.26,63.76c-0.13-0.05-0.25-0.1-0.38-0.15c0.21-0.91,0.43-1.81,0.62-2.73
	c0.4-1.99,0.79-3.97,1.18-5.96c0.03-0.15-0.04-0.32-0.02-0.48c0.11-0.73,0.23-1.46,0.35-2.19c-1.05,0.17-2.15,0.2-3.15,0.53
	c-2.38,0.79-4.71,1.72-7.32,2.68c2.33-2.54,4.3-4.73,6.32-6.87c0.45-0.48,1.03-0.87,1.61-1.2c0.25-0.14,0.83-0.14,0.95,0.02
	c2.38,3.33,5.91,3.31,9.43,3.3c0.04,0,0.08,0.05,0.3,0.22C2.33,55.21-0.97,59.48-4.26,63.76z M-0.84,40.51
	c-1.12-2-1.48-4.09-1.48-6.23c0-1.47,0.63-2.94,0.98-4.41c0.19,0.06,0.38,0.11,0.57,0.17c0.1,2.84,4.32,9.59,9.43,13.71
	C5.48,45.46,0.96,43.71-0.84,40.51z M23.53,63.33c-0.35,2.94-0.83,5.87-1.22,8.64c-0.66-2-1.4-4.06-2-6.17
	c-0.24-0.84-0.07-1.79-0.26-2.66c-0.16-0.72-0.58-1.97-0.88-1.97c-0.87,0.01-1.83,0.37-2.58,0.87c-1.74,1.15-3.37,2.46-5.06,3.68
	c-0.19,0.14-0.51,0.11-0.89,0.19c1.35-3.61,2.65-7.07,3.88-10.36c2.33,1.33,4.48,2.7,6.76,3.81C23.76,60.56,23.87,60.46,23.53,63.33
	z M20.94,51.44c4.88-0.28,9.7,0.05,14.29-2.15C33.44,55.13,27.27,57.39,20.94,51.44z"/>
<path class="st1" d="M746.41,64c-3.88-5.12-9.58-7.57-15.42-9.68c-1.15-0.42-2.31-0.82-3.71-1.31c1.76-1.35,3.48-2.37,4.82-3.77
	c2.14-2.24,3.95-4.8,6.03-7.1c2.02-2.23,3.13-4.76,3.33-7.75c0.4-6.06-2.73-10.58-7.72-12.48c-3.78-1.44-7.74-2.5-11.89-2.06
	c-2.96,0.31-6,0.22-8.68,1.96c-0.85,0.55-2.01,0.62-3.38,1.02c0.49-1.3,0.76-2.31,1.23-3.22c1.96-3.78,3.07-7.79,2.25-11.98
	C712.77,5,711.62,2.44,710.43,0c-1.87-3.85-4.84-6.65-8.9-8.17c-2.54-0.95-4.99-1.21-7.73-0.22c-5.85,2.12-10.66,5.24-13.19,11.19
	c-0.64,1.49-1.39,2.94-2.2,4.64c-0.88-1.7-1.63-3.13-2.37-4.57c-2.02-3.91-3.66-7.94-6.72-11.36c-3.67-4.09-8.02-5.12-13.01-4.44
	c-3.42,0.47-6.06,2.34-8.43,5.04c-3.89,4.43-6.82,12.67-5.96,18.6c0.07,0.47-0.13,0.97-0.17,1.18c-2.66-1.32-5.22-2.74-7.91-3.87
	c-4.64-1.96-9.49-2.67-14.47-1.53c-1.23,0.28-2.5,0.81-3.51,1.55c-3.3,2.44-5.19,5.93-6.45,9.72c-1.16,3.5-0.53,7.02,0.35,10.51
	c1.27,5.04,3.52,9.51,7.19,12.82c-2.45,0.24-5.09,0.51-7.73,0.75c-4.59,0.42-8.35,2.71-11.74,5.57c-2.23,1.88-3.31,4.57-4.07,7.38
	c-0.79,2.91-0.39,5.78,0.64,8.42c1.77,4.54,5.63,7.13,9.84,9.13c3.2,1.52,6.51,2.78,9.93,4.23c-0.88,0.68-1.79,1.22-2.49,1.96
	c-2.41,2.53-5.05,4.91-7.02,7.75c-1.82,2.63-3.35,5.58-3.9,8.88c-0.57,3.41-0.1,6.5,2.09,9.32c1.57,2.03,3.69,3.28,5.78,4.61
	c3.27,2.08,6.95,2.87,10.65,2.07c3.97-0.85,7.79-2.38,11.78-3.64c-0.02,0.13-0.03,0.54-0.13,0.92c-0.3,1.13-0.81,2.23-0.93,3.37
	c-0.24,2.38-0.33,4.78-0.39,7.17c-0.07,2.99-0.23,5.99,0.9,8.87c1.49,3.84,3.94,6.94,7.7,8.58c1.84,0.8,4.09,0.73,6.17,0.92
	c2.72,0.24,5.07-0.91,7.42-2.09c4.57-2.29,8.47-5.35,11.48-9.49c0.7-0.97,1.29-2.02,1.88-2.94c0.49,1.18,0.95,2.3,1.43,3.42
	c1.18,2.72,2.1,5.6,3.64,8.1c2,3.24,5.17,4.99,8.76,6.55c4.42,1.92,8.36,1.51,12.37-0.35c6.08-2.82,8.37-8.47,9.71-14.42
	c0.65-2.89,0.13-6.03,0.15-9.05c-0.12-0.04,0.08-0.01,0.25,0.09c0.22,0.14,0.46,0.29,0.62,0.49c2.55,3.05,6,4.73,9.67,5.77
	c3.36,0.95,6.86,1.54,10.38,0.48c1.61-0.49,3.4-0.59,4.84-1.37c2.54-1.37,3.99-3.75,5.14-6.42c3.01-6.92,1.96-13.37-1.92-19.54
	c-1.43-2.27-3.07-4.4-4.54-6.47c3.81,0.19,7.58,0.07,11.4-1.43c4.43-1.75,7.55-4.4,9.7-8.65c1.73-3.42,2.89-6.83,2.14-10.6
	C748.16,67.52,747.54,65.49,746.41,64z M730.1,32.51c-4.33,4.28-9.14,7.28-15.2,7.53C718.01,33.85,723.46,32.11,730.1,32.51z
	 M711.65,48.19c-1.36,2.78-2.64,5.39-4.01,8.2c3.15,1.27,6.39,2.58,9.56,3.87c-3.56,0.71-7.05,1.4-10.7,2.12
	c-0.73-3.89-2.97-6.37-6.12-8.54C704.22,51.92,707.85,50.1,711.65,48.19z M691.29,11.46c0.17-1.43,1.48-2.82,2.52-4.02
	c1.55-1.81,3.31-3.45,4.99-5.16c0.16,0.09,0.31,0.18,0.47,0.27c-0.41,2.36-0.74,4.74-1.26,7.08c-0.36,1.61-0.71,3.33-1.56,4.69
	c-0.97,1.57-2.49,2.81-3.77,4.19c-0.27,0.29-0.56,0.54-1.09,1.05C691.44,16.7,690.98,14.03,691.29,11.46z M697.29,26.99
	c0.1,0.05,0.21,0.11,0.31,0.16c-0.81,3.75-1.63,7.49-2.51,11.55c3.38-0.41,6.87-0.84,10.54-1.29c-4.09,3.18-7.92,6.16-11.6,9.02
	c-0.08-3.63-2.16-6.69-4.87-9.96C691.74,33.47,694.51,30.23,697.29,26.99z M694.67,59.96c3.4,0.36,5.14,3.74,5.02,6.52
	c-0.19,4.68-2.21,7.7-6.83,8.73C695.85,70.3,694.3,65.03,694.67,59.96z M674.07,58.63c0.35-4.28,2.4-7.21,6.14-9.07
	C682.09,53.82,678.63,56.91,674.07,58.63z M674.19,83.13c-2.75-2.51-3.67-5.53-2.42-9.1C674.76,74.61,675.32,78.49,674.19,83.13z
	 M683.45,64.97c-1.87,0.01-3.75-0.8-5.99-1.33c2.69-3.07,6.69-3.54,10.92-1.69C687.23,63.81,685.47,64.96,683.45,64.97z
	 M685.79,75.66c-4.84,0.54-8.22-1.37-10.1-5.51C680.84,68.22,683.2,72.03,685.79,75.66z M686.64,44.11
	c0.37,1.17,0.51,2.42,0.83,4.08c-5.46-3.29-10.55-6.34-16.6-7.27c3.84-2.25,7.58-2.79,11.72-0.8
	C684.55,41.06,686.01,42.1,686.64,44.11z M670.75,20.93c0.15-0.03,0.31-0.06,0.46-0.09c1.04,2.92,2.08,5.84,3.26,9.19
	c0.61-0.35,1.42-0.59,1.9-1.13c1.54-1.73,2.93-3.59,4.44-5.35c0.5-0.59,1.18-1.02,1.82-1.56c-0.4,3.82-0.77,7.39-1.17,11.21
	c-3.95-0.63-7.77-0.44-11.73,1.67C670.09,30.02,670.42,25.47,670.75,20.93z M667.92,46.67c2.27,3.47,3.17,7.08,1.13,10.97
	C666.24,54.28,665.65,48.62,667.92,46.67z M666.89,72.3c0.12,0.07,0.17,0.4,0.13,0.59c-0.57,3.27-2.2,5.78-5.28,7.2
	c-0.82-4.05,0.57-6.62,4.34-7.93C666.31,72.08,666.66,72.17,666.89,72.3z M653.45,68.57c3.53-1.66,6.72-5.18,10.79-1.33
	C661.04,69.83,658.77,71.2,653.45,68.57z M664.38,61.25c-1.93,0.68-6.97-0.8-8.31-2.54c-0.76-0.99-1.23-2.21-1.92-3.51
	c2.6-0.64,4.68,0.3,6.8,0.93c2.15,0.64,2.94,2.53,3.84,4.28C664.89,60.58,664.6,61.17,664.38,61.25z M649.1,57.25
	c-1.67-3.96-2.55-7.47,0.77-10.83c3.03-3.06,6.39-3.9,10.63-2.16C655.73,47.71,651.81,51.84,649.1,57.25z M656.43-0.44
	c1.32,1.94,2.29,3.54,3.43,5.02c1.33,1.72,1.94,3.6,1.58,5.72c-0.39,2.35-0.91,4.67-1.36,6.94C655.17,12.08,655.16,6.08,656.43-0.44
	z M648.48,31.85c1.99,0.62,3.38,2.8,5.76,2.41c-0.45-4.39-0.88-8.59-1.31-12.79c0.14-0.02,0.29-0.04,0.43-0.06
	c3.32,5.48,6.63,10.96,9.93,16.42c-2.18-0.05-4.54-0.18-6.9-0.12c-1.88,0.04-3.76,0.32-5.65,0.46c-0.33,0.02-0.81-0.01-0.99-0.22
	c-1.81-2.1-3.57-4.25-5.34-6.38c-0.67-0.8-1.33-1.6-1.87-2.65C644.52,29.92,646.4,31.2,648.48,31.85z M640.94,45.3
	c0.25,0.15,0.21,1.23-0.04,1.69c-1.75,3.28-1.76,6.64-0.64,10.52c-4.87-1.26-9.62-2.49-14.32-3.7c4.28-1.12,8.6-2.24,12.92-3.37
	c-2.97-3.68-5.71-7.07-8.44-10.45c0.15-0.13,0.3-0.26,0.45-0.39C634.25,41.47,637.63,43.33,640.94,45.3z M632.72,30.98
	c-4.8-0.29-10.43-5.35-11.51-10.37C627.56,21.25,630.38,25.91,632.72,30.98z M611.98,60.4c-2.72-0.48-5.18-2.41-7.75-3.7
	c6.25-3.03,11.4-0.66,16.43,2.96C617.75,59.97,614.74,60.9,611.98,60.4z M611.15,96.99c1.95-2.22,3.68-4.7,5.92-6.58
	c2.41-2.02,5.66-1.88,8.73-2.23C625.04,92.01,617.71,96.55,611.15,96.99z M627.62,79.37c-0.04-0.09-0.08-0.18-0.12-0.27
	c1.68-1.4,3.41-2.74,5.02-4.21c0.87-0.81,1.53-1.85,2.28-2.79c-1.01-0.43-1.98-1.01-3.03-1.27c-3.43-0.87-6.89-1.62-10.34-2.42
	c0-0.18,0-0.35,0-0.53c5.82-0.35,11.63-0.69,17.33-1.04c-0.66,1.84-1.43,3.42-1.75,5.1c-0.21,1.1,0.34,2.31,0.38,3.48
	c0.02,0.5-0.29,1.35-0.62,1.45C633.74,77.78,630.68,78.56,627.62,79.37z M644.5,123.53c-0.77-2.89,0.79-10.96,4.87-12.41
	C650.21,116.2,649.91,120.88,644.5,123.53z M642.84,102.34c-0.13-0.05-0.25-0.1-0.38-0.15c0.21-0.91,0.43-1.81,0.62-2.73
	c0.4-1.99,0.79-3.97,1.18-5.96c0.03-0.15-0.04-0.32-0.02-0.48c0.11-0.73,0.23-1.46,0.35-2.19c-1.05,0.17-2.15,0.2-3.15,0.53
	c-2.38,0.79-4.71,1.72-7.32,2.68c2.33-2.54,4.3-4.73,6.32-6.87c0.45-0.48,1.03-0.87,1.61-1.2c0.25-0.14,0.83-0.14,0.95,0.02
	c2.38,3.33,5.91,3.31,9.43,3.3c0.04,0,0.08,0.05,0.3,0.22C649.43,93.78,646.13,98.06,642.84,102.34z M646.26,79.08
	c-1.12-2-1.48-4.09-1.48-6.23c0-1.47,0.63-2.94,0.98-4.41c0.19,0.06,0.38,0.11,0.57,0.17c0.1,2.84,4.32,9.59,9.43,13.71
	C652.58,84.04,648.06,82.29,646.26,79.08z M670.63,101.9c-0.35,2.94-0.83,5.87-1.22,8.64c-0.66-2-1.4-4.06-2-6.17
	c-0.24-0.84-0.07-1.79-0.26-2.66c-0.16-0.72-0.58-1.97-0.88-1.97c-0.87,0.01-1.83,0.37-2.58,0.87c-1.74,1.15-3.37,2.46-5.06,3.68
	c-0.19,0.14-0.51,0.11-0.89,0.19c1.35-3.61,2.65-7.07,3.88-10.36c2.33,1.33,4.48,2.7,6.76,3.81
	C670.86,99.13,670.97,99.03,670.63,101.9z M668.04,90.02c4.88-0.28,9.7,0.05,14.29-2.15C680.54,93.7,674.37,95.97,668.04,90.02z
	 M683.43,130.14c-1.99-2.09-3.8-4.23-4.54-7.14c-0.76-2.95,0.45-5.62,0.91-8.57C683.77,118.72,685.42,126.01,683.43,130.14z
	 M689.12,96.89c-0.68-0.28-1.61-0.01-2.4,0.15c-0.11,0.02-0.08,0.9-0.04,1.38c0.28,3.49,0.57,6.98,0.55,10.66
	c-2.41-3.46-4.83-6.91-7.29-10.44c4.95-1.08,7.01-5.1,9.25-8.62c2.27,3.27,4.61,6.65,7.11,10.25
	C693.72,99.03,691.46,97.86,689.12,96.89z M704.73,83.24c0.07,0.18,0.2,0.34,0.22,0.52c0.25,2.04,0.49,4.08,0.77,6.43
	c-3.86-2.84-7.59-5.58-11.32-8.33c0.08-0.15,0.16-0.29,0.24-0.44c3.15-0.34,5.97-1.36,8.1-3.85c0.07-0.08,0.15-0.15,0.21-0.24
	c1.67-2.59,1.66-2.56,4.51-1.24c2.33,1.08,4.68,2.09,7.04,3.11c0.43,0.19,0.9,0.26,1.36,0.39c-0.11,0.19-0.22,0.39-0.33,0.58
	c-3.17,0.31-6.35,0.59-9.52,0.94c-0.63,0.07-1.24,0.38-1.85,0.59C704.35,82.21,704.54,82.73,704.73,83.24z M707.48,99.75
	c3.1,0.12,5.9,1.28,8.32,2.77c3.86,2.38,5.33,6.49,6.4,10.96C714.1,110.5,708.08,104.93,707.48,99.75z M719.82,69.43
	c6.69-1.89,12.79-0.81,18.19,4.11C731.35,74.61,725.03,74.66,719.82,69.43z"/>
<path class="st1" d="M119.11,320.55c-6.07-11.06-16.76-16.97-28.93-14.97c-4.28,0.7-9.03,2.09-12.29,4.74
	c-10.77,8.77-17.3,20.27-18.89,34.25c-0.17,2.13-0.58,4.27-0.45,6.38c0.43,7.55,0.65,15.14,1.7,22.62
	c1.22,8.67,3.12,17.26,4.95,25.84c0.68,3.18,1.84,3.36,4.33,1.23c0.31-0.27,0.63-0.55,0.98-0.75c9.8-5.62,19.09-11.94,27.66-19.35
	c6.73-5.81,13.83-11.14,19.11-18.51c3.39-4.73,5-10.03,5.85-15.49c0.57-3.66-0.44-7.55-0.47-11.34
	C122.63,330.11,121.57,325.03,119.11,320.55z M89.69,329.43c0.26,0.3,0.51,0.6,0.77,0.89c-4.54,4.69-9.09,9.37-13.63,14.06
	C76.92,337.92,83,330.38,89.69,329.43z M70.07,361.99c-0.2-0.2-0.41-0.4-0.61-0.59c1.92-4.15,4.15-8,8.85-9.42
	c0.24,0.23,0.48,0.47,0.72,0.7C76.05,355.78,73.06,358.88,70.07,361.99z M78.48,373.41c4.34-15.1,9.54-29.49,18.15-42.62
	C98.41,336.49,84.48,369.78,78.48,373.41z M93.86,371.13c-0.38-0.08-0.76-0.16-1.13-0.24c0.79-5.3,1.58-10.6,2.44-16.37
	C97.29,360.65,98.22,366.18,93.86,371.13z M102.09,355.07c-3.72-5.02-4.06-15.19,0.6-21.69
	C107.78,339.14,107.58,349.53,102.09,355.07z"/>
<path class="st1" d="M306.32,84.4c-1.1-0.34-2.23-0.57-3.34-0.87c-3.53-0.92-7.04-1.87-10.58-2.77c-5.6-1.43-11.24-1.64-16.91-0.43
	c-0.52,0.11-1.07,0.1-1.29,0.12c0.46-3.25,1-6.37,1.32-9.52c0.27-2.62,0.56-5.29,0.37-7.9c-0.24-3.23-0.9-6.43-1.48-9.62
	c-1.4-7.71-4.59-14.63-9.34-20.84c-0.85-1.11-1.64-2.26-2.38-3.45c-0.49-0.79-0.99-0.9-1.87-0.59c-2.89,1.01-5.35,2.74-7.79,4.52
	c-3.42,2.49-6.95,4.85-10.15,7.58c-3.01,2.57-5.75,5.49-8.46,8.4c-1.86,2-3.71,4.1-5.12,6.42c-2.06,3.41-3.72,7.07-5.56,10.64
	c-0.4-0.44-1.02-1.17-1.68-1.86c-3.96-4.18-8.45-7.53-14.06-9.26c-2.22-0.69-4.29-1.86-6.47-2.71c-1.68-0.65-3.44-1.11-5.14-1.72
	c-0.61-0.22-1.13-0.79-1.73-0.89c-0.53-0.08-1.43,0.09-1.66,0.46c-0.6,0.98-1.11,2.09-1.3,3.21c-0.58,3.25-1.18,6.51-1.4,9.79
	c-0.24,3.56-0.2,7.16,0,10.73c0.18,3.19,0.69,6.33,1.54,9.46c1.04,3.8,2.71,7.24,4.57,10.66c1.25,2.3,2.15,4.79,3.31,7.14
	c1.35,2.73,3.1,5.18,5.51,7.1c4.24,3.37,8.4,6.85,12.74,10.07c3.84,2.84,7.93,5.26,12.63,6.56c1.94,0.54,3.68,1.91,5.62,2.27
	c4.79,0.87,9.49,2.35,14.49,1.85c3.2-0.32,6.49,0.17,9.67-0.24c3.55-0.46,7.2-1.07,10.48-2.43c3.57-1.48,6.97-3.59,10.04-5.95
	c3.64-2.81,7.03-6.02,10.19-9.36c2.3-2.43,4.21-5.28,6.02-8.11c2.47-3.87,4.68-7.9,7.02-11.86c0.98-1.66,2-3.29,2.96-4.96
	C307.58,85.2,307.11,84.64,306.32,84.4z M218.2,101.55c-2.89-2.54-6.17-4.78-8.58-7.72c-2.37-2.89-4.2-6.36-5.67-9.83
	c-2.31-5.45-2.79-9.22-2.06-10.87c4.45,10.1,9.62,19.68,16.92,28C218.62,101.27,218.41,101.41,218.2,101.55z M265.78,66.36
	c-1.04,6.51-4.14,11.36-10.04,14.14C255.85,78.71,261.2,71.12,265.78,66.36z M228.86,77.09c0.85,6.39,1.73,13.02,2.59,19.49
	C224.07,88.63,225.85,83.08,228.86,77.09z M238.54,57.87c-0.33,2.88-0.63,5.69-1,8.49c-0.36,2.83-0.79,5.66-1.23,8.76
	C232.63,66.99,234.45,60.35,238.54,57.87z M248.23,80.05c-0.54,1.99-1.18,3.95-1.77,5.93c-1.15,3.9-2.23,7.83-3.44,11.71
	c-0.97,3.12-1.98,6.23-3.17,9.27c-0.6,1.54-1.66,2.89-2.51,4.33c-0.17-0.07-0.33-0.14-0.5-0.21c0.41-3.34,0.57-6.73,1.29-9.99
	c1.03-4.66,2.33-9.28,3.8-13.83c1.83-5.68,3.94-11.27,5.95-16.88c1.16-3.23,2.36-6.44,3.56-9.65c0.68-1.83,1.42-3.63,2.12-5.45
	c0.1,0.02,0.19,0.04,0.29,0.05c0.02,0.31,0.11,0.64,0.05,0.94c-0.83,3.91-1.6,7.84-2.54,11.73
	C250.41,72.03,249.31,76.04,248.23,80.05z M252.5,102.13c-1.08,0.38-2.21,0.61-3.32,0.91c-0.03-0.1-0.06-0.2-0.08-0.31
	c5.01-5.22,10.01-10.45,15.02-15.67c0.12,0.04,0.24,0.08,0.35,0.11c-0.91,2.09-1.7,4.24-2.77,6.25c-0.56,1.06-1.68,1.82-2.39,2.82
	C257.5,98.76,255.53,101.06,252.5,102.13z M276.48,109.51c-1.49,1.3-3.19,2.5-5.01,3.25c-4.59,1.9-8.84,1.84-14.26,0.7
	c0.11-0.12,0.2-0.29,0.31-0.31c2.31-0.49,4.74-0.66,6.92-1.5c3.75-1.44,7.37-3.26,11-4.99c2.37-1.13,4.68-2.4,7.02-3.61
	c0.06,0.11,0.13,0.21,0.19,0.32C280.61,105.42,278.67,107.6,276.48,109.51z"/>
<path class="st1" d="M846.43-8.79c-2.88-1.05-5.88-1.27-8.89-1.44c-4.22-0.24-8.45-0.65-12.66-0.57c-3.96,0.08-7.93,0.6-11.86,1.14
	c-2.71,0.37-5.47,0.82-8.03,1.72c-3.76,1.33-7.36,3.11-11.05,4.71c-0.03-0.59-0.05-1.55-0.12-2.51c-0.41-5.75-1.76-11.18-5.01-16.07
	c-1.28-1.94-2.14-4.16-3.29-6.19c-0.89-1.57-1.95-3.04-2.88-4.59c-0.33-0.55-0.37-1.32-0.78-1.78c-0.36-0.4-1.16-0.83-1.57-0.69
	c-1.08,0.38-2.18,0.92-3.04,1.66c-2.5,2.15-5.04,4.28-7.29,6.68c-2.44,2.61-4.7,5.41-6.8,8.3c-1.88,2.58-3.48,5.33-4.8,8.3
	c-1.6,3.6-2.49,7.32-3.22,11.14c-0.49,2.57-1.38,5.07-1.96,7.62c-0.68,2.97-0.89,5.97-0.24,8.98c1.14,5.29,2.16,10.62,3.47,15.87
	c1.16,4.63,2.8,9.1,5.61,13.08c1.16,1.64,1.63,3.81,2.91,5.32c3.15,3.7,5.85,7.83,10.04,10.62c2.68,1.78,4.91,4.24,7.63,5.94
	c3.03,1.9,6.25,3.74,9.64,4.76c3.69,1.12,7.67,1.64,11.54,1.76c4.6,0.14,9.25-0.2,13.82-0.78c3.32-0.42,6.6-1.41,9.8-2.46
	c4.36-1.42,8.63-3.14,12.94-4.73c1.81-0.66,3.63-1.27,5.43-1.96c0.89-0.34,0.88-1.07,0.43-1.75c-0.64-0.96-1.36-1.86-2.04-2.79
	c-2.14-2.95-4.26-5.91-6.42-8.85c-3.43-4.65-7.65-8.39-12.81-11.05c-0.48-0.25-0.89-0.6-1.07-0.72c2.41-2.22,4.81-4.3,7.06-6.53
	c1.87-1.86,3.79-3.74,5.29-5.88c1.86-2.65,3.38-5.54,4.95-8.38c3.8-6.85,5.72-14.22,5.98-22.04c0.05-1.4,0.16-2.79,0.35-4.18
	C847.62-8.07,847.3-8.47,846.43-8.79z M767.91,20.76c-0.25-0.02-0.49-0.05-0.74-0.07c-0.63-3.8-1.74-7.6-1.74-11.41
	c0-3.74,0.78-7.58,1.85-11.2c1.67-5.68,3.68-8.9,5.3-9.71C769.61-0.99,767.53,9.69,767.91,20.76z M810.58-0.21
	c-2.08,2.01-4.1,4-6.15,5.94c-2.08,1.96-4.2,3.88-6.5,6C800.23,3.09,805.84-0.89,810.58-0.21z M790.91,8.52
	C787.52,14,784,19.68,780.56,25.24C779.89,14.41,784.78,11.24,790.91,8.52z M780.49,38.59c-1.44,0.81-3.12,1.19-4.68,1.76
	c-0.08-0.16-0.17-0.32-0.25-0.48c2.43-2.32,4.7-4.84,7.33-6.91c3.76-2.95,7.69-5.7,11.7-8.29c5.01-3.23,10.18-6.22,15.3-9.29
	c2.94-1.76,5.91-3.49,8.87-5.21c1.69-0.98,3.4-1.91,5.1-2.87c0.06,0.08,0.13,0.15,0.19,0.23c-0.18,0.25-0.32,0.57-0.55,0.76
	c-3.12,2.5-6.21,5.05-9.39,7.46c-3.31,2.51-6.7,4.91-10.08,7.32c-1.68,1.2-3.42,2.3-5.12,3.47c-3.36,2.29-6.69,4.64-10.08,6.88
	C786.09,35.23,783.33,37,780.49,38.59z M811.86,38.57c0.07,0.1,0.13,0.21,0.2,0.31c-2.03,1.04-4.01,2.2-6.1,3.08
	c-1.11,0.47-2.45,0.34-3.64,0.66c-2.99,0.8-5.97,1.33-8.99,0.24c-1.08-0.39-2.1-0.93-3.15-1.4c0.04-0.1,0.09-0.19,0.13-0.29
	C797.5,40.31,804.68,39.44,811.86,38.57z M815.88,62.93c-2.89,0.3-5.78,0.75-8.68,0.84c-1.97,0.06-4.05-0.09-5.93-0.66
	c-4.75-1.44-8-4.18-11.47-8.49c0.17-0.02,0.34-0.1,0.44-0.05c2.1,1.09,4.09,2.49,6.3,3.22c3.82,1.26,7.76,2.15,11.67,3.11
	c2.55,0.63,5.15,1.11,7.72,1.66C815.92,62.69,815.9,62.81,815.88,62.93z M809.53,28.19c1.23-1.31,10.18-3.79,16.73-4.58
	C821.33,27.99,815.86,29.78,809.53,28.19z"/>
<path class="st1" d="M1002.15,211.55c-5.03-6.64-12.41-9.81-19.98-12.55c-1.49-0.54-3-1.06-4.81-1.7c2.28-1.75,4.51-3.08,6.24-4.89
	c2.77-2.91,5.12-6.22,7.81-9.2c2.62-2.89,4.06-6.17,4.32-10.04c0.52-7.85-3.54-13.72-10.01-16.18c-4.9-1.87-10.03-3.24-15.41-2.67
	c-3.84,0.4-7.77,0.29-11.25,2.54c-1.1,0.71-2.6,0.81-4.38,1.32c0.64-1.69,0.99-3,1.6-4.17c2.55-4.89,3.98-10.1,2.92-15.52
	c-0.67-3.41-2.16-6.73-3.69-9.89c-2.42-4.98-6.27-8.62-11.54-10.59c-3.29-1.23-6.46-1.57-10.02-0.28
	c-7.59,2.74-13.82,6.8-17.1,14.51c-0.82,1.94-1.8,3.81-2.85,6.01c-1.15-2.21-2.12-4.06-3.07-5.92c-2.62-5.07-4.75-10.3-8.72-14.72
	c-4.76-5.3-10.4-6.64-16.86-5.76c-4.43,0.6-7.85,3.03-10.93,6.53c-5.05,5.74-8.84,16.42-7.73,24.1c0.09,0.6-0.17,1.26-0.22,1.53
	c-3.45-1.71-6.77-3.55-10.25-5.02c-6.02-2.55-12.31-3.47-18.76-1.98c-1.59,0.37-3.24,1.05-4.54,2.01c-4.28,3.16-6.72,7.68-8.36,12.6
	c-1.51,4.53-0.69,9.1,0.45,13.62c1.64,6.53,4.57,12.32,9.32,16.61c-3.18,0.31-6.6,0.66-10.02,0.97c-5.96,0.55-10.82,3.51-15.22,7.22
	c-2.89,2.43-4.28,5.92-5.28,9.56c-1.03,3.77-0.5,7.49,0.83,10.92c2.29,5.88,7.29,9.24,12.75,11.83c4.14,1.96,8.44,3.61,12.87,5.48
	c-1.14,0.88-2.32,1.59-3.23,2.54c-3.12,3.27-6.55,6.36-9.09,10.05c-2.36,3.41-4.34,7.23-5.06,11.51c-0.74,4.42-0.13,8.42,2.7,12.08
	c2.04,2.64,4.79,4.25,7.49,5.97c4.24,2.7,9.01,3.72,13.81,2.68c5.14-1.11,10.1-3.08,15.27-4.72c-0.02,0.17-0.04,0.69-0.17,1.19
	c-0.39,1.46-1.05,2.89-1.2,4.37c-0.31,3.08-0.43,6.19-0.5,9.3c-0.09,3.87-0.29,7.77,1.16,11.5c1.94,4.97,5.11,8.99,9.98,11.12
	c2.39,1.04,5.3,0.95,7.99,1.19c3.52,0.31,6.57-1.17,9.62-2.71c5.92-2.97,10.98-6.94,14.88-12.3c0.91-1.25,1.67-2.62,2.43-3.81
	c0.64,1.53,1.23,2.99,1.86,4.43c1.53,3.52,2.72,7.26,4.72,10.5c2.59,4.2,6.71,6.47,11.35,8.48c5.74,2.49,10.84,1.96,16.04-0.45
	c7.89-3.65,10.85-10.97,12.58-18.69c0.84-3.74,0.17-7.82,0.19-11.73c-0.15-0.05,0.11-0.01,0.32,0.12c0.29,0.18,0.59,0.38,0.81,0.64
	c3.31,3.96,7.77,6.13,12.54,7.48c4.36,1.23,8.89,2,13.45,0.62c2.09-0.63,4.41-0.76,6.28-1.77c3.29-1.78,5.17-4.86,6.67-8.32
	c3.9-8.97,2.54-17.33-2.49-25.33c-1.85-2.94-3.98-5.7-5.88-8.39c4.94,0.24,9.82,0.1,14.78-1.86c5.74-2.26,9.78-5.7,12.57-11.21
	c2.25-4.43,3.75-8.86,2.77-13.75C1004.41,216.11,1003.61,213.48,1002.15,211.55z M981,170.73c-5.61,5.55-11.84,9.43-19.7,9.76
	C965.33,172.46,972.39,170.21,981,170.73z M957.08,191.06c-1.76,3.6-3.42,6.99-5.19,10.63c4.08,1.65,8.28,3.35,12.4,5.01
	c-4.61,0.91-9.13,1.81-13.87,2.75c-0.94-5.05-3.85-8.26-7.93-11.07C947.46,195.88,952.16,193.52,957.08,191.06z M930.69,143.44
	c0.22-1.85,1.92-3.65,3.26-5.21c2.01-2.35,4.3-4.47,6.46-6.69c0.2,0.12,0.4,0.23,0.61,0.35c-0.53,3.06-0.95,6.14-1.63,9.17
	c-0.46,2.09-0.92,4.31-2.02,6.08c-1.26,2.04-3.22,3.64-4.89,5.43c-0.35,0.37-0.73,0.71-1.41,1.36
	C930.89,150.24,930.29,146.78,930.69,143.44z M938.47,163.58c0.14,0.07,0.27,0.14,0.41,0.21c-1.06,4.86-2.11,9.71-3.25,14.97
	c4.38-0.54,8.9-1.09,13.66-1.68c-5.31,4.13-10.26,7.98-15.03,11.69c-0.11-4.71-2.8-8.67-6.32-12.91
	C931.27,171.97,934.87,167.77,938.47,163.58z M935.08,206.31c4.4,0.47,6.66,4.85,6.51,8.45c-0.25,6.06-2.87,9.97-8.86,11.32
	C936.6,219.71,934.59,212.88,935.08,206.31z M908.37,204.58c0.45-5.54,3.11-9.35,7.96-11.75
	C918.77,198.35,914.29,202.35,908.37,204.58z M908.54,236.35c-3.57-3.26-4.75-7.17-3.13-11.8
	C909.27,225.3,909.99,230.33,908.54,236.35z M920.54,212.8c-2.43,0.01-4.86-1.03-7.77-1.73c3.49-3.98,8.67-4.59,14.15-2.19
	C925.44,211.3,923.15,212.79,920.54,212.8z M923.57,226.66c-6.27,0.7-10.66-1.78-13.1-7.15
	C917.15,217.01,920.2,221.96,923.57,226.66z M924.67,185.77c0.48,1.52,0.65,3.14,1.08,5.29c-7.08-4.26-13.67-8.22-21.52-9.42
	c4.98-2.91,9.83-3.62,15.2-1.04C921.96,181.81,923.85,183.16,924.67,185.77z M904.07,155.71c0.2-0.04,0.4-0.08,0.6-0.11
	c1.35,3.79,2.69,7.57,4.23,11.91c0.79-0.45,1.84-0.77,2.47-1.47c2-2.24,3.8-4.65,5.75-6.94c0.65-0.76,1.53-1.32,2.36-2.02
	c-0.52,4.95-1,9.58-1.52,14.53c-5.12-0.82-10.07-0.58-15.21,2.16C903.21,167.5,903.64,161.61,904.07,155.71z M900.4,189.08
	c2.94,4.49,4.12,9.17,1.46,14.23C898.22,198.95,897.46,191.6,900.4,189.08z M899.07,222.31c0.16,0.09,0.21,0.52,0.17,0.77
	c-0.74,4.24-2.85,7.49-6.85,9.33c-1.07-5.25,0.74-8.59,5.62-10.28C898.32,222.02,898.77,222.14,899.07,222.31z M881.65,217.47
	c4.57-2.15,8.71-6.72,13.99-1.73C891.48,219.11,888.54,220.88,881.65,217.47z M895.81,207.98c-2.51,0.88-9.04-1.03-10.77-3.3
	c-0.99-1.29-1.59-2.87-2.49-4.54c3.37-0.83,6.07,0.39,8.82,1.21c2.79,0.83,3.81,3.28,4.98,5.55
	C896.47,207.12,896.1,207.88,895.81,207.98z M876.01,202.8c-2.17-5.13-3.31-9.68,1-14.04c3.93-3.97,8.28-5.06,13.78-2.8
	C884.61,190.42,879.53,195.79,876.01,202.8z M885.51,128.02c1.71,2.52,2.97,4.59,4.44,6.51c1.72,2.23,2.51,4.67,2.05,7.42
	c-0.51,3.04-1.18,6.05-1.76,9C883.88,144.25,883.87,136.47,885.51,128.02z M875.21,169.87c2.58,0.81,4.38,3.64,7.46,3.13
	c-0.58-5.69-1.14-11.13-1.7-16.58c0.19-0.02,0.38-0.05,0.56-0.07c4.3,7.1,8.6,14.21,12.87,21.28c-2.83-0.06-5.89-0.23-8.94-0.16
	c-2.44,0.06-4.88,0.42-7.32,0.6c-0.43,0.03-1.05-0.02-1.29-0.29c-2.34-2.73-4.62-5.51-6.92-8.27c-0.86-1.04-1.72-2.08-2.42-3.44
	C870.07,167.37,872.51,169.03,875.21,169.87z M865.43,187.3c0.32,0.19,0.27,1.59-0.05,2.19c-2.27,4.25-2.28,8.61-0.83,13.63
	c-6.31-1.63-12.48-3.23-18.56-4.8c5.55-1.45,11.14-2.9,16.75-4.37c-3.86-4.77-7.4-9.16-10.94-13.54c0.2-0.17,0.39-0.34,0.59-0.51
	C856.76,182.34,861.14,184.75,865.43,187.3z M854.78,168.75c-6.22-0.38-13.52-6.94-14.92-13.44
	C848.09,156.14,851.74,162.17,854.78,168.75z M827.89,206.88c-3.52-0.63-6.71-3.12-10.05-4.79c8.1-3.93,14.78-0.85,21.3,3.84
	C835.38,206.32,831.47,207.52,827.89,206.88z M826.82,254.3c2.53-2.87,4.77-6.1,7.67-8.53c3.13-2.62,7.33-2.44,11.31-2.89
	C844.82,247.85,835.32,253.74,826.82,254.3z M848.16,231.47c-0.05-0.12-0.1-0.23-0.15-0.35c2.18-1.81,4.42-3.55,6.5-5.46
	c1.13-1.05,1.98-2.4,2.96-3.61c-1.3-0.56-2.56-1.31-3.92-1.65c-4.45-1.12-8.93-2.1-13.4-3.13c0-0.23,0-0.45,0-0.68
	c7.54-0.45,15.08-0.9,22.47-1.34c-0.85,2.38-1.86,4.44-2.27,6.61c-0.27,1.42,0.43,3,0.49,4.51c0.02,0.64-0.37,1.75-0.81,1.88
	C856.1,229.41,852.12,230.42,848.16,231.47z M870.04,288.71c-1-3.74,1.02-14.21,6.32-16.08
	C877.45,279.21,877.06,285.27,870.04,288.71z M867.89,261.24c-0.16-0.07-0.33-0.13-0.49-0.2c0.27-1.18,0.56-2.35,0.8-3.54
	c0.52-2.57,1.03-5.15,1.53-7.73c0.04-0.2-0.05-0.42-0.02-0.62c0.14-0.95,0.3-1.89,0.45-2.84c-1.37,0.22-2.79,0.26-4.08,0.69
	c-3.08,1.02-6.11,2.22-9.49,3.48c3.02-3.29,5.58-6.13,8.2-8.91c0.59-0.63,1.34-1.13,2.09-1.56c0.32-0.18,1.08-0.18,1.23,0.03
	c3.08,4.32,7.65,4.28,12.23,4.28c0.05,0,0.1,0.07,0.39,0.28C876.43,250.15,872.16,255.7,867.89,261.24z M872.33,231.1
	c-1.45-2.59-1.92-5.3-1.91-8.07c0.01-1.91,0.82-3.81,1.27-5.72c0.25,0.07,0.5,0.14,0.74,0.22c0.13,3.68,5.59,12.44,12.23,17.77
	C880.52,237.52,874.66,235.25,872.33,231.1z M903.92,260.68c-0.45,3.81-1.07,7.61-1.59,11.2c-0.85-2.59-1.82-5.27-2.59-8
	c-0.31-1.09-0.09-2.33-0.34-3.44c-0.21-0.94-0.75-2.56-1.13-2.55c-1.13,0.01-2.38,0.48-3.35,1.12c-2.25,1.49-4.36,3.19-6.56,4.77
	c-0.25,0.18-0.66,0.15-1.15,0.25c1.76-4.68,3.43-9.16,5.03-13.43c3.02,1.72,5.81,3.5,8.77,4.94
	C904.21,257.09,904.36,256.95,903.92,260.68z M900.56,245.27c6.33-0.36,12.57,0.07,18.52-2.79
	C916.76,250.05,908.76,252.98,900.56,245.27z M920.51,297.27c-2.59-2.71-4.92-5.49-5.89-9.26c-0.98-3.82,0.59-7.28,1.18-11.11
	C920.95,282.48,923.09,291.93,920.51,297.27z M927.88,254.18c-0.88-0.36-2.09-0.01-3.11,0.2c-0.14,0.03-0.1,1.17-0.05,1.79
	c0.36,4.52,0.74,9.05,0.71,13.82c-3.13-4.48-6.26-8.96-9.45-13.54c6.42-1.4,9.09-6.61,11.99-11.18c2.94,4.24,5.97,8.62,9.22,13.29
	C933.84,256.96,930.92,255.43,927.88,254.18z M948.12,236.48c0.09,0.23,0.25,0.44,0.28,0.67c0.33,2.64,0.64,5.28,1,8.33
	c-5-3.68-9.84-7.24-14.67-10.8c0.1-0.19,0.21-0.38,0.31-0.57c4.08-0.44,7.74-1.77,10.5-4.99c0.09-0.1,0.2-0.2,0.27-0.31
	c2.17-3.36,2.15-3.32,5.84-1.61c3.02,1.4,6.07,2.71,9.12,4.04c0.56,0.24,1.17,0.34,1.76,0.5c-0.14,0.25-0.29,0.51-0.43,0.76
	c-4.11,0.4-8.23,0.77-12.34,1.22c-0.82,0.09-1.6,0.5-2.4,0.76C947.62,235.15,947.87,235.82,948.12,236.48z M951.68,257.88
	c4.02,0.15,7.65,1.65,10.79,3.59c5,3.09,6.91,8.41,8.29,14.2C960.26,271.82,952.46,264.6,951.68,257.88z M967.68,218.59
	c8.67-2.44,16.57-1.04,23.57,5.33C982.62,225.29,974.43,225.36,967.68,218.59z"/>
<path class="st1" d="M1613.22,206.17c-0.6-2.98-1.58-6.2-3.38-8.57c-6.16-8.14-15.21-12.01-24.48-15.38
	c-1.83-0.66-3.67-1.3-5.9-2.08c2.79-2.15,5.53-3.77,7.65-5.99c3.4-3.56,6.27-7.62,9.57-11.27c3.2-3.54,4.98-7.55,5.29-12.3
	c0.63-9.62-4.34-16.81-12.26-19.82c-6.01-2.29-12.29-3.97-18.88-3.28c-4.7,0.49-9.52,0.35-13.78,3.11
	c-1.35,0.87-3.18,0.99-5.37,1.62c0.78-2.07,1.21-3.67,1.96-5.11c3.12-6,4.88-12.37,3.58-19.02c-0.82-4.18-2.65-8.24-4.52-12.11
	c-2.97-6.11-7.69-10.57-14.14-12.98c-4.03-1.51-7.92-1.92-12.28-0.35c-9.3,3.36-16.93,8.33-20.95,17.77
	c-1.01,2.37-2.21,4.66-3.49,7.36c-1.41-2.7-2.59-4.98-3.77-7.25c-3.21-6.21-5.82-12.62-10.68-18.04c-5.83-6.5-12.74-8.14-20.65-7.06
	c-5.42,0.74-9.62,3.71-13.39,8c-6.18,7.03-10.83,20.12-9.47,29.53c0.11,0.74-0.21,1.54-0.27,1.87c-4.23-2.09-8.3-4.35-12.56-6.15
	c-7.38-3.12-15.08-4.25-22.98-2.43c-1.95,0.45-3.97,1.29-5.57,2.47c-5.25,3.87-8.24,9.41-10.24,15.43
	c-1.85,5.55-0.84,11.16,0.55,16.69c2.01,8,5.6,15.1,11.42,20.35c-3.9,0.38-8.09,0.8-12.28,1.19c-7.3,0.67-13.26,4.3-18.65,8.84
	c-3.54,2.98-5.25,7.25-6.47,11.71c-1.26,4.62-0.61,9.18,1.02,13.38c2.81,7.2,8.94,11.32,15.63,14.49
	c5.07,2.41,10.34,4.42,15.77,6.71c-1.4,1.08-2.84,1.94-3.96,3.12c-3.82,4.01-8.02,7.79-11.14,12.31c-2.89,4.18-5.31,8.86-6.2,14.1
	c-0.91,5.42-0.15,10.32,3.31,14.8c2.5,3.23,5.86,5.21,9.17,7.32c5.2,3.31,11.05,4.55,16.92,3.29c6.3-1.36,12.37-3.78,18.71-5.79
	c-0.03,0.21-0.05,0.85-0.21,1.46c-0.48,1.79-1.29,3.54-1.47,5.36c-0.38,3.78-0.53,7.59-0.62,11.39c-0.11,4.75-0.36,9.52,1.42,14.09
	c2.37,6.09,6.26,11.02,12.23,13.62c2.92,1.28,6.49,1.16,9.79,1.46c4.31,0.39,8.05-1.44,11.79-3.32c7.25-3.64,13.45-8.5,18.24-15.07
	c1.12-1.54,2.05-3.21,2.98-4.67c0.78,1.87,1.51,3.66,2.27,5.43c1.88,4.32,3.33,8.9,5.78,12.87c3.18,5.15,8.22,7.93,13.91,10.4
	c7.03,3.05,13.28,2.4,19.65-0.55c9.66-4.47,13.29-13.45,15.42-22.9c1.03-4.58,0.21-9.58,0.23-14.37c-0.19-0.06,0.13-0.01,0.39,0.15
	c0.36,0.22,0.73,0.46,0.99,0.78c4.05,4.85,9.52,7.52,15.36,9.17c5.34,1.51,10.89,2.45,16.48,0.76c2.56-0.77,5.41-0.93,7.69-2.17
	c4.03-2.18,6.33-5.96,8.17-10.19c4.77-10.99,3.12-21.23-3.06-31.03c-2.27-3.6-4.88-6.98-7.2-10.28c6.06,0.3,12.03,0.12,18.1-2.28
	c7.03-2.77,11.98-6.99,15.41-13.74C1612.58,217.58,1614.42,212.16,1613.22,206.17z M1583.93,147.59
	c-6.88,6.8-14.51,11.55-24.14,11.96C1564.74,149.71,1573.39,146.96,1583.93,147.59z M1554.63,172.5c-2.16,4.41-4.19,8.56-6.36,13.02
	c5,2.02,10.14,4.1,15.19,6.14c-5.65,1.12-11.19,2.22-17,3.37c-1.15-6.18-4.72-10.12-9.71-13.57
	C1542.83,178.41,1548.6,175.52,1554.63,172.5z M1522.29,114.16c0.27-2.27,2.36-4.47,4-6.39c2.47-2.88,5.26-5.48,7.92-8.2
	c0.25,0.14,0.49,0.29,0.74,0.43c-0.65,3.75-1.17,7.53-1.99,11.24c-0.57,2.55-1.13,5.28-2.47,7.45c-1.55,2.5-3.95,4.46-5.99,6.65
	c-0.42,0.45-0.9,0.86-1.73,1.66C1522.53,122.48,1521.8,118.25,1522.29,114.16z M1531.82,138.83c0.17,0.09,0.33,0.17,0.5,0.26
	c-1.29,5.95-2.59,11.9-3.99,18.34c5.37-0.66,10.91-1.34,16.74-2.05c-6.5,5.06-12.58,9.78-18.42,14.32
	c-0.13-5.77-3.43-10.63-7.74-15.81C1523,149.11,1527.41,143.97,1531.82,138.83z M1527.67,191.18c5.4,0.58,8.16,5.94,7.98,10.36
	c-0.31,7.43-3.52,12.22-10.85,13.87C1529.53,207.61,1527.07,199.24,1527.67,191.18z M1494.94,189.07c0.56-6.79,3.81-11.46,9.76-14.4
	C1507.69,181.44,1502.19,186.33,1494.94,189.07z M1495.14,227.99c-4.37-3.99-5.82-8.79-3.84-14.46
	C1496.04,214.45,1496.93,220.61,1495.14,227.99z M1509.85,199.14c-2.98,0.01-5.96-1.27-9.51-2.12c4.28-4.88,10.63-5.62,17.34-2.68
	C1515.85,197.3,1513.05,199.13,1509.85,199.14z M1513.56,216.12c-7.69,0.86-13.06-2.18-16.05-8.76
	C1505.7,204.3,1509.44,210.36,1513.56,216.12z M1514.91,166.01c0.59,1.87,0.8,3.85,1.33,6.48c-8.68-5.22-16.75-10.07-26.37-11.55
	c6.1-3.57,12.05-4.43,18.62-1.27C1511.59,161.17,1513.91,162.82,1514.91,166.01z M1489.68,129.19c0.24-0.05,0.49-0.09,0.73-0.14
	c1.65,4.64,3.3,9.28,5.18,14.6c0.97-0.55,2.26-0.94,3.02-1.8c2.45-2.75,4.65-5.7,7.05-8.5c0.8-0.93,1.88-1.62,2.89-2.48
	c-0.64,6.07-1.23,11.74-1.86,17.8c-6.28-1.01-12.34-0.71-18.63,2.65C1488.62,143.64,1489.15,136.42,1489.68,129.19z M1485.18,170.08
	c3.61,5.5,5.04,11.24,1.79,17.43C1482.51,182.17,1481.58,173.17,1485.18,170.08z M1483.54,210.79c0.19,0.11,0.26,0.63,0.21,0.94
	c-0.9,5.2-3.49,9.17-8.39,11.43c-1.31-6.44,0.91-10.52,6.89-12.6C1482.62,210.43,1483.18,210.58,1483.54,210.79z M1462.21,204.87
	c5.6-2.64,10.67-8.23,17.14-2.12C1474.25,206.87,1470.64,209.04,1462.21,204.87z M1479.56,193.23c-3.07,1.08-11.07-1.26-13.2-4.04
	c-1.21-1.58-1.95-3.52-3.05-5.57c4.13-1.02,7.44,0.47,10.81,1.48c3.42,1.02,4.66,4.02,6.1,6.8
	C1480.36,192.17,1479.91,193.11,1479.56,193.23z M1455.29,186.89c-2.66-6.29-4.06-11.86,1.23-17.2c4.81-4.87,10.15-6.2,16.88-3.43
	C1465.83,171.72,1459.6,178.29,1455.29,186.89z M1466.94,95.26c2.09,3.09,3.64,5.63,5.44,7.97c2.11,2.73,3.08,5.72,2.52,9.09
	c-0.62,3.73-1.44,7.42-2.15,11.03C1464.94,115.15,1464.92,105.62,1466.94,95.26z M1454.31,146.54c3.16,0.99,5.36,4.45,9.14,3.83
	c-0.71-6.97-1.4-13.64-2.08-20.31c0.23-0.03,0.46-0.06,0.69-0.09c5.27,8.7,10.53,17.41,15.77,26.07c-3.47-0.07-7.21-0.28-10.95-0.19
	c-2.99,0.07-5.98,0.51-8.97,0.73c-0.53,0.04-1.29-0.02-1.57-0.35c-2.87-3.34-5.67-6.75-8.48-10.14c-1.06-1.27-2.11-2.55-2.97-4.21
	C1448.01,143.47,1451.01,145.5,1454.31,146.54z M1442.33,167.9c0.39,0.23,0.33,1.95-0.07,2.69c-2.78,5.21-2.79,10.54-1.02,16.7
	c-7.73-2-15.29-3.95-22.74-5.88c6.8-1.77,13.65-3.56,20.52-5.35c-4.72-5.85-9.06-11.22-13.4-16.59c0.24-0.21,0.48-0.42,0.72-0.63
	C1431.7,161.82,1437.07,164.77,1442.33,167.9z M1429.28,145.16c-7.62-0.46-16.56-8.5-18.28-16.47
	C1421.08,129.71,1425.56,137.11,1429.28,145.16z M1396.34,191.89c-4.32-0.77-8.23-3.82-12.31-5.87c9.93-4.82,18.11-1.04,26.09,4.7
	C1405.51,191.2,1400.72,192.67,1396.34,191.89z M1395.02,249.99c3.1-3.52,5.84-7.47,9.4-10.45c3.83-3.21,8.98-2.99,13.86-3.54
	C1417.08,242.09,1405.44,249.3,1395.02,249.99z M1421.17,222.01c-0.06-0.14-0.13-0.29-0.19-0.43c2.67-2.22,5.42-4.34,7.96-6.69
	c1.39-1.28,2.43-2.94,3.63-4.43c-1.6-0.69-3.14-1.6-4.81-2.02c-5.45-1.38-10.94-2.57-16.42-3.84c0-0.28,0-0.56,0-0.84
	c9.24-0.55,18.47-1.1,27.53-1.64c-1.04,2.92-2.28,5.44-2.78,8.1c-0.33,1.74,0.53,3.67,0.6,5.53c0.03,0.79-0.46,2.15-0.99,2.31
	C1430.9,219.49,1426.03,220.72,1421.17,222.01z M1447.98,292.14c-1.22-4.58,1.26-17.41,7.74-19.7
	C1457.06,280.5,1456.58,287.94,1447.98,292.14z M1445.34,258.48c-0.2-0.08-0.4-0.16-0.6-0.24c0.33-1.44,0.68-2.88,0.98-4.33
	c0.64-3.15,1.26-6.31,1.87-9.47c0.05-0.24-0.07-0.51-0.03-0.76c0.17-1.16,0.36-2.32,0.55-3.48c-1.67,0.27-3.42,0.32-5,0.85
	c-3.78,1.25-7.48,2.72-11.63,4.26c3.7-4.03,6.84-7.51,10.04-10.92c0.72-0.77,1.64-1.39,2.56-1.91c0.39-0.22,1.32-0.22,1.5,0.04
	c3.78,5.29,9.38,5.25,14.98,5.24c0.06,0,0.12,0.08,0.48,0.34C1455.81,244.9,1450.58,251.69,1445.34,258.48z M1450.79,221.56
	c-1.78-3.17-2.36-6.5-2.34-9.89c0.01-2.34,1-4.67,1.56-7.01c0.3,0.09,0.61,0.18,0.91,0.26c0.16,4.51,6.86,15.24,14.98,21.77
	C1460.81,229.42,1453.64,226.64,1450.79,221.56z M1489.49,257.8c-0.55,4.67-1.31,9.32-1.94,13.72c-1.05-3.18-2.23-6.45-3.18-9.8
	c-0.38-1.34-0.11-2.85-0.42-4.22c-0.25-1.15-0.92-3.13-1.39-3.13c-1.38,0.01-2.91,0.59-4.1,1.38c-2.76,1.82-5.35,3.91-8.03,5.85
	c-0.31,0.22-0.81,0.18-1.41,0.3c2.15-5.74,4.21-11.22,6.17-16.45c3.7,2.11,7.12,4.29,10.74,6.05
	C1489.84,253.4,1490.02,253.24,1489.49,257.8z M1485.37,238.93c7.75-0.44,15.4,0.08,22.69-3.42
	C1505.22,244.77,1495.42,248.37,1485.37,238.93z M1509.82,302.64c-3.17-3.32-6.03-6.72-7.21-11.34c-1.2-4.68,0.72-8.92,1.45-13.62
	C1510.35,284.51,1512.98,296.09,1509.82,302.64z M1518.85,249.84c-1.07-0.44-2.56-0.02-3.8,0.25c-0.17,0.04-0.13,1.43-0.07,2.19
	c0.44,5.54,0.91,11.08,0.87,16.93c-3.83-5.49-7.66-10.98-11.58-16.58c7.86-1.72,11.13-8.1,14.69-13.7
	c3.6,5.19,7.32,10.56,11.29,16.28C1526.15,253.24,1522.57,251.37,1518.85,249.84z M1543.64,228.16c0.11,0.28,0.31,0.54,0.35,0.83
	c0.4,3.23,0.78,6.47,1.23,10.21c-6.13-4.51-12.05-8.87-17.97-13.23c0.13-0.23,0.25-0.47,0.38-0.7c5-0.54,9.48-2.17,12.87-6.11
	c0.11-0.13,0.24-0.24,0.33-0.38c2.66-4.11,2.64-4.07,7.16-1.98c3.7,1.71,7.44,3.33,11.18,4.95c0.68,0.29,1.44,0.41,2.16,0.62
	c-0.18,0.31-0.35,0.62-0.53,0.93c-5.04,0.49-10.09,0.94-15.12,1.5c-1,0.11-1.96,0.61-2.94,0.93
	C1543.03,226.53,1543.33,227.34,1543.64,228.16z M1548,254.37c4.92,0.18,9.38,2.03,13.21,4.4c6.13,3.78,8.47,10.3,10.16,17.4
	C1558.52,271.45,1548.96,262.6,1548,254.37z M1567.61,206.23c10.62-2.99,20.31-1.28,28.88,6.53
	C1585.92,214.45,1575.88,214.53,1567.61,206.23z"/>
<path class="st1" d="M1106.8,116.11c-0.48,0.13-0.95,0.28-1.44,0.31c-13.36,1.11-26.52,3.22-39.46,6.85
	c-10.16,2.85-20.46,5-29.85,10.26c-6.03,3.37-10.42,8.25-14.09,13.68c-2.46,3.65-3.33,8.34-5.21,12.42
	c-5.33,11.56-4.79,27.51,3.35,37.83c7.01,8.9,20.99,14.26,32.21,11.45c15.99-4,28.8-13.06,37.55-27.27c1.25-2.2,2.77-4.3,3.7-6.62
	c3.34-8.33,6.93-16.59,9.57-25.15c3.06-9.93,5.34-20.11,7.69-30.25C1111.71,115.86,1110.55,115.08,1106.8,116.11z M1065.8,135.55
	c0.36,0.28,0.73,0.55,1.09,0.83c-3.52,5.29-7.04,10.59-10.86,16.35C1056.82,145.08,1058.61,138.67,1065.8,135.55z M1037.28,171.66
	c-2.56-8.76,2.89-19.81,11.58-23C1050.32,155.92,1045.56,167.02,1037.28,171.66z M1042.5,177.48c0.95-7.01,32.69-35.76,40.96-36.64
	C1071.19,154.88,1058.36,167.72,1042.5,177.48z M1049.26,182.43c-0.13-0.44-0.25-0.89-0.38-1.34c7.24-2.75,14.49-5.49,21.73-8.24
	C1067.26,179.76,1056.93,184.79,1049.26,182.43z M1072.85,163.96c-0.14-0.37-0.29-0.75-0.43-1.12c4.78-1.83,9.55-3.66,14.32-5.48
	c0.12,0.32,0.24,0.63,0.36,0.94C1082.95,161.79,1078.61,164.8,1072.85,163.96z"/>
<path class="st1" d="M1375.35,116.74c2.12-3.79,5.21-7.04,7.22-10.87c2.25-4.28,4.4-8.79,5.43-13.46c1.13-5.09,1.43-10.49,1.2-15.71
	c-0.28-6.2-1.2-12.43-2.45-18.52c-0.91-4.42-2.57-8.74-4.3-12.94c-2.36-5.73-5.11-11.3-7.67-16.95c-1.08-2.37-2.08-4.76-3.19-7.11
	c-0.55-1.17-1.53-1.08-2.4-0.4c-1.22,0.95-2.36,2.02-3.55,3.02c-3.75,3.18-7.53,6.34-11.26,9.54c-5.91,5.09-10.52,11.15-13.57,18.36
	c-0.28,0.67-0.72,1.26-0.86,1.51c-3.23-3.03-6.27-6.04-9.5-8.84c-2.69-2.33-5.41-4.72-8.45-6.53c-3.75-2.24-7.81-3.99-11.79-5.82
	c-9.61-4.42-19.72-6.26-30.28-5.82c-1.88,0.08-3.78,0.06-5.66-0.04c-1.26-0.07-1.76,0.39-2.1,1.6c-1.12,3.98-1.12,8.04-1.04,12.11
	c0.1,5.7-0.02,11.44,0.52,17.1c0.51,5.32,1.61,10.61,2.73,15.85c0.77,3.61,1.65,7.28,3.13,10.63c2.17,4.92,4.93,9.59,7.46,14.4
	c-0.79,0.1-2.08,0.23-3.37,0.42c-7.69,1.14-14.87,3.51-21.13,8.36c-2.48,1.92-5.38,3.3-8,5.05c-2.03,1.35-3.9,2.94-5.89,4.35
	c-0.71,0.5-1.74,0.63-2.32,1.23c-0.51,0.53-1.01,1.65-0.77,2.19c0.62,1.42,1.45,2.84,2.54,3.93c3.14,3.15,6.28,6.35,9.74,9.14
	c3.76,3.02,7.76,5.77,11.86,8.32c3.66,2.27,7.53,4.15,11.65,5.63c5.01,1.8,10.1,2.61,15.32,3.21c3.51,0.4,6.96,1.34,10.46,1.87
	c4.06,0.62,8.13,0.59,12.12-0.59c7.01-2.07,14.08-3.98,21.01-6.28c6.12-2.04,11.96-4.7,17.04-8.87c2.1-1.73,4.97-2.58,6.87-4.46
	C1366.74,126.72,1372.03,122.67,1375.35,116.74z M1325.67,73.69c-1.89-1.52-6.13-13.32-7.85-22.06
	C1324.2,57.82,1327.17,65.01,1325.67,73.69z M1287.33,75.16c2.92,2.6,5.8,5.11,8.62,7.68c2.85,2.6,5.65,5.26,8.73,8.14
	C1292.83,88.75,1286.9,81.6,1287.33,75.16z M1319.86,131.48c-5.05,1.23-10.06,3.12-15.18,3.5c-5.03,0.38-10.29-0.29-15.26-1.35
	c-7.82-1.68-12.35-4.06-13.61-6.15c14.61,2.91,29.21,4.62,44.07,2.99C1319.87,130.81,1319.86,131.15,1319.86,131.48z
	 M1301.07,100.75c7.72,4.01,15.73,8.17,23.56,12.24C1310.12,114.99,1305.36,108.72,1301.07,100.75z M1344.84,118.25
	c-3.37-3.04-7-5.84-10.04-9.17c-4.35-4.76-8.46-9.77-12.35-14.91c-4.86-6.42-9.4-13.08-14.05-19.66c-2.67-3.78-5.29-7.6-7.91-11.41
	c-1.49-2.17-2.92-4.38-4.38-6.57c0.1-0.09,0.19-0.19,0.29-0.28c0.36,0.22,0.8,0.37,1.07,0.67c3.69,3.95,7.42,7.85,11,11.89
	c3.71,4.2,7.29,8.52,10.88,12.82c1.78,2.14,3.45,4.37,5.19,6.55c3.43,4.29,6.93,8.53,10.29,12.88c2.7,3.49,5.36,7.01,7.79,10.69
	c1.23,1.86,1.92,4.07,2.85,6.13C1345.25,118,1345.05,118.13,1344.84,118.25z M1347.07,94.01c-0.41,1.49-1.04,2.92-1.57,4.38
	c-0.13-0.05-0.27-0.1-0.4-0.14c-1.9-9.58-3.79-19.16-5.69-28.74c0.13-0.1,0.27-0.2,0.4-0.3c1.61,2.62,3.37,5.17,4.77,7.9
	c0.74,1.45,0.71,3.26,1.26,4.83C1347.22,85.88,1348.23,89.84,1347.07,94.01z M1363.25,97.58c-0.05-0.22-0.17-0.44-0.11-0.58
	c1.25-2.93,2.94-5.76,3.7-8.81c1.31-5.27,2.11-10.67,3.01-16.03c0.59-3.5,0.97-7.04,1.45-10.56c0.17,0.01,0.33,0.02,0.5,0.03
	c0.7,3.86,1.6,7.7,2.02,11.59c0.28,2.65,0.28,5.47-0.29,8.05C1372.07,87.81,1368.7,92.46,1363.25,97.58z"/>
<path class="st1" d="M1598.74,351.47c-2.42-2.43-5.04-4.68-7.74-6.8c-2.41-1.89-5-3.51-7.8-4.88c-3.4-1.66-6.94-2.62-10.58-3.45
	c-2.45-0.56-4.82-1.48-7.25-2.13c-2.82-0.75-5.7-1.04-8.61-0.52c-5.12,0.92-10.26,1.72-15.34,2.82c-4.48,0.97-8.82,2.39-12.73,4.96
	c-1.62,1.06-3.71,1.44-5.2,2.62c-3.66,2.9-7.71,5.36-10.51,9.29c-1.79,2.51-4.23,4.58-5.95,7.13c-1.92,2.85-3.79,5.88-4.88,9.1
	c-1.19,3.51-1.82,7.3-2.06,11.01c-0.28,4.41-0.11,8.88,0.3,13.28c0.3,3.2,1.14,6.38,2.04,9.48c1.22,4.23,2.74,8.38,4.11,12.57
	c0.58,1.76,1.1,3.53,1.71,5.27c0.3,0.87,1,0.88,1.67,0.47c0.94-0.58,1.82-1.24,2.74-1.86c2.9-1.96,5.81-3.9,8.7-5.88
	c4.57-3.14,8.3-7.07,11.02-11.93c0.25-0.45,0.61-0.84,0.73-1c2.05,2.39,3.97,4.75,6.03,6.98c1.72,1.86,3.46,3.75,5.47,5.27
	c2.48,1.87,5.21,3.42,7.88,5.03c6.45,3.87,13.46,5.95,20.96,6.46c1.34,0.09,2.68,0.25,4,0.47c0.88,0.15,1.28-0.14,1.61-0.97
	c1.1-2.73,1.41-5.6,1.67-8.48c0.37-4.04,0.9-8.08,0.96-12.13c0.05-3.8-0.32-7.62-0.7-11.42c-0.27-2.61-0.6-5.27-1.39-7.76
	c-1.16-3.65-2.74-7.16-4.16-10.75c0.57-0.01,1.49,0,2.41-0.03c5.53-0.21,10.78-1.33,15.59-4.28c1.9-1.17,4.06-1.92,6.05-2.95
	c1.54-0.8,2.98-1.78,4.5-2.62c0.54-0.3,1.28-0.31,1.74-0.69c0.4-0.33,0.84-1.09,0.71-1.49c-0.33-1.05-0.81-2.12-1.49-2.97
	C1602.93,356.21,1600.97,353.71,1598.74,351.47z M1520.06,368.29c-1.11,1.98-2.53,3.84-3.3,5.94c-1.33,3.62-2.32,7.38-3.36,11.1
	c-0.69,2.43-1.23,4.9-1.84,7.35c-0.12-0.02-0.23-0.04-0.35-0.06c-0.19-2.78-0.54-5.57-0.53-8.35c0-1.9,0.22-3.89,0.83-5.67
	c1.53-4.51,4.27-7.54,8.52-10.73C1520.05,368.02,1520.12,368.19,1520.06,368.29z M1534.41,389.74c-0.94-1.98-1.98-3.92-2.76-5.96
	c-0.41-1.08-0.25-2.36-0.52-3.51c-0.67-2.89-1.08-5.78,0.06-8.64c0.41-1.02,0.96-1.98,1.45-2.97c0.09,0.04,0.18,0.09,0.27,0.13
	c0.6,6.92,1.2,13.84,1.8,20.76C1534.61,389.61,1534.51,389.67,1534.41,389.74z M1544.75,387.66c1.22,1.22,3.3,9.89,3.85,16.2
	C1544.56,398.99,1543.02,393.68,1544.75,387.66z M1564.1,402.25c-0.24-0.18-0.53-0.32-0.71-0.56c-2.3-3.07-4.64-6.12-6.86-9.26
	c-2.3-3.25-4.5-6.59-6.7-9.91c-1.09-1.65-2.1-3.36-3.16-5.03c-2.09-3.3-4.24-6.57-6.28-9.9c-1.64-2.67-3.25-5.37-4.68-8.16
	c-0.73-1.41-1.04-3.03-1.54-4.55c0.15-0.08,0.31-0.15,0.46-0.23c2.15,2.41,4.49,4.67,6.39,7.26c2.71,3.7,5.22,7.56,7.57,11.5
	c2.94,4.92,5.64,9.97,8.42,14.99c1.6,2.88,3.15,5.78,4.71,8.68c0.88,1.65,1.73,3.32,2.59,4.98
	C1564.25,402.14,1564.17,402.2,1564.1,402.25z M1548.53,359.95c10.42-0.29,13.29,4.51,15.71,10.48
	C1559.09,366.99,1553.75,363.43,1548.53,359.95z M1571.97,389.58c-1.86-2.06-3.7-4.06-5.5-6.1c-1.81-2.06-3.58-4.16-5.54-6.43
	C1569.14,379.55,1572.77,385.06,1571.97,389.58z M1553.24,347.96c0.03-0.24,0.06-0.47,0.09-0.71c3.67-0.48,7.35-1.43,11-1.3
	c3.59,0.12,7.25,1,10.68,2.14c5.4,1.79,8.42,3.82,9.15,5.4C1574.05,350.3,1563.87,347.96,1553.24,347.96z"/>
</svg>
