<?xml version="1.0" encoding="utf-8"?>
<!-- Generator: Adobe Illustrator 23.0.3, SVG Export Plug-In . SVG Version: 6.00 Build 0)  -->
<svg version="1.1" id="圖層_1" xmlns="http://www.w3.org/2000/svg" xmlns:xlink="http://www.w3.org/1999/xlink" x="0px" y="0px"
	 viewBox="0 0 1793.95 754.83" style="enable-background:new 0 0 1793.95 754.83;" xml:space="preserve">
<style type="text/css">
	.st0{fill:#FFE540;}
</style>
<path class="st0" d="M324.5,264.18c-5.03-6.64-12.41-9.81-19.98-12.55c-1.49-0.54-3-1.06-4.81-1.7c2.28-1.75,4.51-3.08,6.24-4.89
	c2.77-2.91,5.12-6.22,7.81-9.2c2.62-2.89,4.06-6.17,4.32-10.04c0.52-7.85-3.54-13.72-10.01-16.18c-4.9-1.87-10.03-3.24-15.41-2.67
	c-3.84,0.4-7.77,0.29-11.25,2.54c-1.1,0.71-2.6,0.81-4.38,1.32c0.64-1.69,0.99-3,1.6-4.17c2.55-4.89,3.98-10.1,2.92-15.52
	c-0.67-3.41-2.16-6.73-3.69-9.89c-2.42-4.98-6.27-8.62-11.54-10.59c-3.29-1.23-6.46-1.57-10.02-0.28
	c-7.59,2.74-13.82,6.8-17.1,14.51c-0.82,1.94-1.8,3.81-2.85,6.01c-1.15-2.21-2.12-4.06-3.08-5.92c-2.62-5.07-4.75-10.3-8.72-14.72
	c-4.76-5.3-10.4-6.64-16.86-5.76c-4.43,0.6-7.85,3.03-10.93,6.53c-5.05,5.74-8.84,16.42-7.73,24.1c0.09,0.6-0.17,1.26-0.22,1.53
	c-3.45-1.71-6.77-3.55-10.25-5.02c-6.02-2.55-12.31-3.47-18.76-1.98c-1.59,0.37-3.24,1.05-4.54,2.01c-4.28,3.16-6.72,7.68-8.36,12.6
	c-1.51,4.53-0.69,9.1,0.45,13.62c1.64,6.53,4.57,12.32,9.32,16.61c-3.18,0.31-6.6,0.66-10.02,0.97c-5.96,0.55-10.82,3.51-15.22,7.22
	c-2.89,2.43-4.28,5.92-5.28,9.56c-1.03,3.77-0.5,7.49,0.83,10.92c2.29,5.88,7.29,9.24,12.75,11.83c4.14,1.96,8.44,3.61,12.87,5.48
	c-1.14,0.88-2.32,1.59-3.23,2.54c-3.12,3.27-6.55,6.36-9.09,10.05c-2.36,3.41-4.34,7.23-5.06,11.51c-0.74,4.42-0.13,8.42,2.7,12.08
	c2.04,2.64,4.79,4.25,7.49,5.97c4.24,2.7,9.01,3.72,13.81,2.68c5.14-1.11,10.1-3.08,15.27-4.72c-0.02,0.17-0.04,0.69-0.17,1.19
	c-0.39,1.46-1.05,2.89-1.2,4.37c-0.31,3.08-0.43,6.19-0.5,9.3c-0.09,3.87-0.29,7.77,1.16,11.5c1.94,4.97,5.11,8.99,9.98,11.12
	c2.39,1.04,5.3,0.95,7.99,1.19c3.52,0.31,6.57-1.17,9.62-2.71c5.92-2.97,10.98-6.94,14.88-12.3c0.91-1.25,1.67-2.62,2.43-3.81
	c0.64,1.53,1.23,2.99,1.86,4.43c1.53,3.52,2.72,7.26,4.72,10.5c2.59,4.2,6.71,6.47,11.35,8.48c5.74,2.49,10.84,1.96,16.04-0.45
	c7.89-3.65,10.85-10.97,12.58-18.69c0.84-3.74,0.17-7.82,0.19-11.73c-0.15-0.05,0.11-0.01,0.32,0.12c0.29,0.18,0.59,0.38,0.81,0.64
	c3.31,3.96,7.77,6.13,12.54,7.48c4.36,1.23,8.89,2,13.45,0.62c2.09-0.63,4.41-0.76,6.28-1.77c3.29-1.78,5.17-4.86,6.67-8.32
	c3.9-8.97,2.54-17.33-2.49-25.33c-1.85-2.94-3.98-5.7-5.88-8.39c4.94,0.24,9.82,0.1,14.78-1.86c5.74-2.26,9.78-5.7,12.57-11.21
	c2.25-4.43,3.75-8.86,2.77-13.75C326.77,268.74,325.96,266.11,324.5,264.18z M303.35,223.36c-5.61,5.55-11.84,9.43-19.7,9.76
	C287.69,225.09,294.75,222.85,303.35,223.36z M279.43,243.69c-1.76,3.6-3.42,6.99-5.19,10.63c4.08,1.65,8.28,3.35,12.4,5.01
	c-4.61,0.91-9.13,1.81-13.87,2.75c-0.94-5.05-3.85-8.26-7.93-11.07C269.81,248.51,274.52,246.16,279.43,243.69z M253.04,196.07
	c0.22-1.85,1.92-3.65,3.26-5.21c2.01-2.35,4.3-4.47,6.46-6.69c0.2,0.12,0.4,0.23,0.61,0.35c-0.53,3.06-0.95,6.14-1.63,9.17
	c-0.46,2.09-0.92,4.31-2.02,6.08c-1.26,2.04-3.22,3.64-4.89,5.43c-0.35,0.37-0.73,0.71-1.41,1.36
	C253.24,202.87,252.65,199.41,253.04,196.07z M260.82,216.21c0.14,0.07,0.27,0.14,0.41,0.21c-1.06,4.86-2.11,9.71-3.25,14.97
	c4.38-0.54,8.9-1.09,13.66-1.68c-5.31,4.13-10.26,7.98-15.03,11.69c-0.11-4.71-2.8-8.67-6.32-12.91
	C253.62,224.6,257.22,220.4,260.82,216.21z M257.43,258.94c4.4,0.47,6.66,4.85,6.51,8.45c-0.25,6.06-2.87,9.97-8.86,11.32
	C258.95,272.35,256.94,265.51,257.43,258.94z M230.72,257.21c0.45-5.54,3.11-9.35,7.96-11.75
	C241.12,250.98,236.64,254.98,230.72,257.21z M230.89,288.98c-3.57-3.26-4.75-7.17-3.13-11.8
	C231.62,277.93,232.34,282.96,230.89,288.98z M242.89,265.43c-2.43,0.01-4.86-1.03-7.77-1.73c3.49-3.98,8.67-4.59,14.15-2.19
	C247.79,263.93,245.5,265.42,242.89,265.43z M245.92,279.29c-6.27,0.7-10.66-1.78-13.1-7.15
	C239.5,269.64,242.55,274.59,245.92,279.29z M247.02,238.4c0.48,1.52,0.65,3.14,1.08,5.29c-7.08-4.26-13.67-8.22-21.52-9.42
	c4.98-2.91,9.83-3.62,15.2-1.04C244.31,234.44,246.2,235.79,247.02,238.4z M226.43,208.34c0.2-0.04,0.4-0.07,0.6-0.11
	c1.35,3.79,2.69,7.57,4.23,11.91c0.79-0.45,1.84-0.77,2.47-1.47c2-2.24,3.8-4.65,5.75-6.94c0.65-0.76,1.53-1.32,2.36-2.02
	c-0.52,4.95-1,9.58-1.52,14.53c-5.12-0.82-10.07-0.58-15.21,2.16C225.56,220.14,226,214.24,226.43,208.34z M222.76,241.71
	c2.94,4.49,4.12,9.17,1.46,14.23C220.57,251.58,219.82,244.24,222.76,241.71z M221.42,274.94c0.16,0.09,0.21,0.52,0.17,0.77
	c-0.74,4.24-2.85,7.49-6.85,9.33c-1.07-5.25,0.74-8.59,5.62-10.28C220.67,274.65,221.12,274.77,221.42,274.94z M204,270.11
	c4.57-2.15,8.71-6.72,13.99-1.73C213.83,271.74,210.89,273.51,204,270.11z M218.17,260.61c-2.51,0.88-9.04-1.03-10.77-3.3
	c-0.99-1.29-1.59-2.87-2.49-4.54c3.37-0.83,6.07,0.39,8.82,1.21c2.79,0.83,3.81,3.28,4.98,5.55
	C218.82,259.75,218.45,260.51,218.17,260.61z M198.36,255.43c-2.17-5.13-3.31-9.68,1-14.04c3.93-3.97,8.28-5.06,13.78-2.8
	C206.96,243.06,201.88,248.42,198.36,255.43z M207.86,180.65c1.71,2.52,2.97,4.59,4.44,6.51c1.72,2.23,2.51,4.67,2.05,7.42
	c-0.51,3.04-1.18,6.05-1.76,9C206.23,196.88,206.22,189.1,207.86,180.65z M197.56,222.5c2.58,0.81,4.38,3.64,7.46,3.13
	c-0.58-5.69-1.14-11.13-1.7-16.58c0.19-0.02,0.38-0.05,0.56-0.07c4.3,7.1,8.6,14.21,12.87,21.28c-2.83-0.06-5.89-0.23-8.94-0.16
	c-2.44,0.06-4.88,0.42-7.32,0.6c-0.43,0.03-1.05-0.02-1.29-0.29c-2.34-2.73-4.62-5.51-6.92-8.27c-0.86-1.04-1.72-2.08-2.42-3.44
	C192.42,220,194.86,221.66,197.56,222.5z M187.78,239.93c0.32,0.19,0.27,1.59-0.05,2.19c-2.27,4.25-2.28,8.61-0.83,13.63
	c-6.31-1.63-12.48-3.23-18.56-4.8c5.55-1.45,11.14-2.9,16.75-4.37c-3.86-4.77-7.4-9.16-10.94-13.54c0.2-0.17,0.39-0.34,0.59-0.51
	C179.11,234.97,183.49,237.38,187.78,239.93z M177.13,221.38c-6.22-0.38-13.52-6.94-14.92-13.44
	C170.44,208.77,174.1,214.8,177.13,221.38z M150.24,259.51c-3.52-0.63-6.71-3.12-10.05-4.79c8.1-3.93,14.78-0.85,21.3,3.84
	C157.73,258.95,153.82,260.15,150.24,259.51z M149.17,306.94c2.53-2.87,4.77-6.1,7.67-8.53c3.13-2.62,7.33-2.44,11.31-2.89
	C167.17,300.48,157.67,306.37,149.17,306.94z M170.51,284.1c-0.05-0.12-0.1-0.23-0.15-0.35c2.18-1.81,4.42-3.55,6.5-5.46
	c1.13-1.05,1.98-2.4,2.96-3.61c-1.3-0.56-2.56-1.31-3.92-1.65c-4.45-1.12-8.93-2.1-13.4-3.13c0-0.23,0-0.45,0-0.68
	c7.54-0.45,15.08-0.9,22.47-1.34c-0.85,2.38-1.86,4.44-2.27,6.61c-0.27,1.42,0.43,3,0.49,4.51c0.02,0.64-0.37,1.75-0.81,1.88
	C178.45,282.04,174.48,283.05,170.51,284.1z M192.39,341.34c-1-3.74,1.02-14.21,6.32-16.08
	C199.8,331.84,199.41,337.91,192.39,341.34z M190.24,313.87c-0.16-0.07-0.33-0.13-0.49-0.2c0.27-1.18,0.56-2.35,0.8-3.54
	c0.52-2.57,1.03-5.15,1.53-7.73c0.04-0.2-0.05-0.42-0.02-0.62c0.14-0.95,0.3-1.89,0.45-2.84c-1.37,0.22-2.79,0.26-4.08,0.69
	c-3.08,1.02-6.11,2.22-9.49,3.48c3.02-3.29,5.58-6.13,8.2-8.91c0.59-0.63,1.34-1.13,2.09-1.56c0.32-0.18,1.08-0.18,1.23,0.03
	c3.08,4.32,7.65,4.28,12.23,4.28c0.05,0,0.1,0.07,0.39,0.28C198.79,302.78,194.51,308.33,190.24,313.87z M194.68,283.73
	c-1.45-2.59-1.92-5.3-1.91-8.08c0.01-1.91,0.82-3.81,1.27-5.72c0.25,0.07,0.5,0.14,0.74,0.22c0.13,3.68,5.59,12.44,12.23,17.77
	C202.87,290.15,197.01,287.88,194.68,283.73z M226.27,313.31c-0.45,3.81-1.07,7.61-1.59,11.2c-0.85-2.59-1.82-5.27-2.59-8
	c-0.31-1.09-0.09-2.33-0.34-3.44c-0.21-0.94-0.75-2.56-1.13-2.55c-1.13,0.01-2.38,0.48-3.35,1.12c-2.25,1.49-4.36,3.19-6.56,4.77
	c-0.25,0.18-0.66,0.15-1.15,0.25c1.76-4.68,3.43-9.16,5.03-13.43c3.02,1.72,5.81,3.5,8.77,4.94
	C226.56,309.72,226.71,309.58,226.27,313.31z M222.91,297.9c6.33-0.36,12.57,0.07,18.52-2.79
	C239.11,302.68,231.11,305.61,222.91,297.9z M242.86,349.9c-2.59-2.71-4.92-5.49-5.89-9.26c-0.98-3.82,0.59-7.28,1.18-11.11
	C243.3,335.11,245.44,344.56,242.86,349.9z M250.23,306.81c-0.88-0.36-2.09-0.01-3.11,0.2c-0.14,0.03-0.1,1.17-0.05,1.79
	c0.36,4.52,0.74,9.05,0.71,13.82c-3.13-4.48-6.26-8.96-9.45-13.54c6.42-1.4,9.09-6.61,11.99-11.18c2.94,4.24,5.97,8.62,9.22,13.29
	C256.19,309.59,253.27,308.06,250.23,306.81z M270.47,289.11c0.09,0.23,0.25,0.44,0.28,0.67c0.33,2.64,0.64,5.28,1,8.33
	c-5-3.68-9.84-7.24-14.67-10.8c0.1-0.19,0.21-0.38,0.31-0.57c4.08-0.44,7.74-1.77,10.5-4.99c0.09-0.1,0.2-0.2,0.27-0.31
	c2.17-3.36,2.15-3.32,5.84-1.61c3.02,1.4,6.07,2.71,9.12,4.04c0.56,0.24,1.17,0.34,1.76,0.5c-0.14,0.25-0.29,0.51-0.43,0.76
	c-4.11,0.4-8.23,0.77-12.34,1.22c-0.82,0.09-1.6,0.5-2.4,0.76C269.97,287.78,270.22,288.45,270.47,289.11z M274.03,310.51
	c4.02,0.15,7.65,1.65,10.79,3.59c5,3.09,6.91,8.41,8.29,14.2C282.61,324.45,274.81,317.23,274.03,310.51z M290.03,271.22
	c8.67-2.44,16.57-1.04,23.57,5.33C304.98,277.92,296.78,277.99,290.03,271.22z"/>
<path class="st0" d="M139.24,171.76c6.08-2.82,8.37-8.47,9.71-14.42c0.65-2.89,0.13-6.03,0.15-9.05c-0.12-0.04,0.08-0.01,0.25,0.09
	c0.22,0.14,0.46,0.29,0.62,0.49c2.55,3.05,6,4.73,9.67,5.77c3.36,0.95,6.86,1.54,10.38,0.48c1.61-0.49,3.4-0.59,4.84-1.37
	c2.54-1.37,3.99-3.75,5.15-6.42c3.01-6.92,1.96-13.37-1.92-19.54c-1.43-2.27-3.07-4.4-4.54-6.47c3.81,0.19,7.58,0.07,11.4-1.43
	c4.43-1.75,7.55-4.4,9.7-8.65c1.73-3.42,2.89-6.83,2.14-10.6c-0.38-1.88-1-3.9-2.13-5.39c-3.88-5.12-9.58-7.57-15.42-9.68
	c-1.15-0.42-2.31-0.82-3.71-1.31c1.76-1.35,3.48-2.37,4.82-3.77c2.14-2.24,3.95-4.8,6.03-7.1c2.02-2.23,3.13-4.76,3.33-7.75
	c0.4-6.06-2.73-10.58-7.72-12.48c-3.78-1.44-7.74-2.5-11.89-2.06c-2.96,0.31-6,0.22-8.68,1.96c-0.85,0.55-2.01,0.62-3.38,1.02
	c0.49-1.3,0.76-2.31,1.23-3.22c1.96-3.78,3.07-7.79,2.25-11.98c-0.52-2.63-1.67-5.19-2.85-7.63c-1.87-3.85-4.84-6.65-8.9-8.17
	c-2.54-0.95-4.99-1.21-7.73-0.22c-5.85,2.12-10.66,5.24-13.19,11.19c-0.64,1.49-1.39,2.94-2.2,4.64c-0.88-1.7-1.63-3.13-2.37-4.57
	c-2.02-3.91-3.66-7.94-6.72-11.36c-3.67-4.09-8.02-5.12-13.01-4.44c-3.42,0.47-6.06,2.34-8.43,5.04c-3.89,4.43-6.82,12.67-5.96,18.6
	c0.07,0.47-0.13,0.97-0.17,1.18c-2.66-1.32-5.22-2.74-7.91-3.87c-4.64-1.96-9.49-2.67-14.47-1.53c-1.23,0.28-2.5,0.81-3.51,1.55
	c-3.3,2.44-5.19,5.93-6.45,9.72c-1.16,3.5-0.53,7.02,0.35,10.51c1.27,5.04,3.52,9.51,7.19,12.82c-2.45,0.24-5.09,0.51-7.73,0.75
	c-4.59,0.42-8.35,2.71-11.74,5.57c-2.23,1.88-3.31,4.57-4.07,7.38c-0.79,2.91-0.39,5.78,0.64,8.42c1.77,4.54,5.63,7.13,9.84,9.13
	c3.2,1.52,6.51,2.78,9.93,4.23c-0.88,0.68-1.79,1.22-2.49,1.96c-2.41,2.53-5.05,4.91-7.02,7.75c-1.82,2.63-3.35,5.58-3.9,8.88
	c-0.57,3.41-0.1,6.5,2.09,9.32c1.57,2.03,3.69,3.28,5.78,4.61c3.27,2.08,6.95,2.87,10.65,2.07c3.97-0.85,7.79-2.38,11.78-3.64
	c-0.02,0.13-0.03,0.54-0.13,0.92c-0.3,1.13-0.81,2.23-0.93,3.37c-0.24,2.38-0.33,4.78-0.39,7.17c-0.07,2.99-0.23,5.99,0.9,8.87
	c1.49,3.84,3.94,6.94,7.7,8.58c1.84,0.8,4.09,0.73,6.17,0.92c2.72,0.24,5.07-0.91,7.42-2.09c4.57-2.29,8.47-5.35,11.48-9.49
	c0.7-0.97,1.29-2.02,1.88-2.94c0.49,1.18,0.95,2.3,1.43,3.42c1.18,2.72,2.1,5.6,3.64,8.1c2,3.24,5.17,4.99,8.76,6.55
	C131.29,174.03,135.23,173.62,139.24,171.76z M131.67,161.39c-1.99-2.09-3.8-4.23-4.54-7.14c-0.76-2.95,0.45-5.62,0.91-8.57
	C132.01,149.97,133.66,157.26,131.67,161.39z M137.36,128.14c-0.68-0.28-1.61-0.01-2.4,0.15c-0.11,0.02-0.08,0.9-0.04,1.38
	c0.28,3.49,0.57,6.98,0.55,10.66c-2.41-3.46-4.83-6.91-7.29-10.44c4.95-1.08,7.01-5.1,9.25-8.62c2.27,3.27,4.61,6.65,7.11,10.25
	C141.96,130.28,139.7,129.11,137.36,128.14z M122.31,89.88c0.35-4.28,2.4-7.21,6.14-9.07C130.33,85.07,126.87,88.16,122.31,89.88z
	 M122.43,114.38c-2.75-2.51-3.67-5.53-2.42-9.1C123,105.86,123.56,109.74,122.43,114.38z M123.93,101.4
	c5.15-1.93,7.51,1.89,10.1,5.51C129.19,107.45,125.81,105.54,123.93,101.4z M142.91,91.21c3.4,0.36,5.14,3.74,5.02,6.52
	c-0.19,4.68-2.21,7.7-6.83,8.73C144.09,101.55,142.53,96.28,142.91,91.21z M152.97,114.49c0.07,0.18,0.2,0.34,0.22,0.52
	c0.25,2.04,0.49,4.08,0.77,6.43c-3.86-2.84-7.59-5.58-11.32-8.33c0.08-0.15,0.16-0.29,0.24-0.44c3.15-0.34,5.97-1.36,8.1-3.85
	c0.07-0.08,0.15-0.15,0.21-0.24c1.67-2.59,1.66-2.56,4.51-1.24c2.33,1.08,4.68,2.09,7.04,3.11c0.43,0.19,0.9,0.26,1.36,0.39
	c-0.11,0.19-0.22,0.39-0.33,0.58c-3.17,0.31-6.35,0.59-9.52,0.94c-0.63,0.07-1.24,0.38-1.85,0.59
	C152.59,113.46,152.78,113.98,152.97,114.49z M155.72,131c3.1,0.12,5.9,1.28,8.32,2.77c3.86,2.38,5.33,6.49,6.4,10.96
	C162.34,141.75,156.32,136.18,155.72,131z M186.25,104.8c-6.66,1.06-12.98,1.11-18.19-4.11C174.75,98.8,180.85,99.88,186.25,104.8z
	 M178.34,63.76c-4.33,4.28-9.14,7.28-15.2,7.53C166.25,65.1,171.7,63.36,178.34,63.76z M159.89,79.45c-1.36,2.78-2.64,5.39-4.01,8.2
	c3.15,1.27,6.39,2.58,9.56,3.87c-3.56,0.71-7.05,1.4-10.7,2.12c-0.73-3.89-2.97-6.37-6.12-8.54
	C152.46,83.17,156.09,81.35,159.89,79.45z M139.53,42.71c0.17-1.43,1.48-2.82,2.52-4.02c1.55-1.81,3.31-3.45,4.99-5.16
	c0.16,0.09,0.31,0.18,0.47,0.27c-0.41,2.36-0.74,4.74-1.26,7.08c-0.36,1.61-0.71,3.33-1.56,4.69c-0.97,1.57-2.49,2.81-3.77,4.19
	c-0.27,0.29-0.56,0.54-1.09,1.05C139.68,47.95,139.22,45.29,139.53,42.71z M145.53,58.24c0.1,0.05,0.21,0.11,0.31,0.16
	c-0.81,3.75-1.63,7.49-2.51,11.55c3.38-0.41,6.87-0.84,10.54-1.29c-4.09,3.18-7.92,6.16-11.6,9.02c-0.08-3.63-2.16-6.69-4.87-9.96
	C139.97,64.72,142.75,61.48,145.53,58.24z M131.69,96.22c-1.87,0.01-3.75-0.8-5.99-1.33c2.69-3.07,6.69-3.54,10.92-1.69
	C135.47,95.06,133.71,96.21,131.69,96.22z M134.88,75.36c0.37,1.17,0.51,2.42,0.83,4.08c-5.46-3.29-10.55-6.34-16.6-7.27
	c3.84-2.25,7.58-2.79,11.72-0.8C132.79,72.31,134.25,73.35,134.88,75.36z M118.99,52.18c0.15-0.03,0.31-0.06,0.46-0.09
	c1.04,2.92,2.08,5.84,3.26,9.19c0.61-0.35,1.42-0.59,1.9-1.13c1.54-1.73,2.93-3.59,4.44-5.35c0.5-0.59,1.18-1.02,1.82-1.56
	c-0.4,3.82-0.77,7.39-1.17,11.21c-3.95-0.63-7.77-0.44-11.73,1.67C118.33,61.27,118.66,56.72,118.99,52.18z M116.16,77.92
	c2.27,3.47,3.17,7.08,1.13,10.97C114.48,85.53,113.89,79.87,116.16,77.92z M115.13,103.55c0.12,0.07,0.17,0.4,0.13,0.59
	c-0.57,3.27-2.2,5.78-5.28,7.2c-0.82-4.05,0.57-6.62,4.34-7.93C114.55,103.33,114.9,103.42,115.13,103.55z M101.69,99.82
	c3.53-1.66,6.72-5.18,10.79-1.33C109.28,101.08,107.01,102.45,101.69,99.82z M112.62,92.5c-1.93,0.68-6.97-0.8-8.31-2.54
	c-0.76-0.99-1.23-2.21-1.92-3.51c2.6-0.64,4.68,0.3,6.8,0.93c2.15,0.64,2.94,2.53,3.84,4.28C113.12,91.83,112.84,92.42,112.62,92.5z
	 M97.34,88.51c-1.67-3.96-2.55-7.47,0.77-10.83c3.03-3.06,6.39-3.9,10.63-2.16C103.97,78.96,100.05,83.09,97.34,88.51z
	 M104.67,30.81c1.32,1.94,2.29,3.54,3.43,5.02c1.33,1.72,1.94,3.6,1.58,5.72c-0.39,2.35-0.91,4.67-1.36,6.94
	C103.41,43.33,103.4,37.33,104.67,30.81z M96.72,63.1c1.99,0.62,3.38,2.8,5.76,2.41c-0.45-4.39-0.88-8.59-1.31-12.79
	c0.14-0.02,0.29-0.04,0.43-0.06c3.32,5.48,6.63,10.96,9.93,16.42c-2.18-0.05-4.54-0.18-6.9-0.12c-1.88,0.04-3.76,0.32-5.65,0.46
	c-0.33,0.02-0.81-0.01-0.99-0.22c-1.81-2.1-3.57-4.25-5.34-6.38c-0.67-0.8-1.33-1.6-1.87-2.65C92.76,61.17,94.64,62.45,96.72,63.1z
	 M89.18,76.55c0.25,0.15,0.21,1.23-0.04,1.69c-1.75,3.28-1.76,6.64-0.64,10.52c-4.87-1.26-9.62-2.49-14.32-3.7
	c4.28-1.12,8.6-2.24,12.92-3.37c-2.97-3.68-5.71-7.07-8.44-10.45c0.15-0.13,0.3-0.26,0.45-0.39C82.49,72.72,85.87,74.58,89.18,76.55
	z M80.96,62.23c-4.8-0.29-10.43-5.35-11.51-10.37C75.8,52.51,78.62,57.16,80.96,62.23z M60.22,91.65c-2.72-0.48-5.18-2.41-7.75-3.7
	c6.25-3.03,11.4-0.66,16.43,2.96C65.99,91.22,62.98,92.15,60.22,91.65z M59.39,128.24c1.95-2.22,3.68-4.7,5.92-6.58
	c2.41-2.02,5.66-1.88,8.73-2.23C73.28,123.26,65.95,127.8,59.39,128.24z M75.86,110.62c-0.04-0.09-0.08-0.18-0.12-0.27
	c1.68-1.4,3.41-2.74,5.02-4.21c0.87-0.81,1.53-1.85,2.28-2.79c-1.01-0.43-1.98-1.01-3.03-1.27c-3.43-0.87-6.89-1.62-10.34-2.42
	c0-0.18,0-0.35,0-0.53c5.82-0.35,11.63-0.69,17.33-1.04c-0.66,1.84-1.43,3.43-1.75,5.1c-0.21,1.1,0.34,2.31,0.38,3.48
	c0.02,0.5-0.29,1.35-0.62,1.45C81.98,109.03,78.91,109.81,75.86,110.62z M92.74,154.78c-0.77-2.89,0.79-10.96,4.87-12.41
	C98.45,147.45,98.15,152.13,92.74,154.78z M91.08,133.59c-0.13-0.05-0.25-0.1-0.38-0.15c0.21-0.91,0.43-1.81,0.62-2.73
	c0.4-1.99,0.79-3.97,1.18-5.96c0.03-0.15-0.04-0.32-0.02-0.48c0.11-0.73,0.23-1.46,0.35-2.19c-1.05,0.17-2.15,0.2-3.15,0.53
	c-2.38,0.79-4.71,1.72-7.32,2.68c2.33-2.54,4.3-4.73,6.32-6.87c0.45-0.48,1.03-0.87,1.61-1.2c0.25-0.14,0.83-0.14,0.95,0.02
	c2.38,3.33,5.91,3.31,9.43,3.3c0.04,0,0.08,0.05,0.3,0.22C97.67,125.04,94.37,129.31,91.08,133.59z M94.5,110.34
	c-1.12-2-1.48-4.09-1.48-6.23c0-1.47,0.63-2.94,0.98-4.41c0.19,0.06,0.38,0.11,0.57,0.17c0.1,2.84,4.32,9.59,9.43,13.71
	C100.82,115.29,96.3,113.54,94.5,110.34z M118.87,133.16c-0.35,2.94-0.83,5.87-1.22,8.64c-0.66-2-1.4-4.06-2-6.17
	c-0.24-0.84-0.07-1.79-0.26-2.66c-0.16-0.72-0.58-1.97-0.88-1.97c-0.87,0.01-1.83,0.37-2.58,0.87c-1.74,1.15-3.37,2.46-5.06,3.68
	c-0.19,0.14-0.51,0.11-0.89,0.19c1.35-3.61,2.65-7.07,3.88-10.36c2.33,1.33,4.48,2.7,6.76,3.81
	C119.1,130.39,119.21,130.28,118.87,133.16z M116.28,121.27c4.88-0.28,9.7,0.05,14.29-2.15
	C128.78,124.95,122.61,127.22,116.28,121.27z"/>
<path class="st0" d="M841.75,133.83c-3.88-5.12-9.58-7.56-15.42-9.68c-1.15-0.42-2.31-0.82-3.71-1.31c1.76-1.35,3.48-2.37,4.82-3.77
	c2.14-2.24,3.95-4.8,6.03-7.1c2.02-2.23,3.13-4.76,3.33-7.75c0.4-6.06-2.73-10.58-7.72-12.48c-3.78-1.44-7.74-2.5-11.89-2.06
	c-2.96,0.31-6,0.22-8.68,1.96c-0.85,0.55-2.01,0.62-3.38,1.02c0.49-1.3,0.76-2.31,1.23-3.22c1.96-3.78,3.07-7.79,2.25-11.98
	c-0.52-2.63-1.67-5.19-2.85-7.63c-1.87-3.85-4.84-6.65-8.9-8.17c-2.54-0.95-4.99-1.21-7.73-0.22c-5.85,2.12-10.66,5.24-13.19,11.19
	c-0.64,1.49-1.39,2.94-2.2,4.64c-0.88-1.7-1.63-3.13-2.37-4.57c-2.02-3.91-3.66-7.94-6.72-11.36c-3.67-4.09-8.02-5.12-13.01-4.44
	c-3.42,0.47-6.06,2.34-8.43,5.04c-3.89,4.43-6.82,12.67-5.96,18.6c0.07,0.47-0.13,0.97-0.17,1.18c-2.66-1.32-5.22-2.74-7.91-3.87
	c-4.64-1.96-9.49-2.67-14.47-1.53c-1.23,0.28-2.5,0.81-3.51,1.55c-3.3,2.44-5.19,5.93-6.45,9.72c-1.16,3.5-0.53,7.02,0.35,10.51
	c1.27,5.04,3.52,9.51,7.19,12.82c-2.45,0.24-5.09,0.51-7.73,0.75c-4.59,0.42-8.35,2.71-11.74,5.57c-2.23,1.88-3.31,4.57-4.07,7.38
	c-0.79,2.91-0.39,5.78,0.64,8.42c1.77,4.54,5.63,7.13,9.84,9.13c3.2,1.52,6.51,2.78,9.93,4.23c-0.88,0.68-1.79,1.22-2.49,1.96
	c-2.41,2.53-5.05,4.91-7.02,7.75c-1.82,2.63-3.35,5.58-3.9,8.88c-0.57,3.41-0.1,6.5,2.09,9.32c1.57,2.03,3.69,3.28,5.78,4.61
	c3.27,2.08,6.95,2.87,10.65,2.07c3.97-0.85,7.79-2.38,11.78-3.64c-0.02,0.13-0.03,0.54-0.13,0.92c-0.3,1.13-0.81,2.23-0.93,3.37
	c-0.24,2.38-0.33,4.78-0.39,7.17c-0.07,2.99-0.23,5.99,0.9,8.87c1.49,3.84,3.94,6.94,7.7,8.58c1.84,0.8,4.09,0.73,6.17,0.92
	c2.72,0.24,5.07-0.91,7.42-2.09c4.57-2.29,8.47-5.35,11.48-9.49c0.7-0.97,1.29-2.02,1.88-2.94c0.49,1.18,0.95,2.3,1.43,3.42
	c1.18,2.72,2.1,5.6,3.64,8.1c2,3.24,5.17,4.99,8.76,6.55c4.42,1.92,8.36,1.51,12.37-0.35c6.08-2.82,8.37-8.47,9.71-14.42
	c0.65-2.89,0.13-6.03,0.15-9.05c-0.12-0.04,0.08-0.01,0.25,0.09c0.22,0.14,0.46,0.29,0.62,0.49c2.55,3.05,6,4.73,9.67,5.77
	c3.36,0.95,6.86,1.54,10.38,0.48c1.61-0.49,3.4-0.59,4.84-1.37c2.54-1.37,3.99-3.75,5.14-6.42c3.01-6.92,1.96-13.37-1.92-19.54
	c-1.43-2.27-3.07-4.4-4.54-6.47c3.81,0.19,7.58,0.07,11.4-1.43c4.43-1.75,7.55-4.4,9.7-8.65c1.73-3.42,2.89-6.83,2.14-10.6
	C843.5,137.35,842.88,135.32,841.75,133.83z M825.44,102.34c-4.33,4.28-9.14,7.28-15.2,7.53
	C813.35,103.67,818.8,101.94,825.44,102.34z M806.99,118.02c-1.36,2.78-2.64,5.39-4.01,8.2c3.15,1.27,6.39,2.58,9.56,3.87
	c-3.56,0.71-7.05,1.4-10.7,2.12c-0.73-3.89-2.97-6.37-6.12-8.54C799.56,121.74,803.19,119.92,806.99,118.02z M786.63,81.29
	c0.17-1.43,1.48-2.82,2.52-4.02c1.55-1.81,3.31-3.45,4.99-5.16c0.16,0.09,0.31,0.18,0.47,0.27c-0.41,2.36-0.74,4.74-1.26,7.08
	c-0.36,1.61-0.71,3.33-1.56,4.69c-0.97,1.57-2.49,2.81-3.77,4.19c-0.27,0.29-0.56,0.54-1.09,1.05
	C786.78,86.53,786.32,83.86,786.63,81.29z M792.63,96.82c0.1,0.05,0.21,0.11,0.31,0.16c-0.81,3.75-1.63,7.49-2.51,11.55
	c3.38-0.41,6.87-0.84,10.54-1.29c-4.09,3.18-7.92,6.16-11.6,9.02c-0.08-3.63-2.16-6.69-4.87-9.96
	C787.08,103.3,789.85,100.06,792.63,96.82z M790.01,129.79c3.4,0.36,5.14,3.74,5.02,6.52c-0.19,4.68-2.21,7.7-6.83,8.73
	C791.19,140.13,789.64,134.86,790.01,129.79z M769.41,128.46c0.35-4.28,2.4-7.21,6.14-9.07
	C777.43,123.65,773.97,126.73,769.41,128.46z M769.53,152.96c-2.75-2.51-3.67-5.53-2.42-9.1
	C770.1,144.43,770.66,148.32,769.53,152.96z M778.79,134.8c-1.87,0.01-3.75-0.8-5.99-1.33c2.69-3.07,6.69-3.54,10.92-1.69
	C782.57,133.64,780.81,134.79,778.79,134.8z M781.13,145.48c-4.84,0.54-8.22-1.37-10.1-5.51
	C776.18,138.05,778.54,141.86,781.13,145.48z M781.98,113.94c0.37,1.17,0.51,2.42,0.83,4.08c-5.46-3.29-10.55-6.34-16.6-7.27
	c3.84-2.25,7.58-2.79,11.72-0.8C779.89,110.89,781.35,111.92,781.98,113.94z M766.09,90.75c0.15-0.03,0.31-0.06,0.46-0.09
	c1.04,2.92,2.08,5.84,3.26,9.19c0.61-0.35,1.42-0.59,1.9-1.13c1.54-1.73,2.93-3.59,4.44-5.35c0.5-0.59,1.18-1.02,1.82-1.56
	c-0.4,3.82-0.77,7.39-1.17,11.21c-3.95-0.63-7.77-0.44-11.73,1.67C765.43,99.85,765.76,95.3,766.09,90.75z M763.26,116.5
	c2.27,3.47,3.17,7.08,1.13,10.97C761.58,124.11,760.99,118.44,763.26,116.5z M762.23,142.13c0.12,0.07,0.17,0.4,0.13,0.59
	c-0.57,3.27-2.2,5.78-5.28,7.2c-0.82-4.05,0.57-6.62,4.34-7.93C761.65,141.9,762,142,762.23,142.13z M748.79,138.4
	c3.53-1.66,6.72-5.18,10.79-1.33C756.38,139.66,754.11,141.03,748.79,138.4z M759.72,131.07c-1.93,0.68-6.97-0.8-8.31-2.54
	c-0.76-0.99-1.23-2.21-1.92-3.51c2.6-0.64,4.68,0.3,6.8,0.93c2.15,0.64,2.94,2.53,3.84,4.28C760.23,130.41,759.94,131,759.72,131.07
	z M744.44,127.08c-1.67-3.96-2.55-7.47,0.77-10.83c3.03-3.06,6.39-3.9,10.63-2.16C751.07,117.53,747.15,121.67,744.44,127.08z
	 M751.77,69.39c1.32,1.94,2.29,3.54,3.43,5.02c1.33,1.72,1.94,3.6,1.58,5.72c-0.39,2.35-0.91,4.67-1.36,6.94
	C750.51,81.91,750.5,75.91,751.77,69.39z M743.82,101.67c1.99,0.62,3.38,2.8,5.76,2.41c-0.45-4.39-0.88-8.59-1.31-12.79
	c0.14-0.02,0.29-0.04,0.43-0.06c3.32,5.48,6.63,10.96,9.93,16.42c-2.18-0.05-4.54-0.18-6.9-0.12c-1.88,0.04-3.76,0.32-5.65,0.46
	c-0.33,0.02-0.81-0.01-0.99-0.22c-1.81-2.1-3.57-4.25-5.34-6.38c-0.67-0.8-1.33-1.6-1.87-2.65
	C739.86,99.75,741.74,101.02,743.82,101.67z M736.28,115.12c0.25,0.15,0.21,1.23-0.04,1.69c-1.75,3.28-1.76,6.64-0.64,10.52
	c-4.87-1.26-9.62-2.49-14.32-3.7c4.28-1.12,8.6-2.24,12.92-3.37c-2.97-3.68-5.71-7.07-8.44-10.45c0.15-0.13,0.3-0.26,0.45-0.39
	C729.59,111.3,732.97,113.15,736.28,115.12z M728.07,100.81c-4.8-0.29-10.43-5.35-11.51-10.37
	C722.9,91.08,725.72,95.74,728.07,100.81z M707.32,130.23c-2.72-0.48-5.18-2.41-7.75-3.7c6.25-3.03,11.4-0.66,16.43,2.96
	C713.09,129.8,710.08,130.72,707.32,130.23z M706.49,166.81c1.95-2.22,3.68-4.7,5.92-6.58c2.41-2.02,5.66-1.88,8.73-2.23
	C720.38,161.84,713.05,166.38,706.49,166.81z M722.96,149.2c-0.04-0.09-0.08-0.18-0.12-0.27c1.68-1.4,3.41-2.74,5.02-4.21
	c0.87-0.81,1.53-1.85,2.28-2.79c-1.01-0.43-1.98-1.01-3.03-1.27c-3.43-0.87-6.89-1.62-10.34-2.42c0-0.18,0-0.35,0-0.53
	c5.82-0.35,11.63-0.69,17.33-1.04c-0.66,1.84-1.43,3.42-1.75,5.1c-0.21,1.1,0.34,2.31,0.38,3.48c0.02,0.5-0.29,1.35-0.62,1.45
	C729.08,147.61,726.02,148.38,722.96,149.2z M739.84,193.35c-0.77-2.89,0.79-10.96,4.87-12.41
	C745.55,186.03,745.25,190.71,739.84,193.35z M738.18,172.16c-0.13-0.05-0.25-0.1-0.38-0.15c0.21-0.91,0.43-1.81,0.62-2.73
	c0.4-1.99,0.79-3.97,1.18-5.96c0.03-0.15-0.04-0.32-0.02-0.48c0.11-0.73,0.23-1.46,0.35-2.19c-1.05,0.17-2.15,0.2-3.15,0.53
	c-2.38,0.79-4.71,1.72-7.32,2.68c2.33-2.54,4.3-4.73,6.32-6.87c0.45-0.48,1.03-0.87,1.61-1.2c0.25-0.14,0.83-0.14,0.95,0.02
	c2.38,3.33,5.91,3.31,9.43,3.3c0.04,0,0.08,0.05,0.3,0.22C744.77,163.61,741.47,167.89,738.18,172.16z M741.61,148.91
	c-1.12-2-1.48-4.09-1.48-6.23c0-1.47,0.63-2.94,0.98-4.41c0.19,0.06,0.38,0.11,0.57,0.17c0.1,2.84,4.32,9.59,9.43,13.71
	C747.92,153.86,743.4,152.11,741.61,148.91z M765.97,171.73c-0.35,2.94-0.83,5.87-1.22,8.64c-0.66-2-1.4-4.06-2-6.17
	c-0.24-0.84-0.07-1.79-0.26-2.66c-0.16-0.72-0.58-1.97-0.88-1.97c-0.87,0.01-1.83,0.37-2.58,0.87c-1.74,1.15-3.37,2.46-5.06,3.68
	c-0.19,0.14-0.51,0.11-0.89,0.19c1.35-3.61,2.65-7.07,3.88-10.36c2.33,1.33,4.48,2.7,6.76,3.81
	C766.2,168.96,766.31,168.86,765.97,171.73z M763.38,159.85c4.88-0.28,9.7,0.05,14.29-2.15
	C775.88,163.53,769.71,165.8,763.38,159.85z M778.77,199.96c-1.99-2.09-3.8-4.23-4.54-7.14c-0.76-2.95,0.45-5.62,0.91-8.57
	C779.11,188.55,780.76,195.84,778.77,199.96z M784.46,166.72c-0.68-0.28-1.61-0.01-2.4,0.15c-0.11,0.02-0.08,0.9-0.04,1.38
	c0.28,3.49,0.57,6.98,0.55,10.66c-2.41-3.46-4.83-6.91-7.29-10.44c4.95-1.08,7.01-5.1,9.25-8.62c2.27,3.27,4.61,6.65,7.11,10.25
	C789.06,168.86,786.8,167.69,784.46,166.72z M800.07,153.07c0.07,0.18,0.2,0.34,0.22,0.52c0.25,2.04,0.49,4.08,0.77,6.43
	c-3.86-2.84-7.59-5.58-11.32-8.33c0.08-0.15,0.16-0.29,0.24-0.44c3.15-0.34,5.97-1.36,8.1-3.85c0.07-0.08,0.15-0.15,0.21-0.24
	c1.67-2.59,1.66-2.56,4.51-1.24c2.33,1.08,4.68,2.09,7.04,3.11c0.43,0.19,0.9,0.26,1.36,0.39c-0.11,0.19-0.22,0.39-0.33,0.58
	c-3.17,0.31-6.35,0.59-9.52,0.94c-0.63,0.07-1.24,0.38-1.85,0.59C799.69,152.04,799.88,152.55,800.07,153.07z M802.82,169.57
	c3.1,0.12,5.9,1.28,8.32,2.77c3.86,2.38,5.33,6.49,6.4,10.96C809.44,180.33,803.42,174.76,802.82,169.57z M815.17,139.26
	c6.69-1.89,12.79-0.81,18.19,4.11C826.69,144.43,820.37,144.49,815.17,139.26z"/>
<path class="st0" d="M214.45,390.37c-6.07-11.06-16.76-16.97-28.93-14.97c-4.28,0.7-9.03,2.09-12.29,4.74
	c-10.77,8.77-17.3,20.27-18.89,34.25c-0.17,2.13-0.58,4.27-0.45,6.38c0.43,7.55,0.65,15.14,1.7,22.62
	c1.22,8.67,3.12,17.26,4.95,25.84c0.68,3.18,1.84,3.36,4.33,1.23c0.31-0.27,0.63-0.55,0.98-0.75c9.8-5.62,19.09-11.94,27.66-19.35
	c6.73-5.81,13.83-11.14,19.11-18.51c3.39-4.73,5-10.03,5.85-15.49c0.57-3.66-0.44-7.55-0.47-11.34
	C217.97,399.94,216.91,394.86,214.45,390.37z M185.03,399.26c0.26,0.3,0.51,0.6,0.77,0.89c-4.54,4.69-9.09,9.37-13.63,14.06
	C172.26,407.75,178.34,400.21,185.03,399.26z M165.41,431.81c-0.2-0.2-0.41-0.4-0.61-0.59c1.92-4.15,4.15-8,8.85-9.42
	c0.24,0.23,0.48,0.47,0.72,0.7C171.39,425.61,168.4,428.71,165.41,431.81z M173.82,443.24c4.34-15.1,9.54-29.49,18.15-42.62
	C193.75,406.31,179.82,439.61,173.82,443.24z M189.2,440.96c-0.38-0.08-0.76-0.16-1.13-0.24c0.79-5.3,1.58-10.6,2.44-16.37
	C192.63,430.48,193.56,436.01,189.2,440.96z M197.43,424.89c-3.72-5.02-4.06-15.19,0.6-21.69
	C203.12,408.97,202.92,419.35,197.43,424.89z"/>
<path class="st0" d="M401.66,154.23c-1.1-0.34-2.23-0.57-3.34-0.87c-3.53-0.92-7.04-1.87-10.58-2.77
	c-5.6-1.43-11.24-1.64-16.91-0.43c-0.52,0.11-1.07,0.1-1.29,0.12c0.46-3.25,1-6.37,1.32-9.52c0.27-2.62,0.56-5.29,0.37-7.9
	c-0.24-3.23-0.9-6.43-1.48-9.62c-1.4-7.71-4.59-14.63-9.34-20.84c-0.85-1.11-1.64-2.26-2.38-3.45c-0.49-0.79-0.99-0.9-1.87-0.59
	c-2.89,1.01-5.35,2.74-7.79,4.52c-3.42,2.49-6.95,4.85-10.15,7.58c-3.01,2.57-5.75,5.49-8.46,8.4c-1.86,2-3.71,4.1-5.12,6.42
	c-2.06,3.41-3.72,7.07-5.56,10.64c-0.4-0.44-1.02-1.17-1.68-1.86c-3.96-4.18-8.45-7.53-14.06-9.26c-2.22-0.69-4.29-1.86-6.47-2.71
	c-1.68-0.65-3.44-1.11-5.14-1.72c-0.61-0.22-1.13-0.79-1.73-0.89c-0.53-0.08-1.43,0.09-1.66,0.46c-0.6,0.98-1.11,2.09-1.3,3.21
	c-0.58,3.25-1.18,6.51-1.4,9.79c-0.24,3.56-0.2,7.16,0,10.73c0.18,3.19,0.69,6.33,1.54,9.46c1.04,3.8,2.71,7.24,4.57,10.66
	c1.25,2.3,2.15,4.79,3.31,7.14c1.35,2.73,3.1,5.18,5.51,7.1c4.24,3.37,8.4,6.85,12.74,10.07c3.84,2.84,7.93,5.26,12.63,6.56
	c1.94,0.54,3.68,1.91,5.62,2.27c4.79,0.87,9.49,2.35,14.49,1.85c3.2-0.32,6.49,0.17,9.67-0.24c3.55-0.46,7.2-1.07,10.48-2.43
	c3.57-1.48,6.97-3.59,10.04-5.95c3.64-2.81,7.03-6.02,10.19-9.36c2.3-2.43,4.21-5.28,6.02-8.11c2.47-3.87,4.68-7.9,7.02-11.86
	c0.98-1.66,2-3.29,2.96-4.96C402.92,155.03,402.45,154.47,401.66,154.23z M313.54,171.38c-2.89-2.54-6.17-4.78-8.58-7.72
	c-2.37-2.89-4.2-6.36-5.67-9.83c-2.31-5.45-2.79-9.22-2.06-10.87c4.45,10.1,9.62,19.68,16.92,28
	C313.96,171.1,313.75,171.24,313.54,171.38z M361.12,136.19c-1.04,6.51-4.14,11.36-10.04,14.14
	C351.19,148.54,356.55,140.95,361.12,136.19z M324.2,146.92c0.85,6.39,1.73,13.02,2.59,19.49
	C319.41,158.46,321.19,152.91,324.2,146.92z M333.88,127.7c-0.33,2.88-0.63,5.69-1,8.49c-0.36,2.83-0.79,5.66-1.23,8.76
	C327.97,136.81,329.79,130.18,333.88,127.7z M343.57,149.87c-0.54,1.99-1.18,3.95-1.77,5.93c-1.15,3.9-2.23,7.83-3.44,11.71
	c-0.97,3.12-1.98,6.23-3.17,9.27c-0.6,1.54-1.66,2.89-2.51,4.33c-0.17-0.07-0.33-0.14-0.5-0.21c0.41-3.34,0.57-6.73,1.29-9.99
	c1.03-4.66,2.33-9.28,3.8-13.83c1.83-5.68,3.94-11.27,5.95-16.88c1.16-3.23,2.36-6.44,3.56-9.65c0.68-1.83,1.42-3.63,2.12-5.45
	c0.1,0.02,0.19,0.04,0.29,0.05c0.02,0.31,0.11,0.64,0.05,0.94c-0.83,3.91-1.6,7.84-2.54,11.73
	C345.75,141.86,344.65,145.86,343.57,149.87z M347.84,171.96c-1.08,0.38-2.21,0.61-3.32,0.91c-0.03-0.1-0.06-0.2-0.08-0.31
	c5.01-5.22,10.01-10.45,15.02-15.67c0.12,0.04,0.24,0.08,0.35,0.11c-0.91,2.09-1.7,4.24-2.77,6.25c-0.56,1.06-1.68,1.82-2.39,2.82
	C352.84,168.59,350.87,170.88,347.84,171.96z M371.82,179.34c-1.49,1.3-3.19,2.5-5.01,3.25c-4.59,1.9-8.84,1.84-14.26,0.7
	c0.11-0.12,0.2-0.29,0.31-0.31c2.31-0.49,4.74-0.66,6.92-1.5c3.75-1.44,7.37-3.26,11-4.99c2.37-1.13,4.68-2.4,7.02-3.61
	c0.06,0.11,0.13,0.21,0.19,0.32C375.95,175.25,374.01,177.43,371.82,179.34z"/>
<path class="st0" d="M941.77,61.04c-2.88-1.05-5.88-1.27-8.89-1.44c-4.22-0.24-8.45-0.65-12.66-0.57c-3.96,0.08-7.93,0.6-11.86,1.14
	c-2.71,0.37-5.47,0.82-8.03,1.72c-3.76,1.33-7.36,3.11-11.05,4.71c-0.03-0.59-0.05-1.55-0.12-2.51c-0.41-5.75-1.76-11.18-5.01-16.07
	c-1.28-1.94-2.14-4.16-3.29-6.19c-0.89-1.57-1.95-3.04-2.88-4.59c-0.33-0.55-0.37-1.32-0.78-1.78c-0.36-0.4-1.16-0.83-1.57-0.69
	c-1.08,0.38-2.18,0.92-3.04,1.66c-2.5,2.15-5.04,4.28-7.29,6.68c-2.44,2.61-4.7,5.41-6.8,8.3c-1.88,2.58-3.48,5.33-4.8,8.3
	c-1.6,3.6-2.49,7.32-3.22,11.14c-0.49,2.57-1.38,5.07-1.96,7.62c-0.68,2.97-0.89,5.97-0.24,8.98c1.14,5.29,2.16,10.62,3.47,15.87
	c1.16,4.63,2.8,9.1,5.61,13.08c1.16,1.64,1.63,3.81,2.91,5.32c3.15,3.7,5.85,7.83,10.04,10.62c2.68,1.78,4.91,4.24,7.63,5.94
	c3.03,1.9,6.25,3.74,9.64,4.76c3.69,1.12,7.67,1.64,11.54,1.76c4.6,0.14,9.25-0.2,13.82-0.78c3.32-0.42,6.6-1.41,9.8-2.46
	c4.36-1.42,8.63-3.14,12.94-4.73c1.81-0.66,3.63-1.27,5.43-1.96c0.89-0.34,0.88-1.07,0.43-1.75c-0.64-0.96-1.36-1.86-2.04-2.79
	c-2.14-2.95-4.26-5.91-6.42-8.85c-3.43-4.65-7.65-8.39-12.81-11.05c-0.48-0.25-0.89-0.6-1.07-0.72c2.41-2.22,4.81-4.3,7.06-6.53
	c1.87-1.86,3.79-3.74,5.29-5.88c1.86-2.65,3.38-5.54,4.95-8.38c3.8-6.85,5.72-14.22,5.98-22.04c0.05-1.4,0.16-2.79,0.35-4.18
	C942.96,61.76,942.64,61.36,941.77,61.04z M863.25,90.58c-0.25-0.02-0.49-0.05-0.74-0.07c-0.63-3.8-1.74-7.6-1.74-11.41
	c0-3.74,0.78-7.58,1.85-11.2c1.67-5.68,3.68-8.9,5.3-9.71C864.95,68.83,862.87,79.52,863.25,90.58z M905.92,69.61
	c-2.08,2.01-4.1,4-6.15,5.94c-2.08,1.96-4.2,3.88-6.5,6C895.57,72.92,901.18,68.94,905.92,69.61z M886.25,78.34
	c-3.39,5.48-6.91,11.17-10.35,16.72C875.23,84.23,880.12,81.07,886.25,78.34z M875.83,108.42c-1.44,0.81-3.12,1.19-4.68,1.76
	c-0.08-0.16-0.17-0.32-0.25-0.48c2.43-2.32,4.7-4.84,7.33-6.91c3.76-2.95,7.69-5.7,11.7-8.29c5.01-3.23,10.18-6.22,15.3-9.29
	c2.94-1.76,5.91-3.49,8.87-5.21c1.69-0.98,3.4-1.91,5.1-2.87c0.06,0.08,0.13,0.15,0.19,0.23c-0.18,0.25-0.32,0.57-0.55,0.76
	c-3.12,2.5-6.21,5.05-9.39,7.46c-3.31,2.51-6.7,4.91-10.08,7.32c-1.68,1.2-3.42,2.3-5.12,3.47c-3.36,2.29-6.69,4.64-10.08,6.88
	C881.43,105.05,878.67,106.82,875.83,108.42z M907.2,108.4c0.07,0.1,0.13,0.21,0.2,0.31c-2.03,1.04-4.01,2.2-6.1,3.08
	c-1.11,0.47-2.45,0.34-3.64,0.66c-2.99,0.8-5.97,1.33-8.99,0.24c-1.08-0.39-2.1-0.93-3.15-1.4c0.04-0.1,0.09-0.19,0.13-0.29
	C892.84,110.13,900.02,109.27,907.2,108.4z M911.22,132.76c-2.89,0.3-5.78,0.75-8.68,0.84c-1.97,0.06-4.05-0.09-5.93-0.66
	c-4.75-1.44-8-4.18-11.47-8.49c0.17-0.02,0.34-0.1,0.44-0.05c2.1,1.09,4.09,2.49,6.3,3.22c3.82,1.26,7.76,2.15,11.67,3.11
	c2.55,0.63,5.15,1.11,7.72,1.66C911.26,132.52,911.24,132.64,911.22,132.76z M904.87,98.02c1.23-1.31,10.18-3.79,16.73-4.58
	C916.67,97.81,911.2,99.6,904.87,98.02z"/>
<path class="st0" d="M1097.49,281.37c-5.03-6.64-12.41-9.81-19.98-12.55c-1.49-0.54-3-1.06-4.81-1.7c2.28-1.75,4.51-3.08,6.24-4.89
	c2.77-2.91,5.12-6.22,7.81-9.2c2.62-2.89,4.06-6.17,4.32-10.04c0.52-7.85-3.54-13.72-10.01-16.18c-4.9-1.87-10.03-3.24-15.41-2.67
	c-3.84,0.4-7.77,0.29-11.25,2.54c-1.1,0.71-2.6,0.81-4.38,1.32c0.64-1.69,0.99-3,1.6-4.17c2.55-4.89,3.98-10.1,2.92-15.52
	c-0.67-3.41-2.16-6.73-3.69-9.89c-2.42-4.98-6.27-8.62-11.54-10.59c-3.29-1.23-6.46-1.57-10.02-0.28
	c-7.59,2.74-13.82,6.8-17.1,14.51c-0.82,1.94-1.8,3.81-2.85,6.01c-1.15-2.21-2.12-4.06-3.07-5.92c-2.62-5.07-4.75-10.3-8.72-14.72
	c-4.76-5.3-10.4-6.64-16.86-5.76c-4.43,0.6-7.85,3.03-10.93,6.53c-5.05,5.74-8.84,16.42-7.73,24.1c0.09,0.6-0.17,1.26-0.22,1.53
	c-3.45-1.71-6.77-3.55-10.25-5.02c-6.02-2.55-12.31-3.47-18.76-1.98c-1.59,0.37-3.24,1.05-4.54,2.01c-4.28,3.16-6.72,7.68-8.36,12.6
	c-1.51,4.53-0.69,9.1,0.45,13.62c1.64,6.53,4.57,12.32,9.32,16.61c-3.18,0.31-6.6,0.66-10.02,0.97c-5.96,0.55-10.82,3.51-15.22,7.22
	c-2.89,2.43-4.28,5.92-5.28,9.56c-1.03,3.77-0.5,7.49,0.83,10.92c2.29,5.88,7.29,9.24,12.75,11.83c4.14,1.96,8.44,3.61,12.87,5.48
	c-1.14,0.88-2.32,1.59-3.23,2.54c-3.12,3.27-6.55,6.36-9.09,10.05c-2.36,3.41-4.34,7.23-5.06,11.51c-0.74,4.42-0.13,8.42,2.7,12.08
	c2.04,2.64,4.79,4.25,7.49,5.97c4.24,2.7,9.01,3.72,13.81,2.68c5.14-1.11,10.1-3.08,15.27-4.72c-0.02,0.17-0.04,0.69-0.17,1.19
	c-0.39,1.46-1.05,2.89-1.2,4.37c-0.31,3.08-0.43,6.19-0.5,9.3c-0.09,3.87-0.29,7.77,1.16,11.5c1.94,4.97,5.11,8.99,9.98,11.12
	c2.39,1.04,5.3,0.95,7.99,1.19c3.52,0.31,6.57-1.17,9.62-2.71c5.92-2.97,10.98-6.94,14.88-12.3c0.91-1.25,1.67-2.62,2.43-3.81
	c0.64,1.53,1.23,2.99,1.86,4.43c1.53,3.52,2.72,7.26,4.72,10.5c2.59,4.2,6.71,6.47,11.35,8.48c5.74,2.49,10.84,1.96,16.04-0.45
	c7.89-3.65,10.85-10.97,12.58-18.69c0.84-3.74,0.17-7.82,0.19-11.73c-0.15-0.05,0.11-0.01,0.32,0.12c0.29,0.18,0.59,0.38,0.81,0.64
	c3.31,3.96,7.77,6.13,12.54,7.48c4.36,1.23,8.89,2,13.45,0.62c2.09-0.63,4.41-0.76,6.28-1.77c3.29-1.78,5.17-4.86,6.67-8.32
	c3.9-8.97,2.54-17.33-2.49-25.33c-1.85-2.94-3.98-5.7-5.88-8.39c4.94,0.24,9.82,0.1,14.78-1.86c5.74-2.26,9.78-5.7,12.57-11.21
	c2.25-4.43,3.75-8.86,2.77-13.75C1099.76,285.93,1098.95,283.31,1097.49,281.37z M1076.34,240.56c-5.61,5.55-11.84,9.43-19.7,9.76
	C1060.67,242.29,1067.73,240.04,1076.34,240.56z M1052.42,260.89c-1.76,3.6-3.42,6.99-5.19,10.63c4.08,1.65,8.28,3.35,12.4,5.01
	c-4.61,0.91-9.13,1.81-13.87,2.75c-0.94-5.05-3.85-8.26-7.93-11.07C1042.8,265.71,1047.5,263.35,1052.42,260.89z M1026.03,213.27
	c0.22-1.85,1.92-3.65,3.26-5.21c2.01-2.35,4.3-4.47,6.46-6.69c0.2,0.12,0.4,0.23,0.61,0.35c-0.53,3.06-0.95,6.14-1.63,9.17
	c-0.46,2.09-0.92,4.31-2.02,6.08c-1.26,2.04-3.22,3.64-4.89,5.43c-0.35,0.37-0.73,0.71-1.41,1.36
	C1026.23,220.06,1025.63,216.61,1026.03,213.27z M1033.81,233.4c0.14,0.07,0.27,0.14,0.41,0.21c-1.06,4.86-2.11,9.71-3.25,14.97
	c4.38-0.54,8.9-1.09,13.66-1.68c-5.31,4.13-10.26,7.98-15.03,11.69c-0.11-4.71-2.8-8.67-6.32-12.91
	C1026.61,241.8,1030.21,237.6,1033.81,233.4z M1030.42,276.13c4.4,0.47,6.66,4.85,6.51,8.45c-0.25,6.06-2.87,9.97-8.86,11.32
	C1031.94,289.54,1029.93,282.71,1030.42,276.13z M1003.71,274.41c0.45-5.54,3.11-9.35,7.96-11.75
	C1014.11,268.18,1009.63,272.18,1003.71,274.41z M1003.88,306.17c-3.57-3.26-4.75-7.17-3.13-11.8
	C1004.61,295.12,1005.33,300.15,1003.88,306.17z M1015.88,282.63c-2.43,0.01-4.86-1.03-7.77-1.73c3.49-3.98,8.67-4.59,14.15-2.19
	C1020.78,281.13,1018.49,282.62,1015.88,282.63z M1018.91,296.48c-6.27,0.7-10.66-1.78-13.1-7.15
	C1012.49,286.84,1015.54,291.78,1018.91,296.48z M1020.01,255.59c0.48,1.52,0.65,3.14,1.08,5.29c-7.08-4.26-13.67-8.22-21.52-9.42
	c4.98-2.91,9.83-3.62,15.2-1.04C1017.3,251.64,1019.19,252.98,1020.01,255.59z M999.42,225.54c0.2-0.04,0.4-0.08,0.6-0.11
	c1.35,3.79,2.69,7.57,4.23,11.91c0.79-0.45,1.84-0.77,2.47-1.47c2-2.24,3.8-4.65,5.75-6.94c0.65-0.76,1.53-1.32,2.36-2.02
	c-0.52,4.95-1,9.58-1.52,14.53c-5.12-0.82-10.07-0.58-15.21,2.16C998.55,237.33,998.98,231.44,999.42,225.54z M995.74,258.91
	c2.94,4.49,4.12,9.17,1.46,14.23C993.56,268.78,992.81,261.43,995.74,258.91z M994.41,292.13c0.16,0.09,0.21,0.52,0.17,0.77
	c-0.74,4.24-2.85,7.49-6.85,9.33c-1.07-5.25,0.74-8.59,5.62-10.28C993.66,291.84,994.11,291.97,994.41,292.13z M976.99,287.3
	c4.57-2.15,8.71-6.72,13.99-1.73C986.82,288.93,983.88,290.71,976.99,287.3z M991.15,277.81c-2.51,0.88-9.04-1.03-10.77-3.3
	c-0.99-1.29-1.59-2.87-2.49-4.54c3.37-0.83,6.07,0.39,8.82,1.21c2.79,0.83,3.81,3.28,4.98,5.55
	C991.81,276.94,991.44,277.7,991.15,277.81z M971.35,272.63c-2.17-5.13-3.31-9.68,1-14.04c3.93-3.97,8.28-5.06,13.78-2.8
	C979.95,260.25,974.87,265.61,971.35,272.63z M980.85,197.85c1.71,2.52,2.97,4.59,4.44,6.51c1.72,2.23,2.51,4.67,2.05,7.42
	c-0.51,3.04-1.18,6.05-1.76,9C979.22,214.07,979.21,206.3,980.85,197.85z M970.55,239.7c2.58,0.81,4.38,3.64,7.46,3.13
	c-0.58-5.69-1.14-11.13-1.7-16.58c0.19-0.02,0.38-0.05,0.56-0.07c4.3,7.1,8.6,14.21,12.87,21.28c-2.83-0.06-5.89-0.23-8.94-0.16
	c-2.44,0.06-4.88,0.42-7.32,0.6c-0.43,0.03-1.05-0.02-1.29-0.29c-2.34-2.73-4.62-5.51-6.92-8.27c-0.86-1.04-1.72-2.08-2.42-3.44
	C965.41,237.2,967.85,238.85,970.55,239.7z M960.77,257.13c0.32,0.19,0.27,1.59-0.05,2.19c-2.27,4.25-2.28,8.61-0.83,13.63
	c-6.31-1.63-12.48-3.23-18.56-4.8c5.55-1.45,11.14-2.9,16.75-4.37c-3.86-4.77-7.4-9.16-10.94-13.54c0.2-0.17,0.39-0.34,0.59-0.51
	C952.1,252.17,956.48,254.57,960.77,257.13z M950.12,238.57c-6.22-0.38-13.52-6.94-14.92-13.44
	C943.43,225.97,947.09,232,950.12,238.57z M923.23,276.71c-3.52-0.63-6.71-3.12-10.05-4.79c8.1-3.93,14.78-0.85,21.3,3.84
	C930.72,276.15,926.81,277.35,923.23,276.71z M922.16,324.13c2.53-2.87,4.77-6.1,7.67-8.53c3.13-2.62,7.33-2.44,11.31-2.89
	C940.16,317.68,930.66,323.57,922.16,324.13z M943.5,301.3c-0.05-0.12-0.1-0.23-0.15-0.35c2.18-1.81,4.42-3.55,6.5-5.46
	c1.13-1.05,1.98-2.4,2.96-3.61c-1.3-0.56-2.56-1.31-3.92-1.65c-4.45-1.12-8.93-2.1-13.4-3.13c0-0.23,0-0.45,0-0.68
	c7.54-0.45,15.08-0.9,22.47-1.34c-0.85,2.38-1.86,4.44-2.27,6.61c-0.27,1.42,0.43,3,0.49,4.51c0.02,0.64-0.37,1.75-0.81,1.88
	C951.44,299.24,947.47,300.24,943.5,301.3z M965.38,358.53c-1-3.74,1.02-14.21,6.32-16.08C972.79,349.03,972.4,355.1,965.38,358.53z
	 M963.23,331.06c-0.16-0.07-0.33-0.13-0.49-0.2c0.27-1.18,0.56-2.35,0.8-3.54c0.52-2.57,1.03-5.15,1.53-7.73
	c0.04-0.2-0.05-0.42-0.02-0.62c0.14-0.95,0.3-1.89,0.45-2.84c-1.37,0.22-2.79,0.26-4.08,0.69c-3.08,1.02-6.11,2.22-9.49,3.48
	c3.02-3.29,5.58-6.13,8.2-8.91c0.59-0.63,1.34-1.13,2.09-1.56c0.32-0.18,1.08-0.18,1.23,0.03c3.08,4.32,7.65,4.28,12.23,4.28
	c0.05,0,0.1,0.07,0.39,0.28C971.77,319.98,967.5,325.52,963.23,331.06z M967.67,300.93c-1.45-2.59-1.92-5.3-1.91-8.07
	c0.01-1.91,0.82-3.81,1.27-5.72c0.25,0.07,0.5,0.14,0.74,0.22c0.13,3.68,5.59,12.44,12.23,17.77
	C975.86,307.34,970,305.08,967.67,300.93z M999.26,330.51c-0.45,3.81-1.07,7.61-1.59,11.2c-0.85-2.59-1.82-5.27-2.59-8
	c-0.31-1.09-0.09-2.33-0.34-3.44c-0.21-0.94-0.75-2.56-1.13-2.55c-1.13,0.01-2.38,0.48-3.35,1.12c-2.25,1.49-4.36,3.19-6.56,4.77
	c-0.25,0.18-0.66,0.15-1.15,0.25c1.76-4.68,3.43-9.16,5.03-13.43c3.02,1.72,5.81,3.5,8.77,4.94
	C999.55,326.91,999.7,326.78,999.26,330.51z M995.9,315.1c6.33-0.36,12.57,0.07,18.52-2.79C1012.1,319.87,1004.1,322.81,995.9,315.1
	z M1015.85,367.1c-2.59-2.71-4.92-5.49-5.89-9.26c-0.98-3.82,0.59-7.28,1.18-11.11C1016.29,352.3,1018.43,361.75,1015.85,367.1z
	 M1023.22,324.01c-0.88-0.36-2.09-0.01-3.11,0.2c-0.14,0.03-0.1,1.17-0.05,1.79c0.36,4.52,0.74,9.05,0.71,13.82
	c-3.13-4.48-6.26-8.96-9.45-13.54c6.42-1.4,9.09-6.61,11.99-11.18c2.94,4.24,5.97,8.62,9.22,13.29
	C1029.18,326.78,1026.26,325.26,1023.22,324.01z M1043.46,306.31c0.09,0.23,0.25,0.44,0.28,0.67c0.33,2.64,0.64,5.28,1,8.33
	c-5-3.68-9.84-7.24-14.67-10.8c0.1-0.19,0.21-0.38,0.31-0.57c4.08-0.44,7.74-1.77,10.5-4.99c0.09-0.1,0.2-0.2,0.27-0.31
	c2.17-3.36,2.15-3.32,5.84-1.61c3.02,1.4,6.07,2.71,9.12,4.04c0.56,0.24,1.17,0.34,1.76,0.5c-0.14,0.25-0.29,0.51-0.43,0.76
	c-4.11,0.4-8.23,0.77-12.34,1.22c-0.82,0.09-1.6,0.5-2.4,0.76C1042.96,304.98,1043.21,305.65,1043.46,306.31z M1047.02,327.71
	c4.02,0.15,7.65,1.65,10.79,3.59c5,3.09,6.91,8.41,8.29,14.2C1055.6,341.65,1047.8,334.43,1047.02,327.71z M1063.02,288.42
	c8.67-2.44,16.57-1.04,23.57,5.33C1077.97,295.12,1069.77,295.19,1063.02,288.42z"/>
<path class="st0" d="M1271.97,49.44c-5.03-6.64-12.41-9.81-19.98-12.55c-1.49-0.54-3-1.06-4.81-1.7c2.28-1.75,4.51-3.08,6.24-4.89
	c2.77-2.91,5.12-6.22,7.81-9.2c2.62-2.89,4.06-6.17,4.32-10.04c0.52-7.85-3.54-13.72-10.01-16.18c-4.9-1.87-10.03-3.24-15.41-2.67
	c-3.84,0.4-7.77,0.29-11.25,2.54c-1.1,0.71-2.6,0.81-4.38,1.32c0.64-1.69,0.99-3,1.6-4.17c2.55-4.89,3.98-10.1,2.92-15.52
	c-0.67-3.41-2.16-6.73-3.69-9.89c-2.42-4.98-6.27-8.62-11.54-10.59c-3.29-1.23-6.46-1.57-10.02-0.28
	c-7.59,2.74-13.82,6.8-17.1,14.51c-0.82,1.94-1.8,3.81-2.85,6.01c-1.15-2.21-2.12-4.06-3.07-5.92c-2.62-5.07-4.75-10.3-8.72-14.72
	c-4.76-5.3-10.4-6.64-16.86-5.76c-4.43,0.6-7.85,3.03-10.93,6.53c-5.05,5.74-8.84,16.42-7.73,24.1c0.09,0.6-0.17,1.26-0.22,1.53
	c-3.45-1.71-6.77-3.55-10.25-5.02c-6.02-2.55-12.31-3.47-18.76-1.98c-1.59,0.37-3.24,1.05-4.54,2.01c-4.28,3.16-6.72,7.68-8.36,12.6
	c-1.51,4.53-0.69,9.1,0.45,13.62c1.64,6.53,4.57,12.32,9.32,16.61c-3.18,0.31-6.6,0.66-10.02,0.97c-5.96,0.55-10.82,3.51-15.22,7.22
	c-2.89,2.43-4.28,5.92-5.28,9.56c-1.03,3.77-0.5,7.49,0.83,10.92c2.29,5.88,7.29,9.24,12.75,11.83c4.14,1.96,8.44,3.61,12.87,5.48
	c-1.14,0.88-2.32,1.59-3.23,2.54c-3.12,3.27-6.55,6.36-9.09,10.05c-2.36,3.41-4.34,7.23-5.06,11.51c-0.74,4.42-0.13,8.42,2.7,12.08
	c2.04,2.64,4.79,4.25,7.49,5.97c4.24,2.7,9.02,3.72,13.81,2.68c5.14-1.11,10.1-3.08,15.27-4.72c-0.02,0.17-0.04,0.69-0.17,1.19
	c-0.39,1.46-1.05,2.89-1.2,4.37c-0.31,3.08-0.43,6.19-0.5,9.3c-0.09,3.87-0.29,7.77,1.16,11.5c1.94,4.97,5.11,8.99,9.98,11.12
	c2.39,1.04,5.3,0.95,7.99,1.19c3.52,0.31,6.57-1.17,9.62-2.71c5.92-2.97,10.98-6.94,14.88-12.3c0.91-1.25,1.67-2.62,2.43-3.81
	c0.64,1.53,1.23,2.99,1.86,4.43c1.53,3.52,2.72,7.26,4.72,10.5c2.59,4.2,6.71,6.47,11.35,8.48c5.74,2.49,10.84,1.96,16.04-0.45
	c7.89-3.65,10.85-10.97,12.58-18.69c0.84-3.74,0.17-7.82,0.19-11.73c-0.15-0.05,0.11-0.01,0.32,0.12c0.29,0.18,0.59,0.38,0.81,0.64
	c3.31,3.96,7.77,6.13,12.54,7.48c4.36,1.23,8.89,2,13.45,0.62c2.09-0.63,4.41-0.76,6.28-1.77c3.29-1.78,5.17-4.86,6.67-8.32
	c3.9-8.97,2.54-17.33-2.49-25.33c-1.85-2.94-3.98-5.7-5.88-8.39c4.94,0.24,9.82,0.1,14.78-1.86c5.74-2.26,9.78-5.7,12.57-11.21
	c2.25-4.43,3.75-8.86,2.77-13.75C1274.24,54,1273.43,51.37,1271.97,49.44z M1250.83,8.62c-5.61,5.55-11.84,9.43-19.7,9.76
	C1235.16,10.35,1242.22,8.1,1250.83,8.62z M1226.91,28.95c-1.76,3.6-3.42,6.99-5.19,10.63c4.08,1.65,8.28,3.35,12.4,5.01
	c-4.61,0.91-9.13,1.81-13.87,2.75c-0.94-5.05-3.85-8.26-7.93-11.07C1217.28,33.77,1221.99,31.41,1226.91,28.95z M1200.52-18.67
	c0.22-1.85,1.92-3.65,3.26-5.21c2.01-2.35,4.3-4.47,6.46-6.69c0.2,0.12,0.4,0.23,0.61,0.35c-0.53,3.06-0.95,6.14-1.63,9.17
	c-0.46,2.09-0.92,4.31-2.02,6.08c-1.26,2.04-3.22,3.64-4.89,5.43c-0.35,0.37-0.73,0.71-1.41,1.36
	C1200.71-11.87,1200.12-15.33,1200.52-18.67z M1208.3,1.47c0.14,0.07,0.27,0.14,0.41,0.21c-1.06,4.86-2.11,9.71-3.25,14.97
	c4.38-0.54,8.9-1.09,13.66-1.68c-5.31,4.13-10.26,7.98-15.03,11.69c-0.11-4.71-2.8-8.67-6.32-12.91
	C1201.1,9.86,1204.7,5.66,1208.3,1.47z M1204.9,44.2c4.4,0.47,6.66,4.85,6.51,8.45c-0.25,6.06-2.87,9.97-8.86,11.32
	C1206.42,57.6,1204.41,50.77,1204.9,44.2z M1178.2,42.47c0.45-5.54,3.11-9.35,7.96-11.75C1188.59,36.24,1184.11,40.24,1178.2,42.47z
	 M1178.36,74.24c-3.57-3.26-4.75-7.17-3.13-11.8C1179.09,63.19,1179.82,68.22,1178.36,74.24z M1190.36,50.69
	c-2.43,0.01-4.86-1.03-7.77-1.73c3.49-3.98,8.67-4.59,14.15-2.19C1195.26,49.19,1192.97,50.68,1190.36,50.69z M1193.39,64.55
	c-6.27,0.7-10.66-1.78-13.1-7.15C1186.97,54.9,1190.03,59.85,1193.39,64.55z M1194.49,23.66c0.48,1.52,0.65,3.14,1.08,5.29
	c-7.08-4.26-13.67-8.22-21.52-9.42c4.98-2.91,9.83-3.62,15.2-1.04C1191.78,19.7,1193.67,21.04,1194.49,23.66z M1173.9-6.4
	c0.2-0.04,0.4-0.08,0.6-0.11c1.35,3.79,2.69,7.57,4.23,11.91c0.79-0.45,1.84-0.77,2.47-1.47c2-2.24,3.8-4.65,5.75-6.94
	c0.65-0.76,1.53-1.32,2.36-2.02c-0.52,4.95-1,9.58-1.52,14.53c-5.12-0.82-10.07-0.58-15.21,2.16
	C1173.04,5.39,1173.47-0.5,1173.9-6.4z M1170.23,26.97c2.94,4.49,4.12,9.17,1.46,14.23C1168.05,36.84,1167.29,29.49,1170.23,26.97z
	 M1168.89,60.2c0.16,0.09,0.21,0.52,0.17,0.77c-0.74,4.24-2.85,7.49-6.85,9.33c-1.07-5.25,0.74-8.59,5.62-10.28
	C1168.14,59.91,1168.59,60.03,1168.89,60.2z M1151.48,55.36c4.57-2.15,8.71-6.72,13.99-1.73C1161.31,57,1158.36,58.77,1151.48,55.36
	z M1165.64,45.87c-2.51,0.88-9.04-1.03-10.77-3.3c-0.99-1.29-1.59-2.87-2.49-4.54c3.37-0.83,6.07,0.39,8.82,1.21
	c2.79,0.83,3.81,3.28,4.98,5.55C1166.29,45.01,1165.92,45.77,1165.64,45.87z M1145.83,40.69c-2.17-5.13-3.31-9.68,1-14.04
	c3.93-3.97,8.28-5.06,13.78-2.8C1154.43,28.31,1149.35,33.68,1145.83,40.69z M1155.34-34.09c1.71,2.52,2.97,4.59,4.44,6.51
	c1.72,2.23,2.51,4.67,2.05,7.42c-0.51,3.04-1.18,6.05-1.76,9C1153.7-17.86,1153.69-25.64,1155.34-34.09z M1145.03,7.76
	c2.58,0.81,4.38,3.64,7.46,3.13c-0.58-5.69-1.14-11.13-1.7-16.58c0.19-0.02,0.38-0.05,0.56-0.07c4.3,7.1,8.59,14.21,12.87,21.28
	c-2.83-0.06-5.89-0.23-8.94-0.16c-2.44,0.06-4.88,0.42-7.32,0.6c-0.43,0.03-1.05-0.02-1.29-0.29c-2.34-2.73-4.62-5.51-6.92-8.27
	c-0.86-1.04-1.72-2.08-2.42-3.44C1139.89,5.26,1142.33,6.92,1145.03,7.76z M1135.26,25.19c0.32,0.19,0.27,1.59-0.05,2.19
	c-2.27,4.25-2.28,8.61-0.83,13.63c-6.31-1.63-12.48-3.23-18.56-4.8c5.55-1.45,11.14-2.9,16.75-4.37c-3.86-4.77-7.4-9.16-10.94-13.54
	c0.2-0.17,0.39-0.34,0.59-0.51C1126.58,20.23,1130.96,22.64,1135.26,25.19z M1124.6,6.64c-6.22-0.38-13.52-6.94-14.92-13.44
	C1117.91-5.97,1121.57,0.06,1124.6,6.64z M1097.71,44.77c-3.52-0.63-6.71-3.12-10.05-4.79c8.1-3.93,14.78-0.85,21.3,3.84
	C1105.2,44.21,1101.29,45.41,1097.71,44.77z M1096.64,92.19c2.53-2.87,4.77-6.1,7.67-8.53c3.13-2.62,7.33-2.44,11.31-2.89
	C1114.64,85.74,1105.14,91.63,1096.64,92.19z M1117.99,69.36c-0.05-0.12-0.1-0.23-0.15-0.35c2.18-1.81,4.42-3.55,6.5-5.46
	c1.13-1.05,1.98-2.4,2.96-3.61c-1.3-0.56-2.56-1.31-3.92-1.65c-4.45-1.12-8.93-2.1-13.4-3.13c0-0.23,0-0.45,0-0.68
	c7.54-0.45,15.08-0.9,22.47-1.34c-0.85,2.38-1.86,4.44-2.27,6.61c-0.27,1.42,0.43,3,0.49,4.51c0.02,0.64-0.37,1.75-0.81,1.88
	C1125.93,67.3,1121.95,68.31,1117.99,69.36z M1139.86,126.6c-1-3.74,1.02-14.21,6.32-16.08
	C1147.27,117.1,1146.88,123.16,1139.86,126.6z M1137.71,99.13c-0.16-0.07-0.33-0.13-0.49-0.2c0.27-1.18,0.56-2.35,0.8-3.54
	c0.52-2.57,1.03-5.15,1.53-7.73c0.04-0.2-0.05-0.42-0.02-0.62c0.14-0.95,0.3-1.89,0.45-2.84c-1.37,0.22-2.79,0.26-4.08,0.69
	c-3.08,1.02-6.11,2.22-9.49,3.48c3.02-3.29,5.58-6.13,8.2-8.91c0.59-0.63,1.34-1.13,2.09-1.56c0.32-0.18,1.08-0.18,1.23,0.03
	c3.08,4.32,7.65,4.28,12.23,4.28c0.05,0,0.1,0.07,0.39,0.28C1146.26,88.04,1141.99,93.59,1137.71,99.13z M1142.16,68.99
	c-1.45-2.59-1.92-5.3-1.91-8.07c0.01-1.91,0.82-3.81,1.27-5.72c0.25,0.07,0.5,0.14,0.74,0.22c0.13,3.68,5.59,12.44,12.23,17.77
	C1150.34,75.41,1144.48,73.14,1142.16,68.99z M1173.74,98.57c-0.45,3.81-1.07,7.61-1.59,11.2c-0.85-2.59-1.82-5.27-2.59-8
	c-0.31-1.09-0.09-2.33-0.34-3.44c-0.21-0.94-0.75-2.56-1.13-2.55c-1.13,0.01-2.38,0.48-3.35,1.12c-2.25,1.49-4.36,3.19-6.56,4.77
	c-0.25,0.18-0.66,0.15-1.15,0.25c1.76-4.68,3.43-9.16,5.03-13.43c3.02,1.72,5.81,3.5,8.77,4.94
	C1174.03,94.98,1174.18,94.84,1173.74,98.57z M1170.39,83.16c6.33-0.36,12.57,0.07,18.52-2.79
	C1186.58,87.94,1178.59,90.87,1170.39,83.16z M1190.34,135.16c-2.59-2.71-4.92-5.49-5.89-9.26c-0.98-3.82,0.59-7.28,1.18-11.11
	C1190.77,120.37,1192.91,129.82,1190.34,135.16z M1197.71,92.07c-0.88-0.36-2.09-0.01-3.11,0.2c-0.14,0.03-0.1,1.17-0.05,1.79
	c0.36,4.52,0.74,9.05,0.71,13.82c-3.13-4.48-6.26-8.96-9.45-13.54c6.42-1.4,9.08-6.61,11.99-11.18c2.94,4.24,5.97,8.62,9.22,13.29
	C1203.66,94.85,1200.74,93.32,1197.71,92.07z M1217.94,74.37c0.09,0.23,0.25,0.44,0.28,0.67c0.33,2.64,0.64,5.28,1,8.33
	c-5-3.68-9.84-7.24-14.67-10.8c0.1-0.19,0.21-0.38,0.31-0.57c4.08-0.44,7.74-1.77,10.5-4.99c0.09-0.1,0.2-0.2,0.27-0.31
	c2.17-3.36,2.15-3.32,5.84-1.61c3.02,1.4,6.07,2.71,9.12,4.04c0.56,0.24,1.17,0.34,1.76,0.5c-0.14,0.25-0.29,0.51-0.43,0.76
	c-4.11,0.4-8.23,0.77-12.34,1.22c-0.82,0.09-1.6,0.5-2.4,0.76C1217.44,73.04,1217.69,73.71,1217.94,74.37z M1221.5,95.77
	c4.02,0.15,7.65,1.65,10.79,3.59c5,3.09,6.91,8.41,8.29,14.2C1230.08,109.71,1222.28,102.49,1221.5,95.77z M1237.51,56.48
	c8.67-2.44,16.57-1.04,23.57,5.33C1252.45,63.18,1244.25,63.25,1237.51,56.48z"/>
<path class="st0" d="M579.26,6.39c-5.03-6.64-12.41-9.81-19.98-12.55c-1.49-0.54-3-1.06-4.81-1.7c2.28-1.75,4.51-3.08,6.24-4.89
	c2.77-2.91,5.12-6.22,7.81-9.2c2.62-2.89,4.06-6.17,4.32-10.04c0.52-7.85-3.54-13.72-10.01-16.18c-4.9-1.87-10.03-3.24-15.41-2.67
	c-3.84,0.4-7.77,0.29-11.25,2.54c-1.1,0.71-2.6,0.81-4.38,1.32c0.64-1.69,0.99-3,1.6-4.17c2.55-4.89,3.98-10.1,2.92-15.52
	c-0.67-3.41-2.16-6.73-3.69-9.89c-2.42-4.98-6.27-8.62-11.54-10.59c-3.29-1.23-6.46-1.57-10.02-0.28
	c-7.59,2.74-13.82,6.8-17.1,14.51c-0.82,1.94-1.8,3.81-2.85,6.01c-1.15-2.21-2.12-4.06-3.07-5.92c-2.62-5.07-4.75-10.3-8.72-14.72
	c-4.76-5.3-10.4-6.64-16.86-5.76c-4.43,0.6-7.85,3.03-10.93,6.53c-5.05,5.74-8.84,16.42-7.73,24.1c0.09,0.6-0.17,1.26-0.22,1.53
	c-3.45-1.71-6.77-3.55-10.25-5.02c-6.02-2.55-12.31-3.47-18.76-1.98c-1.59,0.37-3.24,1.05-4.54,2.01c-4.28,3.16-6.72,7.68-8.36,12.6
	c-1.51,4.53-0.69,9.1,0.45,13.62c1.64,6.53,4.57,12.32,9.32,16.61c-3.18,0.31-6.6,0.66-10.02,0.97c-5.96,0.55-10.82,3.51-15.22,7.22
	c-2.89,2.43-4.28,5.92-5.28,9.56c-1.03,3.77-0.5,7.49,0.83,10.92c2.29,5.88,7.29,9.24,12.75,11.83c4.14,1.96,8.44,3.61,12.87,5.48
	c-1.14,0.88-2.32,1.59-3.23,2.54c-3.12,3.27-6.55,6.36-9.09,10.05c-2.36,3.41-4.34,7.23-5.06,11.51c-0.74,4.42-0.13,8.42,2.7,12.08
	c2.04,2.64,4.79,4.25,7.49,5.97c4.24,2.7,9.01,3.72,13.81,2.68c5.14-1.11,10.1-3.08,15.27-4.72c-0.02,0.17-0.04,0.69-0.17,1.19
	c-0.39,1.46-1.05,2.89-1.2,4.37c-0.31,3.08-0.43,6.19-0.5,9.3c-0.09,3.87-0.29,7.77,1.16,11.5c1.94,4.97,5.11,8.99,9.98,11.12
	c2.39,1.04,5.3,0.95,7.99,1.19c3.52,0.31,6.57-1.17,9.62-2.71c5.92-2.97,10.98-6.94,14.88-12.3c0.91-1.25,1.67-2.62,2.43-3.81
	c0.64,1.53,1.23,2.99,1.86,4.43c1.53,3.52,2.72,7.26,4.72,10.5c2.59,4.2,6.71,6.47,11.35,8.48c5.74,2.49,10.84,1.96,16.04-0.45
	c7.89-3.65,10.85-10.97,12.58-18.69c0.84-3.74,0.17-7.82,0.19-11.73c-0.15-0.05,0.11-0.01,0.32,0.12c0.29,0.18,0.59,0.38,0.81,0.64
	c3.31,3.96,7.77,6.13,12.54,7.48c4.36,1.23,8.89,2,13.45,0.62c2.09-0.63,4.41-0.76,6.28-1.77c3.29-1.78,5.17-4.86,6.67-8.32
	c3.9-8.97,2.54-17.33-2.49-25.33c-1.85-2.94-3.98-5.7-5.88-8.39c4.94,0.24,9.82,0.1,14.78-1.86c5.74-2.26,9.78-5.7,12.57-11.21
	c2.25-4.43,3.75-8.86,2.77-13.75C581.53,10.95,580.72,8.32,579.26,6.39z M558.11-34.43c-5.61,5.55-11.84,9.43-19.7,9.76
	C542.45-32.7,549.51-34.94,558.11-34.43z M534.19-14.1c-1.76,3.6-3.42,6.99-5.19,10.63c4.08,1.65,8.28,3.35,12.4,5.01
	c-4.61,0.91-9.13,1.81-13.87,2.75c-0.94-5.05-3.85-8.26-7.93-11.07C524.57-9.27,529.28-11.63,534.19-14.1z M507.8-61.71
	c0.22-1.85,1.92-3.65,3.26-5.21c2.01-2.35,4.3-4.47,6.46-6.69c0.2,0.12,0.4,0.23,0.61,0.35c-0.53,3.06-0.95,6.14-1.63,9.17
	c-0.46,2.09-0.92,4.31-2.02,6.08c-1.26,2.04-3.22,3.64-4.89,5.43c-0.35,0.37-0.73,0.71-1.41,1.36
	C508-54.92,507.41-58.38,507.8-61.71z M515.58-41.58c0.14,0.07,0.27,0.14,0.41,0.21c-1.06,4.86-2.11,9.71-3.25,14.97
	c4.38-0.54,8.9-1.09,13.66-1.68c-5.31,4.13-10.26,7.98-15.03,11.69c-0.11-4.71-2.8-8.67-6.32-12.91
	C508.38-33.18,511.98-37.38,515.58-41.58z M512.19,1.15c4.4,0.47,6.66,4.85,6.51,8.45c-0.25,6.06-2.87,9.97-8.86,11.32
	C513.71,14.56,511.7,7.73,512.19,1.15z M485.48-0.57c0.45-5.54,3.11-9.35,7.96-11.75C495.88-6.8,491.4-2.81,485.48-0.57z
	 M485.65,31.19c-3.57-3.26-4.75-7.17-3.13-11.8C486.38,20.14,487.1,25.17,485.65,31.19z M497.65,7.64
	c-2.43,0.01-4.86-1.03-7.77-1.73c3.49-3.98,8.67-4.59,14.15-2.19C502.55,6.14,500.26,7.63,497.65,7.64z M500.68,21.5
	c-6.27,0.7-10.66-1.78-13.1-7.15C494.26,11.86,497.31,16.8,500.68,21.5z M501.78-19.39c0.48,1.52,0.65,3.14,1.08,5.29
	c-7.08-4.26-13.67-8.22-21.52-9.42c4.98-2.91,9.83-3.62,15.2-1.04C499.07-23.35,500.96-22,501.78-19.39z M481.19-49.45
	c0.2-0.04,0.4-0.08,0.6-0.11c1.35,3.79,2.69,7.57,4.23,11.91c0.79-0.45,1.84-0.77,2.47-1.47c2-2.24,3.8-4.65,5.75-6.94
	c0.65-0.76,1.53-1.32,2.36-2.02c-0.52,4.95-1,9.58-1.52,14.53c-5.12-0.82-10.07-0.58-15.21,2.16
	C480.33-37.65,480.76-43.55,481.19-49.45z M477.52-16.08c2.94,4.49,4.12,9.17,1.46,14.23C475.34-6.21,474.58-13.55,477.52-16.08z
	 M476.18,17.15c0.16,0.09,0.21,0.52,0.17,0.77c-0.74,4.24-2.85,7.49-6.85,9.33c-1.07-5.25,0.74-8.59,5.62-10.28
	C475.43,16.86,475.88,16.98,476.18,17.15z M458.76,12.32c4.57-2.15,8.71-6.72,13.99-1.73C468.59,13.95,465.65,15.72,458.76,12.32z
	 M472.93,2.82c-2.51,0.88-9.04-1.03-10.77-3.3c-0.99-1.29-1.59-2.87-2.49-4.54c3.37-0.83,6.07,0.39,8.82,1.21
	c2.79,0.83,3.81,3.28,4.98,5.55C473.58,1.96,473.21,2.72,472.93,2.82z M453.12-2.35c-2.17-5.13-3.31-9.68,1-14.04
	c3.93-3.97,8.28-5.06,13.78-2.8C461.72-14.73,456.64-9.37,453.12-2.35z M462.62-77.14c1.71,2.52,2.97,4.59,4.44,6.51
	c1.72,2.23,2.51,4.67,2.05,7.42c-0.51,3.04-1.18,6.05-1.76,9C460.99-60.91,460.98-68.69,462.62-77.14z M452.32-35.29
	c2.58,0.81,4.38,3.64,7.46,3.13c-0.58-5.69-1.14-11.13-1.7-16.58c0.19-0.02,0.38-0.05,0.56-0.07c4.3,7.1,8.6,14.21,12.87,21.28
	c-2.83-0.06-5.89-0.23-8.94-0.16c-2.44,0.06-4.88,0.42-7.32,0.6c-0.43,0.03-1.05-0.02-1.29-0.29c-2.34-2.73-4.62-5.51-6.92-8.27
	c-0.86-1.04-1.72-2.08-2.42-3.44C447.18-37.79,449.62-36.13,452.32-35.29z M442.54-17.86c0.32,0.19,0.27,1.59-0.05,2.19
	c-2.27,4.25-2.28,8.61-0.83,13.63c-6.31-1.63-12.48-3.23-18.56-4.8c5.55-1.45,11.14-2.9,16.75-4.37c-3.86-4.77-7.4-9.16-10.94-13.54
	c0.2-0.17,0.39-0.34,0.59-0.51C433.87-22.81,438.25-20.41,442.54-17.86z M431.89-36.41c-6.22-0.38-13.52-6.94-14.92-13.44
	C425.2-49.02,428.86-42.99,431.89-36.41z M405,1.73c-3.52-0.63-6.71-3.12-10.05-4.79c8.1-3.93,14.78-0.85,21.3,3.84
	C412.49,1.16,408.58,2.36,405,1.73z M403.93,49.15c2.53-2.87,4.77-6.1,7.67-8.53c3.13-2.62,7.33-2.44,11.31-2.89
	C421.93,42.7,412.43,48.59,403.93,49.15z M425.27,26.31c-0.05-0.12-0.1-0.23-0.15-0.35c2.18-1.81,4.42-3.55,6.5-5.46
	c1.13-1.05,1.98-2.4,2.96-3.61c-1.3-0.56-2.56-1.31-3.92-1.65c-4.45-1.12-8.93-2.1-13.4-3.13c0-0.23,0-0.45,0-0.68
	c7.54-0.45,15.08-0.9,22.47-1.34c-0.85,2.38-1.86,4.44-2.27,6.61c-0.27,1.42,0.43,3,0.49,4.51c0.02,0.64-0.37,1.75-0.81,1.88
	C433.21,24.26,429.24,25.26,425.27,26.31z M447.15,83.55c-1-3.74,1.02-14.21,6.32-16.08C454.56,74.05,454.17,80.12,447.15,83.55z
	 M445,56.08c-0.16-0.07-0.33-0.13-0.49-0.2c0.27-1.18,0.56-2.35,0.8-3.54c0.52-2.57,1.03-5.15,1.53-7.73
	c0.04-0.2-0.05-0.42-0.02-0.62c0.14-0.95,0.3-1.89,0.45-2.84c-1.37,0.22-2.79,0.26-4.08,0.69c-3.08,1.02-6.11,2.22-9.49,3.48
	c3.02-3.29,5.58-6.13,8.2-8.91c0.59-0.63,1.34-1.13,2.09-1.56c0.32-0.18,1.08-0.18,1.23,0.03c3.08,4.32,7.65,4.28,12.23,4.28
	c0.05,0,0.1,0.07,0.39,0.28C453.55,45,449.27,50.54,445,56.08z M449.44,25.94c-1.45-2.59-1.92-5.3-1.91-8.07
	c0.01-1.91,0.82-3.81,1.27-5.72c0.25,0.07,0.5,0.14,0.74,0.22c0.13,3.68,5.59,12.44,12.23,17.77
	C457.63,32.36,451.77,30.09,449.44,25.94z M481.03,55.52c-0.45,3.81-1.07,7.61-1.59,11.2c-0.85-2.59-1.82-5.27-2.59-8
	c-0.31-1.09-0.09-2.33-0.34-3.44c-0.21-0.94-0.75-2.56-1.13-2.55c-1.13,0.01-2.38,0.48-3.35,1.12c-2.25,1.49-4.36,3.19-6.56,4.77
	c-0.25,0.18-0.66,0.15-1.15,0.25c1.76-4.68,3.43-9.16,5.03-13.43c3.02,1.72,5.81,3.5,8.77,4.94
	C481.32,51.93,481.47,51.8,481.03,55.52z M477.67,40.12c6.33-0.36,12.57,0.07,18.52-2.79C493.87,44.89,485.87,47.83,477.67,40.12z
	 M497.62,92.12c-2.59-2.71-4.92-5.49-5.89-9.26c-0.98-3.82,0.59-7.28,1.18-11.11C498.06,77.32,500.2,86.77,497.62,92.12z
	 M504.99,49.02c-0.88-0.36-2.09-0.01-3.11,0.2c-0.14,0.03-0.1,1.17-0.05,1.79c0.36,4.52,0.74,9.05,0.71,13.82
	c-3.13-4.48-6.26-8.96-9.45-13.54c6.42-1.4,9.09-6.61,11.99-11.18c2.94,4.24,5.97,8.62,9.22,13.29
	C510.95,51.8,508.03,50.28,504.99,49.02z M525.23,31.33c0.09,0.23,0.25,0.44,0.28,0.67c0.33,2.64,0.64,5.28,1,8.33
	c-5-3.68-9.84-7.24-14.67-10.8c0.1-0.19,0.21-0.38,0.31-0.57c4.08-0.44,7.74-1.77,10.5-4.99c0.09-0.1,0.2-0.2,0.27-0.31
	c2.17-3.36,2.15-3.32,5.84-1.61c3.02,1.4,6.07,2.71,9.12,4.04c0.56,0.24,1.17,0.34,1.76,0.5c-0.14,0.25-0.29,0.51-0.43,0.76
	c-4.11,0.4-8.23,0.77-12.34,1.22c-0.82,0.09-1.6,0.5-2.4,0.76C524.73,30,524.98,30.66,525.23,31.33z M528.79,52.72
	c4.02,0.15,7.65,1.65,10.79,3.59c5,3.09,6.91,8.41,8.29,14.2C537.37,66.66,529.57,59.44,528.79,52.72z M544.79,13.43
	c8.67-2.44,16.57-1.04,23.57,5.33C559.74,20.14,551.54,20.2,544.79,13.43z"/>
<path class="st0" d="M1742.5-0.73c-5.03-6.64-12.41-9.81-19.98-12.55c-1.49-0.54-3-1.06-4.81-1.7c2.28-1.75,4.51-3.08,6.24-4.89
	c2.77-2.91,5.12-6.22,7.81-9.2c2.62-2.89,4.06-6.17,4.32-10.04c0.52-7.85-3.54-13.72-10.01-16.18c-4.9-1.87-10.03-3.24-15.41-2.67
	c-3.84,0.4-7.77,0.29-11.25,2.54c-1.1,0.71-2.6,0.81-4.38,1.32c0.64-1.69,0.99-3,1.6-4.17c2.55-4.89,3.98-10.1,2.92-15.52
	c-0.67-3.41-2.16-6.73-3.69-9.89c-2.42-4.98-6.27-8.62-11.54-10.59c-3.29-1.23-6.46-1.57-10.02-0.28
	c-7.59,2.74-13.82,6.8-17.1,14.51c-0.82,1.94-1.8,3.81-2.85,6.01c-1.15-2.21-2.12-4.06-3.07-5.92c-2.62-5.07-4.75-10.3-8.72-14.72
	c-4.76-5.3-10.4-6.64-16.86-5.76c-4.43,0.6-7.85,3.03-10.93,6.53c-5.05,5.74-8.84,16.42-7.73,24.1c0.09,0.6-0.17,1.26-0.22,1.53
	c-3.45-1.71-6.77-3.55-10.25-5.02c-6.02-2.55-12.31-3.47-18.76-1.98c-1.59,0.37-3.24,1.05-4.54,2.01c-4.28,3.16-6.72,7.68-8.36,12.6
	c-1.51,4.53-0.69,9.1,0.45,13.62c1.64,6.53,4.57,12.32,9.32,16.61c-3.18,0.31-6.6,0.66-10.02,0.97c-5.96,0.55-10.82,3.51-15.22,7.22
	c-2.89,2.43-4.28,5.92-5.28,9.56c-1.03,3.77-0.5,7.49,0.83,10.92c2.29,5.88,7.29,9.24,12.75,11.83c4.14,1.96,8.44,3.61,12.87,5.48
	c-1.14,0.88-2.32,1.59-3.23,2.54c-3.12,3.27-6.55,6.36-9.09,10.05c-2.36,3.41-4.34,7.23-5.06,11.51c-0.74,4.42-0.13,8.42,2.7,12.08
	c2.04,2.64,4.79,4.25,7.49,5.97c4.24,2.7,9.01,3.72,13.81,2.68c5.14-1.11,10.1-3.08,15.27-4.72c-0.02,0.17-0.04,0.69-0.17,1.19
	c-0.39,1.46-1.05,2.89-1.2,4.37c-0.31,3.08-0.43,6.19-0.5,9.3c-0.09,3.87-0.29,7.77,1.16,11.5c1.94,4.97,5.11,8.99,9.98,11.12
	c2.39,1.04,5.3,0.95,7.99,1.19c3.52,0.31,6.57-1.17,9.62-2.71c5.92-2.97,10.98-6.94,14.88-12.3c0.91-1.25,1.67-2.62,2.43-3.81
	c0.64,1.53,1.23,2.99,1.86,4.43c1.53,3.52,2.72,7.26,4.72,10.5c2.59,4.2,6.71,6.47,11.35,8.48c5.74,2.49,10.84,1.96,16.04-0.45
	c7.89-3.65,10.85-10.97,12.58-18.69c0.84-3.74,0.17-7.82,0.19-11.73c-0.15-0.05,0.11-0.01,0.32,0.12c0.29,0.18,0.59,0.38,0.81,0.64
	c3.31,3.96,7.77,6.13,12.54,7.48c4.36,1.23,8.89,2,13.45,0.62c2.09-0.63,4.41-0.76,6.28-1.77c3.29-1.78,5.17-4.86,6.67-8.32
	c3.9-8.97,2.54-17.33-2.49-25.33c-1.85-2.94-3.98-5.7-5.88-8.39c4.94,0.24,9.82,0.1,14.78-1.86c5.74-2.26,9.78-5.7,12.57-11.21
	c2.25-4.43,3.75-8.86,2.77-13.75C1744.77,3.83,1743.96,1.2,1742.5-0.73z M1721.36-41.54c-5.61,5.55-11.84,9.43-19.7,9.76
	C1705.69-39.82,1712.75-42.06,1721.36-41.54z M1697.44-21.22c-1.76,3.6-3.42,6.99-5.19,10.63c4.08,1.65,8.28,3.35,12.4,5.01
	c-4.61,0.91-9.13,1.81-13.87,2.75c-0.94-5.05-3.85-8.26-7.93-11.07C1687.81-16.39,1692.52-18.75,1697.44-21.22z M1671.05-68.83
	c0.22-1.85,1.92-3.65,3.26-5.21c2.01-2.35,4.3-4.47,6.46-6.69c0.2,0.12,0.4,0.23,0.61,0.35c-0.53,3.06-0.95,6.14-1.63,9.17
	c-0.46,2.09-0.92,4.31-2.02,6.08c-1.26,2.04-3.22,3.64-4.89,5.43c-0.35,0.37-0.73,0.71-1.41,1.36
	C1671.24-62.04,1670.65-65.5,1671.05-68.83z M1678.83-48.7c0.14,0.07,0.27,0.14,0.41,0.21c-1.06,4.86-2.11,9.71-3.25,14.97
	c4.38-0.54,8.9-1.09,13.66-1.68c-5.31,4.13-10.26,7.98-15.03,11.69c-0.11-4.71-2.8-8.67-6.32-12.91
	C1671.63-40.3,1675.23-44.5,1678.83-48.7z M1675.43-5.97c4.4,0.47,6.66,4.85,6.51,8.45c-0.25,6.06-2.87,9.97-8.86,11.32
	C1676.95,7.44,1674.94,0.61,1675.43-5.97z M1648.73-7.69c0.45-5.54,3.11-9.35,7.96-11.75C1659.13-13.92,1654.64-9.93,1648.73-7.69z
	 M1648.89,24.07c-3.57-3.26-4.75-7.17-3.13-11.8C1649.62,13.02,1650.35,18.05,1648.89,24.07z M1660.89,0.53
	c-2.43,0.01-4.86-1.03-7.77-1.73c3.49-3.98,8.67-4.59,14.15-2.19C1665.79-0.98,1663.5,0.51,1660.89,0.53z M1663.92,14.38
	c-6.27,0.7-10.66-1.78-13.1-7.15C1657.5,4.74,1660.56,9.68,1663.92,14.38z M1665.02-26.51c0.48,1.52,0.65,3.14,1.08,5.29
	c-7.08-4.26-13.67-8.22-21.52-9.42c4.98-2.91,9.83-3.62,15.2-1.04C1662.31-30.46,1664.2-29.12,1665.02-26.51z M1644.43-56.56
	c0.2-0.04,0.4-0.08,0.6-0.11c1.35,3.79,2.69,7.57,4.23,11.91c0.79-0.45,1.84-0.77,2.47-1.47c2-2.24,3.8-4.65,5.75-6.94
	c0.65-0.76,1.53-1.32,2.36-2.02c-0.52,4.95-1,9.58-1.52,14.53c-5.12-0.82-10.07-0.58-15.21,2.16
	C1643.57-44.77,1644-50.67,1644.43-56.56z M1640.76-23.2c2.94,4.49,4.12,9.17,1.46,14.23C1638.58-13.33,1637.82-20.67,1640.76-23.2z
	 M1639.42,10.03c0.16,0.09,0.21,0.52,0.17,0.77c-0.74,4.24-2.85,7.49-6.85,9.33c-1.07-5.25,0.74-8.59,5.62-10.28
	C1638.67,9.74,1639.12,9.86,1639.42,10.03z M1622.01,5.2c4.57-2.15,8.71-6.72,13.99-1.73C1631.84,6.83,1628.89,8.6,1622.01,5.2z
	 M1636.17-4.3c-2.51,0.88-9.04-1.03-10.77-3.3c-0.99-1.29-1.59-2.87-2.49-4.54c3.37-0.83,6.07,0.39,8.82,1.21
	c2.79,0.83,3.81,3.28,4.98,5.55C1636.82-5.16,1636.46-4.4,1636.17-4.3z M1616.36-9.47c-2.17-5.13-3.31-9.68,1-14.04
	c3.93-3.97,8.28-5.06,13.78-2.8C1624.96-21.85,1619.88-16.49,1616.36-9.47z M1625.87-84.26c1.71,2.52,2.97,4.59,4.44,6.51
	c1.72,2.23,2.51,4.67,2.05,7.42c-0.51,3.04-1.18,6.05-1.76,9C1624.23-68.03,1624.22-75.81,1625.87-84.26z M1615.56-42.41
	c2.58,0.81,4.38,3.64,7.46,3.13c-0.58-5.69-1.14-11.13-1.7-16.58c0.19-0.02,0.38-0.05,0.56-0.07c4.3,7.1,8.6,14.21,12.87,21.28
	c-2.83-0.06-5.89-0.23-8.94-0.16c-2.44,0.06-4.88,0.42-7.32,0.6c-0.43,0.03-1.05-0.02-1.29-0.29c-2.34-2.73-4.62-5.51-6.92-8.27
	c-0.86-1.04-1.72-2.08-2.42-3.44C1610.42-44.91,1612.86-43.25,1615.56-42.41z M1605.79-24.98c0.32,0.19,0.27,1.59-0.05,2.19
	c-2.27,4.25-2.28,8.61-0.83,13.63c-6.31-1.63-12.48-3.23-18.56-4.8c5.55-1.45,11.14-2.9,16.75-4.37c-3.86-4.77-7.4-9.16-10.94-13.54
	c0.2-0.17,0.39-0.34,0.59-0.51C1597.11-29.93,1601.49-27.53,1605.79-24.98z M1595.14-43.53c-6.22-0.38-13.52-6.94-14.92-13.44
	C1588.44-56.14,1592.1-50.11,1595.14-43.53z M1568.24-5.39c-3.52-0.63-6.71-3.12-10.05-4.79c8.1-3.93,14.78-0.85,21.3,3.84
	C1575.73-5.95,1571.82-4.75,1568.24-5.39z M1567.17,42.03c2.53-2.87,4.77-6.1,7.67-8.53c3.13-2.62,7.33-2.44,11.31-2.89
	C1585.17,35.58,1575.67,41.47,1567.17,42.03z M1588.52,19.19c-0.05-0.12-0.1-0.23-0.15-0.35c2.18-1.81,4.42-3.55,6.5-5.46
	c1.13-1.05,1.98-2.4,2.96-3.61c-1.3-0.56-2.56-1.31-3.92-1.65c-4.45-1.12-8.93-2.1-13.4-3.13c0-0.23,0-0.45,0-0.68
	c7.54-0.45,15.08-0.9,22.47-1.34c-0.85,2.38-1.86,4.44-2.27,6.61c-0.27,1.42,0.44,3,0.49,4.51c0.02,0.64-0.37,1.75-0.81,1.88
	C1596.46,17.14,1592.48,18.14,1588.52,19.19z M1610.39,76.43c-1-3.74,1.02-14.21,6.32-16.08C1617.8,66.93,1617.41,73,1610.39,76.43z
	 M1608.24,48.96c-0.16-0.07-0.33-0.13-0.49-0.2c0.27-1.18,0.56-2.35,0.8-3.54c0.52-2.57,1.03-5.15,1.53-7.73
	c0.04-0.2-0.05-0.42-0.02-0.62c0.14-0.95,0.3-1.89,0.45-2.84c-1.37,0.22-2.79,0.26-4.08,0.69c-3.08,1.02-6.11,2.22-9.49,3.48
	c3.02-3.29,5.58-6.13,8.2-8.91c0.59-0.63,1.34-1.13,2.09-1.56c0.32-0.18,1.08-0.18,1.23,0.03c3.08,4.32,7.65,4.28,12.23,4.28
	c0.05,0,0.1,0.07,0.39,0.28C1616.79,37.88,1612.52,43.42,1608.24,48.96z M1612.69,18.82c-1.45-2.59-1.92-5.3-1.91-8.07
	c0.01-1.91,0.82-3.81,1.27-5.72c0.25,0.07,0.5,0.14,0.74,0.22c0.13,3.68,5.59,12.44,12.23,17.77
	C1620.87,25.24,1615.01,22.97,1612.69,18.82z M1644.27,48.4c-0.45,3.81-1.07,7.61-1.59,11.2c-0.85-2.59-1.82-5.27-2.59-8
	c-0.31-1.09-0.09-2.33-0.34-3.44c-0.21-0.94-0.75-2.56-1.13-2.55c-1.13,0.01-2.38,0.48-3.35,1.12c-2.25,1.49-4.36,3.19-6.56,4.77
	c-0.25,0.18-0.66,0.15-1.15,0.25c1.76-4.68,3.43-9.16,5.03-13.43c3.02,1.72,5.81,3.5,8.77,4.94
	C1644.56,44.81,1644.71,44.68,1644.27,48.4z M1640.92,33c6.33-0.36,12.57,0.07,18.52-2.79C1657.11,37.77,1649.12,40.71,1640.92,33z
	 M1660.87,85c-2.59-2.71-4.92-5.49-5.89-9.26c-0.98-3.82,0.59-7.28,1.18-11.11C1661.3,70.2,1663.44,79.65,1660.87,85z M1668.24,41.9
	c-0.88-0.36-2.09-0.01-3.11,0.2c-0.14,0.03-0.1,1.17-0.05,1.79c0.36,4.52,0.74,9.05,0.71,13.82c-3.13-4.48-6.26-8.96-9.45-13.54
	c6.42-1.4,9.09-6.61,11.99-11.18c2.94,4.24,5.97,8.62,9.22,13.29C1674.19,44.68,1671.27,43.16,1668.24,41.9z M1688.47,24.21
	c0.09,0.23,0.25,0.44,0.28,0.67c0.33,2.64,0.64,5.28,1,8.33c-5-3.68-9.84-7.24-14.67-10.8c0.1-0.19,0.21-0.38,0.31-0.57
	c4.08-0.44,7.74-1.77,10.5-4.99c0.09-0.1,0.2-0.2,0.27-0.31c2.17-3.36,2.15-3.32,5.84-1.61c3.02,1.4,6.07,2.71,9.12,4.04
	c0.56,0.24,1.17,0.34,1.76,0.5c-0.14,0.25-0.29,0.51-0.43,0.76c-4.11,0.4-8.23,0.77-12.34,1.22c-0.82,0.09-1.6,0.5-2.4,0.76
	C1687.97,22.88,1688.22,23.54,1688.47,24.21z M1692.03,45.61c4.02,0.15,7.65,1.65,10.79,3.59c5,3.09,6.91,8.41,8.29,14.2
	C1700.61,59.54,1692.81,52.32,1692.03,45.61z M1708.04,6.31c8.67-2.44,16.57-1.04,23.57,5.33
	C1722.98,13.02,1714.78,13.09,1708.04,6.31z"/>
<path class="st0" d="M1708.56,276c-0.6-2.98-1.58-6.2-3.38-8.57c-6.16-8.14-15.21-12.01-24.48-15.38c-1.83-0.66-3.67-1.3-5.9-2.08
	c2.79-2.15,5.53-3.77,7.65-5.99c3.4-3.56,6.27-7.62,9.57-11.27c3.2-3.54,4.98-7.55,5.29-12.3c0.63-9.62-4.34-16.81-12.26-19.82
	c-6.01-2.29-12.29-3.97-18.88-3.28c-4.7,0.49-9.52,0.35-13.78,3.11c-1.35,0.87-3.18,0.99-5.37,1.62c0.78-2.07,1.21-3.67,1.96-5.11
	c3.12-6,4.88-12.37,3.58-19.02c-0.82-4.18-2.65-8.24-4.52-12.11c-2.97-6.11-7.69-10.57-14.14-12.98c-4.03-1.51-7.92-1.92-12.28-0.35
	c-9.3,3.36-16.93,8.33-20.95,17.77c-1.01,2.37-2.21,4.66-3.49,7.36c-1.41-2.7-2.59-4.98-3.77-7.25
	c-3.21-6.21-5.82-12.62-10.68-18.04c-5.83-6.5-12.74-8.14-20.65-7.06c-5.42,0.74-9.62,3.71-13.39,8
	c-6.18,7.03-10.83,20.12-9.47,29.53c0.11,0.74-0.21,1.54-0.27,1.87c-4.23-2.09-8.3-4.35-12.56-6.15
	c-7.38-3.12-15.08-4.25-22.98-2.43c-1.95,0.45-3.97,1.29-5.57,2.47c-5.25,3.87-8.24,9.41-10.24,15.43
	c-1.85,5.55-0.84,11.16,0.55,16.69c2.01,8,5.6,15.1,11.42,20.35c-3.9,0.38-8.09,0.8-12.28,1.19c-7.3,0.67-13.26,4.3-18.65,8.84
	c-3.54,2.98-5.25,7.25-6.47,11.71c-1.26,4.62-0.61,9.18,1.02,13.38c2.81,7.2,8.94,11.32,15.63,14.49
	c5.07,2.41,10.34,4.42,15.77,6.71c-1.4,1.08-2.84,1.94-3.96,3.12c-3.82,4.01-8.02,7.79-11.14,12.31c-2.89,4.18-5.31,8.86-6.2,14.1
	c-0.91,5.42-0.15,10.32,3.31,14.8c2.5,3.23,5.86,5.21,9.17,7.32c5.2,3.31,11.05,4.55,16.92,3.29c6.3-1.36,12.37-3.78,18.71-5.79
	c-0.03,0.21-0.05,0.85-0.21,1.46c-0.48,1.79-1.29,3.54-1.47,5.36c-0.38,3.78-0.53,7.59-0.62,11.39c-0.11,4.75-0.36,9.52,1.42,14.09
	c2.37,6.09,6.26,11.02,12.23,13.62c2.92,1.28,6.49,1.16,9.79,1.46c4.31,0.39,8.05-1.44,11.79-3.32c7.25-3.64,13.45-8.5,18.24-15.07
	c1.12-1.54,2.05-3.21,2.98-4.67c0.78,1.87,1.51,3.66,2.27,5.43c1.88,4.32,3.33,8.9,5.78,12.87c3.18,5.15,8.22,7.93,13.91,10.4
	c7.03,3.05,13.28,2.4,19.65-0.55c9.66-4.47,13.29-13.45,15.42-22.9c1.03-4.58,0.21-9.58,0.23-14.37c-0.19-0.06,0.13-0.01,0.39,0.15
	c0.36,0.22,0.73,0.46,0.99,0.78c4.05,4.85,9.52,7.52,15.36,9.17c5.34,1.51,10.89,2.45,16.48,0.76c2.56-0.77,5.41-0.93,7.69-2.17
	c4.03-2.18,6.33-5.96,8.17-10.19c4.77-10.99,3.12-21.23-3.06-31.03c-2.27-3.6-4.88-6.98-7.2-10.28c6.06,0.3,12.03,0.12,18.1-2.28
	c7.03-2.77,11.98-6.99,15.41-13.74C1707.92,287.4,1709.76,281.98,1708.56,276z M1679.28,217.42c-6.88,6.8-14.51,11.55-24.14,11.96
	C1660.08,219.54,1668.73,216.79,1679.28,217.42z M1649.97,242.33c-2.16,4.41-4.19,8.56-6.36,13.02c5,2.02,10.14,4.1,15.19,6.14
	c-5.65,1.12-11.19,2.22-17,3.37c-1.15-6.18-4.72-10.12-9.71-13.57C1638.17,248.24,1643.94,245.35,1649.97,242.33z M1617.63,183.99
	c0.27-2.27,2.36-4.47,4-6.39c2.47-2.88,5.26-5.48,7.92-8.2c0.25,0.14,0.49,0.29,0.74,0.43c-0.65,3.75-1.17,7.53-1.99,11.24
	c-0.57,2.55-1.13,5.28-2.47,7.45c-1.55,2.5-3.95,4.46-5.99,6.65c-0.42,0.45-0.9,0.86-1.73,1.66
	C1617.87,192.31,1617.14,188.08,1617.63,183.99z M1627.16,208.65c0.17,0.09,0.33,0.17,0.5,0.26c-1.29,5.95-2.59,11.9-3.99,18.34
	c5.37-0.66,10.91-1.34,16.74-2.05c-6.5,5.06-12.58,9.78-18.42,14.32c-0.13-5.77-3.43-10.63-7.74-15.81
	C1618.34,218.94,1622.75,213.8,1627.16,208.65z M1623.01,261.01c5.4,0.58,8.16,5.94,7.98,10.36c-0.31,7.43-3.52,12.22-10.85,13.87
	C1624.87,277.44,1622.41,269.07,1623.01,261.01z M1590.28,258.9c0.56-6.79,3.81-11.46,9.76-14.4
	C1603.03,251.27,1597.53,256.16,1590.28,258.9z M1590.48,297.82c-4.37-3.99-5.82-8.79-3.84-14.46
	C1591.38,284.27,1592.27,290.44,1590.48,297.82z M1605.19,268.97c-2.98,0.01-5.96-1.27-9.51-2.12c4.28-4.88,10.63-5.62,17.34-2.68
	C1611.19,267.13,1608.39,268.95,1605.19,268.97z M1608.9,285.94c-7.69,0.86-13.06-2.18-16.05-8.76
	C1601.04,274.13,1604.78,280.18,1608.9,285.94z M1610.25,235.84c0.59,1.87,0.8,3.85,1.33,6.48c-8.68-5.22-16.75-10.07-26.37-11.55
	c6.1-3.57,12.05-4.43,18.62-1.27C1606.93,231,1609.25,232.64,1610.25,235.84z M1585.02,199.02c0.24-0.05,0.49-0.09,0.73-0.14
	c1.65,4.64,3.3,9.28,5.18,14.6c0.97-0.55,2.26-0.94,3.02-1.8c2.45-2.75,4.65-5.7,7.05-8.5c0.8-0.93,1.88-1.62,2.89-2.48
	c-0.64,6.07-1.23,11.74-1.86,17.8c-6.28-1.01-12.34-0.71-18.63,2.65C1583.96,213.47,1584.49,206.24,1585.02,199.02z M1580.52,239.9
	c3.61,5.5,5.04,11.24,1.79,17.43C1577.85,252,1576.92,243,1580.52,239.9z M1578.88,280.61c0.19,0.11,0.26,0.63,0.21,0.94
	c-0.9,5.2-3.49,9.17-8.39,11.43c-1.31-6.44,0.91-10.52,6.89-12.6C1577.96,280.26,1578.52,280.41,1578.88,280.61z M1557.55,274.69
	c5.6-2.64,10.67-8.23,17.14-2.12C1569.59,276.69,1565.98,278.87,1557.55,274.69z M1574.9,263.06c-3.07,1.08-11.07-1.26-13.2-4.04
	c-1.21-1.58-1.95-3.52-3.05-5.57c4.13-1.02,7.44,0.47,10.81,1.48c3.42,1.02,4.66,4.02,6.1,6.8
	C1575.7,262,1575.25,262.93,1574.9,263.06z M1550.63,256.72c-2.66-6.29-4.06-11.86,1.23-17.2c4.81-4.87,10.15-6.2,16.88-3.43
	C1561.17,241.55,1554.94,248.12,1550.63,256.72z M1562.28,165.09c2.09,3.09,3.64,5.63,5.44,7.97c2.11,2.73,3.08,5.72,2.52,9.09
	c-0.62,3.73-1.44,7.42-2.15,11.03C1560.28,184.97,1560.26,175.44,1562.28,165.09z M1549.65,216.36c3.16,0.99,5.36,4.45,9.14,3.83
	c-0.71-6.97-1.4-13.64-2.08-20.31c0.23-0.03,0.46-0.06,0.69-0.09c5.27,8.7,10.53,17.41,15.77,26.07c-3.47-0.07-7.21-0.28-10.95-0.19
	c-2.99,0.07-5.98,0.51-8.97,0.73c-0.53,0.04-1.29-0.02-1.57-0.35c-2.87-3.34-5.67-6.75-8.48-10.14c-1.06-1.27-2.11-2.55-2.97-4.21
	C1543.35,213.3,1546.35,215.33,1549.65,216.36z M1537.67,237.72c0.39,0.23,0.33,1.95-0.07,2.69c-2.78,5.21-2.79,10.54-1.02,16.7
	c-7.73-2-15.29-3.95-22.74-5.88c6.8-1.77,13.65-3.56,20.52-5.35c-4.72-5.85-9.06-11.22-13.4-16.59c0.24-0.21,0.48-0.42,0.72-0.63
	C1527.04,231.65,1532.41,234.59,1537.67,237.72z M1524.62,214.99c-7.62-0.46-16.56-8.5-18.28-16.47
	C1516.42,199.54,1520.9,206.93,1524.62,214.99z M1491.68,261.72c-4.32-0.77-8.23-3.82-12.31-5.87c9.93-4.82,18.11-1.04,26.09,4.7
	C1500.85,261.03,1496.06,262.5,1491.68,261.72z M1490.36,319.82c3.1-3.52,5.84-7.47,9.4-10.45c3.83-3.21,8.98-2.99,13.86-3.54
	C1512.42,311.91,1500.78,319.13,1490.36,319.82z M1516.51,291.84c-0.06-0.14-0.13-0.29-0.19-0.43c2.67-2.22,5.42-4.34,7.96-6.69
	c1.39-1.28,2.43-2.94,3.63-4.43c-1.6-0.69-3.14-1.6-4.81-2.02c-5.45-1.38-10.94-2.57-16.42-3.84c0-0.28,0-0.56,0-0.84
	c9.24-0.55,18.47-1.1,27.53-1.64c-1.04,2.92-2.28,5.44-2.78,8.1c-0.33,1.74,0.53,3.67,0.6,5.53c0.03,0.79-0.46,2.15-0.99,2.31
	C1526.24,289.32,1521.37,290.55,1516.51,291.84z M1543.32,361.97c-1.22-4.58,1.26-17.41,7.74-19.7
	C1552.4,350.33,1551.92,357.76,1543.32,361.97z M1540.68,328.31c-0.2-0.08-0.4-0.16-0.6-0.24c0.33-1.44,0.68-2.88,0.98-4.33
	c0.64-3.15,1.26-6.31,1.87-9.47c0.05-0.24-0.07-0.51-0.03-0.76c0.17-1.16,0.36-2.32,0.55-3.48c-1.67,0.27-3.42,0.32-5,0.85
	c-3.78,1.25-7.48,2.72-11.63,4.26c3.7-4.03,6.84-7.51,10.04-10.92c0.72-0.77,1.64-1.39,2.56-1.91c0.39-0.22,1.32-0.22,1.5,0.04
	c3.78,5.29,9.38,5.25,14.98,5.24c0.06,0,0.12,0.08,0.48,0.34C1551.15,314.73,1545.92,321.52,1540.68,328.31z M1546.13,291.38
	c-1.78-3.17-2.36-6.5-2.34-9.89c0.01-2.34,1-4.67,1.56-7.01c0.3,0.09,0.61,0.18,0.91,0.26c0.16,4.51,6.86,15.24,14.98,21.77
	C1556.15,299.25,1548.98,296.47,1546.13,291.38z M1584.83,327.63c-0.55,4.67-1.31,9.32-1.94,13.72c-1.05-3.18-2.23-6.45-3.18-9.8
	c-0.38-1.34-0.11-2.85-0.42-4.22c-0.25-1.15-0.92-3.13-1.39-3.13c-1.38,0.01-2.91,0.59-4.1,1.38c-2.76,1.82-5.35,3.91-8.03,5.85
	c-0.31,0.22-0.81,0.18-1.41,0.3c2.15-5.74,4.21-11.22,6.17-16.45c3.7,2.11,7.12,4.29,10.74,6.05
	C1585.18,323.23,1585.37,323.06,1584.83,327.63z M1580.71,308.75c7.75-0.44,15.4,0.08,22.69-3.42
	C1600.56,314.6,1590.76,318.2,1580.71,308.75z M1605.16,372.46c-3.17-3.32-6.03-6.72-7.21-11.34c-1.2-4.68,0.72-8.92,1.45-13.62
	C1605.69,354.34,1608.32,365.91,1605.16,372.46z M1614.19,319.67c-1.07-0.44-2.56-0.02-3.8,0.25c-0.17,0.04-0.13,1.43-0.07,2.19
	c0.44,5.54,0.91,11.08,0.87,16.93c-3.83-5.49-7.66-10.98-11.58-16.58c7.86-1.72,11.13-8.1,14.69-13.7
	c3.6,5.19,7.32,10.56,11.29,16.28C1621.49,323.07,1617.91,321.2,1614.19,319.67z M1638.98,297.98c0.11,0.28,0.31,0.54,0.35,0.83
	c0.4,3.23,0.78,6.47,1.23,10.21c-6.13-4.51-12.05-8.87-17.97-13.23c0.13-0.23,0.25-0.47,0.38-0.7c5-0.54,9.48-2.17,12.87-6.11
	c0.11-0.13,0.24-0.24,0.33-0.38c2.66-4.11,2.64-4.07,7.16-1.98c3.7,1.71,7.44,3.33,11.18,4.95c0.68,0.29,1.44,0.41,2.16,0.62
	c-0.18,0.31-0.35,0.62-0.53,0.93c-5.04,0.49-10.09,0.94-15.12,1.5c-1,0.11-1.96,0.61-2.94,0.93
	C1638.37,296.35,1638.67,297.17,1638.98,297.98z M1643.34,324.2c4.92,0.18,9.38,2.03,13.21,4.4c6.13,3.78,8.47,10.3,10.16,17.4
	C1653.86,341.28,1644.3,332.43,1643.34,324.2z M1662.95,276.06c10.62-2.99,20.31-1.28,28.88,6.53
	C1681.26,284.27,1671.22,284.36,1662.95,276.06z"/>
<path class="st0" d="M1202.14,185.94c-0.48,0.13-0.95,0.28-1.44,0.31c-13.36,1.11-26.52,3.22-39.46,6.85
	c-10.16,2.85-20.46,5-29.85,10.26c-6.03,3.37-10.42,8.25-14.09,13.68c-2.46,3.65-3.33,8.34-5.21,12.42
	c-5.33,11.56-4.79,27.51,3.35,37.83c7.01,8.9,20.99,14.26,32.21,11.45c15.99-4,28.8-13.06,37.55-27.27c1.25-2.2,2.77-4.3,3.7-6.62
	c3.34-8.33,6.93-16.59,9.57-25.15c3.06-9.93,5.34-20.11,7.69-30.25C1207.05,185.68,1205.89,184.9,1202.14,185.94z M1161.14,205.37
	c0.36,0.28,0.73,0.55,1.09,0.83c-3.52,5.29-7.04,10.59-10.86,16.35C1152.16,214.91,1153.95,208.49,1161.14,205.37z M1132.62,241.48
	c-2.56-8.76,2.89-19.81,11.58-23C1145.66,225.75,1140.9,236.85,1132.62,241.48z M1137.85,247.31c0.95-7.01,32.69-35.76,40.96-36.64
	C1166.53,224.71,1153.7,237.55,1137.85,247.31z M1144.6,252.26c-0.13-0.44-0.25-0.89-0.38-1.34c7.24-2.75,14.49-5.49,21.73-8.24
	C1162.6,249.58,1152.27,254.62,1144.6,252.26z M1168.19,233.78c-0.14-0.37-0.29-0.75-0.43-1.12c4.78-1.83,9.55-3.66,14.32-5.48
	c0.12,0.32,0.24,0.63,0.36,0.94C1178.29,231.62,1173.95,234.63,1168.19,233.78z"/>
<path class="st0" d="M1470.69,186.57c2.12-3.79,5.21-7.04,7.22-10.87c2.25-4.28,4.4-8.79,5.43-13.46c1.13-5.09,1.43-10.49,1.2-15.71
	c-0.28-6.2-1.2-12.43-2.45-18.52c-0.91-4.42-2.57-8.74-4.3-12.94c-2.36-5.73-5.11-11.3-7.67-16.95c-1.08-2.37-2.08-4.76-3.19-7.11
	c-0.55-1.17-1.53-1.08-2.4-0.4c-1.22,0.95-2.36,2.02-3.55,3.02c-3.75,3.18-7.53,6.34-11.26,9.54c-5.91,5.09-10.52,11.15-13.57,18.36
	c-0.28,0.67-0.72,1.26-0.86,1.51c-3.23-3.03-6.27-6.04-9.5-8.84c-2.69-2.33-5.41-4.72-8.45-6.53c-3.75-2.24-7.81-3.99-11.79-5.82
	c-9.61-4.42-19.72-6.26-30.28-5.82c-1.88,0.08-3.78,0.06-5.66-0.04c-1.26-0.07-1.76,0.39-2.1,1.6c-1.12,3.98-1.12,8.04-1.04,12.11
	c0.1,5.7-0.02,11.44,0.52,17.1c0.51,5.32,1.61,10.61,2.73,15.85c0.77,3.61,1.65,7.28,3.13,10.63c2.17,4.92,4.93,9.59,7.46,14.4
	c-0.79,0.1-2.08,0.23-3.37,0.42c-7.69,1.14-14.87,3.51-21.13,8.36c-2.48,1.92-5.38,3.3-8,5.05c-2.03,1.35-3.9,2.94-5.89,4.35
	c-0.71,0.5-1.74,0.63-2.32,1.23c-0.51,0.53-1.01,1.65-0.77,2.19c0.62,1.42,1.45,2.84,2.54,3.93c3.14,3.15,6.28,6.35,9.74,9.14
	c3.76,3.02,7.76,5.77,11.86,8.32c3.66,2.27,7.53,4.15,11.65,5.63c5.01,1.8,10.1,2.61,15.32,3.21c3.51,0.4,6.96,1.34,10.46,1.87
	c4.06,0.62,8.13,0.59,12.12-0.59c7.01-2.07,14.08-3.98,21.01-6.28c6.12-2.04,11.96-4.7,17.04-8.87c2.1-1.73,4.97-2.58,6.87-4.46
	C1462.08,196.54,1467.37,192.49,1470.69,186.57z M1421.01,143.52c-1.89-1.52-6.13-13.32-7.85-22.06
	C1419.54,127.65,1422.51,134.84,1421.01,143.52z M1382.67,144.99c2.92,2.6,5.8,5.11,8.62,7.68c2.85,2.6,5.65,5.26,8.73,8.14
	C1388.17,158.58,1382.24,151.43,1382.67,144.99z M1415.2,201.31c-5.05,1.23-10.06,3.12-15.18,3.5c-5.03,0.38-10.29-0.29-15.26-1.35
	c-7.82-1.68-12.35-4.06-13.61-6.15c14.61,2.91,29.21,4.62,44.07,2.99C1415.21,200.64,1415.2,200.97,1415.2,201.31z M1396.41,170.58
	c7.72,4.01,15.73,8.17,23.56,12.24C1405.46,184.81,1400.71,178.55,1396.41,170.58z M1440.18,188.08c-3.37-3.04-7-5.84-10.04-9.17
	c-4.35-4.76-8.46-9.77-12.35-14.91c-4.86-6.42-9.4-13.08-14.05-19.66c-2.67-3.78-5.29-7.6-7.91-11.41
	c-1.49-2.17-2.92-4.38-4.38-6.57c0.1-0.09,0.19-0.19,0.29-0.28c0.36,0.22,0.8,0.37,1.07,0.67c3.69,3.95,7.42,7.85,11,11.89
	c3.71,4.2,7.29,8.52,10.88,12.82c1.78,2.14,3.45,4.37,5.19,6.55c3.43,4.29,6.93,8.53,10.29,12.88c2.7,3.49,5.36,7.01,7.79,10.69
	c1.23,1.86,1.92,4.07,2.85,6.13C1440.59,187.82,1440.39,187.95,1440.18,188.08z M1442.41,163.84c-0.41,1.49-1.04,2.92-1.57,4.38
	c-0.13-0.05-0.27-0.1-0.4-0.14c-1.9-9.58-3.79-19.16-5.69-28.74c0.13-0.1,0.27-0.2,0.4-0.3c1.61,2.62,3.37,5.17,4.77,7.9
	c0.74,1.45,0.71,3.26,1.26,4.83C1442.56,155.7,1443.57,159.67,1442.41,163.84z M1458.59,167.4c-0.05-0.22-0.17-0.44-0.11-0.58
	c1.25-2.93,2.94-5.76,3.7-8.81c1.31-5.27,2.11-10.67,3.01-16.03c0.59-3.5,0.97-7.04,1.45-10.56c0.17,0.01,0.33,0.02,0.5,0.03
	c0.7,3.86,1.6,7.7,2.02,11.59c0.28,2.65,0.28,5.47-0.29,8.05C1467.41,157.64,1464.04,162.29,1458.59,167.4z"/>
<path class="st0" d="M1694.08,421.3c-2.42-2.43-5.04-4.68-7.74-6.8c-2.41-1.89-5-3.51-7.8-4.88c-3.4-1.66-6.94-2.62-10.58-3.45
	c-2.45-0.56-4.82-1.48-7.25-2.13c-2.82-0.75-5.7-1.04-8.61-0.52c-5.12,0.92-10.26,1.72-15.34,2.82c-4.48,0.97-8.82,2.39-12.73,4.96
	c-1.62,1.06-3.71,1.44-5.2,2.62c-3.66,2.9-7.71,5.36-10.51,9.29c-1.79,2.51-4.23,4.58-5.95,7.13c-1.92,2.85-3.79,5.88-4.88,9.1
	c-1.19,3.51-1.82,7.3-2.06,11.01c-0.28,4.41-0.11,8.88,0.3,13.28c0.3,3.2,1.14,6.38,2.04,9.48c1.22,4.23,2.74,8.38,4.11,12.57
	c0.58,1.76,1.1,3.53,1.71,5.27c0.3,0.87,1,0.88,1.67,0.47c0.94-0.58,1.82-1.24,2.74-1.86c2.9-1.96,5.81-3.9,8.7-5.88
	c4.57-3.14,8.3-7.07,11.02-11.93c0.25-0.45,0.61-0.84,0.73-1c2.05,2.39,3.97,4.75,6.03,6.98c1.72,1.86,3.46,3.75,5.47,5.27
	c2.48,1.87,5.21,3.42,7.88,5.03c6.45,3.87,13.46,5.95,20.96,6.46c1.34,0.09,2.68,0.25,4,0.47c0.88,0.15,1.28-0.14,1.61-0.97
	c1.1-2.73,1.41-5.6,1.67-8.48c0.37-4.04,0.9-8.08,0.96-12.13c0.05-3.8-0.32-7.62-0.7-11.42c-0.27-2.61-0.6-5.27-1.39-7.76
	c-1.16-3.65-2.74-7.16-4.16-10.75c0.57-0.01,1.49,0,2.41-0.03c5.53-0.21,10.78-1.33,15.59-4.28c1.9-1.17,4.06-1.92,6.05-2.95
	c1.54-0.8,2.98-1.78,4.5-2.62c0.54-0.3,1.28-0.31,1.74-0.69c0.4-0.33,0.84-1.09,0.71-1.49c-0.33-1.05-0.81-2.12-1.49-2.97
	C1698.27,426.04,1696.31,423.54,1694.08,421.3z M1615.4,438.11c-1.11,1.98-2.53,3.84-3.3,5.94c-1.33,3.62-2.32,7.38-3.36,11.1
	c-0.69,2.43-1.23,4.9-1.84,7.35c-0.12-0.02-0.23-0.04-0.35-0.06c-0.19-2.78-0.54-5.57-0.53-8.35c0-1.9,0.22-3.89,0.83-5.67
	c1.53-4.51,4.27-7.54,8.52-10.73C1615.39,437.85,1615.46,438.02,1615.4,438.11z M1629.75,459.56c-0.94-1.98-1.98-3.92-2.76-5.96
	c-0.41-1.08-0.25-2.36-0.52-3.51c-0.67-2.89-1.08-5.78,0.06-8.64c0.41-1.02,0.96-1.98,1.45-2.97c0.09,0.04,0.18,0.09,0.27,0.13
	c0.6,6.92,1.2,13.84,1.8,20.76C1629.95,459.44,1629.85,459.5,1629.75,459.56z M1640.09,457.48c1.22,1.22,3.3,9.89,3.85,16.2
	C1639.9,468.81,1638.36,463.5,1640.09,457.48z M1659.44,472.08c-0.24-0.18-0.53-0.32-0.71-0.56c-2.3-3.07-4.64-6.12-6.86-9.26
	c-2.3-3.25-4.5-6.59-6.7-9.91c-1.09-1.65-2.1-3.36-3.16-5.03c-2.09-3.3-4.24-6.57-6.28-9.9c-1.64-2.67-3.25-5.37-4.68-8.16
	c-0.73-1.41-1.04-3.03-1.54-4.55c0.15-0.08,0.31-0.15,0.46-0.23c2.15,2.41,4.49,4.67,6.39,7.26c2.71,3.7,5.22,7.56,7.57,11.5
	c2.94,4.92,5.64,9.97,8.42,14.99c1.6,2.88,3.15,5.78,4.71,8.68c0.88,1.65,1.73,3.32,2.59,4.98
	C1659.59,471.96,1659.52,472.02,1659.44,472.08z M1643.87,429.78c10.42-0.29,13.29,4.51,15.71,10.48
	C1654.43,436.82,1649.09,433.26,1643.87,429.78z M1667.31,459.41c-1.86-2.06-3.7-4.06-5.5-6.1c-1.81-2.06-3.58-4.16-5.54-6.43
	C1664.48,449.38,1668.11,454.89,1667.31,459.41z M1648.58,417.79c0.03-0.24,0.06-0.47,0.09-0.71c3.67-0.48,7.35-1.43,11-1.3
	c3.59,0.12,7.25,1,10.68,2.14c5.4,1.79,8.42,3.82,9.15,5.4C1669.39,420.13,1659.21,417.78,1648.58,417.79z"/>
<path class="st0" d="M95.88,371.35c2.21-2.62,4.24-5.42,6.11-8.29c1.68-2.56,3.08-5.28,4.2-8.19c1.36-3.53,2.02-7.14,2.54-10.84
	c0.35-2.49,1.07-4.93,1.51-7.41c0.51-2.88,0.55-5.77-0.22-8.63c-1.35-5.02-2.59-10.08-4.11-15.04c-1.34-4.38-3.14-8.58-6.02-12.26
	c-1.19-1.52-1.75-3.57-3.06-4.96c-3.2-3.4-5.99-7.22-10.15-9.68c-2.66-1.57-4.92-3.82-7.61-5.32c-3-1.67-6.18-3.27-9.48-4.09
	c-3.6-0.89-7.43-1.2-11.15-1.12c-4.42,0.1-8.86,0.65-13.21,1.43c-3.16,0.57-6.26,1.68-9.27,2.84c-4.11,1.58-8.12,3.44-12.18,5.17
	c-1.7,0.73-3.42,1.4-5.11,2.15c-0.84,0.37-0.79,1.07-0.32,1.7c0.66,0.89,1.4,1.71,2.09,2.57c2.2,2.72,4.38,5.46,6.6,8.16
	c3.52,4.29,7.75,7.66,12.82,9.96c0.47,0.21,0.89,0.53,1.06,0.64c-2.21,2.25-4.4,4.36-6.44,6.6c-1.7,1.87-3.45,3.77-4.79,5.9
	c-1.66,2.63-2.97,5.48-4.34,8.28c-3.31,6.76-4.79,13.92-4.65,21.43c0.02,1.34-0.02,2.69-0.13,4.02c-0.07,0.89,0.25,1.26,1.1,1.52
	c2.81,0.87,5.7,0.93,8.59,0.95c4.06,0.02,8.13,0.21,12.17-0.08c3.79-0.27,7.57-0.97,11.32-1.67c2.58-0.49,5.2-1.05,7.61-2.05
	c3.54-1.46,6.9-3.34,10.36-5.06c0.06,0.57,0.13,1.49,0.24,2.4c0.68,5.49,2.24,10.63,5.59,15.16c1.33,1.8,2.26,3.88,3.46,5.77
	c0.93,1.46,2.02,2.82,2.99,4.26c0.35,0.52,0.42,1.25,0.84,1.67c0.37,0.37,1.16,0.74,1.54,0.58c1.02-0.42,2.04-0.99,2.84-1.74
	C91.52,375.94,93.85,373.77,95.88,371.35z M72.43,294.4c-2.07-0.94-4.04-2.19-6.2-2.78c-3.72-1.02-7.55-1.68-11.35-2.41
	c-2.48-0.48-4.99-0.81-7.48-1.21c0.01-0.12,0.02-0.24,0.03-0.35c2.76-0.43,5.5-1.01,8.28-1.24c1.89-0.16,3.89-0.11,5.72,0.34
	c4.63,1.14,7.88,3.61,11.42,7.58C72.69,294.36,72.53,294.45,72.43,294.4z M52.28,310.52c1.89-1.1,3.73-2.31,5.7-3.26
	c1.04-0.5,2.33-0.45,3.46-0.81c2.83-0.92,5.66-1.57,8.61-0.67c1.05,0.32,2.06,0.79,3.09,1.19c-0.04,0.09-0.07,0.19-0.11,0.28
	c-6.84,1.19-13.69,2.37-20.53,3.56C52.42,310.71,52.35,310.62,52.28,310.52z M55.23,320.65c-1.11,1.32-9.57,4.14-15.82,5.21
	C43.93,321.43,49.09,319.44,55.23,320.65z M42.34,341.17c0.16-0.25,0.28-0.56,0.49-0.75c2.87-2.55,5.7-5.15,8.64-7.62
	c3.05-2.57,6.18-5.04,9.3-7.52c1.55-1.23,3.17-2.38,4.74-3.58c3.11-2.37,6.18-4.78,9.33-7.1c2.52-1.86,5.08-3.69,7.73-5.36
	c1.34-0.84,2.93-1.29,4.41-1.92c0.09,0.15,0.18,0.3,0.27,0.44c-2.22,2.34-4.27,4.88-6.69,6.99c-3.45,3.01-7.09,5.85-10.81,8.53
	c-4.65,3.35-9.46,6.47-14.21,9.66c-2.73,1.84-5.49,3.64-8.25,5.43c-1.57,1.02-3.16,2-4.75,3C42.47,341.31,42.4,341.24,42.34,341.17z
	 M83.16,322.05c1.17,10.35-3.36,13.63-9.1,16.54C77.04,333.17,80.13,327.55,83.16,322.05z M55.63,347.94c1.9-2.03,3.73-4.04,5.61-6
	c1.9-1.98,3.83-3.93,5.93-6.07C65.39,344.26,60.21,348.35,55.63,347.94z M95.51,325.73c0.24,0.01,0.48,0.02,0.72,0.03
	c0.79,3.61,2.05,7.2,2.24,10.85c0.18,3.59-0.38,7.31-1.22,10.83c-1.32,5.53-3.09,8.71-4.6,9.57
	C94.95,346.66,96.42,336.31,95.51,325.73z"/>
<path class="st0" d="M1413.96-34.68c-2.42-2.43-5.04-4.68-7.74-6.8c-2.41-1.89-5-3.51-7.8-4.88c-3.4-1.66-6.94-2.62-10.58-3.45
	c-2.45-0.56-4.82-1.48-7.25-2.13c-2.82-0.75-5.7-1.04-8.61-0.52c-5.12,0.92-10.26,1.72-15.34,2.82c-4.48,0.97-8.82,2.39-12.73,4.96
	c-1.62,1.06-3.71,1.44-5.2,2.62c-3.66,2.9-7.71,5.36-10.51,9.29c-1.79,2.51-4.23,4.58-5.95,7.13c-1.92,2.85-3.79,5.88-4.88,9.1
	c-1.19,3.51-1.82,7.3-2.06,11.01c-0.28,4.41-0.11,8.88,0.3,13.28c0.3,3.2,1.14,6.38,2.04,9.48c1.22,4.23,2.74,8.38,4.11,12.57
	c0.58,1.76,1.1,3.53,1.71,5.27c0.3,0.87,1,0.88,1.67,0.47c0.94-0.58,1.82-1.24,2.74-1.86c2.9-1.96,5.81-3.9,8.7-5.88
	c4.57-3.14,8.3-7.07,11.02-11.93c0.25-0.45,0.61-0.84,0.73-1c2.05,2.39,3.97,4.75,6.03,6.98c1.72,1.86,3.46,3.75,5.47,5.27
	c2.48,1.87,5.21,3.42,7.88,5.03c6.45,3.87,13.46,5.95,20.96,6.46c1.34,0.09,2.68,0.25,4,0.47c0.88,0.15,1.28-0.14,1.61-0.97
	c1.1-2.73,1.41-5.6,1.67-8.48c0.37-4.04,0.9-8.08,0.96-12.13c0.05-3.8-0.32-7.62-0.7-11.42c-0.27-2.61-0.6-5.27-1.39-7.76
	c-1.16-3.65-2.74-7.16-4.16-10.75c0.57-0.01,1.49,0,2.41-0.03c5.53-0.21,10.78-1.33,15.59-4.28c1.9-1.17,4.06-1.92,6.05-2.95
	c1.54-0.8,2.98-1.78,4.5-2.62c0.54-0.3,1.28-0.31,1.74-0.69c0.4-0.33,0.84-1.09,0.71-1.49c-0.33-1.05-0.81-2.12-1.49-2.97
	C1418.16-29.94,1416.19-32.44,1413.96-34.68z M1335.29-17.87c-1.11,1.98-2.53,3.84-3.3,5.94c-1.33,3.62-2.32,7.38-3.36,11.1
	c-0.69,2.43-1.23,4.9-1.84,7.35c-0.12-0.02-0.23-0.04-0.35-0.06c-0.19-2.78-0.54-5.57-0.53-8.35c0-1.9,0.22-3.89,0.83-5.67
	c1.53-4.51,4.27-7.54,8.52-10.73C1335.27-18.13,1335.34-17.96,1335.29-17.87z M1349.63,3.58c-0.94-1.98-1.98-3.92-2.76-5.96
	c-0.41-1.08-0.25-2.36-0.52-3.51c-0.67-2.89-1.08-5.78,0.06-8.64c0.41-1.02,0.96-1.98,1.45-2.97c0.09,0.04,0.18,0.09,0.27,0.13
	c0.6,6.92,1.2,13.84,1.8,20.76C1349.84,3.46,1349.73,3.52,1349.63,3.58z M1359.97,1.5c1.22,1.22,3.3,9.89,3.85,16.2
	C1359.79,12.83,1358.25,7.52,1359.97,1.5z M1379.32,16.1c-0.24-0.18-0.53-0.32-0.71-0.56c-2.3-3.07-4.64-6.12-6.86-9.26
	c-2.3-3.25-4.5-6.59-6.7-9.91c-1.09-1.65-2.1-3.36-3.16-5.03c-2.09-3.3-4.24-6.57-6.28-9.9c-1.64-2.67-3.25-5.37-4.68-8.16
	c-0.73-1.41-1.04-3.03-1.54-4.55c0.15-0.08,0.31-0.15,0.46-0.23c2.15,2.41,4.49,4.67,6.39,7.26c2.71,3.7,5.22,7.56,7.57,11.5
	c2.94,4.92,5.64,9.97,8.42,14.99c1.6,2.88,3.15,5.78,4.71,8.68c0.88,1.65,1.73,3.32,2.59,4.98
	C1379.47,15.98,1379.4,16.04,1379.32,16.1z M1363.75-26.2c10.42-0.29,13.29,4.51,15.71,10.48
	C1374.31-19.16,1368.97-22.72,1363.75-26.2z M1387.2,3.43c-1.86-2.06-3.7-4.06-5.5-6.1c-1.81-2.06-3.58-4.16-5.54-6.43
	C1384.36-6.6,1388-1.09,1387.2,3.43z M1368.46-38.19c0.03-0.24,0.06-0.47,0.09-0.71c3.67-0.48,7.35-1.43,11-1.3
	c3.59,0.12,7.25,1,10.68,2.14c5.4,1.79,8.42,3.82,9.15,5.4C1389.28-35.85,1379.09-38.2,1368.46-38.19z"/>
</svg>
