<?xml version="1.0" encoding="utf-8"?>
<!-- Generator: Adobe Illustrator 23.0.3, SVG Export Plug-In . SVG Version: 6.00 Build 0)  -->
<svg version="1.1" id="圖層_1" xmlns="http://www.w3.org/2000/svg" xmlns:xlink="http://www.w3.org/1999/xlink" x="0px" y="0px"
	 viewBox="0 0 800 800" style="enable-background:new 0 0 800 800;" xml:space="preserve">
<style type="text/css">
	.st0{fill:#F2B33D;}
</style>
<g>
	<g>
		<path class="st0" d="M430.81,134.57l338.02,488.19c17.21,24.85-0.58,58.8-30.81,58.8H61.98c-30.23,0-48.01-33.95-30.81-58.8
			l338.02-488.19C384.09,113.05,415.91,113.05,430.81,134.57z"/>
	</g>
	<g>
		<path d="M712.92,652.09H87.08c-7.38,0-14.1-4.06-17.53-10.6c-3.43-6.54-2.94-14.38,1.26-20.45c0,0,0,0,0,0L383.73,169.1
			c3.7-5.34,9.78-8.52,16.27-8.52c6.49,0,12.57,3.19,16.27,8.52l312.92,451.94c4.2,6.07,4.69,13.91,1.26,20.45
			C727.02,648.02,720.3,652.09,712.92,652.09z M82.32,629c-1.8,2.6-0.86,5.05-0.37,5.98c0.49,0.93,1.97,3.1,5.13,3.1h625.84
			c3.16,0,4.64-2.17,5.13-3.1c0.49-0.93,1.43-3.38-0.37-5.98L404.76,177.07c-1.1-1.58-2.83-2.49-4.76-2.49
			c-1.93,0-3.66,0.91-4.76,2.49L82.32,629z"/>
	</g>
	<g>
		<path d="M307.58,489.5l12.81,0.01l-0.01,24.76c0,2.46-0.39,4.77-1.15,6.95s-1.97,4.09-3.6,5.72c-1.64,1.63-3.35,2.78-5.15,3.44
			c-2.49,0.92-5.49,1.39-8.99,1.38c-2.02,0-4.23-0.15-6.62-0.43c-2.39-0.29-4.39-0.85-5.99-1.69c-1.61-0.84-3.07-2.04-4.41-3.58
			c-1.33-1.55-2.24-3.15-2.73-4.79c-0.79-2.64-1.19-4.99-1.19-7.03l0.01-24.76l12.81,0.01l-0.01,25.35c0,2.27,0.63,4.04,1.88,5.31
			s3,1.91,5.23,1.91c2.21,0,3.94-0.62,5.2-1.88c1.26-1.25,1.89-3.03,1.89-5.34L307.58,489.5z"/>
		<path d="M328.98,489.51l11.99,0.01l15.63,23l0.01-22.99l12.1,0.01l-0.02,41.55l-12.1-0.01l-15.55-22.82l-0.01,22.82l-12.07-0.01
			L328.98,489.51z"/>
		<path d="M377.42,489.54l19.08,0.01c3.76,0,6.8,0.51,9.11,1.54c2.31,1.02,4.23,2.49,5.74,4.4c1.51,1.91,2.6,4.13,3.28,6.66
			c0.68,2.53,1.02,5.22,1.02,8.05c0,4.44-0.51,7.88-1.52,10.33c-1.01,2.45-2.42,4.5-4.21,6.15c-1.8,1.65-3.72,2.75-5.78,3.3
			c-2.82,0.75-5.37,1.13-7.65,1.13l-19.08-0.01L377.42,489.54z M390.26,498.96l-0.01,22.7l3.15,0c2.68,0,4.59-0.3,5.73-0.89
			c1.13-0.59,2.02-1.63,2.67-3.12c0.64-1.48,0.96-3.89,0.97-7.21c0-4.4-0.71-7.42-2.15-9.04c-1.44-1.63-3.82-2.44-7.14-2.44
			L390.26,498.96z"/>
		<path d="M422.38,489.57l34.41,0.02l0,8.87l-21.54-0.01l0,6.6l19.98,0.01l0,8.47l-19.98-0.01l0,8.19l22.16,0.01l0,9.41l-35.03-0.02
			L422.38,489.57z"/>
		<path d="M464.47,531.14l0.02-41.55l21.4,0.01c3.97,0,7,0.34,9.1,1.02c2.1,0.68,3.79,1.95,5.07,3.79c1.28,1.84,1.92,4.09,1.92,6.73
			c0,2.31-0.5,4.29-1.48,5.97c-0.98,1.67-2.34,3.03-4.06,4.06c-1.1,0.66-2.6,1.21-4.51,1.64c1.53,0.51,2.64,1.02,3.34,1.53
			c0.47,0.34,1.16,1.07,2.05,2.19c0.9,1.12,1.5,1.98,1.8,2.58l6.21,12.04l-14.51-0.01l-6.86-12.7c-0.87-1.64-1.64-2.71-2.32-3.21
			c-0.92-0.64-1.97-0.96-3.14-0.96l-1.13,0l-0.01,16.86L464.47,531.14z M477.38,506.44l5.41,0c0.59,0,1.72-0.19,3.4-0.57
			c0.85-0.17,1.54-0.6,2.08-1.3c0.54-0.7,0.81-1.5,0.81-2.41c0-1.34-0.42-2.37-1.27-3.09c-0.85-0.72-2.45-1.08-4.79-1.08l-5.64,0
			L477.38,506.44z"/>
		<path d="M170,583.63l11.25,3.41c-0.76,3.16-1.95,5.79-3.58,7.91c-1.63,2.12-3.64,3.71-6.05,4.79c-2.41,1.08-5.48,1.61-9.2,1.61
			c-4.52,0-8.21-0.66-11.07-1.98c-2.86-1.31-5.33-3.62-7.41-6.93s-3.11-7.54-3.11-12.69c0-6.87,1.84-12.16,5.49-15.84
			s8.83-5.53,15.52-5.53c5.23,0,9.35,1.06,12.34,3.18c2.99,2.12,5.22,5.37,6.67,9.75l-11.34,2.52c-0.4-1.27-0.81-2.19-1.25-2.78
			c-0.72-0.98-1.6-1.74-2.63-2.27s-2.2-0.79-3.49-0.8c-2.91,0-5.14,1.17-6.69,3.51c-1.17,1.74-1.76,4.46-1.76,8.18
			c0,4.61,0.69,7.76,2.09,9.47s3.36,2.56,5.89,2.57c2.46,0,4.31-0.69,5.57-2.07C168.52,588.25,169.44,586.25,170,583.63z"/>
		<path d="M185.88,579.89c0-6.78,1.9-12.06,5.68-15.84c3.78-3.78,9.05-5.66,15.79-5.66c6.92,0,12.24,1.86,15.98,5.58
			c3.74,3.72,5.61,8.92,5.6,15.61c0,4.86-0.82,8.84-2.46,11.95c-1.64,3.11-4,5.52-7.09,7.25c-3.09,1.73-6.94,2.59-11.55,2.59
			c-4.69,0-8.56-0.75-11.63-2.25c-3.07-1.5-5.56-3.86-7.46-7.09C186.83,588.79,185.88,584.75,185.88,579.89z M198.72,579.96
			c0,4.2,0.78,7.21,2.33,9.04c1.56,1.83,3.68,2.75,6.36,2.75c2.76,0,4.89-0.89,6.41-2.69c1.51-1.79,2.27-5.02,2.27-9.66
			c0-3.91-0.79-6.77-2.36-8.58c-1.58-1.8-3.72-2.71-6.42-2.71c-2.59,0-4.67,0.91-6.24,2.75S198.72,575.72,198.72,579.96z"/>
		<path d="M235.95,559.12l11.99,0.01l15.63,23l0.01-22.99l12.1,0.01l-0.02,41.55l-12.1-0.01l-15.55-22.82L248,600.68l-12.07-0.01
			L235.95,559.12z"/>
		<path d="M281.96,586.95l12.22-0.76c0.26,1.98,0.8,3.5,1.61,4.54c1.32,1.68,3.21,2.52,5.67,2.53c1.83,0,3.25-0.43,4.24-1.29
			c0.99-0.86,1.49-1.86,1.49-2.99c0-1.08-0.47-2.04-1.42-2.89c-0.94-0.85-3.14-1.66-6.57-2.41c-5.63-1.27-9.65-2.95-12.04-5.05
			c-2.42-2.1-3.63-4.77-3.62-8.02c0-2.13,0.62-4.15,1.86-6.05s3.1-3.39,5.59-4.47c2.48-1.09,5.89-1.63,10.22-1.62
			c5.31,0,9.36,0.99,12.14,2.97c2.79,1.98,4.44,5.12,4.97,9.43l-12.1,0.7c-0.32-1.87-1-3.23-2.02-4.08
			c-1.03-0.85-2.45-1.28-4.27-1.28c-1.49,0-2.62,0.31-3.37,0.95c-0.76,0.63-1.13,1.4-1.13,2.31c0,0.66,0.31,1.26,0.93,1.79
			c0.6,0.55,2.04,1.06,4.31,1.53c5.61,1.21,9.63,2.44,12.06,3.68c2.43,1.24,4.19,2.78,5.3,4.61s1.66,3.88,1.65,6.15
			c0,2.67-0.74,5.12-2.21,7.37c-1.48,2.25-3.54,3.95-6.18,5.11c-2.65,1.16-5.98,1.74-10.01,1.74c-7.07,0-11.96-1.37-14.68-4.09
			C283.86,594.6,282.32,591.15,281.96,586.95z"/>
		<path d="M323.22,559.17l39.03,0.02l-0.01,10.26l-13.1-0.01l-0.02,31.29l-12.84-0.01l0.02-31.29l-13.1-0.01L323.22,559.17z"/>
		<path d="M368.2,600.75l0.02-41.55l21.4,0.01c3.97,0,7,0.34,9.1,1.02c2.1,0.68,3.79,1.94,5.07,3.79c1.28,1.84,1.93,4.09,1.92,6.73
			c0,2.31-0.5,4.29-1.48,5.97c-0.99,1.67-2.34,3.03-4.06,4.07c-1.1,0.66-2.6,1.21-4.51,1.64c1.53,0.51,2.64,1.02,3.34,1.53
			c0.47,0.34,1.16,1.07,2.05,2.19c0.9,1.12,1.5,1.98,1.8,2.58l6.21,12.04l-14.51-0.01l-6.86-12.7c-0.87-1.64-1.64-2.71-2.32-3.2
			c-0.93-0.64-1.97-0.96-3.15-0.96l-1.13,0l-0.01,16.86L368.2,600.75z M381.11,576.04l5.41,0c0.59,0,1.72-0.19,3.4-0.57
			c0.85-0.17,1.54-0.6,2.08-1.3c0.54-0.7,0.81-1.5,0.81-2.41c0-1.34-0.42-2.37-1.27-3.09c-0.85-0.72-2.45-1.08-4.79-1.08l-5.64,0
			L381.11,576.04z"/>
		<path d="M439.26,559.24l12.81,0.01L452.05,584c0,2.46-0.39,4.77-1.15,6.95c-0.77,2.18-1.97,4.09-3.6,5.72
			c-1.64,1.63-3.35,2.78-5.15,3.44c-2.5,0.92-5.49,1.39-8.99,1.38c-2.02,0-4.23-0.15-6.62-0.43c-2.39-0.29-4.39-0.85-5.99-1.69
			c-1.61-0.84-3.07-2.04-4.41-3.59c-1.33-1.55-2.24-3.15-2.73-4.79c-0.79-2.64-1.19-4.99-1.19-7.03l0.01-24.76l12.81,0.01
			l-0.01,25.35c0,2.27,0.62,4.04,1.88,5.31c1.25,1.28,3,1.91,5.23,1.91c2.21,0,3.95-0.62,5.2-1.88c1.26-1.25,1.89-3.03,1.89-5.34
			L439.26,559.24z"/>
		<path d="M488.22,583.81l11.25,3.41c-0.76,3.16-1.95,5.79-3.58,7.91c-1.63,2.12-3.65,3.71-6.05,4.79c-2.41,1.08-5.48,1.61-9.2,1.61
			c-4.52,0-8.21-0.66-11.07-1.98c-2.86-1.31-5.33-3.62-7.41-6.93c-2.08-3.31-3.11-7.54-3.11-12.69c0-6.87,1.83-12.16,5.49-15.84
			c3.66-3.69,8.83-5.53,15.52-5.53c5.23,0,9.35,1.06,12.34,3.18c2.99,2.12,5.22,5.37,6.67,9.75L487.75,574
			c-0.4-1.27-0.81-2.19-1.25-2.78c-0.72-0.98-1.6-1.74-2.64-2.27c-1.04-0.53-2.2-0.8-3.49-0.8c-2.91,0-5.14,1.17-6.69,3.51
			c-1.17,1.74-1.76,4.46-1.76,8.18c0,4.61,0.69,7.76,2.09,9.47s3.36,2.56,5.89,2.56c2.46,0,4.31-0.69,5.57-2.06
			C486.74,588.44,487.65,586.44,488.22,583.81z"/>
		<path d="M502.8,559.27l39.03,0.02l-0.01,10.26l-13.09-0.01l-0.02,31.29l-12.84-0.01l0.02-31.29l-13.09-0.01L502.8,559.27z"/>
		<path d="M548.16,559.3l12.87,0.01L561,600.86l-12.87-0.01L548.16,559.3z"/>
		<path d="M568.61,580.12c0-6.78,1.9-12.06,5.68-15.84c3.78-3.78,9.04-5.66,15.79-5.66c6.92,0,12.24,1.86,15.98,5.58
			c3.74,3.71,5.61,8.92,5.6,15.61c0,4.86-0.82,8.84-2.46,11.95c-1.64,3.11-4,5.52-7.09,7.25c-3.09,1.73-6.94,2.59-11.55,2.59
			c-4.69,0-8.56-0.75-11.63-2.25c-3.07-1.49-5.56-3.86-7.46-7.09C569.56,589.02,568.6,584.97,568.61,580.12z M581.45,580.18
			c0,4.2,0.78,7.21,2.33,9.04c1.56,1.83,3.68,2.75,6.36,2.75c2.76,0,4.89-0.89,6.41-2.69c1.51-1.79,2.27-5.02,2.27-9.66
			c0-3.91-0.79-6.77-2.36-8.58c-1.58-1.8-3.72-2.71-6.42-2.71c-2.59,0-4.67,0.91-6.24,2.75S581.45,575.95,581.45,580.18z"/>
		<path d="M618.67,559.34l11.99,0.01l15.63,23l0.01-22.99l12.1,0.01l-0.02,41.55l-12.1-0.01l-15.55-22.83l-0.01,22.82l-12.07-0.01
			L618.67,559.34z"/>
	</g>
	<g>
		<g>
			<path d="M366.41,360.98c-2.84,1.94-5.76,3.06-8.77,3.35c-3.01,0.29-5.89-0.05-8.64-1.02c-2.75-0.97-5.35-2.33-7.76-4.08
				c-2.42-1.75-4.38-3.5-5.89-5.24c-1-5.25-0.63-10.2,1.13-14.86c1.75-4.66,4.38-8.26,7.89-10.78c3.51-2.53,7.64-3.64,12.4-3.35
				c4.76,0.29,9.56,2.67,14.4,7.14c1.17,1.75,2.21,3.88,3.13,6.41c0.92,2.52,1.38,5.14,1.38,7.87c0,2.72-0.71,5.39-2.13,8.01
				C372.13,357.05,369.75,359.23,366.41,360.98z M445.22,365.06c-5.35,0-10.44-1.02-15.28-3.06c-4.84-2.04-8.01-5.29-9.52-9.76
				c-0.84-2.91-1.09-5.49-0.75-7.72c0.33-2.24,1.04-4.27,2.13-6.12c1.08-1.85,2.38-3.5,3.88-4.95c1.5-1.46,3.01-2.67,4.51-3.64
				c1.84-0.58,4.01-1.02,6.51-1.31c2.5-0.29,5.01-0.2,7.51,0.29c2.5,0.48,4.84,1.46,7.01,2.91c2.17,1.46,3.92,3.74,5.26,6.85
				c1.17,6.8,0.54,12.48-1.88,17.04C452.19,360.15,449.06,363.31,445.22,365.06z"/>
		</g>
		<g>
			<path d="M378.91,446.64c-8.01-0.97-16.07-2.29-24.17-3.93c-8.1-1.65-15.82-5.29-23.17-10.93c-4.34-2.14-8.68-3.84-13.02-5.1
				c-4.34-1.27-8.6-3.16-12.77-5.68c-2.17-3.11-4.3-5.78-6.39-8.01c-2.09-2.24-3.67-4.62-4.76-7.14c-1.08-2.53-1.54-5.49-1.38-8.89
				c0.17-3.4,1.42-7.82,3.76-13.26c3.34-2.53,7.26-3.01,11.77-1.46c4.51,1.55,9.39,3.93,14.65,7.14c5.26,3.2,10.77,6.6,16.53,10.2
				c5.76,3.59,11.48,6.16,17.16,7.72c19.54,4.85,38.32,5.34,56.35,1.46c18.03-3.89,35.65-11.36,52.85-22.43
				c5.84-0.58,11.23,0.19,16.16,2.33c4.92,2.14,9.06,6.8,12.4,13.98c0.5,4.85-0.67,8.84-3.51,11.95c-2.84,3.1-6.55,5.78-11.15,8.01
				c-4.59,2.23-9.64,4.32-15.15,6.26c-5.51,1.94-10.61,4.37-15.28,7.28c-2.17,0.19-4.22,0.73-6.14,1.6
				c-1.92,0.87-3.8,1.79-5.64,2.77c-1.84,0.97-3.72,1.89-5.64,2.77c-1.92,0.87-3.97,1.41-6.14,1.6c-7.18,1.55-14.4,2.52-21.66,2.91
				C397.31,448.19,388.76,447.8,378.91,446.64z"/>
		</g>
	</g>
</g>
</svg>
